<svg id="Native_map" data-name="Native map" xmlns="http://www.w3.org/2000/svg" viewBox="0 0 318.34 204.54"><defs><style>.cls-1{fill:#5d6d79;}.cls-2{fill:#5d6c76;}.cls-10,.cls-11,.cls-12,.cls-3,.cls-6,.cls-8,.cls-9{fill:none;}.cls-10,.cls-11,.cls-12,.cls-3,.cls-6,.cls-7,.cls-8,.cls-9{stroke:#fff;stroke-miterlimit:10;}.cls-3,.cls-7{stroke-width:0.22px;}.cls-13,.cls-14,.cls-4,.cls-7{fill:#fff;}.cls-4{opacity:0.26;}.cls-5{fill:#ffd400;opacity:0.13;}.cls-6{stroke-width:0.08px;}.cls-8{stroke-width:0.22px;}.cls-9{stroke-width:0.24px;}.cls-10{stroke-width:0.24px;}.cls-11{stroke-width:0.22px;}.cls-12{stroke-width:0.08px;}.cls-14{fill-rule:evenodd;}.cls-15{fill:#eceeef;}</style></defs><title>1.Native_map</title><rect class="cls-1" width="318.34" height="204.54"/><polygon class="cls-2" points="71.82 168.63 76.94 168.63 82.5 167.3 84.5 169.52 145.25 169.52 154.15 168.41 160.16 165.96 162.38 169.08 201.76 169.08 201.76 150.16 205.99 150.16 205.99 120.13 211.56 120.13 211.56 115.9 219.79 115.9 243.82 115.9 290.4 115.9 290.4 117.16 304.79 117.16 308.49 112.12 308.94 104.4 308.94 91.35 306.86 86.9 303.6 81.71 302.86 76.81 306.12 74.73 309.68 74.44 310.72 73.4 310.72 44.47 309.09 41.06 302.26 41.06 296.03 42.55 285.8 42.55 270.52 42.69 256.72 42.4 256.72 37.21 243.37 37.21 229.28 37.21 221.72 36.76 216.08 38.1 206.88 42.25 204.06 42.25 204.06 36.04 162.83 36.04 137.46 36.04 137.46 37.65 134.49 37.65 133.17 36.33 118.47 36.33 101.56 36.33 101.56 39.36 96.22 39.36 96.22 36.04 77.09 36.04 77.09 38.84 74.86 38.84 74.86 36.02 52.31 36.02 46.38 36.02 29.92 39.13 27.25 42.84 33.33 55.9 47.72 52.63 50.83 61.24 36.89 63.76 42.23 83.04 50.68 82.6 54.84 88.83 52.61 92.54 53.95 98.62 56.77 103.36 52.17 109.74 55.43 116.72 58.55 127.25 59.88 128.58 62.7 128.58 62.7 129.92 59.58 129.92 71.82 168.63"/><path class="cls-3" d="M131.93,85.08h3.86V105h-3.86S131.86,85.08,131.93,85.08Z" transform="translate(-1 -3.22)"/><path class="cls-3" d="M138.24,44.36h1.56V43.84h1.11V53H139.5V52.37h-1.19S138.35,44.25,138.24,44.36Z" transform="translate(-1 -3.22)"/><path class="cls-3" d="M158.26,43.1l-1.93,3.56,6.6,3.63,0.37-.82L164,49.92l0.52-.89-0.74-.3,0.74-1.11-0.37-.52,0.37-.59S158.19,43,158.26,43.1Z" transform="translate(-1 -3.22)"/><path class="cls-3" d="M155.37,58.16h3.93v6.23h3.26v-3h6.9v9.27h-9.64V68.91h-0.89V69.8h-6.75v-1h-1v1.85h-9V59.27h2.89v7.42h5.71V67.5h0.89v-1h3.63S155.48,58,155.37,58.16Z" transform="translate(-1 -3.22)"/><path class="cls-3" d="M176.21,61.57v9.35h8.6V61.42H183v0.89l-0.67,1.11-0.59-.3V62.23h-3.34V61.49Z" transform="translate(-1 -3.22)"/><path class="cls-3" d="M177,40.87V54.52h1.11v1h1.78V54.74h0.52V44.51h5.56V40.95h-3.26v1.11h-2.37V40.5H177S177.07,41,177,40.87Z" transform="translate(-1 -3.22)"/><path class="cls-3" d="M168.2,45.32V43.92h1.93V45.4h0.82v2.52h-0.74v1.56h-1.85V47.85h-0.82v-2.6S168.35,45.32,168.2,45.32Z" transform="translate(-1 -3.22)"/><path class="cls-3" d="M201.21,40.8V40.13h3V55.26H200.1V54h0.52V44h-3.86V40.8h1.93V40H200V40.8h1.19Z" transform="translate(-1 -3.22)"/><polygon class="cls-3" points="191.38 37.69 191.38 36.84 190.19 36.84 190.19 37.35 188.12 37.35 188.12 38.02 186.78 38.02 186.78 52.48 190.86 52.48 190.86 51.22 189.68 51.22 189.68 40.99 193.31 40.99 193.26 37.74 191.38 37.69"/><polygon class="cls-3" points="199.39 53.6 199.39 54.56 200.36 54.56 200.36 58.83 199.32 58.83 199.32 64.54 195.76 64.54 195.76 67.24 198.06 67.24 198.06 67.58 198.87 67.58 198.87 68.91 202.4 68.91 202.4 66.69 202.8 66.69 202.8 53.63 199.39 53.6"/><polygon class="cls-3" points="190.31 53.6 190.31 54.56 189.34 54.56 189.34 58.83 190.38 58.83 190.38 64.54 193.94 64.54 193.94 67.24 191.64 67.24 191.64 67.58 190.82 67.58 190.82 68.91 187.3 68.91 187.3 66.69 186.89 66.69 186.89 53.63 190.31 53.6"/><path class="cls-3" d="M234.53,50.87v3.62h12.79V60h-0.78v3.89h10.62V60.1h-6.45V46.31h5.17V42.36H245.15v3.78h2.39v5h-8.18V50.37h-4.9A1.38,1.38,0,0,1,234.53,50.87Z" transform="translate(-1 -3.22)"/><polygon class="cls-3" points="58.69 102.76 73.04 102.76 76.04 97.86 63.25 97.97 58.69 102.76"/><polygon class="cls-3" points="79.27 99.87 80.94 102.87 89.5 102.87 92.29 100.42 90.39 97.64 87.61 96.86 82.16 97.64 79.27 99.87"/><polygon class="cls-3" points="93.84 100.31 92.17 102.76 96.96 102.76 95.85 100.31 93.84 100.31"/><polygon class="cls-3" points="96.63 98.98 99.18 102.87 113.31 102.87 113.31 98.1 106.87 98.1 106.87 96.42 103.41 96.42 103.41 91.3 102.74 89.41 100.41 97.2 99.07 98.64 96.85 97.08 96.63 98.98"/><polyline class="cls-3" points="114.54 98.77 114.54 102.31 115.26 103.03 121.44 103.03 121.44 98.98 114.54 98.98"/><rect class="cls-4" x="207.02" y="114.81" width="2.64" height="60.67"/><rect class="cls-3" x="181.25" y="105.09" width="7.04" height="9.12"/><rect class="cls-3" x="188.84" y="104.87" width="5.68" height="9.79"/><path class="cls-3" d="M196.31,108.43h1.45v4h2.11v5.9h-3.56S196.42,108.43,196.31,108.43Z" transform="translate(-1 -3.22)"/><path class="cls-3" d="M201.65,108.21h1.45v3h1.45v-3H206v3.23h6.34v5.34h-6.68v1.45H202.2v-0.89h-1.56v-5.9h1.11S201.65,108.1,201.65,108.21Z" transform="translate(-1 -3.22)"/><path class="cls-4" d="M205.1,119.33v9.12h0.78v4.17h-0.95V151.1h-0.61v-1.28h-2.23v2.45l-1.67.28-19.47.28v3.5h0.72v3.56h-1.17v11.74h25.14l1.25-1.25v-5l-0.46-.46,0.46-.46V118.72h-1.75A1,1,0,0,1,205.1,119.33Z" transform="translate(-1 -3.22)"/><path class="cls-3" d="M128.05,83.56v0.67h-5.67l2-.67S128.05,83.62,128.05,83.56Z" transform="translate(-1 -3.22)"/><rect class="cls-3" x="127.78" y="83.4" width="1.22" height="1.06"/><polygon class="cls-3" points="136.84 80.28 142.02 80.28 140.74 81.56 138.01 81.56 136.84 80.28"/><rect class="cls-3" x="130.28" y="102.15" width="4.84" height="0.83"/><path class="cls-3" d="M111.81,86.9v1.39h2.11V88.9h-4.67V90h-0.72V89.52h-0.83l-0.33-.33v0.5h-0.72V86.85S111.73,87,111.81,86.9Z" transform="translate(-1 -3.22)"/><path class="cls-3" d="M203,95v3.41h3.16v6.53h-5.31v1.63h6.75V95H203Z" transform="translate(-1 -3.22)"/><path class="cls-3" d="M193.82,75.16v0.59h1.26V74.87h8.38s3.71,1.41,3.34,4.38l0.07,0.52,0.89,0.3s0.52,4.3-.45,6.6h-0.67s-0.3,1.26.07,1.34,0.3,0.67.3,1.41,0.89,4.3.74,4.6-1,.67-2.89.45L203,94.23V77.39h-6.23L195,77.32l-1.78-1-1.11-.45Z" transform="translate(-1 -3.22)"/><path class="cls-3" d="M209.25,83.69a4.18,4.18,0,0,1-.3,2.52l0.15,0.67L211,85.77l-0.45-.52,0.07-.82-0.15-.59A1.29,1.29,0,0,1,209.25,83.69Z" transform="translate(-1 -3.22)"/><path class="cls-3" d="M209.77,91.26h-1s-0.07-1.71.3-2,2.67-1.41,2.67-1.41a1.75,1.75,0,0,0,1.48,1c1,0,1.19-1.11,1.19-1.63s2-2.3,2-2.3L221.12,85l0.7,0.7V91S209.77,91.33,209.77,91.26Z" transform="translate(-1 -3.22)"/><polyline class="cls-5" points="226.64 82.55 226.64 81.95 222.79 81.95 222.01 82.73 226.64 82.73"/><path class="cls-3" d="M231,89.18h-5L226,90.59l-1,1.63v1.11H231l-0.3-.82h-2.3V89.85h2.74A1.1,1.1,0,0,1,231,89.18Z" transform="translate(-1 -3.22)"/><rect class="cls-3" x="240.51" y="114.59" width="6.23" height="1.04"/><path class="cls-3" d="M236.1,118.48v-1.11h-5.71l-1.34.45-1.11.07v0.52Z" transform="translate(-1 -3.22)"/><polygon class="cls-3" points="211.51 114.74 211.44 113.55 212.25 113.55 212.25 112.96 212.92 112.96 212.92 113.55 216.17 113.55 216.17 114.37 218.63 114.37 218.63 111.62 224.57 111.62 225.34 112.4 222.86 113.62 222.86 115.11 211.51 114.74"/><polygon class="cls-3" points="291.84 61.38 293.16 61.38 293.16 63.18 292.27 63.09 292.22 64.2 291.33 64.2 291.33 62.45 291.8 62.45 291.84 61.38"/><polyline class="cls-3" points="270.24 73.46 270.24 71.98 270.76 71.98 271.24 73.14 271.32 76.13 271.66 76.39 271.62 77.62 272.09 77.62 272.09 79.63 271.62 79.63 271.62 80.7 271.24 80.7 271.24 81.13 270.76 81.13 270.76 81.94 270.35 81.53 270.35 73.46"/><path class="cls-3" d="M145.32,154.6h12.91v1.78h-5.93v0.89H149.1v-1h-7.79v-0.52h-4.6V157h-4.3s-0.82.07-.89-1.34a7.08,7.08,0,0,0-.07-1.19l13.87,0.15" transform="translate(-1 -3.22)"/><path class="cls-6" d="M71.64,129.47l6.9,22.1s1.07-.61,1.81,1.69,3.78,12.53,3.78,12.53l1.11-.22-0.07-3.71s0.07-.82,1.48-0.67,6.9,0.15,6.9.15l2.52-.82,9.49-.3,0.45,0.52,1.71-.07,2.67-.82,1.26-.89,3.26-1.26,1.48,0.3,1.56-.74,2.15-.52h6.08l0.22,2.82,3.34,0.53h2.15l-0.15-6.17-1.63.07v-2.82h-1.63V154l-2.23.74-6.16.52-2.37.52h-2l-1.41,1.11-4.15,1.19-1.85.74-4.75.07-7.34.3s-1.93,1-1.93-.52l0.22-.82-8.83-.07a1.4,1.4,0,0,1-1.56-1.11c-0.45-1.34-1.26-4.38-1.26-4.38l-1.48.3-5.79-20,0.82-1.8-4.78-1.37" transform="translate(-1 -3.22)"/><polygon class="cls-3" points="59.62 123.49 57.84 123.49 59.17 127.2 62.28 124.01 59.62 123.49"/><polygon class="cls-3" points="58.65 115.4 58.73 123.04 57.84 122.89 52.2 107.84 54.2 105.91 57.54 106.13 58.65 115.4"/><polygon class="cls-6" points="62.66 105.09 61.47 106.06 60.43 105.02 62.66 105.09"/><polygon class="cls-6" points="61.91 108.66 58.21 104.95 57.61 104.95 57.98 108.8 61.91 108.66"/><polygon class="cls-3" points="42.56 81.95 48.19 96.27 50.05 101.83 55.91 102.05 55.61 99.83 57.39 100.05 57.41 96.43 55.41 96.43 54.42 94.19 55.61 94.12 55.91 90.56 53.46 88.11 54.05 87.67 53.16 86.7 52.27 87 51.31 85.37 50.79 85.74 50.12 84.25 49.53 84.33 48.86 82.33 48.05 82.47 48.05 81.36 42.56 81.95"/><polygon class="cls-6" points="80.31 105.24 80.31 107.25 83.57 105.24 80.31 105.24"/><rect class="cls-3" x="166.49" y="157.38" width="3.93" height="1.19"/><polygon class="cls-3" points="277.75 41.53 277.75 43.09 284.35 43.09 285.01 41.76 277.75 41.53"/><polygon class="cls-3" points="285.61 41.61 284.87 43.31 287.76 43.46 288.28 41.68 285.61 41.61"/><polygon class="cls-3" points="289.02 41.61 288.35 43.39 291.24 43.39 292.06 41.61 289.02 41.61"/><circle class="cls-3" cx="276.41" cy="42.5" r="0.82"/><path class="cls-3" d="M298.85,70h-0.59v0.33h-0.67V69.75H285.31v0.67H283v-1h-2.6v1H277V69.34h-1.63v3.41h0.56v4.41h23.4S298.77,70,298.85,70Z" transform="translate(-1 -3.22)"/><path class="cls-3" d="M306.37,72.53h2.34V73s-0.78,2.56-2.11,3.52a5.32,5.32,0,0,1-3.93,1.22l-1.59-.11v-4.6h5.3V72.53" transform="translate(-1 -3.22)"/><path class="cls-6" d="M309.3,70.79h1.3V81.54A9.23,9.23,0,0,1,309.12,83a2.49,2.49,0,0,1-1.45-.15l0,0.19V76.17l1.56-3.08Z" transform="translate(-1 -3.22)"/><polyline class="cls-3" points="256.2 89.63 256.2 90.26 258.09 90.26 257.53 89.63 256.2 89.63"/><path class="cls-6" d="M259.05,92.85l0.63,0.7h1l0.63-.63A11.93,11.93,0,0,1,259.05,92.85Z" transform="translate(-1 -3.22)"/><polyline class="cls-3" points="266.73 89.63 266.73 90.52 270.07 90.52 270.61 91.06 271.57 90.09 271.96 89.41 266.66 89.41 266.66 89.63"/><polyline class="cls-3" points="270.57 86.42 270.57 89.07 271.85 89.07 271.85 86.42 270.57 86.42"/><path class="cls-3" d="M279.23,92.48v0.78h9.64a7.91,7.91,0,0,0,1.85.52,11.42,11.42,0,0,0,3.49-1.08l0.56,0,2.74-2L297,89.55l-16.13,2.83Z" transform="translate(-1 -3.22)"/><path class="cls-3" d="M198.94,105.39v0.85h-3.86v-0.78h1.3v-0.41h0.89v0.48h0.78v-0.41h0.85S199,105.46,198.94,105.39Z" transform="translate(-1 -3.22)"/><line class="cls-7" x1="101.49" y1="40.99" x2="102.3" y2="40.99"/><path class="cls-2" d="M8.18,39.47L15.64,36l34,87.56-1.22.11,0.45,0.89-0.78.67H44.34l-0.78-.78H42.34l-0.22.78H31.44v-1.45h-3v1.34H7.74S8.35,39.3,8.18,39.47Z" transform="translate(-1 -3.22)"/><path class="cls-3" d="M8.85,41.91l6.45-2.56L20.53,53a2.38,2.38,0,0,1,1.11,2.89L27,69.73l0.72-.28,0.56,1.34-0.78.33,1.06,0.17,5.28,14.24H8.24V71.78h2.34v-0.5L9,71.23,9,70.45l0.22,0.39V69.56H8.74v0.5H8.3V68.61H8.85V66.05H9.24V65.33H8.68V61H9.46V60.33H8.74V56H9.35V55.32H8.68V50.92H9.41V46.86H8.91Z" transform="translate(-1 -3.22)"/><path class="cls-3" d="M12.3,87.64H32.38l0.28,0.89L34.11,88l6.17,15.74-1.61.67v2.56l-7.06-.11v4.84H30.49v-3.45H12.24V107.5H10.58V89.2h1.67A4.89,4.89,0,0,0,12.3,87.64Z" transform="translate(-1 -3.22)"/><path class="cls-3" d="M10.08,111.61h6V120H15.19v-0.61h-5S10.16,111.53,10.08,111.61Z" transform="translate(-1 -3.22)"/><path class="cls-3" d="M16.92,118.12V122h6.9v-3.84S17,118,16.92,118.12Z" transform="translate(-1 -3.22)"/><path class="cls-3" d="M24.93,114.06v8.12h3v-8.12S24.84,114,24.93,114.06Z" transform="translate(-1 -3.22)"/><path class="cls-3" d="M30.55,112.39V123h11.4v-0.56h0.67V123H43.4v-0.5h4.39L48.32,123l-4.09-9.21-0.11-1H40.89v1.5H38.11v-1.61H34v-0.56h-3.5A1.13,1.13,0,0,0,30.55,112.39Z" transform="translate(-1 -3.22)"/><polygon class="cls-2" points="39.34 137.59 42.67 137.59 43.34 139.71 53.24 136.59 57.25 149.16 44.01 153.39 39.89 140.93 39.34 137.59"/><polygon class="cls-3" points="30.44 40.86 32.22 49.54 37.67 48.59 37.67 48.98 39.17 48.81 39.06 48.31 39.5 48.26 40.17 51.76 49.68 49.93 49.18 47.92 51.46 47.81 51.8 48.48 59.14 48.48 59.14 46.59 60.92 46.59 60.92 44.7 66.26 44.7 66.26 42.92 74.6 42.92 74.6 39.24 73.82 39.24 73.82 38.08 66.31 38.08 60.92 38.08 60.92 38.97 59.19 38.97 59.19 37.97 51.3 37.97 51.35 38.47 50.29 38.47 50.02 37.91 47.73 38.47 47.46 37.69 30.44 40.86"/><polygon class="cls-3" points="65.37 47.42 67.2 47.42 67.2 50.65 74.6 50.65 74.6 66.34 75.66 66.34 75.66 67.56 72.16 67.56 72.16 65.61 65.7 65.61 65.7 61.77 67.2 61.77 67.2 61.05 62.25 61.05 62.25 50.54 65.31 50.54 65.37 47.42"/><polygon class="cls-3" points="40.52 64.76 40.52 73.77 41.97 73.77 41.97 76.78 43.49 76.78 43.49 80.59 46.42 80.59 46.42 79.74 45.79 79.74 45.79 78.44 51.94 78.44 51.94 67.36 42.23 67.36 42.23 65.76 41.86 65.76 41.82 64.8 40.52 64.76"/><polyline class="cls-3" points="42.27 66.54 51.13 66.54 51.13 65.72 53.2 65.72 53.2 80 46.42 80"/><path class="cls-3" d="M76.66,70.78l-0.09,3.1L75.75,74l-0.41.48A12.72,12.72,0,0,1,78,82.37h0.59v1H77.94V85L77,85.41l-2.6-.85-0.11.63-1.78-.52s-0.82,4.93-7,6.16c-3.86.63-6.75-2.45-6.75-2.45a1.06,1.06,0,0,1-.7-0.11l-0.89.67a9.1,9.1,0,0,1-2.3-5.19l1.45-.19s-0.41-4.6,2.23-6.79,3.75-2.23,3.75-2.23l-1.15-4.34H68v0.3h0.48V70.17h4.3v0.37H73" transform="translate(-1 -3.22)"/><path class="cls-3" d="M59.92,95.87v4h17.3v-4H67.09V95H65.26V94.54H64.42v1.39S60,96,59.92,95.87Z" transform="translate(-1 -3.22)"/><polygon class="cls-3" points="57.41 92.61 57.41 96.43 55.41 96.43 55.41 92.63 57.41 92.61"/><polygon class="cls-3" points="59.73 115.01 60.36 115.01 60.36 118.01 61.9 118.01 61.9 119.44 61.07 120.28 61.07 122.76 62.74 121.09 62.74 120.42 63.29 120.42 63.29 122.98 78.39 122.98 78.39 119.35 77.46 119.35 77.46 118.57 78.24 118.57 78.24 111.71 63.77 111.71 63.77 112.04 63.18 112.04 62.29 111.15 62.29 111.78 59.77 111.78 59.73 115.01"/><path class="cls-3" d="M81.2,113.41h3.26l-1.41,1.52,0.22,0.3s-1.19,1.52-1.52,1.34a2.34,2.34,0,0,1-.59-1.74H81.5Z" transform="translate(-1 -3.22)"/><path class="cls-3" d="M85.47,113.23l1,1,0.48-.56,0.3,0.22-0.19.48,0.82,0.41s-0.52.41-.26,0.45,0.89,0.22.89,0.22-0.59.19-.19,0.26l0.41,0.07,0.56,0.7-1,1.26-0.78-.7-2,2.19L86,119.68a36.07,36.07,0,0,0-2.45,3.6l-1.52-1V118.6l0.52,0V118.2l-0.59-.56,0.61-.61-0.35-.35S85.39,113.23,85.47,113.23Z" transform="translate(-1 -3.22)"/><path class="cls-3" d="M79.39,126.21H82l-2.48,4.64H76.42l-4.78-1.37h-5.3l-1-.52,0-2.71S79.44,126.15,79.39,126.21Z" transform="translate(-1 -3.22)"/><polyline class="cls-3" points="61.07 120.28 59.97 121.37 59.92 125.99 63.01 122.89"/><polygon class="cls-3" points="61.4 130.99 70.86 128.1 76.35 145.31 66.85 148.31 61.4 130.99"/><polygon class="cls-3" points="62.59 131.51 65.18 139.97 64.29 140.26 64.85 142.01 65.67 141.75 67.63 148.01 72.75 146.38 72.45 145.79 75.38 144.82 70.41 129.14 62.59 131.51"/><polygon class="cls-3" points="69.19 151.09 69.26 150.54 71.78 149.68 71.93 150.24 77.53 148.35 83.02 165.22 76.94 167.19 76.61 166.19 75.79 166.44 75.68 166.04 74.42 166.44 73.6 164.07 72.23 164.52 68.21 151.37 69.19 151.09"/><path class="cls-3" d="M92.25,161.51H95v9.68H85.84v-4.3h0.48v0.93h1.56v-0.48h1.37V168h4v-5.19h-1A4.78,4.78,0,0,0,92.25,161.51Z" transform="translate(-1 -3.22)"/><path class="cls-3" d="M95.59,161.36v9h3.78v-0.67h0.89v0.74h2.45v-0.7h1v0.78h2.48V170h1.19v0.48h9.09v-5.64h0.45V163h-0.41v-1.48h-2.78v1.41H111.2v-1.48h-3v1.34h-2.3v-1.22H103v1.59h-2.19v-1.78S95.54,161.31,95.59,161.36Z" transform="translate(-1 -3.22)"/><polygon class="cls-3" points="117.88 157.64 117.84 159.99 117.1 159.99 117.1 163.85 117.81 163.85 117.81 166 119.77 166 119.77 166.48 124.07 166.48 124.07 165.85 125.89 165.85 125.89 163.7 123.85 163.7 123.85 164.22 119.92 164.22 119.92 163.66 119.33 163.66 119.33 160.03 121.74 160.03 121.74 160.4 123.85 160.4 123.85 160.77 127.93 160.77 127.93 158.95 129.19 158.95 129.19 156.88 128.75 156.88 128.75 157.99 128.08 157.99 128.08 157.58 125.78 157.58 125.78 158.4 124.04 158.4 124.04 157.95 122.03 157.95 122.03 157.62 117.88 157.64"/><path class="cls-3" d="M131.23,160.06v2.15h2.41v0.48h2.08v0.78h2.23V163.1h5.79v0.56h2.15v-0.93h3.75v0.85h2.19V163.1h1.26v0.52h4.15v-2.26H153v0.37h-1.19v-0.82h-2V160.4h-4.19v1.15h-1.78v-0.67h-6.16v0.56H135.9v-0.89h-2.11V161h-1.93l0-.93A2.54,2.54,0,0,0,131.23,160.06Z" transform="translate(-1 -3.22)"/><path class="cls-3" d="M157.15,164.85H155v1.22h-1.37v1.74h1.52V167h2S157.15,164.74,157.15,164.85Z" transform="translate(-1 -3.22)"/><path class="cls-3" d="M149.66,164.62h2.15V165h0.85v4.26h-2.08v0.37h-4.12v-0.48h-2v-2.19h2.19v0.33h3.78v-2.11h-0.7S149.66,164.48,149.66,164.62Z" transform="translate(-1 -3.22)"/><path class="cls-3" d="M148,163.36v1.22h1.26V163.4S148.07,163.33,148,163.36Z" transform="translate(-1 -3.22)"/><polygon class="cls-3" points="128.67 161.81 128.67 161.22 130.67 161.22 130.67 162.33 131.68 162.33 131.68 160.18 132.94 160.18 132.94 161.29 133.49 161.29 133.49 160.29 135.64 160.29 135.64 162.51 134.79 162.51 134.79 164.37 135.42 164.37 135.42 166.41 133.16 166.41 133.16 164.33 130.67 164.33 130.67 163.48 128.86 163.48 128.86 165.96 126.71 165.96 126.71 161.85 128.67 161.81"/><path class="cls-3" d="M163.33,161.73h3.23v4.56H172V165.9h1.06v0.5h0.56v-6.73h4.06v9.79h-1.34v-0.89h-1.5v0.83H164.11v-1.67h-0.78S163.24,161.65,163.33,161.73Z" transform="translate(-1 -3.22)"/><path class="cls-3" d="M161.49,146.77h9.85v0.56h2v-0.39h4.73v9.51h-4.34v-4.73h-0.56l-0.28,1.22-1.17-.28,0.11-.83h-10.4S161.71,146.77,161.49,146.77Z" transform="translate(-1 -3.22)"/><polygon class="cls-3" points="165.33 149.28 166.11 152.06 162.72 153.72 161.44 149.89 165.33 149.28"/><polyline class="cls-3" points="160.49 145.88 159.88 145.88 158.99 149.05 162.22 149.05 162.1 148.61"/><path class="cls-3" d="M132,115.12V135.7h3.23V135h0.5v-0.78h0.5v1.11H137v0.56H164v0.83h13.24v-3.28h-0.61v-14.3h-3.34v5.23h-1.28v2h1.39V132h-5.51v1.61h-1.84V119.12h-3.78v11.24h-1.11v1.89H151.7v-13h-3.34v5.12h-1.06v2h1.06v4.28h-4.73l-0.22.5a1,1,0,0,1-1.28-1.17c0.56-.72.61-1.17,0.06-2.45s-0.67-2,.95-3.62a2.6,2.6,0,0,0,.5-3.28h0.45V119.4h-2.56V119h-3.23v7.18h-1.61v-7h-1.22v-1.5h0.72V115S131.9,115,132,115.12Z" transform="translate(-1 -3.22)"/><polygon class="cls-3" points="131.73 107.05 163.16 107.05 163.16 108.11 172 108.11 172 113.73 169.78 113.73 169.78 111.39 169.06 111.39 163.38 111.39 163.38 110.84 162.49 110.84 162.49 112.34 161.44 112.34 161.44 111.45 160.6 111.45 160.6 112.45 153.81 112.45 153.81 109.06 151.92 109.06 151.92 112.28 145.53 112.28 145.03 114.56 143.69 114.4 144.08 111.95 144.53 112.06 144.64 111.56 143.41 111.34 143.13 114.29 136.63 113.34 137.07 111.23 134.74 111.34 131.73 111.34 131.73 107.05"/><path class="cls-3" d="M181.79,147.44v22.47h18.75V151.66H193.2v-0.95h-1.78v0.95h-0.67v-4.34Z" transform="translate(-1 -3.22)"/><path class="cls-3" d="M204.55,119.23v30.15H195.7V132.75h0.89v-0.56h-0.83V119.07S204.63,119.32,204.55,119.23Z" transform="translate(-1 -3.22)"/><path class="cls-3" d="M181.46,119.4v5.84h7.18v9.85h5.17V119.51Z" transform="translate(-1 -3.22)"/><polygon class="cls-3" points="190.08 132.14 190.08 133.09 192.87 133.09 192.87 136.54 190.86 136.54 190.86 139.65 180.52 139.65 180.52 138.09 182.19 138.09 182.19 137.09 180.63 137.09 180.63 132.92 188.3 132.92 188.3 132.09 190.08 132.14"/><path class="cls-3" d="M197.24,78h5.38v19.1h-1.78v1.71h5.34v5.49H190.53v1.59h-2V104h-7.08V98.91h17.43V97.21h-2S197.15,78.05,197.24,78Z" transform="translate(-1 -3.22)"/><path class="cls-3" d="M190.49,98.8V97.09h0.74l-0.63-.26a32.79,32.79,0,0,1,2.63-4.12,6.3,6.3,0,0,0-1.71-1l-0.45-1.41h-0.41l-0.3-.74h-1.67l-0.22.82H188l-0.26,1.19a5.66,5.66,0,0,0-1.93,1.15s2.48,2.71,2.6,4.19l-0.67.11,0.85,0.19V98.8S190.44,98.74,190.49,98.8Z" transform="translate(-1 -3.22)"/><path class="cls-3" d="M169.61,92.24V98h8.46v4.82h-6.75v1.56H148.81V97.72h16.84V92.2S169.65,92.2,169.61,92.24Z" transform="translate(-1 -3.22)"/><path class="cls-3" d="M165.05,89.12h1.22V87.71h12l0.3,2.86h0.33L179,92.05h1.82V90.6h0.41l0.52-2.89h7.53V79.37h-0.7V77.11h-1.22v8.75h-6.23l-0.45-.52h-1.74l-0.5.5H165.64V73.29h-6.27v2.63h-0.48V76.7h0.45v0.78h-5.67V76.81h-0.89v6.3H154V82.63h5.38v4.64h0.89s0,2.41,0,2.34a1.71,1.71,0,0,0-.56.59l-1-.78s-1.85,2-.07,5A4.64,4.64,0,0,0,162,96.17V95.39a2.68,2.68,0,0,0,2.56-1,3.72,3.72,0,0,0,1.08-2.15" transform="translate(-1 -3.22)"/><path class="cls-3" d="M106.09,93.42H107V90.09h6.34v3.23h3.12V89.2h5.12v1.22l0.89-.89H130v8.34h-3.78v2.45h-1.67V99h-0.89v3h-8.12v-1.78H114.1v1.11h-6.23V98.1H106S106,93.53,106.09,93.42Z" transform="translate(-1 -3.22)"/><path class="cls-3" d="M139.91,87.42h9.9V94.2l0.78,0.67v1.89H138.91V94.65l1-.67S140.13,87.42,139.91,87.42Z" transform="translate(-1 -3.22)"/><path class="cls-3" d="M122.44,77.44v5.27h5.34V82.11H132v1h11.27v-1h4.45v1.11h5V77.59H128.89V76h-1.11v1.48S122.29,77.29,122.44,77.44Z" transform="translate(-1 -3.22)"/><path class="cls-3" d="M98.48,75.14h19.65V83h-3.63V81.52h-1.63v1.26H98.19V78.63h0.74V77.81H98.41S98.48,75.19,98.48,75.14Z" transform="translate(-1 -3.22)"/><path class="cls-3" d="M98.24,63.32h-0.5V68H98.4v0.61H96.29v2.16H104V68.59h-2.16v-0.5h0.65V63.32h-0.36V61.21H98.22S98.24,63.38,98.24,63.32Z" transform="translate(-1 -3.22)"/><polygon class="cls-3" points="80.13 89.12 79.46 84.75 94.67 85.64 99.19 85.19 99.56 84.6 100.75 90.83 101.56 90.9 99.41 97.5 98 96.99 95.78 96.54 94.81 96.24 94.81 95.43 93.26 97.28 91.25 96.91 91.11 97.5 89.25 97.28 88.81 96.61 79.76 98.47 79.24 97.88 78.57 98.02 80.72 91.87 79.46 91.87 78.94 89.5 80.13 89.12"/><path class="cls-3" d="M79.61,64.72V76.07h8.12v1.28h8.12V71.51H94.68V61H79.78v1.22H79.16v1.22h2.95v1.28h-2.5Z" transform="translate(-1 -3.22)"/><path class="cls-3" d="M80.22,42.86h11V41.69H94v7.84H90.4V51H94v1.89H93.29v0.78H94v4.67H80.22V53.71h0.56V52.65h-0.5S80.39,43,80.22,42.86Z" transform="translate(-1 -3.22)"/><path class="cls-3" d="M102.47,44.08h0.78v-1.5h4.34V43.3H108V42.19h0.78v1.06h1.28V42.3h0.83V41.8h1.45v0.39h3.34v-0.5h1.17v0.45h0.67v1.22h0.83v-1h0.56V43.3h1.56V42.25h0.67v-0.5h1.34v0.45h3.06V41.63h1.56v0.56h0.67V43.3h0.61V42.08h0.89v1.28h0.61v2.11h0.78V56h5.9v2.45h-6V57.38h-2.34v1.17h-8v-1h-2.11v0.72H109.7V57.38h-1.78v0.56h-5.4V55h4v0.67h1.34V55H107v-9.4h1V45h-4.39V45.7h-1.17A10.4,10.4,0,0,1,102.47,44.08Z" transform="translate(-1 -3.22)"/><path class="cls-3" d="M110.15,45.08h7.34V44.42h0.72v1.17H117.6V55.1h0.5v0.78h-8.79V55.1h0.89S110.26,45.19,110.15,45.08Z" transform="translate(-1 -3.22)"/><path class="cls-3" d="M119.66,44.47h0.72V45H128V44.36h0.5V45.7h-0.45V55h0.72v0.95h-9.07V55h0.72V45.53h-0.67A3.42,3.42,0,0,0,119.66,44.47Z" transform="translate(-1 -3.22)"/><polygon class="cls-3" points="130.37 37.97 130.4 39.63 129.06 39.63 129.06 37.97 130.37 37.97"/><polygon class="cls-3" points="130.67 38.1 130.67 40.64 132.43 40.64 132.43 38.08 130.67 38.1"/><path class="cls-3" d="M217.17,88.58V86H231v2.56h-6.68v3.95H210.16V89.36h5.34V88.58A16.69,16.69,0,0,0,217.17,88.58Z" transform="translate(-1 -3.22)"/><path class="cls-3" d="M209.77,74.57V71.67h6.9v2.5h1.22v6.9h-1V82.8h-7.12V80.35h-1.45V74.57h1.45Z" transform="translate(-1 -3.22)"/><polygon class="cls-3" points="249.99 63.55 256.11 63.55 256.11 83.86 261.9 83.86 261.9 82.58 267.35 82.58 267.35 83.8 270.24 83.8 270.24 82.52 271.8 82.52 271.8 86.42 270.57 86.42 270.57 89.53 250.33 89.53 249.99 63.55"/><polygon class="cls-3" points="227.69 71.12 231.25 71.12 231.25 69.51 233.14 69.51 233.14 71.29 241.82 71.29 241.82 69.78 243.65 69.78 243.65 71.17 246.77 71.17 246.77 72.23 247.44 72.23 247.44 81.69 243.37 81.69 243.37 82.75 241.59 82.75 241.59 85.92 243.21 85.92 243.21 93.31 243.21 97.77 234.53 97.77 234.53 89.53 232.92 89.53 232.92 80.3 226.85 80.3 226.85 72.18 227.69 72.18 227.69 71.12"/><path class="cls-3" d="M259.45,76.85h2.67v5.28h6.62V76.68h2.5v8.18h-4v0.61h-3.39V84.75h-4.39v-7.9Z" transform="translate(-1 -3.22)"/><path class="cls-3" d="M246.21,103.71v13.35H232v-3.45h-0.61v0.56H219.06v2.56h-1.89v-0.89h-6.79V99.32h0.78V94.76h5.12v0.78h1.61v5.12h0.56v1.45H219V106h-3.56v2.11h3.62v0.56h5.28v0.5h7.9V110H236v-4.17l-0.72-2.17S246.21,103.77,246.21,103.71Z" transform="translate(-1 -3.22)"/><polygon class="cls-3" points="250.53 93.87 250.46 100.25 266.33 100.25 267.22 93.83 264.59 93.83 264.59 94.2 258.95 94.2 258.65 93.91 254.54 93.91 254.26 94.19 250.53 93.87"/><path class="cls-3" d="M291.47,106.74v-0.93h1.22v10.68H278.94l-0.33.26h-1.3l-0.37-.45H251.87v-8.86H251v-1.63h1.15v0.78h10.94V105.7h1.15v1.08Z" transform="translate(-1 -3.22)"/><path class="cls-3" d="M298,88H277.19V89h-1.11v1.15h1a6,6,0,0,0,3.75,2.26c2.15,0.15,10.79,0,10.79,0S297,91.57,298,88Z" transform="translate(-1 -3.22)"/><path class="cls-3" d="M296.4,98h3.52l0.59-.59H307l0.59,0.85v5.23l-0.82.74v2H308v8.75l-2.3,2.19-0.41-.52-0.33.63h-0.82l-1.67-2,1.82-1.74v-5.64h-1.63v0.41h-2.86v-0.48h-0.41s-1.34,3.71-.82,5.67,3,1.41,3,1.41v0.63l0.52-.19,1.71,3.19H294v-9.75h2.19v-2.41l-0.45-.3V98.28h0.48A1.3,1.3,0,0,0,296.4,98Z" transform="translate(-1 -3.22)"/><path class="cls-3" d="M271.71,95.54v1.67l-2.86,1-0.22,4.38,1.11,1.48-1.78.07v1.41h19.91V104l0.3-.19-0.11-1.48s-0.7-.63.19-0.59l0.89,0V97.13h-2.37V96.35h-9.09a5.09,5.09,0,0,0-.26,1.48c0.11,0.22-1.63-.45-2-0.7s-1.82-.56-1.15-1l0.67-.48S271.76,95.59,271.71,95.54Z" transform="translate(-1 -3.22)"/><path class="cls-3" d="M276.16,70.91h7.27v0.56h1.3V70.88h21.69v5.38h-20V77h0.67v9.35H279.9V76.88h0.85V75.73h-4.67S276.27,71,276.16,70.91Z" transform="translate(-1 -3.22)"/><path class="cls-3" d="M297.85,47.29h5.27V49H306v-2h3.82V69.84h-5.19V68.76h-4.41v1.89H299V68.72h-1.41S298,47.16,297.85,47.29Z" transform="translate(-1 -3.22)"/><path class="cls-3" d="M296,47.25a8.94,8.94,0,0,1,.11,2.11c-0.11.82-1.08,6.08-2,6.34s-8.34-.07-8.34-0.07l-8.38-.26a1,1,0,0,1-.89-1.08l0.41-1.78h1.26l0-.89h-0.48V51.3h-0.33V47.1S296,47.36,296,47.25Z" transform="translate(-1 -3.22)"/><polygon class="cls-3" points="264.33 68.65 266.44 68.65 266.44 67.73 267.44 67.73 267.44 68.5 271.08 64.87 270.07 64.87 270.07 58.2 271.08 58.2 267.55 54.49 267.55 56.34 264.51 56.34 263.51 56.34 260.47 56.34 260.47 54.49 256.95 58.2 257.95 58.2 257.95 64.87 256.95 64.87 260.58 68.5 260.58 67.73 261.58 67.73 261.58 68.65 263.7 68.65 264.33 68.65"/><path class="cls-3" d="M212.48,52.15h16.69V68H216.41v1.41h-1.19V68.54h-0.82v0.59h-7.86v-6h4.75v2.15h1.48S212.48,51.93,212.48,52.15Z" transform="translate(-1 -3.22)"/><path class="cls-3" d="M215.3,55v9.49h11.11V55S215.11,54.86,215.3,55Z" transform="translate(-1 -3.22)"/><path class="cls-3" d="M231.69,43.62v2.6h7.19V43.77S231.69,43.54,231.69,43.62Z" transform="translate(-1 -3.22)"/><path class="cls-3" d="M277,60.38v6.16h2.89v1h2.23v1h1.26V67.8h2.89v-1h2.82V68h2.45V62.68h-1.48V60.45S276.9,60.27,277,60.38Z" transform="translate(-1 -3.22)"/><path class="cls-3" d="M222.94,95.54v9h7.12v-9h-7.12Z" transform="translate(-1 -3.22)"/><path class="cls-3" d="M172.73,40.65v1.71h-3.86V43h-1V42h-0.89v1h-6.23V42.28h-2.15V43.1h-0.82V42h-1v1.26h-2.89V42.73h-0.52v1.48h-1.48V43.47H150.7v0.74h-9V42.73h-0.89v1.11h-5V42.51h3V41.62h0.52v0.52h1.48V40.95h1.63V40.21H144v0.74h4.38V40h1.41v1h1.34v1.11h0.74V40.95h0.82v0.74h1.11V40.5h0.67V39.76H156v0.89h2.15v0.74H159V40.5h3.12V39.76h2.74V40.5h2.52v0.82h0.52V40.5h3V39.69h1.26v0.89A1.26,1.26,0,0,0,172.73,40.65Z" transform="translate(-1 -3.22)"/><path class="cls-8" d="M132.9,138.48v2.11h-1.45v5.67h1.11v8.12h24.81v-2.11H159v-6.12h1v-2.23h-2.11v-3.23h-2.56v-2.23h1.89v-1.22h-19.8v1.11A32,32,0,0,0,132.9,138.48Z" transform="translate(-1 -3.22)"/><path class="cls-3" d="M166.13,73.73V85.3h11.72l0.59-.67h2.3l0.59,0.52h5.19V77.59l-3-1.19L179.63,74H172.5v-1h-6.38A2,2,0,0,0,166.13,73.73Z" transform="translate(-1 -3.22)"/><path class="cls-9" d="M139.43,60.08H124.59a2.75,2.75,0,0,0-2.74,2.74V68.2a2.75,2.75,0,0,0,2.74,2.74h14.84S139.18,59.83,139.43,60.08Z" transform="translate(-1 -3.22)"/><rect class="cls-10" x="104.75" y="57.9" width="2.74" height="5.48"/><rect class="cls-9" x="112.75" y="49.89" width="2.4" height="6.37" transform="translate(166.03 -64.09) rotate(90)"/><rect class="cls-9" x="122.91" y="49.89" width="2.4" height="6.37" transform="translate(176.19 -74.25) rotate(90)"/><rect class="cls-11" x="132.8" y="50.47" width="2.4" height="5.22" transform="translate(186.07 -84.14) rotate(90)"/><rect class="cls-12" x="148.59" y="44.91" width="4.75" height="4.49" rx="0.45" ry="0.45"/><path class="cls-12" d="M141.58,53.26v2.67h9.35V54.6h-0.67V53.19S141.8,53.48,141.58,53.26Z" transform="translate(-1 -3.22)"/><path class="cls-12" d="M254,47.48V49h-2.45v6.75H254V57.6h2.26l0.48,0.48h1V56.52h0.59V50.59h13.2V47.4S254.2,47.66,254,47.48Z" transform="translate(-1 -3.22)"/><path class="cls-3" d="M232.43,55.26V67h5v1.41h6.82V55.34Z" transform="translate(-1 -3.22)"/><path class="cls-2" d="M310.53,35.76v3.41h-7.64V36.65h-1.19v-1S310.46,35.83,310.53,35.76Z" transform="translate(-1 -3.22)"/><path class="cls-12" d="M289,76.85h2.67v0.67H297v1h-5.27v1.26H293V85h0.82v2.6h-3.93v-6a1.08,1.08,0,0,0-.22-0.89v-1s0.15-.67-0.74-0.67A13.07,13.07,0,0,0,289,76.85Z" transform="translate(-1 -3.22)"/><rect class="cls-12" x="275.27" y="72.81" width="3.19" height="2.08"/><rect class="cls-12" x="277.05" y="77.41" width="1.34" height="3.78"/><rect class="cls-12" x="252.5" y="47.81" width="2.15" height="3.41"/><rect class="cls-6" x="135.84" y="97.21" width="10.3" height="4.36"/><path class="cls-6" d="M64.74,111.48L63.4,110l2.67-1.93H121.7v4.75H66.22S64.74,110.89,64.74,111.48Z" transform="translate(-1 -3.22)"/><path class="cls-6" d="M111.61,114s8.46,3.26,12.91,13.8h0.93V115.67h-3.67v-1.56S111.61,114.23,111.61,114Z" transform="translate(-1 -3.22)"/><path class="cls-6" d="M122.66,110.56v4.34h2v-3.23s0.56-1.11-.45-1.11h-1.56Z" transform="translate(-1 -3.22)"/><path class="cls-6" d="M125.44,111.67v3.23h2.45S125.56,111.67,125.44,111.67Z" transform="translate(-1 -3.22)"/><path class="cls-6" d="M125.22,109.55v1.22l3.89,3.89h1v-6.23h-4S125.39,109.72,125.22,109.55Z" transform="translate(-1 -3.22)"/><rect class="cls-6" x="148.81" y="101.1" width="14.02" height="1.78"/><rect class="cls-6" x="148.81" y="105" width="16.24" height="2.34"/><rect class="cls-6" x="165.94" y="105.22" width="6.9" height="2"/><rect class="cls-6" x="170.95" y="101.1" width="2" height="1.89"/><rect class="cls-6" x="129.9" y="105.11" width="4.78" height="2.23"/><rect class="cls-6" x="160.38" y="140.71" width="16.58" height="3.56"/><rect class="cls-6" x="162.94" y="135.37" width="13.68" height="2.45"/><path class="cls-6" d="M131.9,159.28h3.78l1.34,0.45h15v1.19h0.89v-1.74h2.67a1.91,1.91,0,0,1,1.63,2.19c-0.07,2-.19,8.49-0.19,8.49l-1.89,1.78-6.68-.11-0.89-1.67h-4l-0.78,1.34H132.34l-1-.56S132.18,159,131.9,159.28Z" transform="translate(-1 -3.22)"/><path class="cls-6" d="M129.78,119v37.38H116.54a27.73,27.73,0,0,0,3-3.67c0.67-1.22,5.9-12,5.9-12.79V118.68h4S130,118.84,129.78,119Z" transform="translate(-1 -3.22)"/><path class="cls-6" d="M78.6,101.53L81,105.87H75S77.16,100.64,78.6,101.53Z" transform="translate(-1 -3.22)"/><path class="cls-6" d="M136.68,88V94.3h0.78v1h0.89V88.07A5.07,5.07,0,0,1,136.68,88Z" transform="translate(-1 -3.22)"/><text x="-1" y="-3.22"/><rect class="cls-3" x="57.4" y="102.74" width="7.73" height="1.96"/><rect class="cls-3" x="122.8" y="102.74" width="7.73" height="1.96"/><rect class="cls-3" x="175.08" y="53.38" width="10" height="4"/><rect class="cls-3" x="152" y="116.67" width="8" height="10"/><rect class="cls-3" x="132.96" y="121.52" width="3.54" height="3.24"/><circle class="cls-3" cx="101.19" cy="132.36" r="20.54"/><rect class="cls-6" x="173.94" y="102.8" width="4.59" height="4.32"/><path class="cls-13" d="M235.17,158.54a2.9,2.9,0,0,0-.88.16l-8,2.83-8-2.83a2.88,2.88,0,0,0-.88-0.16c-0.44,0-1.42.17-1.42,0.69v4.59l0.63-.46a1.89,1.89,0,0,1,.87-0.36,2.24,2.24,0,0,1,.53.08,4.16,4.16,0,0,1,.41.13l7.77,2.8,0.13,0,0.13,0,7.77-2.8a4.13,4.13,0,0,1,.41-0.13,2.25,2.25,0,0,1,.53-0.08,1.89,1.89,0,0,1,.87.36l0.63,0.46v-4.59C236.59,158.71,235.62,158.54,235.17,158.54Zm0.76,4.06a2,2,0,0,0-.84-0.24,2.87,2.87,0,0,0-.69.1c-0.21.05-.39,0.12-0.48,0.15l-7.67,2.77-7.67-2.77a4.84,4.84,0,0,0-.48-0.15,2.86,2.86,0,0,0-.69-0.1,2,2,0,0,0-.84.24v-3.22a1.81,1.81,0,0,1,.76-0.16,2.28,2.28,0,0,1,.66.12l8.27,2.9,8.27-2.9a2.29,2.29,0,0,1,.66-0.12,1.79,1.79,0,0,1,.76.16v3.22Z" transform="translate(-1 -3.22)"/><path class="cls-14" d="M235.18,161.5a7.79,7.79,0,0,0-.86.32,0.16,0.16,0,0,1-.08,0,0.54,0.54,0,0,0,0-.36c-0.12-.28-0.2-0.55-0.32-0.82a0.76,0.76,0,0,0-.27-0.2,0,0,0,0,1,0,0c0.27-.11.63-0.2,0.86-0.31a0.25,0.25,0,0,1,.23,0,1.07,1.07,0,0,1,.16.31c-0.12.08-.16,0-0.23-0.08a0.9,0.9,0,0,0-.55.11s0,0,0,.08l0.12,0.36a0.47,0.47,0,0,0,.39-0.24,0.08,0.08,0,0,1,.08,0,0.69,0.69,0,0,1,.08.16,0.26,0.26,0,0,1,0,.23c-0.08,0-.16-0.16-0.28-0.08a0.72,0.72,0,0,0-.23.11,1.39,1.39,0,0,0,.2.51,0.47,0.47,0,0,0,.55-0.23,0.6,0.6,0,0,1,.08-0.28,0.14,0.14,0,0,1,.08.08,0.48,0.48,0,0,1-.12.47h0Z" transform="translate(-1 -3.22)"/><path class="cls-14" d="M233.51,162.06a0.75,0.75,0,0,1-.28.08s0-.08,0-0.12a3.7,3.7,0,0,0-.39-1.22,0.44,0.44,0,0,0-.28.2,0.58,0.58,0,0,1-.08.23c-0.12,0-.08-0.16-0.12-0.2a0.82,0.82,0,0,0,0-.16,6.43,6.43,0,0,1,1.18-.47c0.12,0,.12.12,0.16,0.15s0.11,0.16,0,.24a0.33,0.33,0,0,1-.2-0.12,0.31,0.31,0,0,0-.32,0c-0.08,0,0,.08,0,0.08a4.81,4.81,0,0,0,.39,1c0,0.08.16,0.08,0.2,0.15a0.43,0.43,0,0,1-.27.12h0Z" transform="translate(-1 -3.22)"/><path class="cls-14" d="M232.45,162.38c-0.39-.28-0.75-0.59-1.14-0.87h0a2.2,2.2,0,0,0,.44,1c0,0.08.11,0,.08,0.12s-0.16,0-.2.08-0.2.12-.23,0a1.64,1.64,0,0,0-.16-0.94,1.77,1.77,0,0,0-.12-0.32,0.38,0.38,0,0,0-.27.32,0.25,0.25,0,0,1-.16,0,0.19,0.19,0,0,0-.23-0.11l-0.36.11a2.32,2.32,0,0,0,.16.48s0,0,0,0a0.38,0.38,0,0,0,.32-0.2h0a0.65,0.65,0,0,1,.16.27,0.82,0.82,0,0,1-.16,0,1.12,1.12,0,0,0-.35.12,2.84,2.84,0,0,0,.2.51,0.29,0.29,0,0,0,.28,0,0.55,0.55,0,0,0,.35-0.55s0.08,0,.08,0a1.25,1.25,0,0,1,.11.35c0,0.08,0,.12,0,0.12l-0.86.32a0.41,0.41,0,0,0-.2.08s0,0,0,0,0,0,0-.08a1.55,1.55,0,0,0-.16-0.86,0.82,0.82,0,0,0-.28-0.43s0,0,0,.08V162a0.16,0.16,0,0,0-.2,0v0a1,1,0,0,0,.12.47,2,2,0,0,0,.39.75s0,0,0,.08a1.69,1.69,0,0,0-.39.12,0.24,0.24,0,0,1,0-.23,0.91,0.91,0,0,0-.12-0.43,2.29,2.29,0,0,0-.16-0.51,0.58,0.58,0,0,0-.08.27,6.07,6.07,0,0,0-.08.87,0,0,0,0,0,0,0,0.08,0.08,0,0,1-.08-0.08c-0.24-.2-0.55-0.63-0.82-0.83a0.16,0.16,0,0,0,0,.12,5.51,5.51,0,0,0,.31.86,0.39,0.39,0,0,0,.2.16s0,0,0,0a2,2,0,0,1-.2.08c-0.08,0-.2.11-0.23,0a0.85,0.85,0,0,0,0-.63c-0.08-.23-0.16-0.43-0.23-0.67h0a0.47,0.47,0,0,0-.12.28,0.08,0.08,0,0,1-.08,0,0.6,0.6,0,0,1,0-.27,0.29,0.29,0,0,1,.2-0.28,0.36,0.36,0,0,1,.39,0,9.07,9.07,0,0,0,.63.67l0,0a4.9,4.9,0,0,1,.08-0.79,0.33,0.33,0,0,1,.2-0.32,0.27,0.27,0,0,1,.24,0,0.43,0.43,0,0,1,.15-0.12,8.56,8.56,0,0,1,.91-0.31h0c0,0.08,0,.16.12,0.16a0.7,0.7,0,0,1,.11-0.24,0.42,0.42,0,0,1,.51,0c0.27,0.12.75,0.59,0.94,0.67-0.08-.24-0.16-0.44-0.24-0.63a0.94,0.94,0,0,0-.28-0.27,0,0,0,0,1,0,0c0.16,0,.32-0.12.47-0.16s0,0.12,0,.2a5.55,5.55,0,0,0,.23.86,1.53,1.53,0,0,1,.16.39s-0.16.12-.2,0.08h0Z" transform="translate(-1 -3.22)"/><path class="cls-14" d="M224.35,162.42a0.2,0.2,0,0,0-.16.2L224,163a0.76,0.76,0,0,1-.32.51,0.27,0.27,0,0,1-.23,0,0.84,0.84,0,0,1-.75-0.43,1.15,1.15,0,0,1,.16-0.59,0.89,0.89,0,0,0,.16-0.63s-0.08,0,0-.08,0.08,0,.11,0,0.24,0.08.32,0.12,0.16,0,.12.12a0.52,0.52,0,0,0-.24.16,3.55,3.55,0,0,0-.31.82,0.36,0.36,0,0,0,.16.32,1,1,0,0,0,.35.08,1.09,1.09,0,0,0,.47-0.79,0.56,0.56,0,0,0,0-.43s0,0,0,0l0.43,0.11s0,0.08,0,.08h0Z" transform="translate(-1 -3.22)"/><path class="cls-14" d="M222.74,161.83a1.44,1.44,0,0,0-.39.67,2.42,2.42,0,0,0-.2.51s0,0.08-.08.11a0.25,0.25,0,0,1-.16,0,0.13,0.13,0,0,1,0-.08,4.52,4.52,0,0,1-.12-0.67c0-.15-0.08-0.35-0.12-0.55,0,0,0-.16-0.08-0.12a2.42,2.42,0,0,0-.24.55,1.1,1.1,0,0,0-.08.47s0.08,0.08,0,.12a0.13,0.13,0,0,1-.16,0,0.65,0.65,0,0,0-.27-0.08,0.13,0.13,0,0,1,.08-0.11,0.87,0.87,0,0,0,.28-0.44,5.36,5.36,0,0,1,.2-0.51,0.13,0.13,0,0,0,0-.16,0.33,0.33,0,0,0-.27.08s-0.08,0,0,0a0.18,0.18,0,0,1,.12-0.11,0.41,0.41,0,0,1,.32-0.08,0.29,0.29,0,0,1,.23.16,3,3,0,0,1,.23,1c0,0.08,0,.12,0,0.2a3.29,3.29,0,0,0,.24-0.59,0.62,0.62,0,0,0,0-.47,0,0,0,0,1,0,0,1.87,1.87,0,0,1,.51.2s0,0-.08,0h0Z" transform="translate(-1 -3.22)"/><path class="cls-14" d="M220.66,162.62c-0.12,0-.32-0.12-0.47-0.16s-0.08,0,0-.08a0.05,0.05,0,0,1,.08,0,0.45,0.45,0,0,0,.11-0.44,4.92,4.92,0,0,0-.47-0.2,0.66,0.66,0,0,0-.16.51c0,0.08-.11,0-0.16,0l-0.24-.12a0.14,0.14,0,0,1-.11,0,0.94,0.94,0,0,1,.2-0.08,9.2,9.2,0,0,0,.79-0.94s-0.12,0-.2,0a0.32,0.32,0,0,1-.16,0v0a0.59,0.59,0,0,1,.55-0.16,0.51,0.51,0,0,1,.24.51v0.94a0.58,0.58,0,0,0,.08.24,0,0,0,0,1,0,0h0Zm-0.36-.87a0.67,0.67,0,0,1-.35-0.11,3.75,3.75,0,0,1,.35-0.43,2.57,2.57,0,0,1,0,.55h0Z" transform="translate(-1 -3.22)"/><path class="cls-14" d="M219.6,160.81a0.18,0.18,0,0,0-.2,0,1.42,1.42,0,0,0-.2.44c-0.08.24-.16,0.47-0.24,0.67a0.31,0.31,0,0,1,0,.2h-0.08a1.34,1.34,0,0,0-.36-0.16s-0.08,0,0-.08a0.47,0.47,0,0,0,.28-0.28c0.08-.2.2-0.43,0.27-0.67h0a5.06,5.06,0,0,0-.87.75,0.05,0.05,0,0,1-.08,0,3.07,3.07,0,0,1,0-.67s0-.43-0.08-0.47a1.63,1.63,0,0,0-.23.59,0.41,0.41,0,0,0,0,.47,0,0,0,0,1,0,0c-0.16-.08-0.32-0.12-0.47-0.2v0a1,1,0,0,0,.44-0.47c0.08-.2.2-0.39,0.27-0.63a0.22,0.22,0,0,0-.16-0.08,0.3,0.3,0,0,0-.23.08s0-.08,0-0.08a0.37,0.37,0,0,1,.39-0.15,0.51,0.51,0,0,1,.35.27c0,0.32,0,.63.08,0.94v0a4.48,4.48,0,0,1,.87-0.71,0.31,0.31,0,0,1,.31,0,0.16,0.16,0,0,1,.12.11s0,0,0,.08h0Z" transform="translate(-1 -3.22)"/><path class="cls-14" d="M225.93,164.1a5.2,5.2,0,0,0-.61,0,0.11,0.11,0,0,1,0,0,0.36,0.36,0,0,0,.11-0.21c0-.2,0-0.39,0-0.58a0.5,0.5,0,0,0-.12-0.19,0,0,0,0,1,0,0c0.2,0,.43,0,0.61,0a0.16,0.16,0,0,1,.15,0,0.69,0.69,0,0,1,0,.23c-0.09,0-.09-0.06-0.13-0.1a0.6,0.6,0,0,0-.37-0.06s0,0,0,.05,0,0.16,0,.25a0.31,0.31,0,0,0,.3-0.06,0.05,0.05,0,0,1,.06,0,0.44,0.44,0,0,1,0,.12,0.17,0.17,0,0,1,0,.15c-0.05,0-.06-0.14-0.15-0.11a0.49,0.49,0,0,0-.17,0,1,1,0,0,0,0,.36,0.31,0.31,0,0,0,.4,0,0.41,0.41,0,0,1,.11-0.15,0.1,0.1,0,0,1,0,.07,0.32,0.32,0,0,1-.18.26h0Z" transform="translate(-1 -3.22)"/><path class="cls-14" d="M226.64,164.09a0.51,0.51,0,0,1-.19,0s0,0,.05-0.06a2.5,2.5,0,0,0,0-.86,0.29,0.29,0,0,0-.22.06,0.38,0.38,0,0,1-.1.13c-0.08,0,0-.12,0-0.15a0.63,0.63,0,0,0,0-.11,4.3,4.3,0,0,1,.85,0c0.09,0,0,.1.06,0.13s0,0.13,0,.16a0.23,0.23,0,0,1-.1-0.12,0.21,0.21,0,0,0-.2-0.08s0,0,0,0a3.2,3.2,0,0,0,0,.74c0,0.06.08,0.09,0.09,0.14a0.28,0.28,0,0,1-.2,0h0Z" transform="translate(-1 -3.22)"/><polygon class="cls-13" points="226.34 138.2 225.78 137.98 226.02 137.43 225.47 137.67 225.25 137.11 225.03 137.67 224.47 137.43 224.72 137.98 224.15 138.2 224.72 138.42 224.47 138.98 225.03 138.74 225.25 139.3 225.47 138.74 226.02 138.98 225.78 138.42 226.34 138.2"/><polygon class="cls-13" points="226.34 152.48 225.78 152.26 226.02 151.71 225.47 151.95 225.25 151.39 225.03 151.95 224.47 151.71 224.72 152.26 224.15 152.48 224.72 152.7 224.47 153.26 225.03 153.02 225.25 153.58 225.47 153.02 226.02 153.26 225.78 152.7 226.34 152.48"/><polygon class="cls-13" points="218.65 144.73 218.09 144.5 218.33 143.95 217.78 144.19 217.55 143.63 217.33 144.19 216.78 143.95 217.02 144.5 216.46 144.73 217.02 144.95 216.78 145.5 217.33 145.26 217.55 145.82 217.78 145.26 218.33 145.5 218.09 144.95 218.65 144.73"/><polygon class="cls-13" points="234.04 144.73 233.47 144.5 233.72 143.95 233.16 144.19 232.94 143.63 232.72 144.19 232.17 143.95 232.41 144.5 231.85 144.73 232.41 144.95 232.17 145.5 232.72 145.26 232.94 145.82 233.16 145.26 233.72 145.5 233.47 144.95 234.04 144.73"/><path class="cls-13" d="M223.16,144.78l0.08,0.14,0.23,0.35a0.1,0.1,0,0,0,.08,0h0a0.12,0.12,0,0,0,.07-0.07c0.06-.08,0-0.1,0-0.14h0l0,0,0,0h0a0.33,0.33,0,0,0,0-.07h0a0.08,0.08,0,0,0-.07,0,0.07,0.07,0,0,1-.07-0.09,0.14,0.14,0,0,1,.06-0.11l0,0h0.06l0,0a0.27,0.27,0,0,1,.08.16,0.25,0.25,0,0,0,.1.15h0l0.06,0h0.09a0.28,0.28,0,0,1,0-.06h0l0-.08h0a0.16,0.16,0,0,0,0,0s-0.09.06-.14,0a0.6,0.6,0,0,1-.16-0.19,0,0,0,0,1,0,0l0,0a0.42,0.42,0,0,0,.1-0.06,0.85,0.85,0,0,0,.22-0.22s0-.15,0-0.2a0.05,0.05,0,0,0-.05-0.05l-0.07,0a0.4,0.4,0,0,1-.2.29h-0.09v-0.07a0.35,0.35,0,0,1,0,0v-0.16l0,0h0l0,0h0l0,0h0a0.41,0.41,0,0,0-.15-0.14,0.23,0.23,0,0,1-.14.11,0.21,0.21,0,0,0-.08.26,2.92,2.92,0,0,1-.13.43h0l0,0.07A1.12,1.12,0,0,0,223.16,144.78Z" transform="translate(-1 -3.22)"/><path class="cls-15" d="M222.78,148.14h0Z" transform="translate(-1 -3.22)"/><path class="cls-13" d="M224.09,143.47l-0.38-.05h-0.16l0-.08,0,0,0,0h0l0,0h-0.06a0.23,0.23,0,0,0-.14.06,0.37,0.37,0,0,0,0,.46h0a0.14,0.14,0,0,0,.08,0,0.27,0.27,0,0,0,.19-0.17h0v0h0v0l0,0a3.28,3.28,0,0,0,.38.35h0a0.63,0.63,0,0,0,.17.11,1.1,1.1,0,0,0,.08-0.3h0A0.24,0.24,0,0,0,224.09,143.47Z" transform="translate(-1 -3.22)"/><path class="cls-13" d="M224.09,145.3h0v0h0l0,0.17h0l-0.11.4-0.09,0,0.12-.57-0.08,0h0a0.88,0.88,0,0,0-.21.72h0a0.34,0.34,0,0,0,.08.19h0l0,0h0.12l0,0h0l0,0,0,0,0,0,0,0,0,0,0,0h0A0.65,0.65,0,0,0,224.09,145.3Z" transform="translate(-1 -3.22)"/><path class="cls-13" d="M224.26,145.16h0.2l0,0h0a0.07,0.07,0,0,0,0,0,0.09,0.09,0,0,1,.09-0.08h0.08l0,0h0a0.3,0.3,0,0,1,0,.13,0.21,0.21,0,0,1-.22.08,0.54,0.54,0,0,1-.28.07,3.21,3.21,0,0,0,.05.32h0c0.2-.16.43-0.29,0.58-0.41h0l0.05,0h0l0-.06,0-.15h0a3.06,3.06,0,0,1,.12-0.45,0.52,0.52,0,0,1-.15-0.29,0.49,0.49,0,0,0-.24.07l0,0c0,0.14.08,0.3-.05,0.36h-0.1l0,0h0l0,0h0a0.7,0.7,0,0,1-.06-0.24v0h-0.12a0.63,0.63,0,0,0,.07.57,0,0,0,0,1,0,.06l0,0.06,0,0h0l0,0h-0.09a0.5,0.5,0,0,0-.17-0.12v0.2a0.42,0.42,0,0,0,.17.06h0Z" transform="translate(-1 -3.22)"/><path class="cls-13" d="M221.86,147.95H222a1.18,1.18,0,0,0,1-.74c0-.16.09-0.32,0.14-0.48a2.15,2.15,0,0,1,.21-0.69l0.06-.05,0.08-.18a1.1,1.1,0,0,1,0-.23,0.34,0.34,0,0,1,0-.14h0a0.25,0.25,0,0,1-.17.14h0l-0.1,0a2.47,2.47,0,0,0-.46.69,2.81,2.81,0,0,1-.89,1.16h0.13a1.37,1.37,0,0,0,1-1.1A1.9,1.9,0,0,1,221.86,147.95Z" transform="translate(-1 -3.22)"/><path class="cls-13" d="M225.6,146.43a1,1,0,0,1-.24-0.57,1.62,1.62,0,0,0-.19-0.77h0l0,0.05a1.32,1.32,0,0,1-.44.37c-0.11.07-.22,0.15-0.32,0.23a0.16,0.16,0,0,1-.1,0h0l0,0.12a2.61,2.61,0,0,1,0,.82l0,0.12s0,0.08,0,.11a1,1,0,0,0,.37.52,2.39,2.39,0,0,1,.1-1.15,1.38,1.38,0,0,0-.06-0.46,4.83,4.83,0,0,0,.35,1,2.84,2.84,0,0,0,.06-1.5A1.06,1.06,0,0,0,225.6,146.43Z" transform="translate(-1 -3.22)"/><path class="cls-13" d="M224,146.44c0-.1,0-0.2,0-0.29a0.42,0.42,0,0,1-.29.15h0a0.27,0.27,0,0,1-.2-0.17h0c-0.07.18-.15,0.4-0.23,0.64s0,0.24-.06.32a2.77,2.77,0,0,1-.44.89,0.71,0.71,0,0,0,.43-0.19v0a1.18,1.18,0,0,0,.26.65,3.8,3.8,0,0,1,.09-1.82,5.42,5.42,0,0,0,.06,1.31h0a0.4,0.4,0,0,0,.32.32,1,1,0,0,1-.15-0.61s0,0,0,0a0.45,0.45,0,0,0,.33.26h0.09a1.12,1.12,0,0,1-.21-1A3.23,3.23,0,0,1,224,146.44Z" transform="translate(-1 -3.22)"/><path class="cls-13" d="M224.57,143.65a0.16,0.16,0,0,0-.17.09h0v0h0a1.3,1.3,0,0,0-.08.33,0.37,0.37,0,0,0,.23,0h0l0.11,0h0l0.15,0,0.09,0H225a0.33,0.33,0,0,1,.11.23c0.06,0.13.16,0.07,0.23,0h0l0,0h0l0,0h0l0,0h0a0.16,0.16,0,0,0,0-.2,0.54,0.54,0,0,0-.16-0.08h-0.14l-0.08,0,0,0h0l0,0h0l0,0h0l0,0,0,0h0l-0.13-.05h0l-0.07,0h0Z" transform="translate(-1 -3.22)"/><path class="cls-13" d="M227.43,146a2.16,2.16,0,0,0,.52-0.06,9.67,9.67,0,0,1,2.76-.72H231a0.85,0.85,0,0,1,.8,1.09,1.66,1.66,0,0,1-1.69.71,5.13,5.13,0,0,1-.63,0l0.12,0.2,0,0.06a4.78,4.78,0,0,0,.64,0,2.81,2.81,0,0,0,.94-0.13,1.29,1.29,0,0,0,.9-1.28,1.52,1.52,0,0,0-1-1.54,0.76,0.76,0,0,1,.15.54h0a1.24,1.24,0,0,0-.86-0.49,1.06,1.06,0,0,0-.31,0,0.48,0.48,0,0,1,.36.44,1.69,1.69,0,0,0-.82-0.29c0.1,0.42-.35.58-0.7,0.74a3.61,3.61,0,0,1-1.39.4c-0.68,0-.83-0.28-0.83-0.55a0.93,0.93,0,0,1,.81-0.93c0.63,0,.79.65,1.52,0.65h0.11a0.65,0.65,0,0,1-.47-0.49c0-.42.76-0.12,1-0.86a2.14,2.14,0,0,1-.37,0c-0.3,0-.31-0.12-0.59-0.12a0.86,0.86,0,0,0-.63.46,0.62,0.62,0,0,0-.58-0.86,0.56,0.56,0,0,0-.37.15,0.41,0.41,0,0,1,.38.43c0,0.28-1.14.62-1.14,1.56A0.87,0.87,0,0,0,227.43,146Z" transform="translate(-1 -3.22)"/><path class="cls-13" d="M223.06,145.5a0.88,0.88,0,0,1,.25-0.18l0,0c-0.08-.13-0.17-0.25-0.27-0.43a0.16,0.16,0,0,1,0-.1,1.39,1.39,0,0,1,0-.2,0.76,0.76,0,0,0-.46.19c-0.21.22-.32,0.53-0.51,0.7l0.14,0a0.77,0.77,0,0,0,.54-0.4,1,1,0,0,0-.22.75,1.44,1.44,0,0,1-.55.93C222.6,146.61,222.62,145.75,223.06,145.5Z" transform="translate(-1 -3.22)"/><path class="cls-13" d="M228.57,149.94a3.17,3.17,0,0,1,.14-0.71c-0.18-.19-0.37-0.43-0.59-0.7a1,1,0,0,0-.21-0.17,1.89,1.89,0,0,0-.29.14h0a8.49,8.49,0,0,1-1.22.48c-0.12.36,0,.58,0.49,0.67H227l0.37,0a0.65,0.65,0,0,1,.39.11c0.47,0.33.09,0.8-.57,0.89a2.27,2.27,0,0,1-.35,0,0.49,0.49,0,0,1-.56-0.36,0.19,0.19,0,0,0-.09-0.09,2.06,2.06,0,0,0-.38-0.14,2,2,0,0,0-.33-0.28,0.26,0.26,0,0,0-.17.09,0.16,0.16,0,0,0-.13-0.06,0.39,0.39,0,0,0-.29.17,0.7,0.7,0,0,1,.29.09h0a0.15,0.15,0,0,0,0,.09,0.1,0.1,0,0,0,.1,0h0.18a0.09,0.09,0,0,1,.07.08c0,0.13,0,.27-0.16.27a0.15,0.15,0,0,1-.11-0.1,0.09,0.09,0,0,0-.07-0.05h0a0.21,0.21,0,0,0-.18.17H225a0.37,0.37,0,0,0-.34.2,0.35,0.35,0,0,1,.15,0l0.15,0,0.07,0h0a0.38,0.38,0,0,0,0,.07,0.11,0.11,0,0,0,0,.06l0,0a1,1,0,0,0,.16-0.09l0.09,0h0.05a0.21,0.21,0,0,1,.07.34h-0.06a1.72,1.72,0,0,1-.19-0.07h0a0.21,0.21,0,0,0-.07.22,0.5,0.5,0,0,0-.35.29,0.92,0.92,0,0,1,.42-0.1h0a0.34,0.34,0,0,0,.16.11h0.09a0.18,0.18,0,0,0,.15-0.07,0.52,0.52,0,0,1,.4-0.34h0a0.33,0.33,0,0,1-.15.32h0a0.43,0.43,0,0,0,.38-0.3,0.52,0.52,0,0,1,.53.28,0.82,0.82,0,0,1-.16.32h0a2.32,2.32,0,0,0,1-.8h0a0,0,0,0,1,0,0,0.79,0.79,0,0,0,0,.67,2.33,2.33,0,0,1,.84-0.9c-0.14.34-.22,0.71,0.3,0.81a0.56,0.56,0,0,1,.19-0.9,0.14,0.14,0,0,0,.07-0.11C229.2,150.35,228.57,150.26,228.57,149.94Z" transform="translate(-1 -3.22)"/><path class="cls-13" d="M222.72,148.13a0.16,0.16,0,0,1-.08-0.24h0a1.11,1.11,0,0,1-.66.24h-0.16a0.16,0.16,0,0,1-.06-0.29l0.27-.18h-0.26a0.16,0.16,0,0,1-.07-0.28,2.17,2.17,0,0,0,.42-0.41l0,0-0.07,0h0a0.16,0.16,0,0,1-.11-0.27l0,0a5.35,5.35,0,0,0-.4-0.5c-0.08-.09-0.21-0.06-0.3-0.15a0.2,0.2,0,0,1-.05-0.09,4.68,4.68,0,0,1-.12-1.5,0.67,0.67,0,0,1,.19-0.29,0.13,0.13,0,0,0,0-.19,0.36,0.36,0,0,0-.15-0.05,0.37,0.37,0,0,0-.34-0.27h0s-0.06,0,0,.07,0,0,.06.11a0.14,0.14,0,0,0,.07.09h0a0.12,0.12,0,0,0-.1.11c0,0.05.26,0.09,0.09,0.26a0.23,0.23,0,0,1-.14.07h0c-0.25,0,0-.29-0.18-0.29a0.51,0.51,0,0,0-.21.05h0a0.61,0.61,0,0,0-.37-0.16h0c-0.1,0,.14,0,0.23.32a0.28,0.28,0,0,0,0,.09c0,0.13.3,0,.29,0.29a0.32,0.32,0,0,1,0,.07,0.08,0.08,0,0,1-.07,0c-0.05,0-.11-0.05-0.17-0.05h0l-0.06,0-0.06.06h0a0.54,0.54,0,0,1-.28-0.19h0a0.35,0.35,0,0,0,.21.39h0v0a0.16,0.16,0,0,0,.06.13l0,0h0l0.19,0a0.22,0.22,0,0,1,.22.14,0.25,0.25,0,0,1-.26.36l-0.16,0c0,0.17.23,0.18,0.38,0.19h0l0.07,0a0.26,0.26,0,0,1,.11.22,0.84,0.84,0,0,1-.52.84h0a0.49,0.49,0,0,0,.32.19,0.44,0.44,0,0,0,.22-0.08,0.63,0.63,0,0,1-.31.38,0.35,0.35,0,0,0,.18,0,0.49,0.49,0,0,0,.31-0.12,0.8,0.8,0,0,1-.39.59,0.57,0.57,0,0,0,.27.09,0.24,0.24,0,0,0,.22-0.13h0a0.66,0.66,0,0,1-.28.8,1.53,1.53,0,0,0,1,.54,1.69,1.69,0,0,0,1-.27A5,5,0,0,0,222.72,148.13Z" transform="translate(-1 -3.22)"/><path class="cls-13" d="M224.92,143.51a2.42,2.42,0,0,1,.32.16,0.88,0.88,0,0,1,.61-0.22,0.28,0.28,0,0,0,.33-0.3,1.5,1.5,0,0,0-1,.27,0.81,0.81,0,0,1,.59-0.31,0.63,0.63,0,0,0,.47-0.12h-0.06c-0.15,0-.28-0.08-0.46-0.08A0.85,0.85,0,0,0,224.92,143.51Z" transform="translate(-1 -3.22)"/><path class="cls-13" d="M222.47,144.64a0.94,0.94,0,0,1,.65-0.3,1.66,1.66,0,0,0,.06-0.2h0a0.44,0.44,0,0,1,0-.23l0,0a0.53,0.53,0,0,1-.09-0.67,0.38,0.38,0,0,1,.27-0.13h0a0.35,0.35,0,0,1,.29.17l0.31,0v-0.07l0-.12-0.06-.16a1,1,0,0,0-.55-0.44,2,2,0,0,0,.22.36,1.3,1.3,0,0,0-.44-0.2,0.73,0.73,0,0,0-.37.1,0.87,0.87,0,0,1,.48.18l-0.28,0a0.82,0.82,0,0,0-.47.18,1.06,1.06,0,0,0,.28.13,0.53,0.53,0,0,0-.42.38,1.07,1.07,0,0,1,.46-0.17,2.19,2.19,0,0,1-.5.44,0.44,0.44,0,0,0,.17,0,0.45,0.45,0,0,0,.22-0.06,2,2,0,0,0-.33.44,1,1,0,0,1,.52-0.26,1.51,1.51,0,0,0-.81,1.23A2.6,2.6,0,0,1,222.47,144.64Z" transform="translate(-1 -3.22)"/><path class="cls-13" d="M226,146.28s0.05,0,0,0a1.16,1.16,0,0,1-.18-0.66,2.08,2.08,0,0,0-.32-0.9,0.87,0.87,0,0,1,.27.37c0.14,0.33.13,1.09,0.41,1.14-0.18-.76-0.09-1-0.24-1.57a0.5,0.5,0,0,0-.42-0.28,0.12,0.12,0,0,1-.09.05,0.37,0.37,0,0,1-.14.08,0.15,0.15,0,0,1,0,.06,3,3,0,0,0-.09.33,5.5,5.5,0,0,1,.43,1.24A0.47,0.47,0,0,0,226,146.28Z" transform="translate(-1 -3.22)"/><path class="cls-13" d="M224.08,143.17l0.06,0.16a0.37,0.37,0,0,1,.12.08,1.64,1.64,0,0,1,.17-0.39l0-.12a1,1,0,0,0-.7-0.43,4.16,4.16,0,0,1,.19.41A1.13,1.13,0,0,1,224.08,143.17Z" transform="translate(-1 -3.22)"/><path class="cls-13" d="M224.46,143.5h0.14l0.09,0a1.93,1.93,0,0,1,.77-0.86,0.68,0.68,0,0,0-.19,0,0.82,0.82,0,0,0-.7.45l0,0.12-0.08.29h0Z" transform="translate(-1 -3.22)"/><path class="cls-13" d="M225.44,143.75l0.11,0.06a0.26,0.26,0,0,1,.1.28,0.1,0.1,0,0,1,0,.05,0.7,0.7,0,0,1,.62.62,1,1,0,0,0-.3-0.9h0.1a0.37,0.37,0,0,0,.27-0.09,0.72,0.72,0,0,0-.47-0.17A0.76,0.76,0,0,0,225.44,143.75Z" transform="translate(-1 -3.22)"/><path class="cls-13" d="M222.49,144.15V144a1.38,1.38,0,0,0-.17.24h0Z" transform="translate(-1 -3.22)"/><path class="cls-13" d="M220.58,144.24c0-.09,0-0.22-0.06-0.22a0.51,0.51,0,0,0-.21.05h0a0.61,0.61,0,0,0-.37-0.16h0c-0.1,0,.14,0,0.23.32v0h0.46Z" transform="translate(-1 -3.22)"/><path class="cls-13" d="M220.77,143.77a0.14,0.14,0,0,0,.07.09h0a0.12,0.12,0,0,0-.1.11c0,0.05.26,0.09,0.09,0.26h0.28a0.85,0.85,0,0,1,.12-0.14,0.13,0.13,0,0,0,0-.19,0.36,0.36,0,0,0-.15-0.05,0.37,0.37,0,0,0-.34-0.27h0s-0.06,0,0,.07S220.74,143.69,220.77,143.77Z" transform="translate(-1 -3.22)"/><path class="cls-13" d="M222.49,143.9v-0.22a2,2,0,0,1-.26.2,0.44,0.44,0,0,0,.17,0h0.09Z" transform="translate(-1 -3.22)"/><path class="cls-13" d="M222.49,143.32a0.4,0.4,0,0,0-.22.29,0.93,0.93,0,0,1,.22-0.11v-0.18Z" transform="translate(-1 -3.22)"/><path class="cls-13" d="M222.49,143.05l-0.07,0,0.07,0v-0.08Z" transform="translate(-1 -3.22)"/><path class="cls-13" d="M215.85,132.83v22.42a1.91,1.91,0,0,0,1.46,1.93l8.94,3.53,9-3.53a1.91,1.91,0,0,0,1.42-1.88V132.83h-20.8Zm20.25,6.38H230v5h0.86l-0.11-.18,0.4,0.12,0.14,0.05H236v7.62h-3.43a0.64,0.64,0,0,1-.33.1h-0.07l-0.17,0-0.29-.06a0.43,0.43,0,0,1-.15.34l-0.19.17-0.07-.24h0a0.38,0.38,0,0,1-.41.43h-0.07a0.68,0.68,0,0,1-.25,0,0.4,0.4,0,0,1-.42-0.22l-0.07-.2h0.31a0.34,0.34,0,0,1,0-.12h-0.09a0.24,0.24,0,0,1-.14,0H230v6.7L226.25,160l-3.76-1.28v-6.87h-1.2a1.17,1.17,0,0,1-.44.4l-0.37.1,0.19-.33a0.26,0.26,0,0,0,0-.2H220.6a0.83,0.83,0,0,0,0,.11,0.61,0.61,0,0,1-.17.29h0a0.32,0.32,0,0,1-.14,0l-0.14,0a0.81,0.81,0,0,1-.58,0l-0.34-.17,0.36-.12a0.38,0.38,0,0,0,.16-0.11v0h-3.15v-7.62h3.44v0a0.3,0.3,0,0,0-.13-0.13,0.18,0.18,0,0,1-.1-0.18,0.17,0.17,0,0,1,.13-0.14h0.08a0.78,0.78,0,0,1,.41.15l0.17,0,0.1,0,0,0v-0.07h0a0.2,0.2,0,0,1-.08-0.22,0.19,0.19,0,0,1,.18-0.13h0a0.53,0.53,0,0,1,.44.29l0.12,0.06a0.32,0.32,0,0,1,.14.22,0.25,0.25,0,0,1-.08.22l0,0h0.82l0.1-.18-0.08,0a0.16,0.16,0,0,1,0-.28l0,0a0.16,0.16,0,0,1-.06-0.13,0.5,0.5,0,0,1,.22-0.37h0a0.16,0.16,0,0,1-.07-0.13,0.16,0.16,0,0,1,.07-0.13l0.16-.09V139.2h-6.13v-5.85H236.1v5.85Z" transform="translate(-1 -3.22)"/><path class="cls-13" d="M231.09,152a0.11,0.11,0,0,1,0-.09,0.42,0.42,0,0,1,.06-0.09h-0.33c0,0.07,0,.14-0.12.14h-0.08l0,0a0.2,0.2,0,0,0,0,.21l0,0.05a0.7,0.7,0,0,1-.31,0,0.28,0.28,0,0,0,.27.11,0.44,0.44,0,0,0,.22-0.05h0.09a0.23,0.23,0,0,0,.23-0.12,0.21,0.21,0,0,0,0-.14Z" transform="translate(-1 -3.22)"/><path class="cls-13" d="M230.23,151.86h0a0.09,0.09,0,0,0,.07,0h0l0.08,0h-0.17Z" transform="translate(-1 -3.22)"/><path class="cls-13" d="M231.44,152.08a0.29,0.29,0,0,0,.1-0.23h-0.19A1.07,1.07,0,0,1,231.44,152.08Z" transform="translate(-1 -3.22)"/><path class="cls-13" d="M220.81,152.13a1.26,1.26,0,0,0,.32-0.28h-0.26A0.44,0.44,0,0,1,220.81,152.13Z" transform="translate(-1 -3.22)"/><path class="cls-13" d="M219.85,151.9a0.62,0.62,0,0,1-.3.24,0.52,0.52,0,0,0,.2,0,0.43,0.43,0,0,0,.26-0.06l0,0a0.32,0.32,0,0,0,.17.06l0.07,0a0.62,0.62,0,0,0,.14-0.27h-0.6Z" transform="translate(-1 -3.22)"/><path class="cls-13" d="M230,151.86h0Z" transform="translate(-1 -3.22)"/><path class="cls-13" d="M232.17,150.71h0.07A1.13,1.13,0,0,0,233,150a1.41,1.41,0,0,1-.6.2,0.23,0.23,0,0,1-.24-0.15h0a0.8,0.8,0,0,0,.8-0.86,1,1,0,0,1-.6.29,1,1,0,0,1-.25,0,0.29,0.29,0,0,0-.07-0.09l0-.06,0-.06a0.19,0.19,0,0,0-.14-0.06,6,6,0,0,1-.64.16,0.61,0.61,0,0,1-.29-0.07,0.72,0.72,0,0,1-.25-0.32,4.16,4.16,0,0,0-.18-0.54,1.38,1.38,0,0,0-.47-0.57,2.52,2.52,0,0,1-.58-0.58c0-.06-0.16-0.29-0.2-0.35a0.94,0.94,0,0,0-.68-0.45c-0.19,0-.48.17-0.67,0.21-0.66.14-1.15,0.23-1.76,0.37h0a0.91,0.91,0,0,1-.38-0.56,0.17,0.17,0,0,1-.15.09h0a0.73,0.73,0,0,1-.32-0.2,1.32,1.32,0,0,1-.16.6,0.16,0.16,0,0,1-.11.08h0a0.16,0.16,0,0,1-.1,0,0.61,0.61,0,0,1-.14-0.17,1,1,0,0,0,0,.57,0.16,0.16,0,0,1-.06.18l-0.09,0a0.16,0.16,0,0,1-.1,0,1.16,1.16,0,0,1-.31-0.34,0.69,0.69,0,0,0,.19.49,0.16,0.16,0,0,1-.07.26l-0.13,0L224,148l0.07,0.15a0.16,0.16,0,0,1-.14.23h0a0.49,0.49,0,0,1-.32-0.18l0,0.2a0.16,0.16,0,0,1-.09.16l-0.07,0a0.16,0.16,0,0,1-.11,0,1.05,1.05,0,0,1-.25-0.49,0.9,0.9,0,0,1-.22.08,2.42,2.42,0,0,1-.8,1.54c-0.28.14,0,.69-0.82,1.07a1.34,1.34,0,0,1-.49.12,0.71,0.71,0,0,1-.31-0.07l-0.21-.13a1.32,1.32,0,0,0-.3-0.38,0.17,0.17,0,0,0-.11.08,0.48,0.48,0,0,0-.49.23l0.14,0a1,1,0,0,1,.21,0l0,0.07a0.09,0.09,0,0,0,0,.07,0.09,0.09,0,0,0,.06,0c0.07,0,.14-0.06.21-0.06h0a0.28,0.28,0,0,1,0,.38h0c-0.09,0-.14-0.11-0.24-0.11h0a0.21,0.21,0,0,0-.06.17,0.48,0.48,0,0,0-.4.32,0.6,0.6,0,0,1,.3-0.11l0.12,0h0a0.35,0.35,0,0,0,.07.12h0.07a0.3,0.3,0,0,0,.12-0.1H220c0.11,0,.14.09,0.14,0.2a0.12,0.12,0,0,1-.08.14H220l-0.05,0-0.06,0a0.1,0.1,0,0,0-.08.11,0.23,0.23,0,0,0,0,.11,0.62,0.62,0,0,1-.3.24,0.52,0.52,0,0,0,.2,0,0.43,0.43,0,0,0,.26-0.06l0,0a0.32,0.32,0,0,0,.17.06l0.07,0a0.84,0.84,0,0,1,.34-0.45,0.44,0.44,0,0,1,.18,0,0.31,0.31,0,0,1,0,.41,1.18,1.18,0,0,0,.34-0.31c0-.14,0-0.26,0-0.35a1.16,1.16,0,0,1,.43-0.38,0.78,0.78,0,0,0,.38.09,1.7,1.7,0,0,0,1-.4h-0.06a0.69,0.69,0,0,1-.62-0.31,0.85,0.85,0,0,0,.53.14,1.34,1.34,0,0,0,1.13-.5,0.92,0.92,0,0,1-.22,0,0.81,0.81,0,0,1-.58-0.27,0.79,0.79,0,0,0,.35.08,1,1,0,0,0,.86-0.48h0a0.47,0.47,0,0,1-.45-0.31H224a3.64,3.64,0,0,0,1.17-.48h0a3,3,0,0,1-.24.47,2.13,2.13,0,0,0,1.28-.87,0.84,0.84,0,0,1-.45.66,6.16,6.16,0,0,0,1.72-.58,1.58,1.58,0,0,1,.39-0.17,0.82,0.82,0,0,1,.33.23c0.74,0.93,1.06,1.31,2.07,1.39a1.59,1.59,0,0,0,.29,0H231a0.62,0.62,0,0,1,.68.34,0.73,0.73,0,0,1-.53.95,0.44,0.44,0,0,1-.28-0.24,0.31,0.31,0,0,0-.19-0.24,0.21,0.21,0,0,0-.15.08,0.24,0.24,0,0,0-.14,0,0.61,0.61,0,0,0-.43.24,0.78,0.78,0,0,1,.2,0,0.5,0.5,0,0,1,.22.06c-0.08.2,0.13,0.15,0.21,0.24a0.28,0.28,0,0,1,0,.08,0.18,0.18,0,0,1-.18.23,0.13,0.13,0,0,1-.11-0.05,0.07,0.07,0,0,0-.06,0h0a0.13,0.13,0,0,0-.08.1,0.49,0.49,0,0,0-.3.37,2.32,2.32,0,0,1,.34,0v0a0.09,0.09,0,0,0,.07,0h0a0.84,0.84,0,0,0,.24-0.14h0.08c0.2,0,.29.26,0.06,0.26h-0.08l0,0a0.2,0.2,0,0,0,0,.21l0,0.05a0.7,0.7,0,0,1-.31,0,0.28,0.28,0,0,0,.27.11,0.44,0.44,0,0,0,.22-0.05h0.09a0.23,0.23,0,0,0,.23-0.12,0.21,0.21,0,0,0,0-.14l0-.08a0.11,0.11,0,0,1,0-.09,0.4,0.4,0,0,1,.17-0.19,0.5,0.5,0,0,1,.18.33,0.32,0.32,0,0,0,.06-0.39h0a3.52,3.52,0,0,1,.62.1h0a0.51,0.51,0,0,0,.45-0.32,0.62,0.62,0,0,1-.2,0,0.51,0.51,0,0,1-.46-0.19l0.16,0a1,1,0,0,0,.79-0.54,1.24,1.24,0,0,1-.41.07A0.38,0.38,0,0,1,232.17,150.71Z" transform="translate(-1 -3.22)"/><path class="cls-13" d="M224.21,144.19h-0.11a0.48,0.48,0,0,1-.27.45c-0.06,0,0,.08,0,0.1l0.13,0h0l0.07,0h0l0,0,0.09,0.08s0.05,0,.05,0,0.05-.05,0-0.15A0.82,0.82,0,0,1,224.21,144.19Z" transform="translate(-1 -3.22)"/><path class="cls-13" d="M228.84,135.78c0,0.09-.06.15-0.09,0.25H229A2.48,2.48,0,0,0,228.84,135.78Z" transform="translate(-1 -3.22)"/><path class="cls-13" d="M230.19,135.8l0.58-.44-0.58-.47v-0.55H229.9v-0.17h0l-0.09-.13h-3.05a0.68,0.68,0,0,1-1,0h-3.05l-0.09.13h0v0.17h-0.29v0.55l-0.58.47,0.58,0.47v0.83l-0.58.44,0.58,0.47v0.77h7.87v-0.74l0.58-.47-0.58-.47V135.8Zm-6.69.07,0.11,0.06a0.34,0.34,0,0,1,.26.35,0.28,0.28,0,0,1-.2.23h-0.08a0.57,0.57,0,0,1-.31-0.11h0l-0.07.06-0.08.06h0l-0.05,0h0a0.54,0.54,0,0,0,.07-0.17,0.91,0.91,0,0,1,.06-0.17h0l0,0a0,0,0,0,1,0,0,0.19,0.19,0,0,1,0,0,0.27,0.27,0,0,0,.23.2h0a0.1,0.1,0,0,0,.09,0,0.16,0.16,0,0,0,0-.15,0.35,0.35,0,0,0-.11-0.09,0.4,0.4,0,0,1-.19-0.19,0.28,0.28,0,0,1,0-.23,0.26,0.26,0,0,1,.23-0.12,0.38,0.38,0,0,1,.19,0l0.05,0a0.06,0.06,0,0,1,.07,0h0v0a0.49,0.49,0,0,1,0,.28H223.8a0.57,0.57,0,0,0-.17-0.27,0.18,0.18,0,0,0-.14.06A0.19,0.19,0,0,0,223.49,135.86Zm1.29,0.38a0.34,0.34,0,0,1-.22.2,0.51,0.51,0,0,1-.18,0,0.69,0.69,0,0,1-.35-0.1,0.57,0.57,0,0,1-.13-0.51,0.42,0.42,0,0,1,.26-0.26,1.16,1.16,0,0,1,.27,0h0.11l0.09,0h0l0.05,0h0a0.51,0.51,0,0,1,0,.2,0.72,0.72,0,0,0,0,.08s0,0.08,0,.08a0.06,0.06,0,0,1,0-.05l0,0,0,0a0.34,0.34,0,0,0-.2-0.17,0.31,0.31,0,0,0-.26.15,0.53,0.53,0,0,0,.06.51,0.28,0.28,0,0,0,.18.07h0.08a0.24,0.24,0,0,0,.2-0.17h0a0.08,0.08,0,0,1,.08.08h0Zm0.45-.6,0,0a0.72,0.72,0,0,0-.06.36s0,0.05,0,.08a0.34,0.34,0,0,0,.08.31h0v0.05h-0.37v-0.05h0l0,0a0.14,0.14,0,0,0,0-.07h0a2.46,2.46,0,0,0,0-.51,0.13,0.13,0,0,0-.05-0.14,0.07,0.07,0,0,1-.07,0l0,0h0a0,0,0,0,0,0,0v0h0.37a0,0,0,0,1,0,0A0,0,0,0,1,225.24,135.65Zm1.92,0-0.06.06h0s0,0,0,0h0a1.3,1.3,0,0,0,0,.45c0,0.05,0,.11,0,0.16v0.13h0l0,0a0.07,0.07,0,0,1,0,0,2.06,2.06,0,0,1-.34-0.4c-0.06-.08-0.12-0.17-0.18-0.24h0c0,0.07,0,.15,0,0.22s0,0.17,0,.27l0.05,0.07a0.1,0.1,0,0,1,0,.06h-0.4l0.06,0a0.69,0.69,0,0,0,.12-0.58s0-.08,0-0.12h0a0.18,0.18,0,0,0-.14.17v0h-0.07a0.52,0.52,0,0,0-.09-0.14h0a0.15,0.15,0,0,0-.07-0.05h-0.26v0.22a0.11,0.11,0,0,0,.12,0l0,0a0.1,0.1,0,0,1,.07,0h0a0.13,0.13,0,0,1,0,.11v0.16h0l0,0,0,0h0a0.16,0.16,0,0,0-.08-0.05h-0.08v0.3a0.14,0.14,0,0,0,.13.07l0.09,0h0a0.23,0.23,0,0,0,.14-0.05,0.41,0.41,0,0,0,0-.09,0.43,0.43,0,0,1,0-.09h0.06v0.26a0.08,0.08,0,0,1-.08.08h-0.73l0,0a1.25,1.25,0,0,0,.06-0.72l0,0a0.14,0.14,0,0,0,0,0h0v0s0,0,.08,0H226a0.08,0.08,0,0,1,.08.07,0.07,0.07,0,0,1,0,0h0l0,0,0,0a0.24,0.24,0,0,1,.19-0.07h0a0.76,0.76,0,0,1,.36.37,0.87,0.87,0,0,0,.14.2v-0.36a0.84,0.84,0,0,0-.15-0.18l0,0h0.45Zm0.82,0.28h0a0.06,0.06,0,0,1,0,0l0,0h0a0.28,0.28,0,0,0-.11-0.14h-0.06a0,0,0,0,0,0,0,2,2,0,0,1,0,.28,0.7,0.7,0,0,0,.08.5h0a0,0,0,0,1-.05.05h-0.35a0.05,0.05,0,0,1,0-.08l0,0h0a1.05,1.05,0,0,0,.09-0.57s0-.08,0-0.12h0l0,0h0c-0.08,0-.1.07-0.14,0.17h-0.1v0a0.61,0.61,0,0,1,0-.29h0.71l0,0a0.13,0.13,0,0,1,0,.09,0.15,0.15,0,0,1,0,.08,0.11,0.11,0,0,1,0,.06,0.1,0.1,0,0,1,0,.07h0Zm1.46,0.57s-0.05,0-.08,0h0c-0.12,0-.21,0-0.34,0h0l0,0a0.16,0.16,0,0,0,0-.07,0.08,0.08,0,0,0,0-.06h0a0.25,0.25,0,0,0,0-.14v0h-0.27l0,0,0,0a0.24,0.24,0,0,0,.08.23l0,0h-0.05l0,0H228.4a0.89,0.89,0,0,1-.38,0l0,0h0a0.47,0.47,0,0,0,.11-0.42,0.75,0.75,0,0,0-.05-0.39,0,0,0,0,1,0,0,0,0,0,0,1,0,0h0.4l0,0,0,0a0.14,0.14,0,0,0-.06.07,0.88,0.88,0,0,0,0,.33s0,0.06,0,.09a0.44,0.44,0,0,0,.06.32h0a1,1,0,0,0,.28-0.48l0.07-.18a0.06,0.06,0,0,0-.06,0h-0.12l-0.05,0h0v0a0.16,0.16,0,0,1,.06-0.1h0l0,0a0.22,0.22,0,0,1,.12,0h0.06a0.19,0.19,0,0,1,.18.11,0.75,0.75,0,0,1,.14.23l0,0.08,0,0.09a0.63,0.63,0,0,0,.24.37h0Z" transform="translate(-1 -3.22)"/><path class="cls-13" d="M256.81,145.67c0,4.91-2.47,7.39-7,7.39s-7-2-7-6.57v-4.65a56.24,56.24,0,0,0-.38-5.8,16.88,16.88,0,0,0,1.9.12,10.29,10.29,0,0,0,1.51-.12c-0.24,2.28-.31,5.32-0.31,8.49,0,4.55.84,7.14,5.06,7.14,4.56,0,4.68-4.53,4.68-8.27,0-3.38,0-5.78-.17-7.36a5.68,5.68,0,0,0,1.1.12,4.17,4.17,0,0,0,1-.12c-0.17,1.82-.34,5.82-0.36,9.64" transform="translate(-1 -3.22)"/><path class="cls-13" d="M272.44,144.17c0,2.56,0,6.46,0,8.75a2.28,2.28,0,0,0-.57-0.07,2,2,0,0,0-.55.07c-3.48-4.1-7.42-8.34-11.31-12.46,0,1.34-.07,3.06-0.07,5.22,0,2.94.1,6.15,0.19,7.07a4.08,4.08,0,0,0-2,0c0.17-.92.5-7.07,0.5-11.09,0-2.58,0-4.48-.1-5.58a5.18,5.18,0,0,0,.62,0,5.55,5.55,0,0,0,.64,0c3.67,4,8,8.79,11.28,12.16,0-4,0-9.62-.19-12a4.23,4.23,0,0,0,1,.12,3.84,3.84,0,0,0,.91-0.12c-0.14,2.32-.31,5.89-0.34,7.95" transform="translate(-1 -3.22)"/><path class="cls-13" d="M278.5,153.14a10,10,0,0,1-5.28-1.75,4,4,0,0,0,1.58-2.24,4,4,0,0,0,4.05,2.52,3.78,3.78,0,0,0,4-3.39c0-4-8.83-2.19-8.83-7.74,0-3,2.64-4.66,6.14-4.66a8.22,8.22,0,0,1,4.54,1.32,3.08,3.08,0,0,0-.89.89,7.43,7.43,0,0,0-.53,1.13,3.33,3.33,0,0,0-3.31-2.16c-1.9,0-3.24,1.18-3.24,2.64,0,4,9.17,2.4,9.14,7.62,0,4.11-3,5.81-7.34,5.81" transform="translate(-1 -3.22)"/><path class="cls-13" d="M302.66,152.77a7.29,7.29,0,0,0-1-.12,7.2,7.2,0,0,0-1,.12c-1.15-4.19-2.47-8.41-3.93-12.75h0c-0.89,2.73-3,8.82-4.2,12.75a4.2,4.2,0,0,0-2,0c-0.67-2.59-1.66-6.38-2.9-10.45-0.38-1.29-1.8-5.2-2.18-6.09a15.62,15.62,0,0,0,1.82.12,10.54,10.54,0,0,0,1.51-.12c1.06,4.48,2.14,8.44,3.5,13.16h0c1.08-3.33,3.58-10.81,4.17-13.16a3.8,3.8,0,0,0,1.9,0c0.55,2.37,3.21,10.33,4,13.16h0c0.94-3.09,3.33-11.17,3.77-13.16a3.72,3.72,0,0,0,.89.12,4.28,4.28,0,0,0,.94-0.12c-0.77,2.06-4.25,12.63-5.37,16.54" transform="translate(-1 -3.22)"/><path class="cls-13" d="M247.61,157.12l-0.19-.42-0.22-.51-0.23-.55-0.23-.55-0.23-.56h-0.2l0,0.05L245.67,156,245,157.4l-0.07.15,0.16,0a1.2,1.2,0,0,1,.28,0h0.08l0-.08c0-.12.08-0.27,0.15-0.46l0.21-.54h0.89l0.09,0.23L247,157l0.11,0.27,0.07,0.22,0,0.08h0.48l0.18,0-0.09-.16Zm-1.51-1H246l0.3-.7,0.31,0.71H246.1Z" transform="translate(-1 -3.22)"/><path class="cls-13" d="M255.12,154.58a0.35,0.35,0,0,1-.16,0h-0.08l-0.12,0,0,0.13a4.15,4.15,0,0,1,0,.42c0,0.21,0,.5,0,0.88,0,0.08,0,.17,0,0.27a2.18,2.18,0,0,1,0,.29,1.28,1.28,0,0,1-.07.27,0.67,0.67,0,0,1-.13.21,0.62,0.62,0,0,1-.22.15,0.86,0.86,0,0,1-.34.06,1,1,0,0,1-.35,0,0.63,0.63,0,0,1-.22-0.13,0.57,0.57,0,0,1-.13-0.19,1.09,1.09,0,0,1-.07-0.25,1.9,1.9,0,0,1,0-.27c0-.1,0-0.19,0-0.28s0-.29,0-0.43,0-.27,0-0.39,0-.23,0-0.32,0-.17,0-0.23v-0.12l-0.12,0h-0.35l-0.11,0v0.11q0,0.18,0,.44t0,0.6q0,0.15,0,.29t0,0.34a1.27,1.27,0,0,0,.3.93,1.29,1.29,0,0,0,.94.3,1.53,1.53,0,0,0,.52-0.08,1,1,0,0,0,.39-0.25,1.11,1.11,0,0,0,.24-0.39,1.54,1.54,0,0,0,.09-0.51q0-.22,0-0.46l0-.46q0-.22,0-0.42t0-.33v-0.13Z" transform="translate(-1 -3.22)"/><path class="cls-13" d="M261.85,155.95a1.78,1.78,0,0,0-.32-0.15l-0.29-.13a0.72,0.72,0,0,1-.21-0.16,0.35,0.35,0,0,1-.07-0.24,0.42,0.42,0,0,1,0-.17,0.36,0.36,0,0,1,.09-0.13,0.41,0.41,0,0,1,.13-0.08,0.47,0.47,0,0,1,.33,0l0.11,0.08a0.37,0.37,0,0,1,.08.1l0,0.11,0,0.06H262v-0.07c0-.07,0-0.14,0-0.18a0.83,0.83,0,0,1,.05-0.13l0-.07-0.06,0a0.9,0.9,0,0,0-.29-0.16,1.31,1.31,0,0,0-.76,0,0.94,0.94,0,0,0-.31.18,0.77,0.77,0,0,0-.2.27,0.86,0.86,0,0,0-.07.34,0.76,0.76,0,0,0,.11.43,0.9,0.9,0,0,0,.26.26,1.65,1.65,0,0,0,.32.16l0.29,0.13a0.71,0.71,0,0,1,.21.16,0.34,0.34,0,0,1,.07.23,0.55,0.55,0,0,1,0,.19,0.45,0.45,0,0,1-.25.26,0.59,0.59,0,0,1-.4,0,0.62,0.62,0,0,1-.16-0.09,0.55,0.55,0,0,1-.11-0.12,0.7,0.7,0,0,1-.08-0.13l0-.05h-0.19v0.08c0,0.08,0,.14,0,0.18a1,1,0,0,1,0,.15l0,0.06,0.05,0a1.19,1.19,0,0,0,.28.16,1.13,1.13,0,0,0,.44.07,1.31,1.31,0,0,0,.45-0.07,1,1,0,0,0,.34-0.21,0.92,0.92,0,0,0,.21-0.32,1,1,0,0,0,.07-0.38,0.7,0.7,0,0,0-.11-0.41A0.88,0.88,0,0,0,261.85,155.95Z" transform="translate(-1 -3.22)"/><path class="cls-13" d="M269.34,154.9a0.4,0.4,0,0,1,0-.1,0.44,0.44,0,0,1,0-.11l0-.12h-2.32l0,0.12a0.46,0.46,0,0,1,0,.1,0.4,0.4,0,0,1,0,.1l0,0.13,0.14,0,0.19,0H268q0,0.37,0,.74v0.69q0,0.26,0,.52t0,0.51v0.11H268a2.25,2.25,0,0,1,.38,0h0.11v-0.11c0-.17,0-0.34,0-0.51s0-.34,0-0.52v-0.69q0-.37,0-0.74h0.57l0.19,0,0.14,0Z" transform="translate(-1 -3.22)"/><path class="cls-13" d="M276.58,157.37l-0.14-.16-0.2-.24-0.44-.55-0.19-.24,0-.05,0.13,0a1.16,1.16,0,0,0,.29-0.15,0.89,0.89,0,0,0,.24-0.26,0.79,0.79,0,0,0,0-.73,0.63,0.63,0,0,0-.21-0.23,0.9,0.9,0,0,0-.3-0.12,2,2,0,0,0-.58,0,3.24,3.24,0,0,1-.45,0h-0.33v0.1q0,0.27,0,.52t0,0.52v0.69c0,0.18,0,.35,0,0.52s0,0.34,0,.51v0.11h0.11a2.24,2.24,0,0,1,.38,0H275v-0.11c0-.17,0-0.34,0-0.51s0-.34,0-0.52v-0.2h0l0.25,0.29,0.3,0.38,0.27,0.36,0.18,0.25,0,0h0.5l0.27,0Zm-0.84-2.24a0.44,0.44,0,0,1,0,.22,0.47,0.47,0,0,1-.06.25,0.49,0.49,0,0,1-.16.16,0.64,0.64,0,0,1-.22.09,1.48,1.48,0,0,1-.38,0h0v-0.15q0-.22,0-0.43v-0.36H275a1.58,1.58,0,0,1,.42,0,0.51,0.51,0,0,1,.17.07A0.38,0.38,0,0,1,275.74,155.13Z" transform="translate(-1 -3.22)"/><path class="cls-13" d="M284.06,157.4l-0.13-.28-0.19-.42-0.22-.51-0.23-.55-0.23-.55-0.23-.56h-0.2l0,0.05L282,156l-0.64,1.4-0.07.15,0.16,0a1.2,1.2,0,0,1,.28,0h0.08l0-.08c0-.12.08-0.27,0.15-0.46l0.21-.54h0.89l0.09,0.23,0.12,0.29,0.11,0.27,0.07,0.22,0,0.08H284l0.18,0Zm-1.64-1.3h-0.08l0.3-.7,0.31,0.71h-0.53Z" transform="translate(-1 -3.22)"/><path class="cls-13" d="M290.76,157.41a0.29,0.29,0,0,1,0-.08,0.38,0.38,0,0,1,0-.1l0-.13-0.14,0a5,5,0,0,1-.55,0h-0.46v-0.58q0-.37,0-0.88,0-.26,0-0.52t0-.52v-0.11l-0.11,0H289.2l-0.11,0v0.11l0,0.52q0,0.25,0,.52v0.69c0,0.18,0,.35,0,0.52s0,0.34,0,.51v0.1h1.71Z" transform="translate(-1 -3.22)"/><path class="cls-13" d="M296.44,156.93q0-.26,0-0.52v-0.69q0-.26,0-0.52t0-.52v-0.11l-0.11,0H296l-0.11,0v0.11q0,0.27,0,.52t0,0.52v0.69c0,0.18,0,.35,0,0.52s0,0.34,0,.51v0.11H296a2.24,2.24,0,0,1,.38,0h0.11v-0.11C296.46,157.27,296.45,157.1,296.44,156.93Z" transform="translate(-1 -3.22)"/><path class="cls-13" d="M304.21,157.4l-0.13-.28-0.19-.42-0.22-.51-0.23-.55-0.23-.55-0.23-.56h-0.2l0,0.05L302.14,156l-0.64,1.4-0.07.15,0.16,0a1.2,1.2,0,0,1,.28,0h0.08l0-.08c0-.12.08-0.27,0.15-0.46l0.21-.54h0.89l0.09,0.23,0.12,0.29,0.11,0.27,0.07,0.22,0,0.08h0.48l0.18,0Zm-1.64-1.3h-0.08l0.3-.7,0.31,0.71h-0.53Z" transform="translate(-1 -3.22)"/></svg>