<?xml version="1.0" encoding="UTF-8"?>
<svg xmlns="http://www.w3.org/2000/svg" xmlns:xlink="http://www.w3.org/1999/xlink" version="1.2" >
<font id="Antwerp Bold">
<font-face  font-family="Antwerp" units-per-em="1000" ascent="750" descent="-250" font-style="normal" font-weight="700" font-stretch="normal" cap-height="711" x-height="497" underline-position="-123" underline-thickness="20" />
<missing-glyph  d="" />
<glyph glyph-name="NULL" d="" />
<glyph glyph-name="CR" unicode="&#xd;" horiz-adv-x="250" d="" />
<glyph glyph-name="space" unicode="&#x20;" horiz-adv-x="190" d="" />
<glyph glyph-name="exclam" unicode="&#x21;" horiz-adv-x="353" d="M176 715 C106 715 65 665 65 604 C65 476 141 442 150 243 L203 243 C212 442 288 476 288 604 C288 665 246 715 176 715 L176 715 Z M71 87 C71 31 117 -15 174 -15 C230 -15 276 31 276 87 C276 143 230 189 174 189 C117 189 71 143 71 87 L71 87 Z " />
<glyph glyph-name="quotedbl" unicode="&#x22;" horiz-adv-x="503" d="M60 405 L117 405 L237 715 L60 715 L60 405 Z M281 405 L338 405 L458 715 L281 715 L281 405 Z " />
<glyph glyph-name="numbersign" unicode="&#x23;" horiz-adv-x="590" d="M233 700 L167 700 L167 476 L23 476 L23 417 L167 417 L167 299 L23 299 L23 239 L167 239 L167 0 L233 0 L233 239 L357 239 L357 0 L425 0 L425 239 L567 239 L567 299 L425 299 L425 417 L567 417 L567 476 L425 476 L425 700 L357 700 L357 476 L233 476 L233 700 Z M233 417 L357 417 L357 299 L233 299 L233 417 Z " />
<glyph glyph-name="dollar" unicode="&#x24;" horiz-adv-x="590" d="M275 -168 L322 -168 L322 -11 C462 4 556 89 556 209 C556 349 425 394 322 440 L322 660 C394 660 423 643 433 617 C454 561 469 509 468 509 L513 509 C520 591 531 683 531 683 C523 688 409 712 322 714 L322 836 L275 836 L275 712 C123 698 56 603 56 522 C56 421 107 374 174 335 C205 317 241 303 275 289 L275 41 C206 43 151 67 131 114 C98 190 91 231 91 231 L38 226 C44 126 44 39 44 21 C96 6 164 -14 272 -14 L275 -14 L275 -168 Z M408 158 C408 95 370 58 322 46 L322 268 C371 244 408 213 408 158 L408 158 Z M249 476 C219 495 196 522 196 564 C196 615 235 643 275 654 L275 462 C267 466 256 471 249 476 L249 476 Z " />
<glyph glyph-name="percent" unicode="&#x25;" horiz-adv-x="798" d="M729 679 L690 714 L69 16 L108 -19 L729 679 Z M206 709 C118 709 37 624 37 526 C37 429 118 342 206 342 C294 342 375 429 375 526 C375 624 294 709 206 709 L206 709 Z M206 385 C156 385 155 454 155 526 C155 597 156 668 206 668 C256 668 257 597 257 526 C257 454 256 385 206 385 L206 385 Z M591 353 C502 353 421 267 421 170 C421 72 502 -14 591 -14 C680 -14 761 72 761 170 C761 267 680 353 591 353 L591 353 Z M591 29 C541 29 540 98 540 170 C540 241 541 311 591 311 C641 311 642 241 642 170 C642 98 641 29 591 29 L591 29 Z " />
<glyph glyph-name="ampersand" unicode="&#x26;" horiz-adv-x="857" d="M349 444 C283 496 255 539 255 594 C255 641 292 670 336 670 C390 670 427 629 427 570 C427 524 398 466 349 444 L349 444 Z M458 136 C427 101 381 89 339 89 C269 89 201 139 201 224 C201 268 224 316 245 340 L458 136 Z M238 387 C118 351 48 268 48 170 C48 77 118 -13 252 -13 C364 -13 437 40 493 104 L610 -2 C610 -2 696 2 732 2 L837 -2 L837 41 C798 47 770 60 742 84 L591 218 L669 322 C713 381 737 412 774 420 L807 427 L807 473 L678 468 L546 473 L546 427 L590 421 C619 417 625 402 625 384 C625 356 608 323 577 280 L556 251 L383 410 C484 442 530 500 530 562 C530 663 438 716 333 716 C195 716 116 641 116 546 C116 489 153 432 238 396 L238 387 Z " />
<glyph glyph-name="quotesingle" unicode="&#x27;" horiz-adv-x="282" d="M60 405 L117 405 L237 715 L60 715 L60 405 Z " />
<glyph glyph-name="parenleft" unicode="&#x28;" horiz-adv-x="325" d="M31 286 C31 120 129 -96 281 -178 L304 -157 C198 -29 187 189 187 284 L187 308 C187 403 198 620 303 748 L280 770 C130 687 31 471 31 305 L31 286 Z " />
<glyph glyph-name="parenright" unicode="&#x29;" horiz-adv-x="325" d="M294 305 C294 471 195 687 45 770 L22 748 C127 620 138 403 138 308 L138 284 C138 189 127 -29 21 -157 L44 -178 C196 -96 294 120 294 286 L294 305 Z " />
<glyph glyph-name="asterisk" unicode="&#x2a;" horiz-adv-x="590" d="M337 445 L525 502 L549 586 L463 623 L317 483 L361 681 L297 742 L230 683 L273 483 L128 624 L42 586 L66 502 L250 445 L66 388 L42 304 L128 265 L273 405 L230 207 L297 148 L361 208 L315 407 L463 267 L549 304 L525 388 L337 445 Z " />
<glyph glyph-name="plus" unicode="&#x2b;" horiz-adv-x="590" d="M49 328 L255 328 L255 112 L335 112 L335 328 L541 328 L541 398 L335 398 L335 613 L255 613 L255 398 L49 398 L49 328 Z " />
<glyph glyph-name="comma" unicode="&#x2c;" horiz-adv-x="310" d="M37 -210 C150 -174 269 -70 269 54 C269 141 199 200 142 200 C100 200 35 138 35 99 C35 95 35 93 37 91 C112 69 140 26 140 -23 C140 -76 108 -135 19 -178 L37 -210 Z " />
<glyph glyph-name="hyphen" unicode="&#x2d;" horiz-adv-x="360" d="M301 241 L301 330 L59 330 L59 241 L301 241 Z " />
<glyph glyph-name="period" unicode="&#x2e;" horiz-adv-x="291" d="M43 87 C43 31 89 -15 146 -15 C202 -15 248 31 248 87 C248 143 202 189 146 189 C89 189 43 143 43 87 L43 87 Z " />
<glyph glyph-name="slash" unicode="&#x2f;" horiz-adv-x="542" d="M521 815 L476 839 L21 -110 L69 -134 L521 815 Z " />
<glyph glyph-name="zero" unicode="0" horiz-adv-x="590" d="M294 712 C148 712 30 543 30 350 C30 157 148 -15 294 -15 C442 -15 559 157 559 350 C559 543 442 712 294 712 L294 712 Z M294 33 C216 33 196 103 196 350 C196 599 216 663 294 663 C372 663 393 599 393 350 C393 103 372 33 294 33 L294 33 Z " />
<glyph glyph-name="one" unicode="1" horiz-adv-x="590" d="M338 704 L97 629 L97 573 C146 584 204 591 220 591 C234 591 231 588 231 328 C231 256 230 102 230 102 C230 75 209 61 179 57 L100 45 L100 -7 L307 0 L524 -7 L524 45 L440 57 C414 61 396 75 395 102 C394 142 393 181 393 233 C393 441 398 704 398 704 L338 704 Z " />
<glyph glyph-name="two" unicode="2" horiz-adv-x="590" d="M46 -1 C68 0 148 0 209 0 C348 0 519 -2 519 -2 L540 141 L200 141 C200 141 298 225 389 299 C476 370 534 441 534 527 C534 654 409 712 293 712 C90 712 47 605 47 564 C47 493 97 452 178 452 L190 452 L213 472 L205 621 C205 653 226 655 252 655 C329 655 366 589 366 501 C366 451 353 399 314 345 C236 238 97 125 46 78 L46 -1 Z " />
<glyph glyph-name="three" unicode="3" horiz-adv-x="590" d="M81 583 C127 611 163 629 223 629 C302 629 347 582 347 527 C347 455 280 400 145 400 L143 334 C143 334 180 336 200 336 C333 336 379 264 379 181 C379 108 334 32 235 32 C205 32 194 36 194 56 L191 188 L167 209 C72 201 38 152 38 105 C38 44 106 -15 253 -15 C399 -15 540 70 540 205 C540 335 422 394 320 395 C418 405 502 465 502 553 C502 647 418 711 303 711 C200 711 110 672 60 624 L81 583 Z " />
<glyph glyph-name="four" unicode="4" horiz-adv-x="590" d="M303 89 C303 58 292 49 257 41 L216 31 L216 -5 L383 0 L553 -5 L553 31 L511 41 C476 49 464 58 464 89 L464 181 L572 181 L572 241 L464 241 L464 412 L297 409 C300 388 303 315 303 259 L303 241 L86 241 C115 296 446 714 446 714 L288 717 C230 625 31 295 11 250 L11 181 L303 181 L303 89 Z " />
<glyph glyph-name="five" unicode="5" horiz-adv-x="590" d="M249 -16 C435 -16 546 106 546 227 C546 411 388 477 231 477 C202 477 157 475 131 472 L135 575 C135 575 338 567 406 567 C466 567 493 571 518 575 L523 709 L87 709 L78 327 C104 333 186 339 215 339 C345 339 410 273 410 177 C410 91 343 31 244 31 C214 31 194 35 194 55 L191 187 L167 208 C74 202 38 151 38 104 C38 43 102 -16 249 -16 L249 -16 Z " />
<glyph glyph-name="six" unicode="6" horiz-adv-x="590" d="M191 231 C191 324 211 407 300 407 C375 407 410 328 410 220 C410 125 393 39 304 39 C208 39 191 148 191 231 L191 231 Z M308 -15 C465 -15 581 98 581 238 C581 389 465 476 350 476 C255 476 204 424 184 396 L175 399 C243 593 431 696 544 734 L507 776 C221 707 17 534 17 286 C17 133 105 -15 308 -15 L308 -15 Z " />
<glyph glyph-name="seven" unicode="7" horiz-adv-x="590" d="M298 -7 C347 233 465 427 567 632 L567 709 L38 709 L38 567 L230 567 C330 567 424 570 462 585 L467 581 C422 517 189 270 103 -18 L298 -7 Z " />
<glyph glyph-name="eight" unicode="8" horiz-adv-x="590" d="M26 171 C26 66 120 -15 289 -15 C485 -15 567 107 567 206 C567 286 533 360 393 413 C480 431 539 492 539 550 C539 656 438 715 308 715 C159 715 44 643 44 521 C44 430 105 370 195 341 C125 335 26 285 26 171 L26 171 Z M429 146 C429 75 359 37 300 37 C196 37 156 104 156 171 C156 226 189 285 244 311 C354 261 429 238 429 146 L429 146 Z M295 667 C369 667 406 618 406 561 C406 517 383 463 344 437 C299 456 258 475 235 497 C210 519 199 544 199 574 C199 629 235 667 295 667 L295 667 Z " />
<glyph glyph-name="nine" unicode="9" horiz-adv-x="590" d="M399 465 C399 372 379 289 290 289 C214 289 180 368 180 476 C180 571 197 657 286 657 C382 657 399 548 399 465 L399 465 Z M282 711 C125 711 9 598 9 458 C9 307 125 220 240 220 C335 220 386 272 406 300 L415 297 C347 103 159 0 46 -38 L83 -80 C369 -11 573 162 573 410 C573 563 485 711 282 711 L282 711 Z " />
<glyph glyph-name="colon" unicode="&#x3a;" horiz-adv-x="326" d="M61 87 C61 31 107 -15 163 -15 C219 -15 265 31 265 87 C265 143 219 189 163 189 C107 189 61 143 61 87 L61 87 Z M61 394 C61 338 107 292 163 292 C219 292 265 338 265 394 C265 451 219 497 163 497 C107 497 61 451 61 394 L61 394 Z " />
<glyph glyph-name="semicolon" unicode="&#x3b;" horiz-adv-x="321" d="M61 394 C61 338 107 292 163 292 C219 292 265 338 265 394 C265 451 219 497 163 497 C107 497 61 451 61 394 L61 394 Z M47 -210 C160 -174 279 -70 279 54 C279 141 209 200 152 200 C110 200 45 138 45 99 C45 95 45 93 47 91 C122 69 150 26 150 -23 C150 -76 118 -135 29 -178 L47 -210 Z " />
<glyph glyph-name="less" unicode="&#x3c;" horiz-adv-x="590" d="M104 347 L104 370 L507 524 L507 592 L45 409 L45 308 L507 125 L507 193 L104 347 Z " />
<glyph glyph-name="equal" unicode="&#x3d;" horiz-adv-x="590" d="M64 299 L64 240 L526 240 L526 299 L64 299 Z M64 476 L64 417 L526 417 L526 476 L64 476 Z " />
<glyph glyph-name="greater" unicode="&#x3e;" horiz-adv-x="590" d="M83 193 L83 125 L545 308 L545 409 L83 592 L83 524 L486 370 L486 347 L83 193 Z " />
<glyph glyph-name="question" unicode="&#x3f;" horiz-adv-x="481" d="M210 673 C258 673 269 626 269 588 C269 499 146 413 146 322 C146 307 173 264 220 246 L247 255 C244 267 237 281 237 296 C237 367 440 414 440 561 C440 662 350 715 235 715 C76 715 34 645 34 596 C34 552 91 515 149 513 L179 530 L176 622 C176 631 175 639 175 647 C175 662 180 673 210 673 L210 673 Z M125 87 C125 31 171 -15 228 -15 C284 -15 330 31 330 87 C330 143 284 189 228 189 C171 189 125 143 125 87 L125 87 Z " />
<glyph glyph-name="at" unicode="&#x40;" horiz-adv-x="1072" d="M644 61 C653 17 693 -18 756 -18 C931 -18 1038 135 1038 299 C1038 548 861 731 575 731 C281 731 43 534 43 236 C43 -56 247 -259 568 -259 C678 -259 829 -225 901 -157 L879 -119 C801 -165 713 -184 639 -184 C334 -184 195 24 195 241 C195 536 398 672 598 672 C815 672 981 525 981 299 C981 189 910 56 828 56 C800 56 788 74 788 100 C788 148 794 280 794 351 C794 465 709 509 608 509 C503 509 388 479 388 394 C388 350 426 315 469 309 L523 331 L523 434 C523 461 549 464 574 464 C641 464 641 421 641 346 L641 282 C534 276 370 246 370 114 C370 36 436 -15 512 -15 C588 -15 632 31 644 61 L644 61 Z M641 242 L640 114 C640 96 616 74 583 74 C532 74 512 111 512 148 C512 214 581 235 641 242 L641 242 Z " />
<glyph glyph-name="A" unicode="A" horiz-adv-x="776" d="M453 281 L518 99 C529 70 513 58 478 51 L426 41 L426 -5 L609 0 L793 -5 L793 41 L746 51 C715 57 707 70 695 99 C561 438 455 726 455 726 L314 707 C314 707 191 377 84 98 C73 69 62 57 31 51 L-16 41 L-16 -5 L83 0 L260 -5 L260 41 L193 51 C158 56 144 70 155 99 C155 99 172 168 215 281 L453 281 Z M437 333 L232 333 L334 620 L437 333 Z " />
<glyph glyph-name="B" unicode="B" horiz-adv-x="746" d="M299 119 C299 119 297 244 297 337 L362 337 C483 337 525 271 525 188 C525 92 460 44 382 44 C328 44 299 62 299 119 L299 119 Z M297 652 C312 653 329 656 347 656 C443 656 494 613 494 528 C494 422 458 387 372 387 C321 387 297 400 297 400 L297 652 Z M38 659 L89 649 C124 642 133 634 136 600 C136 600 139 514 139 349 C139 184 136 99 136 99 C135 69 124 58 89 51 L38 41 L38 -5 L184 0 C213 -2 417 -8 444 -8 C640 -8 693 106 693 190 C693 290 605 360 496 371 L496 378 C607 398 657 459 657 540 C657 645 567 704 455 704 C377 704 184 700 184 700 L38 705 L38 659 Z " />
<glyph glyph-name="C" unicode="C" horiz-adv-x="751" d="M211 375 C211 525 282 662 435 662 C522 662 585 625 614 539 L631 489 L680 489 L701 700 L626 687 C563 704 492 715 425 715 C194 715 44 557 44 347 C44 90 235 -15 422 -15 C504 -15 606 0 694 36 C698 147 703 231 703 231 L651 231 L584 73 C548 64 515 60 484 60 C313 60 211 182 211 375 L211 375 Z " />
<glyph glyph-name="D" unicode="D" horiz-adv-x="859" d="M184 0 C213 -2 391 -8 419 -8 C689 -8 814 150 814 358 C814 544 698 710 455 710 C421 710 277 708 184 700 L38 705 L38 659 L89 649 C124 642 133 634 136 600 C136 600 139 514 139 349 C139 184 136 99 136 99 C135 69 124 58 89 51 L38 41 L38 -5 L184 0 Z M314 656 C337 656 353 655 386 655 C583 655 642 541 642 337 C642 82 522 43 412 43 C317 43 298 49 298 119 L297 640 C297 650 298 656 314 656 L314 656 Z " />
<glyph glyph-name="E" unicode="E" horiz-adv-x="716" d="M297 388 L297 629 C297 639 298 645 314 645 L490 645 C529 645 545 609 563 547 L574 508 L623 508 C633 650 640 711 640 711 C640 711 545 700 489 700 L203 700 L38 705 L38 659 L89 649 C124 642 133 634 136 600 C136 600 139 514 139 349 C139 184 136 99 136 99 C136 69 124 58 89 51 L38 41 L38 -5 L203 0 L461 0 C518 0 656 -5 656 -5 C662 67 679 212 679 212 L632 212 L594 136 C557 64 518 56 470 56 L367 56 C318 56 297 76 297 119 L297 336 C297 336 348 336 404 333 C434 331 446 319 455 282 L468 227 L516 227 L511 359 L516 497 L468 497 L455 442 C447 405 434 393 404 391 C348 388 297 388 297 388 L297 388 Z " />
<glyph glyph-name="F" unicode="F" horiz-adv-x="683" d="M222 0 L406 -5 L406 41 L344 51 C309 57 298 69 298 99 L297 316 C297 316 358 316 413 313 C444 311 455 299 464 262 L477 207 L525 207 L520 339 L525 477 L477 477 L464 422 C456 385 444 373 413 371 C358 368 297 368 297 368 L297 629 C297 639 298 645 314 645 L509 645 C548 645 565 620 581 557 L593 508 L642 508 C652 650 659 711 659 711 C659 711 555 700 498 700 L222 700 L38 705 L38 659 L89 649 C124 642 133 634 136 600 C136 600 139 514 139 349 C139 184 136 99 136 99 C135 69 124 58 89 51 L38 41 L38 -5 L222 0 Z " />
<glyph glyph-name="G" unicode="G" horiz-adv-x="846" d="M585 78 C585 50 539 49 498 49 C273 49 209 233 209 366 C209 548 307 658 474 658 C568 658 636 622 638 613 L670 489 L719 489 L740 703 L664 687 C631 698 563 715 453 715 C246 715 43 589 43 349 C43 200 124 -15 453 -15 C583 -15 748 43 748 43 L748 214 C748 246 760 252 795 263 L827 273 L827 321 L661 316 L478 321 L478 273 L538 263 C574 257 585 250 585 218 L585 78 Z " />
<glyph glyph-name="H" unicode="H" horiz-adv-x="897" d="M297 389 C297 534 300 600 300 600 C303 634 310 642 345 649 L396 659 L396 705 L217 700 L38 705 L38 659 L89 649 C124 642 133 634 136 600 C136 600 139 514 139 349 C139 184 136 99 136 99 C135 69 124 58 89 51 L38 41 L38 -5 L217 0 L396 -5 L396 41 L345 51 C310 58 301 69 300 99 C300 99 297 179 297 335 L599 335 C599 179 596 99 596 99 C596 69 585 58 550 51 L499 41 L499 -5 L677 0 L859 -5 L859 41 L807 51 C772 58 762 69 761 99 C761 99 758 184 758 349 C758 514 761 600 761 600 C764 634 772 642 807 649 L859 659 L859 705 L677 700 L499 705 L499 659 L550 649 C585 642 594 634 596 600 C596 600 599 534 599 389 L297 389 Z " />
<glyph glyph-name="I" unicode="I" horiz-adv-x="436" d="M217 0 L398 -5 L398 41 L347 51 C312 58 301 69 300 99 C300 99 297 184 297 349 C297 514 300 600 300 600 C303 634 312 642 347 649 L398 659 L398 705 L217 700 L38 705 L38 659 L89 649 C124 642 133 634 136 600 C136 600 139 514 139 349 C139 184 136 99 136 99 C135 69 124 58 89 51 L38 41 L38 -5 L217 0 Z " />
<glyph glyph-name="J" unicode="J" horiz-adv-x="424" d="M286 349 C286 514 289 600 289 600 C291 634 299 642 335 649 L386 659 L386 705 L208 700 L32 705 L32 659 L79 649 C114 641 124 632 125 600 C125 600 128 514 128 349 C128 204 125 35 125 35 C124 -87 83 -127 2 -145 L18 -190 C146 -181 269 -142 286 0 L386 0 L386 46 L335 53 C299 58 288 71 287 101 C287 101 286 233 286 349 L286 349 Z " />
<glyph glyph-name="K" unicode="K" horiz-adv-x="798" d="M218 0 L398 -5 L398 41 L347 51 C312 58 301 69 300 99 C300 99 297 179 297 335 L372 335 C372 335 451 219 586 -3 L638 0 L811 -5 L811 41 L782 47 C757 52 740 66 721 94 L492 427 C513 455 553 504 610 563 C665 621 679 641 711 648 L765 659 L765 705 L628 700 L479 705 L479 659 L520 649 C555 641 572 622 548 590 C466 480 395 389 395 389 L297 389 C297 534 300 600 300 600 C303 634 312 642 347 649 L398 659 L398 705 L218 700 L38 705 L38 659 L89 649 C124 642 133 634 136 600 C136 600 139 514 139 349 C139 184 136 99 136 99 C135 69 124 58 89 51 L38 41 L38 -5 L218 0 Z " />
<glyph glyph-name="L" unicode="L" horiz-adv-x="682" d="M301 112 C299 170 297 194 297 359 C297 524 300 600 300 600 C301 634 312 642 347 649 L398 659 L398 705 L218 700 L38 705 L38 659 L89 649 C124 642 135 634 136 600 C136 600 139 524 139 359 C139 194 136 99 136 99 C135 69 124 58 89 51 L38 41 L38 -5 L204 0 L452 0 C508 0 647 -5 647 -5 L670 212 L628 212 L583 126 C546 54 514 56 465 56 L368 56 C319 56 302 69 301 112 L301 112 Z " />
<glyph glyph-name="M" unicode="M" horiz-adv-x="1083" d="M786 99 C786 68 774 58 739 51 L688 41 L688 -5 L849 0 L1047 -5 L1047 41 L996 51 C961 58 950 68 950 99 C950 99 943 415 943 600 C943 632 955 642 990 649 L1041 659 L1041 705 L828 700 L718 705 L718 659 C718 659 647 402 556 175 L424 512 C384 614 355 705 355 705 C355 705 250 700 220 700 L44 705 L44 659 L95 649 C130 642 141 632 141 600 C141 600 143 370 132 99 C131 68 121 58 85 51 L34 41 L34 -5 L167 0 L299 -5 L299 41 L249 51 C214 58 204 68 204 99 C204 233 203 623 203 623 C306 372 381 177 453 -6 L553 -6 L781 624 C781 624 782 439 786 99 L786 99 Z " />
<glyph glyph-name="N" unicode="N" horiz-adv-x="891" d="M141 600 C141 495 133 181 131 99 C130 68 120 58 84 51 L33 41 L33 -5 L162 0 L294 -5 L294 41 L242 51 C207 58 196 68 196 99 C196 233 195 613 195 613 C195 613 399 350 657 -5 L764 -5 C764 346 768 600 768 600 C768 632 779 642 815 649 L866 659 L866 705 L738 700 L606 705 L606 659 L658 649 C693 642 703 632 704 600 L712 178 L389 613 C359 654 342 705 342 705 L189 700 L46 705 L46 659 L95 649 C130 642 141 631 141 600 L141 600 Z " />
<glyph glyph-name="O" unicode="O" horiz-adv-x="837" d="M427 42 C303 42 211 135 211 363 C211 493 245 658 421 658 C545 658 626 563 626 336 C626 206 601 42 427 42 L427 42 Z M418 715 C199 714 43 556 43 343 C43 100 251 -15 410 -15 C628 -15 794 141 794 354 C794 596 607 715 418 715 L418 715 Z " />
<glyph glyph-name="P" unicode="P" horiz-adv-x="676" d="M398 41 L347 51 C312 58 301 69 300 99 C300 99 297 184 297 349 C297 514 299 640 299 640 C299 650 301 656 317 656 L360 656 C445 656 485 601 485 498 C485 401 456 342 382 342 C372 342 354 343 354 343 L354 296 C354 296 380 290 406 290 C586 290 653 410 653 511 C653 660 536 711 444 711 C382 711 240 702 240 702 L38 705 L38 659 L89 649 C124 642 133 634 136 600 C136 600 139 514 139 349 C139 184 136 99 136 99 C135 69 124 58 89 51 L38 41 L38 -5 L224 0 L398 -5 L398 41 Z " />
<glyph glyph-name="Q" unicode="Q" horiz-adv-x="837" d="M371 -13 C415 -35 499 -107 556 -143 C648 -201 757 -246 875 -246 C942 -246 1011 -231 1082 -198 L1087 -149 C1068 -154 1045 -156 1022 -156 C1003 -156 985 -155 969 -151 C928 -141 834 -107 567 15 C703 70 794 196 794 354 C794 596 607 715 418 715 C199 714 43 556 43 343 C43 119 201 -9 371 -13 L371 -13 Z M427 42 C303 42 211 135 211 363 C211 493 245 658 421 658 C545 658 626 563 626 336 C626 206 601 42 427 42 L427 42 Z " />
<glyph glyph-name="R" unicode="R" horiz-adv-x="777" d="M139 349 C139 184 136 99 136 99 C136 69 124 58 89 51 L38 41 L38 -5 L223 0 L399 -5 L399 41 L347 51 C311 58 301 68 300 99 C297 216 297 314 297 314 L382 314 C409 273 480 139 512 91 C535 56 560 23 597 8 C630 -5 676 -8 728 -8 C750 -8 772 -7 795 -7 L806 40 C783 43 762 54 742 71 C703 104 667 151 644 185 L524 359 C611 386 665 454 665 526 C665 675 538 711 455 711 C393 711 239 702 239 702 L38 705 L38 659 L89 649 C124 642 133 634 136 600 C136 600 139 514 139 349 L139 349 Z M361 656 C447 656 499 615 499 515 C499 401 420 365 382 365 C341 365 319 368 297 375 L297 640 C297 650 298 656 314 656 L361 656 Z " />
<glyph glyph-name="S" unicode="S" horiz-adv-x="616" d="M144 114 C111 190 104 231 104 231 L51 226 C57 126 57 39 57 21 C109 6 177 -14 285 -14 C452 -14 569 76 569 209 C569 383 367 411 266 475 C236 494 211 523 211 565 C211 636 282 660 334 660 C407 660 436 643 446 617 C467 561 482 509 481 509 L526 509 C533 591 544 683 544 683 C536 688 416 715 328 715 C148 715 69 610 69 522 C69 421 120 374 187 335 C282 280 421 266 421 158 C421 79 361 41 296 41 C224 41 165 65 144 114 L144 114 Z " />
<glyph glyph-name="T" unicode="T" horiz-adv-x="730" d="M174 700 C92 700 27 711 27 711 C27 711 25 589 17 498 L64 498 L82 557 C101 621 128 640 167 641 L284 644 C284 644 287 514 287 349 C287 184 284 99 284 99 C283 69 272 58 237 51 L186 41 L186 -5 L367 0 L545 -5 L545 41 L495 51 C459 58 449 69 448 99 C448 99 445 184 445 349 C445 514 448 644 448 644 L565 641 C604 640 632 621 650 557 L666 498 L713 498 C706 589 705 711 705 711 C705 711 640 701 558 700 L365 697 L174 700 Z " />
<glyph glyph-name="U" unicode="U" horiz-adv-x="847" d="M275 600 C275 632 287 642 322 649 L372 659 L372 705 L186 700 L19 705 L19 659 L70 649 C105 642 117 632 117 600 L117 240 C117 73 250 -15 425 -15 C606 -15 730 79 730 259 C730 259 732 519 732 600 C732 632 744 642 779 649 L830 659 L830 705 L699 700 L569 705 L569 659 L620 649 C655 642 667 632 667 600 C667 562 669 363 669 258 C669 170 615 56 460 56 C363 56 275 96 275 248 L275 600 Z " />
<glyph glyph-name="V" unicode="V" horiz-adv-x="776" d="M455 -6 C455 -6 530 187 693 602 C704 631 716 643 746 649 L794 659 L794 705 L664 700 L534 705 L534 659 L584 649 C619 642 636 630 625 601 L445 125 C410 219 321 436 267 601 C257 630 273 642 308 649 L360 659 L360 705 L167 700 L-15 705 L-15 659 L32 649 C61 643 71 630 82 601 C204 283 328 -16 328 -16 L455 -6 Z " />
<glyph glyph-name="W" unicode="W" horiz-adv-x="1158" d="M859 -6 C859 -6 923 184 1078 602 C1089 631 1102 643 1131 649 L1179 659 L1179 705 L1079 700 L920 705 L920 659 L972 649 C1007 642 1023 630 1013 601 L856 133 C821 235 738 451 708 551 C685 623 711 640 744 647 L800 659 L800 705 L597 701 L422 705 L422 659 L469 649 C499 643 509 631 519 601 L554 493 L411 132 C381 230 314 441 262 601 C252 630 269 642 304 649 L355 659 L355 705 L163 700 L-12 705 L-12 659 L36 649 C65 643 76 630 86 601 C169 359 295 -16 295 -16 L414 -6 C414 -6 519 265 582 420 C619 318 743 -16 743 -16 L859 -6 Z " />
<glyph glyph-name="X" unicode="X" horiz-adv-x="753" d="M134 594 C134 594 213 484 299 355 C211 220 107 95 107 95 C90 76 78 57 48 51 L1 41 L1 -5 L130 0 L273 -5 L273 41 L214 51 C182 57 175 74 190 98 C265 222 329 311 329 311 C329 311 402 197 465 98 C482 72 474 56 445 51 L394 41 L394 -5 L584 0 L760 -5 L760 41 L714 51 C685 57 667 76 653 95 C604 162 457 383 457 383 C488 426 621 601 621 601 C637 621 655 643 685 649 L732 659 L732 705 L613 700 L471 700 L471 659 L522 649 C541 645 548 636 548 624 C548 614 543 603 536 591 C536 591 489 514 427 421 C365 515 324 591 324 591 C309 615 308 644 339 649 L397 659 L397 705 L214 700 L10 705 L10 659 L58 649 C87 643 113 624 134 594 L134 594 Z " />
<glyph glyph-name="Y" unicode="Y" horiz-adv-x="718" d="M545 41 L494 51 C458 58 450 68 449 99 C448 131 447 184 447 223 L447 272 C447 272 519 411 629 602 C645 629 656 643 685 649 L730 659 L730 705 L630 700 L467 705 L467 659 L518 649 C553 642 568 625 554 598 C502 495 453 398 425 348 C425 348 369 445 281 600 C267 625 280 642 315 649 L368 659 L368 705 L165 700 L-19 705 L-19 659 L23 649 C54 642 65 627 81 601 C180 439 284 267 284 267 L284 223 C284 184 284 131 282 99 C280 68 273 58 237 51 L187 41 L187 -5 L380 0 L545 -5 L545 41 Z " />
<glyph glyph-name="Z" unicode="Z" horiz-adv-x="712" d="M455 644 C194 257 39 38 39 38 L39 -4 L159 0 L463 0 C520 0 649 -5 649 -5 L681 212 L639 212 L595 126 C559 56 524 56 476 56 L255 56 C241 56 241 66 245 72 C411 317 649 661 649 661 L649 704 C649 704 470 700 188 700 C132 699 46 711 46 711 L54 508 L98 508 L110 557 C125 620 143 644 182 644 L455 644 Z " />
<glyph glyph-name="bracketleft" unicode="&#x5b;" horiz-adv-x="352" d="M252 292 C252 506 173 700 170 712 L336 712 L336 757 L84 757 L84 -170 L336 -170 L336 -126 L170 -126 C173 -114 252 78 252 292 L252 292 Z " />
<glyph glyph-name="backslash" unicode="&#x5c;" horiz-adv-x="542" d="M473 -134 L521 -110 L66 839 L21 815 L473 -134 Z " />
<glyph glyph-name="bracketright" unicode="&#x5d;" horiz-adv-x="352" d="M100 292 C100 78 179 -114 182 -126 L16 -126 L16 -170 L268 -170 L268 757 L16 757 L16 712 L182 712 C179 700 100 506 100 292 L100 292 Z " />
<glyph glyph-name="asciicircum" unicode="&#x5e;" horiz-adv-x="577" d="M445 227 L507 227 L328 700 L248 700 L69 227 L131 227 L288 649 L445 227 Z " />
<glyph glyph-name="underscore" unicode="&#x5f;" horiz-adv-x="621" d="M481 -191 L481 -111 L140 -111 L140 -191 L481 -191 Z " />
<glyph glyph-name="grave" unicode="&#x60;" horiz-adv-x="420" d="M278 756 L88 756 L283 567 L332 573 L278 756 Z " />
<glyph glyph-name="a" unicode="a" horiz-adv-x="533" d="M302 242 L301 114 C301 96 277 74 244 74 C193 74 173 111 173 148 C173 214 242 235 302 242 L302 242 Z M49 394 C49 350 87 315 130 309 L184 331 L184 434 C184 461 210 464 235 464 C302 464 302 421 302 346 L302 282 C195 276 31 246 31 114 C31 36 97 -15 173 -15 C249 -15 293 31 305 61 C315 16 352 -15 410 -15 C457 -15 513 7 529 43 L519 76 C514 70 497 63 484 63 C463 63 448 80 448 106 C448 153 455 280 455 351 C455 465 370 509 269 509 C164 509 49 479 49 394 L49 394 Z " />
<glyph glyph-name="b" unicode="b" horiz-adv-x="598" d="M94 -9 C94 -9 128 15 159 26 C191 10 248 -13 308 -13 C448 -13 565 96 565 261 C565 432 460 509 358 509 C299 509 239 489 207 430 L198 432 C198 432 214 493 214 556 L214 755 L179 755 L-5 720 L-5 696 L34 681 C58 672 66 647 66 579 L66 162 C66 72 62 1 62 1 L94 -9 Z M216 349 C216 391 229 428 284 428 C362 428 414 369 414 241 C414 99 363 37 285 37 C247 37 216 49 216 94 L216 349 Z " />
<glyph glyph-name="c" unicode="c" horiz-adv-x="494" d="M187 266 C187 416 228 462 280 462 C322 462 323 451 323 410 C323 375 321 328 321 328 L367 315 C400 320 462 335 462 401 C462 440 427 509 283 509 C147 509 32 396 32 249 C32 64 162 -15 265 -15 C348 -15 430 13 477 96 L449 127 C432 102 390 76 336 76 C255 76 187 134 187 266 L187 266 Z " />
<glyph glyph-name="d" unicode="d" horiz-adv-x="618" d="M381 483 C347 501 309 509 269 509 C133 509 33 391 33 244 C33 81 122 -15 228 -15 C286 -15 347 3 381 65 L388 64 L384 -8 L420 -8 L606 16 L606 54 C578 55 538 56 534 85 C531 107 530 147 530 185 L530 755 L494 755 L313 720 L313 696 L352 681 C378 671 381 648 381 579 L381 483 Z M311 87 C233 87 188 156 188 260 C188 350 204 462 309 462 C371 462 381 425 381 348 L381 161 C381 119 378 87 311 87 L311 87 Z " />
<glyph glyph-name="e" unicode="e" horiz-adv-x="524" d="M33 249 C33 64 145 -15 264 -15 C347 -15 435 13 482 96 L454 127 C435 99 386 75 333 75 C257 75 188 142 188 266 L188 283 L493 281 L493 311 C493 433 411 509 279 509 C138 509 33 384 33 249 L33 249 Z M336 329 L191 326 C197 409 214 464 273 464 C328 464 338 412 336 329 L336 329 Z " />
<glyph glyph-name="f" unicode="f" horiz-adv-x="383" d="M106 89 C106 58 94 50 59 41 L30 34 L30 -5 L171 0 L348 -5 L348 34 L297 44 C262 51 255 64 255 95 L255 432 L359 415 L367 491 L255 484 C255 558 255 614 265 650 C275 685 294 697 313 697 C361 697 396 614 407 614 C458 614 511 659 511 715 C511 764 424 771 386 771 C251 771 106 688 106 484 L25 484 L25 427 L106 427 L106 89 Z " />
<glyph glyph-name="g" unicode="g" horiz-adv-x="604" d="M597 386 L597 507 L422 474 C388 497 321 509 277 509 C132 509 52 431 52 332 C52 264 89 214 136 188 C89 154 47 108 47 71 C47 20 78 -9 126 -20 L126 -29 C76 -44 25 -74 25 -133 C25 -247 178 -259 256 -259 C473 -259 557 -156 557 -63 C557 21 511 72 421 81 C271 97 216 102 195 105 C166 109 155 116 155 133 C155 143 165 158 172 170 C198 161 231 152 285 152 C417 152 512 222 512 326 C512 362 500 396 481 422 L576 378 L597 386 Z M147 -109 C147 -66 163 -46 175 -37 C209 -38 291 -42 354 -52 C403 -60 421 -78 421 -115 C421 -195 359 -216 293 -216 C204 -216 147 -183 147 -109 L147 -109 Z M286 201 C234 201 204 240 204 342 C204 398 209 467 284 467 C334 467 359 422 359 329 C359 272 355 201 286 201 L286 201 Z " />
<glyph glyph-name="h" unicode="h" horiz-adv-x="628" d="M236 308 C236 377 244 427 316 427 C392 427 398 342 398 277 L398 198 C398 81 395 56 351 41 L331 34 L331 -5 L476 0 L621 -5 L621 34 L592 41 C558 49 547 58 547 89 C547 89 548 252 548 337 C548 445 486 509 384 509 C301 509 249 455 232 423 L224 425 C224 425 236 458 236 554 L236 755 L200 755 L20 720 L20 696 L60 681 C84 671 87 648 87 579 L87 89 C87 58 73 53 40 41 L20 34 L20 -5 L166 0 L298 -5 L298 34 L269 41 C237 49 236 59 236 89 L236 308 Z " />
<glyph glyph-name="i" unicode="i" horiz-adv-x="337" d="M98 89 C98 58 86 50 51 41 L22 34 L22 -5 L173 0 L322 -5 L322 34 L292 41 C257 49 247 58 247 89 L247 345 C247 442 249 515 249 515 L205 515 L28 448 L28 424 L67 409 C93 399 98 376 98 307 L98 89 Z M74 682 C74 628 117 585 171 585 C225 585 268 628 268 682 C268 736 225 779 171 779 C117 779 74 736 74 682 L74 682 Z " />
<glyph glyph-name="j" unicode="j" horiz-adv-x="325" d="M234 345 C234 442 236 515 236 515 L193 515 L16 448 L16 424 L55 409 C80 399 85 376 85 307 L85 -65 C85 -149 64 -192 -6 -216 L10 -251 C156 -269 233 -199 233 -83 L233 0 L309 0 L309 39 L281 46 C246 55 234 64 234 95 L234 345 Z M61 682 C61 628 104 585 158 585 C212 585 255 628 255 682 C255 736 212 779 158 779 C104 779 61 736 61 682 L61 682 Z " />
<glyph glyph-name="k" unicode="k" horiz-adv-x="613" d="M239 488 C239 607 242 755 242 755 L206 755 L23 720 L23 696 L62 681 C87 671 90 648 90 579 L90 89 C90 58 79 50 44 41 L15 34 L15 -5 L132 0 L314 -5 L314 34 L286 41 C250 50 239 58 239 89 L239 253 L281 253 C281 253 374 59 403 -2 L428 0 L611 -1 L611 38 L580 47 C552 55 541 62 528 88 L404 327 L484 402 C506 423 536 441 571 451 L597 458 L597 497 L472 492 L339 497 L339 453 L386 448 C412 445 420 422 400 400 L306 302 L239 302 L239 488 Z " />
<glyph glyph-name="l" unicode="l" horiz-adv-x="332" d="M241 451 C241 590 244 755 244 755 L208 755 L24 720 L24 696 L63 681 C88 671 91 648 91 579 L91 89 C91 58 80 49 45 41 L15 34 L15 -5 L166 0 L320 -5 L320 34 L287 41 C251 49 241 58 241 89 L241 451 Z " />
<glyph glyph-name="m" unicode="m" horiz-adv-x="947" d="M554 89 C554 89 555 235 555 322 C555 409 580 427 630 427 C713 427 717 343 717 277 L717 198 C717 81 712 61 670 41 L655 34 L655 -5 L795 0 L940 -5 L940 34 L911 41 C877 49 866 58 866 89 C866 89 867 252 867 337 C867 445 805 509 703 509 C620 509 568 455 551 423 L542 424 C522 477 472 509 400 509 C308 509 256 455 239 423 L231 425 L233 515 L204 515 L26 448 L26 424 L65 409 C91 399 94 386 94 317 L94 89 C94 58 80 53 47 41 L27 34 L27 -5 L168 0 L305 -5 L305 34 L276 41 C244 49 243 59 243 89 L243 308 C243 407 266 427 318 427 C401 427 405 343 405 277 L405 198 C405 81 402 56 358 41 L338 34 L338 -5 L483 0 L622 -5 L622 34 L599 41 C566 51 554 58 554 89 L554 89 Z " />
<glyph glyph-name="n" unicode="n" horiz-adv-x="635" d="M554 89 C554 89 555 252 555 337 C555 445 493 509 391 509 C308 509 256 455 239 423 L231 425 L233 515 L204 515 L26 448 L26 424 L65 409 C91 399 94 386 94 317 L94 89 C94 58 80 53 47 41 L27 34 L27 -5 L173 0 L305 -5 L305 34 L276 41 C244 49 243 59 243 89 L243 308 C243 377 251 427 323 427 C399 427 405 342 405 277 L405 198 C405 81 402 56 358 41 L338 34 L338 -5 L483 0 L628 -5 L628 34 L599 41 C565 49 554 58 554 89 L554 89 Z " />
<glyph glyph-name="o" unicode="o" horiz-adv-x="591" d="M290 -15 C451 -15 558 98 558 253 C558 442 413 509 302 509 C134 509 32 391 32 244 C32 74 159 -15 290 -15 L290 -15 Z M297 32 C230 32 189 103 189 257 C189 345 199 462 292 462 C355 462 401 390 401 239 C401 151 393 32 297 32 L297 32 Z " />
<glyph glyph-name="p" unicode="p" horiz-adv-x="615" d="M375 509 C316 509 256 489 224 430 L215 432 L220 515 L194 515 L17 448 L17 424 L56 409 C81 399 84 376 84 307 L84 -154 C84 -185 74 -194 40 -202 L11 -209 L11 -253 L165 -248 L325 -253 L325 -209 L282 -202 C247 -196 235 -185 235 -154 L235 -118 C235 -63 231 -22 221 9 C245 -2 282 -13 325 -13 C465 -13 582 96 582 261 C582 432 477 509 375 509 L375 509 Z M233 349 C233 391 246 428 301 428 C379 428 431 369 431 241 C431 99 380 37 302 37 C264 37 233 49 233 94 L233 349 Z " />
<glyph glyph-name="q" unicode="q" horiz-adv-x="602" d="M311 87 C233 87 188 156 188 260 C188 350 206 462 311 462 C373 462 381 425 381 348 L381 161 C381 119 378 87 311 87 L311 87 Z M383 -154 C383 -185 371 -196 336 -202 L293 -209 L293 -253 L453 -248 L605 -253 L605 -209 L576 -202 C542 -194 532 -185 532 -154 L532 281 C532 415 541 504 541 504 L517 509 C459 509 423 486 408 463 C371 494 322 509 269 509 C133 509 33 391 33 244 C33 81 123 -15 229 -15 C300 -15 351 13 382 65 L391 63 C383 22 383 -14 383 -77 L383 -154 Z " />
<glyph glyph-name="r" unicode="r" horiz-adv-x="462" d="M228 403 L233 515 L204 515 L26 448 L26 424 L65 409 C91 399 94 376 94 307 L94 89 C94 58 80 53 47 41 L27 34 L27 -5 L172 0 L332 -5 L332 34 L289 41 C254 47 243 58 243 89 L243 361 L292 380 C330 373 384 334 384 334 L396 334 C436 356 457 388 457 424 C457 468 432 505 372 505 C316 505 264 443 236 401 L228 403 Z " />
<glyph glyph-name="s" unicode="s" horiz-adv-x="463" d="M45 168 L45 13 C45 13 126 -15 220 -15 C348 -15 429 42 429 149 C429 260 325 288 252 324 C214 343 183 362 183 399 C183 440 215 462 261 462 C290 462 318 448 323 430 L348 349 L400 349 L410 491 C372 500 290 509 240 509 C143 509 43 464 43 356 C43 285 87 246 138 219 C210 182 296 167 296 101 C296 53 259 32 218 32 C176 32 144 51 127 89 C111 125 98 168 98 168 L45 168 Z " />
<glyph glyph-name="t" unicode="t" horiz-adv-x="408" d="M183 631 C159 536 128 490 3 482 L3 427 L89 427 L89 121 C89 35 150 -15 243 -15 C302 -15 374 13 402 62 L386 98 C372 83 335 66 310 66 C259 66 238 100 238 150 L238 427 L381 412 L387 484 L238 484 L238 631 L183 631 Z " />
<glyph glyph-name="u" unicode="u" horiz-adv-x="624" d="M533 185 C533 365 538 499 538 499 L426 492 L314 488 L314 449 L343 443 C379 436 384 419 384 388 L384 145 C384 95 347 77 316 77 C263 77 228 102 228 190 C228 246 227 435 233 499 L121 491 L19 488 L19 449 L39 443 C73 433 79 419 79 388 C79 388 78 241 78 156 C78 48 135 -15 236 -15 C315 -15 365 40 381 66 L390 65 L387 -8 L423 -8 L609 16 L609 54 C581 55 541 56 537 85 C534 107 533 147 533 185 L533 185 Z " />
<glyph glyph-name="v" unicode="v" horiz-adv-x="555" d="M494 401 C506 430 512 439 545 451 L565 458 L565 497 L466 492 L372 497 L372 458 L395 451 C430 441 448 432 438 403 C414 333 347 157 332 120 L223 403 C212 431 226 443 260 451 L294 458 L294 497 L153 492 L-10 497 L-10 458 L10 451 C38 441 43 431 56 403 C129 240 228 -6 228 -6 L325 -6 C325 -6 410 202 494 401 L494 401 Z " />
<glyph glyph-name="w" unicode="w" horiz-adv-x="794" d="M480 486 L387 486 C365 418 309 269 278 183 L216 403 C208 432 219 443 253 451 L287 458 L287 497 L149 492 L-7 497 L-7 458 L13 451 C41 441 48 431 59 403 C110 264 183 -6 183 -6 L258 -6 C257 -6 326 186 385 348 C414 281 532 -6 532 -6 L603 -6 C603 -6 677 253 731 401 C742 431 749 439 783 451 L802 458 L802 497 L704 492 L602 497 L602 458 L628 451 C663 441 677 433 670 403 C655 336 629 237 612 173 L480 486 Z " />
<glyph glyph-name="x" unicode="x" horiz-adv-x="573" d="M111 403 L217 239 C147 144 101 82 101 82 C86 62 61 48 25 40 L-3 34 L-3 -5 L92 0 L223 -5 L223 34 L199 39 C169 45 154 56 169 77 C169 77 217 159 245 196 L308 91 C321 71 331 47 308 42 L270 34 L270 -5 L424 0 L569 -5 L569 35 L542 41 C506 49 490 62 471 89 L360 270 C420 343 465 403 465 403 C486 427 508 439 542 451 L562 458 L562 497 L469 492 L357 497 L357 458 L388 454 C416 450 417 432 402 407 C402 407 361 343 336 307 L279 403 C264 426 258 444 289 451 L323 458 L323 497 L169 492 L21 497 L21 458 L41 451 C76 439 91 430 111 403 L111 403 Z " />
<glyph glyph-name="y" unicode="y" horiz-adv-x="559" d="M105 -263 L220 -273 L497 398 C509 427 516 439 549 451 L569 458 L569 497 L470 492 L369 497 L369 458 L393 451 C427 441 445 431 435 403 C376 241 329 120 329 120 L232 401 C222 430 233 443 267 451 L296 458 L296 497 L142 492 L-9 497 L-9 458 L11 451 C39 441 44 438 58 403 C117 258 211 -6 210 -6 L270 -6 L105 -263 Z " />
<glyph glyph-name="z" unicode="z" horiz-adv-x="540" d="M175 0 C260 0 466 -3 491 -5 L508 178 L464 178 C433 64 408 48 359 48 L207 48 L506 464 L501 499 L134 499 C95 499 49 502 49 502 L49 335 L92 333 L102 364 C120 424 127 450 210 450 L321 450 L22 39 L22 -3 C38 -2 114 0 175 0 L175 0 Z " />
<glyph glyph-name="braceleft" unicode="&#x7b;" horiz-adv-x="381" d="M161 302 C251 331 285 402 285 457 L285 548 C285 576 283 604 283 629 C283 682 291 722 344 722 L351 722 L343 768 C169 768 119 715 119 610 C119 568 140 450 140 388 C140 353 138 338 117 322 C81 340 55 347 47 347 C22 347 5 328 5 303 C5 278 22 259 47 259 C55 259 82 266 118 284 C139 268 140 253 140 218 C140 155 119 38 119 -4 C119 -109 169 -162 343 -162 L351 -116 L344 -116 C291 -116 283 -76 283 -24 C283 2 285 30 285 58 L285 149 C285 203 252 277 161 302 L161 302 Z " />
<glyph glyph-name="bar" unicode="&#x7c;" horiz-adv-x="226" d="M82 813 L82 -197 L144 -197 L144 813 L82 813 Z " />
<glyph glyph-name="braceright" unicode="&#x7d;" horiz-adv-x="380" d="M220 302 C129 277 96 203 96 149 L96 58 C96 30 98 2 98 -24 C98 -76 90 -116 37 -116 L30 -116 L38 -162 C212 -162 262 -109 262 -4 C262 38 241 155 241 218 C241 253 242 268 263 284 C299 266 326 259 334 259 C359 259 376 278 376 303 C376 328 359 347 334 347 C326 347 300 340 264 322 C243 338 241 353 241 388 C241 450 262 568 262 610 C262 715 212 768 38 768 L30 722 L37 722 C90 722 98 682 98 629 C98 604 96 576 96 548 L96 457 C96 402 130 331 220 302 L220 302 Z " />
<glyph glyph-name="asciitilde" unicode="&#x7e;" horiz-adv-x="590" d="M189 328 C260 328 326 284 408 284 C469 284 528 336 528 423 L480 423 C468 385 448 369 411 369 C337 369 278 413 192 413 C131 413 72 361 72 274 L120 274 C132 312 152 328 189 328 L189 328 Z " />
<glyph glyph-name="exclamdown" unicode="&#xa1;" horiz-adv-x="353" d="M177 -221 C247 -221 288 -171 288 -110 C288 18 212 52 203 251 L150 251 C141 52 65 18 65 -110 C65 -171 107 -221 177 -221 L177 -221 Z M282 407 C282 463 236 509 179 509 C123 509 77 463 77 407 C77 351 123 305 179 305 C236 305 282 351 282 407 L282 407 Z " />
<glyph glyph-name="cent" unicode="&#xa2;" horiz-adv-x="590" d="M103 -129 L143 -144 L215 5 C245 -8 276 -15 306 -15 C389 -15 471 13 518 96 L490 127 C473 102 431 76 377 76 C336 76 298 90 271 122 L369 326 L408 315 C441 320 503 335 503 401 C503 425 489 460 445 484 L508 613 L468 629 L405 499 C383 505 356 509 324 509 C188 509 73 396 73 249 C73 139 119 67 177 26 L103 -129 Z M228 266 C228 416 269 462 321 462 C361 462 364 451 364 413 L245 166 C234 193 228 226 228 266 L228 266 Z " />
<glyph glyph-name="sterling" unicode="&#xa3;" horiz-adv-x="590" d="M303 458 C303 532 303 588 313 624 C324 659 343 671 365 671 C415 671 451 578 463 578 C500 578 562 642 562 698 C562 732 481 745 440 745 C298 745 145 663 145 459 L145 424 L15 424 L15 375 L143 375 L143 274 L15 274 L15 225 L142 225 C141 175 142 118 136 96 C130 97 104 99 97 99 C0 99 0 -15 82 -15 C104 -15 143 -9 160 48 C235 32 336 -44 419 -44 C528 -44 573 54 588 96 L564 122 C495 52 390 117 303 117 C289 117 231 113 193 94 C253 128 285 188 292 225 L476 225 L476 274 L298 274 C301 307 304 331 304 375 L476 375 L476 424 L303 424 L303 458 Z " />
<glyph glyph-name="currency" unicode="&#xa4;" horiz-adv-x="590" d="M130 359 C130 455 199 531 294 531 C390 531 459 455 459 359 C459 263 390 187 294 187 C199 187 130 263 130 359 L130 359 Z M519 359 C519 409 503 457 472 495 L550 573 L510 615 L432 536 C394 566 346 583 295 583 C243 583 195 566 157 536 L79 615 L39 573 L117 495 C86 457 70 409 70 359 C70 309 86 261 117 222 L39 145 L79 103 L157 182 C195 152 243 135 295 135 C346 135 394 152 432 182 L510 103 L550 145 L472 222 C503 261 519 309 519 359 L519 359 Z " />
<glyph glyph-name="yen" unicode="&#xa5;" horiz-adv-x="590" d="M25 274 L25 225 L218 225 L218 99 C218 68 208 58 174 51 L127 41 L127 -5 L299 0 L472 -5 L472 41 L424 51 C391 58 380 68 380 99 L380 225 L567 225 L567 274 L381 274 L429 375 L567 375 L567 424 L453 424 L552 602 C567 628 577 642 605 649 L627 654 L627 705 L523 700 L393 705 L393 659 L439 649 C473 642 487 626 474 598 L350 333 L213 601 C199 628 215 642 248 649 L297 659 L297 705 L109 700 L-39 705 L-39 653 L-19 649 C9 643 23 627 37 601 L137 424 L25 424 L25 375 L161 375 L215 274 L25 274 Z " />
<glyph glyph-name="brokenbar" unicode="&#xa6;" horiz-adv-x="232" d="M147 358 L147 813 L85 813 L85 358 L147 358 Z M85 253 L85 -197 L147 -197 L147 253 L85 253 Z " />
<glyph glyph-name="section" unicode="&#xa7;" horiz-adv-x="590" d="M575 677 C574 731 514 870 315 870 C160 870 14 767 14 568 C14 358 208 143 281 60 L323 78 C269 153 180 369 180 564 C180 713 269 779 357 779 C426 779 498 735 522 658 L575 677 Z M14 2 C15 -52 75 -191 274 -191 C429 -191 575 -88 575 111 C575 321 381 536 308 619 L266 601 C320 526 409 306 409 111 C409 -38 320 -100 232 -100 C163 -100 91 -56 67 21 L14 2 Z " />
<glyph glyph-name="dieresis" unicode="&#xa8;" horiz-adv-x="420" d="M26 643 C26 596 62 560 108 560 C157 560 192 596 192 643 C192 690 157 726 108 726 C62 726 26 690 26 643 L26 643 Z M229 643 C229 596 264 560 311 560 C357 560 394 596 394 643 C394 690 357 726 311 726 C264 726 229 690 229 643 L229 643 Z " />
<glyph glyph-name="copyright" unicode="&#xa9;" horiz-adv-x="944" d="M43 352 C43 112 230 -74 471 -74 C713 -74 901 112 901 352 C901 592 713 779 471 779 C230 779 43 592 43 352 L43 352 Z M116 352 C116 557 272 713 471 713 C671 713 828 557 828 352 C828 147 671 -8 471 -8 C272 -8 116 147 116 352 L116 352 Z M344 360 C344 490 410 561 493 561 C536 561 556 556 556 514 L556 454 L580 434 C624 439 661 467 661 512 C661 545 621 608 493 608 C340 608 237 493 237 343 C237 170 349 94 469 94 C542 94 627 118 678 211 L651 249 C651 249 614 167 512 167 C423 167 344 217 344 360 L344 360 Z " />
<glyph glyph-name="ordfeminine" unicode="&#xaa;" horiz-adv-x="444" d="M157 331 C209 331 245 363 255 383 C265 347 296 331 333 331 C371 331 406 353 420 377 L409 400 C394 390 378 387 370 387 C356 387 341 395 343 433 C343 433 346 562 346 591 C346 671 296 714 210 714 C111 714 53 674 53 633 C53 599 81 578 122 572 L147 588 L147 652 C147 670 168 674 178 674 C203 674 225 670 237 653 C247 639 249 618 249 576 L249 553 C130 541 46 502 46 429 C46 378 81 331 157 331 L157 331 Z M195 392 C167 392 141 410 141 444 C141 479 163 510 249 523 L249 449 C249 412 230 392 195 392 L195 392 Z " />
<glyph glyph-name="guillemotleft" unicode="&#xab;" horiz-adv-x="575" d="M213 361 L305 637 L273 637 L35 355 L273 73 L305 73 L213 349 L213 361 Z M428 361 L520 637 L488 637 L250 355 L488 73 L520 73 L428 349 L428 361 Z " />
<glyph glyph-name="logicalnot" unicode="&#xac;" horiz-adv-x="590" d="M466 240 L526 240 L526 476 L64 476 L64 417 L466 417 L466 240 Z " />
<glyph glyph-name="uni00AD" unicode="&#xad;" horiz-adv-x="360" d="" />
<glyph glyph-name="registered" unicode="&#xae;" horiz-adv-x="944" d="M43 352 C43 112 230 -74 471 -74 C713 -74 901 112 901 352 C901 592 713 779 471 779 C230 779 43 592 43 352 L43 352 Z M315 348 C315 253 313 188 313 171 C313 156 302 147 283 143 L242 135 L242 102 L365 105 L483 102 L483 135 L443 143 C423 147 415 155 414 171 C412 250 408 321 408 321 C429 321 446 319 467 319 C478 304 497 269 554 183 C588 132 627 93 722 93 C659 30 570 -8 471 -8 C272 -8 116 147 116 352 C116 557 272 713 471 713 C671 713 828 557 828 352 C828 267 802 192 757 132 C737 135 714 145 699 157 C679 176 654 206 634 236 L562 341 C620 368 657 414 657 468 C657 574 570 599 508 599 C467 599 412 594 404 593 L242 595 L242 562 L283 554 C301 550 311 543 313 525 C313 525 315 460 315 348 L315 348 Z M449 558 C508 558 556 526 556 461 C556 387 509 358 484 358 C447 358 427 360 411 363 L411 553 C411 556 412 558 418 558 L449 558 Z " />
<glyph glyph-name="macron" unicode="&#xaf;" horiz-adv-x="535" d="M427 579 L427 655 L108 655 L108 579 L427 579 Z " />
<glyph glyph-name="degree" unicode="&#xb0;" horiz-adv-x="429" d="M214 718 C116 718 36 645 36 539 C36 432 116 359 214 359 C312 359 393 432 393 539 C393 645 312 718 214 718 L214 718 Z M214 420 C151 420 104 472 104 539 C104 605 151 657 214 657 C278 657 325 605 325 539 C325 472 278 420 214 420 L214 420 Z " />
<glyph glyph-name="plusminus" unicode="&#xb1;" horiz-adv-x="590" d="M49 328 L255 328 L255 112 L335 112 L335 328 L541 328 L541 398 L335 398 L335 613 L255 613 L255 398 L49 398 L49 328 Z M49 0 L541 0 L541 70 L49 70 L49 0 Z " />
<glyph glyph-name="twosuperior" unicode="&#xb2;" horiz-adv-x="375" d="M31 305 L153 305 C240 305 331 304 331 304 L340 392 L134 388 C138 391 183 429 247 476 C313 525 339 553 339 610 C339 680 268 720 189 720 C88 720 31 677 31 631 C31 598 67 570 108 569 L134 589 L134 662 C134 673 150 676 158 676 C208 676 234 636 234 595 C234 566 231 538 179 484 C135 439 31 353 31 353 L31 305 Z " />
<glyph glyph-name="threesuperior" unicode="&#xb3;" horiz-adv-x="375" d="M53 634 C77 650 111 665 148 665 C181 665 219 650 219 607 C219 542 139 541 97 540 L101 493 C101 493 123 495 152 495 C213 495 242 456 242 416 C242 377 215 338 160 338 C151 338 131 339 131 342 L131 414 L104 430 C64 430 27 400 27 369 C27 328 66 297 155 297 C247 297 338 345 338 435 C338 492 296 528 237 535 L237 539 C300 555 318 591 318 623 C318 697 246 720 184 720 C124 720 64 695 34 666 L53 634 Z " />
<glyph glyph-name="acute" unicode="&#xb4;" horiz-adv-x="420" d="M98 573 L147 567 L342 756 L152 756 L98 573 Z " />
<glyph glyph-name="&amp;#xb5;" unicode="&#xb5;" horiz-adv-x="624" d="M533 185 C533 365 538 499 538 499 C538 499 470 492 426 492 L314 488 L314 449 L343 443 C379 436 384 419 384 388 L384 145 C384 95 347 77 316 77 C263 77 228 102 228 190 C228 246 227 435 233 499 C233 499 138 491 121 491 L19 488 L19 449 L39 443 C73 433 79 419 79 388 C79 388 78 241 78 156 L78 148 C76 1 65 -156 52 -248 L155 -248 L149 23 C168 -3 213 -15 246 -15 C325 -15 365 40 381 66 L390 65 L387 -8 L423 -8 L609 16 L609 54 C581 55 541 56 537 85 C534 107 533 147 533 185 L533 185 Z " />
<glyph glyph-name="&amp;#x3bc;" unicode="&#x3bc;" horiz-adv-x="624" d="M533 185 C533 365 538 499 538 499 C538 499 470 492 426 492 L314 488 L314 449 L343 443 C379 436 384 419 384 388 L384 145 C384 95 347 77 316 77 C263 77 228 102 228 190 C228 246 227 435 233 499 C233 499 138 491 121 491 L19 488 L19 449 L39 443 C73 433 79 419 79 388 C79 388 78 241 78 156 L78 148 C76 1 65 -156 52 -248 L155 -248 L149 23 C168 -3 213 -15 246 -15 C325 -15 365 40 381 66 L390 65 L387 -8 L423 -8 L609 16 L609 54 C581 55 541 56 537 85 C534 107 533 147 533 185 L533 185 Z " />
<glyph glyph-name="paragraph" unicode="&#xb6;" horiz-adv-x="724" d="M90 -124 C90 -217 165 -257 232 -257 C354 -257 396 -171 396 -76 L396 608 C396 636 410 647 440 647 L564 647 L564 -197 L619 -197 L619 700 L284 700 C153 700 34 600 34 455 C34 319 105 197 297 197 L339 197 L339 -71 C339 -166 301 -202 242 -202 L241 -193 C269 -182 287 -146 287 -115 C287 -61 246 -21 190 -21 C136 -21 90 -68 90 -124 L90 -124 Z " />
<glyph glyph-name="periodcentered" unicode="&#xb7;" horiz-adv-x="269" d="M47 364 C47 316 87 277 135 277 C182 277 222 316 222 364 C222 411 182 451 135 451 C87 451 47 411 47 364 L47 364 Z " />
<glyph glyph-name="cedilla" unicode="&#xb8;" horiz-adv-x="420" d="M228 28 L93 -81 C124 -89 211 -116 211 -183 C211 -225 179 -243 137 -243 C109 -243 98 -236 80 -228 L73 -264 C101 -281 144 -292 189 -292 C266 -292 346 -259 346 -171 C346 -74 242 -56 196 -55 L261 20 L228 28 Z " />
<glyph glyph-name="onesuperior" unicode="&#xb9;" horiz-adv-x="375" d="M263 357 C257 358 255 362 255 366 L255 709 L192 709 L67 663 L67 617 L152 635 L152 366 C152 362 150 358 144 357 L71 347 L71 305 L201 308 L327 305 L327 346 L263 357 Z " />
<glyph glyph-name="ordmasculine" unicode="&#xba;" horiz-adv-x="438" d="M215 331 C327 331 401 408 401 526 C401 649 316 714 223 714 C104 714 37 631 37 520 C37 391 128 331 215 331 L215 331 Z M223 368 C177 368 138 421 138 531 C138 594 145 677 217 677 C262 677 302 625 302 515 C302 452 295 368 223 368 L223 368 Z " />
<glyph glyph-name="guillemotright" unicode="&#xbb;" horiz-adv-x="575" d="M362 349 L270 73 L302 73 L540 355 L302 637 L270 637 L362 361 L362 349 Z M147 349 L55 73 L87 73 L325 355 L87 637 L55 637 L147 361 L147 349 Z " />
<glyph glyph-name="onequarter" unicode="&#xbc;" horiz-adv-x="1020" d="M777 59 C777 48 772 45 764 43 L722 34 L722 -3 L824 0 L928 -3 L928 33 L886 43 C879 45 876 49 876 59 L876 117 L934 117 L934 164 L876 164 L876 270 L769 268 C771 254 776 200 776 164 L657 164 C686 214 862 421 862 421 L773 434 C642 256 595 177 589 164 L589 117 L776 117 L777 59 Z M188 21 L221 -9 L842 692 L810 722 L188 21 Z M277 357 C271 358 269 362 269 366 L269 709 L206 709 L81 663 L81 617 L166 635 L166 366 C166 362 164 358 158 357 L85 347 L85 305 L215 308 L341 305 L341 346 L277 357 Z " />
<glyph glyph-name="onehalf" unicode="&#xbd;" horiz-adv-x="1020" d="M635 0 L757 0 C844 0 935 -1 935 -1 L944 87 L738 83 C742 86 787 124 851 171 C917 220 943 248 943 305 C943 375 872 415 793 415 C692 415 635 372 635 326 C635 293 671 265 712 264 L738 284 L738 357 C738 368 754 371 762 371 C812 371 838 331 838 290 C838 261 835 233 783 179 C739 134 635 48 635 48 L635 0 Z M188 21 L221 -9 L842 692 L810 722 L188 21 Z M277 357 C271 358 269 362 269 366 L269 709 L206 709 L81 663 L81 617 L166 635 L166 366 C166 362 164 358 158 357 L85 347 L85 305 L215 308 L341 305 L341 346 L277 357 Z " />
<glyph glyph-name="threequarters" unicode="&#xbe;" horiz-adv-x="1020" d="M776 59 C776 48 771 45 763 43 L721 34 L721 -3 L823 0 L927 -3 L927 33 L885 43 C878 45 875 49 875 59 L875 117 L933 117 L933 164 L875 164 L875 270 L768 268 C770 254 775 200 775 164 L656 164 C685 214 861 421 861 421 L772 434 C641 256 594 177 588 164 L588 117 L775 117 L776 59 Z M114 634 C138 650 172 665 209 665 C242 665 280 650 280 607 C280 542 200 541 158 540 L162 493 C162 493 184 495 213 495 C274 495 303 456 303 416 C303 377 276 338 221 338 C212 338 192 339 192 342 L192 414 L165 430 C125 430 88 400 88 369 C88 328 127 297 216 297 C308 297 399 345 399 435 C399 492 357 528 298 535 L298 539 C361 555 379 591 379 623 C379 697 307 720 245 720 C185 720 125 695 95 666 L114 634 Z M188 21 L221 -9 L842 692 L810 722 L188 21 Z " />
<glyph glyph-name="questiondown" unicode="&#xbf;" horiz-adv-x="471" d="M265 -191 C217 -191 206 -144 206 -106 C206 -17 329 69 329 160 C329 175 302 218 255 236 L228 227 C231 215 238 201 238 186 C238 115 35 68 35 -79 C35 -180 125 -233 240 -233 C399 -233 441 -163 441 -114 C441 -70 384 -33 326 -31 L296 -48 L299 -140 C299 -149 300 -157 300 -165 C300 -180 295 -191 265 -191 L265 -191 Z M350 395 C350 451 304 497 247 497 C191 497 145 451 145 395 C145 339 191 293 247 293 C304 293 350 339 350 395 L350 395 Z " />
<glyph glyph-name="Agrave" unicode="&#xc0;" horiz-adv-x="776" d="M453 281 L518 99 C529 70 513 58 478 51 L426 41 L426 -5 L609 0 L793 -5 L793 41 L746 51 C715 57 707 70 695 99 C561 438 455 726 455 726 L314 707 C314 707 191 377 84 98 C73 69 62 57 31 51 L-16 41 L-16 -5 L83 0 L260 -5 L260 41 L193 51 C158 56 144 70 155 99 C155 99 172 168 215 281 L453 281 Z M437 333 L232 333 L334 620 L437 333 Z M453 970 L263 970 L458 781 L507 787 L453 970 Z " />
<glyph glyph-name="Aacute" unicode="&#xc1;" horiz-adv-x="776" d="M453 281 L518 99 C529 70 513 58 478 51 L426 41 L426 -5 L609 0 L793 -5 L793 41 L746 51 C715 57 707 70 695 99 C561 438 455 726 455 726 L314 707 C314 707 191 377 84 98 C73 69 62 57 31 51 L-16 41 L-16 -5 L83 0 L260 -5 L260 41 L193 51 C158 56 144 70 155 99 C155 99 172 168 215 281 L453 281 Z M437 333 L232 333 L334 620 L437 333 Z M273 787 L322 781 L517 970 L327 970 L273 787 Z " />
<glyph glyph-name="Acircumflex" unicode="&#xc2;" horiz-adv-x="776" d="M453 281 L518 99 C529 70 513 58 478 51 L426 41 L426 -5 L609 0 L793 -5 L793 41 L746 51 C715 57 707 70 695 99 C561 438 455 726 455 726 L314 707 C314 707 191 377 84 98 C73 69 62 57 31 51 L-16 41 L-16 -5 L83 0 L260 -5 L260 41 L193 51 C158 56 144 70 155 99 C155 99 172 168 215 281 L453 281 Z M437 333 L232 333 L334 620 L437 333 Z M216 782 L243 763 L389 849 L391 849 L541 762 L564 782 L419 976 L359 976 L216 782 Z " />
<glyph glyph-name="Atilde" unicode="&#xc3;" horiz-adv-x="776" d="M453 281 L518 99 C529 70 513 58 478 51 L426 41 L426 -5 L609 0 L793 -5 L793 41 L746 51 C715 57 707 70 695 99 C561 438 455 726 455 726 L314 707 C314 707 191 377 84 98 C73 69 62 57 31 51 L-16 41 L-16 -5 L83 0 L260 -5 L260 41 L193 51 C158 56 144 70 155 99 C155 99 172 168 215 281 L453 281 Z M437 333 L232 333 L334 620 L437 333 Z M478 888 C452 888 379 933 335 933 C268 933 223 852 211 800 L244 788 C264 824 282 826 310 826 C342 826 399 783 446 783 C517 783 556 864 569 915 L536 927 C516 890 509 888 478 888 L478 888 Z " />
<glyph glyph-name="Adieresis" unicode="&#xc4;" horiz-adv-x="776" d="M453 281 L518 99 C529 70 513 58 478 51 L426 41 L426 -5 L609 0 L793 -5 L793 41 L746 51 C715 57 707 70 695 99 C561 438 455 726 455 726 L314 707 C314 707 191 377 84 98 C73 69 62 57 31 51 L-16 41 L-16 -5 L83 0 L260 -5 L260 41 L193 51 C158 56 144 70 155 99 C155 99 172 168 215 281 L453 281 Z M437 333 L232 333 L334 620 L437 333 Z M206 857 C206 810 242 774 288 774 C337 774 372 810 372 857 C372 904 337 940 288 940 C242 940 206 904 206 857 L206 857 Z M409 857 C409 810 444 774 491 774 C537 774 574 810 574 857 C574 904 537 940 491 940 C444 940 409 904 409 857 L409 857 Z " />
<glyph glyph-name="Aring" unicode="&#xc5;" horiz-adv-x="778" d="M454 281 L519 99 C530 70 514 58 479 51 L427 41 L427 -5 L610 0 L794 -5 L794 41 L747 51 C716 57 708 70 696 99 C598 346 515 565 478 666 C514 693 537 736 537 787 C537 873 470 937 384 937 C300 937 231 873 231 787 C231 732 257 687 298 661 C260 561 168 314 85 98 C74 69 63 57 32 51 L-15 41 L-15 -5 L84 0 L261 -5 L261 41 L194 51 C159 56 145 70 156 99 C156 99 173 168 216 281 L454 281 Z M438 333 L233 333 L335 620 L438 333 Z M286 787 C286 845 323 890 384 890 C445 890 482 845 482 787 C482 728 445 683 384 683 C323 683 286 728 286 787 L286 787 Z " />
<glyph glyph-name="AE" unicode="&#xc6;" horiz-adv-x="1049" d="M629 336 C629 336 681 336 737 333 C767 331 779 319 788 282 L801 227 L849 227 L844 359 L849 497 L801 497 L788 442 C779 405 767 393 737 391 C681 388 629 388 629 388 L629 629 C629 639 630 645 646 645 L823 645 C862 645 878 609 896 547 L907 508 L956 508 C965 650 973 711 973 711 C973 711 878 700 822 700 L555 700 L330 705 L330 659 L382 653 C382 653 124 158 90 98 C74 69 50 57 19 51 L-28 41 L-30 -5 L79 0 L253 -5 L255 41 L200 51 C165 58 156 70 169 98 L255 280 L471 280 C470 162 469 99 469 99 C469 69 457 58 422 51 L371 41 L371 -5 L555 0 L793 0 C850 0 989 -5 989 -5 C995 67 1012 212 1012 212 L965 212 L927 136 C890 64 851 56 803 56 L698 56 C650 56 629 76 629 119 L629 336 Z M449 646 C456 645 467 638 467 618 C467 618 471 514 471 349 L471 333 L280 333 L441 647 L449 646 Z " />
<glyph glyph-name="Ccedilla" unicode="&#xc7;" horiz-adv-x="751" d="M211 375 C211 525 282 662 435 662 C522 662 585 625 614 539 L631 489 L680 489 L701 700 L626 687 C563 704 492 715 425 715 C194 715 44 557 44 347 C44 124 187 15 347 -9 L259 -81 C290 -89 377 -116 377 -183 C377 -225 345 -243 303 -243 C275 -243 264 -236 246 -228 L239 -264 C267 -281 310 -292 355 -292 C432 -292 512 -259 512 -171 C512 -74 408 -56 362 -55 L397 -14 C405 -14 414 -15 422 -15 C504 -15 606 0 694 36 C698 147 703 231 703 231 L651 231 L584 73 C548 64 515 60 484 60 C313 60 211 182 211 375 L211 375 Z " />
<glyph glyph-name="Egrave" unicode="&#xc8;" horiz-adv-x="716" d="M297 388 L297 629 C297 639 298 645 314 645 L490 645 C529 645 545 609 563 547 L574 508 L623 508 C633 650 640 711 640 711 C640 711 545 700 489 700 L203 700 L38 705 L38 659 L89 649 C124 642 133 634 136 600 C136 600 139 514 139 349 C139 184 136 99 136 99 C136 69 124 58 89 51 L38 41 L38 -5 L203 0 L461 0 C518 0 656 -5 656 -5 C662 67 679 212 679 212 L632 212 L594 136 C557 64 518 56 470 56 L367 56 C318 56 297 76 297 119 L297 336 C297 336 348 336 404 333 C434 331 446 319 455 282 L468 227 L516 227 L511 359 L516 497 L468 497 L455 442 C447 405 434 393 404 391 C348 388 297 388 297 388 L297 388 Z M420 970 L230 970 L425 781 L474 787 L420 970 Z " />
<glyph glyph-name="Eacute" unicode="&#xc9;" horiz-adv-x="716" d="M297 388 L297 629 C297 639 298 645 314 645 L490 645 C529 645 545 609 563 547 L574 508 L623 508 C633 650 640 711 640 711 C640 711 545 700 489 700 L203 700 L38 705 L38 659 L89 649 C124 642 133 634 136 600 C136 600 139 514 139 349 C139 184 136 99 136 99 C136 69 124 58 89 51 L38 41 L38 -5 L203 0 L461 0 C518 0 656 -5 656 -5 C662 67 679 212 679 212 L632 212 L594 136 C557 64 518 56 470 56 L367 56 C318 56 297 76 297 119 L297 336 C297 336 348 336 404 333 C434 331 446 319 455 282 L468 227 L516 227 L511 359 L516 497 L468 497 L455 442 C447 405 434 393 404 391 C348 388 297 388 297 388 L297 388 Z M288 787 L337 781 L532 970 L342 970 L288 787 Z " />
<glyph glyph-name="Ecircumflex" unicode="&#xca;" horiz-adv-x="716" d="M297 388 L297 629 C297 639 298 645 314 645 L490 645 C529 645 545 609 563 547 L574 508 L623 508 C633 650 640 711 640 711 C640 711 545 700 489 700 L203 700 L38 705 L38 659 L89 649 C124 642 133 634 136 600 C136 600 139 514 139 349 C139 184 136 99 136 99 C136 69 124 58 89 51 L38 41 L38 -5 L203 0 L461 0 C518 0 656 -5 656 -5 C662 67 679 212 679 212 L632 212 L594 136 C557 64 518 56 470 56 L367 56 C318 56 297 76 297 119 L297 336 C297 336 348 336 404 333 C434 331 446 319 455 282 L468 227 L516 227 L511 359 L516 497 L468 497 L455 442 C447 405 434 393 404 391 C348 388 297 388 297 388 L297 388 Z M183 782 L210 763 L356 849 L358 849 L508 762 L531 782 L386 976 L326 976 L183 782 Z " />
<glyph glyph-name="Edieresis" unicode="&#xcb;" horiz-adv-x="716" d="M297 388 L297 629 C297 639 298 645 314 645 L490 645 C529 645 545 609 563 547 L574 508 L623 508 C633 650 640 711 640 711 C640 711 545 700 489 700 L203 700 L38 705 L38 659 L89 649 C124 642 133 634 136 600 C136 600 139 514 139 349 C139 184 136 99 136 99 C136 69 124 58 89 51 L38 41 L38 -5 L203 0 L461 0 C518 0 656 -5 656 -5 C662 67 679 212 679 212 L632 212 L594 136 C557 64 518 56 470 56 L367 56 C318 56 297 76 297 119 L297 336 C297 336 348 336 404 333 C434 331 446 319 455 282 L468 227 L516 227 L511 359 L516 497 L468 497 L455 442 C447 405 434 393 404 391 C348 388 297 388 297 388 L297 388 Z M173 857 C173 810 209 774 255 774 C304 774 339 810 339 857 C339 904 304 940 255 940 C209 940 173 904 173 857 L173 857 Z M376 857 C376 810 411 774 458 774 C504 774 541 810 541 857 C541 904 504 940 458 940 C411 940 376 904 376 857 L376 857 Z " />
<glyph glyph-name="Igrave" unicode="&#xcc;" horiz-adv-x="436" d="M217 0 L398 -5 L398 41 L347 51 C312 58 301 69 300 99 C300 99 297 184 297 349 C297 514 300 600 300 600 C303 634 312 642 347 649 L398 659 L398 705 L217 700 L38 705 L38 659 L89 649 C124 642 133 634 136 600 C136 600 139 514 139 349 C139 184 136 99 136 99 C135 69 124 58 89 51 L38 41 L38 -5 L217 0 Z M286 970 L96 970 L291 781 L340 787 L286 970 Z " />
<glyph glyph-name="Iacute" unicode="&#xcd;" horiz-adv-x="436" d="M217 0 L398 -5 L398 41 L347 51 C312 58 301 69 300 99 C300 99 297 184 297 349 C297 514 300 600 300 600 C303 634 312 642 347 649 L398 659 L398 705 L217 700 L38 705 L38 659 L89 649 C124 642 133 634 136 600 C136 600 139 514 139 349 C139 184 136 99 136 99 C135 69 124 58 89 51 L38 41 L38 -5 L217 0 Z M96 787 L145 781 L340 970 L150 970 L96 787 Z " />
<glyph glyph-name="Icircumflex" unicode="&#xce;" horiz-adv-x="436" d="M217 0 L398 -5 L398 41 L347 51 C312 58 301 69 300 99 C300 99 297 184 297 349 C297 514 300 600 300 600 C303 634 312 642 347 649 L398 659 L398 705 L217 700 L38 705 L38 659 L89 649 C124 642 133 634 136 600 C136 600 139 514 139 349 C139 184 136 99 136 99 C135 69 124 58 89 51 L38 41 L38 -5 L217 0 Z M44 782 L71 763 L217 849 L219 849 L369 762 L392 782 L247 976 L187 976 L44 782 Z " />
<glyph glyph-name="Idieresis" unicode="&#xcf;" horiz-adv-x="436" d="M217 0 L398 -5 L398 41 L347 51 C312 58 301 69 300 99 C300 99 297 184 297 349 C297 514 300 600 300 600 C303 634 312 642 347 649 L398 659 L398 705 L217 700 L38 705 L38 659 L89 649 C124 642 133 634 136 600 C136 600 139 514 139 349 C139 184 136 99 136 99 C135 69 124 58 89 51 L38 41 L38 -5 L217 0 Z M34 857 C34 810 70 774 116 774 C165 774 200 810 200 857 C200 904 165 940 116 940 C70 940 34 904 34 857 L34 857 Z M237 857 C237 810 272 774 319 774 C365 774 402 810 402 857 C402 904 365 940 319 940 C272 940 237 904 237 857 L237 857 Z " />
<glyph glyph-name="Eth" unicode="&#xd0;" horiz-adv-x="864" d="M189 0 C218 -2 396 -8 424 -8 C694 -8 819 150 819 358 C819 544 703 710 460 710 C426 710 282 708 189 700 L43 705 L43 659 L94 649 C129 642 138 634 141 600 C141 600 143 526 144 389 L38 389 L38 335 L144 335 C144 180 141 99 141 99 C140 69 129 58 94 51 L43 41 L43 -5 L189 0 Z M319 656 C342 656 358 655 391 655 C588 655 647 541 647 337 C647 82 527 43 417 43 C322 43 303 49 303 119 L302 335 L480 335 L480 389 L302 389 L302 640 C302 650 303 656 319 656 L319 656 Z " />
<glyph glyph-name="Ntilde" unicode="&#xd1;" horiz-adv-x="891" d="M141 600 C141 495 133 181 131 99 C130 68 120 58 84 51 L33 41 L33 -5 L162 0 L294 -5 L294 41 L242 51 C207 58 196 68 196 99 C196 233 195 613 195 613 C195 613 399 350 657 -5 L764 -5 C764 346 768 600 768 600 C768 632 779 642 815 649 L866 659 L866 705 L738 700 L606 705 L606 659 L658 649 C693 642 703 632 704 600 L712 178 L389 613 C359 654 342 705 342 705 L189 700 L46 705 L46 659 L95 649 C130 642 141 631 141 600 L141 600 Z M539 888 C513 888 440 933 396 933 C329 933 284 852 272 800 L305 788 C325 824 343 826 371 826 C403 826 460 783 507 783 C578 783 617 864 630 915 L597 927 C577 890 570 888 539 888 L539 888 Z " />
<glyph glyph-name="Ograve" unicode="&#xd2;" horiz-adv-x="837" d="M427 42 C303 42 211 135 211 363 C211 493 245 658 421 658 C545 658 626 563 626 336 C626 206 601 42 427 42 L427 42 Z M418 715 C199 714 43 556 43 343 C43 100 251 -15 410 -15 C628 -15 794 141 794 354 C794 596 607 715 418 715 L418 715 Z M486 970 L296 970 L491 781 L540 787 L486 970 Z " />
<glyph glyph-name="Oacute" unicode="&#xd3;" horiz-adv-x="837" d="M427 42 C303 42 211 135 211 363 C211 493 245 658 421 658 C545 658 626 563 626 336 C626 206 601 42 427 42 L427 42 Z M418 715 C199 714 43 556 43 343 C43 100 251 -15 410 -15 C628 -15 794 141 794 354 C794 596 607 715 418 715 L418 715 Z M326 787 L375 781 L570 970 L380 970 L326 787 Z " />
<glyph glyph-name="Ocircumflex" unicode="&#xd4;" horiz-adv-x="837" d="M427 42 C303 42 211 135 211 363 C211 493 245 658 421 658 C545 658 626 563 626 336 C626 206 601 42 427 42 L427 42 Z M418 715 C199 714 43 556 43 343 C43 100 251 -15 410 -15 C628 -15 794 141 794 354 C794 596 607 715 418 715 L418 715 Z M244 782 L271 763 L417 849 L419 849 L569 762 L592 782 L447 976 L387 976 L244 782 Z " />
<glyph glyph-name="Otilde" unicode="&#xd5;" horiz-adv-x="837" d="M427 42 C303 42 211 135 211 363 C211 493 245 658 421 658 C545 658 626 563 626 336 C626 206 601 42 427 42 L427 42 Z M418 715 C199 714 43 556 43 343 C43 100 251 -15 410 -15 C628 -15 794 141 794 354 C794 596 607 715 418 715 L418 715 Z M506 888 C480 888 407 933 363 933 C296 933 251 852 239 800 L272 788 C292 824 310 826 338 826 C370 826 427 783 474 783 C545 783 584 864 597 915 L564 927 C544 890 537 888 506 888 L506 888 Z " />
<glyph glyph-name="Odieresis" unicode="&#xd6;" horiz-adv-x="837" d="M427 42 C303 42 211 135 211 363 C211 493 245 658 421 658 C545 658 626 563 626 336 C626 206 601 42 427 42 L427 42 Z M418 715 C199 714 43 556 43 343 C43 100 251 -15 410 -15 C628 -15 794 141 794 354 C794 596 607 715 418 715 L418 715 Z M234 857 C234 810 270 774 316 774 C365 774 400 810 400 857 C400 904 365 940 316 940 C270 940 234 904 234 857 L234 857 Z M437 857 C437 810 472 774 519 774 C565 774 602 810 602 857 C602 904 565 940 519 940 C472 940 437 904 437 857 L437 857 Z " />
<glyph glyph-name="multiply" unicode="&#xd7;" horiz-adv-x="590" d="M508 96 L553 143 L342 359 L547 569 L500 618 L295 407 L84 625 L38 579 L250 361 L38 143 L84 97 L295 313 L508 96 Z " />
<glyph glyph-name="Oslash" unicode="&#xd8;" horiz-adv-x="837" d="M91 -62 L132 -92 L225 33 C285 1 351 -15 410 -15 C628 -15 794 141 794 354 C794 478 744 570 671 630 L761 751 L720 781 L629 659 C566 696 492 715 418 715 C199 714 43 556 43 343 C43 213 102 119 182 60 L91 -62 Z M211 363 C211 493 245 658 421 658 C483 658 534 633 570 581 L251 152 C225 202 211 272 211 363 L211 363 Z M427 42 C369 42 318 62 280 107 L596 531 C615 482 626 417 626 336 C626 206 601 42 427 42 L427 42 Z " />
<glyph glyph-name="Ugrave" unicode="&#xd9;" horiz-adv-x="847" d="M275 600 C275 632 287 642 322 649 L372 659 L372 705 L186 700 L19 705 L19 659 L70 649 C105 642 117 632 117 600 L117 240 C117 73 250 -15 425 -15 C606 -15 730 79 730 259 C730 259 732 519 732 600 C732 632 744 642 779 649 L830 659 L830 705 L699 700 L569 705 L569 659 L620 649 C655 642 667 632 667 600 C667 562 669 363 669 258 C669 170 615 56 460 56 C363 56 275 96 275 248 L275 600 Z M486 970 L296 970 L491 781 L540 787 L486 970 Z " />
<glyph glyph-name="Uacute" unicode="&#xda;" horiz-adv-x="847" d="M275 600 C275 632 287 642 322 649 L372 659 L372 705 L186 700 L19 705 L19 659 L70 649 C105 642 117 632 117 600 L117 240 C117 73 250 -15 425 -15 C606 -15 730 79 730 259 C730 259 732 519 732 600 C732 632 744 642 779 649 L830 659 L830 705 L699 700 L569 705 L569 659 L620 649 C655 642 667 632 667 600 C667 562 669 363 669 258 C669 170 615 56 460 56 C363 56 275 96 275 248 L275 600 Z M346 787 L395 781 L590 970 L400 970 L346 787 Z " />
<glyph glyph-name="Ucircumflex" unicode="&#xdb;" horiz-adv-x="847" d="M275 600 C275 632 287 642 322 649 L372 659 L372 705 L186 700 L19 705 L19 659 L70 649 C105 642 117 632 117 600 L117 240 C117 73 250 -15 425 -15 C606 -15 730 79 730 259 C730 259 732 519 732 600 C732 632 744 642 779 649 L830 659 L830 705 L699 700 L569 705 L569 659 L620 649 C655 642 667 632 667 600 C667 562 669 363 669 258 C669 170 615 56 460 56 C363 56 275 96 275 248 L275 600 Z M249 782 L276 763 L422 849 L424 849 L574 762 L597 782 L452 976 L392 976 L249 782 Z " />
<glyph glyph-name="Udieresis" unicode="&#xdc;" horiz-adv-x="847" d="M275 600 C275 632 287 642 322 649 L372 659 L372 705 L186 700 L19 705 L19 659 L70 649 C105 642 117 632 117 600 L117 240 C117 73 250 -15 425 -15 C606 -15 730 79 730 259 C730 259 732 519 732 600 C732 632 744 642 779 649 L830 659 L830 705 L699 700 L569 705 L569 659 L620 649 C655 642 667 632 667 600 C667 562 669 363 669 258 C669 170 615 56 460 56 C363 56 275 96 275 248 L275 600 Z M239 857 C239 810 275 774 321 774 C370 774 405 810 405 857 C405 904 370 940 321 940 C275 940 239 904 239 857 L239 857 Z M442 857 C442 810 477 774 524 774 C570 774 607 810 607 857 C607 904 570 940 524 940 C477 940 442 904 442 857 L442 857 Z " />
<glyph glyph-name="Yacute" unicode="&#xdd;" horiz-adv-x="718" d="M545 41 L494 51 C458 58 450 68 449 99 C448 131 447 184 447 223 L447 272 C447 272 519 411 629 602 C645 629 656 643 685 649 L730 659 L730 705 L630 700 L467 705 L467 659 L518 649 C553 642 568 625 554 598 C502 495 453 398 425 348 C425 348 369 445 281 600 C267 625 280 642 315 649 L368 659 L368 705 L165 700 L-19 705 L-19 659 L23 649 C54 642 65 627 81 601 C180 439 284 267 284 267 L284 223 C284 184 284 131 282 99 C280 68 273 58 237 51 L187 41 L187 -5 L380 0 L545 -5 L545 41 Z M298 797 L347 791 L542 980 L352 980 L298 797 Z " />
<glyph glyph-name="Thorn" unicode="&#xde;" horiz-adv-x="725" d="M469 572 C426 572 329 566 297 562 C299 613 292 639 345 649 L396 659 L396 705 L218 700 L38 705 L38 659 L89 649 C124 642 133 634 136 600 C136 600 139 514 139 349 C139 184 136 99 136 99 C135 69 124 58 89 51 L38 41 L38 -5 L218 0 L396 -5 L396 41 L345 51 C310 58 299 69 298 99 C298 99 295 184 295 349 C295 423 296 469 297 513 L375 513 C459 513 531 453 531 350 C531 216 470 199 413 199 C398 199 399 200 399 200 L399 153 C399 153 435 147 459 147 C641 147 699 268 699 369 C699 518 561 572 469 572 L469 572 Z " />
<glyph glyph-name="germandbls" unicode="&#xdf;" horiz-adv-x="618" d="M114 0 L251 -2 L251 578 C251 677 301 714 367 714 C412 714 467 692 467 617 C467 504 311 460 311 364 C311 261 448 195 448 113 C448 58 410 41 381 41 C339 41 312 60 312 60 L299 19 C299 19 336 -9 416 -9 C527 -9 590 73 590 148 C590 305 438 337 438 442 C438 489 525 518 525 617 C525 696 471 769 345 769 C210 769 102 682 102 485 L29 485 L29 431 L102 431 L102 89 C102 58 90 49 55 41 L26 34 L26 -5 L114 0 Z " />
<glyph glyph-name="agrave" unicode="&#xe0;" horiz-adv-x="533" d="M302 242 L301 114 C301 96 277 74 244 74 C193 74 173 111 173 148 C173 214 242 235 302 242 L302 242 Z M49 394 C49 350 87 315 130 309 L184 331 L184 434 C184 461 210 464 235 464 C302 464 302 421 302 346 L302 282 C195 276 31 246 31 114 C31 36 97 -15 173 -15 C249 -15 293 31 305 61 C315 16 352 -15 410 -15 C457 -15 513 7 529 43 L519 76 C514 70 497 63 484 63 C463 63 448 80 448 106 C448 153 455 280 455 351 C455 465 370 509 269 509 C164 509 49 479 49 394 L49 394 Z M319 756 L129 756 L324 567 L373 573 L319 756 Z " />
<glyph glyph-name="aacute" unicode="&#xe1;" horiz-adv-x="533" d="M302 242 L301 114 C301 96 277 74 244 74 C193 74 173 111 173 148 C173 214 242 235 302 242 L302 242 Z M49 394 C49 350 87 315 130 309 L184 331 L184 434 C184 461 210 464 235 464 C302 464 302 421 302 346 L302 282 C195 276 31 246 31 114 C31 36 97 -15 173 -15 C249 -15 293 31 305 61 C315 16 352 -15 410 -15 C457 -15 513 7 529 43 L519 76 C514 70 497 63 484 63 C463 63 448 80 448 106 C448 153 455 280 455 351 C455 465 370 509 269 509 C164 509 49 479 49 394 L49 394 Z M139 573 L188 567 L383 756 L193 756 L139 573 Z " />
<glyph glyph-name="acircumflex" unicode="&#xe2;" horiz-adv-x="533" d="M302 242 L301 114 C301 96 277 74 244 74 C193 74 173 111 173 148 C173 214 242 235 302 242 L302 242 Z M49 394 C49 350 87 315 130 309 L184 331 L184 434 C184 461 210 464 235 464 C302 464 302 421 302 346 L302 282 C195 276 31 246 31 114 C31 36 97 -15 173 -15 C249 -15 293 31 305 61 C315 16 352 -15 410 -15 C457 -15 513 7 529 43 L519 76 C514 70 497 63 484 63 C463 63 448 80 448 106 C448 153 455 280 455 351 C455 465 370 509 269 509 C164 509 49 479 49 394 L49 394 Z M82 568 L109 549 L255 635 L257 635 L407 548 L430 568 L285 762 L225 762 L82 568 Z " />
<glyph glyph-name="atilde" unicode="&#xe3;" horiz-adv-x="533" d="M302 242 L301 114 C301 96 277 74 244 74 C193 74 173 111 173 148 C173 214 242 235 302 242 L302 242 Z M49 394 C49 350 87 315 130 309 L184 331 L184 434 C184 461 210 464 235 464 C302 464 302 421 302 346 L302 282 C195 276 31 246 31 114 C31 36 97 -15 173 -15 C249 -15 293 31 305 61 C315 16 352 -15 410 -15 C457 -15 513 7 529 43 L519 76 C514 70 497 63 484 63 C463 63 448 80 448 106 C448 153 455 280 455 351 C455 465 370 509 269 509 C164 509 49 479 49 394 L49 394 Z M344 674 C318 674 245 719 201 719 C134 719 89 638 77 586 L110 574 C130 610 148 612 176 612 C208 612 265 569 312 569 C383 569 422 650 435 701 L402 713 C382 676 375 674 344 674 L344 674 Z " />
<glyph glyph-name="adieresis" unicode="&#xe4;" horiz-adv-x="533" d="M302 242 L301 114 C301 96 277 74 244 74 C193 74 173 111 173 148 C173 214 242 235 302 242 L302 242 Z M49 394 C49 350 87 315 130 309 L184 331 L184 434 C184 461 210 464 235 464 C302 464 302 421 302 346 L302 282 C195 276 31 246 31 114 C31 36 97 -15 173 -15 C249 -15 293 31 305 61 C315 16 352 -15 410 -15 C457 -15 513 7 529 43 L519 76 C514 70 497 63 484 63 C463 63 448 80 448 106 C448 153 455 280 455 351 C455 465 370 509 269 509 C164 509 49 479 49 394 L49 394 Z M72 643 C72 596 108 560 154 560 C203 560 238 596 238 643 C238 690 203 726 154 726 C108 726 72 690 72 643 L72 643 Z M275 643 C275 596 310 560 357 560 C403 560 440 596 440 643 C440 690 403 726 357 726 C310 726 275 690 275 643 L275 643 Z " />
<glyph glyph-name="aring" unicode="&#xe5;" horiz-adv-x="533" d="M302 242 L301 114 C301 96 277 74 244 74 C193 74 173 111 173 148 C173 214 242 235 302 242 L302 242 Z M49 394 C49 350 87 315 130 309 L184 331 L184 434 C184 461 210 464 235 464 C302 464 302 421 302 346 L302 282 C195 276 31 246 31 114 C31 36 97 -15 173 -15 C249 -15 293 31 305 61 C315 16 352 -15 410 -15 C457 -15 513 7 529 43 L519 76 C514 70 497 63 484 63 C463 63 448 80 448 106 C448 153 455 280 455 351 C455 465 370 509 269 509 C164 509 49 479 49 394 L49 394 Z M194 667 C194 710 222 742 266 742 C311 742 339 710 339 667 C339 623 311 590 266 590 C222 590 194 623 194 667 L194 667 Z M143 667 C143 597 199 546 266 546 C336 546 390 597 390 667 C390 736 336 788 266 788 C199 788 143 736 143 667 L143 667 Z " />
<glyph glyph-name="ae" unicode="&#xe6;" horiz-adv-x="782" d="M450 302 C450 409 469 464 532 464 C586 464 603 398 597 316 L450 302 Z M245 73 C194 73 174 107 174 141 C174 206 238 228 295 235 C296 192 304 156 316 125 C311 97 286 73 245 73 L245 73 Z M228 464 C295 464 295 421 295 346 L295 281 C188 275 31 246 31 114 C31 36 99 -15 175 -15 C243 -15 306 7 342 76 C385 13 452 -15 524 -15 C607 -15 693 13 740 96 L712 127 C693 99 644 75 591 75 C518 75 455 140 450 255 L752 281 L752 311 C752 433 670 509 538 509 C482 509 434 491 401 462 C378 489 309 509 252 509 C147 509 49 479 49 394 C49 350 87 315 130 309 L184 331 L184 434 C184 461 203 464 228 464 L228 464 Z " />
<glyph glyph-name="ccedilla" unicode="&#xe7;" horiz-adv-x="494" d="M187 266 C187 416 228 462 280 462 C322 462 323 451 323 410 C323 375 321 328 321 328 L367 315 C400 320 462 335 462 401 C462 440 427 509 283 509 C147 509 32 396 32 249 C32 91 127 11 218 -9 L130 -81 C161 -89 248 -116 248 -183 C248 -225 216 -243 174 -243 C146 -243 135 -236 117 -228 L110 -264 C138 -281 181 -292 226 -292 C303 -292 383 -259 383 -171 C383 -74 279 -56 233 -55 L267 -15 C349 -14 430 14 477 96 L449 127 C432 102 390 76 336 76 C255 76 187 134 187 266 L187 266 Z " />
<glyph glyph-name="egrave" unicode="&#xe8;" horiz-adv-x="524" d="M33 249 C33 64 145 -15 264 -15 C347 -15 435 13 482 96 L454 127 C435 99 386 75 333 75 C257 75 188 142 188 266 L188 283 L493 281 L493 311 C493 433 411 509 279 509 C138 509 33 384 33 249 L33 249 Z M320 756 L130 756 L325 567 L374 573 L320 756 Z M336 329 L191 326 C197 409 214 464 273 464 C328 464 338 412 336 329 L336 329 Z " />
<glyph glyph-name="eacute" unicode="&#xe9;" horiz-adv-x="524" d="M33 249 C33 64 145 -15 264 -15 C347 -15 435 13 482 96 L454 127 C435 99 386 75 333 75 C257 75 188 142 188 266 L188 283 L493 281 L493 311 C493 433 411 509 279 509 C138 509 33 384 33 249 L33 249 Z M140 573 L189 567 L384 756 L194 756 L140 573 Z M336 329 L191 326 C197 409 214 464 273 464 C328 464 338 412 336 329 L336 329 Z " />
<glyph glyph-name="ecircumflex" unicode="&#xea;" horiz-adv-x="524" d="M33 249 C33 64 145 -15 264 -15 C347 -15 435 13 482 96 L454 127 C435 99 386 75 333 75 C257 75 188 142 188 266 L188 283 L493 281 L493 311 C493 433 411 509 279 509 C138 509 33 384 33 249 L33 249 Z M83 568 L110 549 L256 635 L258 635 L408 548 L431 568 L286 762 L226 762 L83 568 Z M336 329 L191 326 C197 409 214 464 273 464 C328 464 338 412 336 329 L336 329 Z " />
<glyph glyph-name="edieresis" unicode="&#xeb;" horiz-adv-x="524" d="M33 249 C33 64 145 -15 264 -15 C347 -15 435 13 482 96 L454 127 C435 99 386 75 333 75 C257 75 188 142 188 266 L188 283 L493 281 L493 311 C493 433 411 509 279 509 C138 509 33 384 33 249 L33 249 Z M73 643 C73 596 109 560 155 560 C204 560 239 596 239 643 C239 690 204 726 155 726 C109 726 73 690 73 643 L73 643 Z M276 643 C276 596 311 560 358 560 C404 560 441 596 441 643 C441 690 404 726 358 726 C311 726 276 690 276 643 L276 643 Z M336 329 L191 326 C197 409 214 464 273 464 C328 464 338 412 336 329 L336 329 Z " />
<glyph glyph-name="igrave" unicode="&#xec;" horiz-adv-x="337" d="M98 89 C98 58 86 50 51 41 L22 34 L22 -5 L173 0 L322 -5 L322 34 L292 41 C257 49 247 58 247 89 L247 345 C247 442 249 515 249 515 L205 515 L28 448 L28 424 L67 409 C93 399 98 376 98 307 L98 89 Z M220 756 L30 756 L225 567 L274 573 L220 756 Z " />
<glyph glyph-name="iacute" unicode="&#xed;" horiz-adv-x="337" d="M98 89 C98 58 86 50 51 41 L22 34 L22 -5 L173 0 L322 -5 L322 34 L292 41 C257 49 247 58 247 89 L247 345 C247 442 249 515 249 515 L205 515 L28 448 L28 424 L67 409 C93 399 98 376 98 307 L98 89 Z M40 573 L89 567 L284 756 L94 756 L40 573 Z " />
<glyph glyph-name="icircumflex" unicode="&#xee;" horiz-adv-x="337" d="M98 89 C98 58 86 50 51 41 L22 34 L22 -5 L173 0 L322 -5 L322 34 L292 41 C257 49 247 58 247 89 L247 345 C247 442 249 515 249 515 L205 515 L28 448 L28 424 L67 409 C93 399 98 376 98 307 L98 89 Z M-17 568 L10 549 L156 635 L158 635 L308 548 L331 568 L186 762 L126 762 L-17 568 Z " />
<glyph glyph-name="idieresis" unicode="&#xef;" horiz-adv-x="337" d="M98 89 C98 58 86 50 51 41 L22 34 L22 -5 L173 0 L322 -5 L322 34 L292 41 C257 49 247 58 247 89 L247 345 C247 442 249 515 249 515 L205 515 L28 448 L28 424 L67 409 C93 399 98 376 98 307 L98 89 Z M-27 643 C-27 596 9 560 55 560 C104 560 139 596 139 643 C139 690 104 726 55 726 C9 726 -27 690 -27 643 L-27 643 Z M176 643 C176 596 211 560 258 560 C304 560 341 596 341 643 C341 690 304 726 258 726 C211 726 176 690 176 643 L176 643 Z " />
<glyph glyph-name="eth" unicode="&#xf0;" horiz-adv-x="586" d="M554 263 C554 441 468 575 351 668 L433 711 L412 752 L309 698 C260 731 207 758 154 779 L124 758 C158 733 200 701 241 663 L160 621 L182 579 L276 628 C317 585 355 534 379 480 C349 502 306 509 270 509 C148 509 32 405 32 244 C32 74 157 -15 288 -15 C449 -15 554 108 554 263 L554 263 Z M295 32 C228 32 187 103 187 257 C187 345 197 462 290 462 C353 462 399 390 399 239 C399 151 391 32 295 32 L295 32 Z " />
<glyph glyph-name="ntilde" unicode="&#xf1;" horiz-adv-x="635" d="M554 89 C554 89 555 252 555 337 C555 445 493 509 391 509 C308 509 256 455 239 423 L231 425 L233 515 L204 515 L26 448 L26 424 L65 409 C91 399 94 386 94 317 L94 89 C94 58 80 53 47 41 L27 34 L27 -5 L173 0 L305 -5 L305 34 L276 41 C244 49 243 59 243 89 L243 308 C243 377 251 427 323 427 C399 427 405 342 405 277 L405 198 C405 81 402 56 358 41 L338 34 L338 -5 L483 0 L628 -5 L628 34 L599 41 C565 49 554 58 554 89 L554 89 Z M401 674 C375 674 302 719 258 719 C191 719 146 638 134 586 L167 574 C187 610 205 612 233 612 C265 612 322 569 369 569 C440 569 479 650 492 701 L459 713 C439 676 432 674 401 674 L401 674 Z " />
<glyph glyph-name="ograve" unicode="&#xf2;" horiz-adv-x="591" d="M290 -15 C451 -15 558 98 558 253 C558 442 413 509 302 509 C134 509 32 391 32 244 C32 74 159 -15 290 -15 L290 -15 Z M297 32 C230 32 189 103 189 257 C189 345 199 462 292 462 C355 462 401 390 401 239 C401 151 393 32 297 32 L297 32 Z M353 756 L163 756 L358 567 L407 573 L353 756 Z " />
<glyph glyph-name="oacute" unicode="&#xf3;" horiz-adv-x="591" d="M290 -15 C451 -15 558 98 558 253 C558 442 413 509 302 509 C134 509 32 391 32 244 C32 74 159 -15 290 -15 L290 -15 Z M297 32 C230 32 189 103 189 257 C189 345 199 462 292 462 C355 462 401 390 401 239 C401 151 393 32 297 32 L297 32 Z M203 573 L252 567 L447 756 L257 756 L203 573 Z " />
<glyph glyph-name="ocircumflex" unicode="&#xf4;" horiz-adv-x="591" d="M290 -15 C451 -15 558 98 558 253 C558 442 413 509 302 509 C134 509 32 391 32 244 C32 74 159 -15 290 -15 L290 -15 Z M297 32 C230 32 189 103 189 257 C189 345 199 462 292 462 C355 462 401 390 401 239 C401 151 393 32 297 32 L297 32 Z M121 568 L148 549 L294 635 L296 635 L446 548 L469 568 L324 762 L264 762 L121 568 Z " />
<glyph glyph-name="otilde" unicode="&#xf5;" horiz-adv-x="591" d="M290 -15 C451 -15 558 98 558 253 C558 442 413 509 302 509 C134 509 32 391 32 244 C32 74 159 -15 290 -15 L290 -15 Z M297 32 C230 32 189 103 189 257 C189 345 199 462 292 462 C355 462 401 390 401 239 C401 151 393 32 297 32 L297 32 Z M383 674 C357 674 284 719 240 719 C173 719 128 638 116 586 L149 574 C169 610 187 612 215 612 C247 612 304 569 351 569 C422 569 461 650 474 701 L441 713 C421 676 414 674 383 674 L383 674 Z " />
<glyph glyph-name="odieresis" unicode="&#xf6;" horiz-adv-x="591" d="M290 -15 C451 -15 558 98 558 253 C558 442 413 509 302 509 C134 509 32 391 32 244 C32 74 159 -15 290 -15 L290 -15 Z M297 32 C230 32 189 103 189 257 C189 345 199 462 292 462 C355 462 401 390 401 239 C401 151 393 32 297 32 L297 32 Z M111 643 C111 596 147 560 193 560 C242 560 277 596 277 643 C277 690 242 726 193 726 C147 726 111 690 111 643 L111 643 Z M314 643 C314 596 349 560 396 560 C442 560 479 596 479 643 C479 690 442 726 396 726 C349 726 314 690 314 643 L314 643 Z " />
<glyph glyph-name="divide" unicode="&#xf7;" horiz-adv-x="590" d="M207 193 C207 145 247 105 295 105 C343 105 383 145 383 193 C383 242 343 281 295 281 C247 281 207 242 207 193 L207 193 Z M207 533 C207 484 247 445 295 445 C343 445 383 484 383 533 C383 581 343 621 295 621 C247 621 207 581 207 533 L207 533 Z M49 398 L49 328 L541 328 L541 398 L49 398 Z " />
<glyph glyph-name="oslash" unicode="&#xf8;" horiz-adv-x="591" d="M290 -15 C451 -15 558 98 558 253 C558 338 527 398 485 439 L541 505 L510 532 L453 465 C406 496 351 509 302 509 C134 509 32 391 32 244 C32 162 63 100 107 56 L39 -23 L69 -50 L138 31 C182 0 235 -15 290 -15 L290 -15 Z M297 32 C256 32 225 58 207 112 L394 332 C398 305 401 274 401 239 C401 151 393 32 297 32 L297 32 Z M189 257 C189 345 199 462 292 462 C330 462 362 435 381 380 L195 161 C191 189 189 220 189 257 L189 257 Z " />
<glyph glyph-name="ugrave" unicode="&#xf9;" horiz-adv-x="624" d="M533 185 C533 365 538 499 538 499 L426 492 L314 488 L314 449 L343 443 C379 436 384 419 384 388 L384 145 C384 95 347 77 316 77 C263 77 228 102 228 190 C228 246 227 435 233 499 L121 491 L19 488 L19 449 L39 443 C73 433 79 419 79 388 C79 388 78 241 78 156 C78 48 135 -15 236 -15 C315 -15 365 40 381 66 L390 65 L387 -8 L423 -8 L609 16 L609 54 C581 55 541 56 537 85 C534 107 533 147 533 185 L533 185 Z M377 756 L187 756 L382 567 L431 573 L377 756 Z " />
<glyph glyph-name="uacute" unicode="&#xfa;" horiz-adv-x="624" d="M533 185 C533 365 538 499 538 499 L426 492 L314 488 L314 449 L343 443 C379 436 384 419 384 388 L384 145 C384 95 347 77 316 77 C263 77 228 102 228 190 C228 246 227 435 233 499 L121 491 L19 488 L19 449 L39 443 C73 433 79 419 79 388 C79 388 78 241 78 156 C78 48 135 -15 236 -15 C315 -15 365 40 381 66 L390 65 L387 -8 L423 -8 L609 16 L609 54 C581 55 541 56 537 85 C534 107 533 147 533 185 L533 185 Z M207 573 L256 567 L451 756 L261 756 L207 573 Z " />
<glyph glyph-name="ucircumflex" unicode="&#xfb;" horiz-adv-x="624" d="M533 185 C533 365 538 499 538 499 L426 492 L314 488 L314 449 L343 443 C379 436 384 419 384 388 L384 145 C384 95 347 77 316 77 C263 77 228 102 228 190 C228 246 227 435 233 499 L121 491 L19 488 L19 449 L39 443 C73 433 79 419 79 388 C79 388 78 241 78 156 C78 48 135 -15 236 -15 C315 -15 365 40 381 66 L390 65 L387 -8 L423 -8 L609 16 L609 54 C581 55 541 56 537 85 C534 107 533 147 533 185 L533 185 Z M140 568 L167 549 L313 635 L315 635 L465 548 L488 568 L343 762 L283 762 L140 568 Z " />
<glyph glyph-name="udieresis" unicode="&#xfc;" horiz-adv-x="624" d="M533 185 C533 365 538 499 538 499 L426 492 L314 488 L314 449 L343 443 C379 436 384 419 384 388 L384 145 C384 95 347 77 316 77 C263 77 228 102 228 190 C228 246 227 435 233 499 L121 491 L19 488 L19 449 L39 443 C73 433 79 419 79 388 C79 388 78 241 78 156 C78 48 135 -15 236 -15 C315 -15 365 40 381 66 L390 65 L387 -8 L423 -8 L609 16 L609 54 C581 55 541 56 537 85 C534 107 533 147 533 185 L533 185 Z M130 643 C130 596 166 560 212 560 C261 560 296 596 296 643 C296 690 261 726 212 726 C166 726 130 690 130 643 L130 643 Z M333 643 C333 596 368 560 415 560 C461 560 498 596 498 643 C498 690 461 726 415 726 C368 726 333 690 333 643 L333 643 Z " />
<glyph glyph-name="yacute" unicode="&#xfd;" horiz-adv-x="559" d="M105 -263 L220 -273 L497 398 C509 427 516 439 549 451 L569 458 L569 497 L470 492 L369 497 L369 458 L393 451 C427 441 445 431 435 403 C376 241 329 120 329 120 L232 401 C222 430 233 443 267 451 L296 458 L296 497 L142 492 L-9 497 L-9 458 L11 451 C39 441 44 438 58 403 C117 258 211 -6 210 -6 L270 -6 L105 -263 Z M208 573 L257 567 L452 756 L262 756 L208 573 Z " />
<glyph glyph-name="thorn" unicode="&#xfe;" horiz-adv-x="599" d="M289 38 C248 38 216 50 216 98 L216 354 C216 396 233 427 288 427 C366 427 409 369 409 241 C409 139 386 38 289 38 L289 38 Z M67 -154 C67 -185 57 -194 23 -202 L-6 -209 L-6 -248 L148 -243 L308 -248 L308 -209 L265 -202 C230 -197 218 -185 218 -154 L218 -74 C218 -38 217 -8 202 25 C218 6 267 -15 318 -15 C460 -15 566 102 566 265 C566 428 462 509 358 509 C303 509 250 486 210 427 L201 429 C201 429 216 462 216 544 L216 745 L178 745 L-4 710 L-4 686 L38 671 C64 661 67 638 67 569 L67 -154 Z " />
<glyph glyph-name="ydieresis" unicode="&#xff;" horiz-adv-x="559" d="M105 -263 L220 -273 L497 398 C509 427 516 439 549 451 L569 458 L569 497 L470 492 L369 497 L369 458 L393 451 C427 441 445 431 435 403 C376 241 329 120 329 120 L232 401 C222 430 233 443 267 451 L296 458 L296 497 L142 492 L-9 497 L-9 458 L11 451 C39 441 44 438 58 403 C117 258 211 -6 210 -6 L270 -6 L105 -263 Z M98 643 C98 596 134 560 180 560 C229 560 264 596 264 643 C264 690 229 726 180 726 C134 726 98 690 98 643 L98 643 Z M301 643 C301 596 336 560 383 560 C429 560 466 596 466 643 C466 690 429 726 383 726 C336 726 301 690 301 643 L301 643 Z " />
<glyph glyph-name="Amacron" unicode="&#x100;" horiz-adv-x="776" d="M453 281 L518 99 C529 70 513 58 478 51 L426 41 L426 -5 L609 0 L793 -5 L793 41 L746 51 C715 57 707 70 695 99 C561 438 455 726 455 726 L314 707 C314 707 191 377 84 98 C73 69 62 57 31 51 L-16 41 L-16 -5 L83 0 L260 -5 L260 41 L193 51 C158 56 144 70 155 99 C155 99 172 168 215 281 L453 281 Z M437 333 L232 333 L334 620 L437 333 Z M549 793 L549 869 L230 869 L230 793 L549 793 Z " />
<glyph glyph-name="amacron" unicode="&#x101;" horiz-adv-x="533" d="M302 242 L301 114 C301 96 277 74 244 74 C193 74 173 111 173 148 C173 214 242 235 302 242 L302 242 Z M49 394 C49 350 87 315 130 309 L184 331 L184 434 C184 461 210 464 235 464 C302 464 302 421 302 346 L302 282 C195 276 31 246 31 114 C31 36 97 -15 173 -15 C249 -15 293 31 305 61 C315 16 352 -15 410 -15 C457 -15 513 7 529 43 L519 76 C514 70 497 63 484 63 C463 63 448 80 448 106 C448 153 455 280 455 351 C455 465 370 509 269 509 C164 509 49 479 49 394 L49 394 Z M418 579 L418 655 L99 655 L99 579 L418 579 Z " />
<glyph glyph-name="Abreve" unicode="&#x102;" horiz-adv-x="776" d="M453 281 L518 99 C529 70 513 58 478 51 L426 41 L426 -5 L609 0 L793 -5 L793 41 L746 51 C715 57 707 70 695 99 C561 438 455 726 455 726 L314 707 C314 707 191 377 84 98 C73 69 62 57 31 51 L-16 41 L-16 -5 L83 0 L260 -5 L260 41 L193 51 C158 56 144 70 155 99 C155 99 172 168 215 281 L453 281 Z M437 333 L232 333 L334 620 L437 333 Z M389 891 C297 891 287 935 287 980 L287 985 L236 985 L236 945 C236 847 290 776 389 776 C489 776 543 847 543 945 L543 985 L492 985 L492 980 C492 935 482 891 389 891 L389 891 Z " />
<glyph glyph-name="abreve" unicode="&#x103;" horiz-adv-x="533" d="M302 242 L301 114 C301 96 277 74 244 74 C193 74 173 111 173 148 C173 214 242 235 302 242 L302 242 Z M49 394 C49 350 87 315 130 309 L184 331 L184 434 C184 461 210 464 235 464 C302 464 302 421 302 346 L302 282 C195 276 31 246 31 114 C31 36 97 -15 173 -15 C249 -15 293 31 305 61 C315 16 352 -15 410 -15 C457 -15 513 7 529 43 L519 76 C514 70 497 63 484 63 C463 63 448 80 448 106 C448 153 455 280 455 351 C455 465 370 509 269 509 C164 509 49 479 49 394 L49 394 Z M256 677 C164 677 154 721 154 766 L154 771 L103 771 L103 731 C103 633 157 562 256 562 C356 562 410 633 410 731 L410 771 L359 771 L359 766 C359 721 349 677 256 677 L256 677 Z " />
<glyph glyph-name="Aogonek" unicode="&#x104;" horiz-adv-x="776" d="M453 281 L518 99 C529 70 513 58 478 51 L426 41 L426 -5 L609 0 L663 -1 C586 -34 525 -94 525 -162 C525 -235 587 -272 661 -272 C688 -272 743 -267 774 -256 L793 -222 C780 -223 769 -224 758 -224 C689 -224 651 -197 651 -138 C651 -75 691 -34 724 -3 L793 -5 L793 41 L746 51 C715 57 707 70 695 99 C561 438 455 726 455 726 L314 707 C314 707 191 377 84 98 C73 69 62 57 31 51 L-16 41 L-16 -5 L83 0 L260 -5 L260 41 L193 51 C158 56 144 70 155 99 C155 99 172 168 215 281 L453 281 Z M437 333 L232 333 L334 620 L437 333 Z " />
<glyph glyph-name="aogonek" unicode="&#x105;" horiz-adv-x="533" d="M49 394 C49 350 87 315 130 309 L184 331 L184 434 C184 461 210 464 235 464 C302 464 302 421 302 346 L302 282 C195 276 31 246 31 114 C31 36 97 -15 173 -15 C249 -15 293 31 305 61 C313 25 338 -2 378 -11 C311 -45 261 -100 261 -162 C261 -235 323 -272 397 -272 C424 -272 479 -267 510 -256 L529 -222 C516 -223 505 -224 494 -224 C425 -224 387 -197 387 -138 C387 -79 421 -39 453 -9 C487 -1 517 17 529 43 L519 76 C514 70 497 63 484 63 C463 63 448 80 448 106 C448 153 455 280 455 351 C455 465 370 509 269 509 C164 509 49 479 49 394 L49 394 Z M302 242 L301 114 C301 96 277 74 244 74 C193 74 173 111 173 148 C173 214 242 235 302 242 L302 242 Z " />
<glyph glyph-name="Cacute" unicode="&#x106;" horiz-adv-x="751" d="M211 375 C211 525 282 662 435 662 C522 662 585 625 614 539 L631 489 L680 489 L701 700 L626 687 C563 704 492 715 425 715 C194 715 44 557 44 347 C44 90 235 -15 422 -15 C504 -15 606 0 694 36 C698 147 703 231 703 231 L651 231 L584 73 C548 64 515 60 484 60 C313 60 211 182 211 375 L211 375 Z M256 787 L305 781 L500 970 L310 970 L256 787 Z " />
<glyph glyph-name="cacute" unicode="&#x107;" horiz-adv-x="494" d="M187 266 C187 416 228 462 280 462 C322 462 323 451 323 410 C323 375 321 328 321 328 L367 315 C400 320 462 335 462 401 C462 440 427 509 283 509 C147 509 32 396 32 249 C32 64 162 -15 265 -15 C348 -15 430 13 477 96 L449 127 C432 102 390 76 336 76 C255 76 187 134 187 266 L187 266 Z M131 573 L180 567 L375 756 L185 756 L131 573 Z " />
<glyph glyph-name="Ccircumflex" unicode="&#x108;" horiz-adv-x="751" d="M211 375 C211 525 282 662 435 662 C522 662 585 625 614 539 L631 489 L680 489 L701 700 L626 687 C563 704 492 715 425 715 C194 715 44 557 44 347 C44 90 235 -15 422 -15 C504 -15 606 0 694 36 C698 147 703 231 703 231 L651 231 L584 73 C548 64 515 60 484 60 C313 60 211 182 211 375 L211 375 Z M199 782 L226 763 L372 849 L374 849 L524 762 L547 782 L402 976 L342 976 L199 782 Z " />
<glyph glyph-name="ccircumflex" unicode="&#x109;" horiz-adv-x="494" d="M187 266 C187 416 228 462 280 462 C322 462 323 451 323 410 C323 375 321 328 321 328 L367 315 C400 320 462 335 462 401 C462 440 427 509 283 509 C147 509 32 396 32 249 C32 64 162 -15 265 -15 C348 -15 430 13 477 96 L449 127 C432 102 390 76 336 76 C255 76 187 134 187 266 L187 266 Z M74 568 L101 549 L247 635 L249 635 L399 548 L422 568 L277 762 L217 762 L74 568 Z " />
<glyph glyph-name="Cdotaccent" unicode="&#x10a;" horiz-adv-x="751" d="M211 375 C211 525 282 662 435 662 C522 662 585 625 614 539 L631 489 L680 489 L701 700 L626 687 C563 704 492 715 425 715 C194 715 44 557 44 347 C44 90 235 -15 422 -15 C504 -15 606 0 694 36 C698 147 703 231 703 231 L651 231 L584 73 C548 64 515 60 484 60 C313 60 211 182 211 375 L211 375 Z M280 875 C280 824 322 782 373 782 C424 782 466 824 466 875 C466 926 424 968 373 968 C322 968 280 926 280 875 L280 875 Z " />
<glyph glyph-name="cdotaccent" unicode="&#x10b;" horiz-adv-x="494" d="M187 266 C187 416 228 462 280 462 C322 462 323 451 323 410 C323 375 321 328 321 328 L367 315 C400 320 462 335 462 401 C462 440 427 509 283 509 C147 509 32 396 32 249 C32 64 162 -15 265 -15 C348 -15 430 13 477 96 L449 127 C432 102 390 76 336 76 C255 76 187 134 187 266 L187 266 Z M155 661 C155 610 197 568 248 568 C299 568 341 610 341 661 C341 712 299 754 248 754 C197 754 155 712 155 661 L155 661 Z " />
<glyph glyph-name="Ccaron" unicode="&#x10c;" horiz-adv-x="751" d="M211 375 C211 525 282 662 435 662 C522 662 585 625 614 539 L631 489 L680 489 L701 700 L626 687 C563 704 492 715 425 715 C194 715 44 557 44 347 C44 90 235 -15 422 -15 C504 -15 606 0 694 36 C698 147 703 231 703 231 L651 231 L584 73 C548 64 515 60 484 60 C313 60 211 182 211 375 L211 375 Z M342 763 L402 763 L547 957 L524 977 L374 889 L372 889 L226 976 L199 957 L342 763 Z " />
<glyph glyph-name="ccaron" unicode="&#x10d;" horiz-adv-x="494" d="M187 266 C187 416 228 462 280 462 C322 462 323 451 323 410 C323 375 321 328 321 328 L367 315 C400 320 462 335 462 401 C462 440 427 509 283 509 C147 509 32 396 32 249 C32 64 162 -15 265 -15 C348 -15 430 13 477 96 L449 127 C432 102 390 76 336 76 C255 76 187 134 187 266 L187 266 Z M217 549 L277 549 L422 743 L399 763 L249 675 L247 675 L101 762 L74 743 L217 549 Z " />
<glyph glyph-name="Dcaron" unicode="&#x10e;" horiz-adv-x="859" d="M184 0 C213 -2 391 -8 419 -8 C689 -8 814 150 814 358 C814 544 698 710 455 710 C421 710 277 708 184 700 L38 705 L38 659 L89 649 C124 642 133 634 136 600 C136 600 139 514 139 349 C139 184 136 99 136 99 C135 69 124 58 89 51 L38 41 L38 -5 L184 0 Z M314 656 C337 656 353 655 386 655 C583 655 642 541 642 337 C642 82 522 43 412 43 C317 43 298 49 298 119 L297 640 C297 650 298 656 314 656 L314 656 Z M400 763 L460 763 L605 957 L582 977 L432 889 L430 889 L284 976 L257 957 L400 763 Z " />
<glyph glyph-name="dcaron" unicode="&#x10f;" horiz-adv-x="810" d="M381 483 C347 501 309 509 269 509 C133 509 33 391 33 244 C33 81 122 -15 228 -15 C286 -15 347 3 381 65 L388 64 L384 -8 L420 -8 L606 16 L606 54 C578 55 538 56 534 85 C531 107 530 147 530 185 L530 755 L494 755 L313 720 L313 696 L352 681 C378 671 381 648 381 579 L381 483 Z M311 87 C233 87 188 156 188 260 C188 350 204 462 309 462 C371 462 381 425 381 348 L381 161 C381 119 378 87 311 87 L311 87 Z M619 457 C711 485 810 566 810 662 C810 729 751 775 705 775 C666 775 617 732 607 689 C669 667 694 633 694 596 C694 555 660 510 594 482 L619 457 Z " />
<glyph glyph-name="Dcroat" unicode="&#x110;" horiz-adv-x="864" d="M189 0 C218 -2 396 -8 424 -8 C694 -8 819 150 819 358 C819 544 703 710 460 710 C426 710 282 708 189 700 L43 705 L43 659 L94 649 C129 642 138 634 141 600 C141 600 143 526 144 389 L38 389 L38 335 L144 335 C144 180 141 99 141 99 C140 69 129 58 94 51 L43 41 L43 -5 L189 0 Z M319 656 C342 656 358 655 391 655 C588 655 647 541 647 337 C647 82 527 43 417 43 C322 43 303 49 303 119 L302 335 L480 335 L480 389 L302 389 L302 640 C302 650 303 656 319 656 L319 656 Z " />
<glyph glyph-name="dcroat" unicode="&#x111;" horiz-adv-x="618" d="M381 483 C347 501 309 509 269 509 C133 509 33 391 33 244 C33 81 122 -15 228 -15 C283 -15 338 6 378 65 L385 64 L384 -8 L420 -8 L606 16 L606 54 C578 55 538 54 534 85 C531 107 530 147 530 185 L530 559 L589 559 L589 613 L530 613 L530 755 L494 755 L313 720 L313 696 L352 681 C371 673 378 648 380 613 L241 613 L241 559 L381 559 L381 483 Z M311 87 C233 87 188 156 188 260 C188 350 204 462 309 462 C371 462 381 425 381 348 L381 161 C381 119 378 87 311 87 L311 87 Z " />
<glyph glyph-name="Emacron" unicode="&#x112;" horiz-adv-x="716" d="M297 388 L297 629 C297 639 298 645 314 645 L490 645 C529 645 545 609 563 547 L574 508 L623 508 C633 650 640 711 640 711 C640 711 545 700 489 700 L203 700 L38 705 L38 659 L89 649 C124 642 133 634 136 600 C136 600 139 514 139 349 C139 184 136 99 136 99 C136 69 124 58 89 51 L38 41 L38 -5 L203 0 L461 0 C518 0 656 -5 656 -5 C662 67 679 212 679 212 L632 212 L594 136 C557 64 518 56 470 56 L367 56 C318 56 297 76 297 119 L297 336 C297 336 348 336 404 333 C434 331 446 319 455 282 L468 227 L516 227 L511 359 L516 497 L468 497 L455 442 C447 405 434 393 404 391 C348 388 297 388 297 388 L297 388 Z M518 793 L518 869 L199 869 L199 793 L518 793 Z " />
<glyph glyph-name="emacron" unicode="&#x113;" horiz-adv-x="524" d="M33 249 C33 64 145 -15 264 -15 C347 -15 435 13 482 96 L454 127 C435 99 386 75 333 75 C257 75 188 142 188 266 L188 283 L493 281 L493 311 C493 433 411 509 279 509 C138 509 33 384 33 249 L33 249 Z M431 579 L431 655 L112 655 L112 579 L431 579 Z M336 329 L191 326 C197 409 214 464 273 464 C328 464 338 412 336 329 L336 329 Z " />
<glyph glyph-name="Ebreve" unicode="&#x114;" horiz-adv-x="716" d="M297 388 L297 629 C297 639 298 645 314 645 L490 645 C529 645 545 609 563 547 L574 508 L623 508 C633 650 640 711 640 711 C640 711 545 700 489 700 L203 700 L38 705 L38 659 L89 649 C124 642 133 634 136 600 C136 600 139 514 139 349 C139 184 136 99 136 99 C136 69 124 58 89 51 L38 41 L38 -5 L203 0 L461 0 C518 0 656 -5 656 -5 C662 67 679 212 679 212 L632 212 L594 136 C557 64 518 56 470 56 L367 56 C318 56 297 76 297 119 L297 336 C297 336 348 336 404 333 C434 331 446 319 455 282 L468 227 L516 227 L511 359 L516 497 L468 497 L455 442 C447 405 434 393 404 391 C348 388 297 388 297 388 L297 388 Z M357 891 C265 891 255 935 255 980 L255 985 L204 985 L204 945 C204 847 258 776 357 776 C457 776 511 847 511 945 L511 985 L460 985 L460 980 C460 935 450 891 357 891 L357 891 Z " />
<glyph glyph-name="ebreve" unicode="&#x115;" horiz-adv-x="524" d="M33 249 C33 64 145 -15 264 -15 C347 -15 435 13 482 96 L454 127 C435 99 386 75 333 75 C257 75 188 142 188 266 L188 283 L493 281 L493 311 C493 433 411 509 279 509 C138 509 33 384 33 249 L33 249 Z M256 677 C164 677 154 721 154 766 L154 771 L103 771 L103 731 C103 633 157 562 256 562 C356 562 410 633 410 731 L410 771 L359 771 L359 766 C359 721 349 677 256 677 L256 677 Z M336 329 L191 326 C197 409 214 464 273 464 C328 464 338 412 336 329 L336 329 Z " />
<glyph glyph-name="Edotaccent" unicode="&#x116;" horiz-adv-x="716" d="M297 388 L297 629 C297 639 298 645 314 645 L490 645 C529 645 545 609 563 547 L574 508 L623 508 C633 650 640 711 640 711 C640 711 545 700 489 700 L203 700 L38 705 L38 659 L89 649 C124 642 133 634 136 600 C136 600 139 514 139 349 C139 184 136 99 136 99 C136 69 124 58 89 51 L38 41 L38 -5 L203 0 L461 0 C518 0 656 -5 656 -5 C662 67 679 212 679 212 L632 212 L594 136 C557 64 518 56 470 56 L367 56 C318 56 297 76 297 119 L297 336 C297 336 348 336 404 333 C434 331 446 319 455 282 L468 227 L516 227 L511 359 L516 497 L468 497 L455 442 C447 405 434 393 404 391 C348 388 297 388 297 388 L297 388 Z M264 875 C264 824 306 782 357 782 C408 782 450 824 450 875 C450 926 408 968 357 968 C306 968 264 926 264 875 L264 875 Z " />
<glyph glyph-name="edotaccent" unicode="&#x117;" horiz-adv-x="524" d="M33 249 C33 64 145 -15 264 -15 C347 -15 435 13 482 96 L454 127 C435 99 386 75 333 75 C257 75 188 142 188 266 L188 283 L493 281 L493 311 C493 433 411 509 279 509 C138 509 33 384 33 249 L33 249 Z M164 661 C164 610 206 568 257 568 C308 568 350 610 350 661 C350 712 308 754 257 754 C206 754 164 712 164 661 L164 661 Z M336 329 L191 326 C197 409 214 464 273 464 C328 464 338 412 336 329 L336 329 Z " />
<glyph glyph-name="Eogonek" unicode="&#x118;" horiz-adv-x="716" d="M297 388 L297 629 C297 639 298 645 314 645 L490 645 C529 645 545 609 563 547 L574 508 L623 508 C633 650 640 711 640 711 C640 711 545 700 489 700 L203 700 L38 705 L38 659 L89 649 C124 642 133 634 136 600 C136 600 139 514 139 349 C139 184 136 99 136 99 C136 69 124 58 89 51 L38 41 L38 -5 L203 0 L461 0 C482 0 516 0 549 -1 C472 -34 411 -94 411 -162 C411 -235 473 -272 547 -272 C574 -272 629 -267 660 -256 L679 -222 C666 -223 655 -224 644 -224 C575 -224 537 -197 537 -138 C537 -75 577 -34 609 -3 C636 -4 656 -5 656 -5 C662 67 679 212 679 212 L632 212 L594 136 C557 64 518 56 470 56 L367 56 C318 56 297 76 297 119 L297 336 C297 336 348 336 404 333 C434 331 446 319 455 282 L468 227 L516 227 L511 359 L516 497 L468 497 L455 442 C447 405 434 393 404 391 C348 388 297 388 297 388 L297 388 Z " />
<glyph glyph-name="eogonek" unicode="&#x119;" horiz-adv-x="524" d="M33 249 C33 64 145 -15 264 -15 C200 -49 154 -102 154 -162 C154 -235 216 -272 290 -272 C317 -272 372 -267 403 -256 L422 -222 C409 -223 398 -224 387 -224 C318 -224 280 -197 280 -138 C280 -75 320 -34 353 -3 C405 12 452 42 482 96 L454 127 C435 99 386 75 333 75 C257 75 188 142 188 266 L188 283 L493 281 L493 311 C493 433 411 509 279 509 C138 509 33 384 33 249 L33 249 Z M336 329 L191 326 C197 409 214 464 273 464 C328 464 338 412 336 329 L336 329 Z " />
<glyph glyph-name="Ecaron" unicode="&#x11a;" horiz-adv-x="716" d="M297 388 L297 629 C297 639 298 645 314 645 L490 645 C529 645 545 609 563 547 L574 508 L623 508 C633 650 640 711 640 711 C640 711 545 700 489 700 L203 700 L38 705 L38 659 L89 649 C124 642 133 634 136 600 C136 600 139 514 139 349 C139 184 136 99 136 99 C136 69 124 58 89 51 L38 41 L38 -5 L203 0 L461 0 C518 0 656 -5 656 -5 C662 67 679 212 679 212 L632 212 L594 136 C557 64 518 56 470 56 L367 56 C318 56 297 76 297 119 L297 336 C297 336 348 336 404 333 C434 331 446 319 455 282 L468 227 L516 227 L511 359 L516 497 L468 497 L455 442 C447 405 434 393 404 391 C348 388 297 388 297 388 L297 388 Z M326 763 L386 763 L531 957 L508 977 L358 889 L356 889 L210 976 L183 957 L326 763 Z " />
<glyph glyph-name="ecaron" unicode="&#x11b;" horiz-adv-x="524" d="M33 249 C33 64 145 -15 264 -15 C347 -15 435 13 482 96 L454 127 C435 99 386 75 333 75 C257 75 188 142 188 266 L188 283 L493 281 L493 311 C493 433 411 509 279 509 C138 509 33 384 33 249 L33 249 Z M226 549 L286 549 L431 743 L408 763 L258 675 L256 675 L110 762 L83 743 L226 549 Z M336 329 L191 326 C197 409 214 464 273 464 C328 464 338 412 336 329 L336 329 Z " />
<glyph glyph-name="Gcircumflex" unicode="&#x11c;" horiz-adv-x="846" d="M585 78 C585 50 539 49 498 49 C273 49 209 233 209 366 C209 548 307 658 474 658 C568 658 636 622 638 613 L670 489 L719 489 L740 703 L664 687 C631 698 563 715 453 715 C246 715 43 589 43 349 C43 200 124 -15 453 -15 C583 -15 748 43 748 43 L748 214 C748 246 760 252 795 263 L827 273 L827 321 L661 316 L478 321 L478 273 L538 263 C574 257 585 250 585 218 L585 78 Z M246 782 L273 763 L419 849 L421 849 L571 762 L594 782 L449 976 L389 976 L246 782 Z " />
<glyph glyph-name="gcircumflex" unicode="&#x11d;" horiz-adv-x="604" d="M597 386 L597 507 L422 474 C388 497 321 509 277 509 C132 509 52 431 52 332 C52 264 89 214 136 188 C89 154 47 108 47 71 C47 20 78 -9 126 -20 L126 -29 C76 -44 25 -74 25 -133 C25 -247 178 -259 256 -259 C473 -259 557 -156 557 -63 C557 21 511 72 421 81 C271 97 216 102 195 105 C166 109 155 116 155 133 C155 143 165 158 172 170 C198 161 231 152 285 152 C417 152 512 222 512 326 C512 362 500 396 481 422 L576 378 L597 386 Z M147 -109 C147 -66 163 -46 175 -37 C209 -38 291 -42 354 -52 C403 -60 421 -78 421 -115 C421 -195 359 -216 293 -216 C204 -216 147 -183 147 -109 L147 -109 Z M286 201 C234 201 204 240 204 342 C204 398 209 467 284 467 C334 467 359 422 359 329 C359 272 355 201 286 201 L286 201 Z M113 568 L140 549 L286 635 L288 635 L438 548 L461 568 L316 762 L256 762 L113 568 Z " />
<glyph glyph-name="Gbreve" unicode="&#x11e;" horiz-adv-x="846" d="M585 78 C585 50 539 49 498 49 C273 49 209 233 209 366 C209 548 307 658 474 658 C568 658 636 622 638 613 L670 489 L719 489 L740 703 L664 687 C631 698 563 715 453 715 C246 715 43 589 43 349 C43 200 124 -15 453 -15 C583 -15 748 43 748 43 L748 214 C748 246 760 252 795 263 L827 273 L827 321 L661 316 L478 321 L478 273 L538 263 C574 257 585 250 585 218 L585 78 Z M410 891 C318 891 308 935 308 980 L308 985 L257 985 L257 945 C257 847 311 776 410 776 C510 776 564 847 564 945 L564 985 L513 985 L513 980 C513 935 503 891 410 891 L410 891 Z " />
<glyph glyph-name="gbreve" unicode="&#x11f;" horiz-adv-x="604" d="M597 386 L597 507 L422 474 C388 497 321 509 277 509 C132 509 52 431 52 332 C52 264 89 214 136 188 C89 154 47 108 47 71 C47 20 78 -9 126 -20 L126 -29 C76 -44 25 -74 25 -133 C25 -247 178 -259 256 -259 C473 -259 557 -156 557 -63 C557 21 511 72 421 81 C271 97 216 102 195 105 C166 109 155 116 155 133 C155 143 165 158 172 170 C198 161 231 152 285 152 C417 152 512 222 512 326 C512 362 500 396 481 422 L576 378 L597 386 Z M147 -109 C147 -66 163 -46 175 -37 C209 -38 291 -42 354 -52 C403 -60 421 -78 421 -115 C421 -195 359 -216 293 -216 C204 -216 147 -183 147 -109 L147 -109 Z M286 201 C234 201 204 240 204 342 C204 398 209 467 284 467 C334 467 359 422 359 329 C359 272 355 201 286 201 L286 201 Z M290 677 C198 677 188 721 188 766 L188 771 L137 771 L137 731 C137 633 191 562 290 562 C390 562 444 633 444 731 L444 771 L393 771 L393 766 C393 721 383 677 290 677 L290 677 Z " />
<glyph glyph-name="Gdotaccent" unicode="&#x120;" horiz-adv-x="846" d="M585 78 C585 50 539 49 498 49 C273 49 209 233 209 366 C209 548 307 658 474 658 C568 658 636 622 638 613 L670 489 L719 489 L740 703 L664 687 C631 698 563 715 453 715 C246 715 43 589 43 349 C43 200 124 -15 453 -15 C583 -15 748 43 748 43 L748 214 C748 246 760 252 795 263 L827 273 L827 321 L661 316 L478 321 L478 273 L538 263 C574 257 585 250 585 218 L585 78 Z M327 875 C327 824 369 782 420 782 C471 782 513 824 513 875 C513 926 471 968 420 968 C369 968 327 926 327 875 L327 875 Z " />
<glyph glyph-name="gdotaccent" unicode="&#x121;" horiz-adv-x="604" d="M597 386 L597 507 L422 474 C388 497 321 509 277 509 C132 509 52 431 52 332 C52 264 89 214 136 188 C89 154 47 108 47 71 C47 20 78 -9 126 -20 L126 -29 C76 -44 25 -74 25 -133 C25 -247 178 -259 256 -259 C473 -259 557 -156 557 -63 C557 21 511 72 421 81 C271 97 216 102 195 105 C166 109 155 116 155 133 C155 143 165 158 172 170 C198 161 231 152 285 152 C417 152 512 222 512 326 C512 362 500 396 481 422 L576 378 L597 386 Z M147 -109 C147 -66 163 -46 175 -37 C209 -38 291 -42 354 -52 C403 -60 421 -78 421 -115 C421 -195 359 -216 293 -216 C204 -216 147 -183 147 -109 L147 -109 Z M286 201 C234 201 204 240 204 342 C204 398 209 467 284 467 C334 467 359 422 359 329 C359 272 355 201 286 201 L286 201 Z M188 661 C188 610 230 568 281 568 C332 568 374 610 374 661 C374 712 332 754 281 754 C230 754 188 712 188 661 L188 661 Z " />
<glyph glyph-name="Gcommaaccent" unicode="&#x122;" horiz-adv-x="846" d="M585 78 C585 50 539 49 498 49 C273 49 209 233 209 366 C209 548 307 658 474 658 C568 658 636 622 638 613 L670 489 L719 489 L740 703 L664 687 C631 698 563 715 453 715 C246 715 43 589 43 349 C43 200 124 -15 453 -15 C583 -15 748 43 748 43 L748 214 C748 246 760 252 795 263 L827 273 L827 321 L661 316 L478 321 L478 273 L538 263 C574 257 585 250 585 218 L585 78 Z M339 -386 C431 -358 530 -277 530 -181 C530 -114 471 -68 425 -68 C386 -68 337 -111 327 -154 C389 -176 414 -210 414 -247 C414 -288 380 -333 314 -361 L339 -386 Z " />
<glyph glyph-name="gcommaaccent" unicode="&#x123;" horiz-adv-x="604" d="M597 386 L597 507 L422 474 C388 497 321 509 277 509 C132 509 52 431 52 332 C52 264 89 214 136 188 C89 154 47 108 47 71 C47 20 78 -9 126 -20 L126 -29 C76 -44 25 -74 25 -133 C25 -247 178 -259 256 -259 C473 -259 557 -156 557 -63 C557 21 511 72 421 81 C271 97 216 102 195 105 C166 109 155 116 155 133 C155 143 165 158 172 170 C198 161 231 152 285 152 C417 152 512 222 512 326 C512 362 500 396 481 422 L576 378 L597 386 Z M147 -109 C147 -66 163 -46 175 -37 C209 -38 291 -42 354 -52 C403 -60 421 -78 421 -115 C421 -195 359 -216 293 -216 C204 -216 147 -183 147 -109 L147 -109 Z M286 201 C234 201 204 240 204 342 C204 398 209 467 284 467 C334 467 359 422 359 329 C359 272 355 201 286 201 L286 201 Z M373 878 C281 850 182 769 182 673 C182 606 241 560 287 560 C326 560 375 603 385 646 C323 668 298 702 298 739 C298 780 332 825 398 853 L373 878 Z " />
<glyph glyph-name="Hcircumflex" unicode="&#x124;" horiz-adv-x="897" d="M297 389 C297 534 300 600 300 600 C303 634 310 642 345 649 L396 659 L396 705 L217 700 L38 705 L38 659 L89 649 C124 642 133 634 136 600 C136 600 139 514 139 349 C139 184 136 99 136 99 C135 69 124 58 89 51 L38 41 L38 -5 L217 0 L396 -5 L396 41 L345 51 C310 58 301 69 300 99 C300 99 297 179 297 335 L599 335 C599 179 596 99 596 99 C596 69 585 58 550 51 L499 41 L499 -5 L677 0 L859 -5 L859 41 L807 51 C772 58 762 69 761 99 C761 99 758 184 758 349 C758 514 761 600 761 600 C764 634 772 642 807 649 L859 659 L859 705 L677 700 L499 705 L499 659 L550 649 C585 642 594 634 596 600 C596 600 599 534 599 389 L297 389 Z M276 782 L303 763 L449 849 L451 849 L601 762 L624 782 L479 976 L419 976 L276 782 Z " />
<glyph glyph-name="hcircumflex" unicode="&#x125;" horiz-adv-x="628" d="M236 308 C236 377 244 427 316 427 C392 427 398 342 398 277 L398 198 C398 81 395 56 351 41 L331 34 L331 -5 L476 0 L621 -5 L621 34 L592 41 C558 49 547 58 547 89 C547 89 548 252 548 337 C548 445 486 509 384 509 C301 509 249 455 232 423 L224 425 C224 425 236 458 236 554 L236 755 L200 755 L20 720 L20 696 L60 681 C84 671 87 648 87 579 L87 89 C87 58 73 53 40 41 L20 34 L20 -5 L166 0 L298 -5 L298 34 L269 41 C237 49 236 59 236 89 L236 308 Z M136 820 L163 801 L309 887 L311 887 L461 800 L484 820 L339 1014 L279 1014 L136 820 Z " />
<glyph glyph-name="Hbar" unicode="&#x126;" horiz-adv-x="895" d="M837 485 L837 539 L757 539 C758 577 759 600 759 600 C762 634 770 642 805 649 L857 659 L857 705 L677 700 L499 705 L499 659 L550 649 C585 642 594 634 596 600 C596 600 597 580 598 539 L296 539 C297 578 298 600 298 600 C301 634 310 642 345 649 L396 659 L396 705 L217 700 L38 705 L38 659 L89 649 C124 642 133 634 136 600 C136 600 137 579 137 539 L58 539 L58 485 L138 485 C139 448 139 403 139 349 C139 184 136 99 136 99 C135 69 124 58 89 51 L38 41 L38 -5 L217 0 L396 -5 L396 41 L345 51 C310 58 299 69 298 99 C298 99 295 179 295 335 L599 335 C599 179 596 99 596 99 C596 69 585 58 550 51 L499 41 L499 -5 L677 0 L857 -5 L857 41 L805 51 C770 58 760 69 759 99 C759 99 756 184 756 349 L756 485 L837 485 Z M295 389 L295 485 L598 485 C599 458 599 426 599 389 L295 389 Z " />
<glyph glyph-name="hbar" unicode="&#x127;" horiz-adv-x="628" d="M27 559 L87 559 L87 89 C87 58 73 53 40 41 L20 34 L20 -5 L166 0 L298 -5 L298 34 L269 41 C237 49 236 59 236 89 L236 308 C236 377 244 427 316 427 C392 427 398 342 398 277 L398 198 C398 81 396 52 351 41 L331 34 L331 -5 L476 0 L621 -5 L621 34 L592 41 C558 49 547 58 547 89 C547 89 548 252 548 337 C548 445 486 509 384 509 C301 509 249 455 232 423 L224 425 C224 425 236 458 236 554 L236 559 L375 559 L375 613 L236 613 L236 755 L200 755 L20 720 L20 696 L60 681 C78 673 84 648 86 613 L27 613 L27 559 Z " />
<glyph glyph-name="Itilde" unicode="&#x128;" horiz-adv-x="436" d="M217 0 L398 -5 L398 41 L347 51 C312 58 301 69 300 99 C300 99 297 184 297 349 C297 514 300 600 300 600 C303 634 312 642 347 649 L398 659 L398 705 L217 700 L38 705 L38 659 L89 649 C124 642 133 634 136 600 C136 600 139 514 139 349 C139 184 136 99 136 99 C135 69 124 58 89 51 L38 41 L38 -5 L217 0 Z M297 888 C271 888 198 933 154 933 C87 933 42 852 30 800 L63 788 C83 824 101 826 129 826 C161 826 218 783 265 783 C336 783 375 864 388 915 L355 927 C335 890 328 888 297 888 L297 888 Z " />
<glyph glyph-name="itilde" unicode="&#x129;" horiz-adv-x="337" d="M98 89 C98 58 86 50 51 41 L22 34 L22 -5 L173 0 L322 -5 L322 34 L292 41 C257 49 247 58 247 89 L247 345 C247 442 249 515 249 515 L205 515 L28 448 L28 424 L67 409 C93 399 98 376 98 307 L98 89 Z M245 674 C219 674 146 719 102 719 C35 719 -10 638 -22 586 L11 574 C31 610 49 612 77 612 C109 612 166 569 213 569 C284 569 323 650 336 701 L303 713 C283 676 276 674 245 674 L245 674 Z " />
<glyph glyph-name="Imacron" unicode="&#x12a;" horiz-adv-x="436" d="M217 0 L398 -5 L398 41 L347 51 C312 58 301 69 300 99 C300 99 297 184 297 349 C297 514 300 600 300 600 C303 634 312 642 347 649 L398 659 L398 705 L217 700 L38 705 L38 659 L89 649 C124 642 133 634 136 600 C136 600 139 514 139 349 C139 184 136 99 136 99 C135 69 124 58 89 51 L38 41 L38 -5 L217 0 Z M378 793 L378 869 L59 869 L59 793 L378 793 Z " />
<glyph glyph-name="imacron" unicode="&#x12b;" horiz-adv-x="337" d="M98 89 C98 58 86 50 51 41 L22 34 L22 -5 L173 0 L322 -5 L322 34 L292 41 C257 49 247 58 247 89 L247 345 C247 442 249 515 249 515 L205 515 L28 448 L28 424 L67 409 C93 399 98 376 98 307 L98 89 Z M328 579 L328 655 L9 655 L9 579 L328 579 Z " />
<glyph glyph-name="Ibreve" unicode="&#x12c;" horiz-adv-x="436" d="M217 0 L398 -5 L398 41 L347 51 C312 58 301 69 300 99 C300 99 297 184 297 349 C297 514 300 600 300 600 C303 634 312 642 347 649 L398 659 L398 705 L217 700 L38 705 L38 659 L89 649 C124 642 133 634 136 600 C136 600 139 514 139 349 C139 184 136 99 136 99 C135 69 124 58 89 51 L38 41 L38 -5 L217 0 Z M217 891 C125 891 115 935 115 980 L115 985 L64 985 L64 945 C64 847 118 776 217 776 C317 776 371 847 371 945 L371 985 L320 985 L320 980 C320 935 310 891 217 891 L217 891 Z " />
<glyph glyph-name="ibreve" unicode="&#x12d;" horiz-adv-x="337" d="M98 89 C98 58 86 50 51 41 L22 34 L22 -5 L173 0 L322 -5 L322 34 L292 41 C257 49 247 58 247 89 L247 345 C247 442 249 515 249 515 L205 515 L28 448 L28 424 L67 409 C93 399 98 376 98 307 L98 89 Z M168 677 C76 677 66 721 66 766 L66 771 L15 771 L15 731 C15 633 69 562 168 562 C268 562 322 633 322 731 L322 771 L271 771 L271 766 C271 721 261 677 168 677 L168 677 Z " />
<glyph glyph-name="Iogonek" unicode="&#x12e;" horiz-adv-x="436" d="M217 0 L268 -1 C191 -34 130 -94 130 -162 C130 -235 192 -272 266 -272 C293 -272 348 -267 379 -256 L398 -222 C385 -223 374 -224 363 -224 C294 -224 256 -197 256 -138 C256 -75 296 -34 329 -3 L398 -5 L398 41 L347 51 C312 58 301 69 300 99 C300 99 297 184 297 349 C297 514 300 600 300 600 C303 634 312 642 347 649 L398 659 L398 705 L217 700 L38 705 L38 659 L89 649 C124 642 133 634 136 600 C136 600 139 514 139 349 C139 184 136 99 136 99 C135 69 124 58 89 51 L38 41 L38 -5 L217 0 Z " />
<glyph glyph-name="iogonek" unicode="&#x12f;" horiz-adv-x="337" d="M98 89 C98 58 86 50 51 41 L22 34 L22 -5 L173 0 L176 0 C97 -32 35 -93 35 -162 C35 -235 97 -272 171 -272 C198 -272 253 -267 284 -256 L303 -222 C290 -223 279 -224 268 -224 C199 -224 161 -197 161 -138 C161 -74 202 -33 235 -2 L322 -5 L322 34 L292 41 C257 49 247 58 247 89 L247 345 C247 442 249 515 249 515 L205 515 L28 448 L28 424 L67 409 C93 399 98 376 98 307 L98 89 Z M74 682 C74 628 117 585 171 585 C225 585 268 628 268 682 C268 736 225 779 171 779 C117 779 74 736 74 682 L74 682 Z " />
<glyph glyph-name="Idotaccent" unicode="&#x130;" horiz-adv-x="436" d="M217 0 L398 -5 L398 41 L347 51 C312 58 301 69 300 99 C300 99 297 184 297 349 C297 514 300 600 300 600 C303 634 312 642 347 649 L398 659 L398 705 L217 700 L38 705 L38 659 L89 649 C124 642 133 634 136 600 C136 600 139 514 139 349 C139 184 136 99 136 99 C135 69 124 58 89 51 L38 41 L38 -5 L217 0 Z M125 875 C125 824 167 782 218 782 C269 782 311 824 311 875 C311 926 269 968 218 968 C167 968 125 926 125 875 L125 875 Z " />
<glyph glyph-name="dotlessi" unicode="&#x131;" horiz-adv-x="337" d="M98 89 C98 58 86 50 51 41 L22 34 L22 -5 L173 0 L322 -5 L322 34 L292 41 C257 49 247 58 247 89 L247 345 C247 442 249 515 249 515 L205 515 L28 448 L28 424 L67 409 C93 399 98 376 98 307 L98 89 Z " />
<glyph glyph-name="IJ" unicode="&#x132;" horiz-adv-x="843" d="M217 0 L398 -5 L398 41 L347 51 C312 58 301 69 300 99 C300 99 297 184 297 349 C297 514 300 600 300 600 C303 634 312 642 347 649 L398 659 L398 705 L217 700 L38 705 L38 659 L89 649 C124 642 133 634 136 600 C136 600 139 514 139 349 C139 184 136 99 136 99 C135 69 124 58 89 51 L38 41 L38 -5 L217 0 Z M705 349 C705 514 708 600 708 600 C710 634 718 642 754 649 L805 659 L805 705 L627 700 L451 705 L451 659 L498 649 C533 641 543 632 544 600 C544 600 547 514 547 349 C547 204 544 35 544 35 C543 -87 502 -127 421 -145 L437 -190 C565 -181 688 -142 705 0 L805 0 L805 46 L754 53 C718 58 707 71 706 101 C706 101 705 233 705 349 L705 349 Z " />
<glyph glyph-name="ij" unicode="&#x133;" horiz-adv-x="643" d="M98 89 C98 58 86 50 51 41 L22 34 L22 -5 L173 0 L322 -5 L322 34 L292 41 C257 49 247 58 247 89 L247 345 C247 442 249 515 249 515 L205 515 L28 448 L28 424 L67 409 C93 399 98 376 98 307 L98 89 Z M74 682 C74 628 117 585 171 585 C225 585 268 628 268 682 C268 736 225 779 171 779 C117 779 74 736 74 682 L74 682 Z M552 345 C552 442 554 515 554 515 L511 515 L334 448 L334 424 L373 409 C398 399 403 376 403 307 L403 -65 C403 -149 382 -192 312 -216 L328 -251 C474 -269 551 -199 551 -83 L551 0 L627 0 L627 39 L599 46 C564 55 552 64 552 95 L552 345 Z M379 682 C379 628 422 585 476 585 C530 585 573 628 573 682 C573 736 530 779 476 779 C422 779 379 736 379 682 L379 682 Z " />
<glyph glyph-name="Jcircumflex" unicode="&#x134;" horiz-adv-x="424" d="M286 349 C286 514 289 600 289 600 C291 634 299 642 335 649 L386 659 L386 705 L208 700 L32 705 L32 659 L79 649 C114 641 124 632 125 600 C125 600 128 514 128 349 C128 204 125 35 125 35 C124 -87 83 -127 2 -145 L18 -190 C146 -181 269 -142 286 0 L386 0 L386 46 L335 53 C299 58 288 71 287 101 C287 101 286 233 286 349 L286 349 Z M32 782 L59 763 L205 849 L207 849 L357 762 L380 782 L235 976 L175 976 L32 782 Z " />
<glyph glyph-name="jcircumflex" unicode="&#x135;" horiz-adv-x="325" d="M234 345 C234 442 236 515 236 515 L193 515 L16 448 L16 424 L55 409 C80 399 85 376 85 307 L85 -65 C85 -149 64 -192 -6 -216 L10 -251 C156 -269 233 -199 233 -83 L233 0 L309 0 L309 39 L281 46 C246 55 234 64 234 95 L234 345 Z M-24 568 L3 549 L149 635 L151 635 L301 548 L324 568 L179 762 L119 762 L-24 568 Z " />
<glyph glyph-name="Kcommaaccent" unicode="&#x136;" horiz-adv-x="798" d="M218 0 L398 -5 L398 41 L347 51 C312 58 301 69 300 99 C300 99 297 179 297 335 L372 335 C372 335 451 219 586 -3 L638 0 L811 -5 L811 41 L782 47 C757 52 740 66 721 94 L492 427 C513 455 553 504 610 563 C665 621 679 641 711 648 L765 659 L765 705 L628 700 L479 705 L479 659 L520 649 C555 641 572 622 548 590 C466 480 395 389 395 389 L297 389 C297 534 300 600 300 600 C303 634 312 642 347 649 L398 659 L398 705 L218 700 L38 705 L38 659 L89 649 C124 642 133 634 136 600 C136 600 139 514 139 349 C139 184 136 99 136 99 C135 69 124 58 89 51 L38 41 L38 -5 L218 0 Z M316 -386 C408 -358 507 -277 507 -181 C507 -114 448 -68 402 -68 C363 -68 314 -111 304 -154 C366 -176 391 -210 391 -247 C391 -288 357 -333 291 -361 L316 -386 Z " />
<glyph glyph-name="kcommaaccent" unicode="&#x137;" horiz-adv-x="613" d="M239 488 C239 607 242 755 242 755 L206 755 L23 720 L23 696 L62 681 C87 671 90 648 90 579 L90 89 C90 58 79 50 44 41 L15 34 L15 -5 L132 0 L314 -5 L314 34 L286 41 C250 50 239 58 239 89 L239 253 L281 253 C281 253 374 59 403 -2 L428 0 L611 -1 L611 38 L580 47 C552 55 541 62 528 88 L404 327 L484 402 C506 423 536 441 571 451 L597 458 L597 497 L472 492 L339 497 L339 453 L386 448 C412 445 420 422 400 400 L306 302 L239 302 L239 488 Z M223 -386 C315 -358 414 -277 414 -181 C414 -114 355 -68 309 -68 C270 -68 221 -111 211 -154 C273 -176 298 -210 298 -247 C298 -288 264 -333 198 -361 L223 -386 Z " />
<glyph glyph-name="kgreenlandic" unicode="&#x138;" horiz-adv-x="656" d="M249 407 C249 438 261 449 285 455 L314 462 L314 501 L176 496 L24 501 L24 462 L53 455 C88 446 100 438 100 407 L100 89 C100 58 88 50 53 41 L24 34 L24 -5 L176 0 L324 -5 L324 34 L295 41 C259 50 249 58 249 89 L249 233 L290 233 C290 233 422 59 450 -2 L476 0 L658 -1 L658 38 L628 47 C599 55 588 65 571 88 L408 302 L522 405 C545 425 574 444 609 454 L635 461 L635 500 L510 495 L390 500 L390 456 L417 451 C444 447 453 423 432 402 L315 282 L249 282 L249 407 Z " />
<glyph glyph-name="Lacute" unicode="&#x139;" horiz-adv-x="682" d="M301 112 C299 170 297 194 297 359 C297 524 300 600 300 600 C301 634 312 642 347 649 L398 659 L398 705 L218 700 L38 705 L38 659 L89 649 C124 642 135 634 136 600 C136 600 139 524 139 359 C139 194 136 99 136 99 C135 69 124 58 89 51 L38 41 L38 -5 L204 0 L452 0 C508 0 647 -5 647 -5 L670 212 L628 212 L583 126 C546 54 514 56 465 56 L368 56 C319 56 302 69 301 112 L301 112 Z M224 787 L273 781 L468 970 L278 970 L224 787 Z " />
<glyph glyph-name="lacute" unicode="&#x13a;" horiz-adv-x="332" d="M241 451 C241 590 244 755 244 755 L208 755 L24 720 L24 696 L63 681 C88 671 91 648 91 579 L91 89 C91 58 80 49 45 41 L15 34 L15 -5 L166 0 L320 -5 L320 34 L287 41 C251 49 241 58 241 89 L241 451 Z M58 792 L107 786 L302 975 L112 975 L58 792 Z " />
<glyph glyph-name="Lcommaaccent" unicode="&#x13b;" horiz-adv-x="681" d="M301 112 C299 170 297 194 297 359 C297 524 300 600 300 600 C301 634 312 642 347 649 L398 659 L398 705 L218 700 L38 705 L38 659 L89 649 C124 642 135 634 136 600 C136 600 139 524 139 359 C139 194 136 99 136 99 C135 69 124 58 89 51 L38 41 L38 -5 L204 0 L452 0 C508 0 647 -5 647 -5 L670 212 L628 212 L583 126 C546 54 514 56 465 56 L368 56 C319 56 302 69 301 112 L301 112 Z M257 -386 C349 -358 448 -277 448 -181 C448 -114 389 -68 343 -68 C304 -68 255 -111 245 -154 C307 -176 332 -210 332 -247 C332 -288 298 -333 232 -361 L257 -386 Z " />
<glyph glyph-name="lcommaaccent" unicode="&#x13c;" horiz-adv-x="331" d="M240 451 C240 590 243 755 243 755 L207 755 L23 720 L23 696 L62 681 C87 671 90 648 90 579 L90 89 C90 58 79 49 44 41 L14 34 L14 -5 L165 0 L319 -5 L319 34 L286 41 C250 49 240 58 240 89 L240 451 Z M82 -386 C174 -358 273 -277 273 -181 C273 -114 214 -68 168 -68 C129 -68 80 -111 70 -154 C132 -176 157 -210 157 -247 C157 -288 123 -333 57 -361 L82 -386 Z " />
<glyph glyph-name="Lcaron" unicode="&#x13d;" horiz-adv-x="709" d="M301 112 C299 170 297 194 297 359 C297 524 300 600 300 600 C301 634 312 642 347 649 L398 659 L398 705 L218 700 L38 705 L38 659 L89 649 C124 642 135 634 136 600 C136 600 139 524 139 359 C139 194 136 99 136 99 C135 69 124 58 89 51 L38 41 L38 -5 L204 0 L452 0 C508 0 647 -5 647 -5 L670 212 L628 212 L583 126 C546 54 514 56 465 56 L368 56 C319 56 302 69 301 112 L301 112 Z M508 457 C600 485 699 566 699 662 C699 729 640 775 594 775 C555 775 506 732 496 689 C558 667 583 633 583 596 C583 555 549 510 483 482 L508 457 Z " />
<glyph glyph-name="lcaron" unicode="&#x13e;" horiz-adv-x="521" d="M241 451 C241 590 244 755 244 755 L208 755 L24 720 L24 696 L63 681 C88 671 91 648 91 579 L91 89 C91 58 80 49 45 41 L15 34 L15 -5 L166 0 L320 -5 L320 34 L287 41 C251 49 241 58 241 89 L241 451 Z M330 457 C422 485 521 566 521 662 C521 729 462 775 416 775 C377 775 328 732 318 689 C380 667 405 633 405 596 C405 555 371 510 305 482 L330 457 Z " />
<glyph glyph-name="Ldot" unicode="&#x13f;" horiz-adv-x="682" d="M301 112 C299 170 297 194 297 359 C297 524 300 600 300 600 C301 634 312 642 347 649 L398 659 L398 705 L218 700 L38 705 L38 659 L89 649 C124 642 135 634 136 600 C136 600 139 524 139 359 C139 194 136 99 136 99 C135 69 124 58 89 51 L38 41 L38 -5 L204 0 L452 0 C508 0 647 -5 647 -5 L670 212 L628 212 L583 126 C546 54 514 56 465 56 L368 56 C319 56 302 69 301 112 L301 112 Z M408 364 C408 316 448 277 496 277 C543 277 583 316 583 364 C583 411 543 451 496 451 C448 451 408 411 408 364 L408 364 Z " />
<glyph glyph-name="ldot" unicode="&#x140;" horiz-adv-x="473" d="M241 451 C241 590 244 755 244 755 L208 755 L24 720 L24 696 L63 681 C88 671 91 648 91 579 L91 89 C91 58 80 49 45 41 L15 34 L15 -5 L166 0 L320 -5 L320 34 L287 41 C251 49 241 58 241 89 L241 451 Z M317 364 C317 316 357 277 405 277 C452 277 492 316 492 364 C492 411 452 451 405 451 C357 451 317 411 317 364 L317 364 Z " />
<glyph glyph-name="Lslash" unicode="&#x141;" horiz-adv-x="683" d="M301 112 C299 167 297 194 297 336 L463 403 L463 459 L297 392 C297 532 300 600 300 600 C301 634 312 642 347 649 L398 659 L398 705 L218 700 L38 705 L38 659 L89 649 C124 642 135 634 136 600 C136 600 139 524 139 359 L139 328 L47 292 L47 236 L139 273 C138 163 136 99 136 99 C135 69 124 58 89 51 L38 41 L38 -5 L204 0 L452 0 C508 0 647 -5 647 -5 L670 212 L628 212 L583 126 C546 54 514 56 465 56 L368 56 C319 56 302 69 301 112 L301 112 Z " />
<glyph glyph-name="lslash" unicode="&#x142;" horiz-adv-x="337" d="M15 292 L15 236 L93 266 L93 89 C93 58 81 49 46 41 L17 34 L17 -5 L149 0 L322 -5 L322 34 L289 41 C252 49 243 58 243 89 L243 309 L321 340 L321 396 L243 365 L243 451 C243 590 246 755 246 755 L210 755 L25 720 L25 696 L64 681 C90 671 93 648 93 579 L93 322 L15 292 Z " />
<glyph glyph-name="Nacute" unicode="&#x143;" horiz-adv-x="891" d="M141 600 C141 495 133 181 131 99 C130 68 120 58 84 51 L33 41 L33 -5 L162 0 L294 -5 L294 41 L242 51 C207 58 196 68 196 99 C196 233 195 613 195 613 C195 613 399 350 657 -5 L764 -5 C764 346 768 600 768 600 C768 632 779 642 815 649 L866 659 L866 705 L738 700 L606 705 L606 659 L658 649 C693 642 703 632 704 600 L712 178 L389 613 C359 654 342 705 342 705 L189 700 L46 705 L46 659 L95 649 C130 642 141 631 141 600 L141 600 Z M384 787 L433 781 L628 970 L438 970 L384 787 Z " />
<glyph glyph-name="nacute" unicode="&#x144;" horiz-adv-x="635" d="M554 89 C554 89 555 252 555 337 C555 445 493 509 391 509 C308 509 256 455 239 423 L231 425 L233 515 L204 515 L26 448 L26 424 L65 409 C91 399 94 386 94 317 L94 89 C94 58 80 53 47 41 L27 34 L27 -5 L173 0 L305 -5 L305 34 L276 41 C244 49 243 59 243 89 L243 308 C243 377 251 427 323 427 C399 427 405 342 405 277 L405 198 C405 81 402 56 358 41 L338 34 L338 -5 L483 0 L628 -5 L628 34 L599 41 C565 49 554 58 554 89 L554 89 Z M216 573 L265 567 L460 756 L270 756 L216 573 Z " />
<glyph glyph-name="Ncommaaccent" unicode="&#x145;" horiz-adv-x="891" d="M141 600 C141 495 133 181 131 99 C130 68 120 58 84 51 L33 41 L33 -5 L162 0 L294 -5 L294 41 L242 51 C207 58 196 68 196 99 C196 233 195 613 195 613 C195 613 399 350 657 -5 L764 -5 C764 346 768 600 768 600 C768 632 779 642 815 649 L866 659 L866 705 L738 700 L606 705 L606 659 L658 649 C693 642 703 632 704 600 L712 178 L389 613 C359 654 342 705 342 705 L189 700 L46 705 L46 659 L95 649 C130 642 141 631 141 600 L141 600 Z M343 -386 C435 -358 534 -277 534 -181 C534 -114 475 -68 429 -68 C390 -68 341 -111 331 -154 C393 -176 418 -210 418 -247 C418 -288 384 -333 318 -361 L343 -386 Z " />
<glyph glyph-name="ncommaaccent" unicode="&#x146;" horiz-adv-x="636" d="M555 89 C555 89 556 252 556 337 C556 445 494 509 392 509 C309 509 257 455 240 423 L232 425 L234 515 L205 515 L27 448 L27 424 L66 409 C92 399 95 386 95 317 L95 89 C95 58 81 53 48 41 L28 34 L28 -5 L174 0 L306 -5 L306 34 L277 41 C245 49 244 59 244 89 L244 308 C244 377 252 427 324 427 C400 427 406 342 406 277 L406 198 C406 81 403 56 359 41 L339 34 L339 -5 L484 0 L629 -5 L629 34 L600 41 C566 49 555 58 555 89 L555 89 Z M234 -386 C326 -358 425 -277 425 -181 C425 -114 366 -68 320 -68 C281 -68 232 -111 222 -154 C284 -176 309 -210 309 -247 C309 -288 275 -333 209 -361 L234 -386 Z " />
<glyph glyph-name="Ncaron" unicode="&#x147;" horiz-adv-x="891" d="M141 600 C141 495 133 181 131 99 C130 68 120 58 84 51 L33 41 L33 -5 L162 0 L294 -5 L294 41 L242 51 C207 58 196 68 196 99 C196 233 195 613 195 613 C195 613 399 350 657 -5 L764 -5 C764 346 768 600 768 600 C768 632 779 642 815 649 L866 659 L866 705 L738 700 L606 705 L606 659 L658 649 C693 642 703 632 704 600 L712 178 L389 613 C359 654 342 705 342 705 L189 700 L46 705 L46 659 L95 649 C130 642 141 631 141 600 L141 600 Z M420 763 L480 763 L625 957 L602 977 L452 889 L450 889 L304 976 L277 957 L420 763 Z " />
<glyph glyph-name="ncaron" unicode="&#x148;" horiz-adv-x="635" d="M554 89 C554 89 555 252 555 337 C555 445 493 509 391 509 C308 509 256 455 239 423 L231 425 L233 515 L204 515 L26 448 L26 424 L65 409 C91 399 94 386 94 317 L94 89 C94 58 80 53 47 41 L27 34 L27 -5 L173 0 L305 -5 L305 34 L276 41 C244 49 243 59 243 89 L243 308 C243 377 251 427 323 427 C399 427 405 342 405 277 L405 198 C405 81 402 56 358 41 L338 34 L338 -5 L483 0 L628 -5 L628 34 L599 41 C565 49 554 58 554 89 L554 89 Z M285 549 L345 549 L490 743 L467 763 L317 675 L315 675 L169 762 L142 743 L285 549 Z " />
<glyph glyph-name="napostrophe" unicode="&#x149;" horiz-adv-x="635" d="M554 89 C554 89 555 252 555 337 C555 445 493 509 391 509 C308 509 256 455 239 423 L231 425 L233 515 L204 515 L26 448 L26 424 L65 409 C91 399 94 386 94 317 L94 89 C94 58 80 53 47 41 L27 34 L27 -5 L173 0 L305 -5 L305 34 L276 41 C244 49 243 59 243 89 L243 308 C243 377 251 427 323 427 C399 427 405 342 405 277 L405 198 C405 81 402 56 358 41 L338 34 L338 -5 L483 0 L628 -5 L628 34 L599 41 C565 49 554 58 554 89 L554 89 Z M47 520 C139 548 238 629 238 725 C238 792 179 838 133 838 C94 838 45 795 35 752 C97 730 122 696 122 659 C122 618 88 573 22 545 L47 520 Z " />
<glyph glyph-name="Eng" unicode="&#x14a;" horiz-adv-x="890" d="M140 600 C140 416 138 267 131 99 C130 68 120 58 84 51 L33 41 L33 -5 L160 0 L292 -5 L292 41 L240 51 C205 58 194 68 194 99 C194 233 193 613 193 613 C193 613 367 381 597 66 L597 -47 C596 -169 552 -179 471 -197 L487 -242 C665 -245 757 -179 759 -52 C762 181 766 600 766 600 C766 632 777 642 813 649 L864 659 L864 705 L736 700 L604 705 L604 659 L656 649 C691 642 701 632 702 600 L708 174 L387 613 C357 654 340 705 340 705 L187 700 L46 705 L46 659 L95 649 C130 642 140 631 140 600 L140 600 Z " />
<glyph glyph-name="eng" unicode="&#x14b;" horiz-adv-x="635" d="M405 -65 C405 -149 384 -192 314 -216 L330 -251 C476 -269 553 -199 553 -83 L553 -2 L628 -5 L628 34 L599 41 C565 49 554 58 554 89 C554 89 555 252 555 337 C555 445 493 509 391 509 C308 509 256 455 239 423 L231 425 L233 515 L204 515 L26 448 L26 424 L65 409 C91 399 94 386 94 317 L94 89 C94 58 80 53 47 41 L27 34 L27 -5 L173 0 L305 -5 L305 34 L276 41 C244 49 243 59 243 89 L243 308 C243 377 251 427 323 427 C399 427 405 342 405 277 L405 -65 Z " />
<glyph glyph-name="Omacron" unicode="&#x14c;" horiz-adv-x="837" d="M427 42 C303 42 211 135 211 363 C211 493 245 658 421 658 C545 658 626 563 626 336 C626 206 601 42 427 42 L427 42 Z M418 715 C199 714 43 556 43 343 C43 100 251 -15 410 -15 C628 -15 794 141 794 354 C794 596 607 715 418 715 L418 715 Z M578 793 L578 869 L259 869 L259 793 L578 793 Z " />
<glyph glyph-name="omacron" unicode="&#x14d;" horiz-adv-x="591" d="M290 -15 C451 -15 558 98 558 253 C558 442 413 509 302 509 C134 509 32 391 32 244 C32 74 159 -15 290 -15 L290 -15 Z M297 32 C230 32 189 103 189 257 C189 345 199 462 292 462 C355 462 401 390 401 239 C401 151 393 32 297 32 L297 32 Z M455 579 L455 655 L136 655 L136 579 L455 579 Z " />
<glyph glyph-name="Obreve" unicode="&#x14e;" horiz-adv-x="837" d="M427 42 C303 42 211 135 211 363 C211 493 245 658 421 658 C545 658 626 563 626 336 C626 206 601 42 427 42 L427 42 Z M418 715 C199 714 43 556 43 343 C43 100 251 -15 410 -15 C628 -15 794 141 794 354 C794 596 607 715 418 715 L418 715 Z M420 891 C328 891 318 935 318 980 L318 985 L267 985 L267 945 C267 847 321 776 420 776 C520 776 574 847 574 945 L574 985 L523 985 L523 980 C523 935 513 891 420 891 L420 891 Z " />
<glyph glyph-name="obreve" unicode="&#x14f;" horiz-adv-x="591" d="M290 -15 C451 -15 558 98 558 253 C558 442 413 509 302 509 C134 509 32 391 32 244 C32 74 159 -15 290 -15 L290 -15 Z M297 32 C230 32 189 103 189 257 C189 345 199 462 292 462 C355 462 401 390 401 239 C401 151 393 32 297 32 L297 32 Z M295 677 C203 677 193 721 193 766 L193 771 L142 771 L142 731 C142 633 196 562 295 562 C395 562 449 633 449 731 L449 771 L398 771 L398 766 C398 721 388 677 295 677 L295 677 Z " />
<glyph glyph-name="Ohungarumlaut" unicode="&#x150;" horiz-adv-x="837" d="M427 42 C303 42 211 135 211 363 C211 493 245 658 421 658 C545 658 626 563 626 336 C626 206 601 42 427 42 L427 42 Z M418 715 C199 714 43 556 43 343 C43 100 251 -15 410 -15 C628 -15 794 141 794 354 C794 596 607 715 418 715 L418 715 Z M248 787 L297 781 L462 970 L292 970 L248 787 Z M438 787 L487 781 L652 970 L482 970 L438 787 Z " />
<glyph glyph-name="ohungarumlaut" unicode="&#x151;" horiz-adv-x="591" d="M290 -15 C451 -15 558 98 558 253 C558 442 413 509 302 509 C134 509 32 391 32 244 C32 74 159 -15 290 -15 L290 -15 Z M297 32 C230 32 189 103 189 257 C189 345 199 462 292 462 C355 462 401 390 401 239 C401 151 393 32 297 32 L297 32 Z M138 573 L187 567 L352 756 L182 756 L138 573 Z M328 573 L377 567 L542 756 L372 756 L328 573 Z " />
<glyph glyph-name="OE" unicode="&#x152;" horiz-adv-x="1165" d="M538 652 C582 648 587 626 587 583 L587 50 C587 50 534 51 490 51 C319 51 217 151 217 343 C217 595 356 654 494 654 C512 654 521 653 538 652 L538 652 Z M909 0 C966 0 1105 -5 1105 -5 C1110 67 1128 212 1128 212 L1081 212 L1043 136 C1006 64 967 56 918 56 L814 56 C766 56 745 76 745 119 L745 336 C745 336 796 336 852 333 C883 331 895 319 904 282 L917 227 L965 227 L960 359 L965 497 L917 497 L904 442 C895 405 883 393 852 391 C796 388 745 388 745 388 L745 629 C745 639 746 645 762 645 L938 645 C977 645 992 609 1011 547 L1023 508 L1072 508 C1081 650 1089 711 1089 711 C1089 711 994 700 938 700 L635 700 C579 704 443 711 442 711 C236 711 44 592 44 337 C44 151 169 -8 411 -8 C440 -8 516 -5 586 0 L909 0 Z " />
<glyph glyph-name="oe" unicode="&#x153;" horiz-adv-x="892" d="M290 -15 C363 -15 425 8 471 48 C514 5 572 -15 632 -15 C715 -15 803 13 850 96 L822 127 C803 99 754 75 701 75 C625 75 556 142 556 266 L556 283 L861 281 L861 311 C861 433 779 509 647 509 C582 509 525 482 482 441 C431 489 362 509 302 509 C134 509 32 391 32 244 C32 74 159 -15 290 -15 L290 -15 Z M704 329 L559 326 C565 409 582 464 641 464 C696 464 706 412 704 329 L704 329 Z M297 32 C230 32 189 103 189 257 C189 345 199 462 292 462 C355 462 401 390 401 239 C401 151 393 32 297 32 L297 32 Z " />
<glyph glyph-name="Racute" unicode="&#x154;" horiz-adv-x="777" d="M139 349 C139 184 136 99 136 99 C136 69 124 58 89 51 L38 41 L38 -5 L223 0 L399 -5 L399 41 L347 51 C311 58 301 68 300 99 C297 216 297 314 297 314 L382 314 C409 273 480 139 512 91 C535 56 560 23 597 8 C630 -5 676 -8 728 -8 C750 -8 772 -7 795 -7 L806 40 C783 43 762 54 742 71 C703 104 667 151 644 185 L524 359 C611 386 665 454 665 526 C665 675 538 711 455 711 C393 711 239 702 239 702 L38 705 L38 659 L89 649 C124 642 133 634 136 600 C136 600 139 514 139 349 L139 349 Z M361 656 C447 656 499 615 499 515 C499 401 420 365 382 365 C341 365 319 368 297 375 L297 640 C297 650 298 656 314 656 L361 656 Z M250 787 L299 781 L494 970 L304 970 L250 787 Z " />
<glyph glyph-name="racute" unicode="&#x155;" horiz-adv-x="462" d="M228 403 L233 515 L204 515 L26 448 L26 424 L65 409 C91 399 94 376 94 307 L94 89 C94 58 80 53 47 41 L27 34 L27 -5 L172 0 L332 -5 L332 34 L289 41 C254 47 243 58 243 89 L243 361 L292 380 C330 373 384 334 384 334 L396 334 C436 356 457 388 457 424 C457 468 432 505 372 505 C316 505 264 443 236 401 L228 403 Z M107 573 L156 567 L351 756 L161 756 L107 573 Z " />
<glyph glyph-name="Rcommaaccent" unicode="&#x156;" horiz-adv-x="777" d="M139 349 C139 184 136 99 136 99 C136 69 124 58 89 51 L38 41 L38 -5 L223 0 L399 -5 L399 41 L347 51 C311 58 301 68 300 99 C297 216 297 314 297 314 L382 314 C409 273 480 139 512 91 C535 56 560 23 597 8 C630 -5 676 -8 728 -8 C750 -8 772 -7 795 -7 L806 40 C783 43 762 54 742 71 C703 104 667 151 644 185 L524 359 C611 386 665 454 665 526 C665 675 538 711 455 711 C393 711 239 702 239 702 L38 705 L38 659 L89 649 C124 642 133 634 136 600 C136 600 139 514 139 349 L139 349 Z M361 656 C447 656 499 615 499 515 C499 401 420 365 382 365 C341 365 319 368 297 375 L297 640 C297 650 298 656 314 656 L361 656 Z M305 -386 C397 -358 496 -277 496 -181 C496 -114 437 -68 391 -68 C352 -68 303 -111 293 -154 C355 -176 380 -210 380 -247 C380 -288 346 -333 280 -361 L305 -386 Z " />
<glyph glyph-name="rcommaaccent" unicode="&#x157;" horiz-adv-x="463" d="M229 403 L234 515 L205 515 L27 448 L27 424 L66 409 C92 399 95 376 95 307 L95 89 C95 58 81 53 48 41 L28 34 L28 -5 L173 0 L333 -5 L333 34 L290 41 C255 47 244 58 244 89 L244 361 L293 380 C331 373 385 334 385 334 L397 334 C437 356 458 388 458 424 C458 468 433 505 373 505 C317 505 265 443 237 401 L229 403 Z M148 -386 C240 -358 339 -277 339 -181 C339 -114 280 -68 234 -68 C195 -68 146 -111 136 -154 C198 -176 223 -210 223 -247 C223 -288 189 -333 123 -361 L148 -386 Z " />
<glyph glyph-name="Rcaron" unicode="&#x158;" horiz-adv-x="777" d="M139 349 C139 184 136 99 136 99 C136 69 124 58 89 51 L38 41 L38 -5 L223 0 L399 -5 L399 41 L347 51 C311 58 301 68 300 99 C297 216 297 314 297 314 L382 314 C409 273 480 139 512 91 C535 56 560 23 597 8 C630 -5 676 -8 728 -8 C750 -8 772 -7 795 -7 L806 40 C783 43 762 54 742 71 C703 104 667 151 644 185 L524 359 C611 386 665 454 665 526 C665 675 538 711 455 711 C393 711 239 702 239 702 L38 705 L38 659 L89 649 C124 642 133 634 136 600 C136 600 139 514 139 349 L139 349 Z M361 656 C447 656 499 615 499 515 C499 401 420 365 382 365 C341 365 319 368 297 375 L297 640 C297 650 298 656 314 656 L361 656 Z M334 769 L394 769 L539 963 L516 983 L366 895 L364 895 L218 982 L191 963 L334 769 Z " />
<glyph glyph-name="rcaron" unicode="&#x159;" horiz-adv-x="462" d="M228 403 L233 515 L204 515 L26 448 L26 424 L65 409 C91 399 94 376 94 307 L94 89 C94 58 80 53 47 41 L27 34 L27 -5 L172 0 L332 -5 L332 34 L289 41 C254 47 243 58 243 89 L243 361 L292 380 C330 373 384 334 384 334 L396 334 C436 356 457 388 457 424 C457 468 432 505 372 505 C316 505 264 443 236 401 L228 403 Z M193 549 L253 549 L398 743 L375 763 L225 675 L223 675 L77 762 L50 743 L193 549 Z " />
<glyph glyph-name="Sacute" unicode="&#x15a;" horiz-adv-x="616" d="M144 114 C111 190 104 231 104 231 L51 226 C57 126 57 39 57 21 C109 6 177 -14 285 -14 C452 -14 569 76 569 209 C569 383 367 411 266 475 C236 494 211 523 211 565 C211 636 282 660 334 660 C407 660 436 643 446 617 C467 561 482 509 481 509 L526 509 C533 591 544 683 544 683 C536 688 416 715 328 715 C148 715 69 610 69 522 C69 421 120 374 187 335 C282 280 421 266 421 158 C421 79 361 41 296 41 C224 41 165 65 144 114 L144 114 Z M234 787 L283 781 L478 970 L288 970 L234 787 Z " />
<glyph glyph-name="sacute" unicode="&#x15b;" horiz-adv-x="463" d="M45 168 L45 13 C45 13 126 -15 220 -15 C348 -15 429 42 429 149 C429 260 325 288 252 324 C214 343 183 362 183 399 C183 440 215 462 261 462 C290 462 318 448 323 430 L348 349 L400 349 L410 491 C372 500 290 509 240 509 C143 509 43 464 43 356 C43 285 87 246 138 219 C210 182 296 167 296 101 C296 53 259 32 218 32 C176 32 144 51 127 89 C111 125 98 168 98 168 L45 168 Z M142 573 L191 567 L386 756 L196 756 L142 573 Z " />
<glyph glyph-name="Scircumflex" unicode="&#x15c;" horiz-adv-x="616" d="M144 114 C111 190 104 231 104 231 L51 226 C57 126 57 39 57 21 C109 6 177 -14 285 -14 C452 -14 569 76 569 209 C569 383 367 411 266 475 C236 494 211 523 211 565 C211 636 282 660 334 660 C407 660 436 643 446 617 C467 561 482 509 481 509 L526 509 C533 591 544 683 544 683 C536 688 416 715 328 715 C148 715 69 610 69 522 C69 421 120 374 187 335 C282 280 421 266 421 158 C421 79 361 41 296 41 C224 41 165 65 144 114 L144 114 Z M127 782 L154 763 L300 849 L302 849 L452 762 L475 782 L330 976 L270 976 L127 782 Z " />
<glyph glyph-name="scircumflex" unicode="&#x15d;" horiz-adv-x="463" d="M45 168 L45 13 C45 13 126 -15 220 -15 C348 -15 429 42 429 149 C429 260 325 288 252 324 C214 343 183 362 183 399 C183 440 215 462 261 462 C290 462 318 448 323 430 L348 349 L400 349 L410 491 C372 500 290 509 240 509 C143 509 43 464 43 356 C43 285 87 246 138 219 C210 182 296 167 296 101 C296 53 259 32 218 32 C176 32 144 51 127 89 C111 125 98 168 98 168 L45 168 Z M52 568 L79 549 L225 635 L227 635 L377 548 L400 568 L255 762 L195 762 L52 568 Z " />
<glyph glyph-name="Scedilla" unicode="&#x15e;" horiz-adv-x="616" d="M144 114 C111 190 104 231 104 231 L51 226 C57 126 57 39 57 21 C104 7 164 -10 254 -13 L171 -81 C202 -89 289 -116 289 -183 C289 -225 257 -243 215 -243 C187 -243 176 -236 158 -228 L151 -264 C179 -281 222 -292 267 -292 C344 -292 424 -259 424 -171 C424 -74 320 -56 274 -55 L310 -13 C463 -5 569 83 569 209 C569 383 367 411 266 475 C236 494 211 523 211 565 C211 636 282 660 334 660 C407 660 436 643 446 617 C467 561 482 509 481 509 L526 509 C533 591 544 683 544 683 C536 688 416 715 328 715 C148 715 69 610 69 522 C69 421 120 374 187 335 C282 280 421 266 421 158 C421 79 361 41 296 41 C224 41 165 65 144 114 L144 114 Z " />
<glyph glyph-name="scedilla" unicode="&#x15f;" horiz-adv-x="463" d="M45 168 L45 13 C45 13 104 -7 180 -13 L97 -81 C128 -89 215 -116 215 -183 C215 -225 183 -243 141 -243 C113 -243 102 -236 84 -228 L77 -264 C105 -281 148 -292 193 -292 C270 -292 350 -259 350 -171 C350 -74 246 -56 200 -55 L235 -14 C354 -10 429 46 429 149 C429 260 325 288 252 324 C214 343 183 362 183 399 C183 440 215 462 261 462 C290 462 318 448 323 430 L348 349 L400 349 L410 491 C372 500 290 509 240 509 C143 509 43 464 43 356 C43 285 87 246 138 219 C210 182 296 167 296 101 C296 53 259 32 218 32 C176 32 144 51 127 89 C111 125 98 168 98 168 L45 168 Z " />
<glyph glyph-name="Scaron" unicode="&#x160;" horiz-adv-x="616" d="M144 114 C111 190 104 231 104 231 L51 226 C57 126 57 39 57 21 C109 6 177 -14 285 -14 C452 -14 569 76 569 209 C569 383 367 411 266 475 C236 494 211 523 211 565 C211 636 282 660 334 660 C407 660 436 643 446 617 C467 561 482 509 481 509 L526 509 C533 591 544 683 544 683 C536 688 416 715 328 715 C148 715 69 610 69 522 C69 421 120 374 187 335 C282 280 421 266 421 158 C421 79 361 41 296 41 C224 41 165 65 144 114 L144 114 Z M270 763 L330 763 L475 957 L452 977 L302 889 L300 889 L154 976 L127 957 L270 763 Z " />
<glyph glyph-name="scaron" unicode="&#x161;" horiz-adv-x="463" d="M45 168 L45 13 C45 13 126 -15 220 -15 C348 -15 429 42 429 149 C429 260 325 288 252 324 C214 343 183 362 183 399 C183 440 215 462 261 462 C290 462 318 448 323 430 L348 349 L400 349 L410 491 C372 500 290 509 240 509 C143 509 43 464 43 356 C43 285 87 246 138 219 C210 182 296 167 296 101 C296 53 259 32 218 32 C176 32 144 51 127 89 C111 125 98 168 98 168 L45 168 Z M195 549 L255 549 L400 743 L377 763 L227 675 L225 675 L79 762 L52 743 L195 549 Z " />
<glyph glyph-name="Tcommaaccent" unicode="&#x162;" horiz-adv-x="728" d="M173 700 C91 700 26 711 26 711 C26 711 24 589 16 498 L63 498 L81 557 C100 621 127 640 166 641 L283 644 C283 644 286 514 286 349 C286 184 283 99 283 99 C282 69 271 58 236 51 L185 41 L185 -5 L366 0 L544 -5 L544 41 L494 51 C458 58 448 69 447 99 C447 99 444 184 444 349 C444 514 447 644 447 644 L564 641 C603 640 631 621 649 557 L665 498 L712 498 C705 589 704 711 704 711 C704 711 639 701 557 700 L364 697 L173 700 Z M261 -386 C353 -358 452 -277 452 -181 C452 -114 393 -68 347 -68 C308 -68 259 -111 249 -154 C311 -176 336 -210 336 -247 C336 -288 302 -333 236 -361 L261 -386 Z " />
<glyph glyph-name="tcommaaccent" unicode="&#x163;" horiz-adv-x="408" d="M183 631 C159 536 128 490 3 482 L3 427 L89 427 L89 121 C89 35 150 -15 243 -15 C302 -15 374 13 402 62 L386 98 C372 83 335 66 310 66 C259 66 238 100 238 150 L238 427 L381 412 L387 484 L238 484 L238 631 L183 631 Z M121 -386 C213 -358 312 -277 312 -181 C312 -114 253 -68 207 -68 C168 -68 119 -111 109 -154 C171 -176 196 -210 196 -247 C196 -288 162 -333 96 -361 L121 -386 Z " />
<glyph glyph-name="Tcaron" unicode="&#x164;" horiz-adv-x="730" d="M174 700 C92 700 27 711 27 711 C27 711 25 589 17 498 L64 498 L82 557 C101 621 128 640 167 641 L284 644 C284 644 287 514 287 349 C287 184 284 99 284 99 C283 69 272 58 237 51 L186 41 L186 -5 L367 0 L545 -5 L545 41 L495 51 C459 58 449 69 448 99 C448 99 445 184 445 349 C445 514 448 644 448 644 L565 641 C604 640 632 621 650 557 L666 498 L713 498 C706 589 705 711 705 711 C705 711 640 701 558 700 L365 697 L174 700 Z M333 763 L393 763 L538 957 L515 977 L365 889 L363 889 L217 976 L190 957 L333 763 Z " />
<glyph glyph-name="tcaron" unicode="&#x165;" horiz-adv-x="408" d="M183 631 C159 536 128 490 3 482 L3 427 L89 427 L89 121 C89 35 150 -15 243 -15 C302 -15 374 13 402 62 L386 98 C372 83 335 66 310 66 C259 66 238 100 238 150 L238 427 L381 412 L387 484 L238 484 L238 631 L183 631 Z M312 560 C404 588 503 669 503 765 C503 832 444 878 398 878 C359 878 310 835 300 792 C362 770 387 736 387 699 C387 658 353 613 287 585 L312 560 Z " />
<glyph glyph-name="Tbar" unicode="&#x166;" horiz-adv-x="730" d="M575 335 L575 389 L445 389 C445 533 448 644 448 644 L565 641 C604 640 632 621 650 557 L666 498 L713 498 C706 589 705 711 705 711 C705 711 640 701 558 700 L365 697 L174 700 C92 701 27 711 27 711 C27 711 25 589 17 498 L64 498 L82 557 C101 621 128 640 167 641 L284 644 C284 644 286 534 287 389 L157 389 L157 335 L287 335 C287 180 284 99 284 99 C283 69 272 58 237 51 L186 41 L186 -5 L367 0 L545 -5 L545 41 L495 51 C459 58 449 69 448 99 C448 99 445 180 445 335 L575 335 Z " />
<glyph glyph-name="tbar" unicode="&#x167;" horiz-adv-x="412" d="M187 631 C163 536 132 487 7 479 L7 424 L93 424 L93 328 L11 328 L11 271 L93 271 L93 121 C93 35 146 -15 239 -15 C298 -15 370 13 398 62 L382 98 C368 83 331 66 306 66 C255 66 242 100 242 150 L242 271 L371 271 L371 328 L242 328 L242 433 L385 418 L391 485 L242 485 L242 631 L187 631 Z " />
<glyph glyph-name="Utilde" unicode="&#x168;" horiz-adv-x="847" d="M275 600 C275 632 287 642 322 649 L372 659 L372 705 L186 700 L19 705 L19 659 L70 649 C105 642 117 632 117 600 L117 240 C117 73 250 -15 425 -15 C606 -15 730 79 730 259 C730 259 732 519 732 600 C732 632 744 642 779 649 L830 659 L830 705 L699 700 L569 705 L569 659 L620 649 C655 642 667 632 667 600 C667 562 669 363 669 258 C669 170 615 56 460 56 C363 56 275 96 275 248 L275 600 Z M511 888 C485 888 412 933 368 933 C301 933 256 852 244 800 L277 788 C297 824 315 826 343 826 C375 826 432 783 479 783 C550 783 589 864 602 915 L569 927 C549 890 542 888 511 888 L511 888 Z " />
<glyph glyph-name="utilde" unicode="&#x169;" horiz-adv-x="624" d="M533 185 C533 365 538 499 538 499 L426 492 L314 488 L314 449 L343 443 C379 436 384 419 384 388 L384 145 C384 95 347 77 316 77 C263 77 228 102 228 190 C228 246 227 435 233 499 L121 491 L19 488 L19 449 L39 443 C73 433 79 419 79 388 C79 388 78 241 78 156 C78 48 135 -15 236 -15 C315 -15 365 40 381 66 L390 65 L387 -8 L423 -8 L609 16 L609 54 C581 55 541 56 537 85 C534 107 533 147 533 185 L533 185 Z M402 674 C376 674 303 719 259 719 C192 719 147 638 135 586 L168 574 C188 610 206 612 234 612 C266 612 323 569 370 569 C441 569 480 650 493 701 L460 713 C440 676 433 674 402 674 L402 674 Z " />
<glyph glyph-name="Umacron" unicode="&#x16a;" horiz-adv-x="847" d="M275 600 C275 632 287 642 322 649 L372 659 L372 705 L186 700 L19 705 L19 659 L70 649 C105 642 117 632 117 600 L117 240 C117 73 250 -15 425 -15 C606 -15 730 79 730 259 C730 259 732 519 732 600 C732 632 744 642 779 649 L830 659 L830 705 L699 700 L569 705 L569 659 L620 649 C655 642 667 632 667 600 C667 562 669 363 669 258 C669 170 615 56 460 56 C363 56 275 96 275 248 L275 600 Z M584 793 L584 869 L265 869 L265 793 L584 793 Z " />
<glyph glyph-name="umacron" unicode="&#x16b;" horiz-adv-x="624" d="M533 185 C533 365 538 499 538 499 L426 492 L314 488 L314 449 L343 443 C379 436 384 419 384 388 L384 145 C384 95 347 77 316 77 C263 77 228 102 228 190 C228 246 227 435 233 499 L121 491 L19 488 L19 449 L39 443 C73 433 79 419 79 388 C79 388 78 241 78 156 C78 48 135 -15 236 -15 C315 -15 365 40 381 66 L390 65 L387 -8 L423 -8 L609 16 L609 54 C581 55 541 56 537 85 C534 107 533 147 533 185 L533 185 Z M470 579 L470 655 L151 655 L151 579 L470 579 Z " />
<glyph glyph-name="Ubreve" unicode="&#x16c;" horiz-adv-x="847" d="M275 600 C275 632 287 642 322 649 L372 659 L372 705 L186 700 L19 705 L19 659 L70 649 C105 642 117 632 117 600 L117 240 C117 73 250 -15 425 -15 C606 -15 730 79 730 259 C730 259 732 519 732 600 C732 632 744 642 779 649 L830 659 L830 705 L699 700 L569 705 L569 659 L620 649 C655 642 667 632 667 600 C667 562 669 363 669 258 C669 170 615 56 460 56 C363 56 275 96 275 248 L275 600 Z M423 891 C331 891 321 935 321 980 L321 985 L270 985 L270 945 C270 847 324 776 423 776 C523 776 577 847 577 945 L577 985 L526 985 L526 980 C526 935 516 891 423 891 L423 891 Z " />
<glyph glyph-name="ubreve" unicode="&#x16d;" horiz-adv-x="624" d="M533 185 C533 365 538 499 538 499 L426 492 L314 488 L314 449 L343 443 C379 436 384 419 384 388 L384 145 C384 95 347 77 316 77 C263 77 228 102 228 190 C228 246 227 435 233 499 L121 491 L19 488 L19 449 L39 443 C73 433 79 419 79 388 C79 388 78 241 78 156 C78 48 135 -15 236 -15 C315 -15 365 40 381 66 L390 65 L387 -8 L423 -8 L609 16 L609 54 C581 55 541 56 537 85 C534 107 533 147 533 185 L533 185 Z M313 677 C221 677 211 721 211 766 L211 771 L160 771 L160 731 C160 633 214 562 313 562 C413 562 467 633 467 731 L467 771 L416 771 L416 766 C416 721 406 677 313 677 L313 677 Z " />
<glyph glyph-name="Uring" unicode="&#x16e;" horiz-adv-x="847" d="M275 600 C275 632 287 642 322 649 L372 659 L372 705 L186 700 L19 705 L19 659 L70 649 C105 642 117 632 117 600 L117 240 C117 73 250 -15 425 -15 C606 -15 730 79 730 259 C730 259 732 519 732 600 C732 632 744 642 779 649 L830 659 L830 705 L699 700 L569 705 L569 659 L620 649 C655 642 667 632 667 600 C667 562 669 363 669 258 C669 170 615 56 460 56 C363 56 275 96 275 248 L275 600 Z M342 896 C342 945 373 981 423 981 C473 981 505 945 505 896 C505 847 473 810 423 810 C373 810 342 847 342 896 L342 896 Z M285 896 C285 818 347 760 423 760 C501 760 562 818 562 896 C562 974 501 1032 423 1032 C347 1032 285 974 285 896 L285 896 Z " />
<glyph glyph-name="uring" unicode="&#x16f;" horiz-adv-x="624" d="M533 185 C533 365 538 499 538 499 L426 492 L314 488 L314 449 L343 443 C379 436 384 419 384 388 L384 145 C384 95 347 77 316 77 C263 77 228 102 228 190 C228 246 227 435 233 499 L121 491 L19 488 L19 449 L39 443 C73 433 79 419 79 388 C79 388 78 241 78 156 C78 48 135 -15 236 -15 C315 -15 365 40 381 66 L390 65 L387 -8 L423 -8 L609 16 L609 54 C581 55 541 56 537 85 C534 107 533 147 533 185 L533 185 Z M232 682 C232 731 263 767 313 767 C363 767 395 731 395 682 C395 633 363 596 313 596 C263 596 232 633 232 682 L232 682 Z M175 682 C175 604 237 546 313 546 C391 546 452 604 452 682 C452 760 391 818 313 818 C237 818 175 760 175 682 L175 682 Z " />
<glyph glyph-name="Uhungarumlaut" unicode="&#x170;" horiz-adv-x="847" d="M275 600 C275 632 287 642 322 649 L372 659 L372 705 L186 700 L19 705 L19 659 L70 649 C105 642 117 632 117 600 L117 240 C117 73 250 -15 425 -15 C606 -15 730 79 730 259 C730 259 732 519 732 600 C732 632 744 642 779 649 L830 659 L830 705 L699 700 L569 705 L569 659 L620 649 C655 642 667 632 667 600 C667 562 669 363 669 258 C669 170 615 56 460 56 C363 56 275 96 275 248 L275 600 Z M271 787 L320 781 L485 970 L315 970 L271 787 Z M461 787 L510 781 L675 970 L505 970 L461 787 Z " />
<glyph glyph-name="uhungarumlaut" unicode="&#x171;" horiz-adv-x="624" d="M533 185 C533 365 538 499 538 499 L426 492 L314 488 L314 449 L343 443 C379 436 384 419 384 388 L384 145 C384 95 347 77 316 77 C263 77 228 102 228 190 C228 246 227 435 233 499 L121 491 L19 488 L19 449 L39 443 C73 433 79 419 79 388 C79 388 78 241 78 156 C78 48 135 -15 236 -15 C315 -15 365 40 381 66 L390 65 L387 -8 L423 -8 L609 16 L609 54 C581 55 541 56 537 85 C534 107 533 147 533 185 L533 185 Z M142 573 L191 567 L356 756 L186 756 L142 573 Z M332 573 L381 567 L546 756 L376 756 L332 573 Z " />
<glyph glyph-name="Uogonek" unicode="&#x172;" horiz-adv-x="847" d="M275 600 C275 632 287 642 322 649 L372 659 L372 705 L186 700 L19 705 L19 659 L70 649 C105 642 117 632 117 600 L117 240 C117 73 250 -15 425 -15 L428 -15 C364 -49 318 -102 318 -162 C318 -235 380 -272 454 -272 C481 -272 536 -267 567 -256 L586 -222 C573 -223 562 -224 551 -224 C482 -224 444 -197 444 -138 C444 -77 481 -37 513 -6 C645 20 730 110 730 259 C730 259 732 519 732 600 C732 632 744 642 779 649 L830 659 L830 705 L699 700 L569 705 L569 659 L620 649 C655 642 667 632 667 600 C667 562 669 363 669 258 C669 170 615 56 460 56 C363 56 275 96 275 248 L275 600 Z " />
<glyph glyph-name="uogonek" unicode="&#x173;" horiz-adv-x="624" d="M533 185 C533 365 538 499 538 499 L426 492 L314 488 L314 449 L343 443 C379 436 384 419 384 388 L384 145 C384 95 347 77 316 77 C263 77 228 102 228 190 C228 246 227 435 233 499 L121 491 L19 488 L19 449 L39 443 C73 433 79 419 79 388 C79 388 78 241 78 156 C78 48 135 -15 236 -15 C315 -15 365 40 381 66 L390 65 L387 -8 L423 -8 L481 0 C403 -33 341 -93 341 -162 C341 -235 403 -272 477 -272 C504 -272 559 -267 590 -256 L609 -222 C596 -223 585 -224 574 -224 C505 -224 467 -197 467 -138 C467 -67 518 -23 552 8 L609 16 L609 54 C581 55 541 56 537 85 C534 107 533 147 533 185 L533 185 Z " />
<glyph glyph-name="Wcircumflex" unicode="&#x174;" horiz-adv-x="1158" d="M859 -6 C859 -6 923 184 1078 602 C1089 631 1102 643 1131 649 L1179 659 L1179 705 L1079 700 L920 705 L920 659 L972 649 C1007 642 1023 630 1013 601 L856 133 C821 235 738 451 708 551 C685 623 711 640 744 647 L800 659 L800 705 L597 701 L422 705 L422 659 L469 649 C499 643 509 631 519 601 L554 493 L411 132 C381 230 314 441 262 601 C252 630 269 642 304 649 L355 659 L355 705 L163 700 L-12 705 L-12 659 L36 649 C65 643 76 630 86 601 C169 359 295 -16 295 -16 L414 -6 C414 -6 519 265 582 420 C619 318 743 -16 743 -16 L859 -6 Z M441 782 L468 763 L614 849 L616 849 L766 762 L789 782 L644 976 L584 976 L441 782 Z " />
<glyph glyph-name="wcircumflex" unicode="&#x175;" horiz-adv-x="794" d="M480 486 L387 486 C365 418 309 269 278 183 L216 403 C208 432 219 443 253 451 L287 458 L287 497 L149 492 L-7 497 L-7 458 L13 451 C41 441 48 431 59 403 C110 264 183 -6 183 -6 L258 -6 C257 -6 326 186 385 348 C414 281 532 -6 532 -6 L603 -6 C603 -6 677 253 731 401 C742 431 749 439 783 451 L802 458 L802 497 L704 492 L602 497 L602 458 L628 451 C663 441 677 433 670 403 C655 336 629 237 612 173 L480 486 Z M245 568 L272 549 L418 635 L420 635 L570 548 L593 568 L448 762 L388 762 L245 568 Z " />
<glyph glyph-name="Ycircumflex" unicode="&#x176;" horiz-adv-x="718" d="M545 41 L494 51 C458 58 450 68 449 99 C448 131 447 184 447 223 L447 272 C447 272 519 411 629 602 C645 629 656 643 685 649 L730 659 L730 705 L630 700 L467 705 L467 659 L518 649 C553 642 568 625 554 598 C502 495 453 398 425 348 C425 348 369 445 281 600 C267 625 280 642 315 649 L368 659 L368 705 L165 700 L-19 705 L-19 659 L23 649 C54 642 65 627 81 601 C180 439 284 267 284 267 L284 223 C284 184 284 131 282 99 C280 68 273 58 237 51 L187 41 L187 -5 L380 0 L545 -5 L545 41 Z M185 782 L212 763 L358 849 L360 849 L510 762 L533 782 L388 976 L328 976 L185 782 Z " />
<glyph glyph-name="ycircumflex" unicode="&#x177;" horiz-adv-x="559" d="M105 -263 L220 -273 L497 398 C509 427 516 439 549 451 L569 458 L569 497 L470 492 L369 497 L369 458 L393 451 C427 441 445 431 435 403 C376 241 329 120 329 120 L232 401 C222 430 233 443 267 451 L296 458 L296 497 L142 492 L-9 497 L-9 458 L11 451 C39 441 44 438 58 403 C117 258 211 -6 210 -6 L270 -6 L105 -263 Z M105 568 L132 549 L278 635 L280 635 L430 548 L453 568 L308 762 L248 762 L105 568 Z " />
<glyph glyph-name="Ydieresis" unicode="&#x178;" horiz-adv-x="718" d="M545 41 L494 51 C458 58 450 68 449 99 C448 131 447 184 447 223 L447 272 C447 272 519 411 629 602 C645 629 656 643 685 649 L730 659 L730 705 L630 700 L467 705 L467 659 L518 649 C553 642 568 625 554 598 C502 495 453 398 425 348 C425 348 369 445 281 600 C267 625 280 642 315 649 L368 659 L368 705 L165 700 L-19 705 L-19 659 L23 649 C54 642 65 627 81 601 C180 439 284 267 284 267 L284 223 C284 184 284 131 282 99 C280 68 273 58 237 51 L187 41 L187 -5 L380 0 L545 -5 L545 41 Z M175 857 C175 810 211 774 257 774 C306 774 341 810 341 857 C341 904 306 940 257 940 C211 940 175 904 175 857 L175 857 Z M378 857 C378 810 413 774 460 774 C506 774 543 810 543 857 C543 904 506 940 460 940 C413 940 378 904 378 857 L378 857 Z " />
<glyph glyph-name="Zacute" unicode="&#x179;" horiz-adv-x="712" d="M455 644 C194 257 39 38 39 38 L39 -4 L159 0 L463 0 C520 0 649 -5 649 -5 L681 212 L639 212 L595 126 C559 56 524 56 476 56 L255 56 C241 56 241 66 245 72 C411 317 649 661 649 661 L649 704 C649 704 470 700 188 700 C132 699 46 711 46 711 L54 508 L98 508 L110 557 C125 620 143 644 182 644 L455 644 Z M263 793 L312 787 L507 976 L317 976 L263 793 Z " />
<glyph glyph-name="zacute" unicode="&#x17a;" horiz-adv-x="540" d="M175 0 C260 0 466 -3 491 -5 L508 178 L464 178 C433 64 408 48 359 48 L207 48 L506 464 L501 499 L134 499 C95 499 49 502 49 502 L49 335 L92 333 L102 364 C120 424 127 450 210 450 L321 450 L22 39 L22 -3 C38 -2 114 0 175 0 L175 0 Z M182 573 L231 567 L426 756 L236 756 L182 573 Z " />
<glyph glyph-name="Zdotaccent" unicode="&#x17b;" horiz-adv-x="712" d="M455 644 C194 257 39 38 39 38 L39 -4 L159 0 L463 0 C520 0 649 -5 649 -5 L681 212 L639 212 L595 126 C559 56 524 56 476 56 L255 56 C241 56 241 66 245 72 C411 317 649 661 649 661 L649 704 C649 704 470 700 188 700 C132 699 46 711 46 711 L54 508 L98 508 L110 557 C125 620 143 644 182 644 L455 644 Z M263 875 C263 824 305 782 356 782 C407 782 449 824 449 875 C449 926 407 968 356 968 C305 968 263 926 263 875 L263 875 Z " />
<glyph glyph-name="zdotaccent" unicode="&#x17c;" horiz-adv-x="540" d="M175 0 C260 0 466 -3 491 -5 L508 178 L464 178 C433 64 408 48 359 48 L207 48 L506 464 L501 499 L134 499 C95 499 49 502 49 502 L49 335 L92 333 L102 364 C120 424 127 450 210 450 L321 450 L22 39 L22 -3 C38 -2 114 0 175 0 L175 0 Z M177 661 C177 610 219 568 270 568 C321 568 363 610 363 661 C363 712 321 754 270 754 C219 754 177 712 177 661 L177 661 Z " />
<glyph glyph-name="Zcaron" unicode="&#x17d;" horiz-adv-x="712" d="M455 644 C194 257 39 38 39 38 L39 -4 L159 0 L463 0 C520 0 649 -5 649 -5 L681 212 L639 212 L595 126 C559 56 524 56 476 56 L255 56 C241 56 241 66 245 72 C411 317 649 661 649 661 L649 704 C649 704 470 700 188 700 C132 699 46 711 46 711 L54 508 L98 508 L110 557 C125 620 143 644 182 644 L455 644 Z M324 769 L384 769 L529 963 L506 983 L356 895 L354 895 L208 982 L181 963 L324 769 Z " />
<glyph glyph-name="zcaron" unicode="&#x17e;" horiz-adv-x="540" d="M175 0 C260 0 466 -3 491 -5 L508 178 L464 178 C433 64 408 48 359 48 L207 48 L506 464 L501 499 L134 499 C95 499 49 502 49 502 L49 335 L92 333 L102 364 C120 424 127 450 210 450 L321 450 L22 39 L22 -3 C38 -2 114 0 175 0 L175 0 Z M233 549 L293 549 L438 743 L415 763 L265 675 L263 675 L117 762 L90 743 L233 549 Z " />
<glyph glyph-name="longs" unicode="&#x17f;" horiz-adv-x="344" d="M251 484 C251 628 258 697 309 697 C357 697 392 614 403 614 C454 614 507 659 507 715 C507 764 420 771 382 771 C247 771 102 688 102 484 L21 484 L21 427 L102 427 L102 89 C102 58 90 49 55 41 L26 34 L26 0 L344 0 L344 34 L293 44 C258 51 251 64 251 95 L251 484 Z " />
<glyph glyph-name="florin" unicode="&#x192;" horiz-adv-x="379" d="M109 28 C109 -46 109 -102 99 -138 C89 -173 70 -185 51 -185 C3 -185 -32 -102 -43 -102 C-94 -102 -147 -147 -147 -203 C-147 -252 -60 -259 -22 -259 C113 -259 258 -177 258 27 L258 302 L362 285 L370 361 L258 354 L258 484 C258 558 258 614 268 650 C278 685 297 697 316 697 C364 697 399 614 410 614 C461 614 514 659 514 715 C514 764 427 771 389 771 C254 771 109 689 109 485 L109 355 L9 355 L9 301 L109 301 L109 28 Z " />
<glyph glyph-name="Scommaaccent" unicode="&#x218;" horiz-adv-x="616" d="M144 114 C111 190 104 231 104 231 L51 226 C57 126 57 39 57 21 C109 6 177 -14 285 -14 C452 -14 569 76 569 209 C569 383 367 411 266 475 C236 494 211 523 211 565 C211 636 282 660 334 660 C407 660 436 643 446 617 C467 561 482 509 481 509 L526 509 C533 591 544 683 544 683 C536 688 416 715 328 715 C148 715 69 610 69 522 C69 421 120 374 187 335 C282 280 421 266 421 158 C421 79 361 41 296 41 C224 41 165 65 144 114 L144 114 Z M213 -386 C305 -358 404 -277 404 -181 C404 -114 345 -68 299 -68 C260 -68 211 -111 201 -154 C263 -176 288 -210 288 -247 C288 -288 254 -333 188 -361 L213 -386 Z " />
<glyph glyph-name="scommaaccent" unicode="&#x219;" horiz-adv-x="463" d="M45 168 L45 13 C45 13 126 -15 220 -15 C348 -15 429 42 429 149 C429 260 325 288 252 324 C214 343 183 362 183 399 C183 440 215 462 261 462 C290 462 318 448 323 430 L348 349 L400 349 L410 491 C372 500 290 509 240 509 C143 509 43 464 43 356 C43 285 87 246 138 219 C210 182 296 167 296 101 C296 53 259 32 218 32 C176 32 144 51 127 89 C111 125 98 168 98 168 L45 168 Z M148 -386 C240 -358 339 -277 339 -181 C339 -114 280 -68 234 -68 C195 -68 146 -111 136 -154 C198 -176 223 -210 223 -247 C223 -288 189 -333 123 -361 L148 -386 Z " />
<glyph glyph-name="uni021A" unicode="&#x21a;" horiz-adv-x="728" d="M173 700 C91 700 26 711 26 711 C26 711 24 589 16 498 L63 498 L81 557 C100 621 127 640 166 641 L283 644 C283 644 286 514 286 349 C286 184 283 99 283 99 C282 69 271 58 236 51 L185 41 L185 -5 L366 0 L544 -5 L544 41 L494 51 C458 58 448 69 447 99 C447 99 444 184 444 349 C444 514 447 644 447 644 L564 641 C603 640 631 621 649 557 L665 498 L712 498 C705 589 704 711 704 711 C704 711 639 701 557 700 L364 697 L173 700 Z M261 -386 C353 -358 452 -277 452 -181 C452 -114 393 -68 347 -68 C308 -68 259 -111 249 -154 C311 -176 336 -210 336 -247 C336 -288 302 -333 236 -361 L261 -386 Z " />
<glyph glyph-name="uni021B" unicode="&#x21b;" horiz-adv-x="408" d="M183 631 C159 536 128 490 3 482 L3 427 L89 427 L89 121 C89 35 150 -15 243 -15 C302 -15 374 13 402 62 L386 98 C372 83 335 66 310 66 C259 66 238 100 238 150 L238 427 L381 412 L387 484 L238 484 L238 631 L183 631 Z M121 -386 C213 -358 312 -277 312 -181 C312 -114 253 -68 207 -68 C168 -68 119 -111 109 -154 C171 -176 196 -210 196 -247 C196 -288 162 -333 96 -361 L121 -386 Z " />
<glyph glyph-name="dotlessj" unicode="&#x237;" horiz-adv-x="325" d="M234 345 C234 442 236 515 236 515 L193 515 L16 448 L16 424 L55 409 C80 399 85 376 85 307 L85 -65 C85 -149 64 -192 -6 -216 L10 -251 C156 -269 233 -199 233 -83 L233 0 L309 0 L309 39 L281 46 C246 55 234 64 234 95 L234 345 Z " />
<glyph glyph-name="apostrophe" unicode="&#x2bc;" horiz-adv-x="525" d="M163 316 C276 352 395 456 395 580 C395 667 325 726 268 726 C226 726 161 664 161 625 C161 621 161 619 163 617 C238 595 266 552 266 503 C266 450 234 391 145 348 L163 316 Z " />
<glyph glyph-name="circumflex" unicode="&#x2c6;" horiz-adv-x="420" d="M36 568 L63 549 L209 635 L211 635 L361 548 L384 568 L239 762 L179 762 L36 568 Z " />
<glyph glyph-name="caron" unicode="&#x2c7;" horiz-adv-x="420" d="M179 549 L239 549 L384 743 L361 763 L211 675 L209 675 L63 762 L36 743 L179 549 Z " />
<glyph glyph-name="uni02C9" unicode="&#x2c9;" horiz-adv-x="525" d="M422 579 L422 655 L103 655 L103 579 L422 579 Z " />
<glyph glyph-name="breve" unicode="&#x2d8;" horiz-adv-x="420" d="M209 677 C117 677 107 721 107 766 L107 771 L56 771 L56 731 C56 633 110 562 209 562 C309 562 363 633 363 731 L363 771 L312 771 L312 766 C312 721 302 677 209 677 L209 677 Z " />
<glyph glyph-name="dotaccent" unicode="&#x2d9;" horiz-adv-x="420" d="M117 661 C117 610 159 568 210 568 C261 568 303 610 303 661 C303 712 261 754 210 754 C159 754 117 712 117 661 L117 661 Z " />
<glyph glyph-name="ring" unicode="&#x2da;" horiz-adv-x="420" d="M128 682 C128 731 159 767 209 767 C259 767 291 731 291 682 C291 633 259 596 209 596 C159 596 128 633 128 682 L128 682 Z M71 682 C71 604 133 546 209 546 C287 546 348 604 348 682 C348 760 287 818 209 818 C133 818 71 760 71 682 L71 682 Z " />
<glyph glyph-name="ogonek" unicode="&#x2db;" horiz-adv-x="420" d="M290 20 C183 -1 82 -74 82 -162 C82 -235 144 -272 218 -272 C245 -272 300 -267 331 -256 L350 -222 C337 -223 326 -224 315 -224 C246 -224 208 -197 208 -138 C208 -66 261 -22 295 10 L290 20 Z " />
<glyph glyph-name="tilde" unicode="&#x2dc;" horiz-adv-x="420" d="M298 674 C272 674 199 719 155 719 C88 719 43 638 31 586 L64 574 C84 610 102 612 130 612 C162 612 219 569 266 569 C337 569 376 650 389 701 L356 713 C336 676 329 674 298 674 L298 674 Z " />
<glyph glyph-name="hungarumlaut" unicode="&#x2dd;" horiz-adv-x="420" d="M8 573 L57 567 L222 756 L52 756 L8 573 Z M198 573 L247 567 L412 756 L242 756 L198 573 Z " />
<glyph glyph-name="&amp;#x394;" unicode="&#x394;" horiz-adv-x="845" d="M29 0 L817 0 L817 48 L503 718 L341 718 L28 47 L29 0 Z M638 51 L85 51 L362 650 L638 51 Z " />
<glyph glyph-name="&amp;#x2206;" unicode="&#x2206;" horiz-adv-x="845" d="M29 0 L817 0 L817 48 L503 718 L341 718 L28 47 L29 0 Z M638 51 L85 51 L362 650 L638 51 Z " />
<glyph glyph-name="&amp;#x3a9;" unicode="&#x3a9;" horiz-adv-x="805" d="M402 671 C514 671 587 610 587 429 C587 261 552 224 488 206 L488 -3 C501 -2 541 0 573 0 L666 0 C682 0 710 -2 710 -2 L718 178 L680 178 L670 136 C659 91 630 91 610 91 L570 91 C537 91 529 103 529 130 L529 177 C675 197 755 306 755 434 C755 602 598 715 402 715 C206 715 50 602 50 434 C50 306 129 197 275 177 L275 130 C275 103 267 91 234 91 L195 91 C174 91 145 91 134 136 L124 178 L86 178 L94 -2 C94 -2 122 0 139 0 L231 0 C264 0 303 -2 317 -3 L317 206 C252 224 217 261 217 429 C217 610 290 671 402 671 L402 671 Z " />
<glyph glyph-name="&amp;#x2126;" unicode="&#x2126;" horiz-adv-x="805" d="M402 671 C514 671 587 610 587 429 C587 261 552 224 488 206 L488 -3 C501 -2 541 0 573 0 L666 0 C682 0 710 -2 710 -2 L718 178 L680 178 L670 136 C659 91 630 91 610 91 L570 91 C537 91 529 103 529 130 L529 177 C675 197 755 306 755 434 C755 602 598 715 402 715 C206 715 50 602 50 434 C50 306 129 197 275 177 L275 130 C275 103 267 91 234 91 L195 91 C174 91 145 91 134 136 L124 178 L86 178 L94 -2 C94 -2 122 0 139 0 L231 0 C264 0 303 -2 317 -3 L317 206 C252 224 217 261 217 429 C217 610 290 671 402 671 L402 671 Z " />
<glyph glyph-name="pi" unicode="&#x3c0;" horiz-adv-x="921" d="M31 352 C31 112 218 -74 460 -74 C702 -74 890 112 890 352 C890 592 702 779 460 779 C218 779 31 592 31 352 L31 352 Z M104 352 C104 557 261 713 460 713 C659 713 817 557 817 352 C817 147 659 -8 460 -8 C261 -8 104 147 104 352 L104 352 Z M495 135 L454 143 C435 148 427 157 425 171 C425 171 423 236 423 348 C423 461 424 554 424 554 C424 558 425 560 432 560 L477 560 C534 560 576 524 576 457 C576 382 531 344 473 344 C468 344 454 346 454 346 L454 308 C454 308 478 303 495 303 C630 303 678 388 678 459 C678 565 591 601 523 601 C481 601 419 595 411 594 L256 596 L256 563 L297 555 C314 551 324 544 326 527 C326 527 328 461 328 348 C328 254 326 188 326 171 C325 157 315 148 297 143 L256 135 L256 102 L376 105 L495 102 L495 135 Z " />
<glyph glyph-name="Wgrave" unicode="&#x1e80;" horiz-adv-x="1158" d="M859 -6 C859 -6 923 184 1078 602 C1089 631 1102 643 1131 649 L1179 659 L1179 705 L1079 700 L920 705 L920 659 L972 649 C1007 642 1023 630 1013 601 L856 133 C821 235 738 451 708 551 C685 623 711 640 744 647 L800 659 L800 705 L597 701 L422 705 L422 659 L469 649 C499 643 509 631 519 601 L554 493 L411 132 C381 230 314 441 262 601 C252 630 269 642 304 649 L355 659 L355 705 L163 700 L-12 705 L-12 659 L36 649 C65 643 76 630 86 601 C169 359 295 -16 295 -16 L414 -6 C414 -6 519 265 582 420 C619 318 743 -16 743 -16 L859 -6 Z M631 968 L441 968 L636 779 L685 785 L631 968 Z " />
<glyph glyph-name="wgrave" unicode="&#x1e81;" horiz-adv-x="794" d="M480 486 L387 486 C365 418 309 269 278 183 L216 403 C208 432 219 443 253 451 L287 458 L287 497 L149 492 L-7 497 L-7 458 L13 451 C41 441 48 431 59 403 C110 264 183 -6 183 -6 L258 -6 C257 -6 326 186 385 348 C414 281 532 -6 532 -6 L603 -6 C603 -6 677 253 731 401 C742 431 749 439 783 451 L802 458 L802 497 L704 492 L602 497 L602 458 L628 451 C663 441 677 433 670 403 C655 336 629 237 612 173 L480 486 Z M470 756 L280 756 L475 567 L524 573 L470 756 Z " />
<glyph glyph-name="Wacute" unicode="&#x1e82;" horiz-adv-x="1158" d="M859 -6 C859 -6 923 184 1078 602 C1089 631 1102 643 1131 649 L1179 659 L1179 705 L1079 700 L920 705 L920 659 L972 649 C1007 642 1023 630 1013 601 L856 133 C821 235 738 451 708 551 C685 623 711 640 744 647 L800 659 L800 705 L597 701 L422 705 L422 659 L469 649 C499 643 509 631 519 601 L554 493 L411 132 C381 230 314 441 262 601 C252 630 269 642 304 649 L355 659 L355 705 L163 700 L-12 705 L-12 659 L36 649 C65 643 76 630 86 601 C169 359 295 -16 295 -16 L414 -6 C414 -6 519 265 582 420 C619 318 743 -16 743 -16 L859 -6 Z M500 785 L549 779 L744 968 L554 968 L500 785 Z " />
<glyph glyph-name="wacute" unicode="&#x1e83;" horiz-adv-x="794" d="M480 486 L387 486 C365 418 309 269 278 183 L216 403 C208 432 219 443 253 451 L287 458 L287 497 L149 492 L-7 497 L-7 458 L13 451 C41 441 48 431 59 403 C110 264 183 -6 183 -6 L258 -6 C257 -6 326 186 385 348 C414 281 532 -6 532 -6 L603 -6 C603 -6 677 253 731 401 C742 431 749 439 783 451 L802 458 L802 497 L704 492 L602 497 L602 458 L628 451 C663 441 677 433 670 403 C655 336 629 237 612 173 L480 486 Z M320 573 L369 567 L564 756 L374 756 L320 573 Z " />
<glyph glyph-name="Wdieresis" unicode="&#x1e84;" horiz-adv-x="1158" d="M859 -6 C859 -6 923 184 1078 602 C1089 631 1102 643 1131 649 L1179 659 L1179 705 L1079 700 L920 705 L920 659 L972 649 C1007 642 1023 630 1013 601 L856 133 C821 235 738 451 708 551 C685 623 711 640 744 647 L800 659 L800 705 L597 701 L422 705 L422 659 L469 649 C499 643 509 631 519 601 L554 493 L411 132 C381 230 314 441 262 601 C252 630 269 642 304 649 L355 659 L355 705 L163 700 L-12 705 L-12 659 L36 649 C65 643 76 630 86 601 C169 359 295 -16 295 -16 L414 -6 C414 -6 519 265 582 420 C619 318 743 -16 743 -16 L859 -6 Z M424 855 C424 808 460 772 506 772 C555 772 590 808 590 855 C590 902 555 938 506 938 C460 938 424 902 424 855 L424 855 Z M627 855 C627 808 662 772 709 772 C755 772 792 808 792 855 C792 902 755 938 709 938 C662 938 627 902 627 855 L627 855 Z " />
<glyph glyph-name="wdieresis" unicode="&#x1e85;" horiz-adv-x="794" d="M480 486 L387 486 C365 418 309 269 278 183 L216 403 C208 432 219 443 253 451 L287 458 L287 497 L149 492 L-7 497 L-7 458 L13 451 C41 441 48 431 59 403 C110 264 183 -6 183 -6 L258 -6 C257 -6 326 186 385 348 C414 281 532 -6 532 -6 L603 -6 C603 -6 677 253 731 401 C742 431 749 439 783 451 L802 458 L802 497 L704 492 L602 497 L602 458 L628 451 C663 441 677 433 670 403 C655 336 629 237 612 173 L480 486 Z M232 643 C232 596 268 560 314 560 C363 560 398 596 398 643 C398 690 363 726 314 726 C268 726 232 690 232 643 L232 643 Z M435 643 C435 596 470 560 517 560 C563 560 600 596 600 643 C600 690 563 726 517 726 C470 726 435 690 435 643 L435 643 Z " />
<glyph glyph-name="Ygrave" unicode="&#x1ef2;" horiz-adv-x="718" d="M545 41 L494 51 C458 58 450 68 449 99 C448 131 447 184 447 223 L447 272 C447 272 519 411 629 602 C645 629 656 643 685 649 L730 659 L730 705 L630 700 L467 705 L467 659 L518 649 C553 642 568 625 554 598 C502 495 453 398 425 348 C425 348 369 445 281 600 C267 625 280 642 315 649 L368 659 L368 705 L165 700 L-19 705 L-19 659 L23 649 C54 642 65 627 81 601 C180 439 284 267 284 267 L284 223 C284 184 284 131 282 99 C280 68 273 58 237 51 L187 41 L187 -5 L380 0 L545 -5 L545 41 Z M412 968 L222 968 L417 779 L466 785 L412 968 Z " />
<glyph glyph-name="ygrave" unicode="&#x1ef3;" horiz-adv-x="559" d="M105 -263 L220 -273 L497 398 C509 427 516 439 549 451 L569 458 L569 497 L470 492 L369 497 L369 458 L393 451 C427 441 445 431 435 403 C376 241 329 120 329 120 L232 401 C222 430 233 443 267 451 L296 458 L296 497 L142 492 L-9 497 L-9 458 L11 451 C39 441 44 438 58 403 C117 258 211 -6 210 -6 L270 -6 L105 -263 Z M318 756 L128 756 L323 567 L372 573 L318 756 Z " />
<glyph glyph-name="endash" unicode="&#x2013;" horiz-adv-x="722" d="M661 292 L661 362 L61 362 L61 292 L661 292 Z " />
<glyph glyph-name="emdash" unicode="&#x2014;" horiz-adv-x="1248" d="M1187 292 L1187 362 L61 362 L61 292 L1187 292 Z " />
<glyph glyph-name="quoteleft" unicode="&#x2018;" horiz-adv-x="301" d="M268 756 C155 720 36 616 36 492 C36 405 106 346 163 346 C205 346 270 408 270 447 C270 451 270 453 268 455 C193 477 165 520 165 569 C165 622 197 681 286 724 L268 756 Z " />
<glyph glyph-name="quoteright" unicode="&#x2019;" horiz-adv-x="321" d="M61 316 C174 352 293 456 293 580 C293 667 223 726 166 726 C124 726 59 664 59 625 C59 621 59 619 61 617 C136 595 164 552 164 503 C164 450 132 391 43 348 L61 316 Z " />
<glyph glyph-name="quotesinglbase" unicode="&#x201a;" horiz-adv-x="310" d="M37 -210 C150 -174 269 -70 269 54 C269 141 199 200 142 200 C100 200 35 138 35 99 C35 95 35 93 37 91 C112 69 140 26 140 -23 C140 -76 108 -135 19 -178 L37 -210 Z " />
<glyph glyph-name="quotedblleft" unicode="&#x201c;" horiz-adv-x="563" d="M268 756 C155 720 36 616 36 492 C36 405 106 346 163 346 C205 346 270 408 270 447 C270 451 270 453 268 455 C193 477 165 520 165 569 C165 622 197 681 286 724 L268 756 Z M530 756 C417 720 298 616 298 492 C298 405 368 346 425 346 C467 346 532 408 532 447 C532 451 532 453 530 455 C455 477 427 520 427 569 C427 622 459 681 548 724 L530 756 Z " />
<glyph glyph-name="quotedblright" unicode="&#x201d;" horiz-adv-x="583" d="M61 316 C174 352 293 456 293 580 C293 667 223 726 166 726 C124 726 59 664 59 625 C59 621 59 619 61 617 C136 595 164 552 164 503 C164 450 132 391 43 348 L61 316 Z M323 316 C436 352 555 456 555 580 C555 667 485 726 428 726 C386 726 321 664 321 625 C321 621 321 619 323 617 C398 595 426 552 426 503 C426 450 394 391 305 348 L323 316 Z " />
<glyph glyph-name="quotedblbase" unicode="&#x201e;" horiz-adv-x="572" d="M37 -210 C150 -174 269 -70 269 54 C269 141 199 200 142 200 C100 200 35 138 35 99 C35 95 35 93 37 91 C112 69 140 26 140 -23 C140 -76 108 -135 19 -178 L37 -210 Z M299 -210 C412 -174 531 -70 531 54 C531 141 461 200 404 200 C362 200 297 138 297 99 C297 95 297 93 299 91 C374 69 402 26 402 -23 C402 -76 370 -135 281 -178 L299 -210 Z " />
<glyph glyph-name="dagger" unicode="&#x2020;" horiz-adv-x="537" d="M312 0 L312 400 L505 400 L505 482 L312 482 L312 706 L213 706 L213 482 L32 482 L32 400 L213 400 L213 0 L312 0 Z " />
<glyph glyph-name="daggerdbl" unicode="&#x2021;" horiz-adv-x="555" d="M514 400 L514 482 L322 482 L322 706 L223 706 L223 482 L41 482 L41 400 L223 400 L223 82 L41 82 L41 0 L223 0 L223 -234 L322 -234 L322 0 L514 0 L514 82 L322 82 L322 400 L514 400 Z " />
<glyph glyph-name="bullet" unicode="&#x2022;" horiz-adv-x="377" d="M53 347 C53 272 113 212 188 212 C263 212 324 272 324 347 C324 422 263 483 188 483 C113 483 53 422 53 347 L53 347 Z " />
<glyph glyph-name="ellipsis" unicode="&#x2026;" horiz-adv-x="921" d="M43 87 C43 31 89 -15 146 -15 C202 -15 248 31 248 87 C248 143 202 189 146 189 C89 189 43 143 43 87 L43 87 Z M358 87 C358 31 404 -15 461 -15 C517 -15 563 31 563 87 C563 143 517 189 461 189 C404 189 358 143 358 87 L358 87 Z M673 87 C673 31 719 -15 776 -15 C832 -15 878 31 878 87 C878 143 832 189 776 189 C719 189 673 143 673 87 L673 87 Z " />
<glyph glyph-name="perthousand" unicode="&#x2030;" horiz-adv-x="1183" d="M982 353 C893 353 812 267 812 170 C812 72 893 -14 982 -14 C1071 -14 1152 72 1152 170 C1152 267 1071 353 982 353 L982 353 Z M982 29 C932 29 931 98 931 170 C931 241 932 311 982 311 C1032 311 1033 241 1033 170 C1033 98 1032 29 982 29 L982 29 Z M736 679 L697 714 L76 16 L115 -19 L736 679 Z M213 709 C125 709 44 624 44 526 C44 429 125 342 213 342 C301 342 382 429 382 526 C382 624 301 709 213 709 L213 709 Z M213 385 C163 385 162 454 162 526 C162 597 163 668 213 668 C263 668 264 597 264 526 C264 454 263 385 213 385 L213 385 Z M598 353 C509 353 428 267 428 170 C428 72 509 -14 598 -14 C687 -14 768 72 768 170 C768 267 687 353 598 353 L598 353 Z M598 29 C548 29 547 98 547 170 C547 241 548 311 598 311 C648 311 649 241 649 170 C649 98 648 29 598 29 L598 29 Z " />
<glyph glyph-name="guilsinglleft" unicode="&#x2039;" horiz-adv-x="383" d="M217 361 L340 637 L287 637 L29 355 L287 73 L340 73 L217 349 L217 361 Z " />
<glyph glyph-name="guilsinglright" unicode="&#x203a;" horiz-adv-x="383" d="M166 349 L43 73 L96 73 L354 355 L96 637 L43 637 L166 361 L166 349 Z " />
<glyph glyph-name="fraction" unicode="&#x2044;" horiz-adv-x="270" d="M-192 21 L-159 -9 L462 692 L430 722 L-192 21 Z " />
<glyph glyph-name="zerosuperior" unicode="&#x2070;" horiz-adv-x="375" d="M188 720 C80 720 21 622 21 509 C21 397 80 297 188 297 C296 297 354 397 354 509 C354 622 296 720 188 720 L188 720 Z M188 339 C153 339 125 381 125 509 C125 639 153 677 188 677 C223 677 251 639 251 509 C251 381 223 339 188 339 L188 339 Z " />
<glyph glyph-name="foursuperior" unicode="&#x2074;" horiz-adv-x="375" d="M198 367 C198 356 193 353 185 351 L143 342 L143 305 L245 308 L349 305 L349 341 L307 351 C300 353 297 357 297 367 L297 425 L355 425 L355 472 L297 472 L297 578 L190 576 C192 562 197 508 197 472 L78 472 C107 522 283 729 283 729 L194 742 C63 564 16 485 10 472 L10 425 L197 425 L198 367 Z " />
<glyph glyph-name="fivesuperior" unicode="&#x2075;" horiz-adv-x="375" d="M152 338 C143 338 131 339 131 342 L131 414 L106 430 C66 430 27 401 27 370 C27 329 59 297 151 297 C249 297 338 358 338 450 C338 549 249 587 144 587 C134 587 123 587 112 586 L113 636 L200 636 C249 636 300 636 331 641 L334 723 C334 723 122 717 59 717 L57 497 C85 503 113 504 128 504 C186 504 246 488 246 424 C246 370 197 338 152 338 L152 338 Z " />
<glyph glyph-name="sixsuperior" unicode="&#x2076;" horiz-adv-x="375" d="M130 442 C130 487 150 525 192 525 C232 525 255 484 255 430 C255 384 237 342 195 342 C150 342 130 400 130 442 L130 442 Z M191 297 C287 297 356 356 356 442 C356 526 294 578 216 578 C193 578 155 570 135 547 C165 633 271 685 334 711 L314 748 C136 706 22 608 22 466 C22 378 81 297 191 297 L191 297 Z " />
<glyph glyph-name="sevensuperior" unicode="&#x2077;" horiz-adv-x="375" d="M200 310 C234 459 351 673 351 673 L351 720 L35 720 L35 630 L174 630 C224 630 251 636 274 642 L278 636 C208 559 113 428 72 301 L200 310 Z " />
<glyph glyph-name="eightsuperior" unicode="&#x2078;" horiz-adv-x="375" d="M135 629 C135 660 158 680 193 680 C234 680 252 651 252 623 C252 597 237 571 209 558 C168 578 135 596 135 629 L135 629 Z M250 398 C250 356 216 342 185 342 C151 342 117 366 117 409 C117 439 134 468 159 482 C211 460 250 442 250 398 L250 398 Z M25 409 C25 352 70 297 183 297 C290 297 349 361 349 420 C349 474 313 510 256 534 C311 549 339 583 339 619 C339 681 281 722 196 722 C104 722 35 678 35 612 C35 568 64 528 120 510 C75 495 25 464 25 409 L25 409 Z " />
<glyph glyph-name="ninesuperior" unicode="&#x2079;" horiz-adv-x="375" d="M245 575 C245 530 225 492 183 492 C143 492 120 533 120 587 C120 633 138 675 180 675 C225 675 245 617 245 575 L245 575 Z M184 720 C88 720 19 661 19 575 C19 491 81 439 159 439 C182 439 220 447 240 470 C210 384 104 332 41 306 L61 269 C239 311 353 409 353 551 C353 639 294 720 184 720 L184 720 Z " />
<glyph glyph-name="zeroinferior" unicode="&#x2080;" horiz-adv-x="375" d="M188 415 C80 415 21 317 21 204 C21 92 80 -8 188 -8 C296 -8 354 92 354 204 C354 317 296 415 188 415 L188 415 Z M188 34 C153 34 125 76 125 204 C125 334 153 372 188 372 C223 372 251 334 251 204 C251 76 223 34 188 34 L188 34 Z " />
<glyph glyph-name="oneinferior" unicode="&#x2081;" horiz-adv-x="375" d="M261 49 C255 50 253 54 253 58 L253 401 L190 401 L65 355 L65 309 L150 327 L150 58 C150 54 148 50 142 49 L69 39 L69 -3 L199 0 L325 -3 L325 38 L261 49 Z " />
<glyph glyph-name="twoinferior" unicode="&#x2082;" horiz-adv-x="375" d="M32 0 L154 0 C241 0 332 -1 332 -1 L341 87 L135 83 C139 86 184 124 248 171 C314 220 340 248 340 305 C340 375 269 415 190 415 C89 415 32 372 32 326 C32 293 68 265 109 264 L135 284 L135 357 C135 368 151 371 159 371 C209 371 235 331 235 290 C235 261 232 233 180 179 C136 134 32 48 32 48 L32 0 Z " />
<glyph glyph-name="threeinferior" unicode="&#x2083;" horiz-adv-x="375" d="M54 329 C78 345 112 360 149 360 C182 360 220 345 220 302 C220 237 140 236 98 235 L102 188 C102 188 124 190 153 190 C214 190 243 151 243 111 C243 72 216 33 161 33 C152 33 132 34 132 37 L132 109 L105 125 C65 125 28 95 28 64 C28 23 67 -8 156 -8 C248 -8 339 40 339 130 C339 187 297 223 238 230 L238 234 C301 250 319 286 319 318 C319 392 247 415 185 415 C125 415 65 390 35 361 L54 329 Z " />
<glyph glyph-name="fourinferior" unicode="&#x2084;" horiz-adv-x="375" d="M197 59 C197 48 192 45 184 43 L142 34 L142 -3 L244 0 L348 -3 L348 33 L306 43 C299 45 296 49 296 59 L296 117 L354 117 L354 164 L296 164 L296 270 L189 268 C191 254 196 200 196 164 L77 164 C106 214 282 421 282 421 L193 434 C62 256 15 177 9 164 L9 117 L196 117 L197 59 Z " />
<glyph glyph-name="fiveinferior" unicode="&#x2085;" horiz-adv-x="375" d="M152 33 C143 33 131 34 131 37 L131 109 L106 125 C66 125 27 96 27 65 C27 24 59 -8 151 -8 C249 -8 338 53 338 145 C338 244 249 282 144 282 C134 282 123 282 112 281 L113 331 L200 331 C249 331 300 331 331 336 L334 418 C334 418 122 412 59 412 L57 192 C85 198 113 199 128 199 C186 199 246 183 246 119 C246 65 197 33 152 33 L152 33 Z " />
<glyph glyph-name="sixinferior" unicode="&#x2086;" horiz-adv-x="375" d="M128 137 C128 182 148 220 190 220 C230 220 253 179 253 125 C253 79 235 37 193 37 C148 37 128 95 128 137 L128 137 Z M189 -8 C285 -8 354 51 354 137 C354 221 292 273 214 273 C191 273 153 265 133 242 C163 328 269 380 332 406 L312 443 C134 401 20 303 20 161 C20 73 79 -8 189 -8 L189 -8 Z " />
<glyph glyph-name="seveninferior" unicode="&#x2087;" horiz-adv-x="375" d="M200 3 C234 152 351 366 351 366 L351 413 L35 413 L35 323 L174 323 C224 323 251 329 274 335 L278 329 C208 252 113 121 72 -6 L200 3 Z " />
<glyph glyph-name="eightinferior" unicode="&#x2088;" horiz-adv-x="375" d="M135 324 C135 355 158 375 193 375 C234 375 252 346 252 318 C252 292 237 266 209 253 C168 273 135 291 135 324 L135 324 Z M250 93 C250 51 216 37 185 37 C151 37 117 61 117 104 C117 134 134 163 159 177 C211 155 250 137 250 93 L250 93 Z M25 104 C25 47 70 -8 183 -8 C290 -8 349 56 349 115 C349 169 313 205 256 229 C311 244 339 278 339 314 C339 376 281 417 196 417 C104 417 35 373 35 307 C35 263 64 223 120 205 C75 190 25 159 25 104 L25 104 Z " />
<glyph glyph-name="nineinferior" unicode="&#x2089;" horiz-adv-x="375" d="M246 270 C246 225 226 187 184 187 C144 187 121 228 121 282 C121 328 139 370 181 370 C226 370 246 312 246 270 L246 270 Z M185 415 C89 415 20 356 20 270 C20 186 82 134 160 134 C183 134 221 142 241 165 C211 79 105 27 42 1 L62 -36 C240 6 354 104 354 246 C354 334 295 415 185 415 L185 415 Z " />
<glyph glyph-name="Euro" unicode="&#x20ac;" horiz-adv-x="590" d="M-8 454 L-8 405 L57 405 C55 384 54 365 54 347 C54 332 54 317 56 304 L-8 304 L-8 255 L60 255 C82 90 196 -15 354 -15 C463 -15 572 47 595 168 L551 182 C524 98 464 63 398 63 C301 63 245 126 225 255 L417 255 L417 304 L221 304 C220 325 218 347 218 368 C218 380 219 393 220 405 L417 405 L417 454 L222 454 C236 607 292 666 372 666 C471 666 506 611 525 499 L528 482 L572 482 L572 702 L517 677 C499 691 436 715 356 715 C187 715 90 595 65 454 L-8 454 Z " />
<glyph glyph-name="afii61289" unicode="&#x2113;" horiz-adv-x="436" d="M394 573 C394 659 343 715 249 715 C167 715 94 656 94 551 L94 278 C94 279 61 249 28 226 L44 175 C62 189 94 215 94 215 L94 152 C94 15 188 -15 255 -15 C326 -15 392 13 412 93 L378 110 C363 73 337 63 313 63 C278 63 251 86 251 138 L251 310 C331 383 394 466 394 573 L394 573 Z M250 592 C250 628 265 649 292 649 C316 649 342 633 342 578 C342 517 321 456 250 378 L250 592 Z " />
<glyph glyph-name="trademark" unicode="&#x2122;" horiz-adv-x="1242" d="M1011 337 C1011 321 1005 316 986 313 L949 308 L949 260 L1066 262 L1194 260 L1194 308 L1157 313 C1139 316 1133 321 1133 337 L1125 627 C1125 643 1131 648 1149 652 L1187 657 L1187 705 L1030 701 L967 705 L967 687 L882 409 C882 409 825 556 781 705 L693 701 L565 705 L565 657 L592 652 C610 648 616 643 616 627 L613 337 C613 321 607 316 589 313 L553 308 L553 260 L646 262 L733 260 L733 308 L696 313 C677 316 671 321 671 337 L667 643 L800 262 L887 262 L1006 643 L1011 337 Z M335 649 L413 649 C433 649 444 638 452 606 L462 566 L500 566 L499 708 C499 708 444 702 415 702 L276 701 L135 702 C106 702 51 708 51 708 L50 566 L88 566 L98 606 C106 638 117 649 137 649 L215 649 L215 337 C215 321 209 316 190 313 L154 308 L154 260 L270 262 L397 260 L397 308 L359 313 C341 316 335 321 335 337 L335 649 Z " />
<glyph glyph-name="estimated" unicode="&#x212e;" horiz-adv-x="926" d="M892 348 C892 571 727 752 469 752 C233 752 48 578 48 367 C48 151 239 -22 469 -22 C608 -22 730 41 814 146 L740 146 C673 70 574 30 469 30 C372 30 222 82 222 166 L222 348 L892 348 Z M222 574 C222 659 388 700 469 700 C557 700 717 659 717 574 L717 401 L222 401 L222 574 Z " />
<glyph glyph-name="onethird" unicode="&#x2153;" horiz-adv-x="1020" d="M657 329 C681 345 715 360 752 360 C785 360 823 345 823 302 C823 237 743 236 701 235 L705 188 C705 188 727 190 756 190 C817 190 846 151 846 111 C846 72 819 33 764 33 C755 33 735 34 735 37 L735 109 L708 125 C668 125 631 95 631 64 C631 23 670 -8 759 -8 C851 -8 942 40 942 130 C942 187 900 223 841 230 L841 234 C904 250 922 286 922 318 C922 392 850 415 788 415 C728 415 668 390 638 361 L657 329 Z M188 21 L221 -9 L842 692 L810 722 L188 21 Z M277 357 C271 358 269 362 269 366 L269 709 L206 709 L81 663 L81 617 L166 635 L166 366 C166 362 164 358 158 357 L85 347 L85 305 L215 308 L341 305 L341 346 L277 357 Z " />
<glyph glyph-name="twothirds" unicode="&#x2154;" horiz-adv-x="1020" d="M79 305 L201 305 C288 305 379 304 379 304 L388 392 L182 388 C186 391 231 429 295 476 C361 525 387 553 387 610 C387 680 316 720 237 720 C136 720 79 677 79 631 C79 598 115 570 156 569 L182 589 L182 662 C182 673 198 676 206 676 C256 676 282 636 282 595 C282 566 279 538 227 484 C183 439 79 353 79 353 L79 305 Z M188 21 L221 -9 L842 692 L810 722 L188 21 Z M657 329 C681 345 715 360 752 360 C785 360 823 345 823 302 C823 237 743 236 701 235 L705 188 C705 188 727 190 756 190 C817 190 846 151 846 111 C846 72 819 33 764 33 C755 33 735 34 735 37 L735 109 L708 125 C668 125 631 95 631 64 C631 23 670 -8 759 -8 C851 -8 942 40 942 130 C942 187 900 223 841 230 L841 234 C904 250 922 286 922 318 C922 392 850 415 788 415 C728 415 668 390 638 361 L657 329 Z " />
<glyph glyph-name="oneeighth" unicode="&#x215b;" horiz-adv-x="1020" d="M732 324 C732 355 755 375 790 375 C831 375 849 346 849 318 C849 292 834 266 806 253 C765 273 732 291 732 324 L732 324 Z M847 93 C847 51 813 37 782 37 C748 37 714 61 714 104 C714 134 731 163 756 177 C808 155 847 137 847 93 L847 93 Z M622 104 C622 47 667 -8 780 -8 C887 -8 946 56 946 115 C946 169 910 205 853 229 C908 244 936 278 936 314 C936 376 878 417 793 417 C701 417 632 373 632 307 C632 263 661 223 717 205 C672 190 622 159 622 104 L622 104 Z M188 21 L221 -9 L842 692 L810 722 L188 21 Z M277 357 C271 358 269 362 269 366 L269 709 L206 709 L81 663 L81 617 L166 635 L166 366 C166 362 164 358 158 357 L85 347 L85 305 L215 308 L341 305 L341 346 L277 357 Z " />
<glyph glyph-name="threeeighths" unicode="&#x215c;" horiz-adv-x="1020" d="M108 634 C132 650 166 665 203 665 C236 665 274 650 274 607 C274 542 194 541 152 540 L156 493 C156 493 178 495 207 495 C268 495 297 456 297 416 C297 377 270 338 215 338 C206 338 186 339 186 342 L186 414 L159 430 C119 430 82 400 82 369 C82 328 121 297 210 297 C302 297 393 345 393 435 C393 492 351 528 292 535 L292 539 C355 555 373 591 373 623 C373 697 301 720 239 720 C179 720 119 695 89 666 L108 634 Z M188 21 L221 -9 L842 692 L810 722 L188 21 Z M732 324 C732 355 755 375 790 375 C831 375 849 346 849 318 C849 292 834 266 806 253 C765 273 732 291 732 324 L732 324 Z M847 93 C847 51 813 37 782 37 C748 37 714 61 714 104 C714 134 731 163 756 177 C808 155 847 137 847 93 L847 93 Z M622 104 C622 47 667 -8 780 -8 C887 -8 946 56 946 115 C946 169 910 205 853 229 C908 244 936 278 936 314 C936 376 878 417 793 417 C701 417 632 373 632 307 C632 263 661 223 717 205 C672 190 622 159 622 104 L622 104 Z " />
<glyph glyph-name="fiveeighths" unicode="&#x215d;" horiz-adv-x="1020" d="M208 338 C199 338 187 339 187 342 L187 414 L162 430 C122 430 83 401 83 370 C83 329 115 297 207 297 C305 297 394 358 394 450 C394 549 305 587 200 587 C190 587 179 587 168 586 L169 636 L256 636 C305 636 356 636 387 641 L390 723 C390 723 178 717 115 717 L113 497 C141 503 169 504 184 504 C242 504 302 488 302 424 C302 370 253 338 208 338 L208 338 Z M188 21 L221 -9 L842 692 L810 722 L188 21 Z M732 324 C732 355 755 375 790 375 C831 375 849 346 849 318 C849 292 834 266 806 253 C765 273 732 291 732 324 L732 324 Z M847 93 C847 51 813 37 782 37 C748 37 714 61 714 104 C714 134 731 163 756 177 C808 155 847 137 847 93 L847 93 Z M622 104 C622 47 667 -8 780 -8 C887 -8 946 56 946 115 C946 169 910 205 853 229 C908 244 936 278 936 314 C936 376 878 417 793 417 C701 417 632 373 632 307 C632 263 661 223 717 205 C672 190 622 159 622 104 L622 104 Z " />
<glyph glyph-name="seveneighths" unicode="&#x215e;" horiz-adv-x="1020" d="M244 310 C278 459 395 673 395 673 L395 720 L79 720 L79 630 L218 630 C268 630 295 636 318 642 L322 636 C252 559 157 428 116 301 L244 310 Z M188 21 L221 -9 L842 692 L810 722 L188 21 Z M732 324 C732 355 755 375 790 375 C831 375 849 346 849 318 C849 292 834 266 806 253 C765 273 732 291 732 324 L732 324 Z M847 93 C847 51 813 37 782 37 C748 37 714 61 714 104 C714 134 731 163 756 177 C808 155 847 137 847 93 L847 93 Z M622 104 C622 47 667 -8 780 -8 C887 -8 946 56 946 115 C946 169 910 205 853 229 C908 244 936 278 936 314 C936 376 878 417 793 417 C701 417 632 373 632 307 C632 263 661 223 717 205 C672 190 622 159 622 104 L622 104 Z " />
<glyph glyph-name="partialdiff" unicode="&#x2202;" horiz-adv-x="586" d="M554 263 C554 532 359 700 154 779 L124 758 C205 700 325 602 379 480 C349 502 306 509 270 509 C148 509 32 405 32 244 C32 74 157 -15 288 -15 C449 -15 554 108 554 263 L554 263 Z M295 32 C228 32 187 103 187 257 C187 345 197 462 290 462 C353 462 399 390 399 239 C399 151 391 32 295 32 L295 32 Z " />
<glyph glyph-name="product" unicode="&#x220f;" horiz-adv-x="907" d="M556 649 C592 649 600 634 603 600 C603 600 605 514 605 349 C605 184 603 99 603 99 C602 69 591 58 556 51 L506 41 L506 -5 L684 0 L864 -5 L864 41 L813 51 C777 58 767 69 766 99 C766 99 763 184 763 349 C763 514 766 600 766 600 C769 634 777 642 813 649 L864 659 L864 705 L670 700 L208 700 L44 705 L44 659 L94 649 C130 642 138 634 141 600 C141 600 144 514 144 349 C144 184 141 99 141 99 C140 69 130 58 94 51 L44 41 L44 -5 L223 0 L402 -5 L402 41 L351 51 C316 58 305 69 304 99 C304 99 301 184 301 349 C301 514 304 600 304 600 C307 634 315 649 351 649 L556 649 Z " />
<glyph glyph-name="summation" unicode="&#x2211;" horiz-adv-x="682" d="M167 0 L424 0 C481 0 630 -5 630 -5 C632 62 643 212 643 212 L601 212 L563 129 C529 55 497 56 448 56 L120 56 L442 375 L250 629 C244 637 247 645 261 645 L479 645 C518 645 534 609 552 547 L563 508 L607 508 C616 650 624 711 624 711 C624 711 529 700 473 700 L166 700 L20 705 L20 661 L291 310 L20 41 L20 -5 L167 0 Z " />
<glyph glyph-name="minus" unicode="&#x2212;" horiz-adv-x="590" d="M49 398 L49 328 L541 328 L541 398 L49 398 Z " />
<glyph glyph-name="uni2215" unicode="&#x2215;" horiz-adv-x="596" d="M-29 21 L4 -9 L625 692 L593 722 L-29 21 Z " />
<glyph glyph-name="uni2219" unicode="&#x2219;" horiz-adv-x="269" d="M47 364 C47 316 87 277 135 277 C182 277 222 316 222 364 C222 411 182 451 135 451 C87 451 47 411 47 364 L47 364 Z " />
<glyph glyph-name="radical" unicode="&#x221a;" horiz-adv-x="590" d="M270 -202 L605 714 L537 714 L230 -148 L66 300 L-2 300 L186 -202 L270 -202 Z " />
<glyph glyph-name="infinity" unicode="&#x221e;" horiz-adv-x="1026" d="M278 597 C166 597 66 521 66 361 C66 201 166 125 278 125 C375 125 463 178 513 289 C563 178 651 125 748 125 C859 125 960 201 960 361 C960 521 859 597 748 597 C651 597 563 543 513 432 C463 543 375 597 278 597 L278 597 Z M895 361 C895 214 807 182 743 182 C675 182 596 215 537 361 C596 507 675 539 743 539 C807 539 895 508 895 361 L895 361 Z M131 361 C131 508 219 539 283 539 C351 539 430 507 488 361 C430 215 351 182 283 182 C219 182 131 214 131 361 L131 361 Z " />
<glyph glyph-name="integral" unicode="&#x222b;" horiz-adv-x="605" d="M378 484 C378 558 378 614 388 650 C398 685 417 697 436 697 C484 697 519 614 530 614 C581 614 634 659 634 715 C634 764 547 771 509 771 C374 771 229 689 229 485 L229 28 C229 -46 229 -102 219 -138 C209 -173 190 -185 171 -185 C123 -185 88 -102 77 -102 C26 -102 -27 -147 -27 -203 C-27 -252 60 -259 98 -259 C233 -259 378 -177 378 27 L378 484 Z " />
<glyph glyph-name="approxequal" unicode="&#x2248;" horiz-adv-x="590" d="M190 238 C261 238 327 194 409 194 C470 194 529 246 529 333 L481 333 C469 295 449 279 412 279 C338 279 279 323 193 323 C132 323 73 271 73 184 L121 184 C133 222 153 238 190 238 L190 238 Z M190 448 C261 448 327 404 409 404 C470 404 529 456 529 543 L481 543 C469 505 449 489 412 489 C338 489 279 533 193 533 C132 533 73 481 73 394 L121 394 C133 432 153 448 190 448 L190 448 Z " />
<glyph glyph-name="notequal" unicode="&#x2260;" horiz-adv-x="590" d="M63 476 L63 417 L287 417 L218 299 L63 299 L63 240 L183 240 L116 124 L179 124 L247 240 L525 240 L525 299 L281 299 L350 417 L525 417 L525 476 L385 476 L450 587 L386 587 L321 476 L63 476 Z " />
<glyph glyph-name="lessequal" unicode="&#x2264;" horiz-adv-x="590" d="M518 0 L518 49 L55 49 L55 0 L518 0 Z M115 347 L115 370 L518 524 L518 592 L56 409 L56 308 L518 125 L518 193 L115 347 Z " />
<glyph glyph-name="greaterequal" unicode="&#x2265;" horiz-adv-x="590" d="M534 0 L534 49 L71 49 L71 0 L534 0 Z M71 193 L71 125 L533 308 L533 409 L71 592 L71 524 L474 370 L474 347 L71 193 Z " />
<glyph glyph-name="lozenge" unicode="&#x25ca;" horiz-adv-x="590" d="M323 729 L266 729 L49 357 L266 -18 L323 -18 L540 357 L323 729 Z M294 673 L473 357 L294 37 L116 357 L294 673 Z " />
<glyph glyph-name="f_f" unicode="&#xfb00;" horiz-adv-x="751" d="M623 484 C623 558 623 614 633 650 C643 685 662 697 681 697 C729 697 764 614 775 614 C826 614 879 659 879 715 C879 764 792 771 754 771 C619 771 474 688 474 484 L255 484 L255 542 C256 625 259 671 303 671 C351 671 367 594 378 594 C414 594 464 642 464 698 C464 732 402 745 364 745 C201 745 108 620 106 484 L25 484 L25 427 L106 427 L106 89 C106 58 94 50 59 41 L30 34 L30 -5 L161 0 L348 -5 L348 34 L297 44 C262 51 255 64 255 95 L255 427 L474 427 L474 89 C474 58 462 50 427 41 L398 34 L398 -5 L529 0 L716 -5 L716 34 L665 44 C630 51 623 64 623 95 L623 432 L727 415 L735 491 L623 484 Z " />
<glyph glyph-name="fi" unicode="&#xfb01;" horiz-adv-x="713" d="M255 484 C255 558 255 614 265 650 C275 685 294 697 313 697 C361 697 396 614 407 614 C458 614 511 659 511 715 C511 764 424 771 386 771 C251 771 106 689 106 485 L25 485 L25 427 L106 427 L106 89 C106 58 94 50 59 41 L30 34 L30 -5 L161 0 L348 -5 L348 34 L297 44 C262 51 255 64 255 95 L255 432 L425 420 C470 417 474 397 474 356 L474 89 C474 58 462 50 427 41 L398 34 L398 -5 L549 0 L698 -5 L698 34 L668 41 C633 49 623 58 623 89 L623 345 C623 442 625 515 625 515 L581 515 C581 515 540 492 477 490 L255 484 Z " />
<glyph glyph-name="fl" unicode="&#xfb02;" horiz-adv-x="715" d="M624 451 C624 590 627 755 627 755 L591 755 L562 731 C538 745 479 771 386 771 C251 771 106 689 106 485 L25 485 L25 427 L106 427 L106 89 C106 58 94 50 59 41 L30 34 L30 -5 L161 0 L348 -5 L348 34 L297 44 C262 51 255 64 255 95 L255 432 L379 415 L387 491 L255 484 C255 558 255 614 265 650 C273 678 295 697 322 697 C365 697 439 662 474 608 L474 89 C474 58 463 49 428 41 L398 34 L398 -5 L549 0 L703 -5 L703 34 L670 41 C634 49 624 58 624 89 L624 451 Z " />
<glyph glyph-name="f_f_i" unicode="&#xfb03;" horiz-adv-x="1081" d="M474 427 L474 89 C474 58 462 50 427 41 L398 34 L398 -5 L529 0 L716 -5 L716 34 L665 44 C630 51 623 64 623 95 L623 432 L793 420 C838 417 842 397 842 356 L842 89 C842 58 830 50 795 41 L766 34 L766 -5 L917 0 L1066 -5 L1066 34 L1036 41 C1001 49 991 58 991 89 L991 345 C991 442 993 515 993 515 L949 515 C949 515 908 492 845 490 L623 484 C623 558 623 614 633 650 C643 685 672 697 691 697 C739 697 774 604 785 604 C821 604 879 668 879 724 C879 758 802 771 764 771 C629 771 474 688 474 484 L255 484 L255 542 C256 625 259 671 303 671 C351 671 367 594 378 594 C414 594 464 642 464 698 C464 732 402 745 364 745 C201 745 108 620 106 484 L25 484 L25 427 L106 427 L106 89 C106 58 94 50 59 41 L30 34 L30 -5 L161 0 L348 -5 L348 34 L297 44 C262 51 255 64 255 95 L255 427 L474 427 Z " />
<glyph glyph-name="f_f_l" unicode="&#xfb04;" horiz-adv-x="1083" d="M474 427 L474 89 C474 58 462 50 427 41 L398 34 L398 -5 L529 0 L716 -5 L716 34 L665 44 C630 51 623 64 623 95 L623 432 L747 415 L755 491 L623 484 C623 558 623 614 633 650 C641 678 663 697 690 697 C733 697 807 662 842 608 L842 89 C842 58 831 49 796 41 L766 34 L766 -5 L917 0 L1071 -5 L1071 34 L1038 41 C1002 49 992 58 992 89 L992 451 C992 590 995 755 995 755 L959 755 L930 731 C906 745 847 771 754 771 C619 771 474 688 474 484 L255 484 L255 542 C256 625 259 671 303 671 C351 671 367 594 378 594 C414 594 464 642 464 698 C464 732 402 745 364 745 C201 745 108 620 106 484 L25 484 L25 427 L106 427 L106 89 C106 58 94 50 59 41 L30 34 L30 -5 L161 0 L348 -5 L348 34 L297 44 C262 51 255 64 255 95 L255 427 L474 427 Z " />
<glyph glyph-name="st" unicode="&#xfb06;" horiz-adv-x="870" d="M45 168 L45 13 C45 13 126 -15 220 -15 C348 -15 429 42 429 149 C429 260 325 288 252 324 C214 343 183 362 183 399 C183 440 215 462 261 462 C290 462 318 448 323 430 L348 349 L400 349 L410 491 C387 496 348 502 310 505 C289 535 277 566 277 594 C277 639 310 673 384 673 C441 673 518 640 562 638 C561 626 561 616 561 606 C558 499 554 482 465 482 L465 427 L551 427 L551 121 C551 35 612 -15 705 -15 C764 -15 836 13 864 62 L848 98 C834 83 797 66 772 66 C721 66 700 100 700 150 L700 427 L843 412 L849 484 L700 484 L706 627 C739 636 756 672 756 701 C756 750 715 776 670 776 C626 776 577 744 567 688 C529 695 407 758 330 758 C217 758 171 697 171 632 C171 584 204 536 247 509 L240 509 C143 509 43 464 43 356 C43 285 87 246 138 219 C210 182 296 167 296 101 C296 53 259 32 218 32 C176 32 144 51 127 89 C111 125 98 168 98 168 L45 168 Z " />
</font>
</svg>
