<?xml version="1.0" encoding="UTF-8"?>
<svg xmlns="http://www.w3.org/2000/svg" xmlns:xlink="http://www.w3.org/1999/xlink" version="1.2" >
<font id="Antwerp SemiBold">
<font-face  font-family="Antwerp" units-per-em="1000" ascent="750" descent="-250" font-style="normal" font-weight="600" font-stretch="normal" cap-height="711" x-height="492" underline-position="-123" underline-thickness="20" />
<missing-glyph  horiz-adv-x="63" d="" />
<glyph glyph-name="NULL" d="" />
<glyph glyph-name="CR" unicode="&#xd;" horiz-adv-x="250" d="" />
<glyph glyph-name="space" unicode="&#x20;" horiz-adv-x="190" d="" />
<glyph glyph-name="exclam" unicode="&#x21;" horiz-adv-x="341" d="M170 715 C106 715 72 671 72 612 C72 496 138 423 147 237 L194 237 C203 423 269 496 269 612 C269 671 234 715 170 715 L170 715 Z M73 81 C73 28 116 -15 169 -15 C222 -15 265 28 265 81 C265 133 222 177 169 177 C116 177 73 133 73 81 L73 81 Z " />
<glyph glyph-name="quotedbl" unicode="&#x22;" horiz-adv-x="487" d="M60 405 L111 405 L221 715 L60 715 L60 405 Z M281 405 L332 405 L442 715 L281 715 L281 405 Z " />
<glyph glyph-name="numbersign" unicode="&#x23;" horiz-adv-x="590" d="M230 700 L171 700 L171 473 L25 473 L25 419 L171 419 L171 296 L25 296 L25 241 L171 241 L171 0 L230 0 L230 241 L358 241 L358 0 L420 0 L420 241 L564 241 L564 296 L420 296 L420 419 L564 419 L564 473 L420 473 L420 700 L358 700 L358 473 L230 473 L230 700 Z M230 419 L358 419 L358 296 L230 296 L230 419 Z " />
<glyph glyph-name="dollar" unicode="&#x24;" horiz-adv-x="590" d="M139 110 C106 186 97 231 97 231 L47 226 C53 124 53 35 53 22 C92 10 168 -14 279 -14 L279 -167 L324 -167 L324 -11 C459 2 553 85 553 206 C553 342 426 388 324 434 L324 662 C394 661 423 643 432 620 C452 564 467 509 467 509 L510 509 C517 591 529 683 529 683 C520 688 412 713 324 714 L324 836 L279 836 L279 712 C133 698 64 607 64 523 C64 382 176 340 279 295 L279 38 C214 40 159 64 139 110 L139 110 Z M419 156 C419 91 376 52 324 41 L324 275 C378 248 419 215 419 156 L419 156 Z M193 562 C193 616 233 646 279 657 L279 455 C230 482 193 508 193 562 L193 562 Z " />
<glyph glyph-name="percent" unicode="&#x25;" horiz-adv-x="794" d="M725 681 L689 713 L68 16 L104 -17 L725 681 Z M202 709 C114 709 40 625 40 527 C40 430 114 344 202 344 C290 344 365 430 365 527 C365 625 290 709 202 709 L202 709 Z M202 385 C151 385 148 455 148 527 C148 598 151 670 202 670 C254 670 257 598 257 527 C257 455 254 385 202 385 L202 385 Z M591 350 C502 350 427 265 427 168 C427 70 502 -14 591 -14 C680 -14 755 70 755 168 C755 265 680 350 591 350 L591 350 Z M591 26 C540 26 536 96 536 168 C536 239 540 311 591 311 C643 311 646 239 646 168 C646 96 643 26 591 26 L591 26 Z " />
<glyph glyph-name="ampersand" unicode="&#x26;" horiz-adv-x="850" d="M340 440 C268 494 241 538 241 592 C241 644 282 674 327 674 C381 674 422 634 422 572 C422 525 392 465 340 440 L340 440 Z M463 141 C430 99 379 78 330 78 C253 78 190 135 190 219 C190 267 216 319 247 345 L463 141 Z M244 388 C123 353 53 270 53 171 C53 78 121 -15 256 -15 C368 -15 442 44 496 110 L616 -3 L729 0 L829 -2 L829 38 C790 43 759 56 732 81 L582 215 C656 318 712 405 759 417 L796 426 L796 469 L668 464 L536 469 L536 426 L582 419 C609 415 618 401 618 382 C617 355 600 319 570 276 L549 246 C489 300 430 355 370 410 C471 442 517 503 517 565 C517 662 429 717 326 717 C190 717 116 641 116 549 C116 482 160 435 244 388 L244 388 Z " />
<glyph glyph-name="quotesingle" unicode="&#x27;" horiz-adv-x="266" d="M60 405 L111 405 L221 715 L60 715 L60 405 Z " />
<glyph glyph-name="parenleft" unicode="&#x28;" horiz-adv-x="322" d="M33 286 C33 120 130 -94 284 -176 L305 -155 C190 -34 174 182 174 284 L174 308 C174 409 190 624 304 745 L283 767 C131 684 33 471 33 305 L33 286 Z " />
<glyph glyph-name="parenright" unicode="&#x29;" horiz-adv-x="322" d="M289 305 C289 471 191 684 39 767 L18 745 C132 624 148 409 148 308 L148 284 C148 182 132 -34 17 -155 L38 -176 C192 -94 289 120 289 286 L289 305 Z " />
<glyph glyph-name="asterisk" unicode="&#x2a;" horiz-adv-x="590" d="M330 444 L518 502 L541 581 L461 616 L313 478 L356 675 L296 732 L234 677 L275 478 L129 617 L49 581 L72 503 L255 444 L72 385 L49 307 L129 270 L275 408 L234 211 L296 156 L356 212 L312 410 L461 272 L541 307 L518 385 L330 444 Z " />
<glyph glyph-name="plus" unicode="&#x2b;" horiz-adv-x="590" d="M52 330 L260 330 L260 114 L330 114 L330 330 L537 330 L537 393 L330 393 L330 608 L260 608 L260 393 L52 393 L52 330 Z " />
<glyph glyph-name="comma" unicode="&#x2c;" horiz-adv-x="302" d="M40 -195 C146 -161 258 -64 258 53 C258 134 192 190 139 190 C99 190 43 137 38 95 C38 93 39 88 40 87 C111 67 139 26 139 -20 C139 -69 107 -125 23 -165 L40 -195 Z " />
<glyph glyph-name="hyphen" unicode="&#x2d;" horiz-adv-x="364" d="M303 241 L303 325 L61 325 L61 241 L303 241 Z " />
<glyph glyph-name="period" unicode="&#x2e;" horiz-adv-x="284" d="M46 81 C46 28 89 -15 142 -15 C195 -15 238 28 238 81 C238 133 195 177 142 177 C89 177 46 133 46 81 L46 81 Z " />
<glyph glyph-name="slash" unicode="&#x2f;" horiz-adv-x="540" d="M518 815 L475 837 L21 -112 L66 -134 L518 815 Z " />
<glyph glyph-name="zero" unicode="0" horiz-adv-x="590" d="M294 712 C146 712 35 543 35 350 C35 157 146 -15 294 -15 C443 -15 553 157 553 350 C553 543 443 712 294 712 L294 712 Z M294 30 C215 30 187 103 187 350 C187 599 215 665 294 665 C373 665 402 599 402 350 C402 103 373 30 294 30 L294 30 Z " />
<glyph glyph-name="one" unicode="1" horiz-adv-x="590" d="M387 328 C387 536 391 704 391 704 L331 704 L101 629 L101 575 C133 580 205 590 222 590 C237 590 239 577 239 557 L239 328 C239 256 238 99 238 99 C238 71 217 58 187 54 L107 42 L107 -7 L307 0 L519 -7 L519 42 L439 54 C409 58 388 71 388 99 C388 99 387 256 387 328 L387 328 Z " />
<glyph glyph-name="two" unicode="2" horiz-adv-x="590" d="M51 -1 C73 0 155 0 217 0 C358 0 516 -2 516 -2 L536 131 L189 128 C206 146 299 227 385 301 C473 376 527 444 527 527 C527 651 410 712 293 712 C104 712 52 612 52 566 C52 501 106 461 180 461 L204 481 C202 506 198 557 198 621 C198 654 226 657 252 657 C337 657 374 588 374 501 C374 432 351 374 277 291 C201 205 83 101 51 73 L51 -1 Z " />
<glyph glyph-name="three" unicode="3" horiz-adv-x="590" d="M86 585 C133 616 177 634 239 634 C310 634 355 588 355 534 C355 462 290 401 146 397 L144 333 C144 333 183 335 203 335 C338 335 388 263 388 179 C388 106 341 29 236 29 C205 29 187 33 187 53 L185 177 L161 198 C78 191 42 148 42 102 C42 41 108 -15 251 -15 C399 -15 534 70 534 205 C534 333 416 395 316 397 C416 411 497 468 497 557 C497 646 420 711 304 711 C199 711 114 671 65 624 L86 585 Z " />
<glyph glyph-name="four" unicode="4" horiz-adv-x="590" d="M311 89 C311 58 300 49 265 41 L223 31 L223 -5 L383 0 L547 -5 L547 31 L504 41 C469 49 457 58 457 89 L457 186 L566 186 L566 243 L457 243 L457 419 L305 416 C308 395 311 317 311 261 L311 243 L86 243 C123 311 439 719 439 719 L299 722 C231 617 36 295 15 250 L15 186 L311 186 L311 89 Z " />
<glyph glyph-name="five" unicode="5" horiz-adv-x="590" d="M246 29 C213 29 189 33 189 53 L186 177 L162 197 C81 192 44 147 44 101 C44 40 107 -16 250 -16 C430 -16 539 105 539 227 C539 410 374 474 222 474 C196 474 157 472 135 470 L140 582 C140 582 329 576 398 576 C460 576 490 579 515 583 L521 709 C521 709 405 705 283 705 L94 705 L82 336 C107 341 177 345 200 345 C336 345 416 286 416 178 C416 92 347 29 246 29 L246 29 Z " />
<glyph glyph-name="six" unicode="6" horiz-adv-x="590" d="M183 230 C183 323 210 407 300 407 C378 407 419 327 419 219 C419 124 394 37 304 37 C206 37 183 147 183 230 L183 230 Z M306 -15 C461 -15 573 96 573 236 C573 387 460 472 347 472 C255 472 201 424 178 388 L168 391 C240 591 414 695 534 736 L503 775 C221 706 25 530 25 282 C25 129 112 -15 306 -15 L306 -15 Z " />
<glyph glyph-name="seven" unicode="7" horiz-adv-x="590" d="M285 -12 C334 228 480 477 560 630 L560 705 L44 705 L44 572 L239 572 C340 572 427 578 467 594 L471 589 C425 529 193 264 106 -23 L285 -12 Z " />
<glyph glyph-name="eight" unicode="8" horiz-adv-x="590" d="M34 171 C34 72 121 -15 289 -15 C478 -15 559 103 559 200 C559 285 518 357 386 408 C478 429 532 490 532 550 C532 656 432 715 306 715 C166 715 54 646 54 524 C54 434 117 376 201 346 C132 337 34 284 34 171 L34 171 Z M432 148 C432 75 365 34 300 34 C197 34 154 102 154 172 C154 230 188 289 246 319 C358 271 432 241 432 148 L432 148 Z M296 669 C368 669 412 622 412 559 C412 511 385 456 339 430 C246 468 193 505 193 571 C193 631 236 669 296 669 L296 669 Z " />
<glyph glyph-name="nine" unicode="9" horiz-adv-x="590" d="M406 467 C406 374 379 290 289 290 C210 290 170 369 170 477 C170 572 195 659 285 659 C383 659 406 550 406 467 L406 467 Z M283 711 C128 711 16 601 16 461 C16 310 131 225 244 225 C336 225 388 273 411 308 L421 305 C349 106 175 2 55 -39 L86 -79 C368 -10 564 166 564 414 C564 567 477 711 283 711 L283 711 Z " />
<glyph glyph-name="colon" unicode="&#x3a;" horiz-adv-x="317" d="M62 81 C62 28 105 -15 158 -15 C211 -15 254 28 254 81 C254 133 211 177 158 177 C105 177 62 133 62 81 L62 81 Z M62 394 C62 341 105 298 158 298 C211 298 254 341 254 394 C254 447 211 490 158 490 C105 490 62 447 62 394 L62 394 Z " />
<glyph glyph-name="semicolon" unicode="&#x3b;" horiz-adv-x="313" d="M63 394 C63 341 106 298 158 298 C211 298 254 341 254 394 C254 447 211 490 158 490 C106 490 63 447 63 394 L63 394 Z M51 -195 C157 -161 269 -64 269 53 C269 134 203 190 150 190 C110 190 54 137 49 95 C49 93 50 88 51 87 C122 67 150 26 150 -20 C150 -69 118 -125 34 -165 L51 -195 Z " />
<glyph glyph-name="less" unicode="&#x3c;" horiz-adv-x="590" d="M98 348 L98 368 L506 525 L506 587 L44 404 L44 313 L506 130 L506 191 L98 348 Z " />
<glyph glyph-name="equal" unicode="&#x3d;" horiz-adv-x="590" d="M64 296 L64 242 L526 242 L526 296 L64 296 Z M64 473 L64 419 L526 419 L526 473 L64 473 Z " />
<glyph glyph-name="greater" unicode="&#x3e;" horiz-adv-x="590" d="M83 191 L83 130 L546 313 L546 404 L83 587 L83 525 L492 368 L492 348 L83 191 Z " />
<glyph glyph-name="question" unicode="&#x3f;" horiz-adv-x="473" d="M203 675 C257 675 276 623 276 582 C276 490 148 413 148 321 C148 284 187 251 211 238 L238 243 C235 255 229 270 229 285 C229 356 430 415 430 560 C430 661 341 715 226 715 C78 715 34 648 34 599 C34 555 84 519 138 517 L167 534 C167 534 163 585 163 648 C163 666 174 675 203 675 L203 675 Z M124 81 C124 28 167 -15 221 -15 C274 -15 317 28 317 81 C317 134 274 177 221 177 C167 177 124 134 124 81 L124 81 Z " />
<glyph glyph-name="at" unicode="&#x40;" horiz-adv-x="1038" d="M621 242 L620 120 C620 92 590 66 554 66 C504 66 480 101 480 142 C480 216 559 234 621 242 L621 242 Z M759 346 C759 460 682 504 580 504 C472 504 368 470 368 393 C368 350 405 318 447 312 L493 332 L493 430 C493 458 521 462 547 462 C617 462 621 414 621 343 L621 279 C503 272 351 238 351 112 C351 38 413 -15 492 -15 C567 -15 611 31 623 61 C635 16 677 -15 738 -15 C903 -15 1004 131 1004 295 C1004 531 832 713 554 713 C270 713 44 521 44 233 C44 -50 242 -247 550 -247 C656 -247 798 -214 869 -148 L848 -114 C772 -162 679 -181 608 -181 C316 -181 178 25 178 238 C178 509 360 659 573 659 C790 659 949 511 949 293 C949 184 882 51 800 51 C776 51 753 60 753 98 C753 145 759 275 759 346 L759 346 Z " />
<glyph glyph-name="A" unicode="A" horiz-adv-x="769" d="M457 283 C457 283 518 115 525 96 C536 67 520 55 484 48 L432 38 L432 -5 L608 0 L785 -5 L785 38 L737 48 C706 54 697 67 685 96 C549 435 442 726 442 726 L318 707 C318 707 195 374 86 95 C75 66 64 54 33 48 L-15 38 L-15 -5 L85 0 L256 -5 L256 38 L193 48 C158 54 146 67 155 96 C155 96 174 166 217 283 L457 283 Z M441 333 L234 333 L337 620 L441 333 Z " />
<glyph glyph-name="B" unicode="B" horiz-adv-x="736" d="M286 116 C286 116 284 245 284 338 L354 338 C485 338 528 275 528 188 C528 92 464 41 381 41 C318 41 286 56 286 116 L286 116 Z M284 654 C301 656 322 658 351 658 C448 658 498 613 498 528 C498 437 463 386 366 386 C315 386 284 399 284 399 L284 654 Z M39 661 L91 651 C126 644 137 636 138 602 C138 602 141 514 141 349 C141 184 138 96 138 96 C137 66 126 56 91 49 L39 39 L39 -5 L187 0 C216 -2 401 -8 428 -8 C627 -8 681 104 681 186 C681 286 594 357 484 368 L484 375 C588 391 646 458 646 539 C646 644 556 704 442 704 C363 704 187 700 187 700 L39 705 L39 661 Z " />
<glyph glyph-name="C" unicode="C" horiz-adv-x="747" d="M197 375 C197 546 287 660 432 660 C521 660 581 629 608 550 L629 489 L674 489 C679 562 691 665 695 700 L619 687 C566 702 496 715 425 715 C197 715 46 555 46 346 C46 105 221 -15 421 -15 C521 -15 624 11 690 38 C692 147 697 227 697 227 L649 227 L585 70 C547 60 514 56 480 56 C303 56 197 179 197 375 L197 375 Z " />
<glyph glyph-name="D" unicode="D" horiz-adv-x="855" d="M187 0 C219 -3 390 -8 408 -8 C681 -8 808 150 808 358 C808 544 690 710 444 710 C410 710 281 708 187 700 L39 705 L39 661 L91 651 C126 644 135 636 138 602 C138 602 141 514 141 349 C141 184 138 96 138 96 C137 66 126 56 91 49 L39 39 L39 -5 L187 0 Z M301 658 C313 658 365 657 382 657 C581 657 651 541 651 337 C651 82 520 40 408 40 C312 40 284 46 284 116 L284 642 C284 652 285 658 301 658 L301 658 Z " />
<glyph glyph-name="E" unicode="E" horiz-adv-x="710" d="M284 384 L284 631 C284 641 285 647 301 647 L483 647 C524 647 539 611 557 549 L569 508 L614 508 C624 650 632 711 632 711 C632 711 535 700 479 700 L201 700 L39 705 L39 661 L91 651 C126 644 138 636 138 602 C138 602 141 514 141 349 C141 184 138 96 138 96 C138 66 126 55 91 48 L39 38 L39 -5 L201 0 L450 0 C508 0 645 -5 645 -5 C652 67 668 194 671 212 L627 212 C556 70 535 53 463 53 L355 53 C305 53 284 73 284 116 L284 337 C284 337 342 336 399 333 C429 331 442 319 451 282 L464 227 L509 227 L504 359 L509 494 L464 494 L451 439 C442 402 429 390 399 388 C342 385 284 384 284 384 L284 384 Z " />
<glyph glyph-name="F" unicode="F" horiz-adv-x="678" d="M216 0 L394 -5 L394 39 L332 49 C296 55 284 66 284 96 L284 317 C284 317 357 316 413 313 C444 311 456 299 465 262 L478 207 L523 207 L518 339 L523 474 L478 474 L465 419 C456 382 444 370 413 368 C357 365 284 364 284 364 L284 631 C284 641 285 647 301 647 L503 647 C542 647 560 620 576 557 L588 508 L634 508 C644 650 651 711 651 711 C651 711 548 700 490 700 L216 700 L39 705 L39 661 L91 651 C126 644 135 636 138 602 C138 602 141 514 141 349 C141 184 138 96 138 96 C137 66 126 56 91 49 L39 39 L39 -5 L216 0 Z " />
<glyph glyph-name="G" unicode="G" horiz-adv-x="838" d="M468 660 C558 660 627 628 639 587 C649 554 656 521 667 489 L712 489 C718 562 729 666 733 701 C707 697 682 692 656 687 C618 699 550 715 452 715 C248 715 45 589 45 349 C45 200 126 -15 452 -15 C577 -15 736 43 736 43 L736 216 C736 248 748 254 784 265 L816 275 L816 321 L659 316 L480 321 L480 275 L541 265 C577 259 588 251 588 219 L588 77 C588 49 552 45 495 45 C267 45 197 225 197 366 C197 548 299 660 468 660 L468 660 Z " />
<glyph glyph-name="H" unicode="H" horiz-adv-x="892" d="M608 335 C608 179 605 96 605 96 C604 66 595 56 559 49 L508 39 L508 -5 L680 0 L853 -5 L853 39 L801 49 C766 56 755 66 754 96 C754 96 751 186 751 351 C751 516 754 602 754 602 C756 635 766 644 801 651 L853 661 L853 705 L680 700 L508 705 L508 661 L559 651 C595 644 603 635 605 602 C605 602 608 534 608 386 L284 386 C284 534 287 602 287 602 C289 635 297 644 333 651 L384 661 L384 705 L212 700 L39 705 L39 661 L91 651 C126 644 136 635 138 602 C138 602 141 516 141 351 C141 186 138 96 138 96 C137 66 126 56 91 49 L39 39 L39 -5 L212 0 L384 -5 L384 39 L333 49 C297 56 288 66 287 96 C287 96 284 179 284 335 L608 335 Z " />
<glyph glyph-name="I" unicode="I" horiz-adv-x="425" d="M138 98 C137 64 126 56 91 49 L39 39 L39 -5 L212 0 L386 -5 L386 39 L334 49 C299 56 288 64 287 98 C287 98 284 184 284 349 C284 514 287 602 287 602 C288 636 299 644 334 651 L386 661 L386 705 L212 700 L39 705 L39 661 L91 651 C126 644 137 636 138 602 C138 602 141 514 141 349 C141 184 138 98 138 98 L138 98 Z " />
<glyph glyph-name="J" unicode="J" horiz-adv-x="414" d="M273 349 C273 514 276 602 276 602 C278 636 286 644 323 651 L374 661 L374 705 L202 700 L33 705 L33 661 L81 651 C116 643 126 634 127 602 C127 602 130 514 130 349 C130 204 128 106 127 35 C125 -87 85 -127 3 -145 L19 -188 C149 -181 259 -137 273 0 L374 0 L374 43 L323 50 C286 55 275 68 274 98 C274 98 273 233 273 349 L273 349 Z " />
<glyph glyph-name="K" unicode="K" horiz-adv-x="789" d="M213 0 L386 -5 L386 38 L334 48 C299 55 288 66 287 96 C287 96 284 179 284 335 L370 335 L585 -3 L663 0 L800 -5 L800 38 C746 52 731 51 704 91 L476 420 C492 441 535 492 600 565 C653 625 671 643 704 650 L756 661 L756 705 L619 700 L471 705 L471 661 L515 651 C541 645 554 637 554 619 C554 612 550 602 543 592 C457 474 386 386 386 386 L284 386 C284 531 287 602 287 602 C288 636 299 644 334 651 L386 661 L386 705 L213 700 L39 705 L39 661 L91 651 C126 644 137 636 138 602 C138 602 141 514 141 349 C141 184 138 96 138 96 C137 66 126 55 91 48 L39 38 L39 -5 L213 0 Z " />
<glyph glyph-name="L" unicode="L" horiz-adv-x="676" d="M286 109 C284 167 284 191 284 356 C284 521 287 602 287 602 C288 636 299 644 334 651 L386 661 L386 705 L213 700 L39 705 L39 661 L91 651 C126 644 137 636 138 602 C138 602 141 521 141 356 C141 191 138 96 138 96 C137 66 126 56 91 49 L39 39 L39 -5 L202 0 L441 0 C498 0 639 -5 639 -5 L662 212 L622 212 L576 126 C539 54 506 53 457 53 L356 53 C306 53 287 66 286 109 L286 109 Z " />
<glyph glyph-name="M" unicode="M" horiz-adv-x="1066" d="M784 96 C784 65 772 56 737 49 L685 39 L685 -5 L844 0 L1031 -5 L1031 39 L979 49 C944 56 933 65 933 96 C934 96 926 379 926 602 C926 634 938 644 973 651 L1025 661 L1025 705 L866 700 C818 703 778 702 731 705 L731 661 C731 661 602 301 547 162 L405 518 C369 608 343 686 336 705 L210 700 L45 705 L45 661 L97 651 C145 642 143 631 143 545 C143 467 134 181 134 96 C134 65 123 56 87 49 L35 39 L35 -5 L166 0 L298 -5 L298 39 L247 49 C212 56 202 65 202 96 C202 230 201 625 201 625 C305 374 383 177 456 -6 L543 -6 L779 626 C779 626 784 524 784 96 L784 96 Z " />
<glyph glyph-name="N" unicode="N" horiz-adv-x="882" d="M143 602 C143 484 134 142 133 96 C132 65 122 56 86 49 L34 39 L34 -5 L162 0 L296 -5 L296 39 L243 49 C208 56 196 65 196 96 C196 230 195 615 195 615 C195 615 393 361 659 -5 L752 -5 C752 346 757 514 757 602 C757 634 768 644 804 651 L856 661 L856 705 L727 700 L595 705 L595 661 L647 651 C683 644 693 634 694 602 C696 537 703 172 703 172 L371 618 C343 655 325 705 325 705 L187 700 L47 705 L47 661 L97 651 C132 644 143 633 143 602 L143 602 Z " />
<glyph glyph-name="O" unicode="O" horiz-adv-x="835" d="M424 39 C299 39 198 135 198 363 C198 493 240 660 418 660 C544 660 636 563 636 336 C636 206 601 39 424 39 L424 39 Z M420 715 C198 714 45 556 45 343 C45 100 247 -15 409 -15 C629 -15 789 141 789 354 C789 595 603 715 420 715 L420 715 Z " />
<glyph glyph-name="P" unicode="P" horiz-adv-x="670" d="M386 39 L334 49 C299 56 287 66 287 96 C287 96 284 184 284 349 C284 514 286 642 286 642 C286 652 288 658 304 658 L360 658 C446 658 492 603 492 500 C492 399 453 340 375 340 C365 340 341 341 341 341 L341 296 C341 296 368 290 394 290 C576 290 644 410 644 511 C644 660 526 711 432 711 C370 711 239 702 239 702 L39 705 L39 661 L91 651 C126 644 138 636 138 602 C138 602 141 514 141 349 C141 184 138 96 138 96 C138 66 126 56 91 49 L39 39 L39 -5 L217 0 L386 -5 L386 39 Z " />
<glyph glyph-name="Q" unicode="Q" horiz-adv-x="835" d="M374 -13 C418 -35 499 -100 556 -136 C650 -195 756 -244 873 -244 C936 -244 1001 -230 1070 -198 L1072 -151 C1053 -156 1032 -159 1010 -159 C953 -159 905 -144 839 -118 C818 -110 689 -50 555 11 C697 63 789 191 789 354 C789 595 603 715 420 715 C198 714 45 555 45 343 C45 117 204 -7 374 -13 L374 -13 Z M424 39 C299 39 198 135 198 363 C198 493 240 660 418 660 C544 660 636 563 636 336 C636 206 601 39 424 39 L424 39 Z " />
<glyph glyph-name="R" unicode="R" horiz-adv-x="767" d="M141 349 C141 184 138 96 138 96 C138 66 126 56 91 49 L39 39 L39 -5 L216 0 L388 -5 L388 39 L336 49 C300 56 288 65 287 96 C284 213 284 314 284 314 L379 314 C444 214 516 45 592 11 C629 -6 685 -10 747 -10 C759 -10 771 -9 785 -9 L796 36 C723 45 666 127 627 183 C587 240 548 297 509 354 C597 384 651 452 651 526 C651 697 491 710 413 710 C346 710 246 701 240 702 L39 705 L39 661 L91 651 C126 644 137 636 138 602 C138 602 141 514 141 349 L141 349 Z M355 658 C443 658 500 615 500 515 C500 381 400 363 369 363 C329 363 305 368 284 374 L284 642 C284 652 285 658 302 658 L355 658 Z " />
<glyph glyph-name="S" unicode="S" horiz-adv-x="609" d="M146 111 C113 186 103 231 103 231 L53 226 C59 124 59 35 59 22 C98 11 176 -15 285 -15 C444 -15 559 72 559 206 C559 437 201 403 201 561 C201 631 268 660 327 660 C401 660 429 644 438 620 C459 564 474 509 474 509 L517 509 C524 591 535 683 535 683 C523 688 413 715 324 715 C152 715 71 614 71 523 C71 273 427 330 427 156 C427 77 363 39 295 39 C227 39 167 62 146 111 L146 111 Z " />
<glyph glyph-name="T" unicode="T" horiz-adv-x="727" d="M363 698 L178 700 C95 701 29 710 29 711 C29 711 28 591 20 500 L65 500 C98 610 111 643 168 644 L290 646 C290 646 292 514 292 349 C292 184 290 96 290 96 C290 66 277 56 242 49 L190 39 L190 -5 L364 0 L536 -5 L536 39 L483 49 C447 56 437 66 437 96 C437 96 435 184 435 349 C435 514 437 646 437 646 L559 644 C616 643 629 610 662 500 L707 500 C699 591 698 711 698 711 C698 710 632 701 549 700 L363 698 Z " />
<glyph glyph-name="U" unicode="U" horiz-adv-x="842" d="M262 602 C262 634 274 644 310 651 L360 661 L360 705 L183 700 L19 705 L19 661 L71 651 C106 644 118 634 118 602 L118 240 C118 73 244 -15 421 -15 C605 -15 722 81 722 261 C722 261 724 521 724 602 C724 634 736 644 771 651 L823 661 L823 705 L693 700 L562 705 L562 661 L614 651 C649 644 661 634 661 602 C661 564 663 368 663 263 C663 166 612 51 453 51 C353 51 262 93 262 246 L262 602 Z " />
<glyph glyph-name="V" unicode="V" horiz-adv-x="768" d="M445 -6 C445 -6 520 188 682 604 C693 633 705 645 736 651 L784 661 L784 705 L660 700 L523 705 L523 661 L573 651 C609 644 626 632 615 603 L433 113 C406 183 310 425 250 603 C240 632 257 644 292 651 L345 661 L345 705 L159 700 L-16 705 L-16 661 L32 651 C62 645 72 632 83 603 C206 285 327 -16 327 -16 L445 -6 Z " />
<glyph glyph-name="W" unicode="W" horiz-adv-x="1148" d="M846 -6 C846 -6 983 391 1061 604 C1072 633 1085 645 1115 651 L1163 661 L1163 705 L1062 700 L903 705 L903 661 L955 651 C984 645 1000 636 1000 618 C1000 614 999 609 997 603 L834 119 L687 534 C676 565 672 589 672 599 C672 633 693 644 717 649 L774 661 L774 705 L586 700 L410 705 L410 661 L458 651 C488 645 499 633 509 603 L546 488 L400 118 C377 192 301 428 244 602 C242 608 241 614 241 619 C241 637 258 645 287 651 L339 661 L339 705 L154 700 L-15 705 L-15 661 L33 651 C61 645 74 632 84 603 C169 362 294 -16 295 -16 L406 -6 C406 -6 517 285 572 419 L732 -16 L846 -6 Z " />
<glyph glyph-name="X" unicode="X" horiz-adv-x="746" d="M127 0 L271 -5 L271 39 L213 49 C192 53 182 60 182 72 C182 77 187 87 192 95 C249 183 332 312 332 312 C356 275 417 182 472 95 C479 84 480 78 480 72 C480 61 471 53 452 49 L401 39 L401 -5 L581 0 L752 -5 L752 39 L705 49 C676 55 658 73 644 92 C578 182 444 383 444 383 C483 439 608 603 608 603 C624 623 643 644 674 651 L721 661 L721 705 L598 700 C552 700 505 700 459 701 L459 661 L511 651 C531 647 538 638 538 627 C538 616 532 604 525 593 C525 593 447 469 415 421 C352 515 308 593 308 593 C301 604 296 613 296 624 C296 638 304 648 323 651 L381 661 L381 705 L176 700 L10 705 L10 661 L58 651 C88 645 112 628 133 598 C133 598 215 484 303 355 C213 220 111 92 111 92 C94 73 81 55 51 49 L3 39 L3 -5 L127 0 Z " />
<glyph glyph-name="Y" unicode="Y" horiz-adv-x="711" d="M536 39 L484 49 C448 56 440 65 439 96 C438 128 436 184 436 223 C436 229 437 272 437 272 C437 272 511 409 624 604 C640 631 651 645 681 651 L726 661 L726 705 L625 700 L464 705 L464 661 L516 651 C552 644 567 627 553 600 C488 474 435 375 414 338 C414 338 355 442 264 602 C250 628 264 644 299 651 L353 661 L353 705 L161 700 L-15 705 L-15 661 L27 651 C59 644 70 629 86 603 C178 456 289 267 289 267 L289 223 C289 184 289 128 287 96 C286 65 278 56 242 49 L191 39 L191 -5 L374 0 L536 -5 L536 39 Z " />
<glyph glyph-name="Z" unicode="Z" horiz-adv-x="707" d="M465 646 C200 259 41 38 41 38 L41 -4 L162 0 L453 0 C511 0 641 -5 641 -5 L674 212 L634 212 L589 126 C552 55 517 53 469 53 L241 53 C228 53 228 63 232 69 C420 345 641 661 641 661 L641 704 C641 704 571 700 496 700 L192 700 C135 699 48 711 48 711 L56 508 L98 508 L110 557 C126 620 144 646 183 646 L465 646 Z " />
<glyph glyph-name="bracketleft" unicode="&#x5b;" horiz-adv-x="350" d="M239 292 C239 483 181 669 166 714 L334 714 L334 757 L86 757 L86 -170 L334 -170 L334 -129 L166 -129 C181 -83 239 101 239 292 L239 292 Z " />
<glyph glyph-name="backslash" unicode="&#x5c;" horiz-adv-x="540" d="M473 -134 L518 -112 L64 837 L21 815 L473 -134 Z " />
<glyph glyph-name="bracketright" unicode="&#x5d;" horiz-adv-x="350" d="M110 292 C110 101 168 -83 183 -129 L15 -129 L15 -170 L263 -170 L263 757 L15 757 L15 714 L183 714 C168 669 110 483 110 292 L110 292 Z " />
<glyph glyph-name="asciicircum" unicode="&#x5e;" horiz-adv-x="582" d="M328 700 L254 700 L75 227 L132 227 L289 651 L293 651 L450 227 L507 227 L328 700 Z " />
<glyph glyph-name="underscore" unicode="&#x5f;" horiz-adv-x="588" d="M464 -184 L464 -111 L123 -111 L123 -184 L464 -184 Z " />
<glyph glyph-name="grave" unicode="&#x60;" horiz-adv-x="415" d="M262 751 L89 751 L279 562 L325 568 L262 751 Z " />
<glyph glyph-name="a" unicode="a" horiz-adv-x="522" d="M303 242 L302 120 C302 92 272 66 236 66 C186 66 162 101 162 142 C162 216 241 234 303 242 L303 242 Z M50 393 C50 350 87 318 129 312 L175 332 L175 430 C175 458 203 462 229 462 C299 462 303 414 303 343 L303 279 C185 272 33 238 33 112 C33 38 95 -15 174 -15 C249 -15 293 31 305 61 C311 15 350 -15 406 -15 C452 -15 503 7 519 43 L509 72 C503 65 485 58 472 58 C449 58 434 74 434 105 C434 152 441 304 441 346 C441 460 364 504 262 504 C154 504 50 470 50 393 L50 393 Z " />
<glyph glyph-name="b" unicode="b" horiz-adv-x="591" d="M96 -8 C101 -5 129 13 155 23 C184 8 239 -15 301 -15 C445 -15 555 100 555 256 C555 425 451 504 347 504 C286 504 226 481 195 424 L186 426 C186 426 201 487 201 550 L201 755 L168 755 C112 743 55 732 0 720 L0 698 L39 683 C64 673 68 644 68 584 L68 161 C68 80 66 13 65 0 L96 -8 Z M283 427 C362 427 419 365 419 237 C419 95 365 33 284 33 C230 33 202 58 202 130 L202 345 C202 387 220 427 283 427 L283 427 Z " />
<glyph glyph-name="c" unicode="c" horiz-adv-x="492" d="M175 261 C175 406 222 459 281 459 C324 459 327 449 327 407 C327 376 326 336 326 331 L367 317 C402 322 457 340 457 400 C457 437 421 504 283 504 C146 504 35 391 35 244 C35 62 160 -15 265 -15 C344 -15 426 11 473 96 L447 126 C429 96 384 69 329 69 C248 69 175 127 175 261 L175 261 Z " />
<glyph glyph-name="d" unicode="d" horiz-adv-x="611" d="M388 477 C358 493 316 504 273 504 C135 504 35 387 35 241 C35 78 125 -15 233 -15 C291 -15 351 3 387 65 L394 64 L391 -8 L427 -8 C510 5 547 10 598 16 L598 51 C523 58 521 80 521 191 L521 413 C521 545 521 696 522 755 L488 755 L319 720 L319 698 L358 683 C385 673 388 650 388 581 L388 477 Z M305 78 C226 78 175 146 175 257 C175 347 197 459 303 459 C366 459 388 422 388 345 L388 155 C388 113 377 78 305 78 L305 78 Z " />
<glyph glyph-name="e" unicode="e" horiz-adv-x="518" d="M342 324 L178 321 C183 407 208 461 270 461 C329 461 344 407 342 324 L342 324 Z M35 244 C35 62 146 -15 263 -15 C342 -15 428 11 475 96 L449 126 C429 94 379 69 325 69 C248 69 175 133 175 261 L175 280 L484 279 L484 306 C484 419 409 504 275 504 C143 504 35 388 35 244 L35 244 Z " />
<glyph glyph-name="f" unicode="f" horiz-adv-x="372" d="M107 86 C107 55 95 47 59 38 L30 31 L30 -5 L176 0 L335 -5 L335 31 L283 41 C248 48 240 61 240 92 L240 430 L346 416 L354 487 L240 480 C240 559 242 615 254 651 C266 686 288 699 311 699 C360 699 394 622 404 622 C450 622 499 668 499 714 C499 758 413 767 376 767 C245 767 111 687 107 480 L27 480 L27 429 L107 429 L107 86 Z " />
<glyph glyph-name="g" unicode="g" horiz-adv-x="585" d="M581 388 L581 499 L411 469 C377 492 313 504 269 504 C130 504 48 427 48 328 C48 260 85 211 132 185 C90 152 52 108 52 74 C52 25 81 -4 128 -14 L128 -23 C77 -39 27 -73 27 -133 C27 -233 154 -259 249 -259 C457 -259 541 -159 541 -64 C541 25 485 64 399 74 L225 93 C163 100 151 106 151 127 C151 140 160 155 167 168 C193 159 225 151 273 151 C404 151 495 221 495 325 C495 361 483 394 465 420 L564 382 L581 388 Z M140 -110 C140 -65 159 -41 175 -31 C209 -32 289 -36 352 -47 C401 -55 418 -77 418 -114 C418 -191 358 -217 286 -217 C199 -217 140 -184 140 -110 L140 -110 Z M275 196 C223 196 191 238 191 339 C191 395 197 464 273 464 C323 464 351 419 351 324 C351 267 346 196 275 196 L275 196 Z " />
<glyph glyph-name="h" unicode="h" horiz-adv-x="622" d="M318 429 C399 429 406 344 406 273 L406 190 C406 76 402 52 358 38 L336 31 L336 -5 L475 0 L614 -5 L614 31 L585 38 C551 46 539 55 539 86 C539 127 541 249 541 334 C541 442 481 504 378 504 C295 504 242 449 225 419 L217 421 C217 421 230 453 230 549 L230 755 L196 755 L28 720 L28 698 L69 683 C93 674 96 650 96 581 L96 86 C96 55 82 50 49 38 L29 31 L29 -5 L166 0 L295 -5 L295 31 L267 38 C234 46 229 56 229 86 L229 300 C229 375 239 429 318 429 L318 429 Z " />
<glyph glyph-name="i" unicode="i" horiz-adv-x="326" d="M101 86 C101 55 89 47 53 38 L24 31 L24 -5 L168 0 L310 -5 L310 31 L280 38 C244 46 234 55 234 86 L234 340 C234 437 236 510 236 510 L194 510 L30 443 L30 421 L69 406 C96 396 101 373 101 304 L101 86 Z M75 677 C75 627 115 587 165 587 C215 587 255 627 255 677 C255 727 215 767 165 767 C115 767 75 727 75 677 L75 677 Z " />
<glyph glyph-name="j" unicode="j" horiz-adv-x="313" d="M221 340 C221 437 223 510 223 510 L182 510 L18 443 L18 421 L57 406 C83 396 88 373 88 304 L88 -65 C88 -149 66 -192 -4 -216 L16 -248 C26 -249 35 -249 45 -249 C161 -243 220 -180 220 -76 L220 0 L297 0 L297 36 L269 43 C233 52 221 61 221 92 L221 340 Z M62 677 C62 627 102 587 152 587 C202 587 242 627 242 677 C242 727 202 767 152 767 C102 767 62 727 62 677 L62 677 Z " />
<glyph glyph-name="k" unicode="k" horiz-adv-x="600" d="M225 485 C225 604 228 755 228 755 L194 755 L24 720 L24 698 L63 683 C89 673 92 650 92 581 L92 86 C92 55 81 47 45 38 L16 31 L16 -5 L154 0 L301 -5 L301 31 L273 38 C236 47 225 55 225 86 L225 250 L269 250 C269 250 373 59 403 -2 L438 0 L596 -1 L596 35 L565 44 C536 52 525 60 511 85 L379 318 L467 400 C490 421 520 439 555 449 L582 456 L582 493 L455 488 L330 493 L330 451 L375 446 C403 442 410 420 389 399 C369 378 289 297 289 297 L225 297 L225 485 Z " />
<glyph glyph-name="l" unicode="l" horiz-adv-x="320" d="M227 451 C227 590 230 755 230 755 L196 755 L25 720 L25 698 L64 683 C90 673 93 650 93 581 L93 86 C93 55 81 46 46 38 L16 31 L16 -5 L160 0 L307 -5 L307 31 L274 38 C237 46 227 55 227 86 L227 451 Z " />
<glyph glyph-name="m" unicode="m" horiz-adv-x="934" d="M29 -5 L163 0 L296 -5 L296 31 L267 38 C234 46 230 56 230 86 L230 310 C230 402 254 429 315 429 C402 429 407 341 407 273 L407 190 C407 74 403 53 359 38 L339 31 L339 -5 L476 0 L611 -5 L611 31 C558 43 540 51 540 86 C540 103 541 200 541 281 L541 320 C541 404 568 429 626 429 C713 429 718 341 718 273 L718 190 C718 65 711 48 651 31 L651 -5 L787 0 L926 -5 L926 31 L897 38 C862 46 851 55 851 86 C851 86 852 249 852 334 C852 442 793 504 690 504 C607 504 553 451 536 419 L527 420 C506 473 457 504 385 504 C295 504 242 449 225 419 L217 421 L219 510 L191 510 L28 443 L28 421 L67 406 C94 396 97 381 97 312 L97 86 C97 55 83 50 49 38 L29 31 L29 -5 Z " />
<glyph glyph-name="n" unicode="n" horiz-adv-x="623" d="M540 86 C540 127 542 249 542 334 C542 442 482 504 379 504 C296 504 242 449 225 419 L217 421 L219 510 L191 510 L28 443 L28 421 L67 406 C94 396 97 381 97 312 L97 86 C97 55 83 50 49 38 L29 31 L29 -5 L167 0 L296 -5 L296 31 L267 38 C234 46 230 56 230 86 L230 300 C230 375 239 429 319 429 C400 429 407 344 407 273 L407 190 C407 76 403 52 359 38 L337 31 L337 -5 L476 0 L615 -5 L615 31 L586 38 C552 46 540 55 540 86 L540 86 Z " />
<glyph glyph-name="o" unicode="o" horiz-adv-x="582" d="M286 -15 C442 -15 547 95 547 250 C547 432 411 504 298 504 C135 504 35 388 35 241 C35 71 160 -15 286 -15 L286 -15 Z M293 29 C224 29 176 100 176 254 C176 342 191 459 288 459 C354 459 406 389 406 236 C406 148 393 29 293 29 L293 29 Z " />
<glyph glyph-name="p" unicode="p" horiz-adv-x="610" d="M302 427 C381 427 438 365 438 237 C438 95 384 33 303 33 C249 33 221 58 221 130 L221 345 C221 387 239 427 302 427 L302 427 Z M208 10 C231 -1 271 -14 320 -14 C465 -14 574 101 574 256 C574 425 470 504 366 504 C305 504 245 481 214 424 L205 426 L209 510 L183 510 L19 443 L19 421 L58 406 C84 396 87 373 87 304 L87 -156 C87 -187 77 -196 42 -204 L13 -211 L13 -252 L159 -247 L313 -252 L313 -211 L270 -204 C234 -198 222 -188 222 -156 L222 -112 C222 -62 219 -21 208 10 L208 10 Z " />
<glyph glyph-name="q" unicode="q" horiz-adv-x="595" d="M306 78 C227 78 175 146 175 257 C175 347 198 459 305 459 C368 459 388 422 388 345 L388 155 C388 113 377 78 306 78 L306 78 Z M389 -156 C389 -188 377 -199 342 -204 L298 -211 L298 -252 L453 -247 L598 -252 L598 -211 L568 -204 C534 -196 524 -187 524 -156 L524 276 C524 419 533 499 533 499 L511 504 C462 502 429 481 414 459 C375 489 326 504 273 504 C135 504 35 388 35 241 C35 78 127 -15 234 -15 C302 -15 353 9 388 65 L397 63 C390 15 389 -14 389 -77 L389 -156 Z " />
<glyph glyph-name="r" unicode="r" horiz-adv-x="451" d="M215 398 L219 510 L191 510 L28 443 L28 421 L67 406 C94 396 97 373 97 304 L97 86 C97 55 83 50 49 38 L29 31 L29 -5 L166 0 L320 -5 L320 31 L277 38 C241 44 230 55 230 86 L230 358 C252 372 290 387 290 387 C318 382 373 340 373 340 L386 340 C424 359 445 390 445 423 C445 464 420 499 362 499 C306 499 251 437 223 396 L215 398 Z " />
<glyph glyph-name="s" unicode="s" horiz-adv-x="452" d="M94 164 L46 163 C47 155 48 110 48 88 C48 43 46 13 46 13 C46 13 121 -15 212 -15 C329 -15 415 39 415 144 C415 311 170 283 170 394 C170 439 202 459 248 459 C278 459 307 445 316 421 L343 348 L387 349 C387 388 394 467 398 484 C362 496 284 504 235 504 C139 504 46 459 46 353 C46 187 296 215 296 99 C296 63 269 29 212 29 C167 29 138 54 125 87 L94 164 Z " />
<glyph glyph-name="t" unicode="t" horiz-adv-x="400" d="M175 623 C154 538 118 489 5 480 L5 429 L92 429 L92 118 C92 32 151 -15 240 -15 C298 -15 366 12 392 62 L376 94 C362 76 324 59 299 59 C249 59 226 89 226 151 L226 429 L370 417 L377 485 L226 480 L226 623 L175 623 Z " />
<glyph glyph-name="u" unicode="u" horiz-adv-x="613" d="M519 191 C519 371 524 494 524 494 L438 487 L315 483 L315 446 L344 440 C381 433 386 416 386 385 L386 177 C386 104 363 67 307 67 C239 67 215 107 215 214 C215 281 214 437 220 494 L133 487 L17 483 L17 446 L40 440 C75 431 81 416 81 385 C81 385 80 240 80 155 C80 47 135 -15 237 -15 C317 -15 367 40 383 66 L392 64 L389 -8 L425 -8 C508 5 545 10 596 16 L596 51 C521 58 519 80 519 191 L519 191 Z " />
<glyph glyph-name="v" unicode="v" horiz-adv-x="550" d="M486 398 C498 427 504 436 537 448 L558 455 L558 492 L470 487 L365 492 L365 455 L388 448 C423 438 441 429 431 400 C406 328 332 140 321 112 L209 400 C198 428 212 440 246 448 L280 455 L280 492 L122 487 L-8 492 L-8 455 L12 448 C40 438 46 428 59 400 C142 214 231 -6 231 -6 L321 -6 C321 -6 398 187 486 398 L486 398 Z " />
<glyph glyph-name="w" unicode="w" horiz-adv-x="789" d="M-5 492 L-5 455 L15 448 C45 437 51 428 61 400 C119 238 187 -6 187 -6 L255 -6 L386 352 C422 262 529 -6 529 -6 L595 -6 C595 -6 661 227 724 399 C734 429 741 435 776 448 L795 455 L795 492 L698 487 L597 492 L597 455 L623 449 C654 442 666 433 666 413 C666 408 664 395 660 379 C642 305 620 230 599 158 L469 482 L388 482 C360 401 307 259 271 164 L204 398 C202 405 201 412 201 416 C201 436 216 443 241 448 L275 455 L275 492 L124 487 L-5 492 Z " />
<glyph glyph-name="x" unicode="x" horiz-adv-x="562" d="M110 400 C148 345 184 290 220 234 C153 145 103 81 103 81 C88 62 62 45 26 37 L0 31 L0 -5 L94 0 L217 -5 L217 31 L193 37 C173 42 160 46 160 58 C160 68 163 72 181 101 C196 125 220 164 244 196 C267 161 291 123 313 88 C320 77 327 66 327 56 C327 48 322 41 311 39 L274 31 L274 -5 L420 0 L556 -5 L556 32 L531 38 C495 47 478 58 460 86 L345 268 C403 340 451 400 451 400 C472 424 494 436 528 448 L548 455 L548 492 L453 487 L347 492 L347 455 C384 451 400 445 400 427 C400 422 397 413 390 403 C390 403 351 344 321 303 L261 400 C253 412 249 421 249 429 C249 438 254 444 271 448 L305 455 L305 492 L160 487 L21 492 L21 455 L46 446 C78 434 92 425 110 400 L110 400 Z " />
<glyph glyph-name="y" unicode="y" horiz-adv-x="550" d="M101 -263 L210 -273 L487 396 C499 425 504 436 538 448 L558 455 L558 492 L460 487 L360 492 L360 455 L384 448 C411 440 429 433 429 415 C429 411 428 404 426 398 C395 307 330 139 318 110 L215 398 C212 406 211 412 211 418 C211 435 225 442 251 448 L282 455 L282 492 L134 487 L-7 492 L-7 455 L13 448 C41 438 46 435 60 400 C118 258 203 27 216 -6 L263 -6 L101 -263 Z " />
<glyph glyph-name="z" unicode="z" horiz-adv-x="530" d="M170 0 C256 0 455 -3 480 -5 L497 175 L455 175 C424 61 388 45 339 45 L192 45 C291 184 389 321 490 460 L485 492 L230 492 C193 492 117 492 50 495 L50 328 L91 326 L101 360 C118 419 127 446 213 446 L323 446 L25 36 L25 -3 C41 -2 108 0 170 0 L170 0 Z " />
<glyph glyph-name="braceleft" unicode="&#x7b;" horiz-adv-x="376" d="M152 302 C241 336 270 406 270 462 L270 548 C270 567 269 586 269 604 C269 670 276 724 342 724 L349 724 L341 768 C165 768 122 710 122 605 C122 559 140 455 140 392 C140 357 136 338 116 319 C79 339 54 345 46 345 C23 345 6 328 6 303 C6 278 23 260 46 260 C54 260 80 266 117 286 C133 271 139 254 139 226 C139 156 122 49 122 1 C122 -104 165 -162 341 -162 L349 -118 L342 -118 C276 -118 269 -63 269 2 C269 20 270 39 270 58 L270 144 C270 198 242 272 152 302 L152 302 Z " />
<glyph glyph-name="bar" unicode="&#x7c;" horiz-adv-x="223" d="M84 813 L84 -197 L139 -197 L139 813 L84 813 Z " />
<glyph glyph-name="braceright" unicode="&#x7d;" horiz-adv-x="375" d="M223 302 C133 272 105 198 105 144 L105 58 C105 39 106 20 106 2 C106 -63 99 -118 33 -118 L26 -118 L34 -162 C210 -162 253 -104 253 1 C253 49 236 156 236 226 C236 254 242 271 258 286 C295 266 321 260 329 260 C352 260 369 278 369 303 C369 328 352 345 329 345 C321 345 296 339 259 319 C239 338 235 357 235 392 C235 455 253 559 253 605 C253 710 210 768 34 768 L26 724 L33 724 C99 724 106 670 106 604 C106 586 105 567 105 548 L105 462 C105 406 134 336 223 302 L223 302 Z " />
<glyph glyph-name="asciitilde" unicode="&#x7e;" horiz-adv-x="590" d="M182 344 C253 344 324 287 406 287 C467 287 523 334 523 418 L478 418 C469 377 446 358 409 358 C335 358 268 416 185 416 C124 416 67 366 67 282 L113 282 C122 324 144 344 182 344 L182 344 Z " />
<glyph glyph-name="exclamdown" unicode="&#xa1;" horiz-adv-x="341" d="M170 -240 C234 -240 269 -196 269 -137 C269 -21 203 52 194 238 L147 238 C138 52 72 -21 72 -137 C72 -196 106 -240 170 -240 L170 -240 Z M73 394 C73 342 116 298 169 298 C222 298 265 342 265 394 C265 447 222 490 169 490 C116 490 73 447 73 394 L73 394 Z " />
<glyph glyph-name="cent" unicode="&#xa2;" horiz-adv-x="590" d="M145 -144 L214 5 C245 -8 276 -15 307 -15 C386 -15 468 11 515 96 L489 126 C471 97 426 69 371 69 C331 69 293 83 265 113 L380 362 L387 327 L409 318 C444 323 499 340 499 400 C499 423 483 458 438 481 L500 613 L462 628 L399 495 C379 500 354 504 325 504 C188 504 77 391 77 244 C77 135 122 65 179 24 L107 -129 L145 -144 Z M217 261 C217 406 264 459 323 459 C357 459 363 448 367 426 L240 152 C225 180 217 216 217 261 L217 261 Z " />
<glyph glyph-name="sterling" unicode="&#xa3;" horiz-adv-x="590" d="M298 452 C303 597 315 667 371 667 C421 667 445 582 467 582 C508 582 559 644 559 691 C559 728 468 737 434 737 C286 737 155 648 155 426 L27 426 L27 380 L153 380 L153 276 L27 276 L27 230 L150 230 C148 168 144 115 136 92 C125 96 112 98 99 98 C63 98 26 81 26 38 C26 17 40 -14 80 -14 C101 -14 138 -6 157 48 C233 25 316 -41 402 -41 C511 -41 559 50 575 93 L553 119 C527 91 495 83 462 83 C404 83 322 107 278 107 C241 107 206 102 181 92 C261 146 274 185 283 230 L476 230 L476 276 L289 276 C293 310 296 337 297 380 L476 380 L476 426 L297 426 C297 429 298 449 298 452 L298 452 Z " />
<glyph glyph-name="currency" unicode="&#xa4;" horiz-adv-x="590" d="M296 578 C245 578 197 561 160 531 L83 609 L47 570 L123 493 C93 456 76 408 76 359 C76 309 93 262 123 224 L47 147 L83 109 L160 187 C197 157 245 140 296 140 C347 140 393 157 430 187 L507 109 L543 147 L467 224 C497 262 514 309 514 359 C514 408 497 456 467 493 L543 570 L507 609 L430 531 C393 561 347 578 296 578 L296 578 Z M296 531 C390 531 460 454 460 359 C460 263 390 187 296 187 C202 187 130 263 130 359 C130 454 202 531 296 531 L296 531 Z " />
<glyph glyph-name="yen" unicode="&#xa5;" horiz-adv-x="590" d="M33 274 L33 227 L226 227 L226 96 C226 65 216 55 182 48 L135 38 L135 -5 L298 0 L462 -5 L462 38 L414 48 C381 55 370 65 370 96 L370 227 L557 227 L557 274 L371 274 L422 377 L557 377 L557 424 L445 424 L545 604 C560 630 570 644 598 651 L625 657 L625 705 L523 700 L390 705 L390 661 L436 651 C470 644 484 628 471 600 L343 330 L205 603 C191 630 207 644 240 651 L289 661 L289 705 L109 700 L-36 705 L-36 657 L-11 651 C17 645 30 629 44 603 L144 424 L33 424 L33 377 L167 377 L223 274 L33 274 Z " />
<glyph glyph-name="brokenbar" unicode="&#xa6;" horiz-adv-x="223" d="M139 358 L139 813 L84 813 L84 358 L139 358 Z M84 253 L84 -197 L139 -197 L139 253 L84 253 Z " />
<glyph glyph-name="section" unicode="&#xa7;" horiz-adv-x="590" d="M564 669 C563 722 508 860 317 860 C169 860 26 760 26 560 C26 352 212 139 281 57 L319 75 C266 149 179 362 179 555 C179 702 260 778 356 778 C436 778 497 722 515 653 L564 669 Z M24 5 C25 -48 80 -186 273 -186 C422 -186 562 -82 562 114 C562 322 378 535 307 617 L269 599 C322 525 409 309 409 116 C409 -31 327 -104 233 -104 C152 -104 92 -48 73 21 L24 5 Z " />
<glyph glyph-name="dieresis" unicode="&#xa8;" horiz-adv-x="415" d="M29 650 C29 606 64 571 108 571 C152 571 187 606 187 650 C187 694 152 729 108 729 C64 729 29 694 29 650 L29 650 Z M228 650 C228 606 263 571 307 571 C351 571 386 606 386 650 C386 694 351 729 307 729 C263 729 228 694 228 650 L228 650 Z " />
<glyph glyph-name="copyright" unicode="&#xa9;" horiz-adv-x="934" d="M44 352 C44 115 228 -68 466 -68 C704 -68 890 115 890 352 C890 588 704 772 466 772 C228 772 44 588 44 352 L44 352 Z M110 352 C110 557 266 714 466 714 C667 714 824 557 824 352 C824 146 667 -10 466 -10 C266 -10 110 146 110 352 L110 352 Z M339 360 C339 490 405 562 487 562 C531 562 551 557 551 514 L551 454 L574 435 C616 440 652 467 652 512 C652 544 613 606 487 606 C337 606 236 492 236 343 C236 170 346 95 464 95 C535 95 619 119 669 210 L644 246 C644 246 608 165 506 165 C418 165 339 216 339 360 L339 360 Z " />
<glyph glyph-name="ordfeminine" unicode="&#xaa;" horiz-adv-x="443" d="M157 333 C212 333 247 366 257 387 C266 351 296 333 334 333 C370 333 402 353 416 378 L406 399 C393 390 377 387 368 387 C351 387 339 396 339 432 C339 461 342 551 342 591 C342 671 294 715 209 715 C112 715 55 676 55 636 C55 602 82 583 121 578 L143 593 L143 654 C143 673 160 677 173 677 C223 677 251 670 251 578 L251 553 C133 541 48 503 48 430 C48 380 83 333 157 333 L157 333 Z M193 389 C163 389 137 410 137 444 C137 481 162 512 251 526 L251 476 C251 419 242 389 193 389 L193 389 Z " />
<glyph glyph-name="guillemotleft" unicode="&#xab;" horiz-adv-x="574" d="M201 361 L306 637 L273 637 L35 355 L273 73 L306 73 L201 349 L201 361 Z M416 361 L521 637 L488 637 L250 355 L488 73 L521 73 L416 349 L416 361 Z " />
<glyph glyph-name="logicalnot" unicode="&#xac;" horiz-adv-x="590" d="M470 242 L526 242 L526 473 L64 473 L64 419 L470 419 L470 242 Z " />
<glyph glyph-name="uni00AD" unicode="&#xad;" horiz-adv-x="364" d="" />
<glyph glyph-name="registered" unicode="&#xae;" horiz-adv-x="934" d="M44 352 C44 115 228 -67 466 -67 C704 -67 890 115 890 352 C890 588 704 772 466 772 C228 772 44 588 44 352 L44 352 Z M311 348 C311 248 309 183 309 171 C308 156 299 145 278 141 L238 134 L238 103 L362 106 L477 103 L477 134 L438 141 C416 145 408 152 407 171 C404 250 402 321 402 321 C423 321 441 320 462 320 C476 302 500 254 548 181 C583 129 623 94 720 94 C656 29 566 -9 466 -9 C266 -9 110 146 110 352 C110 557 266 714 466 714 C667 714 824 557 824 352 C824 266 798 191 752 130 C699 140 661 183 621 242 L555 340 L555 342 C614 369 651 414 651 468 C651 573 564 597 503 597 C461 597 405 592 399 591 L238 593 L238 563 L278 555 C298 551 307 544 309 525 C309 525 311 460 311 348 L311 348 Z M444 559 C504 559 552 526 552 461 C552 386 504 356 479 356 C440 356 421 359 405 362 L405 553 C405 556 406 559 413 559 L444 559 Z " />
<glyph glyph-name="macron" unicode="&#xaf;" horiz-adv-x="501" d="M406 579 L406 651 L95 651 L95 579 L406 579 Z " />
<glyph glyph-name="degree" unicode="&#xb0;" horiz-adv-x="426" d="M213 714 C117 714 38 642 38 539 C38 434 117 363 213 363 C309 363 388 434 388 539 C388 642 309 714 213 714 L213 714 Z M213 420 C150 420 103 472 103 539 C103 605 150 657 213 657 C276 657 323 605 323 539 C323 472 276 420 213 420 L213 420 Z " />
<glyph glyph-name="plusminus" unicode="&#xb1;" horiz-adv-x="590" d="M52 330 L260 330 L260 114 L330 114 L330 330 L537 330 L537 393 L330 393 L330 608 L260 608 L260 393 L52 393 L52 330 Z M52 0 L537 0 L537 62 L52 62 L52 0 Z " />
<glyph glyph-name="twosuperior" unicode="&#xb2;" horiz-adv-x="375" d="M34 307 L153 307 C240 307 327 306 327 306 L336 389 L131 385 C135 388 198 442 246 478 C311 528 334 557 334 610 C334 679 264 718 186 718 C85 718 34 674 34 631 C34 599 69 574 108 573 L132 592 L132 662 C132 674 147 677 157 677 C208 677 236 638 236 596 C236 567 233 539 181 483 C138 438 34 351 34 351 L34 307 Z " />
<glyph glyph-name="threesuperior" unicode="&#xb3;" horiz-adv-x="375" d="M335 435 C335 494 291 529 235 535 L235 539 C295 555 315 590 315 623 C315 694 247 718 185 718 C127 718 68 693 41 666 L58 635 C82 652 119 666 153 666 C191 666 224 648 224 607 C224 546 151 539 98 538 L102 494 C108 495 129 496 152 496 C210 496 245 464 245 417 C245 372 210 337 157 337 C146 337 128 338 128 342 L128 412 L104 427 C66 427 31 399 31 369 C31 329 68 298 154 298 C247 298 335 346 335 435 L335 435 Z " />
<glyph glyph-name="acute" unicode="&#xb4;" horiz-adv-x="415" d="M96 568 L143 562 L333 751 L160 751 L96 568 Z " />
<glyph glyph-name="&amp;#xb5;" unicode="&#xb5;" horiz-adv-x="613" d="M519 191 C519 371 524 494 524 494 L438 487 L315 483 L315 446 L344 440 C381 433 386 416 386 385 L386 177 C386 104 363 67 307 67 C239 67 215 107 215 214 C215 281 214 437 220 494 L133 487 L17 483 L17 446 L40 440 C75 431 81 416 81 385 C81 385 80 240 80 155 L80 150 C78 13 62 -153 49 -247 L142 -247 L139 18 C160 -2 197 -15 237 -15 C317 -15 367 40 383 66 L392 64 L389 -8 L425 -8 C508 5 545 10 596 16 L596 51 C521 58 519 80 519 191 L519 191 Z " />
<glyph glyph-name="&amp;#x3bc;" unicode="&#x3bc;" horiz-adv-x="613" d="M519 191 C519 371 524 494 524 494 L438 487 L315 483 L315 446 L344 440 C381 433 386 416 386 385 L386 177 C386 104 363 67 307 67 C239 67 215 107 215 214 C215 281 214 437 220 494 L133 487 L17 483 L17 446 L40 440 C75 431 81 416 81 385 C81 385 80 240 80 155 L80 150 C78 13 62 -153 49 -247 L142 -247 L139 18 C160 -2 197 -15 237 -15 C317 -15 367 40 383 66 L392 64 L389 -8 L425 -8 C508 5 545 10 596 16 L596 51 C521 58 519 80 519 191 L519 191 Z " />
<glyph glyph-name="paragraph" unicode="&#xb6;" horiz-adv-x="710" d="M97 -136 C97 -224 173 -258 231 -258 C359 -258 388 -161 388 -67 L388 610 C388 638 402 649 432 649 L551 649 L551 -197 L604 -197 L604 700 L284 700 C153 700 34 605 34 460 C34 324 102 207 302 207 L334 207 L334 -80 C334 -176 294 -209 237 -209 L236 -201 C261 -190 279 -157 279 -129 C279 -79 240 -42 189 -42 C139 -42 97 -85 97 -136 L97 -136 Z " />
<glyph glyph-name="periodcentered" unicode="&#xb7;" horiz-adv-x="268" d="M50 362 C50 316 88 278 134 278 C180 278 218 316 218 362 C218 407 180 446 134 446 C88 446 50 407 50 362 L50 362 Z " />
<glyph glyph-name="cedilla" unicode="&#xb8;" horiz-adv-x="415" d="M225 24 L93 -82 C123 -90 215 -116 215 -181 C215 -224 182 -241 141 -241 C113 -241 98 -234 80 -226 L73 -260 C101 -276 146 -288 190 -288 C265 -288 340 -254 340 -170 C340 -76 239 -58 194 -57 L257 16 L225 24 Z " />
<glyph glyph-name="onesuperior" unicode="&#xb9;" horiz-adv-x="375" d="M319 307 L319 347 L260 356 C252 357 251 362 251 368 L251 709 L192 709 C151 694 110 678 69 664 L69 620 L154 638 L154 368 C154 362 153 357 145 356 L76 347 L76 307 L200 310 L319 307 Z " />
<glyph glyph-name="ordmasculine" unicode="&#xba;" horiz-adv-x="440" d="M216 334 C326 334 401 410 401 528 C401 651 316 715 224 715 C107 715 39 633 39 522 C39 393 130 334 216 334 L216 334 Z M223 368 C175 368 134 421 134 533 C134 596 143 681 218 681 C265 681 308 630 308 517 C308 454 298 368 223 368 L223 368 Z " />
<glyph glyph-name="guillemotright" unicode="&#xbb;" horiz-adv-x="574" d="M372 349 L268 73 L300 73 L538 355 L300 637 L268 637 L372 361 L372 349 Z M157 349 L53 73 L85 73 L323 355 L85 637 L53 637 L157 361 L157 349 Z " />
<glyph glyph-name="onequarter" unicode="&#xbc;" horiz-adv-x="1020" d="M186 19 L218 -9 L840 694 L810 722 L186 19 Z M337 307 L337 347 L278 356 C270 357 269 362 269 368 L269 709 L210 709 C169 694 128 678 87 664 L87 620 L172 638 L172 368 C172 362 171 357 163 356 L94 347 L94 307 L218 310 L337 307 Z M723 -3 L822 0 L923 -3 L923 31 L883 41 C874 43 870 47 870 58 L870 100 L926 100 L926 153 L870 153 L872 254 L771 252 C772 238 777 177 777 153 L649 153 C710 238 856 429 856 429 L773 430 C680 303 596 170 588 155 L588 100 L777 100 L777 58 C777 47 773 43 763 41 L723 32 L723 -3 Z " />
<glyph glyph-name="onehalf" unicode="&#xbd;" horiz-adv-x="1020" d="M186 19 L218 -9 L840 694 L810 722 L186 19 Z M337 307 L337 347 L278 356 C270 357 269 362 269 368 L269 709 L210 709 C169 694 128 678 87 664 L87 620 L172 638 L172 368 C172 362 171 357 163 356 L94 347 L94 307 L218 310 L337 307 Z M632 0 L751 0 C838 0 925 -1 925 -1 L934 82 L729 78 C733 81 796 135 844 171 C909 221 932 250 932 303 C932 372 862 411 784 411 C683 411 632 367 632 324 C632 292 667 267 706 266 L730 285 L730 355 C730 367 745 370 755 370 C806 370 834 331 834 289 C834 260 831 232 779 176 C736 131 632 44 632 44 L632 0 Z " />
<glyph glyph-name="threequarters" unicode="&#xbe;" horiz-adv-x="1020" d="M186 19 L218 -9 L840 694 L810 722 L186 19 Z M722 -3 L821 0 L922 -3 L922 31 L882 41 C873 43 869 47 869 58 L869 100 L925 100 L925 153 L869 153 L871 254 L770 252 C771 238 776 177 776 153 L648 153 C709 238 855 429 855 429 L772 430 C679 303 595 170 587 155 L587 100 L776 100 L776 58 C776 47 772 43 762 41 L722 32 L722 -3 Z M400 435 C400 494 356 529 300 535 L300 539 C360 555 380 590 380 623 C380 694 312 718 250 718 C192 718 133 693 106 666 L123 635 C147 652 184 666 218 666 C256 666 289 648 289 607 C289 546 216 539 163 538 L167 494 C173 495 194 496 217 496 C275 496 310 464 310 417 C310 372 275 337 222 337 C211 337 193 338 193 342 L193 412 L169 427 C131 427 96 399 96 369 C96 329 133 298 219 298 C312 298 400 346 400 435 L400 435 Z " />
<glyph glyph-name="questiondown" unicode="&#xbf;" horiz-adv-x="463" d="M263 -200 C208 -200 190 -148 190 -106 C190 -12 315 66 318 161 C315 178 292 217 255 237 C246 235 237 233 228 232 C231 220 237 205 237 190 C237 119 36 60 36 -85 C36 -186 125 -239 240 -239 C388 -239 432 -172 432 -123 C432 -79 382 -43 328 -41 L300 -58 L302 -141 C302 -152 303 -162 303 -172 C303 -190 292 -200 263 -200 L263 -200 Z M150 394 C150 341 193 298 246 298 C299 298 342 341 342 394 C342 447 299 490 246 490 C193 490 150 447 150 394 L150 394 Z " />
<glyph glyph-name="Agrave" unicode="&#xc0;" horiz-adv-x="769" d="M457 283 C457 283 518 115 525 96 C536 67 520 55 484 48 L432 38 L432 -5 L608 0 L785 -5 L785 38 L737 48 C706 54 697 67 685 96 C549 435 442 726 442 726 L318 707 C318 707 195 374 86 95 C75 66 64 54 33 48 L-15 38 L-15 -5 L85 0 L256 -5 L256 38 L193 48 C158 54 146 67 155 96 C155 96 174 166 217 283 L457 283 Z M441 333 L234 333 L337 620 L441 333 Z M433 964 L260 964 L450 775 L496 781 L433 964 Z " />
<glyph glyph-name="Aacute" unicode="&#xc1;" horiz-adv-x="769" d="M457 283 C457 283 518 115 525 96 C536 67 520 55 484 48 L432 38 L432 -5 L608 0 L785 -5 L785 38 L737 48 C706 54 697 67 685 96 C549 435 442 726 442 726 L318 707 C318 707 195 374 86 95 C75 66 64 54 33 48 L-15 38 L-15 -5 L85 0 L256 -5 L256 38 L193 48 C158 54 146 67 155 96 C155 96 174 166 217 283 L457 283 Z M441 333 L234 333 L337 620 L441 333 Z M274 781 L321 775 L511 964 L338 964 L274 781 Z " />
<glyph glyph-name="Acircumflex" unicode="&#xc2;" horiz-adv-x="769" d="M457 283 C457 283 518 115 525 96 C536 67 520 55 484 48 L432 38 L432 -5 L608 0 L785 -5 L785 38 L737 48 C706 54 697 67 685 96 C549 435 442 726 442 726 L318 707 C318 707 195 374 86 95 C75 66 64 54 33 48 L-15 38 L-15 -5 L85 0 L256 -5 L256 38 L193 48 C158 54 146 67 155 96 C155 96 174 166 217 283 L457 283 Z M441 333 L234 333 L337 620 L441 333 Z M215 780 L241 762 L384 855 L386 855 L533 761 L555 780 L413 970 L355 970 L215 780 Z " />
<glyph glyph-name="Atilde" unicode="&#xc3;" horiz-adv-x="769" d="M457 283 C457 283 518 115 525 96 C536 67 520 55 484 48 L432 38 L432 -5 L608 0 L785 -5 L785 38 L737 48 C706 54 697 67 685 96 C549 435 442 726 442 726 L318 707 C318 707 195 374 86 95 C75 66 64 54 33 48 L-15 38 L-15 -5 L85 0 L256 -5 L256 38 L193 48 C158 54 146 67 155 96 C155 96 174 166 217 283 L457 283 Z M441 333 L234 333 L337 620 L441 333 Z M473 881 C444 881 373 924 329 924 C263 924 222 850 210 797 L240 786 C259 821 278 825 305 825 C334 825 401 785 440 785 C512 785 547 857 560 910 L531 922 C512 885 503 881 473 881 L473 881 Z " />
<glyph glyph-name="Adieresis" unicode="&#xc4;" horiz-adv-x="769" d="M457 283 C457 283 518 115 525 96 C536 67 520 55 484 48 L432 38 L432 -5 L608 0 L785 -5 L785 38 L737 48 C706 54 697 67 685 96 C549 435 442 726 442 726 L318 707 C318 707 195 374 86 95 C75 66 64 54 33 48 L-15 38 L-15 -5 L85 0 L256 -5 L256 38 L193 48 C158 54 146 67 155 96 C155 96 174 166 217 283 L457 283 Z M441 333 L234 333 L337 620 L441 333 Z M206 863 C206 819 241 784 285 784 C329 784 364 819 364 863 C364 907 329 942 285 942 C241 942 206 907 206 863 L206 863 Z M405 863 C405 819 440 784 484 784 C528 784 563 819 563 863 C563 907 528 942 484 942 C440 942 405 907 405 863 L405 863 Z " />
<glyph glyph-name="Aring" unicode="&#xc5;" horiz-adv-x="769" d="M283 788 C283 847 320 892 381 892 C442 892 480 847 480 788 C480 729 442 684 381 684 C320 684 283 729 283 788 L283 788 Z M532 788 C532 873 466 937 381 937 C298 937 230 873 230 788 C230 733 258 687 301 661 C264 561 171 312 86 95 C75 66 64 54 33 48 L-15 38 L-15 -5 L85 0 L256 -5 L256 38 L193 48 C158 54 146 67 155 96 C155 96 174 166 217 283 L457 283 C457 283 518 115 525 96 C536 67 520 55 484 48 L432 38 L432 -5 L608 0 L785 -5 L785 38 L737 48 C706 54 697 67 685 96 C587 340 503 559 465 663 C505 689 532 734 532 788 L532 788 Z M441 333 L234 333 L337 620 L441 333 Z " />
<glyph glyph-name="AE" unicode="&#xc6;" horiz-adv-x="1045" d="M552 700 L345 705 L345 661 L394 655 C368 607 146 188 93 95 C68 52 20 47 -27 38 L-28 -5 L82 0 L254 -5 L255 38 L199 48 C175 52 163 60 163 74 C163 79 165 87 169 95 L260 283 L476 283 C476 178 475 113 475 96 C475 66 463 55 428 48 L376 38 L376 -5 L552 0 L785 0 C843 0 981 -5 981 -5 C988 67 1004 194 1007 212 L963 212 L923 133 C886 60 847 53 799 53 L689 53 C640 53 619 73 619 116 L619 337 C619 337 678 336 734 333 C764 331 777 319 786 282 L799 227 L844 227 L839 359 L844 494 L799 494 L786 439 C777 402 765 390 734 388 C678 385 619 384 619 384 L619 631 C619 641 620 647 636 647 L819 647 C857 647 876 611 893 549 L904 508 L950 508 C959 650 967 711 967 711 C967 711 871 700 814 700 L552 700 Z M457 648 C469 648 476 644 476 620 L476 334 L284 334 L446 648 L457 648 Z " />
<glyph glyph-name="Ccedilla" unicode="&#xc7;" horiz-adv-x="747" d="M197 375 C197 546 287 660 432 660 C521 660 581 629 608 550 L629 489 L674 489 C679 562 691 665 695 700 L619 687 C566 702 496 715 425 715 C197 715 46 555 46 346 C46 134 181 15 350 -10 L260 -82 C290 -90 382 -116 382 -181 C382 -224 349 -241 308 -241 C280 -241 265 -234 247 -226 L240 -260 C268 -276 313 -288 357 -288 C432 -288 507 -254 507 -170 C507 -76 406 -58 361 -57 L397 -14 C405 -15 413 -15 421 -15 C521 -15 624 11 690 38 C692 147 697 227 697 227 L649 227 L585 70 C547 60 514 56 480 56 C303 56 197 179 197 375 L197 375 Z " />
<glyph glyph-name="Egrave" unicode="&#xc8;" horiz-adv-x="710" d="M284 384 L284 631 C284 641 285 647 301 647 L483 647 C524 647 539 611 557 549 L569 508 L614 508 C624 650 632 711 632 711 C632 711 535 700 479 700 L201 700 L39 705 L39 661 L91 651 C126 644 138 636 138 602 C138 602 141 514 141 349 C141 184 138 96 138 96 C138 66 126 55 91 48 L39 38 L39 -5 L201 0 L450 0 C508 0 645 -5 645 -5 C652 67 668 194 671 212 L627 212 C556 70 535 53 463 53 L355 53 C305 53 284 73 284 116 L284 337 C284 337 342 336 399 333 C429 331 442 319 451 282 L464 227 L509 227 L504 359 L509 494 L464 494 L451 439 C442 402 429 390 399 388 C342 385 284 384 284 384 L284 384 Z M402 964 L229 964 L419 775 L465 781 L402 964 Z " />
<glyph glyph-name="Eacute" unicode="&#xc9;" horiz-adv-x="710" d="M284 384 L284 631 C284 641 285 647 301 647 L483 647 C524 647 539 611 557 549 L569 508 L614 508 C624 650 632 711 632 711 C632 711 535 700 479 700 L201 700 L39 705 L39 661 L91 651 C126 644 138 636 138 602 C138 602 141 514 141 349 C141 184 138 96 138 96 C138 66 126 55 91 48 L39 38 L39 -5 L201 0 L450 0 C508 0 645 -5 645 -5 C652 67 668 194 671 212 L627 212 C556 70 535 53 463 53 L355 53 C305 53 284 73 284 116 L284 337 C284 337 342 336 399 333 C429 331 442 319 451 282 L464 227 L509 227 L504 359 L509 494 L464 494 L451 439 C442 402 429 390 399 388 C342 385 284 384 284 384 L284 384 Z M279 781 L326 775 L516 964 L343 964 L279 781 Z " />
<glyph glyph-name="Ecircumflex" unicode="&#xca;" horiz-adv-x="710" d="M284 384 L284 631 C284 641 285 647 301 647 L483 647 C524 647 539 611 557 549 L569 508 L614 508 C624 650 632 711 632 711 C632 711 535 700 479 700 L201 700 L39 705 L39 661 L91 651 C126 644 138 636 138 602 C138 602 141 514 141 349 C141 184 138 96 138 96 C138 66 126 55 91 48 L39 38 L39 -5 L201 0 L450 0 C508 0 645 -5 645 -5 C652 67 668 194 671 212 L627 212 C556 70 535 53 463 53 L355 53 C305 53 284 73 284 116 L284 337 C284 337 342 336 399 333 C429 331 442 319 451 282 L464 227 L509 227 L504 359 L509 494 L464 494 L451 439 C442 402 429 390 399 388 C342 385 284 384 284 384 L284 384 Z M185 780 L211 762 L354 855 L356 855 L503 761 L525 780 L383 970 L325 970 L185 780 Z " />
<glyph glyph-name="Edieresis" unicode="&#xcb;" horiz-adv-x="710" d="M284 384 L284 631 C284 641 285 647 301 647 L483 647 C524 647 539 611 557 549 L569 508 L614 508 C624 650 632 711 632 711 C632 711 535 700 479 700 L201 700 L39 705 L39 661 L91 651 C126 644 138 636 138 602 C138 602 141 514 141 349 C141 184 138 96 138 96 C138 66 126 55 91 48 L39 38 L39 -5 L201 0 L450 0 C508 0 645 -5 645 -5 C652 67 668 194 671 212 L627 212 C556 70 535 53 463 53 L355 53 C305 53 284 73 284 116 L284 337 C284 337 342 336 399 333 C429 331 442 319 451 282 L464 227 L509 227 L504 359 L509 494 L464 494 L451 439 C442 402 429 390 399 388 C342 385 284 384 284 384 L284 384 Z M177 863 C177 819 212 784 256 784 C300 784 335 819 335 863 C335 907 300 942 256 942 C212 942 177 907 177 863 L177 863 Z M376 863 C376 819 411 784 455 784 C499 784 534 819 534 863 C534 907 499 942 455 942 C411 942 376 907 376 863 L376 863 Z " />
<glyph glyph-name="Igrave" unicode="&#xcc;" horiz-adv-x="425" d="M138 98 C137 64 126 56 91 49 L39 39 L39 -5 L212 0 L386 -5 L386 39 L334 49 C299 56 288 64 287 98 C287 98 284 184 284 349 C284 514 287 602 287 602 C288 636 299 644 334 651 L386 661 L386 705 L212 700 L39 705 L39 661 L91 651 C126 644 137 636 138 602 C138 602 141 514 141 349 C141 184 138 98 138 98 L138 98 Z M263 964 L90 964 L280 775 L326 781 L263 964 Z " />
<glyph glyph-name="Iacute" unicode="&#xcd;" horiz-adv-x="425" d="M138 98 C137 64 126 56 91 49 L39 39 L39 -5 L212 0 L386 -5 L386 39 L334 49 C299 56 288 64 287 98 C287 98 284 184 284 349 C284 514 287 602 287 602 C288 636 299 644 334 651 L386 661 L386 705 L212 700 L39 705 L39 661 L91 651 C126 644 137 636 138 602 C138 602 141 514 141 349 C141 184 138 98 138 98 L138 98 Z M97 781 L144 775 L334 964 L161 964 L97 781 Z " />
<glyph glyph-name="Icircumflex" unicode="&#xce;" horiz-adv-x="425" d="M138 98 C137 64 126 56 91 49 L39 39 L39 -5 L212 0 L386 -5 L386 39 L334 49 C299 56 288 64 287 98 C287 98 284 184 284 349 C284 514 287 602 287 602 C288 636 299 644 334 651 L386 661 L386 705 L212 700 L39 705 L39 661 L91 651 C126 644 137 636 138 602 C138 602 141 514 141 349 C141 184 138 98 138 98 L138 98 Z M42 780 L68 762 L211 855 L213 855 L360 761 L382 780 L240 970 L182 970 L42 780 Z " />
<glyph glyph-name="Idieresis" unicode="&#xcf;" horiz-adv-x="425" d="M138 98 C137 64 126 56 91 49 L39 39 L39 -5 L212 0 L386 -5 L386 39 L334 49 C299 56 288 64 287 98 C287 98 284 184 284 349 C284 514 287 602 287 602 C288 636 299 644 334 651 L386 661 L386 705 L212 700 L39 705 L39 661 L91 651 C126 644 137 636 138 602 C138 602 141 514 141 349 C141 184 138 98 138 98 L138 98 Z M34 863 C34 819 69 784 113 784 C157 784 192 819 192 863 C192 907 157 942 113 942 C69 942 34 907 34 863 L34 863 Z M233 863 C233 819 268 784 312 784 C356 784 391 819 391 863 C391 907 356 942 312 942 C268 942 233 907 233 863 L233 863 Z " />
<glyph glyph-name="Eth" unicode="&#xd0;" horiz-adv-x="855" d="M187 0 C219 -3 390 -8 408 -8 C681 -8 808 150 808 358 C808 544 690 710 444 710 C410 710 281 708 187 700 L39 705 L39 661 L91 651 C126 644 135 636 138 602 C138 602 140 526 141 386 L41 386 L41 335 L141 335 C141 180 138 96 138 96 C137 66 126 56 91 49 L39 39 L39 -5 L187 0 Z M301 658 C313 658 365 657 382 657 C581 657 651 541 651 337 C651 82 520 40 408 40 C312 40 284 46 284 116 L284 335 L475 335 L475 386 L284 386 L284 642 C284 652 285 658 301 658 L301 658 Z " />
<glyph glyph-name="Ntilde" unicode="&#xd1;" horiz-adv-x="882" d="M143 602 C143 484 134 142 133 96 C132 65 122 56 86 49 L34 39 L34 -5 L162 0 L296 -5 L296 39 L243 49 C208 56 196 65 196 96 C196 230 195 615 195 615 C195 615 393 361 659 -5 L752 -5 C752 346 757 514 757 602 C757 634 768 644 804 651 L856 661 L856 705 L727 700 L595 705 L595 661 L647 651 C683 644 693 634 694 602 C696 537 703 172 703 172 L371 618 C343 655 325 705 325 705 L187 700 L47 705 L47 661 L97 651 C132 644 143 633 143 602 L143 602 Z M529 881 C500 881 429 924 385 924 C319 924 278 850 266 797 L296 786 C315 821 334 825 361 825 C390 825 457 785 496 785 C568 785 603 857 616 910 L587 922 C568 885 559 881 529 881 L529 881 Z " />
<glyph glyph-name="Ograve" unicode="&#xd2;" horiz-adv-x="835" d="M424 39 C299 39 198 135 198 363 C198 493 240 660 418 660 C544 660 636 563 636 336 C636 206 601 39 424 39 L424 39 Z M420 715 C198 714 45 556 45 343 C45 100 247 -15 409 -15 C629 -15 789 141 789 354 C789 595 603 715 420 715 L420 715 Z M468 964 L295 964 L485 775 L531 781 L468 964 Z " />
<glyph glyph-name="Oacute" unicode="&#xd3;" horiz-adv-x="835" d="M424 39 C299 39 198 135 198 363 C198 493 240 660 418 660 C544 660 636 563 636 336 C636 206 601 39 424 39 L424 39 Z M420 715 C198 714 45 556 45 343 C45 100 247 -15 409 -15 C629 -15 789 141 789 354 C789 595 603 715 420 715 L420 715 Z M324 781 L371 775 L561 964 L388 964 L324 781 Z " />
<glyph glyph-name="Ocircumflex" unicode="&#xd4;" horiz-adv-x="835" d="M424 39 C299 39 198 135 198 363 C198 493 240 660 418 660 C544 660 636 563 636 336 C636 206 601 39 424 39 L424 39 Z M420 715 C198 714 45 556 45 343 C45 100 247 -15 409 -15 C629 -15 789 141 789 354 C789 595 603 715 420 715 L420 715 Z M246 780 L272 762 L415 855 L417 855 L564 761 L586 780 L444 970 L386 970 L246 780 Z " />
<glyph glyph-name="Otilde" unicode="&#xd5;" horiz-adv-x="835" d="M424 39 C299 39 198 135 198 363 C198 493 240 660 418 660 C544 660 636 563 636 336 C636 206 601 39 424 39 L424 39 Z M420 715 C198 714 45 556 45 343 C45 100 247 -15 409 -15 C629 -15 789 141 789 354 C789 595 603 715 420 715 L420 715 Z M504 881 C475 881 404 924 360 924 C294 924 253 850 241 797 L271 786 C290 821 309 825 336 825 C365 825 432 785 471 785 C543 785 578 857 591 910 L562 922 C543 885 534 881 504 881 L504 881 Z " />
<glyph glyph-name="Odieresis" unicode="&#xd6;" horiz-adv-x="835" d="M424 39 C299 39 198 135 198 363 C198 493 240 660 418 660 C544 660 636 563 636 336 C636 206 601 39 424 39 L424 39 Z M420 715 C198 714 45 556 45 343 C45 100 247 -15 409 -15 C629 -15 789 141 789 354 C789 595 603 715 420 715 L420 715 Z M238 863 C238 819 273 784 317 784 C361 784 396 819 396 863 C396 907 361 942 317 942 C273 942 238 907 238 863 L238 863 Z M437 863 C437 819 472 784 516 784 C560 784 595 819 595 863 C595 907 560 942 516 942 C472 942 437 907 437 863 L437 863 Z " />
<glyph glyph-name="multiply" unicode="&#xd7;" horiz-adv-x="590" d="M501 108 L541 150 L337 359 L535 562 L493 606 L295 402 L91 613 L49 571 L254 361 L49 150 L91 109 L295 318 L501 108 Z " />
<glyph glyph-name="Oslash" unicode="&#xd8;" horiz-adv-x="835" d="M420 715 C198 714 45 556 45 343 C45 213 102 120 180 61 L89 -61 L128 -90 L221 34 C281 1 348 -15 409 -15 C629 -15 789 141 789 354 C789 478 739 571 666 631 L755 750 L716 779 L626 658 C565 696 492 715 420 715 L420 715 Z M198 363 C198 493 240 660 418 660 C479 660 533 636 571 585 L244 146 C215 197 198 269 198 363 L198 363 Z M424 39 C366 39 313 59 273 104 L597 540 C622 489 636 421 636 336 C636 206 601 39 424 39 L424 39 Z " />
<glyph glyph-name="Ugrave" unicode="&#xd9;" horiz-adv-x="842" d="M262 602 C262 634 274 644 310 651 L360 661 L360 705 L183 700 L19 705 L19 661 L71 651 C106 644 118 634 118 602 L118 240 C118 73 244 -15 421 -15 C605 -15 722 81 722 261 C722 261 724 521 724 602 C724 634 736 644 771 651 L823 661 L823 705 L693 700 L562 705 L562 661 L614 651 C649 644 661 634 661 602 C661 564 663 368 663 263 C663 166 612 51 453 51 C353 51 262 93 262 246 L262 602 Z M467 964 L294 964 L484 775 L530 781 L467 964 Z " />
<glyph glyph-name="Uacute" unicode="&#xda;" horiz-adv-x="842" d="M262 602 C262 634 274 644 310 651 L360 661 L360 705 L183 700 L19 705 L19 661 L71 651 C106 644 118 634 118 602 L118 240 C118 73 244 -15 421 -15 C605 -15 722 81 722 261 C722 261 724 521 724 602 C724 634 736 644 771 651 L823 661 L823 705 L693 700 L562 705 L562 661 L614 651 C649 644 661 634 661 602 C661 564 663 368 663 263 C663 166 612 51 453 51 C353 51 262 93 262 246 L262 602 Z M338 781 L385 775 L575 964 L402 964 L338 781 Z " />
<glyph glyph-name="Ucircumflex" unicode="&#xdb;" horiz-adv-x="842" d="M262 602 C262 634 274 644 310 651 L360 661 L360 705 L183 700 L19 705 L19 661 L71 651 C106 644 118 634 118 602 L118 240 C118 73 244 -15 421 -15 C605 -15 722 81 722 261 C722 261 724 521 724 602 C724 634 736 644 771 651 L823 661 L823 705 L693 700 L562 705 L562 661 L614 651 C649 644 661 634 661 602 C661 564 663 368 663 263 C663 166 612 51 453 51 C353 51 262 93 262 246 L262 602 Z M249 780 L275 762 L418 855 L420 855 L567 761 L589 780 L447 970 L389 970 L249 780 Z " />
<glyph glyph-name="Udieresis" unicode="&#xdc;" horiz-adv-x="842" d="M262 602 C262 634 274 644 310 651 L360 661 L360 705 L183 700 L19 705 L19 661 L71 651 C106 644 118 634 118 602 L118 240 C118 73 244 -15 421 -15 C605 -15 722 81 722 261 C722 261 724 521 724 602 C724 634 736 644 771 651 L823 661 L823 705 L693 700 L562 705 L562 661 L614 651 C649 644 661 634 661 602 C661 564 663 368 663 263 C663 166 612 51 453 51 C353 51 262 93 262 246 L262 602 Z M241 863 C241 819 276 784 320 784 C364 784 399 819 399 863 C399 907 364 942 320 942 C276 942 241 907 241 863 L241 863 Z M440 863 C440 819 475 784 519 784 C563 784 598 819 598 863 C598 907 563 942 519 942 C475 942 440 907 440 863 L440 863 Z " />
<glyph glyph-name="Yacute" unicode="&#xdd;" horiz-adv-x="711" d="M536 39 L484 49 C448 56 440 65 439 96 C438 128 436 184 436 223 C436 229 437 272 437 272 C437 272 511 409 624 604 C640 631 651 645 681 651 L726 661 L726 705 L625 700 L464 705 L464 661 L516 651 C552 644 567 627 553 600 C488 474 435 375 414 338 C414 338 355 442 264 602 C250 628 264 644 299 651 L353 661 L353 705 L161 700 L-15 705 L-15 661 L27 651 C59 644 70 629 86 603 C178 456 289 267 289 267 L289 223 C289 184 289 128 287 96 C286 65 278 56 242 49 L191 39 L191 -5 L374 0 L536 -5 L536 39 Z M298 789 L345 783 L535 972 L362 972 L298 789 Z " />
<glyph glyph-name="Thorn" unicode="&#xde;" horiz-adv-x="711" d="M455 572 C412 572 316 566 284 562 C287 622 280 641 333 651 L384 661 L384 705 L213 700 L39 705 L39 661 L91 651 C126 644 137 636 138 602 C138 602 141 514 141 349 C141 184 138 96 138 96 C137 66 126 56 91 49 L39 39 L39 -5 L213 0 L384 -5 L384 39 L333 49 C297 56 286 66 285 96 C285 96 282 184 282 349 C282 423 283 471 284 515 L364 515 C455 515 531 463 531 353 C531 224 467 197 404 197 C379 197 379 198 379 198 L379 153 C379 153 416 147 440 147 C625 147 682 268 682 369 C682 518 549 572 455 572 L455 572 Z " />
<glyph glyph-name="germandbls" unicode="&#xdf;" horiz-adv-x="604" d="M115 0 L236 -2 L236 568 C236 673 285 716 356 716 C403 716 456 693 456 618 C456 505 307 446 307 350 C307 273 450 194 450 111 C450 59 411 40 373 40 C331 40 305 56 305 56 L292 17 C292 16 331 -11 407 -11 C515 -11 576 65 576 140 C576 289 417 331 417 433 C417 484 519 514 519 617 C519 696 462 767 341 767 C207 767 103 677 103 480 L32 480 L32 431 L103 431 L103 86 C103 55 91 47 55 38 L26 31 L26 -5 L115 0 Z " />
<glyph glyph-name="agrave" unicode="&#xe0;" horiz-adv-x="522" d="M303 242 L302 120 C302 92 272 66 236 66 C186 66 162 101 162 142 C162 216 241 234 303 242 L303 242 Z M50 393 C50 350 87 318 129 312 L175 332 L175 430 C175 458 203 462 229 462 C299 462 303 414 303 343 L303 279 C185 272 33 238 33 112 C33 38 95 -15 174 -15 C249 -15 293 31 305 61 C311 15 350 -15 406 -15 C452 -15 503 7 519 43 L509 72 C503 65 485 58 472 58 C449 58 434 74 434 105 C434 152 441 304 441 346 C441 460 364 504 262 504 C154 504 50 470 50 393 L50 393 Z M300 751 L127 751 L317 562 L363 568 L300 751 Z " />
<glyph glyph-name="aacute" unicode="&#xe1;" horiz-adv-x="522" d="M303 242 L302 120 C302 92 272 66 236 66 C186 66 162 101 162 142 C162 216 241 234 303 242 L303 242 Z M50 393 C50 350 87 318 129 312 L175 332 L175 430 C175 458 203 462 229 462 C299 462 303 414 303 343 L303 279 C185 272 33 238 33 112 C33 38 95 -15 174 -15 C249 -15 293 31 305 61 C311 15 350 -15 406 -15 C452 -15 503 7 519 43 L509 72 C503 65 485 58 472 58 C449 58 434 74 434 105 C434 152 441 304 441 346 C441 460 364 504 262 504 C154 504 50 470 50 393 L50 393 Z M142 568 L189 562 L379 751 L206 751 L142 568 Z " />
<glyph glyph-name="acircumflex" unicode="&#xe2;" horiz-adv-x="522" d="M303 242 L302 120 C302 92 272 66 236 66 C186 66 162 101 162 142 C162 216 241 234 303 242 L303 242 Z M50 393 C50 350 87 318 129 312 L175 332 L175 430 C175 458 203 462 229 462 C299 462 303 414 303 343 L303 279 C185 272 33 238 33 112 C33 38 95 -15 174 -15 C249 -15 293 31 305 61 C311 15 350 -15 406 -15 C452 -15 503 7 519 43 L509 72 C503 65 485 58 472 58 C449 58 434 74 434 105 C434 152 441 304 441 346 C441 460 364 504 262 504 C154 504 50 470 50 393 L50 393 Z M83 567 L109 549 L252 642 L254 642 L401 548 L423 567 L281 757 L223 757 L83 567 Z " />
<glyph glyph-name="atilde" unicode="&#xe3;" horiz-adv-x="522" d="M303 242 L302 120 C302 92 272 66 236 66 C186 66 162 101 162 142 C162 216 241 234 303 242 L303 242 Z M50 393 C50 350 87 318 129 312 L175 332 L175 430 C175 458 203 462 229 462 C299 462 303 414 303 343 L303 279 C185 272 33 238 33 112 C33 38 95 -15 174 -15 C249 -15 293 31 305 61 C311 15 350 -15 406 -15 C452 -15 503 7 519 43 L509 72 C503 65 485 58 472 58 C449 58 434 74 434 105 C434 152 441 304 441 346 C441 460 364 504 262 504 C154 504 50 470 50 393 L50 393 Z M336 668 C307 668 236 711 192 711 C126 711 85 637 73 584 L103 573 C122 608 141 612 168 612 C197 612 264 572 303 572 C375 572 410 644 423 697 L394 709 C375 672 366 668 336 668 L336 668 Z " />
<glyph glyph-name="adieresis" unicode="&#xe4;" horiz-adv-x="522" d="M303 242 L302 120 C302 92 272 66 236 66 C186 66 162 101 162 142 C162 216 241 234 303 242 L303 242 Z M50 393 C50 350 87 318 129 312 L175 332 L175 430 C175 458 203 462 229 462 C299 462 303 414 303 343 L303 279 C185 272 33 238 33 112 C33 38 95 -15 174 -15 C249 -15 293 31 305 61 C311 15 350 -15 406 -15 C452 -15 503 7 519 43 L509 72 C503 65 485 58 472 58 C449 58 434 74 434 105 C434 152 441 304 441 346 C441 460 364 504 262 504 C154 504 50 470 50 393 L50 393 Z M72 650 C72 606 107 571 151 571 C195 571 230 606 230 650 C230 694 195 729 151 729 C107 729 72 694 72 650 L72 650 Z M271 650 C271 606 306 571 350 571 C394 571 429 606 429 650 C429 694 394 729 350 729 C306 729 271 694 271 650 L271 650 Z " />
<glyph glyph-name="aring" unicode="&#xe5;" horiz-adv-x="522" d="M303 242 L302 120 C302 92 272 66 236 66 C186 66 162 101 162 142 C162 216 241 234 303 242 L303 242 Z M50 393 C50 350 87 318 129 312 L175 332 L175 430 C175 458 203 462 229 462 C299 462 303 414 303 343 L303 279 C185 272 33 238 33 112 C33 38 95 -15 174 -15 C249 -15 293 31 305 61 C311 15 350 -15 406 -15 C452 -15 503 7 519 43 L509 72 C503 65 485 58 472 58 C449 58 434 74 434 105 C434 152 441 304 441 346 C441 460 364 504 262 504 C154 504 50 470 50 393 L50 393 Z M258 581 C213 581 186 614 186 658 C186 702 213 735 258 735 C303 735 331 702 331 658 C331 614 303 581 258 581 L258 581 Z M258 775 C193 775 140 725 140 658 C140 591 193 540 258 540 C324 540 377 591 377 658 C377 725 324 775 258 775 L258 775 Z " />
<glyph glyph-name="ae" unicode="&#xe6;" horiz-adv-x="774" d="M224 462 C293 462 298 414 298 343 L298 278 C180 270 33 237 33 112 C33 38 95 -15 174 -15 C245 -15 308 15 339 80 C379 14 450 -15 524 -15 C603 -15 686 11 733 96 L708 126 C693 105 645 68 584 68 C505 68 448 131 437 253 L437 254 L739 279 L739 306 C739 420 665 504 533 504 C475 504 427 483 395 453 C372 484 309 504 249 504 C141 504 49 470 49 393 C49 350 87 318 128 312 L175 332 L175 430 C175 458 198 462 224 462 L224 462 Z M437 296 C437 412 466 462 525 462 C575 462 599 414 599 345 L599 312 L437 296 Z M237 63 C187 63 163 96 163 136 C163 208 238 229 298 237 C299 197 305 150 315 130 C312 91 279 63 237 63 L237 63 Z " />
<glyph glyph-name="ccedilla" unicode="&#xe7;" horiz-adv-x="492" d="M175 261 C175 406 222 459 281 459 C324 459 327 449 327 407 C327 376 326 336 326 331 L367 317 C402 322 457 340 457 400 C457 437 421 504 283 504 C146 504 35 391 35 244 C35 87 128 8 221 -10 L132 -82 C162 -90 254 -116 254 -181 C254 -224 221 -241 180 -241 C152 -241 137 -234 119 -226 L112 -260 C140 -276 185 -288 229 -288 C304 -288 379 -254 379 -170 C379 -76 278 -58 233 -57 L269 -15 C347 -14 427 12 473 96 L447 126 C429 96 384 69 329 69 C248 69 175 127 175 261 L175 261 Z " />
<glyph glyph-name="egrave" unicode="&#xe8;" horiz-adv-x="518" d="M342 324 L178 321 C183 407 208 461 270 461 C329 461 344 407 342 324 L342 324 Z M35 244 C35 62 146 -15 263 -15 C342 -15 428 11 475 96 L449 126 C429 94 379 69 325 69 C248 69 175 133 175 261 L175 280 L484 279 L484 306 C484 419 409 504 275 504 C143 504 35 388 35 244 L35 244 Z M304 751 L131 751 L321 562 L367 568 L304 751 Z " />
<glyph glyph-name="eacute" unicode="&#xe9;" horiz-adv-x="518" d="M342 324 L178 321 C183 407 208 461 270 461 C329 461 344 407 342 324 L342 324 Z M35 244 C35 62 146 -15 263 -15 C342 -15 428 11 475 96 L449 126 C429 94 379 69 325 69 C248 69 175 133 175 261 L175 280 L484 279 L484 306 C484 419 409 504 275 504 C143 504 35 388 35 244 L35 244 Z M145 568 L192 562 L382 751 L209 751 L145 568 Z " />
<glyph glyph-name="ecircumflex" unicode="&#xea;" horiz-adv-x="518" d="M342 324 L178 321 C183 407 208 461 270 461 C329 461 344 407 342 324 L342 324 Z M35 244 C35 62 146 -15 263 -15 C342 -15 428 11 475 96 L449 126 C429 94 379 69 325 69 C248 69 175 133 175 261 L175 280 L484 279 L484 306 C484 419 409 504 275 504 C143 504 35 388 35 244 L35 244 Z M87 567 L113 549 L256 642 L258 642 L405 548 L427 567 L285 757 L227 757 L87 567 Z " />
<glyph glyph-name="edieresis" unicode="&#xeb;" horiz-adv-x="518" d="M342 324 L178 321 C183 407 208 461 270 461 C329 461 344 407 342 324 L342 324 Z M35 244 C35 62 146 -15 263 -15 C342 -15 428 11 475 96 L449 126 C429 94 379 69 325 69 C248 69 175 133 175 261 L175 280 L484 279 L484 306 C484 419 409 504 275 504 C143 504 35 388 35 244 L35 244 Z M79 650 C79 606 114 571 158 571 C202 571 237 606 237 650 C237 694 202 729 158 729 C114 729 79 694 79 650 L79 650 Z M278 650 C278 606 313 571 357 571 C401 571 436 606 436 650 C436 694 401 729 357 729 C313 729 278 694 278 650 L278 650 Z " />
<glyph glyph-name="igrave" unicode="&#xec;" horiz-adv-x="326" d="M202 751 L29 751 L219 562 L265 568 L202 751 Z M101 86 C101 55 89 47 53 38 L24 31 L24 -5 L168 0 L310 -5 L310 31 L280 38 C244 46 234 55 234 86 L234 340 C234 437 236 510 236 510 L194 510 L30 443 L30 421 L69 406 C96 396 101 373 101 304 L101 86 Z " />
<glyph glyph-name="iacute" unicode="&#xed;" horiz-adv-x="326" d="M43 568 L90 562 L280 751 L107 751 L43 568 Z M101 86 C101 55 89 47 53 38 L24 31 L24 -5 L168 0 L310 -5 L310 31 L280 38 C244 46 234 55 234 86 L234 340 C234 437 236 510 236 510 L194 510 L30 443 L30 421 L69 406 C96 396 101 373 101 304 L101 86 Z " />
<glyph glyph-name="icircumflex" unicode="&#xee;" horiz-adv-x="326" d="M101 86 C101 55 89 47 53 38 L24 31 L24 -5 L168 0 L310 -5 L310 31 L280 38 C244 46 234 55 234 86 L234 340 C234 437 236 510 236 510 L194 510 L30 443 L30 421 L69 406 C96 396 101 373 101 304 L101 86 Z M-15 567 L11 549 L154 642 L156 642 L303 548 L325 567 L183 757 L125 757 L-15 567 Z " />
<glyph glyph-name="idieresis" unicode="&#xef;" horiz-adv-x="326" d="M-23 650 C-23 606 12 571 56 571 C100 571 135 606 135 650 C135 694 100 729 56 729 C12 729 -23 694 -23 650 L-23 650 Z M176 650 C176 606 211 571 255 571 C299 571 334 606 334 650 C334 694 299 729 255 729 C211 729 176 694 176 650 L176 650 Z M101 86 C101 55 89 47 53 38 L24 31 L24 -5 L168 0 L310 -5 L310 31 L280 38 C244 46 234 55 234 86 L234 340 C234 437 236 510 236 510 L194 510 L30 443 L30 421 L69 406 C96 396 101 373 101 304 L101 86 Z " />
<glyph glyph-name="eth" unicode="&#xf0;" horiz-adv-x="579" d="M544 257 C544 428 460 568 343 665 L425 708 L406 746 L305 693 C258 727 206 755 154 776 L126 755 C158 733 199 700 241 660 L160 618 L180 579 L272 628 C314 583 352 530 378 475 C351 494 310 504 272 504 C143 504 35 398 35 241 C35 71 158 -15 284 -15 C441 -15 544 102 544 257 L544 257 Z M292 29 C223 29 174 100 174 254 C174 342 189 459 287 459 C352 459 405 389 405 236 C405 148 391 29 292 29 L292 29 Z " />
<glyph glyph-name="ntilde" unicode="&#xf1;" horiz-adv-x="623" d="M540 86 C540 127 542 249 542 334 C542 442 482 504 379 504 C296 504 242 449 225 419 L217 421 L219 510 L191 510 L28 443 L28 421 L67 406 C94 396 97 381 97 312 L97 86 C97 55 83 50 49 38 L29 31 L29 -5 L167 0 L296 -5 L296 31 L267 38 C234 46 230 56 230 86 L230 300 C230 375 239 429 319 429 C400 429 407 344 407 273 L407 190 C407 76 403 52 359 38 L337 31 L337 -5 L476 0 L615 -5 L615 31 L586 38 C552 46 540 55 540 86 L540 86 Z M396 668 C367 668 296 711 252 711 C186 711 145 637 133 584 L163 573 C182 608 201 612 228 612 C257 612 324 572 363 572 C435 572 470 644 483 697 L454 709 C435 672 426 668 396 668 L396 668 Z " />
<glyph glyph-name="ograve" unicode="&#xf2;" horiz-adv-x="582" d="M286 -15 C442 -15 547 95 547 250 C547 432 411 504 298 504 C135 504 35 388 35 241 C35 71 160 -15 286 -15 L286 -15 Z M293 29 C224 29 176 100 176 254 C176 342 191 459 288 459 C354 459 406 389 406 236 C406 148 393 29 293 29 L293 29 Z M338 751 L165 751 L355 562 L401 568 L338 751 Z " />
<glyph glyph-name="oacute" unicode="&#xf3;" horiz-adv-x="582" d="M286 -15 C442 -15 547 95 547 250 C547 432 411 504 298 504 C135 504 35 388 35 241 C35 71 160 -15 286 -15 L286 -15 Z M293 29 C224 29 176 100 176 254 C176 342 191 459 288 459 C354 459 406 389 406 236 C406 148 393 29 293 29 L293 29 Z M172 568 L219 562 L409 751 L236 751 L172 568 Z " />
<glyph glyph-name="ocircumflex" unicode="&#xf4;" horiz-adv-x="582" d="M286 -15 C442 -15 547 95 547 250 C547 432 411 504 298 504 C135 504 35 388 35 241 C35 71 160 -15 286 -15 L286 -15 Z M293 29 C224 29 176 100 176 254 C176 342 191 459 288 459 C354 459 406 389 406 236 C406 148 393 29 293 29 L293 29 Z M117 567 L143 549 L286 642 L288 642 L435 548 L457 567 L315 757 L257 757 L117 567 Z " />
<glyph glyph-name="otilde" unicode="&#xf5;" horiz-adv-x="582" d="M286 -15 C442 -15 547 95 547 250 C547 432 411 504 298 504 C135 504 35 388 35 241 C35 71 160 -15 286 -15 L286 -15 Z M293 29 C224 29 176 100 176 254 C176 342 191 459 288 459 C354 459 406 389 406 236 C406 148 393 29 293 29 L293 29 Z M375 668 C346 668 275 711 231 711 C165 711 124 637 112 584 L142 573 C161 608 180 612 207 612 C236 612 303 572 342 572 C414 572 449 644 462 697 L433 709 C414 672 405 668 375 668 L375 668 Z " />
<glyph glyph-name="odieresis" unicode="&#xf6;" horiz-adv-x="582" d="M286 -15 C442 -15 547 95 547 250 C547 432 411 504 298 504 C135 504 35 388 35 241 C35 71 160 -15 286 -15 L286 -15 Z M293 29 C224 29 176 100 176 254 C176 342 191 459 288 459 C354 459 406 389 406 236 C406 148 393 29 293 29 L293 29 Z M109 650 C109 606 144 571 188 571 C232 571 267 606 267 650 C267 694 232 729 188 729 C144 729 109 694 109 650 L109 650 Z M308 650 C308 606 343 571 387 571 C431 571 466 606 466 650 C466 694 431 729 387 729 C343 729 308 694 308 650 L308 650 Z " />
<glyph glyph-name="divide" unicode="&#xf7;" horiz-adv-x="590" d="M211 191 C211 146 249 108 295 108 C340 108 378 146 378 191 C378 238 340 275 295 275 C249 275 211 238 211 191 L211 191 Z M211 532 C211 485 249 448 295 448 C340 448 378 485 378 532 C378 577 340 615 295 615 C249 615 211 577 211 532 L211 532 Z M52 330 L537 330 L537 393 L52 393 L52 330 Z " />
<glyph glyph-name="oslash" unicode="&#xf8;" horiz-adv-x="583" d="M286 -15 C442 -15 547 95 547 250 C547 334 517 394 475 435 L533 505 L504 530 L445 460 C400 490 347 504 298 504 C135 504 35 388 35 241 C35 159 64 98 107 55 L40 -23 L69 -48 L136 31 C179 0 232 -15 286 -15 L286 -15 Z M293 29 C252 29 219 54 198 105 L395 341 C402 311 406 277 406 236 C406 148 393 29 293 29 L293 29 Z M176 254 C176 342 191 459 288 459 C326 459 360 435 382 384 L185 149 C179 179 176 213 176 254 L176 254 Z " />
<glyph glyph-name="ugrave" unicode="&#xf9;" horiz-adv-x="613" d="M519 191 C519 371 524 494 524 494 L438 487 L315 483 L315 446 L344 440 C381 433 386 416 386 385 L386 177 C386 104 363 67 307 67 C239 67 215 107 215 214 C215 281 214 437 220 494 L133 487 L17 483 L17 446 L40 440 C75 431 81 416 81 385 C81 385 80 240 80 155 C80 47 135 -15 237 -15 C317 -15 367 40 383 66 L392 64 L389 -8 L425 -8 C508 5 545 10 596 16 L596 51 C521 58 519 80 519 191 L519 191 Z M353 751 L180 751 L370 562 L416 568 L353 751 Z " />
<glyph glyph-name="uacute" unicode="&#xfa;" horiz-adv-x="613" d="M519 191 C519 371 524 494 524 494 L438 487 L315 483 L315 446 L344 440 C381 433 386 416 386 385 L386 177 C386 104 363 67 307 67 C239 67 215 107 215 214 C215 281 214 437 220 494 L133 487 L17 483 L17 446 L40 440 C75 431 81 416 81 385 C81 385 80 240 80 155 C80 47 135 -15 237 -15 C317 -15 367 40 383 66 L392 64 L389 -8 L425 -8 C508 5 545 10 596 16 L596 51 C521 58 519 80 519 191 L519 191 Z M202 568 L249 562 L439 751 L266 751 L202 568 Z " />
<glyph glyph-name="ucircumflex" unicode="&#xfb;" horiz-adv-x="613" d="M519 191 C519 371 524 494 524 494 L438 487 L315 483 L315 446 L344 440 C381 433 386 416 386 385 L386 177 C386 104 363 67 307 67 C239 67 215 107 215 214 C215 281 214 437 220 494 L133 487 L17 483 L17 446 L40 440 C75 431 81 416 81 385 C81 385 80 240 80 155 C80 47 135 -15 237 -15 C317 -15 367 40 383 66 L392 64 L389 -8 L425 -8 C508 5 545 10 596 16 L596 51 C521 58 519 80 519 191 L519 191 Z M136 567 L162 549 L305 642 L307 642 L454 548 L476 567 L334 757 L276 757 L136 567 Z " />
<glyph glyph-name="udieresis" unicode="&#xfc;" horiz-adv-x="613" d="M519 191 C519 371 524 494 524 494 L438 487 L315 483 L315 446 L344 440 C381 433 386 416 386 385 L386 177 C386 104 363 67 307 67 C239 67 215 107 215 214 C215 281 214 437 220 494 L133 487 L17 483 L17 446 L40 440 C75 431 81 416 81 385 C81 385 80 240 80 155 C80 47 135 -15 237 -15 C317 -15 367 40 383 66 L392 64 L389 -8 L425 -8 C508 5 545 10 596 16 L596 51 C521 58 519 80 519 191 L519 191 Z M128 650 C128 606 163 571 207 571 C251 571 286 606 286 650 C286 694 251 729 207 729 C163 729 128 694 128 650 L128 650 Z M327 650 C327 606 362 571 406 571 C450 571 485 606 485 650 C485 694 450 729 406 729 C362 729 327 694 327 650 L327 650 Z " />
<glyph glyph-name="yacute" unicode="&#xfd;" horiz-adv-x="550" d="M101 -263 L210 -273 L487 396 C499 425 504 436 538 448 L558 455 L558 492 L460 487 L360 492 L360 455 L384 448 C411 440 429 433 429 415 C429 411 428 404 426 398 C395 307 330 139 318 110 L215 398 C212 406 211 412 211 418 C211 435 225 442 251 448 L282 455 L282 492 L134 487 L-7 492 L-7 455 L13 448 C41 438 46 435 60 400 C118 258 203 27 216 -6 L263 -6 L101 -263 Z M200 568 L247 562 L437 751 L264 751 L200 568 Z " />
<glyph glyph-name="thorn" unicode="&#xfe;" horiz-adv-x="592" d="M287 34 C234 34 202 54 202 108 L202 348 C202 393 224 427 285 427 C365 427 416 367 416 238 C416 124 380 34 287 34 L287 34 Z M69 -157 C69 -188 59 -197 24 -205 L-5 -212 L-5 -250 L141 -245 L295 -250 L295 -212 L252 -205 C216 -200 204 -188 204 -157 L204 -77 C204 -41 204 -9 188 24 C206 5 259 -15 310 -15 C453 -15 556 102 556 261 C556 417 456 504 348 504 C292 504 237 481 196 422 L187 423 C187 423 202 460 202 541 L202 745 L167 745 L-2 710 L-2 688 L40 673 C66 663 69 640 69 571 L69 -157 Z " />
<glyph glyph-name="ydieresis" unicode="&#xff;" horiz-adv-x="550" d="M101 -263 L210 -273 L487 396 C499 425 504 436 538 448 L558 455 L558 492 L460 487 L360 492 L360 455 L384 448 C411 440 429 433 429 415 C429 411 428 404 426 398 C395 307 330 139 318 110 L215 398 C212 406 211 412 211 418 C211 435 225 442 251 448 L282 455 L282 492 L134 487 L-7 492 L-7 455 L13 448 C41 438 46 435 60 400 C118 258 203 27 216 -6 L263 -6 L101 -263 Z M101 650 C101 606 136 571 180 571 C224 571 259 606 259 650 C259 694 224 729 180 729 C136 729 101 694 101 650 L101 650 Z M300 650 C300 606 335 571 379 571 C423 571 458 606 458 650 C458 694 423 729 379 729 C335 729 300 694 300 650 L300 650 Z " />
<glyph glyph-name="Amacron" unicode="&#x100;" horiz-adv-x="769" d="M457 283 C457 283 518 115 525 96 C536 67 520 55 484 48 L432 38 L432 -5 L608 0 L785 -5 L785 38 L737 48 C706 54 697 67 685 96 C549 435 442 726 442 726 L318 707 C318 707 195 374 86 95 C75 66 64 54 33 48 L-15 38 L-15 -5 L85 0 L256 -5 L256 38 L193 48 C158 54 146 67 155 96 C155 96 174 166 217 283 L457 283 Z M441 333 L234 333 L337 620 L441 333 Z M541 792 L541 864 L230 864 L230 792 L541 792 Z " />
<glyph glyph-name="amacron" unicode="&#x101;" horiz-adv-x="522" d="M303 242 L302 120 C302 92 272 66 236 66 C186 66 162 101 162 142 C162 216 241 234 303 242 L303 242 Z M50 393 C50 350 87 318 129 312 L175 332 L175 430 C175 458 203 462 229 462 C299 462 303 414 303 343 L303 279 C185 272 33 238 33 112 C33 38 95 -15 174 -15 C249 -15 293 31 305 61 C311 15 350 -15 406 -15 C452 -15 503 7 519 43 L509 72 C503 65 485 58 472 58 C449 58 434 74 434 105 C434 152 441 304 441 346 C441 460 364 504 262 504 C154 504 50 470 50 393 L50 393 Z M408 579 L408 651 L97 651 L97 579 L408 579 Z " />
<glyph glyph-name="Abreve" unicode="&#x102;" horiz-adv-x="769" d="M457 283 C457 283 518 115 525 96 C536 67 520 55 484 48 L432 38 L432 -5 L608 0 L785 -5 L785 38 L737 48 C706 54 697 67 685 96 C549 435 442 726 442 726 L318 707 C318 707 195 374 86 95 C75 66 64 54 33 48 L-15 38 L-15 -5 L85 0 L256 -5 L256 38 L193 48 C158 54 146 67 155 96 C155 96 174 166 217 283 L457 283 Z M441 333 L234 333 L337 620 L441 333 Z M384 878 C290 878 282 927 282 971 L282 976 L235 976 L235 937 C235 841 288 772 384 772 C482 772 535 841 535 937 L535 976 L487 976 L487 971 C487 927 480 878 384 878 L384 878 Z " />
<glyph glyph-name="abreve" unicode="&#x103;" horiz-adv-x="522" d="M303 242 L302 120 C302 92 272 66 236 66 C186 66 162 101 162 142 C162 216 241 234 303 242 L303 242 Z M50 393 C50 350 87 318 129 312 L175 332 L175 430 C175 458 203 462 229 462 C299 462 303 414 303 343 L303 279 C185 272 33 238 33 112 C33 38 95 -15 174 -15 C249 -15 293 31 305 61 C311 15 350 -15 406 -15 C452 -15 503 7 519 43 L509 72 C503 65 485 58 472 58 C449 58 434 74 434 105 C434 152 441 304 441 346 C441 460 364 504 262 504 C154 504 50 470 50 393 L50 393 Z M250 665 C156 665 148 714 148 758 L148 763 L101 763 L101 724 C101 628 154 559 250 559 C348 559 401 628 401 724 L401 763 L353 763 L353 758 C353 714 346 665 250 665 L250 665 Z " />
<glyph glyph-name="Aogonek" unicode="&#x104;" horiz-adv-x="769" d="M457 283 C457 283 518 115 525 96 C536 67 520 55 484 48 L432 38 L432 -5 L608 0 L649 -1 C573 -35 512 -96 512 -164 C512 -234 571 -271 643 -271 C669 -271 719 -266 749 -256 L767 -222 C755 -224 743 -225 733 -225 C671 -225 629 -204 629 -143 C629 -80 671 -34 703 -2 L785 -5 L785 38 L737 48 C706 54 697 67 685 96 C549 435 442 726 442 726 L318 707 C318 707 195 374 86 95 C75 66 64 54 33 48 L-15 38 L-15 -5 L85 0 L256 -5 L256 38 L193 48 C158 54 146 67 155 96 C155 96 174 166 217 283 L457 283 Z M441 333 L234 333 L337 620 L441 333 Z " />
<glyph glyph-name="aogonek" unicode="&#x105;" horiz-adv-x="522" d="M50 393 C50 350 87 318 129 312 L175 332 L175 430 C175 458 203 462 229 462 C299 462 303 414 303 343 L303 279 C185 272 33 238 33 112 C33 38 95 -15 174 -15 C249 -15 293 31 305 61 C310 23 337 -4 377 -12 C312 -48 263 -103 263 -164 C263 -234 322 -271 394 -271 C420 -271 470 -266 500 -256 L518 -222 C506 -224 494 -225 484 -225 C422 -225 380 -204 380 -143 C380 -85 416 -41 447 -9 C479 -1 508 18 519 43 L509 72 C503 65 485 58 472 58 C449 58 434 74 434 105 C434 152 441 304 441 346 C441 460 364 504 262 504 C154 504 50 470 50 393 L50 393 Z M303 242 L302 120 C302 92 272 66 236 66 C186 66 162 101 162 142 C162 216 241 234 303 242 L303 242 Z " />
<glyph glyph-name="Cacute" unicode="&#x106;" horiz-adv-x="747" d="M197 375 C197 546 287 660 432 660 C521 660 581 629 608 550 L629 489 L674 489 C679 562 691 665 695 700 L619 687 C566 702 496 715 425 715 C197 715 46 555 46 346 C46 105 221 -15 421 -15 C521 -15 624 11 690 38 C692 147 697 227 697 227 L649 227 L585 70 C547 60 514 56 480 56 C303 56 197 179 197 375 L197 375 Z M265 781 L312 775 L502 964 L329 964 L265 781 Z " />
<glyph glyph-name="cacute" unicode="&#x107;" horiz-adv-x="492" d="M175 261 C175 406 222 459 281 459 C324 459 327 449 327 407 C327 376 326 336 326 331 L367 317 C402 322 457 340 457 400 C457 437 421 504 283 504 C146 504 35 391 35 244 C35 62 160 -15 265 -15 C344 -15 426 11 473 96 L447 126 C429 96 384 69 329 69 C248 69 175 127 175 261 L175 261 Z M132 568 L179 562 L369 751 L196 751 L132 568 Z " />
<glyph glyph-name="Ccircumflex" unicode="&#x108;" horiz-adv-x="747" d="M197 375 C197 546 287 660 432 660 C521 660 581 629 608 550 L629 489 L674 489 C679 562 691 665 695 700 L619 687 C566 702 496 715 425 715 C197 715 46 555 46 346 C46 105 221 -15 421 -15 C521 -15 624 11 690 38 C692 147 697 227 697 227 L649 227 L585 70 C547 60 514 56 480 56 C303 56 197 179 197 375 L197 375 Z M205 780 L231 762 L374 855 L376 855 L523 761 L545 780 L403 970 L345 970 L205 780 Z " />
<glyph glyph-name="ccircumflex" unicode="&#x109;" horiz-adv-x="492" d="M175 261 C175 406 222 459 281 459 C324 459 327 449 327 407 C327 376 326 336 326 331 L367 317 C402 322 457 340 457 400 C457 437 421 504 283 504 C146 504 35 391 35 244 C35 62 160 -15 265 -15 C344 -15 426 11 473 96 L447 126 C429 96 384 69 329 69 C248 69 175 127 175 261 L175 261 Z M77 567 L103 549 L246 642 L248 642 L395 548 L417 567 L275 757 L217 757 L77 567 Z " />
<glyph glyph-name="Cdotaccent" unicode="&#x10a;" horiz-adv-x="747" d="M197 375 C197 546 287 660 432 660 C521 660 581 629 608 550 L629 489 L674 489 C679 562 691 665 695 700 L619 687 C566 702 496 715 425 715 C197 715 46 555 46 346 C46 105 221 -15 421 -15 C521 -15 624 11 690 38 C692 147 697 227 697 227 L649 227 L585 70 C547 60 514 56 480 56 C303 56 197 179 197 375 L197 375 Z M283 864 C283 815 323 775 372 775 C421 775 462 815 462 864 C462 913 421 954 372 954 C323 954 283 913 283 864 L283 864 Z " />
<glyph glyph-name="cdotaccent" unicode="&#x10b;" horiz-adv-x="492" d="M175 261 C175 406 222 459 281 459 C324 459 327 449 327 407 C327 376 326 336 326 331 L367 317 C402 322 457 340 457 400 C457 437 421 504 283 504 C146 504 35 391 35 244 C35 62 160 -15 265 -15 C344 -15 426 11 473 96 L447 126 C429 96 384 69 329 69 C248 69 175 127 175 261 L175 261 Z M157 657 C157 608 197 568 246 568 C295 568 336 608 336 657 C336 706 295 747 246 747 C197 747 157 706 157 657 L157 657 Z " />
<glyph glyph-name="Ccaron" unicode="&#x10c;" horiz-adv-x="747" d="M197 375 C197 546 287 660 432 660 C521 660 581 629 608 550 L629 489 L674 489 C679 562 691 665 695 700 L619 687 C566 702 496 715 425 715 C197 715 46 555 46 346 C46 105 221 -15 421 -15 C521 -15 624 11 690 38 C692 147 697 227 697 227 L649 227 L585 70 C547 60 514 56 480 56 C303 56 197 179 197 375 L197 375 Z M346 762 L404 762 L546 951 L524 971 L377 876 L375 876 L232 970 L206 951 L346 762 Z " />
<glyph glyph-name="ccaron" unicode="&#x10d;" horiz-adv-x="492" d="M175 261 C175 406 222 459 281 459 C324 459 327 449 327 407 C327 376 326 336 326 331 L367 317 C402 322 457 340 457 400 C457 437 421 504 283 504 C146 504 35 391 35 244 C35 62 160 -15 265 -15 C344 -15 426 11 473 96 L447 126 C429 96 384 69 329 69 C248 69 175 127 175 261 L175 261 Z M217 549 L275 549 L417 738 L395 758 L248 663 L246 663 L103 757 L77 738 L217 549 Z " />
<glyph glyph-name="Dcaron" unicode="&#x10e;" horiz-adv-x="855" d="M187 0 C219 -3 390 -8 408 -8 C681 -8 808 150 808 358 C808 544 690 710 444 710 C410 710 281 708 187 700 L39 705 L39 661 L91 651 C126 644 135 636 138 602 C138 602 141 514 141 349 C141 184 138 96 138 96 C137 66 126 56 91 49 L39 39 L39 -5 L187 0 Z M301 658 C313 658 365 657 382 657 C581 657 651 541 651 337 C651 82 520 40 408 40 C312 40 284 46 284 116 L284 642 C284 652 285 658 301 658 L301 658 Z M400 762 L458 762 L600 951 L578 971 L431 876 L429 876 L286 970 L260 951 L400 762 Z " />
<glyph glyph-name="dcaron" unicode="&#x10f;" horiz-adv-x="792" d="M388 477 C358 493 316 504 273 504 C135 504 35 387 35 241 C35 78 125 -15 233 -15 C291 -15 351 3 387 65 L394 64 L391 -8 L427 -8 C510 5 547 10 598 16 L598 51 C523 58 521 80 521 191 L521 413 C521 545 521 696 522 755 L488 755 L319 720 L319 698 L358 683 C385 673 388 650 388 581 L388 477 Z M305 78 C226 78 175 146 175 257 C175 347 197 459 303 459 C366 459 388 422 388 345 L388 155 C388 113 377 78 305 78 L305 78 Z M612 462 C699 489 792 567 792 658 C792 723 737 767 693 767 C656 767 610 724 603 685 C662 665 687 632 687 597 C687 557 652 514 588 486 L612 462 Z " />
<glyph glyph-name="Dcroat" unicode="&#x110;" horiz-adv-x="855" d="M187 0 C219 -3 390 -8 408 -8 C681 -8 808 150 808 358 C808 544 690 710 444 710 C410 710 281 708 187 700 L39 705 L39 661 L91 651 C126 644 135 636 138 602 C138 602 140 526 141 386 L41 386 L41 335 L141 335 C141 180 138 96 138 96 C137 66 126 56 91 49 L39 39 L39 -5 L187 0 Z M301 658 C313 658 365 657 382 657 C581 657 651 541 651 337 C651 82 520 40 408 40 C312 40 284 46 284 116 L284 335 L475 335 L475 386 L284 386 L284 642 C284 652 285 658 301 658 L301 658 Z " />
<glyph glyph-name="dcroat" unicode="&#x111;" horiz-adv-x="611" d="M388 477 C358 493 316 504 273 504 C135 504 35 387 35 241 C35 78 125 -15 233 -15 C291 -15 351 3 387 65 L394 64 L391 -8 L427 -8 C510 5 547 10 598 16 L598 51 C523 58 521 80 521 191 L521 556 L581 556 L581 605 L521 605 C521 667 521 725 522 755 L488 755 L319 720 L319 698 L358 683 C381 674 387 656 388 605 L267 605 L267 556 L388 556 L388 477 Z M305 78 C226 78 175 146 175 257 C175 347 197 459 303 459 C366 459 388 422 388 345 L388 155 C388 113 377 78 305 78 L305 78 Z " />
<glyph glyph-name="Emacron" unicode="&#x112;" horiz-adv-x="710" d="M284 384 L284 631 C284 641 285 647 301 647 L483 647 C524 647 539 611 557 549 L569 508 L614 508 C624 650 632 711 632 711 C632 711 535 700 479 700 L201 700 L39 705 L39 661 L91 651 C126 644 138 636 138 602 C138 602 141 514 141 349 C141 184 138 96 138 96 C138 66 126 55 91 48 L39 38 L39 -5 L201 0 L450 0 C508 0 645 -5 645 -5 C652 67 668 194 671 212 L627 212 C556 70 535 53 463 53 L355 53 C305 53 284 73 284 116 L284 337 C284 337 342 336 399 333 C429 331 442 319 451 282 L464 227 L509 227 L504 359 L509 494 L464 494 L451 439 C442 402 429 390 399 388 C342 385 284 384 284 384 L284 384 Z M512 792 L512 864 L201 864 L201 792 L512 792 Z " />
<glyph glyph-name="emacron" unicode="&#x113;" horiz-adv-x="518" d="M342 324 L178 321 C183 407 208 461 270 461 C329 461 344 407 342 324 L342 324 Z M35 244 C35 62 146 -15 263 -15 C342 -15 428 11 475 96 L449 126 C429 94 379 69 325 69 C248 69 175 133 175 261 L175 280 L484 279 L484 306 C484 419 409 504 275 504 C143 504 35 388 35 244 L35 244 Z M424 579 L424 651 L113 651 L113 579 L424 579 Z " />
<glyph glyph-name="Ebreve" unicode="&#x114;" horiz-adv-x="710" d="M284 384 L284 631 C284 641 285 647 301 647 L483 647 C524 647 539 611 557 549 L569 508 L614 508 C624 650 632 711 632 711 C632 711 535 700 479 700 L201 700 L39 705 L39 661 L91 651 C126 644 138 636 138 602 C138 602 141 514 141 349 C141 184 138 96 138 96 C138 66 126 55 91 48 L39 38 L39 -5 L201 0 L450 0 C508 0 645 -5 645 -5 C652 67 668 194 671 212 L627 212 C556 70 535 53 463 53 L355 53 C305 53 284 73 284 116 L284 337 C284 337 342 336 399 333 C429 331 442 319 451 282 L464 227 L509 227 L504 359 L509 494 L464 494 L451 439 C442 402 429 390 399 388 C342 385 284 384 284 384 L284 384 Z M354 878 C260 878 252 927 252 971 L252 976 L205 976 L205 937 C205 841 258 772 354 772 C452 772 505 841 505 937 L505 976 L457 976 L457 971 C457 927 450 878 354 878 L354 878 Z " />
<glyph glyph-name="ebreve" unicode="&#x115;" horiz-adv-x="518" d="M342 324 L178 321 C183 407 208 461 270 461 C329 461 344 407 342 324 L342 324 Z M35 244 C35 62 146 -15 263 -15 C342 -15 428 11 475 96 L449 126 C429 94 379 69 325 69 C248 69 175 133 175 261 L175 280 L484 279 L484 306 C484 419 409 504 275 504 C143 504 35 388 35 244 L35 244 Z M256 665 C162 665 154 714 154 758 L154 763 L107 763 L107 724 C107 628 160 559 256 559 C354 559 407 628 407 724 L407 763 L359 763 L359 758 C359 714 352 665 256 665 L256 665 Z " />
<glyph glyph-name="Edotaccent" unicode="&#x116;" horiz-adv-x="710" d="M284 384 L284 631 C284 641 285 647 301 647 L483 647 C524 647 539 611 557 549 L569 508 L614 508 C624 650 632 711 632 711 C632 711 535 700 479 700 L201 700 L39 705 L39 661 L91 651 C126 644 138 636 138 602 C138 602 141 514 141 349 C141 184 138 96 138 96 C138 66 126 55 91 48 L39 38 L39 -5 L201 0 L450 0 C508 0 645 -5 645 -5 C652 67 668 194 671 212 L627 212 C556 70 535 53 463 53 L355 53 C305 53 284 73 284 116 L284 337 C284 337 342 336 399 333 C429 331 442 319 451 282 L464 227 L509 227 L504 359 L509 494 L464 494 L451 439 C442 402 429 390 399 388 C342 385 284 384 284 384 L284 384 Z M270 864 C270 815 310 775 359 775 C408 775 449 815 449 864 C449 913 408 954 359 954 C310 954 270 913 270 864 L270 864 Z " />
<glyph glyph-name="edotaccent" unicode="&#x117;" horiz-adv-x="518" d="M342 324 L178 321 C183 407 208 461 270 461 C329 461 344 407 342 324 L342 324 Z M35 244 C35 62 146 -15 263 -15 C342 -15 428 11 475 96 L449 126 C429 94 379 69 325 69 C248 69 175 133 175 261 L175 280 L484 279 L484 306 C484 419 409 504 275 504 C143 504 35 388 35 244 L35 244 Z M174 657 C174 608 214 568 263 568 C312 568 353 608 353 657 C353 706 312 747 263 747 C214 747 174 706 174 657 L174 657 Z " />
<glyph glyph-name="Eogonek" unicode="&#x118;" horiz-adv-x="710" d="M284 384 L284 631 C284 641 285 647 301 647 L483 647 C524 647 539 611 557 549 L569 508 L614 508 C624 650 632 711 632 711 C632 711 535 700 479 700 L201 700 L39 705 L39 661 L91 651 C126 644 138 636 138 602 C138 602 141 514 141 349 C141 184 138 96 138 96 C138 66 126 55 91 48 L39 38 L39 -5 L201 0 L450 0 C472 0 507 0 541 -1 C466 -36 405 -97 405 -164 C405 -234 464 -271 536 -271 C562 -271 612 -266 642 -256 L660 -222 C648 -224 636 -225 626 -225 C564 -225 522 -204 522 -143 C522 -81 563 -34 596 -3 C624 -4 645 -5 645 -5 C652 67 668 194 671 212 L627 212 C556 70 535 53 463 53 L355 53 C305 53 284 73 284 116 L284 337 C284 337 342 336 399 333 C429 331 442 319 451 282 L464 227 L509 227 L504 359 L509 494 L464 494 L451 439 C442 402 429 390 399 388 C342 385 284 384 284 384 L284 384 Z " />
<glyph glyph-name="eogonek" unicode="&#x119;" horiz-adv-x="518" d="M35 244 C35 69 137 -8 248 -14 C185 -50 138 -104 138 -164 C138 -234 197 -271 269 -271 C295 -271 345 -266 375 -256 L393 -222 C381 -224 369 -225 359 -225 C297 -225 255 -204 255 -143 C255 -85 291 -41 322 -9 C382 1 439 32 475 96 L449 126 C429 94 379 69 325 69 C248 69 175 133 175 261 L175 280 L484 279 L484 306 C484 419 409 504 275 504 C143 504 35 388 35 244 L35 244 Z M342 324 L178 321 C183 407 208 461 270 461 C329 461 344 407 342 324 L342 324 Z " />
<glyph glyph-name="Ecaron" unicode="&#x11a;" horiz-adv-x="710" d="M284 384 L284 631 C284 641 285 647 301 647 L483 647 C524 647 539 611 557 549 L569 508 L614 508 C624 650 632 711 632 711 C632 711 535 700 479 700 L201 700 L39 705 L39 661 L91 651 C126 644 138 636 138 602 C138 602 141 514 141 349 C141 184 138 96 138 96 C138 66 126 55 91 48 L39 38 L39 -5 L201 0 L450 0 C508 0 645 -5 645 -5 C652 67 668 194 671 212 L627 212 C556 70 535 53 463 53 L355 53 C305 53 284 73 284 116 L284 337 C284 337 342 336 399 333 C429 331 442 319 451 282 L464 227 L509 227 L504 359 L509 494 L464 494 L451 439 C442 402 429 390 399 388 C342 385 284 384 284 384 L284 384 Z M325 762 L383 762 L525 951 L503 971 L356 876 L354 876 L211 970 L185 951 L325 762 Z " />
<glyph glyph-name="ecaron" unicode="&#x11b;" horiz-adv-x="518" d="M342 324 L178 321 C183 407 208 461 270 461 C329 461 344 407 342 324 L342 324 Z M35 244 C35 62 146 -15 263 -15 C342 -15 428 11 475 96 L449 126 C429 94 379 69 325 69 C248 69 175 133 175 261 L175 280 L484 279 L484 306 C484 419 409 504 275 504 C143 504 35 388 35 244 L35 244 Z M227 549 L285 549 L427 738 L405 758 L258 663 L256 663 L113 757 L87 738 L227 549 Z " />
<glyph glyph-name="Gcircumflex" unicode="&#x11c;" horiz-adv-x="838" d="M468 660 C558 660 627 628 639 587 C649 554 656 521 667 489 L712 489 C718 562 729 666 733 701 C707 697 682 692 656 687 C618 699 550 715 452 715 C248 715 45 589 45 349 C45 200 126 -15 452 -15 C577 -15 736 43 736 43 L736 216 C736 248 748 254 784 265 L816 275 L816 321 L659 316 L480 321 L480 275 L541 265 C577 259 588 251 588 219 L588 77 C588 49 552 45 495 45 C267 45 197 225 197 366 C197 548 299 660 468 660 L468 660 Z M246 780 L272 762 L415 855 L417 855 L564 761 L586 780 L444 970 L386 970 L246 780 Z " />
<glyph glyph-name="gcircumflex" unicode="&#x11d;" horiz-adv-x="585" d="M581 388 L581 499 L411 469 C377 492 313 504 269 504 C130 504 48 427 48 328 C48 260 85 211 132 185 C90 152 52 108 52 74 C52 25 81 -4 128 -14 L128 -23 C77 -39 27 -73 27 -133 C27 -233 154 -259 249 -259 C457 -259 541 -159 541 -64 C541 25 485 64 399 74 L225 93 C163 100 151 106 151 127 C151 140 160 155 167 168 C193 159 225 151 273 151 C404 151 495 221 495 325 C495 361 483 394 465 420 L564 382 L581 388 Z M140 -110 C140 -65 159 -41 175 -31 C209 -32 289 -36 352 -47 C401 -55 418 -77 418 -114 C418 -191 358 -217 286 -217 C199 -217 140 -184 140 -110 L140 -110 Z M275 196 C223 196 191 238 191 339 C191 395 197 464 273 464 C323 464 351 419 351 324 C351 267 346 196 275 196 L275 196 Z M110 567 L136 549 L279 642 L281 642 L428 548 L450 567 L308 757 L250 757 L110 567 Z " />
<glyph glyph-name="Gbreve" unicode="&#x11e;" horiz-adv-x="838" d="M468 660 C558 660 627 628 639 587 C649 554 656 521 667 489 L712 489 C718 562 729 666 733 701 C707 697 682 692 656 687 C618 699 550 715 452 715 C248 715 45 589 45 349 C45 200 126 -15 452 -15 C577 -15 736 43 736 43 L736 216 C736 248 748 254 784 265 L816 275 L816 321 L659 316 L480 321 L480 275 L541 265 C577 259 588 251 588 219 L588 77 C588 49 552 45 495 45 C267 45 197 225 197 366 C197 548 299 660 468 660 L468 660 Z M409 878 C315 878 307 927 307 971 L307 976 L260 976 L260 937 C260 841 313 772 409 772 C507 772 560 841 560 937 L560 976 L512 976 L512 971 C512 927 505 878 409 878 L409 878 Z " />
<glyph glyph-name="gbreve" unicode="&#x11f;" horiz-adv-x="585" d="M581 388 L581 499 L411 469 C377 492 313 504 269 504 C130 504 48 427 48 328 C48 260 85 211 132 185 C90 152 52 108 52 74 C52 25 81 -4 128 -14 L128 -23 C77 -39 27 -73 27 -133 C27 -233 154 -259 249 -259 C457 -259 541 -159 541 -64 C541 25 485 64 399 74 L225 93 C163 100 151 106 151 127 C151 140 160 155 167 168 C193 159 225 151 273 151 C404 151 495 221 495 325 C495 361 483 394 465 420 L564 382 L581 388 Z M140 -110 C140 -65 159 -41 175 -31 C209 -32 289 -36 352 -47 C401 -55 418 -77 418 -114 C418 -191 358 -217 286 -217 C199 -217 140 -184 140 -110 L140 -110 Z M275 196 C223 196 191 238 191 339 C191 395 197 464 273 464 C323 464 351 419 351 324 C351 267 346 196 275 196 L275 196 Z M276 665 C182 665 174 714 174 758 L174 763 L127 763 L127 724 C127 628 180 559 276 559 C374 559 427 628 427 724 L427 763 L379 763 L379 758 C379 714 372 665 276 665 L276 665 Z " />
<glyph glyph-name="Gdotaccent" unicode="&#x120;" horiz-adv-x="838" d="M468 660 C558 660 627 628 639 587 C649 554 656 521 667 489 L712 489 C718 562 729 666 733 701 C707 697 682 692 656 687 C618 699 550 715 452 715 C248 715 45 589 45 349 C45 200 126 -15 452 -15 C577 -15 736 43 736 43 L736 216 C736 248 748 254 784 265 L816 275 L816 321 L659 316 L480 321 L480 275 L541 265 C577 259 588 251 588 219 L588 77 C588 49 552 45 495 45 C267 45 197 225 197 366 C197 548 299 660 468 660 L468 660 Z M331 864 C331 815 371 775 420 775 C469 775 510 815 510 864 C510 913 469 954 420 954 C371 954 331 913 331 864 L331 864 Z " />
<glyph glyph-name="gdotaccent" unicode="&#x121;" horiz-adv-x="585" d="M581 388 L581 499 L411 469 C377 492 313 504 269 504 C130 504 48 427 48 328 C48 260 85 211 132 185 C90 152 52 108 52 74 C52 25 81 -4 128 -14 L128 -23 C77 -39 27 -73 27 -133 C27 -233 154 -259 249 -259 C457 -259 541 -159 541 -64 C541 25 485 64 399 74 L225 93 C163 100 151 106 151 127 C151 140 160 155 167 168 C193 159 225 151 273 151 C404 151 495 221 495 325 C495 361 483 394 465 420 L564 382 L581 388 Z M140 -110 C140 -65 159 -41 175 -31 C209 -32 289 -36 352 -47 C401 -55 418 -77 418 -114 C418 -191 358 -217 286 -217 C199 -217 140 -184 140 -110 L140 -110 Z M275 196 C223 196 191 238 191 339 C191 395 197 464 273 464 C323 464 351 419 351 324 C351 267 346 196 275 196 L275 196 Z M182 657 C182 608 222 568 271 568 C320 568 361 608 361 657 C361 706 320 747 271 747 C222 747 182 706 182 657 L182 657 Z " />
<glyph glyph-name="Gcommaaccent" unicode="&#x122;" horiz-adv-x="838" d="M468 660 C558 660 627 628 639 587 C649 554 656 521 667 489 L712 489 C718 562 729 666 733 701 C707 697 682 692 656 687 C618 699 550 715 452 715 C248 715 45 589 45 349 C45 200 126 -15 452 -15 C577 -15 736 43 736 43 L736 216 C736 248 748 254 784 265 L816 275 L816 321 L659 316 L480 321 L480 275 L541 265 C577 259 588 251 588 219 L588 77 C588 49 552 45 495 45 C267 45 197 225 197 366 C197 548 299 660 468 660 L468 660 Z M340 -370 C427 -343 520 -265 520 -174 C520 -109 465 -65 421 -65 C384 -65 338 -108 331 -147 C390 -167 415 -200 415 -235 C415 -275 380 -318 316 -346 L340 -370 Z " />
<glyph glyph-name="gcommaaccent" unicode="&#x123;" horiz-adv-x="585" d="M581 388 L581 499 L411 469 C377 492 313 504 269 504 C130 504 48 427 48 328 C48 260 85 211 132 185 C90 152 52 108 52 74 C52 25 81 -4 128 -14 L128 -23 C77 -39 27 -73 27 -133 C27 -233 154 -259 249 -259 C457 -259 541 -159 541 -64 C541 25 485 64 399 74 L225 93 C163 100 151 106 151 127 C151 140 160 155 167 168 C193 159 225 151 273 151 C404 151 495 221 495 325 C495 361 483 394 465 420 L564 382 L581 388 Z M140 -110 C140 -65 159 -41 175 -31 C209 -32 289 -36 352 -47 C401 -55 418 -77 418 -114 C418 -191 358 -217 286 -217 C199 -217 140 -184 140 -110 L140 -110 Z M275 196 C223 196 191 238 191 339 C191 395 197 464 273 464 C323 464 351 419 351 324 C351 267 346 196 275 196 L275 196 Z M360 860 C273 833 180 755 180 664 C180 599 235 555 279 555 C316 555 362 598 369 637 C310 657 285 690 285 725 C285 765 320 808 384 836 L360 860 Z " />
<glyph glyph-name="Hcircumflex" unicode="&#x124;" horiz-adv-x="892" d="M608 335 C608 179 605 96 605 96 C604 66 595 56 559 49 L508 39 L508 -5 L680 0 L853 -5 L853 39 L801 49 C766 56 755 66 754 96 C754 96 751 186 751 351 C751 516 754 602 754 602 C756 635 766 644 801 651 L853 661 L853 705 L680 700 L508 705 L508 661 L559 651 C595 644 603 635 605 602 C605 602 608 534 608 386 L284 386 C284 534 287 602 287 602 C289 635 297 644 333 651 L384 661 L384 705 L212 700 L39 705 L39 661 L91 651 C126 644 136 635 138 602 C138 602 141 516 141 351 C141 186 138 96 138 96 C137 66 126 56 91 49 L39 39 L39 -5 L212 0 L384 -5 L384 39 L333 49 C297 56 288 66 287 96 C287 96 284 179 284 335 L608 335 Z M274 780 L300 762 L443 855 L445 855 L592 761 L614 780 L472 970 L414 970 L274 780 Z " />
<glyph glyph-name="hcircumflex" unicode="&#x125;" horiz-adv-x="622" d="M318 429 C399 429 406 344 406 273 L406 190 C406 76 402 52 358 38 L336 31 L336 -5 L475 0 L614 -5 L614 31 L585 38 C551 46 539 55 539 86 C539 127 541 249 541 334 C541 442 481 504 378 504 C295 504 242 449 225 419 L217 421 C217 421 230 453 230 549 L230 755 L196 755 L28 720 L28 698 L69 683 C93 674 96 650 96 581 L96 86 C96 55 82 50 49 38 L29 31 L29 -5 L166 0 L295 -5 L295 31 L267 38 C234 46 229 56 229 86 L229 300 C229 375 239 429 318 429 L318 429 Z M132 828 L158 810 L301 903 L303 903 L450 809 L472 828 L330 1018 L272 1018 L132 828 Z " />
<glyph glyph-name="Hbar" unicode="&#x126;" horiz-adv-x="892" d="M58 487 L140 487 C141 450 141 405 141 351 C141 186 138 96 138 96 C137 66 126 56 91 49 L39 39 L39 -5 L212 0 L384 -5 L384 39 L333 49 C297 56 288 66 287 96 C287 96 284 179 284 335 L608 335 C608 179 605 96 605 96 C604 66 595 56 559 49 L508 39 L508 -5 L680 0 L853 -5 L853 39 L801 49 C766 56 755 66 754 96 C754 96 751 186 751 351 L751 487 L832 487 L832 539 L752 539 C753 578 754 602 754 602 C756 635 766 644 801 651 L853 661 L853 705 L680 700 L508 705 L508 661 L559 651 C595 644 603 635 605 602 C605 602 606 581 607 539 L285 539 C286 579 287 602 287 602 C289 635 297 644 333 651 L384 661 L384 705 L212 700 L39 705 L39 661 L91 651 C126 644 136 635 138 602 C138 602 139 580 139 539 L58 539 L58 487 Z M608 386 L284 386 L284 487 L607 487 C608 458 608 425 608 386 L608 386 Z " />
<glyph glyph-name="hbar" unicode="&#x127;" horiz-adv-x="622" d="M363 605 L230 605 L230 755 L196 755 L28 720 L28 698 L69 683 C90 675 95 656 96 605 L29 605 L29 556 L96 556 L96 86 C96 55 82 50 49 38 L29 31 L29 -5 L166 0 L295 -5 L295 31 L267 38 C234 46 229 56 229 86 L229 300 C229 375 239 429 318 429 C399 429 406 344 406 273 L406 190 C406 76 402 52 358 38 L336 31 L336 -5 L475 0 L614 -5 L614 31 L585 38 C551 46 539 55 539 86 C539 127 541 249 541 334 C541 442 481 504 378 504 C295 504 242 449 225 419 L217 421 C217 421 230 453 230 549 L230 556 L363 556 L363 605 Z " />
<glyph glyph-name="Itilde" unicode="&#x128;" horiz-adv-x="425" d="M138 98 C137 64 126 56 91 49 L39 39 L39 -5 L212 0 L386 -5 L386 39 L334 49 C299 56 288 64 287 98 C287 98 284 184 284 349 C284 514 287 602 287 602 C288 636 299 644 334 651 L386 661 L386 705 L212 700 L39 705 L39 661 L91 651 C126 644 137 636 138 602 C138 602 141 514 141 349 C141 184 138 98 138 98 L138 98 Z M294 881 C265 881 194 924 150 924 C84 924 43 850 31 797 L61 786 C80 821 99 825 126 825 C155 825 222 785 261 785 C333 785 368 857 381 910 L352 922 C333 885 324 881 294 881 L294 881 Z " />
<glyph glyph-name="itilde" unicode="&#x129;" horiz-adv-x="326" d="M243 668 C214 668 143 711 99 711 C33 711 -8 637 -20 584 L10 573 C29 608 48 612 75 612 C104 612 171 572 210 572 C282 572 317 644 330 697 L301 709 C282 672 273 668 243 668 L243 668 Z M101 86 C101 55 89 47 53 38 L24 31 L24 -5 L168 0 L310 -5 L310 31 L280 38 C244 46 234 55 234 86 L234 340 C234 437 236 510 236 510 L194 510 L30 443 L30 421 L69 406 C96 396 101 373 101 304 L101 86 Z " />
<glyph glyph-name="Imacron" unicode="&#x12a;" horiz-adv-x="425" d="M138 98 C137 64 126 56 91 49 L39 39 L39 -5 L212 0 L386 -5 L386 39 L334 49 C299 56 288 64 287 98 C287 98 284 184 284 349 C284 514 287 602 287 602 C288 636 299 644 334 651 L386 661 L386 705 L212 700 L39 705 L39 661 L91 651 C126 644 137 636 138 602 C138 602 141 514 141 349 C141 184 138 98 138 98 L138 98 Z M369 792 L369 864 L58 864 L58 792 L369 792 Z " />
<glyph glyph-name="imacron" unicode="&#x12b;" horiz-adv-x="326" d="M319 579 L319 651 L8 651 L8 579 L319 579 Z M101 86 C101 55 89 47 53 38 L24 31 L24 -5 L168 0 L310 -5 L310 31 L280 38 C244 46 234 55 234 86 L234 340 C234 437 236 510 236 510 L194 510 L30 443 L30 421 L69 406 C96 396 101 373 101 304 L101 86 Z " />
<glyph glyph-name="Ibreve" unicode="&#x12c;" horiz-adv-x="425" d="M138 98 C137 64 126 56 91 49 L39 39 L39 -5 L212 0 L386 -5 L386 39 L334 49 C299 56 288 64 287 98 C287 98 284 184 284 349 C284 514 287 602 287 602 C288 636 299 644 334 651 L386 661 L386 705 L212 700 L39 705 L39 661 L91 651 C126 644 137 636 138 602 C138 602 141 514 141 349 C141 184 138 98 138 98 L138 98 Z M211 878 C117 878 109 927 109 971 L109 976 L62 976 L62 937 C62 841 115 772 211 772 C309 772 362 841 362 937 L362 976 L314 976 L314 971 C314 927 307 878 211 878 L211 878 Z " />
<glyph glyph-name="ibreve" unicode="&#x12d;" horiz-adv-x="326" d="M163 665 C69 665 61 714 61 758 L61 763 L14 763 L14 724 C14 628 67 559 163 559 C261 559 314 628 314 724 L314 763 L266 763 L266 758 C266 714 259 665 163 665 L163 665 Z M101 86 C101 55 89 47 53 38 L24 31 L24 -5 L168 0 L310 -5 L310 31 L280 38 C244 46 234 55 234 86 L234 340 C234 437 236 510 236 510 L194 510 L30 443 L30 421 L69 406 C96 396 101 373 101 304 L101 86 Z " />
<glyph glyph-name="Iogonek" unicode="&#x12e;" horiz-adv-x="425" d="M138 98 C137 64 126 56 91 49 L39 39 L39 -5 L212 0 L255 -1 C180 -36 119 -96 119 -164 C119 -234 178 -271 250 -271 C276 -271 326 -266 356 -256 L374 -222 C362 -224 350 -225 340 -225 C278 -225 236 -204 236 -143 C236 -81 277 -34 310 -3 L386 -5 L386 39 L334 49 C299 56 288 64 287 98 C287 98 284 184 284 349 C284 514 287 602 287 602 C288 636 299 644 334 651 L386 661 L386 705 L212 700 L39 705 L39 661 L91 651 C126 644 137 636 138 602 C138 602 141 514 141 349 C141 184 138 98 138 98 L138 98 Z " />
<glyph glyph-name="iogonek" unicode="&#x12f;" horiz-adv-x="326" d="M101 86 C101 55 89 47 53 38 L24 31 L24 -5 L168 0 L175 0 C98 -34 36 -96 36 -164 C36 -234 95 -271 167 -271 C193 -271 243 -266 273 -256 L291 -222 C279 -224 267 -225 257 -225 C195 -225 153 -204 153 -143 C153 -80 195 -33 228 -2 L310 -5 L310 31 L280 38 C244 46 234 55 234 86 L234 340 C234 437 236 510 236 510 L194 510 L30 443 L30 421 L69 406 C96 396 101 373 101 304 L101 86 Z M75 677 C75 627 115 587 165 587 C215 587 255 627 255 677 C255 727 215 767 165 767 C115 767 75 727 75 677 L75 677 Z " />
<glyph glyph-name="Idotaccent" unicode="&#x130;" horiz-adv-x="425" d="M138 98 C137 64 126 56 91 49 L39 39 L39 -5 L212 0 L386 -5 L386 39 L334 49 C299 56 288 64 287 98 C287 98 284 184 284 349 C284 514 287 602 287 602 C288 636 299 644 334 651 L386 661 L386 705 L212 700 L39 705 L39 661 L91 651 C126 644 137 636 138 602 C138 602 141 514 141 349 C141 184 138 98 138 98 L138 98 Z M123 876 C123 827 163 787 212 787 C261 787 302 827 302 876 C302 925 261 966 212 966 C163 966 123 925 123 876 L123 876 Z " />
<glyph glyph-name="dotlessi" unicode="&#x131;" horiz-adv-x="326" d="M101 86 C101 55 89 47 53 38 L24 31 L24 -5 L168 0 L310 -5 L310 31 L280 38 C244 46 234 55 234 86 L234 340 C234 437 236 510 236 510 L194 510 L30 443 L30 421 L69 406 C96 396 101 373 101 304 L101 86 Z " />
<glyph glyph-name="IJ" unicode="&#x132;" horiz-adv-x="425" d="M138 98 C137 64 126 56 91 49 L39 39 L39 -5 L212 0 L386 -5 L386 39 L334 49 C299 56 288 64 287 98 C287 98 284 184 284 349 C284 514 287 602 287 602 C288 636 299 644 334 651 L386 661 L386 705 L212 700 L39 705 L39 661 L91 651 C126 644 137 636 138 602 C138 602 141 514 141 349 C141 184 138 98 138 98 L138 98 Z M698 349 C698 514 701 602 701 602 C703 636 711 644 748 651 L799 661 L799 705 L627 700 L458 705 L458 661 L506 651 C541 643 551 634 552 602 C552 602 555 514 555 349 C555 204 553 106 552 35 C550 -87 510 -127 428 -145 L444 -188 C574 -181 684 -137 698 0 L799 0 L799 43 L748 50 C711 55 700 68 699 98 C699 98 698 233 698 349 L698 349 Z " />
<glyph glyph-name="ij" unicode="&#x133;" horiz-adv-x="639" d="M101 86 C101 55 89 47 53 38 L24 31 L24 -5 L168 0 L310 -5 L310 31 L280 38 C244 46 234 55 234 86 L234 340 C234 437 236 510 236 510 L194 510 L30 443 L30 421 L69 406 C96 396 101 373 101 304 L101 86 Z M75 677 C75 627 115 587 165 587 C215 587 255 627 255 677 C255 727 215 767 165 767 C115 767 75 727 75 677 L75 677 Z M547 340 C547 437 549 510 549 510 L508 510 L344 443 L344 421 L383 406 C409 396 414 373 414 304 L414 -65 C414 -149 392 -192 322 -216 L342 -248 C352 -249 361 -249 371 -249 C487 -243 546 -180 546 -76 L546 0 L623 0 L623 36 L595 43 C559 52 547 61 547 92 L547 340 Z M388 677 C388 627 428 587 478 587 C528 587 568 627 568 677 C568 727 528 767 478 767 C428 767 388 727 388 677 L388 677 Z " />
<glyph glyph-name="Jcircumflex" unicode="&#x134;" horiz-adv-x="414" d="M273 349 C273 514 276 602 276 602 C278 636 286 644 323 651 L374 661 L374 705 L202 700 L33 705 L33 661 L81 651 C116 643 126 634 127 602 C127 602 130 514 130 349 C130 204 128 106 127 35 C125 -87 85 -127 3 -145 L19 -188 C149 -181 259 -137 273 0 L374 0 L374 43 L323 50 C286 55 275 68 274 98 C274 98 273 233 273 349 L273 349 Z M32 780 L58 762 L201 855 L203 855 L350 761 L372 780 L230 970 L172 970 L32 780 Z " />
<glyph glyph-name="jcircumflex" unicode="&#x135;" horiz-adv-x="314" d="M221 340 C221 437 223 510 223 510 L182 510 L18 443 L18 421 L57 406 C83 396 88 373 88 304 L88 -65 C88 -149 66 -192 -4 -216 C2 -227 10 -237 16 -248 C26 -249 35 -249 45 -249 C161 -243 220 -180 220 -76 L220 0 L297 0 L297 36 L269 43 C233 52 221 61 221 92 L221 340 Z M-23 567 L3 549 L146 642 L148 642 L295 548 L317 567 L175 757 L117 757 L-23 567 Z " />
<glyph glyph-name="Kcommaaccent" unicode="&#x136;" horiz-adv-x="789" d="M213 0 L386 -5 L386 38 L334 48 C299 55 288 66 287 96 C287 96 284 179 284 335 L370 335 L585 -3 L663 0 L800 -5 L800 38 C746 52 731 51 704 91 L476 420 C492 441 535 492 600 565 C653 625 671 643 704 650 L756 661 L756 705 L619 700 L471 705 L471 661 L515 651 C541 645 554 637 554 619 C554 612 550 602 543 592 C457 474 386 386 386 386 L284 386 C284 531 287 602 287 602 C288 636 299 644 334 651 L386 661 L386 705 L213 700 L39 705 L39 661 L91 651 C126 644 137 636 138 602 C138 602 141 514 141 349 C141 184 138 96 138 96 C137 66 126 55 91 48 L39 38 L39 -5 L213 0 Z M316 -370 C403 -343 496 -265 496 -174 C496 -109 441 -65 397 -65 C360 -65 314 -108 307 -147 C366 -167 391 -200 391 -235 C391 -275 356 -318 292 -346 L316 -370 Z " />
<glyph glyph-name="kcommaaccent" unicode="&#x137;" horiz-adv-x="600" d="M225 485 C225 604 228 755 228 755 L194 755 L24 720 L24 698 L63 683 C89 673 92 650 92 581 L92 86 C92 55 81 47 45 38 L16 31 L16 -5 L154 0 L301 -5 L301 31 L273 38 C236 47 225 55 225 86 L225 250 L269 250 C269 250 373 59 403 -2 L438 0 L596 -1 L596 35 L565 44 C536 52 525 60 511 85 L379 318 L467 400 C490 421 520 439 555 449 L582 456 L582 493 L455 488 L330 493 L330 451 L375 446 C403 442 410 420 389 399 C369 378 289 297 289 297 L225 297 L225 485 Z M221 -370 C308 -343 401 -265 401 -174 C401 -109 346 -65 302 -65 C265 -65 219 -108 212 -147 C271 -167 296 -200 296 -235 C296 -275 261 -318 197 -346 L221 -370 Z " />
<glyph glyph-name="kgreenlandic" unicode="&#x138;" horiz-adv-x="634" d="M236 403 C236 434 247 444 275 451 L304 458 L304 495 L170 490 L25 495 L25 458 L55 451 C90 443 102 433 102 403 L102 86 C102 56 90 46 55 38 L25 31 L25 -5 L170 0 L312 -5 L312 31 L282 38 C246 46 236 55 236 86 L236 230 L282 230 C282 230 334 156 435 -4 L520 0 L633 -1 L633 35 L602 44 C573 52 561 62 544 85 L388 295 L499 402 C521 423 546 440 587 451 L613 458 L613 494 L493 490 L374 494 L374 453 L401 448 C420 444 428 435 428 422 C428 415 423 406 416 399 L303 277 L236 277 L236 403 Z " />
<glyph glyph-name="Lacute" unicode="&#x139;" horiz-adv-x="676" d="M286 109 C284 167 284 191 284 356 C284 521 287 602 287 602 C288 636 299 644 334 651 L386 661 L386 705 L213 700 L39 705 L39 661 L91 651 C126 644 137 636 138 602 C138 602 141 521 141 356 C141 191 138 96 138 96 C137 66 126 56 91 49 L39 39 L39 -5 L202 0 L441 0 C498 0 639 -5 639 -5 L662 212 L622 212 L576 126 C539 54 506 53 457 53 L356 53 C306 53 287 66 286 109 L286 109 Z M230 781 L277 775 L467 964 L294 964 L230 781 Z " />
<glyph glyph-name="lacute" unicode="&#x13a;" horiz-adv-x="320" d="M227 451 C227 590 230 755 230 755 L196 755 L25 720 L25 698 L64 683 C90 673 93 650 93 581 L93 86 C93 55 81 46 46 38 L16 31 L16 -5 L160 0 L307 -5 L307 31 L274 38 C237 46 227 55 227 86 L227 451 Z M52 800 L99 794 L289 983 L116 983 L52 800 Z " />
<glyph glyph-name="Lcommaaccent" unicode="&#x13b;" horiz-adv-x="676" d="M286 109 C284 167 284 191 284 356 C284 521 287 602 287 602 C288 636 299 644 334 651 L386 661 L386 705 L213 700 L39 705 L39 661 L91 651 C126 644 137 636 138 602 C138 602 141 521 141 356 C141 191 138 96 138 96 C137 66 126 56 91 49 L39 39 L39 -5 L202 0 L441 0 C498 0 639 -5 639 -5 L662 212 L622 212 L576 126 C539 54 506 53 457 53 L356 53 C306 53 287 66 286 109 L286 109 Z M259 -370 C346 -343 439 -265 439 -174 C439 -109 384 -65 340 -65 C303 -65 257 -108 250 -147 C309 -167 334 -200 334 -235 C334 -275 299 -318 235 -346 L259 -370 Z " />
<glyph glyph-name="lcommaaccent" unicode="&#x13c;" horiz-adv-x="319" d="M227 451 C227 590 230 755 230 755 L196 755 L25 720 L25 698 L64 683 C90 673 93 650 93 581 L93 86 C93 55 81 46 46 38 L16 31 L16 -5 L160 0 L307 -5 L307 31 L274 38 C237 46 227 55 227 86 L227 451 Z M79 -370 C166 -343 259 -265 259 -174 C259 -109 204 -65 160 -65 C123 -65 77 -108 70 -147 C129 -167 154 -200 154 -235 C154 -275 119 -318 55 -346 L79 -370 Z " />
<glyph glyph-name="Lcaron" unicode="&#x13d;" horiz-adv-x="676" d="M286 109 C284 167 284 191 284 356 C284 521 287 602 287 602 C288 636 299 644 334 651 L386 661 L386 705 L213 700 L39 705 L39 661 L91 651 C126 644 137 636 138 602 C138 602 141 521 141 356 C141 191 138 96 138 96 C137 66 126 56 91 49 L39 39 L39 -5 L202 0 L441 0 C498 0 639 -5 639 -5 L662 212 L622 212 L576 126 C539 54 506 53 457 53 L356 53 C306 53 287 66 286 109 L286 109 Z M491 462 C578 489 671 567 671 658 C671 723 616 767 572 767 C535 767 489 724 482 685 C541 665 566 632 566 597 C566 557 531 514 467 486 L491 462 Z " />
<glyph glyph-name="lcaron" unicode="&#x13e;" horiz-adv-x="498" d="M227 451 C227 590 230 755 230 755 L196 755 L25 720 L25 698 L64 683 C90 673 93 650 93 581 L93 86 C93 55 81 46 46 38 L16 31 L16 -5 L160 0 L307 -5 L307 31 L274 38 C237 46 227 55 227 86 L227 451 Z M318 462 C405 489 498 567 498 658 C498 723 443 767 399 767 C362 767 316 724 309 685 C368 665 393 632 393 597 C393 557 358 514 294 486 L318 462 Z " />
<glyph glyph-name="Ldot" unicode="&#x13f;" horiz-adv-x="676" d="M286 109 C284 167 284 191 284 356 C284 521 287 602 287 602 C288 636 299 644 334 651 L386 661 L386 705 L213 700 L39 705 L39 661 L91 651 C126 644 137 636 138 602 C138 602 141 521 141 356 C141 191 138 96 138 96 C137 66 126 56 91 49 L39 39 L39 -5 L202 0 L441 0 C498 0 639 -5 639 -5 L662 212 L622 212 L576 126 C539 54 506 53 457 53 L356 53 C306 53 287 66 286 109 L286 109 Z M398 362 C398 316 436 278 482 278 C528 278 566 316 566 362 C566 407 528 446 482 446 C436 446 398 407 398 362 L398 362 Z " />
<glyph glyph-name="ldot" unicode="&#x140;" horiz-adv-x="459" d="M227 451 C227 590 230 755 230 755 L196 755 L25 720 L25 698 L64 683 C90 673 93 650 93 581 L93 86 C93 55 81 46 46 38 L16 31 L16 -5 L160 0 L307 -5 L307 31 L274 38 C237 46 227 55 227 86 L227 451 Z M307 362 C307 316 345 278 391 278 C437 278 475 316 475 362 C475 407 437 446 391 446 C345 446 307 407 307 362 L307 362 Z " />
<glyph glyph-name="Lslash" unicode="&#x141;" horiz-adv-x="676" d="M463 403 L463 456 L284 384 C284 528 287 602 287 602 C288 636 299 644 334 651 L386 661 L386 705 L213 700 L39 705 L39 661 L91 651 C126 644 137 636 138 602 C138 602 141 521 141 356 L141 326 L47 289 L47 236 L141 273 C140 161 138 96 138 96 C137 66 126 56 91 49 L39 39 L39 -5 L202 0 L441 0 C498 0 639 -5 639 -5 L662 212 L622 212 L576 126 C539 54 506 53 457 53 L356 53 C306 53 287 66 286 109 C284 162 284 197 284 331 L463 403 Z " />
<glyph glyph-name="lslash" unicode="&#x142;" horiz-adv-x="325" d="M227 451 C227 590 230 755 230 755 L196 755 L25 720 L25 698 L64 683 C90 673 93 650 93 581 L93 316 L15 289 L15 236 L93 264 L93 86 C93 55 81 46 46 38 L16 31 L16 -5 L160 0 L307 -5 L307 31 L274 38 C237 46 227 55 227 86 L227 310 L310 340 L310 393 L227 363 L227 451 Z " />
<glyph glyph-name="Nacute" unicode="&#x143;" horiz-adv-x="882" d="M143 602 C143 484 134 142 133 96 C132 65 122 56 86 49 L34 39 L34 -5 L162 0 L296 -5 L296 39 L243 49 C208 56 196 65 196 96 C196 230 195 615 195 615 C195 615 393 361 659 -5 L752 -5 C752 346 757 514 757 602 C757 634 768 644 804 651 L856 661 L856 705 L727 700 L595 705 L595 661 L647 651 C683 644 693 634 694 602 C696 537 703 172 703 172 L371 618 C343 655 325 705 325 705 L187 700 L47 705 L47 661 L97 651 C132 644 143 633 143 602 L143 602 Z M368 781 L415 775 L605 964 L432 964 L368 781 Z " />
<glyph glyph-name="nacute" unicode="&#x144;" horiz-adv-x="623" d="M540 86 C540 127 542 249 542 334 C542 442 482 504 379 504 C296 504 242 449 225 419 L217 421 L219 510 L191 510 L28 443 L28 421 L67 406 C94 396 97 381 97 312 L97 86 C97 55 83 50 49 38 L29 31 L29 -5 L167 0 L296 -5 L296 31 L267 38 C234 46 230 56 230 86 L230 300 C230 375 239 429 319 429 C400 429 407 344 407 273 L407 190 C407 76 403 52 359 38 L337 31 L337 -5 L476 0 L615 -5 L615 31 L586 38 C552 46 540 55 540 86 L540 86 Z M212 568 L259 562 L449 751 L276 751 L212 568 Z " />
<glyph glyph-name="Ncommaaccent" unicode="&#x145;" horiz-adv-x="882" d="M143 602 C143 484 134 142 133 96 C132 65 122 56 86 49 L34 39 L34 -5 L162 0 L296 -5 L296 39 L243 49 C208 56 196 65 196 96 C196 230 195 615 195 615 C195 615 393 361 659 -5 L752 -5 C752 346 757 514 757 602 C757 634 768 644 804 651 L856 661 L856 705 L727 700 L595 705 L595 661 L647 651 C683 644 693 634 694 602 C696 537 703 172 703 172 L371 618 C343 655 325 705 325 705 L187 700 L47 705 L47 661 L97 651 C132 644 143 633 143 602 L143 602 Z M348 -370 C435 -343 528 -265 528 -174 C528 -109 473 -65 429 -65 C392 -65 346 -108 339 -147 C398 -167 423 -200 423 -235 C423 -275 388 -318 324 -346 L348 -370 Z " />
<glyph glyph-name="ncommaaccent" unicode="&#x146;" horiz-adv-x="623" d="M540 86 C540 127 542 249 542 334 C542 442 482 504 379 504 C296 504 242 449 225 419 L217 421 L219 510 L191 510 L28 443 L28 421 L67 406 C94 396 97 381 97 312 L97 86 C97 55 83 50 49 38 L29 31 L29 -5 L167 0 L296 -5 L296 31 L267 38 C234 46 230 56 230 86 L230 300 C230 375 239 429 319 429 C400 429 407 344 407 273 L407 190 C407 76 403 52 359 38 L337 31 L337 -5 L476 0 L615 -5 L615 31 L586 38 C552 46 540 55 540 86 L540 86 Z M233 -370 C320 -343 413 -265 413 -174 C413 -109 358 -65 314 -65 C277 -65 231 -108 224 -147 C283 -167 308 -200 308 -235 C308 -275 273 -318 209 -346 L233 -370 Z " />
<glyph glyph-name="Ncaron" unicode="&#x147;" horiz-adv-x="882" d="M143 602 C143 484 134 142 133 96 C132 65 122 56 86 49 L34 39 L34 -5 L162 0 L296 -5 L296 39 L243 49 C208 56 196 65 196 96 C196 230 195 615 195 615 C195 615 393 361 659 -5 L752 -5 C752 346 757 514 757 602 C757 634 768 644 804 651 L856 661 L856 705 L727 700 L595 705 L595 661 L647 651 C683 644 693 634 694 602 C696 537 703 172 703 172 L371 618 C343 655 325 705 325 705 L187 700 L47 705 L47 661 L97 651 C132 644 143 633 143 602 L143 602 Z M411 762 L469 762 L611 951 L589 971 L442 876 L440 876 L297 970 L271 951 L411 762 Z " />
<glyph glyph-name="ncaron" unicode="&#x148;" horiz-adv-x="623" d="M540 86 C540 127 542 249 542 334 C542 442 482 504 379 504 C296 504 242 449 225 419 L217 421 L219 510 L191 510 L28 443 L28 421 L67 406 C94 396 97 381 97 312 L97 86 C97 55 83 50 49 38 L29 31 L29 -5 L167 0 L296 -5 L296 31 L267 38 C234 46 230 56 230 86 L230 300 C230 375 239 429 319 429 C400 429 407 344 407 273 L407 190 C407 76 403 52 359 38 L337 31 L337 -5 L476 0 L615 -5 L615 31 L586 38 C552 46 540 55 540 86 L540 86 Z M280 549 L338 549 L480 738 L458 758 L311 663 L309 663 L166 757 L140 738 L280 549 Z " />
<glyph glyph-name="napostrophe" unicode="&#x149;" horiz-adv-x="623" d="M540 86 C540 127 542 249 542 334 C542 442 482 504 379 504 C296 504 242 449 225 419 L217 421 L219 510 L191 510 L28 443 L28 421 L67 406 C94 396 97 381 97 312 L97 86 C97 55 83 50 49 38 L29 31 L29 -5 L167 0 L296 -5 L296 31 L267 38 C234 46 230 56 230 86 L230 300 C230 375 239 429 319 429 C400 429 407 344 407 273 L407 190 C407 76 403 52 359 38 L337 31 L337 -5 L476 0 L615 -5 L615 31 L586 38 C552 46 540 55 540 86 L540 86 Z M49 518 C136 545 229 623 229 714 C229 779 174 823 130 823 C93 823 47 780 40 741 C99 721 124 688 124 653 C124 613 89 570 25 542 L49 518 Z " />
<glyph glyph-name="Eng" unicode="&#x14a;" horiz-adv-x="882" d="M143 602 C143 484 134 142 133 96 C132 65 122 56 86 49 L34 39 L34 -5 L162 0 L296 -5 L296 39 L243 49 C208 56 196 65 196 96 C196 230 195 615 195 615 C195 615 367 393 607 66 L607 -29 C607 -151 563 -191 481 -209 L497 -252 C627 -245 752 -202 752 -64 L752 -5 C752 346 757 514 757 602 C757 634 768 644 804 651 L856 661 L856 705 L727 700 L595 705 L595 661 L647 651 C683 644 693 634 694 602 C696 537 703 172 703 172 L371 618 C343 655 325 705 325 705 L187 700 L47 705 L47 661 L97 651 C132 644 143 633 143 602 L143 602 Z " />
<glyph glyph-name="eng" unicode="&#x14b;" horiz-adv-x="623" d="M540 86 C540 127 542 249 542 334 C542 442 482 504 379 504 C296 504 242 449 225 419 L217 421 L219 510 L191 510 L28 443 L28 421 L67 406 C94 396 97 381 97 312 L97 86 C97 55 83 50 49 38 L29 31 L29 -5 L167 0 L296 -5 L296 31 L267 38 C234 46 230 56 230 86 L230 300 C230 375 239 429 319 429 C400 429 407 344 407 273 L407 -65 C407 -149 386 -192 315 -216 L336 -248 C346 -249 355 -249 364 -249 C481 -243 540 -180 540 -76 L540 -2 L615 -5 L615 31 L586 38 C552 46 540 55 540 86 L540 86 Z " />
<glyph glyph-name="Omacron" unicode="&#x14c;" horiz-adv-x="835" d="M424 39 C299 39 198 135 198 363 C198 493 240 660 418 660 C544 660 636 563 636 336 C636 206 601 39 424 39 L424 39 Z M420 715 C198 714 45 556 45 343 C45 100 247 -15 409 -15 C629 -15 789 141 789 354 C789 595 603 715 420 715 L420 715 Z M572 792 L572 864 L261 864 L261 792 L572 792 Z " />
<glyph glyph-name="omacron" unicode="&#x14d;" horiz-adv-x="582" d="M286 -15 C442 -15 547 95 547 250 C547 432 411 504 298 504 C135 504 35 388 35 241 C35 71 160 -15 286 -15 L286 -15 Z M293 29 C224 29 176 100 176 254 C176 342 191 459 288 459 C354 459 406 389 406 236 C406 148 393 29 293 29 L293 29 Z M446 579 L446 651 L135 651 L135 579 L446 579 Z " />
<glyph glyph-name="Obreve" unicode="&#x14e;" horiz-adv-x="835" d="M424 39 C299 39 198 135 198 363 C198 493 240 660 418 660 C544 660 636 563 636 336 C636 206 601 39 424 39 L424 39 Z M420 715 C198 714 45 556 45 343 C45 100 247 -15 409 -15 C629 -15 789 141 789 354 C789 595 603 715 420 715 L420 715 Z M417 878 C323 878 315 927 315 971 L315 976 L268 976 L268 937 C268 841 321 772 417 772 C515 772 568 841 568 937 L568 976 L520 976 L520 971 C520 927 513 878 417 878 L417 878 Z " />
<glyph glyph-name="obreve" unicode="&#x14f;" horiz-adv-x="582" d="M286 -15 C442 -15 547 95 547 250 C547 432 411 504 298 504 C135 504 35 388 35 241 C35 71 160 -15 286 -15 L286 -15 Z M293 29 C224 29 176 100 176 254 C176 342 191 459 288 459 C354 459 406 389 406 236 C406 148 393 29 293 29 L293 29 Z M286 665 C192 665 184 714 184 758 L184 763 L137 763 L137 724 C137 628 190 559 286 559 C384 559 437 628 437 724 L437 763 L389 763 L389 758 C389 714 382 665 286 665 L286 665 Z " />
<glyph glyph-name="Ohungarumlaut" unicode="&#x150;" horiz-adv-x="835" d="M424 39 C299 39 198 135 198 363 C198 493 240 660 418 660 C544 660 636 563 636 336 C636 206 601 39 424 39 L424 39 Z M420 715 C198 714 45 556 45 343 C45 100 247 -15 409 -15 C629 -15 789 141 789 354 C789 595 603 715 420 715 L420 715 Z M231 775 L277 769 L445 958 L287 958 L231 775 Z M421 775 L467 769 L635 958 L478 958 L421 775 Z " />
<glyph glyph-name="ohungarumlaut" unicode="&#x151;" horiz-adv-x="582" d="M286 -15 C442 -15 547 95 547 250 C547 432 411 504 298 504 C135 504 35 388 35 241 C35 71 160 -15 286 -15 L286 -15 Z M293 29 C224 29 176 100 176 254 C176 342 191 459 288 459 C354 459 406 389 406 236 C406 148 393 29 293 29 L293 29 Z M121 568 L167 562 L335 751 L177 751 L121 568 Z M311 568 L357 562 L525 751 L368 751 L311 568 Z " />
<glyph glyph-name="OE" unicode="&#x152;" horiz-adv-x="1159" d="M534 654 C580 650 589 628 589 585 L589 47 C589 47 530 48 486 48 C308 48 204 150 204 342 C204 598 348 656 487 656 C506 656 517 655 534 654 L534 654 Z M899 0 C956 0 1095 -5 1095 -5 C1101 67 1117 193 1120 212 L1077 212 L1036 133 C998 61 960 53 912 53 L802 53 C754 53 732 73 732 116 L732 337 C732 337 791 336 847 333 C879 331 891 319 900 282 L913 227 L958 227 L953 359 L958 494 L913 494 L900 439 C891 402 879 390 847 388 C791 385 732 384 732 384 L732 631 C732 641 733 647 750 647 L932 647 C971 647 988 611 1006 549 L1018 508 L1064 508 C1073 650 1081 711 1081 711 C1081 711 985 700 928 700 L638 700 C581 704 448 711 447 711 C239 711 46 592 46 337 C46 151 171 -8 416 -8 C445 -8 517 -5 588 0 L899 0 Z " />
<glyph glyph-name="oe" unicode="&#x153;" horiz-adv-x="889" d="M286 -15 C361 -15 424 10 469 54 C511 7 571 -15 633 -15 C712 -15 799 11 846 96 L820 126 C800 94 750 69 696 69 C619 69 546 133 546 261 L546 280 L855 279 L855 306 C855 419 780 504 646 504 C581 504 522 475 479 429 C430 481 361 504 298 504 C135 504 35 388 35 241 C35 71 160 -15 286 -15 L286 -15 Z M713 324 L548 321 C554 407 579 461 640 461 C699 461 714 409 713 329 L713 324 Z M293 29 C224 29 176 100 176 254 C176 342 191 459 288 459 C354 459 406 389 406 236 C406 148 393 29 293 29 L293 29 Z " />
<glyph glyph-name="Racute" unicode="&#x154;" horiz-adv-x="767" d="M141 349 C141 184 138 96 138 96 C138 66 126 56 91 49 L39 39 L39 -5 L216 0 L388 -5 L388 39 L336 49 C300 56 288 65 287 96 C284 213 284 314 284 314 L379 314 C444 214 516 45 592 11 C629 -6 685 -10 747 -10 C759 -10 771 -9 785 -9 L796 36 C723 45 666 127 627 183 C587 240 548 297 509 354 C597 384 651 452 651 526 C651 697 491 710 413 710 C346 710 246 701 240 702 L39 705 L39 661 L91 651 C126 644 137 636 138 602 C138 602 141 514 141 349 L141 349 Z M355 658 C443 658 500 615 500 515 C500 381 400 363 369 363 C329 363 305 368 284 374 L284 642 C284 652 285 658 302 658 L355 658 Z M258 781 L305 775 L495 964 L322 964 L258 781 Z " />
<glyph glyph-name="racute" unicode="&#x155;" horiz-adv-x="451" d="M215 398 L219 510 L191 510 L28 443 L28 421 L67 406 C94 396 97 373 97 304 L97 86 C97 55 83 50 49 38 L29 31 L29 -5 L166 0 L320 -5 L320 31 L277 38 C241 44 230 55 230 86 L230 358 C252 372 290 387 290 387 C318 382 373 340 373 340 L386 340 C424 359 445 390 445 423 C445 464 420 499 362 499 C306 499 251 437 223 396 L215 398 Z M106 568 L153 562 L343 751 L170 751 L106 568 Z " />
<glyph glyph-name="Rcommaaccent" unicode="&#x156;" horiz-adv-x="767" d="M141 349 C141 184 138 96 138 96 C138 66 126 56 91 49 L39 39 L39 -5 L216 0 L388 -5 L388 39 L336 49 C300 56 288 65 287 96 C284 213 284 314 284 314 L379 314 C444 214 516 45 592 11 C629 -6 685 -10 747 -10 C759 -10 771 -9 785 -9 L796 36 C723 45 666 127 627 183 C587 240 548 297 509 354 C597 384 651 452 651 526 C651 697 491 710 413 710 C346 710 246 701 240 702 L39 705 L39 661 L91 651 C126 644 137 636 138 602 C138 602 141 514 141 349 L141 349 Z M355 658 C443 658 500 615 500 515 C500 381 400 363 369 363 C329 363 305 368 284 374 L284 642 C284 652 285 658 302 658 L355 658 Z M304 -370 C391 -343 484 -265 484 -174 C484 -109 429 -65 385 -65 C348 -65 302 -108 295 -147 C354 -167 379 -200 379 -235 C379 -275 344 -318 280 -346 L304 -370 Z " />
<glyph glyph-name="rcommaaccent" unicode="&#x157;" horiz-adv-x="451" d="M215 398 L219 510 L191 510 L28 443 L28 421 L67 406 C94 396 97 373 97 304 L97 86 C97 55 83 50 49 38 L29 31 L29 -5 L166 0 L320 -5 L320 31 L277 38 C241 44 230 55 230 86 L230 358 C252 372 290 387 290 387 C318 382 373 340 373 340 L386 340 C424 359 445 390 445 423 C445 464 420 499 362 499 C306 499 251 437 223 396 L215 398 Z M147 -370 C234 -343 327 -265 327 -174 C327 -109 272 -65 228 -65 C191 -65 145 -108 138 -147 C197 -167 222 -200 222 -235 C222 -275 187 -318 123 -346 L147 -370 Z " />
<glyph glyph-name="Rcaron" unicode="&#x158;" horiz-adv-x="767" d="M141 349 C141 184 138 96 138 96 C138 66 126 56 91 49 L39 39 L39 -5 L216 0 L388 -5 L388 39 L336 49 C300 56 288 65 287 96 C284 213 284 314 284 314 L379 314 C444 214 516 45 592 11 C629 -6 685 -10 747 -10 C759 -10 771 -9 785 -9 L796 36 C723 45 666 127 627 183 C587 240 548 297 509 354 C597 384 651 452 651 526 C651 697 491 710 413 710 C346 710 246 701 240 702 L39 705 L39 661 L91 651 C126 644 137 636 138 602 C138 602 141 514 141 349 L141 349 Z M355 658 C443 658 500 615 500 515 C500 381 400 363 369 363 C329 363 305 368 284 374 L284 642 C284 652 285 658 302 658 L355 658 Z M334 767 L392 767 L534 956 L512 976 L365 881 L363 881 L220 975 L194 956 L334 767 Z " />
<glyph glyph-name="rcaron" unicode="&#x159;" horiz-adv-x="451" d="M215 398 L219 510 L191 510 L28 443 L28 421 L67 406 C94 396 97 373 97 304 L97 86 C97 55 83 50 49 38 L29 31 L29 -5 L166 0 L320 -5 L320 31 L277 38 C241 44 230 55 230 86 L230 358 C252 372 290 387 290 387 C318 382 373 340 373 340 L386 340 C424 359 445 390 445 423 C445 464 420 499 362 499 C306 499 251 437 223 396 L215 398 Z M191 549 L249 549 L391 738 L369 758 L222 663 L220 663 L77 757 L51 738 L191 549 Z " />
<glyph glyph-name="Sacute" unicode="&#x15a;" horiz-adv-x="609" d="M146 111 C113 186 103 231 103 231 L53 226 C59 124 59 35 59 22 C98 11 176 -15 285 -15 C444 -15 559 72 559 206 C559 437 201 403 201 561 C201 631 268 660 327 660 C401 660 429 644 438 620 C459 564 474 509 474 509 L517 509 C524 591 535 683 535 683 C523 688 413 715 324 715 C152 715 71 614 71 523 C71 273 427 330 427 156 C427 77 363 39 295 39 C227 39 167 62 146 111 L146 111 Z M219 781 L266 775 L456 964 L283 964 L219 781 Z " />
<glyph glyph-name="sacute" unicode="&#x15b;" horiz-adv-x="452" d="M94 164 L46 163 C47 155 48 110 48 88 C48 43 46 13 46 13 C46 13 121 -15 212 -15 C329 -15 415 39 415 144 C415 311 170 283 170 394 C170 439 202 459 248 459 C278 459 307 445 316 421 L343 348 L387 349 C387 388 394 467 398 484 C362 496 284 504 235 504 C139 504 46 459 46 353 C46 187 296 215 296 99 C296 63 269 29 212 29 C167 29 138 54 125 87 L94 164 Z M131 568 L178 562 L368 751 L195 751 L131 568 Z " />
<glyph glyph-name="Scircumflex" unicode="&#x15c;" horiz-adv-x="609" d="M146 111 C113 186 103 231 103 231 L53 226 C59 124 59 35 59 22 C98 11 176 -15 285 -15 C444 -15 559 72 559 206 C559 437 201 403 201 561 C201 631 268 660 327 660 C401 660 429 644 438 620 C459 564 474 509 474 509 L517 509 C524 591 535 683 535 683 C523 688 413 715 324 715 C152 715 71 614 71 523 C71 273 427 330 427 156 C427 77 363 39 295 39 C227 39 167 62 146 111 L146 111 Z M126 780 L152 762 L295 855 L297 855 L444 761 L466 780 L324 970 L266 970 L126 780 Z " />
<glyph glyph-name="scircumflex" unicode="&#x15d;" horiz-adv-x="452" d="M94 164 L46 163 C47 155 48 110 48 88 C48 43 46 13 46 13 C46 13 121 -15 212 -15 C329 -15 415 39 415 144 C415 311 170 283 170 394 C170 439 202 459 248 459 C278 459 307 445 316 421 L343 348 L387 349 C387 388 394 467 398 484 C362 496 284 504 235 504 C139 504 46 459 46 353 C46 187 296 215 296 99 C296 63 269 29 212 29 C167 29 138 54 125 87 L94 164 Z M51 567 L77 549 L220 642 L222 642 L369 548 L391 567 L249 757 L191 757 L51 567 Z " />
<glyph glyph-name="Scedilla" unicode="&#x15e;" horiz-adv-x="609" d="M146 111 C113 186 103 231 103 231 L53 226 C59 124 59 35 59 22 C95 11 165 -12 263 -15 L180 -82 C210 -90 302 -116 302 -181 C302 -224 269 -241 228 -241 C200 -241 185 -234 167 -226 L160 -260 C188 -276 233 -288 277 -288 C352 -288 427 -254 427 -170 C427 -76 326 -58 281 -57 L318 -13 C460 -2 559 81 559 206 C559 437 201 403 201 561 C201 631 268 660 327 660 C401 660 429 644 438 620 C459 564 474 509 474 509 L517 509 C524 591 535 683 535 683 C523 688 413 715 324 715 C152 715 71 614 71 523 C71 273 427 330 427 156 C427 77 363 39 295 39 C227 39 167 62 146 111 L146 111 Z " />
<glyph glyph-name="scedilla" unicode="&#x15f;" horiz-adv-x="452" d="M94 164 L46 163 C47 155 48 110 48 88 C48 43 46 13 46 13 C46 13 103 -9 179 -14 L95 -82 C125 -90 217 -116 217 -181 C217 -224 184 -241 143 -241 C115 -241 100 -234 82 -226 L75 -260 C103 -276 148 -288 192 -288 C267 -288 342 -254 342 -170 C342 -76 241 -58 196 -57 L233 -14 C339 -8 415 45 415 144 C415 311 170 283 170 394 C170 439 202 459 248 459 C278 459 307 445 316 421 L343 348 L387 349 C387 388 394 467 398 484 C362 496 284 504 235 504 C139 504 46 459 46 353 C46 187 296 215 296 99 C296 63 269 29 212 29 C167 29 138 54 125 87 L94 164 Z " />
<glyph glyph-name="Scaron" unicode="&#x160;" horiz-adv-x="609" d="M146 111 C113 186 103 231 103 231 L53 226 C59 124 59 35 59 22 C98 11 176 -15 285 -15 C444 -15 559 72 559 206 C559 437 201 403 201 561 C201 631 268 660 327 660 C401 660 429 644 438 620 C459 564 474 509 474 509 L517 509 C524 591 535 683 535 683 C523 688 413 715 324 715 C152 715 71 614 71 523 C71 273 427 330 427 156 C427 77 363 39 295 39 C227 39 167 62 146 111 L146 111 Z M266 762 L324 762 L466 951 L444 971 L297 876 L295 876 L152 970 L126 951 L266 762 Z " />
<glyph glyph-name="scaron" unicode="&#x161;" horiz-adv-x="452" d="M94 164 L46 163 C47 155 48 110 48 88 C48 43 46 13 46 13 C46 13 121 -15 212 -15 C329 -15 415 39 415 144 C415 311 170 283 170 394 C170 439 202 459 248 459 C278 459 307 445 316 421 L343 348 L387 349 C387 388 394 467 398 484 C362 496 284 504 235 504 C139 504 46 459 46 353 C46 187 296 215 296 99 C296 63 269 29 212 29 C167 29 138 54 125 87 L94 164 Z M191 549 L249 549 L391 738 L369 758 L222 663 L220 663 L77 757 L51 738 L191 549 Z " />
<glyph glyph-name="Tcommaaccent" unicode="&#x162;" horiz-adv-x="727" d="M363 698 L178 700 C95 701 29 710 29 711 C29 711 28 591 20 500 L65 500 C98 610 111 643 168 644 L290 646 C290 646 292 514 292 349 C292 184 290 96 290 96 C290 66 277 56 242 49 L190 39 L190 -5 L364 0 L536 -5 L536 39 L483 49 C447 56 437 66 437 96 C437 96 435 184 435 349 C435 514 437 646 437 646 L559 644 C616 643 629 610 662 500 L707 500 C699 591 698 711 698 711 C698 710 632 701 549 700 L363 698 Z M266 -370 C353 -343 446 -265 446 -174 C446 -109 391 -65 347 -65 C310 -65 264 -108 257 -147 C316 -167 341 -200 341 -235 C341 -275 306 -318 242 -346 L266 -370 Z " />
<glyph glyph-name="tcommaaccent" unicode="&#x163;" horiz-adv-x="400" d="M175 623 C154 538 118 489 5 480 L5 429 L92 429 L92 118 C92 32 151 -15 240 -15 C298 -15 366 12 392 62 L376 94 C362 76 324 59 299 59 C249 59 226 89 226 151 L226 429 L370 417 L377 485 L226 480 L226 623 L175 623 Z M121 -370 C208 -343 301 -265 301 -174 C301 -109 246 -65 202 -65 C165 -65 119 -108 112 -147 C171 -167 196 -200 196 -235 C196 -275 161 -318 97 -346 L121 -370 Z " />
<glyph glyph-name="Tcaron" unicode="&#x164;" horiz-adv-x="727" d="M363 698 L178 700 C95 701 29 710 29 711 C29 711 28 591 20 500 L65 500 C98 610 111 643 168 644 L290 646 C290 646 292 514 292 349 C292 184 290 96 290 96 C290 66 277 56 242 49 L190 39 L190 -5 L364 0 L536 -5 L536 39 L483 49 C447 56 437 66 437 96 C437 96 435 184 435 349 C435 514 437 646 437 646 L559 644 C616 643 629 610 662 500 L707 500 C699 591 698 711 698 711 C698 710 632 701 549 700 L363 698 Z M331 762 L389 762 L531 951 L509 971 L362 876 L360 876 L217 970 L191 951 L331 762 Z " />
<glyph glyph-name="tcaron" unicode="&#x165;" horiz-adv-x="400" d="M175 623 C154 538 118 489 5 480 L5 429 L92 429 L92 118 C92 32 151 -15 240 -15 C298 -15 366 12 392 62 L376 94 C362 76 324 59 299 59 C249 59 226 89 226 151 L226 429 L370 417 L377 485 L226 480 L226 623 L175 623 Z M301 553 C388 580 481 658 481 749 C481 814 426 858 382 858 C345 858 299 815 292 776 C351 756 376 723 376 688 C376 648 341 605 277 577 L301 553 Z " />
<glyph glyph-name="Tbar" unicode="&#x166;" horiz-adv-x="727" d="M160 386 L160 335 L292 335 C292 180 290 96 290 96 C290 66 277 56 242 49 L190 39 L190 -5 L364 0 L536 -5 L536 39 L483 49 C447 56 437 66 437 96 C437 96 435 180 435 335 L567 335 L567 386 L435 386 C435 532 437 646 437 646 L559 644 C616 643 629 610 662 500 L707 500 C699 591 698 711 698 711 C698 710 632 701 549 700 L363 698 L178 700 C95 701 29 710 29 711 C29 711 28 591 20 500 L65 500 C98 610 111 643 168 644 L290 646 C290 646 291 532 292 386 L160 386 Z " />
<glyph glyph-name="tbar" unicode="&#x167;" horiz-adv-x="400" d="M175 623 C154 538 118 489 5 480 L5 429 L92 429 L92 325 L5 325 L5 271 L92 271 L92 118 C92 32 151 -15 240 -15 C298 -15 366 12 392 62 L376 94 C362 76 324 59 299 59 C249 59 226 89 226 151 L226 271 L361 271 L361 325 L226 325 L226 429 L370 417 L377 485 L226 480 L226 623 L175 623 Z " />
<glyph glyph-name="Utilde" unicode="&#x168;" horiz-adv-x="842" d="M262 602 C262 634 274 644 310 651 L360 661 L360 705 L183 700 L19 705 L19 661 L71 651 C106 644 118 634 118 602 L118 240 C118 73 244 -15 421 -15 C605 -15 722 81 722 261 C722 261 724 521 724 602 C724 634 736 644 771 651 L823 661 L823 705 L693 700 L562 705 L562 661 L614 651 C649 644 661 634 661 602 C661 564 663 368 663 263 C663 166 612 51 453 51 C353 51 262 93 262 246 L262 602 Z M514 881 C485 881 414 924 370 924 C304 924 263 850 251 797 L281 786 C300 821 319 825 346 825 C375 825 442 785 481 785 C553 785 588 857 601 910 L572 922 C553 885 544 881 514 881 L514 881 Z " />
<glyph glyph-name="utilde" unicode="&#x169;" horiz-adv-x="613" d="M519 191 C519 371 524 494 524 494 L438 487 L315 483 L315 446 L344 440 C381 433 386 416 386 385 L386 177 C386 104 363 67 307 67 C239 67 215 107 215 214 C215 281 214 437 220 494 L133 487 L17 483 L17 446 L40 440 C75 431 81 416 81 385 C81 385 80 240 80 155 C80 47 135 -15 237 -15 C317 -15 367 40 383 66 L392 64 L389 -8 L425 -8 C508 5 545 10 596 16 L596 51 C521 58 519 80 519 191 L519 191 Z M394 668 C365 668 294 711 250 711 C184 711 143 637 131 584 L161 573 C180 608 199 612 226 612 C255 612 322 572 361 572 C433 572 468 644 481 697 L452 709 C433 672 424 668 394 668 L394 668 Z " />
<glyph glyph-name="Umacron" unicode="&#x16a;" horiz-adv-x="842" d="M262 602 C262 634 274 644 310 651 L360 661 L360 705 L183 700 L19 705 L19 661 L71 651 C106 644 118 634 118 602 L118 240 C118 73 244 -15 421 -15 C605 -15 722 81 722 261 C722 261 724 521 724 602 C724 634 736 644 771 651 L823 661 L823 705 L693 700 L562 705 L562 661 L614 651 C649 644 661 634 661 602 C661 564 663 368 663 263 C663 166 612 51 453 51 C353 51 262 93 262 246 L262 602 Z M576 792 L576 864 L265 864 L265 792 L576 792 Z " />
<glyph glyph-name="umacron" unicode="&#x16b;" horiz-adv-x="613" d="M519 191 C519 371 524 494 524 494 L438 487 L315 483 L315 446 L344 440 C381 433 386 416 386 385 L386 177 C386 104 363 67 307 67 C239 67 215 107 215 214 C215 281 214 437 220 494 L133 487 L17 483 L17 446 L40 440 C75 431 81 416 81 385 C81 385 80 240 80 155 C80 47 135 -15 237 -15 C317 -15 367 40 383 66 L392 64 L389 -8 L425 -8 C508 5 545 10 596 16 L596 51 C521 58 519 80 519 191 L519 191 Z M459 579 L459 651 L148 651 L148 579 L459 579 Z " />
<glyph glyph-name="Ubreve" unicode="&#x16c;" horiz-adv-x="842" d="M262 602 C262 634 274 644 310 651 L360 661 L360 705 L183 700 L19 705 L19 661 L71 651 C106 644 118 634 118 602 L118 240 C118 73 244 -15 421 -15 C605 -15 722 81 722 261 C722 261 724 521 724 602 C724 634 736 644 771 651 L823 661 L823 705 L693 700 L562 705 L562 661 L614 651 C649 644 661 634 661 602 C661 564 663 368 663 263 C663 166 612 51 453 51 C353 51 262 93 262 246 L262 602 Z M419 878 C325 878 317 927 317 971 L317 976 L270 976 L270 937 C270 841 323 772 419 772 C517 772 570 841 570 937 L570 976 L522 976 L522 971 C522 927 515 878 419 878 L419 878 Z " />
<glyph glyph-name="ubreve" unicode="&#x16d;" horiz-adv-x="613" d="M519 191 C519 371 524 494 524 494 L438 487 L315 483 L315 446 L344 440 C381 433 386 416 386 385 L386 177 C386 104 363 67 307 67 C239 67 215 107 215 214 C215 281 214 437 220 494 L133 487 L17 483 L17 446 L40 440 C75 431 81 416 81 385 C81 385 80 240 80 155 C80 47 135 -15 237 -15 C317 -15 367 40 383 66 L392 64 L389 -8 L425 -8 C508 5 545 10 596 16 L596 51 C521 58 519 80 519 191 L519 191 Z M305 665 C211 665 203 714 203 758 L203 763 L156 763 L156 724 C156 628 209 559 305 559 C403 559 456 628 456 724 L456 763 L408 763 L408 758 C408 714 401 665 305 665 L305 665 Z " />
<glyph glyph-name="Uring" unicode="&#x16e;" horiz-adv-x="842" d="M262 602 C262 634 274 644 310 651 L360 661 L360 705 L183 700 L19 705 L19 661 L71 651 C106 644 118 634 118 602 L118 240 C118 73 244 -15 421 -15 C605 -15 722 81 722 261 C722 261 724 521 724 602 C724 634 736 644 771 651 L823 661 L823 705 L693 700 L562 705 L562 661 L614 651 C649 644 661 634 661 602 C661 564 663 368 663 263 C663 166 612 51 453 51 C353 51 262 93 262 246 L262 602 Z M419 800 C368 800 337 837 337 887 C337 937 368 974 419 974 C470 974 501 937 501 887 C501 837 470 800 419 800 L419 800 Z M419 1020 C345 1020 285 963 285 887 C285 811 345 754 419 754 C493 754 553 811 553 887 C553 963 493 1020 419 1020 L419 1020 Z " />
<glyph glyph-name="uring" unicode="&#x16f;" horiz-adv-x="613" d="M519 191 C519 371 524 494 524 494 L438 487 L315 483 L315 446 L344 440 C381 433 386 416 386 385 L386 177 C386 104 363 67 307 67 C239 67 215 107 215 214 C215 281 214 437 220 494 L133 487 L17 483 L17 446 L40 440 C75 431 81 416 81 385 C81 385 80 240 80 155 C80 47 135 -15 237 -15 C317 -15 367 40 383 66 L392 64 L389 -8 L425 -8 C508 5 545 10 596 16 L596 51 C521 58 519 80 519 191 L519 191 Z M305 587 C254 587 223 624 223 674 C223 724 254 761 305 761 C356 761 387 724 387 674 C387 624 356 587 305 587 L305 587 Z M305 807 C231 807 171 750 171 674 C171 598 231 541 305 541 C379 541 439 598 439 674 C439 750 379 807 305 807 L305 807 Z " />
<glyph glyph-name="Uhungarumlaut" unicode="&#x170;" horiz-adv-x="842" d="M262 602 C262 634 274 644 310 651 L360 661 L360 705 L183 700 L19 705 L19 661 L71 651 C106 644 118 634 118 602 L118 240 C118 73 244 -15 421 -15 C605 -15 722 81 722 261 C722 261 724 521 724 602 C724 634 736 644 771 651 L823 661 L823 705 L693 700 L562 705 L562 661 L614 651 C649 644 661 634 661 602 C661 564 663 368 663 263 C663 166 612 51 453 51 C353 51 262 93 262 246 L262 602 Z M262 787 L308 781 L476 970 L318 970 L262 787 Z M452 787 L498 781 L666 970 L509 970 L452 787 Z " />
<glyph glyph-name="uhungarumlaut" unicode="&#x171;" horiz-adv-x="613" d="M519 191 C519 371 524 494 524 494 L438 487 L315 483 L315 446 L344 440 C381 433 386 416 386 385 L386 177 C386 104 363 67 307 67 C239 67 215 107 215 214 C215 281 214 437 220 494 L133 487 L17 483 L17 446 L40 440 C75 431 81 416 81 385 C81 385 80 240 80 155 C80 47 135 -15 237 -15 C317 -15 367 40 383 66 L392 64 L389 -8 L425 -8 C508 5 545 10 596 16 L596 51 C521 58 519 80 519 191 L519 191 Z M131 568 L177 562 L345 751 L187 751 L131 568 Z M321 568 L367 562 L535 751 L378 751 L321 568 Z " />
<glyph glyph-name="Uogonek" unicode="&#x172;" horiz-adv-x="842" d="M262 602 C262 634 274 644 310 651 L360 661 L360 705 L183 700 L19 705 L19 661 L71 651 C106 644 118 634 118 602 L118 240 C118 73 244 -15 420 -15 C358 -50 311 -105 311 -164 C311 -234 370 -271 442 -271 C468 -271 518 -266 548 -256 L566 -222 C554 -224 542 -225 532 -225 C470 -225 428 -204 428 -143 C428 -85 464 -40 496 -9 C636 14 722 107 722 261 C722 261 724 521 724 602 C724 634 736 644 771 651 L823 661 L823 705 L693 700 L562 705 L562 661 L614 651 C649 644 661 634 661 602 C661 564 663 368 663 263 C663 166 612 51 453 51 C353 51 262 93 262 246 L262 602 Z " />
<glyph glyph-name="uogonek" unicode="&#x173;" horiz-adv-x="613" d="M519 191 C519 371 524 494 524 494 L438 487 L315 483 L315 446 L344 440 C381 433 386 416 386 385 L386 177 C386 104 363 67 307 67 C239 67 215 107 215 214 C215 281 214 437 220 494 L133 487 L17 483 L17 446 L40 440 C75 431 81 416 81 385 C81 385 80 240 80 155 C80 47 135 -15 237 -15 C317 -15 367 40 383 66 L392 64 L389 -8 L425 -8 L478 0 C401 -34 338 -95 338 -164 C338 -234 397 -271 469 -271 C495 -271 545 -266 575 -256 L593 -222 C581 -224 569 -225 559 -225 C497 -225 455 -204 455 -143 C455 -72 509 -22 542 9 L596 16 L596 51 C521 58 519 80 519 191 L519 191 Z " />
<glyph glyph-name="Wcircumflex" unicode="&#x174;" horiz-adv-x="1148" d="M846 -6 C846 -6 983 391 1061 604 C1072 633 1085 645 1115 651 L1163 661 L1163 705 L1062 700 L903 705 L903 661 L955 651 C984 645 1000 636 1000 618 C1000 614 999 609 997 603 L834 119 L687 534 C676 565 672 589 672 599 C672 633 693 644 717 649 L774 661 L774 705 L586 700 L410 705 L410 661 L458 651 C488 645 499 633 509 603 L546 488 L400 118 C377 192 301 428 244 602 C242 608 241 614 241 619 C241 637 258 645 287 651 L339 661 L339 705 L154 700 L-15 705 L-15 661 L33 651 C61 645 74 632 84 603 C169 362 294 -16 295 -16 L406 -6 C406 -6 517 285 572 419 L732 -16 L846 -6 Z M428 780 L454 762 L597 855 L599 855 L746 761 L768 780 L626 970 L568 970 L428 780 Z " />
<glyph glyph-name="wcircumflex" unicode="&#x175;" horiz-adv-x="789" d="M-5 492 L-5 455 L15 448 C45 437 51 428 61 400 C119 238 187 -6 187 -6 L255 -6 L386 352 C422 262 529 -6 529 -6 L595 -6 C595 -6 661 227 724 399 C734 429 741 435 776 448 L795 455 L795 492 L698 487 L597 492 L597 455 L623 449 C654 442 666 433 666 413 C666 408 664 395 660 379 C642 305 620 230 599 158 L469 482 L388 482 C360 401 307 259 271 164 L204 398 C202 405 201 412 201 416 C201 436 216 443 241 448 L275 455 L275 492 L124 487 L-5 492 Z M246 567 L272 549 L415 642 L417 642 L564 548 L586 567 L444 757 L386 757 L246 567 Z " />
<glyph glyph-name="Ycircumflex" unicode="&#x176;" horiz-adv-x="711" d="M536 39 L484 49 C448 56 440 65 439 96 C438 128 436 184 436 223 C436 229 437 272 437 272 C437 272 511 409 624 604 C640 631 651 645 681 651 L726 661 L726 705 L625 700 L464 705 L464 661 L516 651 C552 644 567 627 553 600 C488 474 435 375 414 338 C414 338 355 442 264 602 C250 628 264 644 299 651 L353 661 L353 705 L161 700 L-15 705 L-15 661 L27 651 C59 644 70 629 86 603 C178 456 289 267 289 267 L289 223 C289 184 289 128 287 96 C286 65 278 56 242 49 L191 39 L191 -5 L374 0 L536 -5 L536 39 Z M187 780 L213 762 L356 855 L358 855 L505 761 L527 780 L385 970 L327 970 L187 780 Z " />
<glyph glyph-name="ycircumflex" unicode="&#x177;" horiz-adv-x="550" d="M101 -263 L210 -273 L487 396 C499 425 504 436 538 448 L558 455 L558 492 L460 487 L360 492 L360 455 L384 448 C411 440 429 433 429 415 C429 411 428 404 426 398 C395 307 330 139 318 110 L215 398 C212 406 211 412 211 418 C211 435 225 442 251 448 L282 455 L282 492 L134 487 L-7 492 L-7 455 L13 448 C41 438 46 435 60 400 C118 258 203 27 216 -6 L263 -6 L101 -263 Z M102 567 L128 549 L271 642 L273 642 L420 548 L442 567 L300 757 L242 757 L102 567 Z " />
<glyph glyph-name="Ydieresis" unicode="&#x178;" horiz-adv-x="711" d="M536 39 L484 49 C448 56 440 65 439 96 C438 128 436 184 436 223 C436 229 437 272 437 272 C437 272 511 409 624 604 C640 631 651 645 681 651 L726 661 L726 705 L625 700 L464 705 L464 661 L516 651 C552 644 567 627 553 600 C488 474 435 375 414 338 C414 338 355 442 264 602 C250 628 264 644 299 651 L353 661 L353 705 L161 700 L-15 705 L-15 661 L27 651 C59 644 70 629 86 603 C178 456 289 267 289 267 L289 223 C289 184 289 128 287 96 C286 65 278 56 242 49 L191 39 L191 -5 L374 0 L536 -5 L536 39 Z M378 863 C378 819 413 784 457 784 C501 784 536 819 536 863 C536 907 501 942 457 942 C413 942 378 907 378 863 L378 863 Z M179 863 C179 819 214 784 258 784 C302 784 337 819 337 863 C337 907 302 942 258 942 C214 942 179 907 179 863 L179 863 Z " />
<glyph glyph-name="Zacute" unicode="&#x179;" horiz-adv-x="707" d="M465 646 C200 259 41 38 41 38 L41 -4 L162 0 L453 0 C511 0 641 -5 641 -5 L674 212 L634 212 L589 126 C552 55 517 53 469 53 L241 53 C228 53 228 63 232 69 C420 345 641 661 641 661 L641 704 C641 704 571 700 496 700 L192 700 C135 699 48 711 48 711 L56 508 L98 508 L110 557 C126 620 144 646 183 646 L465 646 Z M262 786 L309 780 L499 969 L326 969 L262 786 Z " />
<glyph glyph-name="zacute" unicode="&#x17a;" horiz-adv-x="530" d="M170 0 C256 0 455 -3 480 -5 L497 175 L455 175 C424 61 388 45 339 45 L192 45 C291 184 389 321 490 460 L485 492 L230 492 C193 492 117 492 50 495 L50 328 L91 326 L101 360 C118 419 127 446 213 446 L323 446 L25 36 L25 -3 C41 -2 108 0 170 0 L170 0 Z M177 568 L224 562 L414 751 L241 751 L177 568 Z " />
<glyph glyph-name="Zdotaccent" unicode="&#x17b;" horiz-adv-x="707" d="M465 646 C200 259 41 38 41 38 L41 -4 L162 0 L453 0 C511 0 641 -5 641 -5 L674 212 L634 212 L589 126 C552 55 517 53 469 53 L241 53 C228 53 228 63 232 69 C420 345 641 661 641 661 L641 704 C641 704 571 700 496 700 L192 700 C135 699 48 711 48 711 L56 508 L98 508 L110 557 C126 620 144 646 183 646 L465 646 Z M259 864 C259 815 299 775 348 775 C397 775 438 815 438 864 C438 913 397 954 348 954 C299 954 259 913 259 864 L259 864 Z " />
<glyph glyph-name="zdotaccent" unicode="&#x17c;" horiz-adv-x="530" d="M170 0 C256 0 455 -3 480 -5 L497 175 L455 175 C424 61 388 45 339 45 L192 45 C291 184 389 321 490 460 L485 492 L230 492 C193 492 117 492 50 495 L50 328 L91 326 L101 360 C118 419 127 446 213 446 L323 446 L25 36 L25 -3 C41 -2 108 0 170 0 L170 0 Z M175 657 C175 608 215 568 264 568 C313 568 354 608 354 657 C354 706 313 747 264 747 C215 747 175 706 175 657 L175 657 Z " />
<glyph glyph-name="Zcaron" unicode="&#x17d;" horiz-adv-x="707" d="M465 646 C200 259 41 38 41 38 L41 -4 L162 0 L453 0 C511 0 641 -5 641 -5 L674 212 L634 212 L589 126 C552 55 517 53 469 53 L241 53 C228 53 228 63 232 69 C420 345 641 661 641 661 L641 704 C641 704 571 700 496 700 L192 700 C135 699 48 711 48 711 L56 508 L98 508 L110 557 C126 620 144 646 183 646 L465 646 Z M320 767 L378 767 L520 956 L498 976 L351 881 L349 881 L206 975 L180 956 L320 767 Z " />
<glyph glyph-name="zcaron" unicode="&#x17e;" horiz-adv-x="530" d="M170 0 C256 0 455 -3 480 -5 L497 175 L455 175 C424 61 388 45 339 45 L192 45 C291 184 389 321 490 460 L485 492 L230 492 C193 492 117 492 50 495 L50 328 L91 326 L101 360 C118 419 127 446 213 446 L323 446 L25 36 L25 -3 C41 -2 108 0 170 0 L170 0 Z M226 549 L284 549 L426 738 L404 758 L257 663 L255 663 L112 757 L86 738 L226 549 Z " />
<glyph glyph-name="longs" unicode="&#x17f;" horiz-adv-x="372" d="M240 480 C240 559 242 615 254 651 C266 686 288 699 311 699 C360 699 394 622 404 622 C450 622 499 668 499 714 C499 758 413 767 376 767 C245 767 111 687 107 480 L27 480 L27 429 L107 429 L107 86 C107 55 95 47 59 38 L30 31 L30 -5 L176 0 L335 -5 L335 31 L283 41 C248 48 240 61 240 92 L240 480 Z " />
<glyph glyph-name="florin" unicode="&#x192;" horiz-adv-x="366" d="M110 28 C110 -128 92 -189 42 -189 C-6 -189 -41 -111 -50 -111 C-97 -111 -146 -159 -146 -206 C-146 -250 -65 -259 -27 -259 C103 -259 243 -179 243 27 L243 305 L347 288 L355 359 L243 352 L243 480 C243 637 256 698 311 698 C360 698 394 620 404 620 C451 620 500 668 500 714 C500 758 418 767 381 767 C250 767 110 688 110 481 L110 353 L11 353 L11 304 L110 304 L110 28 Z " />
<glyph glyph-name="Scommaaccent" unicode="&#x218;" horiz-adv-x="609" d="M146 111 C113 186 103 231 103 231 L53 226 C59 124 59 35 59 22 C98 11 176 -15 285 -15 C444 -15 559 72 559 206 C559 437 201 403 201 561 C201 631 268 660 327 660 C401 660 429 644 438 620 C459 564 474 509 474 509 L517 509 C524 591 535 683 535 683 C523 688 413 715 324 715 C152 715 71 614 71 523 C71 273 427 330 427 156 C427 77 363 39 295 39 C227 39 167 62 146 111 L146 111 Z M212 -370 C299 -343 392 -265 392 -174 C392 -109 337 -65 293 -65 C256 -65 210 -108 203 -147 C262 -167 287 -200 287 -235 C287 -275 252 -318 188 -346 L212 -370 Z " />
<glyph glyph-name="scommaaccent" unicode="&#x219;" horiz-adv-x="452" d="M94 164 L46 163 C47 155 48 110 48 88 C48 43 46 13 46 13 C46 13 121 -15 212 -15 C329 -15 415 39 415 144 C415 311 170 283 170 394 C170 439 202 459 248 459 C278 459 307 445 316 421 L343 348 L387 349 C387 388 394 467 398 484 C362 496 284 504 235 504 C139 504 46 459 46 353 C46 187 296 215 296 99 C296 63 269 29 212 29 C167 29 138 54 125 87 L94 164 Z M147 -370 C234 -343 327 -265 327 -174 C327 -109 272 -65 228 -65 C191 -65 145 -108 138 -147 C197 -167 222 -200 222 -235 C222 -275 187 -318 123 -346 L147 -370 Z " />
<glyph glyph-name="uni021A" unicode="&#x21a;" horiz-adv-x="727" d="M363 698 L178 700 C95 701 29 710 29 711 C29 711 28 591 20 500 L65 500 C98 610 111 643 168 644 L290 646 C290 646 292 514 292 349 C292 184 290 96 290 96 C290 66 277 56 242 49 L190 39 L190 -5 L364 0 L536 -5 L536 39 L483 49 C447 56 437 66 437 96 C437 96 435 184 435 349 C435 514 437 646 437 646 L559 644 C616 643 629 610 662 500 L707 500 C699 591 698 711 698 711 C698 710 632 701 549 700 L363 698 Z M266 -370 C353 -343 446 -265 446 -174 C446 -109 391 -65 347 -65 C310 -65 264 -108 257 -147 C316 -167 341 -200 341 -235 C341 -275 306 -318 242 -346 L266 -370 Z " />
<glyph glyph-name="uni021B" unicode="&#x21b;" horiz-adv-x="400" d="M175 623 C154 538 118 489 5 480 L5 429 L92 429 L92 118 C92 32 151 -15 240 -15 C298 -15 366 12 392 62 L376 94 C362 76 324 59 299 59 C249 59 226 89 226 151 L226 429 L370 417 L377 485 L226 480 L226 623 L175 623 Z M121 -370 C208 -343 301 -265 301 -174 C301 -109 246 -65 202 -65 C165 -65 119 -108 112 -147 C171 -167 196 -200 196 -235 C196 -275 161 -318 97 -346 L121 -370 Z " />
<glyph glyph-name="dotlessj" unicode="&#x237;" horiz-adv-x="313" d="M221 340 C221 437 223 510 223 510 L182 510 L18 443 L18 421 L57 406 C83 396 88 373 88 304 L88 -65 C88 -149 66 -192 -4 -216 C2 -227 10 -237 16 -248 C26 -249 35 -249 45 -249 C161 -243 220 -180 220 -76 L220 0 L297 0 L297 36 L269 43 C233 52 221 61 221 92 L221 340 Z " />
<glyph glyph-name="apostrophe" unicode="&#x2bc;" horiz-adv-x="530" d="M171 343 C277 377 389 474 389 591 C389 672 323 728 270 728 C230 728 174 675 169 633 C169 631 170 626 171 625 C242 605 270 564 270 518 C270 469 238 413 154 373 L171 343 Z " />
<glyph glyph-name="circumflex" unicode="&#x2c6;" horiz-adv-x="415" d="M37 567 L63 549 L206 642 L208 642 L355 548 L377 567 L235 757 L177 757 L37 567 Z " />
<glyph glyph-name="caron" unicode="&#x2c7;" horiz-adv-x="415" d="M177 549 L235 549 L377 738 L355 758 L208 663 L206 663 L63 757 L37 738 L177 549 Z " />
<glyph glyph-name="uni02C9" unicode="&#x2c9;" horiz-adv-x="530" d="M425 579 L425 651 L104 651 L104 579 L425 579 Z " />
<glyph glyph-name="breve" unicode="&#x2d8;" horiz-adv-x="415" d="M206 665 C112 665 104 714 104 758 L104 763 L57 763 L57 724 C57 628 110 559 206 559 C304 559 357 628 357 724 L357 763 L309 763 L309 758 C309 714 302 665 206 665 L206 665 Z " />
<glyph glyph-name="dotaccent" unicode="&#x2d9;" horiz-adv-x="415" d="M118 657 C118 608 158 568 207 568 C256 568 297 608 297 657 C297 706 256 747 207 747 C158 747 118 706 118 657 L118 657 Z " />
<glyph glyph-name="ring" unicode="&#x2da;" horiz-adv-x="415" d="M207 587 C156 587 125 624 125 674 C125 724 156 761 207 761 C258 761 289 724 289 674 C289 624 258 587 207 587 L207 587 Z M207 807 C133 807 73 750 73 674 C73 598 133 541 207 541 C281 541 341 598 341 674 C341 750 281 807 207 807 L207 807 Z " />
<glyph glyph-name="ogonek" unicode="&#x2db;" horiz-adv-x="415" d="M285 21 C184 -3 84 -78 84 -164 C84 -234 143 -271 215 -271 C241 -271 291 -266 321 -256 L339 -222 C327 -224 315 -225 305 -225 C243 -225 201 -204 201 -143 C201 -71 257 -20 290 11 L285 21 Z " />
<glyph glyph-name="tilde" unicode="&#x2dc;" horiz-adv-x="415" d="M295 668 C266 668 195 711 151 711 C85 711 44 637 32 584 L62 573 C81 608 100 612 127 612 C156 612 223 572 262 572 C334 572 369 644 382 697 L353 709 C334 672 325 668 295 668 L295 668 Z " />
<glyph glyph-name="hungarumlaut" unicode="&#x2dd;" horiz-adv-x="415" d="M5 568 L51 562 L219 751 L61 751 L5 568 Z M195 568 L241 562 L409 751 L252 751 L195 568 Z " />
<glyph glyph-name="&amp;#x394;" unicode="&#x394;" horiz-adv-x="822" d="M29 0 L794 0 L794 45 L484 718 L337 718 L28 44 L29 0 Z M630 48 L83 48 L357 652 L630 48 Z " />
<glyph glyph-name="&amp;#x2206;" unicode="&#x2206;" horiz-adv-x="822" d="M29 0 L794 0 L794 45 L484 718 L337 718 L28 44 L29 0 Z M630 48 L83 48 L357 652 L630 48 Z " />
<glyph glyph-name="&amp;#x3a9;" unicode="&#x3a9;" horiz-adv-x="797" d="M398 660 C511 660 594 612 594 429 C594 261 535 221 470 203 L470 -3 C484 -2 530 0 563 0 L656 0 C673 0 702 -2 702 -2 L710 178 L674 178 L663 141 C650 96 623 96 602 96 L560 96 C526 96 518 108 518 135 L518 171 C666 195 744 308 744 431 C744 599 596 715 398 715 C199 715 52 599 52 431 C52 308 130 195 278 171 L278 135 C278 108 270 96 236 96 L194 96 C172 96 146 97 133 141 L122 178 L86 178 L94 -2 C94 -2 123 0 140 0 L233 0 C267 0 312 -2 326 -3 L326 203 C261 221 202 261 202 429 C202 612 284 660 398 660 L398 660 Z " />
<glyph glyph-name="&amp;#x2126;" unicode="&#x2126;" horiz-adv-x="797" d="M398 660 C511 660 594 612 594 429 C594 261 535 221 470 203 L470 -3 C484 -2 530 0 563 0 L656 0 C673 0 702 -2 702 -2 L710 178 L674 178 L663 141 C650 96 623 96 602 96 L560 96 C526 96 518 108 518 135 L518 171 C666 195 744 308 744 431 C744 599 596 715 398 715 C199 715 52 599 52 431 C52 308 130 195 278 171 L278 135 C278 108 270 96 236 96 L194 96 C172 96 146 97 133 141 L122 178 L86 178 L94 -2 C94 -2 123 0 140 0 L233 0 C267 0 312 -2 326 -3 L326 203 C261 221 202 261 202 429 C202 612 284 660 398 660 L398 660 Z " />
<glyph glyph-name="pi" unicode="&#x3c0;" horiz-adv-x="914" d="M33 352 C33 115 218 -68 456 -68 C695 -68 880 115 880 352 C880 588 695 772 456 772 C218 772 33 588 33 352 L33 352 Z M99 352 C99 557 256 714 456 714 C656 714 814 557 814 352 C814 146 656 -10 456 -10 C256 -10 99 146 99 352 L99 352 Z M490 134 L450 141 C429 146 421 155 420 171 C420 171 418 236 418 348 C418 461 419 554 419 554 C419 558 420 561 428 561 L473 561 C531 561 573 524 573 457 C573 381 528 342 469 342 C464 342 451 344 451 344 L451 309 C451 309 474 304 491 304 C625 304 673 388 673 459 C673 564 587 599 519 599 C477 599 413 593 407 592 L253 594 L253 564 L293 556 C312 552 321 545 323 527 C323 527 325 461 325 348 C325 249 323 183 323 171 C322 155 313 146 293 141 L253 134 L253 103 L372 106 L490 103 L490 134 Z " />
<glyph glyph-name="Wgrave" unicode="&#x1e80;" horiz-adv-x="1148" d="M846 -6 C846 -6 983 391 1061 604 C1072 633 1085 645 1115 651 L1163 661 L1163 705 L1062 700 L903 705 L903 661 L955 651 C984 645 1000 636 1000 618 C1000 614 999 609 997 603 L834 119 L687 534 C676 565 672 589 672 599 C672 633 693 644 717 649 L774 661 L774 705 L586 700 L410 705 L410 661 L458 651 C488 645 499 633 509 603 L546 488 L400 118 C377 192 301 428 244 602 C242 608 241 614 241 619 C241 637 258 645 287 651 L339 661 L339 705 L154 700 L-15 705 L-15 661 L33 651 C61 645 74 632 84 603 C169 362 294 -16 295 -16 L406 -6 C406 -6 517 285 572 419 L732 -16 L846 -6 Z M608 963 L435 963 L625 774 L671 780 L608 963 Z " />
<glyph glyph-name="wgrave" unicode="&#x1e81;" horiz-adv-x="789" d="M-5 492 L-5 455 L15 448 C45 437 51 428 61 400 C119 238 187 -6 187 -6 L255 -6 L386 352 C422 262 529 -6 529 -6 L595 -6 C595 -6 661 227 724 399 C734 429 741 435 776 448 L795 455 L795 492 L698 487 L597 492 L597 455 L623 449 C654 442 666 433 666 413 C666 408 664 395 660 379 C642 305 620 230 599 158 L469 482 L388 482 C360 401 307 259 271 164 L204 398 C202 405 201 412 201 416 C201 436 216 443 241 448 L275 455 L275 492 L124 487 L-5 492 Z M456 751 L283 751 L473 562 L519 568 L456 751 Z " />
<glyph glyph-name="Wacute" unicode="&#x1e82;" horiz-adv-x="1148" d="M846 -6 C846 -6 983 391 1061 604 C1072 633 1085 645 1115 651 L1163 661 L1163 705 L1062 700 L903 705 L903 661 L955 651 C984 645 1000 636 1000 618 C1000 614 999 609 997 603 L834 119 L687 534 C676 565 672 589 672 599 C672 633 693 644 717 649 L774 661 L774 705 L586 700 L410 705 L410 661 L458 651 C488 645 499 633 509 603 L546 488 L400 118 C377 192 301 428 244 602 C242 608 241 614 241 619 C241 637 258 645 287 651 L339 661 L339 705 L154 700 L-15 705 L-15 661 L33 651 C61 645 74 632 84 603 C169 362 294 -16 295 -16 L406 -6 C406 -6 517 285 572 419 L732 -16 L846 -6 Z M486 780 L533 774 L723 963 L550 963 L486 780 Z " />
<glyph glyph-name="wacute" unicode="&#x1e83;" horiz-adv-x="789" d="M-5 492 L-5 455 L15 448 C45 437 51 428 61 400 C119 238 187 -6 187 -6 L255 -6 L386 352 C422 262 529 -6 529 -6 L595 -6 C595 -6 661 227 724 399 C734 429 741 435 776 448 L795 455 L795 492 L698 487 L597 492 L597 455 L623 449 C654 442 666 433 666 413 C666 408 664 395 660 379 C642 305 620 230 599 158 L469 482 L388 482 C360 401 307 259 271 164 L204 398 C202 405 201 412 201 416 C201 436 216 443 241 448 L275 455 L275 492 L124 487 L-5 492 Z M316 568 L363 562 L553 751 L380 751 L316 568 Z " />
<glyph glyph-name="Wdieresis" unicode="&#x1e84;" horiz-adv-x="1148" d="M846 -6 C846 -6 983 391 1061 604 C1072 633 1085 645 1115 651 L1163 661 L1163 705 L1062 700 L903 705 L903 661 L955 651 C984 645 1000 636 1000 618 C1000 614 999 609 997 603 L834 119 L687 534 C676 565 672 589 672 599 C672 633 693 644 717 649 L774 661 L774 705 L586 700 L410 705 L410 661 L458 651 C488 645 499 633 509 603 L546 488 L400 118 C377 192 301 428 244 602 C242 608 241 614 241 619 C241 637 258 645 287 651 L339 661 L339 705 L154 700 L-15 705 L-15 661 L33 651 C61 645 74 632 84 603 C169 362 294 -16 295 -16 L406 -6 C406 -6 517 285 572 419 L732 -16 L846 -6 Z M414 862 C414 818 449 783 493 783 C537 783 572 818 572 862 C572 906 537 941 493 941 C449 941 414 906 414 862 L414 862 Z M613 862 C613 818 648 783 692 783 C736 783 771 818 771 862 C771 906 736 941 692 941 C648 941 613 906 613 862 L613 862 Z " />
<glyph glyph-name="wdieresis" unicode="&#x1e85;" horiz-adv-x="789" d="M-5 492 L-5 455 L15 448 C45 437 51 428 61 400 C119 238 187 -6 187 -6 L255 -6 L386 352 C422 262 529 -6 529 -6 L595 -6 C595 -6 661 227 724 399 C734 429 741 435 776 448 L795 455 L795 492 L698 487 L597 492 L597 455 L623 449 C654 442 666 433 666 413 C666 408 664 395 660 379 C642 305 620 230 599 158 L469 482 L388 482 C360 401 307 259 271 164 L204 398 C202 405 201 412 201 416 C201 436 216 443 241 448 L275 455 L275 492 L124 487 L-5 492 Z M434 650 C434 606 469 571 513 571 C557 571 592 606 592 650 C592 694 557 729 513 729 C469 729 434 694 434 650 L434 650 Z M235 650 C235 606 270 571 314 571 C358 571 393 606 393 650 C393 694 358 729 314 729 C270 729 235 694 235 650 L235 650 Z " />
<glyph glyph-name="Ygrave" unicode="&#x1ef2;" horiz-adv-x="711" d="M536 39 L484 49 C448 56 440 65 439 96 C438 128 436 184 436 223 C436 229 437 272 437 272 C437 272 511 409 624 604 C640 631 651 645 681 651 L726 661 L726 705 L625 700 L464 705 L464 661 L516 651 C552 644 567 627 553 600 C488 474 435 375 414 338 C414 338 355 442 264 602 C250 628 264 644 299 651 L353 661 L353 705 L161 700 L-15 705 L-15 661 L27 651 C59 644 70 629 86 603 C178 456 289 267 289 267 L289 223 C289 184 289 128 287 96 C286 65 278 56 242 49 L191 39 L191 -5 L374 0 L536 -5 L536 39 Z M401 963 L228 963 L418 774 L464 780 L401 963 Z " />
<glyph glyph-name="ygrave" unicode="&#x1ef3;" horiz-adv-x="550" d="M101 -263 L210 -273 L487 396 C499 425 504 436 538 448 L558 455 L558 492 L460 487 L360 492 L360 455 L384 448 C411 440 429 433 429 415 C429 411 428 404 426 398 C395 307 330 139 318 110 L215 398 C212 406 211 412 211 418 C211 435 225 442 251 448 L282 455 L282 492 L134 487 L-7 492 L-7 455 L13 448 C41 438 46 435 60 400 C118 258 203 27 216 -6 L263 -6 L101 -263 Z M305 751 L132 751 L322 562 L368 568 L305 751 Z " />
<glyph glyph-name="endash" unicode="&#x2013;" horiz-adv-x="724" d="M662 292 L662 357 L62 357 L62 292 L662 292 Z " />
<glyph glyph-name="emdash" unicode="&#x2014;" horiz-adv-x="1250" d="M1188 292 L1188 357 L62 357 L62 292 L1188 292 Z " />
<glyph glyph-name="quoteleft" unicode="&#x2018;" horiz-adv-x="294" d="M257 750 C151 716 39 619 39 502 C39 421 105 365 158 365 C198 365 254 418 259 460 C259 462 258 467 257 468 C186 488 158 529 158 575 C158 624 190 680 274 720 L257 750 Z " />
<glyph glyph-name="quoteright" unicode="&#x2019;" horiz-adv-x="311" d="M62 343 C168 377 280 474 280 591 C280 672 214 728 161 728 C121 728 65 675 60 633 C60 631 61 626 62 625 C133 605 161 564 161 518 C161 469 129 413 45 373 L62 343 Z " />
<glyph glyph-name="quotesinglbase" unicode="&#x201a;" horiz-adv-x="302" d="M40 -195 C146 -161 258 -64 258 53 C258 134 192 190 139 190 C99 190 43 137 38 95 C38 93 39 88 40 87 C111 67 139 26 139 -20 C139 -69 107 -125 23 -165 L40 -195 Z " />
<glyph glyph-name="quotedblleft" unicode="&#x201c;" horiz-adv-x="544" d="M231 750 C125 716 13 619 13 502 C13 421 79 365 132 365 C172 365 228 418 233 460 C233 462 232 467 231 468 C160 488 132 529 132 575 C132 624 164 680 248 720 L231 750 Z M496 750 C390 716 278 619 278 502 C278 421 344 365 397 365 C437 365 493 418 498 460 C498 462 497 467 496 468 C425 488 397 529 397 575 C397 624 429 680 513 720 L496 750 Z " />
<glyph glyph-name="quotedblright" unicode="&#x201d;" horiz-adv-x="563" d="M307 343 C413 377 525 474 525 591 C525 672 459 728 406 728 C366 728 310 675 305 633 C305 631 306 626 307 625 C378 605 406 564 406 518 C406 469 374 413 290 373 L307 343 Z M43 343 C149 377 261 474 261 591 C261 672 195 728 142 728 C102 728 46 675 41 633 C41 631 42 626 43 625 C114 605 142 564 142 518 C142 469 110 413 26 373 L43 343 Z " />
<glyph glyph-name="quotedblbase" unicode="&#x201e;" horiz-adv-x="554" d="M295 -195 C401 -161 513 -64 513 53 C513 134 447 190 394 190 C354 190 298 137 293 95 C293 93 294 88 295 87 C366 67 394 26 394 -20 C394 -69 362 -125 278 -165 L295 -195 Z M31 -195 C137 -161 249 -64 249 53 C249 134 183 190 130 190 C90 190 34 137 29 95 C29 93 30 88 31 87 C102 67 130 26 130 -20 C130 -69 98 -125 14 -165 L31 -195 Z " />
<glyph glyph-name="dagger" unicode="&#x2020;" horiz-adv-x="529" d="M304 0 L304 402 L497 402 L497 479 L304 479 L304 706 L213 706 L213 479 L32 479 L32 402 L213 402 L213 0 L304 0 Z " />
<glyph glyph-name="daggerdbl" unicode="&#x2021;" horiz-adv-x="548" d="M506 402 L506 479 L314 479 L314 706 L223 706 L223 479 L41 479 L41 402 L223 402 L223 77 L41 77 L41 0 L223 0 L223 -234 L314 -234 L314 0 L506 0 L506 77 L314 77 L314 402 L506 402 Z " />
<glyph glyph-name="bullet" unicode="&#x2022;" horiz-adv-x="373" d="M54 347 C54 274 113 215 186 215 C259 215 318 274 318 347 C318 420 259 479 186 479 C113 479 54 420 54 347 L54 347 Z " />
<glyph glyph-name="ellipsis" unicode="&#x2026;" horiz-adv-x="928" d="M46 81 C46 28 89 -15 142 -15 C195 -15 238 28 238 81 C238 133 195 177 142 177 C89 177 46 133 46 81 L46 81 Z M368 81 C368 28 411 -15 464 -15 C517 -15 560 28 560 81 C560 133 517 177 464 177 C411 177 368 133 368 81 L368 81 Z M690 81 C690 28 733 -15 786 -15 C839 -15 882 28 882 81 C882 133 839 177 786 177 C733 177 690 133 690 81 L690 81 Z " />
<glyph glyph-name="perthousand" unicode="&#x2030;" horiz-adv-x="1176" d="M981 350 C892 350 817 265 817 168 C817 70 892 -14 981 -14 C1070 -14 1144 70 1144 168 C1144 265 1070 350 981 350 L981 350 Z M981 26 C929 26 926 96 926 168 C926 239 929 311 981 311 C1032 311 1035 239 1035 168 C1035 96 1032 26 981 26 L981 26 Z M732 681 L696 713 L75 16 L111 -17 L732 681 Z M209 709 C121 709 46 625 46 527 C46 430 121 344 209 344 C297 344 372 430 372 527 C372 625 297 709 209 709 L209 709 Z M209 385 C157 385 154 455 154 527 C154 598 157 670 209 670 C261 670 264 598 264 527 C264 455 261 385 209 385 L209 385 Z M598 350 C509 350 434 265 434 168 C434 70 509 -14 598 -14 C687 -14 762 70 762 168 C762 265 687 350 598 350 L598 350 Z M598 26 C546 26 543 96 543 168 C543 239 546 311 598 311 C649 311 652 239 652 168 C652 96 649 26 598 26 L598 26 Z " />
<glyph glyph-name="guilsinglleft" unicode="&#x2039;" horiz-adv-x="376" d="M204 361 L332 637 L284 637 L31 355 L284 73 L332 73 L204 349 L204 361 Z " />
<glyph glyph-name="guilsinglright" unicode="&#x203a;" horiz-adv-x="376" d="M171 349 L44 73 L91 73 L344 355 L91 637 L44 637 L171 361 L171 349 Z " />
<glyph glyph-name="fraction" unicode="&#x2044;" horiz-adv-x="270" d="M-193 19 L-161 -9 L461 694 L431 722 L-193 19 Z " />
<glyph glyph-name="zerosuperior" unicode="&#x2070;" horiz-adv-x="375" d="M188 718 C82 718 24 621 24 509 C24 397 82 298 188 298 C294 298 350 397 350 509 C350 621 294 718 188 718 L188 718 Z M188 337 C151 337 121 380 121 509 C121 640 151 678 188 678 C225 678 254 640 254 509 C254 380 225 337 188 337 L188 337 Z " />
<glyph glyph-name="foursuperior" unicode="&#x2074;" horiz-adv-x="375" d="M148 307 L247 310 L348 307 L348 341 L308 351 C299 353 295 357 295 368 L295 410 L351 410 L351 463 L295 463 L297 564 L196 562 C197 548 202 487 202 463 L74 463 C135 548 281 739 281 739 L198 740 C105 613 21 480 13 465 L13 410 L202 410 L202 368 C202 357 198 353 188 351 L148 342 L148 307 Z " />
<glyph glyph-name="fivesuperior" unicode="&#x2075;" horiz-adv-x="375" d="M153 337 C142 337 128 338 128 342 L128 412 L105 427 C67 427 31 400 31 369 C31 329 64 298 152 298 C248 298 334 357 334 449 C334 550 242 585 144 585 C130 585 116 584 111 584 L112 639 L199 639 C249 639 297 639 327 643 L330 722 C330 722 126 716 63 716 L60 499 C85 504 110 505 125 505 C185 505 247 489 247 422 C247 370 201 337 153 337 L153 337 Z " />
<glyph glyph-name="sixsuperior" unicode="&#x2076;" horiz-adv-x="375" d="M191 298 C285 298 353 356 353 442 C353 526 293 577 217 577 C175 577 141 555 129 542 L123 546 C164 628 260 688 328 714 L312 746 C141 706 25 608 25 466 C25 379 83 298 191 298 L191 298 Z M126 442 C126 487 148 527 192 527 C234 527 258 484 258 430 C258 383 239 340 195 340 C147 340 126 399 126 442 L126 442 Z " />
<glyph glyph-name="sevensuperior" unicode="&#x2077;" horiz-adv-x="375" d="M192 309 C225 455 348 670 348 670 L348 716 L38 716 L38 631 L174 631 C217 631 250 636 277 643 L280 637 C216 565 116 431 73 301 L192 309 Z " />
<glyph glyph-name="eightsuperior" unicode="&#x2078;" horiz-adv-x="375" d="M131 628 C131 660 156 681 192 681 C235 681 254 651 254 622 C254 596 238 569 207 555 C165 575 131 594 131 628 L131 628 Z M253 399 C253 355 217 340 185 340 C150 340 114 365 114 409 C114 440 132 470 159 485 C213 462 253 443 253 399 L253 399 Z M28 410 C28 353 74 298 184 298 C288 298 345 361 345 419 C345 473 309 510 251 533 C307 548 335 582 335 618 C335 681 277 720 194 720 C104 720 39 677 39 611 C39 567 69 527 122 510 C78 496 28 465 28 410 L28 410 Z " />
<glyph glyph-name="ninesuperior" unicode="&#x2079;" horiz-adv-x="375" d="M184 718 C90 718 22 660 22 574 C22 490 82 439 158 439 C200 439 234 461 246 474 L252 470 C211 388 115 328 47 302 L63 270 C234 310 350 408 350 550 C350 637 292 718 184 718 L184 718 Z M249 574 C249 529 227 489 183 489 C141 489 117 532 117 586 C117 633 136 676 180 676 C228 676 249 617 249 574 L249 574 Z " />
<glyph glyph-name="zeroinferior" unicode="&#x2080;" horiz-adv-x="375" d="M188 412 C82 412 24 315 24 203 C24 91 82 -8 188 -8 C294 -8 350 91 350 203 C350 315 294 412 188 412 L188 412 Z M188 31 C151 31 121 74 121 203 C121 334 151 372 188 372 C225 372 254 334 254 203 C254 74 225 31 188 31 L188 31 Z " />
<glyph glyph-name="oneinferior" unicode="&#x2081;" horiz-adv-x="375" d="M317 -3 L317 37 L258 46 C250 47 249 52 249 58 L249 399 L190 399 C149 384 108 368 67 354 L67 310 L152 328 L152 58 C152 52 151 47 143 46 L74 37 L74 -3 L198 0 L317 -3 Z " />
<glyph glyph-name="twoinferior" unicode="&#x2082;" horiz-adv-x="375" d="M35 0 L154 0 C241 0 328 -1 328 -1 L337 82 L132 78 C136 81 199 135 247 171 C312 221 335 250 335 303 C335 372 265 411 187 411 C86 411 35 367 35 324 C35 292 70 267 109 266 L133 285 L133 355 C133 367 148 370 158 370 C209 370 237 331 237 289 C237 260 234 232 182 176 C139 131 35 44 35 44 L35 0 Z " />
<glyph glyph-name="threeinferior" unicode="&#x2083;" horiz-adv-x="375" d="M335 129 C335 188 291 223 235 229 L235 233 C295 249 315 284 315 317 C315 388 247 412 185 412 C127 412 68 387 41 360 L58 329 C82 346 119 360 153 360 C191 360 224 342 224 301 C224 240 151 233 98 232 L102 188 C108 189 129 190 152 190 C210 190 245 158 245 111 C245 66 210 31 157 31 C146 31 128 32 128 36 L128 106 L104 121 C66 121 31 93 31 63 C31 23 68 -8 154 -8 C247 -8 335 40 335 129 L335 129 Z " />
<glyph glyph-name="fourinferior" unicode="&#x2084;" horiz-adv-x="375" d="M147 -3 L246 0 L347 -3 L347 31 L307 41 C298 43 294 47 294 58 L294 100 L350 100 L350 153 L294 153 L296 254 L195 252 C196 238 201 177 201 153 L73 153 C134 238 280 429 280 429 L197 430 C104 303 20 170 12 155 L12 100 L201 100 L201 58 C201 47 197 43 187 41 L147 32 L147 -3 Z " />
<glyph glyph-name="fiveinferior" unicode="&#x2085;" horiz-adv-x="375" d="M153 31 C142 31 128 32 128 36 L128 106 L105 121 C67 121 31 94 31 63 C31 23 64 -8 152 -8 C248 -8 334 51 334 143 C334 244 242 279 144 279 C130 279 116 278 111 278 L112 333 L199 333 C249 333 297 333 327 337 L330 416 C330 416 126 410 63 410 L60 193 C85 198 110 199 125 199 C185 199 247 183 247 116 C247 64 201 31 153 31 L153 31 Z " />
<glyph glyph-name="sixinferior" unicode="&#x2086;" horiz-adv-x="375" d="M189 -8 C283 -8 351 50 351 136 C351 220 291 271 215 271 C173 271 139 249 127 236 L121 240 C162 322 258 382 326 408 L310 440 C139 400 23 302 23 160 C23 73 81 -8 189 -8 L189 -8 Z M124 136 C124 181 146 221 190 221 C232 221 256 178 256 124 C256 77 237 34 193 34 C145 34 124 93 124 136 L124 136 Z " />
<glyph glyph-name="seveninferior" unicode="&#x2087;" horiz-adv-x="375" d="M192 1 C225 147 348 362 348 362 L348 408 L38 408 L38 323 L174 323 C217 323 250 328 277 335 L280 329 C216 257 116 123 73 -7 L192 1 Z " />
<glyph glyph-name="eightinferior" unicode="&#x2088;" horiz-adv-x="375" d="M131 322 C131 354 156 375 192 375 C235 375 254 345 254 316 C254 290 238 263 207 249 C165 269 131 288 131 322 L131 322 Z M253 93 C253 49 217 34 185 34 C150 34 114 59 114 103 C114 134 132 164 159 179 C213 156 253 137 253 93 L253 93 Z M28 104 C28 47 74 -8 184 -8 C288 -8 345 55 345 113 C345 167 309 204 251 227 C307 242 335 276 335 312 C335 375 277 414 194 414 C104 414 39 371 39 305 C39 261 69 221 122 204 C78 190 28 159 28 104 L28 104 Z " />
<glyph glyph-name="nineinferior" unicode="&#x2089;" horiz-adv-x="375" d="M185 412 C91 412 23 354 23 268 C23 184 83 133 159 133 C201 133 235 155 247 168 L253 164 C212 82 116 22 48 -4 L64 -36 C235 4 351 102 351 244 C351 331 293 412 185 412 L185 412 Z M250 268 C250 223 228 183 184 183 C142 183 118 226 118 280 C118 327 137 370 181 370 C229 370 250 311 250 268 L250 268 Z " />
<glyph glyph-name="Euro" unicode="&#x20ac;" horiz-adv-x="590" d="M-4 454 L-4 407 L62 407 C60 386 59 366 59 346 C59 331 59 317 61 304 L-4 304 L-4 257 L65 257 C87 94 194 -15 354 -15 C462 -15 566 49 590 170 L551 184 C518 95 458 60 390 60 C295 60 235 126 215 257 L414 257 L414 304 L210 304 C209 324 208 346 208 367 C208 380 208 394 209 407 L414 407 L414 454 L212 454 C227 609 287 668 368 668 C469 668 500 610 521 499 L525 478 L566 478 L571 702 L510 677 C492 691 434 715 357 715 C194 715 96 597 70 454 L-4 454 Z " />
<glyph glyph-name="afii61289" unicode="&#x2113;" horiz-adv-x="426" d="M380 576 C380 662 333 715 245 715 C162 715 96 658 96 553 L96 278 C96 279 63 249 29 226 L46 178 C64 192 96 218 96 218 L96 154 C96 17 187 -15 255 -15 C317 -15 383 10 401 92 L366 109 C354 70 328 55 300 55 C267 55 238 77 238 133 L238 310 C316 382 380 469 380 576 L380 576 Z M237 594 C237 635 253 654 280 654 C309 654 331 630 331 579 C331 518 307 452 237 374 L237 594 Z " />
<glyph glyph-name="trademark" unicode="&#x2122;" horiz-adv-x="1198" d="M272 703 C196 703 85 704 56 710 C56 666 56 620 55 576 L90 576 L99 613 C107 645 119 656 139 656 L217 656 L217 349 C217 333 211 328 192 325 L156 320 L156 277 L265 279 L387 277 L387 320 L349 325 C331 327 325 333 325 349 L325 656 L403 656 C423 656 435 645 443 613 L452 576 L487 576 C486 620 486 666 486 710 C458 704 347 703 272 703 L272 703 Z M975 349 C975 333 969 328 950 325 L915 320 L915 277 L1025 279 L1142 277 L1142 320 L1107 325 C1089 327 1083 333 1083 349 L1076 634 C1075 650 1082 656 1100 659 L1135 664 L1135 707 L993 704 L934 707 L934 689 C905 596 875 502 845 409 C845 409 776 595 743 707 L639 704 L542 707 L542 664 L569 659 C587 656 593 649 593 634 L590 349 C590 333 584 328 566 325 L533 320 L533 277 L620 279 L705 277 L705 320 L670 325 C651 328 645 333 645 349 L642 648 L775 281 L850 281 L969 648 L975 349 Z " />
<glyph glyph-name="estimated" unicode="&#x212e;" horiz-adv-x="926" d="M895 351 C894 575 730 754 471 754 C234 754 48 580 48 368 C48 151 240 -22 471 -22 C609 -22 730 39 815 143 L745 143 C677 68 577 26 471 26 C372 26 220 80 220 165 L220 351 L895 351 Z M220 577 C220 663 388 706 471 706 C561 706 723 663 723 577 L723 400 L220 400 L220 577 Z " />
<glyph glyph-name="onethird" unicode="&#x2153;" horiz-adv-x="1020" d="M186 19 L218 -9 L840 694 L810 722 L186 19 Z M337 307 L337 347 L278 356 C270 357 269 362 269 368 L269 709 L210 709 C169 694 128 678 87 664 L87 620 L172 638 L172 368 C172 362 171 357 163 356 L94 347 L94 307 L218 310 L337 307 Z M940 128 C940 187 896 222 840 228 L840 232 C900 248 920 283 920 316 C920 387 852 411 790 411 C732 411 673 386 646 359 L663 328 C687 345 724 359 758 359 C796 359 829 341 829 300 C829 239 756 232 703 231 L707 187 C713 188 734 189 757 189 C815 189 850 157 850 110 C850 65 815 30 762 30 C751 30 733 31 733 35 L733 105 L709 120 C671 120 636 92 636 62 C636 22 673 -9 759 -9 C852 -9 940 39 940 128 L940 128 Z " />
<glyph glyph-name="twothirds" unicode="&#x2154;" horiz-adv-x="1020" d="M186 19 L218 -9 L840 694 L810 722 L186 19 Z M80 307 L199 307 C286 307 373 306 373 306 L382 389 L177 385 C181 388 244 442 292 478 C357 528 380 557 380 610 C380 679 310 718 232 718 C131 718 80 674 80 631 C80 599 115 574 154 573 L178 592 L178 662 C178 674 193 677 203 677 C254 677 282 638 282 596 C282 567 279 539 227 483 C184 438 80 351 80 351 L80 307 Z M940 128 C940 187 896 222 840 228 L840 232 C900 248 920 283 920 316 C920 387 852 411 790 411 C732 411 673 386 646 359 L663 328 C687 345 724 359 758 359 C796 359 829 341 829 300 C829 239 756 232 703 231 L707 187 C713 188 734 189 757 189 C815 189 850 157 850 110 C850 65 815 30 762 30 C751 30 733 31 733 35 L733 105 L709 120 C671 120 636 92 636 62 C636 22 673 -9 759 -9 C852 -9 940 39 940 128 L940 128 Z " />
<glyph glyph-name="oneeighth" unicode="&#x215b;" horiz-adv-x="1020" d="M186 19 L218 -9 L840 694 L810 722 L186 19 Z M337 307 L337 347 L278 356 C270 357 269 362 269 368 L269 709 L210 709 C169 694 128 678 87 664 L87 620 L172 638 L172 368 C172 362 171 357 163 356 L94 347 L94 307 L218 310 L337 307 Z M727 321 C727 353 752 374 788 374 C831 374 850 344 850 315 C850 289 834 262 803 248 C761 268 727 287 727 321 L727 321 Z M849 92 C849 48 813 33 781 33 C746 33 710 58 710 102 C710 133 728 163 755 178 C809 155 849 136 849 92 L849 92 Z M624 103 C624 46 670 -9 780 -9 C884 -9 941 54 941 112 C941 166 905 203 847 226 C903 241 931 275 931 311 C931 374 873 413 790 413 C700 413 635 370 635 304 C635 260 665 220 718 203 C674 189 624 158 624 103 L624 103 Z " />
<glyph glyph-name="threeeighths" unicode="&#x215c;" horiz-adv-x="1020" d="M186 19 L218 -9 L840 694 L810 722 L186 19 Z M727 321 C727 353 752 374 788 374 C831 374 850 344 850 315 C850 289 834 262 803 248 C761 268 727 287 727 321 L727 321 Z M849 92 C849 48 813 33 781 33 C746 33 710 58 710 102 C710 133 728 163 755 178 C809 155 849 136 849 92 L849 92 Z M624 103 C624 46 670 -9 780 -9 C884 -9 941 54 941 112 C941 166 905 203 847 226 C903 241 931 275 931 311 C931 374 873 413 790 413 C700 413 635 370 635 304 C635 260 665 220 718 203 C674 189 624 158 624 103 L624 103 Z M388 435 C388 494 344 529 288 535 L288 539 C348 555 368 590 368 623 C368 694 300 718 238 718 C180 718 121 693 94 666 L111 635 C135 652 172 666 206 666 C244 666 277 648 277 607 C277 546 204 539 151 538 L155 494 C161 495 182 496 205 496 C263 496 298 464 298 417 C298 372 263 337 210 337 C199 337 181 338 181 342 L181 412 L157 427 C119 427 84 399 84 369 C84 329 121 298 207 298 C300 298 388 346 388 435 L388 435 Z " />
<glyph glyph-name="fiveeighths" unicode="&#x215d;" horiz-adv-x="1020" d="M186 19 L218 -9 L840 694 L810 722 L186 19 Z M207 337 C196 337 182 338 182 342 L182 412 L159 427 C121 427 85 400 85 369 C85 329 118 298 206 298 C302 298 388 357 388 449 C388 550 296 585 198 585 C184 585 170 584 165 584 L166 639 L253 639 C303 639 351 639 381 643 L384 722 C384 722 180 716 117 716 L114 499 C139 504 164 505 179 505 C239 505 301 489 301 422 C301 370 255 337 207 337 L207 337 Z M727 321 C727 353 752 374 788 374 C831 374 850 344 850 315 C850 289 834 262 803 248 C761 268 727 287 727 321 L727 321 Z M849 92 C849 48 813 33 781 33 C746 33 710 58 710 102 C710 133 728 163 755 178 C809 155 849 136 849 92 L849 92 Z M624 103 C624 46 670 -9 780 -9 C884 -9 941 54 941 112 C941 166 905 203 847 226 C903 241 931 275 931 311 C931 374 873 413 790 413 C700 413 635 370 635 304 C635 260 665 220 718 203 C674 189 624 158 624 103 L624 103 Z " />
<glyph glyph-name="seveneighths" unicode="&#x215e;" horiz-adv-x="1020" d="M186 19 L218 -9 L840 694 L810 722 L186 19 Z M727 321 C727 353 752 374 788 374 C831 374 850 344 850 315 C850 289 834 262 803 248 C761 268 727 287 727 321 L727 321 Z M849 92 C849 48 813 33 781 33 C746 33 710 58 710 102 C710 133 728 163 755 178 C809 155 849 136 849 92 L849 92 Z M624 103 C624 46 670 -9 780 -9 C884 -9 941 54 941 112 C941 166 905 203 847 226 C903 241 931 275 931 311 C931 374 873 413 790 413 C700 413 635 370 635 304 C635 260 665 220 718 203 C674 189 624 158 624 103 L624 103 Z M234 309 C267 455 390 670 390 670 L390 716 L80 716 L80 631 L216 631 C259 631 292 636 319 643 L322 637 C258 565 158 431 115 301 L234 309 Z " />
<glyph glyph-name="partialdiff" unicode="&#x2202;" horiz-adv-x="579" d="M544 257 C544 512 359 693 154 776 L126 755 C200 704 321 600 378 475 C351 494 310 504 272 504 C143 504 35 398 35 241 C35 71 158 -15 284 -15 C441 -15 544 102 544 257 L544 257 Z M291 29 C223 29 174 100 174 254 C174 342 189 459 287 459 C352 459 405 389 405 236 C405 148 391 29 291 29 L291 29 Z " />
<glyph glyph-name="product" unicode="&#x220f;" horiz-adv-x="900" d="M563 651 C599 651 609 636 610 602 C610 602 612 514 612 349 C612 184 610 96 610 96 C609 66 598 55 563 48 L512 38 L512 -5 L684 0 L857 -5 L857 38 L805 48 C769 55 759 66 758 96 C758 96 755 184 755 349 C755 514 758 602 758 602 C761 636 769 644 805 651 L857 661 L857 705 L673 700 L205 700 L44 705 L44 661 L95 651 C131 644 139 636 142 602 C142 602 145 514 145 349 C145 184 142 96 142 96 C141 66 131 55 95 48 L44 38 L44 -5 L216 0 L389 -5 L389 38 L337 48 C302 55 291 66 290 96 C290 96 287 184 287 349 C287 514 290 602 290 602 C291 636 301 651 337 651 L563 651 Z " />
<glyph glyph-name="summation" unicode="&#x2211;" horiz-adv-x="678" d="M165 0 L418 0 C476 0 622 -5 622 -5 C626 63 637 194 640 212 L600 212 L560 128 C525 54 491 53 442 53 L115 53 C219 160 324 266 429 373 C362 459 296 545 230 631 C228 634 227 636 227 639 C227 643 231 647 239 647 L471 647 C508 647 528 610 545 549 L556 508 L598 508 C607 650 615 711 615 711 C615 711 519 700 462 700 L169 700 L21 705 L21 663 L293 314 L21 38 L21 -5 L165 0 Z " />
<glyph glyph-name="minus" unicode="&#x2212;" horiz-adv-x="590" d="M52 330 L537 330 L537 393 L52 393 L52 330 Z " />
<glyph glyph-name="uni2215" unicode="&#x2215;" horiz-adv-x="600" d="M-27 19 L4 -9 L626 694 L596 722 L-27 19 Z " />
<glyph glyph-name="uni2219" unicode="&#x2219;" horiz-adv-x="270" d="M51 362 C51 315 89 278 135 278 C181 278 219 315 219 362 C219 408 181 446 135 446 C89 446 51 408 51 362 L51 362 Z " />
<glyph glyph-name="radical" unicode="&#x221a;" horiz-adv-x="590" d="M265 -200 L600 714 L537 714 L230 -146 L66 300 L3 300 L191 -200 L265 -200 Z " />
<glyph glyph-name="infinity" unicode="&#x221e;" horiz-adv-x="1006" d="M503 422 C455 536 369 591 272 591 C162 591 60 517 60 361 C60 204 162 130 272 130 C369 130 455 185 503 299 C551 185 637 130 734 130 C844 130 946 204 946 361 C946 517 844 591 734 591 C637 591 551 536 503 422 L503 422 Z M118 361 C118 508 211 539 275 539 C343 539 420 507 478 361 C420 215 343 182 275 182 C211 182 118 214 118 361 L118 361 Z M888 361 C888 214 795 182 731 182 C663 182 586 215 528 361 C586 507 663 539 731 539 C795 539 888 508 888 361 L888 361 Z " />
<glyph glyph-name="integral" unicode="&#x222b;" horiz-adv-x="594" d="M364 480 C364 635 375 698 432 698 C481 698 515 620 525 620 C572 620 621 668 621 714 C621 758 539 767 502 767 C371 767 231 688 231 481 L231 28 C231 -128 218 -189 163 -189 C114 -189 80 -111 70 -111 C23 -111 -25 -159 -25 -206 C-25 -250 56 -259 93 -259 C224 -259 364 -179 364 27 L364 480 Z " />
<glyph glyph-name="approxequal" unicode="&#x2248;" horiz-adv-x="590" d="M182 249 C253 249 324 192 406 192 C467 192 523 239 523 323 L478 323 C469 282 446 263 409 263 C335 263 268 321 185 321 C124 321 67 271 67 187 L113 187 C122 229 144 249 182 249 L182 249 Z M182 462 C253 462 324 405 406 405 C467 405 523 452 523 536 L478 536 C469 495 446 476 409 476 C335 476 268 534 185 534 C124 534 67 484 67 400 L113 400 C122 442 144 462 182 462 L182 462 Z " />
<glyph glyph-name="notequal" unicode="&#x2260;" horiz-adv-x="590" d="M64 473 L64 419 L294 419 L222 296 L64 296 L64 242 L190 242 L122 124 L180 124 L249 242 L526 242 L526 296 L280 296 L352 419 L526 419 L526 473 L384 473 L451 587 L392 587 L325 473 L64 473 Z " />
<glyph glyph-name="lessequal" unicode="&#x2264;" horiz-adv-x="590" d="M526 0 L526 46 L63 46 L63 0 L526 0 Z M118 348 L118 368 L526 525 L526 587 L64 404 L64 313 L526 130 L526 191 L118 348 Z " />
<glyph glyph-name="greaterequal" unicode="&#x2265;" horiz-adv-x="590" d="M526 0 L526 46 L63 46 L63 0 L526 0 Z M63 191 L63 130 L525 313 L525 404 L63 587 L63 525 L471 368 L471 348 L63 191 Z " />
<glyph glyph-name="lozenge" unicode="&#x25ca;" horiz-adv-x="590" d="M320 724 L268 724 L54 357 L268 -14 L320 -14 L534 357 L320 724 Z M294 673 L473 357 L294 37 L116 357 L294 673 Z " />
<glyph glyph-name="f_f" unicode="&#xfb00;" horiz-adv-x="721" d="M456 429 L456 86 C456 55 444 47 408 38 L379 31 L379 -5 L525 0 L684 -5 L684 31 L632 41 C597 48 589 61 589 92 L589 429 L695 416 L703 487 L589 480 C589 559 591 615 603 651 C615 686 637 699 660 699 C709 699 743 622 753 622 C799 622 848 668 848 714 C848 758 762 767 725 767 C594 767 460 687 456 480 L240 480 L240 496 C240 603 242 671 295 671 C342 671 361 602 370 602 C405 602 450 649 450 696 C450 727 390 739 352 739 C206 739 108 627 107 480 L27 480 L27 429 L107 429 L107 86 C107 55 95 47 59 38 L30 31 L30 -5 L169 0 L335 -5 L335 31 L283 41 C248 48 240 61 240 92 L240 429 L456 429 Z " />
<glyph glyph-name="fi" unicode="&#xfb01;" horiz-adv-x="681" d="M240 480 C240 559 242 615 254 651 C266 686 288 699 311 699 C360 699 394 622 404 622 C450 622 499 668 499 714 C499 758 413 767 376 767 C245 767 111 687 107 480 L27 480 L27 429 L107 429 L107 86 C107 55 95 47 59 38 L30 31 L30 -5 L176 0 L335 -5 L335 31 L283 41 C248 48 240 61 240 92 L240 429 L411 422 C449 420 456 406 456 351 L456 86 C456 55 444 46 409 38 L380 31 L380 -5 L524 0 L665 -5 L665 31 L635 38 C599 46 589 55 589 86 L589 340 C589 437 591 510 591 510 L549 510 C535 503 493 487 414 485 L240 480 Z " />
<glyph glyph-name="fl" unicode="&#xfb02;" horiz-adv-x="683" d="M590 469 C590 594 594 755 594 755 L559 755 L529 730 C505 744 447 767 376 767 C245 767 110 687 107 480 L27 480 L27 429 L107 429 L107 86 C107 55 95 47 59 38 L30 31 L30 -5 L159 0 L335 -5 L335 31 L283 41 C248 48 240 61 240 92 L240 430 L346 416 L354 487 L240 480 C240 626 247 699 318 699 C366 699 439 661 456 607 L456 86 C456 55 445 46 410 38 L379 31 L379 -5 L524 0 L670 -5 L670 31 L636 38 C600 45 590 55 590 86 L590 469 Z " />
<glyph glyph-name="f_f_i" unicode="&#xfb03;" horiz-adv-x="1030" d="M456 429 L456 86 C456 55 444 47 408 38 L379 31 L379 -5 L525 0 L684 -5 L684 31 L632 41 C597 48 589 61 589 92 L589 429 L760 422 C798 420 805 406 805 351 L805 86 C805 55 793 46 758 38 L729 31 L729 -5 L873 0 L1014 -5 L1014 31 L984 38 C948 46 938 55 938 86 L938 340 C938 437 940 510 940 510 L898 510 C884 503 842 487 763 485 L589 480 C589 559 591 615 603 651 C615 686 637 699 660 699 C709 699 743 622 753 622 C799 622 848 668 848 714 C848 758 762 767 725 767 C594 767 460 687 456 480 L240 480 L240 496 C240 603 242 671 295 671 C342 671 361 602 370 602 C405 602 450 649 450 696 C450 727 390 739 352 739 C206 739 108 627 107 480 L27 480 L27 429 L107 429 L107 86 C107 55 95 47 59 38 L30 31 L30 -5 L169 0 L335 -5 L335 31 L283 41 C248 48 240 61 240 92 L240 429 L456 429 Z " />
<glyph glyph-name="f_f_l" unicode="&#xfb04;" horiz-adv-x="1032" d="M456 429 L456 86 C456 55 444 47 408 38 L379 31 L379 -5 L508 0 L684 -5 L684 31 L632 41 C597 48 589 61 589 92 L589 430 L695 416 L703 487 L589 480 C589 626 596 699 667 699 C715 699 788 661 805 607 L805 86 C805 55 794 46 759 38 L728 31 L728 -5 L873 0 L1019 -5 L1019 31 L985 38 C949 45 939 55 939 86 L939 469 C939 594 943 755 943 755 L908 755 L878 730 C854 744 796 767 725 767 C594 767 459 687 456 480 L240 480 L240 496 C240 603 242 671 295 671 C342 671 361 602 370 602 C405 602 450 649 450 696 C450 727 390 739 352 739 C206 739 108 627 107 480 L27 480 L27 429 L107 429 L107 86 C107 55 95 47 59 38 L30 31 L30 -5 L169 0 L335 -5 L335 31 L283 41 C248 48 240 61 240 92 L240 429 L456 429 Z " />
<glyph glyph-name="st" unicode="&#xfb06;" horiz-adv-x="849" d="M177 623 C177 576 206 533 247 504 L235 504 C139 504 46 459 46 353 C46 187 296 215 296 99 C296 63 269 29 212 29 C167 29 138 54 125 87 L94 164 L46 163 C47 155 48 110 48 88 C48 43 46 13 46 13 C46 13 121 -15 212 -15 C329 -15 415 39 415 144 C415 311 170 283 170 394 C170 439 202 459 248 459 C278 459 307 445 316 421 L343 348 L387 349 C387 388 394 467 398 484 C376 491 339 497 302 500 C283 530 271 559 271 588 C271 640 310 670 381 670 C436 670 506 645 549 639 L549 597 C549 560 546 522 534 505 C521 486 495 483 455 480 L455 429 L542 429 L542 118 C542 32 601 -15 690 -15 C748 -15 816 12 842 62 L826 94 C812 76 774 59 749 59 C699 59 676 89 676 151 L676 429 L820 417 L827 485 L676 480 L681 630 C711 638 727 668 727 697 C727 742 689 766 650 766 C610 766 563 738 554 683 C516 690 409 744 332 744 C222 744 177 686 177 623 L177 623 Z " />
</font>
</svg>
