<?xml version="1.0" encoding="UTF-8"?>
<svg xmlns="http://www.w3.org/2000/svg" xmlns:xlink="http://www.w3.org/1999/xlink" version="1.2" >
<font id="Antwerp">
<font-face  font-family="Antwerp" units-per-em="1000" ascent="750" descent="-250" font-style="normal" font-weight="400" font-stretch="normal" cap-height="711" x-height="482" underline-position="-123" underline-thickness="20" />
<missing-glyph  horiz-adv-x="189" d="" />
<glyph glyph-name="NULL" d="" />
<glyph glyph-name="CR" unicode="&#xd;" horiz-adv-x="250" d="" />
<glyph glyph-name="space" unicode="&#x20;" horiz-adv-x="190" d="" />
<glyph glyph-name="exclam" unicode="&#x21;" horiz-adv-x="315" d="M175 225 C183 392 230 551 230 636 C230 684 207 715 158 715 C107 715 84 684 84 636 C84 550 130 392 140 225 L175 225 Z M74 69 C74 22 111 -15 158 -15 C204 -15 241 22 241 69 C241 115 204 153 158 153 C111 153 74 115 74 69 L74 69 Z " />
<glyph glyph-name="quotedbl" unicode="&#x22;" horiz-adv-x="473" d="M60 405 L107 405 L207 715 L60 715 L60 405 Z M281 405 L328 405 L428 715 L281 715 L281 405 Z " />
<glyph glyph-name="numbersign" unicode="&#x23;" horiz-adv-x="590" d="M226 700 L179 700 L179 468 L30 468 L30 424 L179 424 L179 291 L30 291 L30 247 L179 247 L179 0 L226 0 L226 247 L362 247 L362 0 L410 0 L410 247 L558 247 L558 291 L410 291 L410 424 L558 424 L558 468 L410 468 L410 700 L362 700 L362 468 L226 468 L226 700 Z M226 424 L362 424 L362 291 L226 291 L226 424 Z " />
<glyph glyph-name="dollar" unicode="&#x24;" horiz-adv-x="590" d="M150 104 C115 180 103 233 103 233 L59 228 C65 121 65 29 65 24 C78 21 168 -12 277 -14 L277 -167 L318 -167 L318 -13 C445 -2 541 75 541 201 C541 330 420 377 318 424 L318 666 C390 665 418 645 424 626 C443 570 460 511 460 511 L500 511 C507 593 519 685 519 685 C511 689 407 715 318 715 L318 836 L277 836 L277 712 C147 698 75 615 75 526 C75 402 179 353 277 309 L277 33 C223 36 170 59 150 104 L150 104 Z M436 154 C436 82 381 41 318 33 L318 290 C383 257 436 220 436 154 L436 154 Z M180 559 C180 616 222 652 277 662 L277 444 C222 473 180 506 180 559 L180 559 Z " />
<glyph glyph-name="percent" unicode="&#x25;" horiz-adv-x="787" d="M719 685 L687 712 L66 17 L98 -13 L719 685 Z M196 709 C108 709 46 627 46 529 C46 432 108 349 196 349 C284 349 346 432 346 529 C346 627 284 709 196 709 L196 709 Z M196 385 C141 385 134 457 134 529 C134 600 141 675 196 675 C251 675 258 600 258 529 C258 457 251 385 196 385 L196 385 Z M592 345 C503 345 441 263 441 166 C441 68 503 -14 592 -14 C681 -14 743 68 743 166 C743 263 681 345 592 345 L592 345 Z M592 21 C538 21 530 94 530 166 C530 237 538 311 592 311 C647 311 654 237 654 166 C654 94 647 21 592 21 L592 21 Z " />
<glyph glyph-name="ampersand" unicode="&#x26;" horiz-adv-x="836" d="M412 577 C412 527 381 465 322 432 C239 490 215 536 215 589 C215 650 262 682 311 682 C363 682 412 645 412 577 L412 577 Z M318 60 C228 60 170 127 170 209 C170 265 200 326 253 357 L473 152 C437 97 381 60 318 60 L318 60 Z M564 209 L636 316 C677 377 697 404 733 415 L775 424 L775 463 L649 458 L516 462 L516 424 L567 415 C594 410 605 398 605 380 C605 352 584 315 556 270 L535 236 L345 410 C447 442 491 509 491 571 C491 661 411 719 312 719 C182 719 117 641 117 555 C117 479 173 422 256 390 C134 359 63 274 63 173 C63 80 131 -14 267 -14 C379 -14 452 54 502 124 L630 -4 L723 0 L815 -3 L815 32 C775 37 740 50 712 75 L564 209 Z " />
<glyph glyph-name="quotesingle" unicode="&#x27;" horiz-adv-x="252" d="M60 405 L107 405 L207 715 L60 715 L60 405 Z " />
<glyph glyph-name="parenleft" unicode="&#x28;" horiz-adv-x="317" d="M38 286 C38 120 132 -89 290 -171 L307 -150 C174 -43 148 169 148 284 L148 308 C148 422 174 633 306 740 L289 762 C133 679 38 471 38 305 L38 286 Z " />
<glyph glyph-name="parenright" unicode="&#x29;" horiz-adv-x="317" d="M279 305 C279 471 183 679 28 762 L11 740 C143 633 169 422 169 308 L169 284 C169 169 143 -43 10 -150 L27 -171 C185 -89 279 120 279 286 L279 305 Z " />
<glyph glyph-name="asterisk" unicode="&#x2a;" horiz-adv-x="590" d="M316 442 L506 504 L525 572 L457 602 L307 469 L346 664 L294 713 L242 665 L280 469 L133 603 L64 572 L84 505 L267 442 L84 380 L64 313 L133 281 L280 415 L242 219 L294 172 L346 220 L306 416 L457 283 L525 313 L506 381 L316 442 Z " />
<glyph glyph-name="plus" unicode="&#x2b;" horiz-adv-x="590" d="M60 335 L270 335 L270 119 L320 119 L320 335 L529 335 L529 383 L320 383 L320 598 L270 598 L270 383 L60 383 L60 335 Z " />
<glyph glyph-name="comma" unicode="&#x2c;" horiz-adv-x="288" d="M47 -165 C140 -135 237 -51 237 51 C237 122 180 170 133 170 C99 170 51 125 46 87 C46 86 46 82 47 81 C109 63 138 28 138 -12 C138 -55 105 -103 33 -139 L47 -165 Z " />
<glyph glyph-name="hyphen" unicode="&#x2d;" horiz-adv-x="373" d="M307 241 L307 315 L65 315 L65 241 L307 241 Z " />
<glyph glyph-name="period" unicode="&#x2e;" horiz-adv-x="298" d="M65 69 C65 23 103 -15 149 -15 C195 -15 233 23 233 69 C233 115 195 153 149 153 C103 153 65 115 65 69 L65 69 Z " />
<glyph glyph-name="slash" unicode="&#x2f;" horiz-adv-x="536" d="M514 815 L473 835 L22 -115 L62 -134 L514 815 Z " />
<glyph glyph-name="zero" unicode="0" horiz-adv-x="590" d="M294 712 C142 712 45 543 45 350 C45 157 142 -15 294 -15 C447 -15 543 157 543 350 C543 543 447 712 294 712 L294 712 Z M294 25 C213 25 169 103 169 350 C169 599 213 670 294 670 C375 670 420 599 420 350 C420 103 375 25 294 25 L294 25 Z " />
<glyph glyph-name="one" unicode="1" horiz-adv-x="590" d="M316 704 L109 629 L109 580 C155 589 223 603 240 603 C249 603 254 599 255 580 C256 531 256 463 256 352 L256 328 C256 256 255 94 255 94 C255 67 233 53 203 49 L121 37 L121 -7 L309 0 L509 -7 L509 37 L421 49 C394 53 375 67 374 94 C373 134 373 181 373 233 C373 441 378 704 378 704 L316 704 Z " />
<glyph glyph-name="two" unicode="2" horiz-adv-x="590" d="M61 -1 C84 0 169 0 233 0 C380 0 510 -2 510 -2 L528 112 L173 107 C190 125 338 269 378 307 C468 393 513 450 513 527 C513 647 412 712 293 712 C134 712 62 626 62 571 C62 518 108 481 162 480 L186 500 C186 500 184 582 184 621 C184 656 226 662 253 662 C353 662 390 588 390 501 C390 435 372 383 290 293 C219 214 71 73 61 63 L61 -1 Z " />
<glyph glyph-name="three" unicode="3" horiz-adv-x="590" d="M96 591 C139 622 192 644 245 644 C309 644 371 614 371 542 C371 468 312 403 149 391 L147 331 C147 331 189 334 210 334 C349 334 407 261 407 177 C407 104 357 25 238 25 C206 25 175 29 175 49 L174 157 L150 177 C92 173 52 141 52 96 C52 35 112 -15 249 -15 C401 -15 523 70 523 206 C523 330 404 399 309 401 C413 423 488 474 488 567 C488 644 425 711 306 711 C197 711 123 669 75 624 L96 591 Z " />
<glyph glyph-name="four" unicode="4" horiz-adv-x="590" d="M328 89 C328 58 317 49 281 41 L237 31 L237 -5 L385 0 L535 -5 L535 31 L492 41 C455 49 443 58 443 89 L443 196 L555 196 L555 248 L443 248 L445 434 L322 431 C325 410 328 322 328 266 L328 248 L87 248 C139 341 425 729 425 729 L321 732 C233 601 46 295 25 250 L25 196 L328 196 L328 89 Z " />
<glyph glyph-name="five" unicode="5" horiz-adv-x="590" d="M250 25 C218 25 179 29 179 49 C179 85 177 121 178 157 L154 177 C96 173 56 141 56 96 C56 35 117 -15 252 -15 C420 -15 525 105 525 228 C525 409 348 468 205 468 C185 468 159 467 143 466 L150 598 C150 598 313 594 384 594 C448 594 484 596 510 600 L517 709 C518 707 252 701 109 701 L91 355 C113 358 164 361 187 361 C316 361 428 309 428 180 C428 94 355 25 250 25 L250 25 Z " />
<glyph glyph-name="six" unicode="6" horiz-adv-x="590" d="M169 228 C169 321 209 407 300 407 C386 407 437 325 437 217 C437 122 396 33 304 33 C202 33 169 145 169 228 L169 228 Z M302 -15 C453 -15 557 92 557 232 C557 383 451 464 341 464 C255 464 195 424 166 374 L154 377 C234 587 380 693 515 740 L495 775 C221 706 41 523 41 275 C41 122 128 -15 302 -15 L302 -15 Z " />
<glyph glyph-name="seven" unicode="7" horiz-adv-x="590" d="M259 -22 C310 218 517 577 546 628 L546 697 L58 697 L57 583 L257 583 C361 583 436 595 477 611 L479 607 C429 542 203 253 114 -33 L259 -22 Z " />
<glyph glyph-name="eight" unicode="8" horiz-adv-x="590" d="M50 171 C50 84 123 -15 291 -15 C464 -15 545 96 545 189 C545 283 489 351 373 398 C474 426 518 487 518 550 C518 656 421 715 302 715 C181 715 74 652 74 530 C74 442 143 385 215 356 C148 341 50 282 50 171 L50 171 Z M438 154 C438 77 379 28 300 28 C201 28 152 98 152 174 C152 240 187 299 252 335 C366 290 438 249 438 154 L438 154 Z M300 675 C366 675 424 631 424 556 C424 500 391 444 331 418 C237 457 182 494 182 566 C182 636 238 675 300 675 L300 675 Z " />
<glyph glyph-name="nine" unicode="9" horiz-adv-x="590" d="M420 471 C420 378 379 292 287 292 C202 292 151 373 151 481 C151 575 192 663 284 663 C386 663 420 554 420 471 L420 471 Z M285 711 C136 711 31 607 31 467 C31 316 143 235 252 235 C338 235 393 275 422 325 L434 322 C354 112 208 6 73 -41 L93 -76 C367 -7 547 176 547 424 C547 577 461 711 285 711 L285 711 Z " />
<glyph glyph-name="colon" unicode="&#x3a;" horiz-adv-x="298" d="M65 69 C65 23 103 -15 149 -15 C195 -15 233 23 233 69 C233 115 195 153 149 153 C103 153 65 115 65 69 L65 69 Z M65 395 C65 349 103 311 149 311 C195 311 233 349 233 395 C233 441 195 479 149 479 C103 479 65 441 65 395 L65 395 Z " />
<glyph glyph-name="semicolon" unicode="&#x3b;" horiz-adv-x="299" d="M59 -165 C152 -135 249 -51 249 51 C249 122 192 170 145 170 C111 170 63 125 58 87 C58 86 58 82 59 81 C121 63 150 28 150 -12 C150 -55 117 -103 45 -139 L59 -165 Z M67 395 C67 349 105 311 151 311 C197 311 235 349 235 395 C235 441 197 479 151 479 C105 479 67 441 67 395 L67 395 Z " />
<glyph glyph-name="less" unicode="&#x3c;" horiz-adv-x="590" d="M86 350 L86 366 L504 527 L504 577 L42 394 L42 323 L504 140 L504 189 L86 350 Z " />
<glyph glyph-name="equal" unicode="&#x3d;" horiz-adv-x="590" d="M64 291 L64 247 L526 247 L526 291 L64 291 Z M64 468 L64 424 L526 424 L526 468 L64 468 Z " />
<glyph glyph-name="greater" unicode="&#x3e;" horiz-adv-x="590" d="M85 189 L85 140 L548 323 L548 394 L85 577 L85 527 L504 366 L504 350 L85 189 Z " />
<glyph glyph-name="question" unicode="&#x3f;" horiz-adv-x="459" d="M194 680 C267 680 291 628 291 570 C291 466 161 402 154 299 C156 289 181 234 195 223 L220 221 C218 233 215 248 215 263 C215 334 411 418 411 560 C411 661 329 715 213 715 C88 715 34 654 34 605 C34 561 71 527 117 525 L141 542 L140 650 C140 674 166 680 194 680 L194 680 Z M123 69 C123 23 161 -15 207 -15 C253 -15 291 23 291 69 C291 115 253 153 207 153 C161 153 123 115 123 69 L123 69 Z " />
<glyph glyph-name="at" unicode="&#x40;" horiz-adv-x="971" d="M583 61 C592 13 638 -15 690 -15 C836 -15 935 106 935 279 C935 497 774 677 512 677 C250 677 46 495 46 229 C46 -38 234 -223 516 -223 C612 -223 736 -192 805 -130 L788 -104 C715 -156 612 -174 547 -174 C280 -174 144 28 144 233 C144 455 285 633 523 633 C740 633 889 481 889 278 C889 173 840 41 734 41 C704 41 682 55 682 97 C682 144 690 266 690 337 C690 451 629 494 524 494 C410 494 329 451 329 392 C329 349 365 324 404 318 L435 336 L435 421 C435 453 466 458 494 458 C569 458 583 403 583 340 L583 273 C444 264 315 224 315 108 C315 42 369 -15 454 -15 C527 -15 570 32 583 61 L583 61 Z M419 131 C419 220 518 233 583 242 L581 133 C580 75 539 50 499 50 C451 50 419 83 419 131 L419 131 Z " />
<glyph glyph-name="A" unicode="A" horiz-adv-x="757" d="M465 288 C465 288 518 148 539 92 C550 63 534 51 498 44 L444 34 L444 -5 L607 0 L769 -5 L769 34 L719 44 C688 50 679 63 667 92 C527 431 417 726 417 726 L331 707 C331 707 203 370 92 91 C80 62 68 50 37 44 L-13 34 L-13 -5 L101 0 L250 -5 L250 34 L194 44 C158 51 144 63 155 92 C155 92 178 162 223 288 L465 288 Z M450 334 L239 334 L344 620 L450 334 Z " />
<glyph glyph-name="B" unicode="B" horiz-adv-x="716" d="M260 111 C260 111 258 249 258 342 L336 342 C486 342 534 283 534 188 C534 92 472 36 379 36 C298 36 260 46 260 111 L260 111 Z M258 659 C280 660 307 663 358 663 C458 663 508 613 508 528 C508 453 473 384 354 384 C301 384 258 397 258 397 L258 659 Z M42 666 L95 656 C132 649 143 641 144 607 C144 607 147 514 147 349 C147 184 144 92 144 92 C143 62 132 51 95 44 L42 34 L42 -5 L194 0 C224 -2 369 -8 398 -8 C601 -8 657 102 657 179 C657 279 573 352 460 363 L460 370 C567 386 624 456 624 537 C624 642 534 704 417 704 C344 704 224 700 203 700 L42 705 L42 666 Z " />
<glyph glyph-name="C" unicode="C" horiz-adv-x="740" d="M171 375 C171 588 299 665 428 665 C515 665 578 631 604 552 L625 489 L662 489 C668 562 680 665 683 700 L605 688 C572 698 506 715 426 715 C203 715 50 551 50 346 C50 135 193 -15 419 -15 C555 -15 660 32 682 42 C682 142 686 220 686 220 L646 220 L587 64 C547 53 512 49 474 49 C283 49 171 174 171 375 L171 375 Z " />
<glyph glyph-name="D" unicode="D" horiz-adv-x="848" d="M194 0 C226 -3 367 -8 386 -8 C666 -8 796 150 796 358 C796 544 676 710 423 710 C388 710 291 708 194 700 L42 705 L42 666 L95 656 C132 649 143 641 144 607 C144 607 147 514 147 349 C147 184 144 92 144 92 C143 62 132 51 95 44 L42 34 L42 -5 L194 0 Z M374 662 C579 662 670 541 670 337 C670 82 516 35 401 35 C302 35 259 41 259 111 L259 646 C259 656 260 662 277 662 L374 662 Z " />
<glyph glyph-name="E" unicode="E" horiz-adv-x="698" d="M258 380 L258 636 C258 646 259 652 276 652 L471 652 C511 652 530 617 547 554 L559 508 L598 508 C608 650 616 711 616 711 C616 711 517 700 459 700 L199 700 L42 705 L42 666 L95 656 C132 649 141 641 144 607 C144 607 147 514 147 349 C147 184 144 92 144 92 C144 62 132 51 95 44 L42 34 L42 -5 L199 0 L429 0 C488 0 625 -5 625 -5 C629 31 653 194 656 212 L619 212 L574 128 C536 56 500 48 450 48 L332 48 C282 48 258 68 258 111 L258 336 C258 336 331 336 389 333 C420 331 434 319 443 282 L456 227 L495 227 L490 359 L495 489 L456 489 L443 434 C434 397 421 385 389 383 C331 380 258 380 258 380 L258 380 Z " />
<glyph glyph-name="F" unicode="F" horiz-adv-x="668" d="M204 0 L372 -5 L372 34 L307 44 C270 50 258 62 258 92 L258 316 C258 316 356 316 413 313 C446 311 458 299 467 262 L480 207 L519 207 L514 339 L519 469 L480 469 L467 414 C458 377 446 365 413 363 C356 360 258 360 258 360 L258 636 C258 646 259 652 276 652 L491 652 C531 652 549 620 566 557 L578 508 L618 508 C628 650 635 711 635 711 C635 711 534 700 475 700 L204 700 L42 705 L42 666 L95 656 C132 649 143 641 144 607 C144 607 147 514 147 349 C147 184 144 92 144 92 C143 62 132 51 95 44 L42 34 L42 -5 L204 0 Z " />
<glyph glyph-name="G" unicode="G" horiz-adv-x="822" d="M450 715 C248 715 51 589 51 349 C51 200 130 -15 450 -15 C566 -15 713 43 713 43 L713 221 C713 253 724 262 760 271 L795 280 L795 321 L655 316 L485 321 L485 280 L547 270 C585 264 596 254 596 222 L596 75 C596 47 548 37 490 37 C256 37 173 209 173 366 C173 548 283 665 456 665 C543 665 618 631 644 552 L665 489 L702 489 C708 562 720 665 723 700 L645 688 C612 698 530 715 450 715 L450 715 Z " />
<glyph glyph-name="H" unicode="H" horiz-adv-x="884" d="M258 381 C258 534 261 608 261 608 C262 638 272 649 309 656 L362 666 L362 705 L202 700 L42 705 L42 666 L95 656 C132 649 143 638 144 608 C144 608 147 520 147 355 C147 190 144 92 144 92 C143 62 132 51 95 44 L42 34 L42 -5 L202 0 L362 -5 L362 34 L309 44 C272 51 262 62 261 92 C261 92 258 179 258 335 L626 335 C626 179 623 92 623 92 C622 62 612 51 575 44 L522 34 L522 -5 L682 0 L842 -5 L842 34 L789 44 C752 51 741 62 740 92 C740 92 737 190 737 355 C737 520 740 608 740 608 C741 638 752 649 789 656 L842 666 L842 705 L682 700 L522 705 L522 666 L575 656 C612 649 622 638 623 608 C623 608 626 534 626 381 L258 381 Z " />
<glyph glyph-name="I" unicode="I" horiz-adv-x="404" d="M261 608 C262 638 272 649 309 656 L362 666 L362 705 L202 700 L42 705 L42 666 L95 656 C132 649 143 638 144 608 C144 608 147 520 147 355 C147 190 144 92 144 92 C143 62 132 51 95 44 L42 34 L42 -5 L202 0 L362 -5 L362 34 L309 44 C272 51 262 62 261 92 C261 92 258 190 258 355 C258 520 261 608 261 608 L261 608 Z " />
<glyph glyph-name="J" unicode="J" horiz-adv-x="394" d="M250 608 C251 638 261 649 298 656 L351 666 L351 705 L191 700 L31 705 L31 666 L84 656 C121 649 132 638 133 608 C133 608 136 520 136 355 C136 210 133 63 133 35 C132 -87 89 -127 5 -145 L21 -182 C155 -179 238 -129 247 0 L351 0 L351 38 L299 45 C261 50 249 63 248 93 C248 93 247 239 247 355 C247 520 250 608 250 608 L250 608 Z " />
<glyph glyph-name="K" unicode="K" horiz-adv-x="772" d="M203 0 L362 -5 L362 34 L309 44 C273 51 262 62 261 92 C261 92 258 179 258 335 L365 335 C365 335 446 219 586 -3 L645 0 L778 -5 L778 33 L728 46 C701 53 689 59 670 86 L445 406 C450 413 499 469 584 570 C637 632 651 646 690 655 L738 666 L738 705 L603 700 L455 705 L455 666 L505 656 C531 651 546 644 546 626 C546 618 542 607 533 595 C450 485 368 381 368 381 L258 381 C258 526 261 607 261 607 C263 641 273 649 309 656 L362 666 L362 705 L203 700 L42 705 L42 666 L95 656 C132 649 144 641 144 607 C144 607 147 514 147 349 C147 184 144 92 144 92 C143 62 132 51 95 44 L42 34 L42 -5 L203 0 Z " />
<glyph glyph-name="L" unicode="L" horiz-adv-x="666" d="M420 0 C479 0 616 -5 616 -5 C620 31 644 194 647 212 L610 212 L565 128 C527 56 491 48 441 48 L332 48 C282 48 263 61 262 104 C261 143 258 250 258 351 C258 516 261 607 261 607 C263 641 273 649 309 656 L362 666 L362 705 L203 700 L42 705 L42 666 L95 656 C132 649 144 641 144 607 C144 607 147 516 147 351 C147 186 144 92 144 92 C143 62 132 51 95 44 L42 34 L42 -5 L199 0 L420 0 Z " />
<glyph glyph-name="M" unicode="M" horiz-adv-x="1041" d="M781 92 C781 61 769 51 733 44 L679 34 L679 -5 L835 0 L999 -5 L999 34 L947 44 C910 51 899 61 899 92 C899 92 897 307 892 607 C892 639 904 649 940 656 L993 666 L993 705 L838 700 L733 705 L733 666 C733 666 630 392 529 136 C489 233 316 658 300 705 L192 700 L47 705 L47 666 L101 656 C142 648 148 639 148 584 C148 489 140 127 139 92 C138 61 127 51 91 44 L37 34 L37 -5 L164 0 L298 -5 L298 34 L245 44 C208 51 198 61 198 92 C197 255 197 630 197 630 C304 379 387 177 462 -6 L524 -6 C564 99 734 525 775 631 C775 631 777 432 781 92 L781 92 Z " />
<glyph glyph-name="N" unicode="N" horiz-adv-x="866" d="M149 607 C149 540 141 155 139 92 C138 61 127 51 90 44 L37 34 L37 -5 L162 0 L300 -5 L300 34 L246 44 C210 51 198 61 198 92 C198 226 197 620 197 620 C197 620 381 384 665 -5 L729 -5 C729 82 735 607 735 607 C735 639 746 649 783 656 L836 666 L836 705 L707 700 L573 705 L573 666 L627 656 C663 649 674 639 675 607 C680 413 685 160 685 160 L335 629 C312 659 293 705 293 705 L183 700 L51 705 L51 666 L101 656 C138 649 149 638 149 607 L149 607 Z " />
<glyph glyph-name="O" unicode="O" horiz-adv-x="831" d="M420 34 C291 34 173 135 173 363 C173 493 230 665 412 665 C542 665 657 563 657 336 C657 206 601 34 420 34 L420 34 Z M424 715 C196 714 51 556 51 343 C51 100 241 -15 407 -15 C633 -15 779 141 779 354 C779 595 597 715 424 715 L424 715 Z " />
<glyph glyph-name="P" unicode="P" horiz-adv-x="658" d="M362 34 L309 44 C273 51 262 62 261 92 C261 92 258 184 258 349 C258 514 260 647 260 647 C260 657 262 663 278 663 L360 663 C448 663 506 608 506 505 C506 395 447 337 361 337 C351 337 317 338 317 338 L317 296 C317 296 344 290 370 290 C558 290 627 410 627 511 C627 660 506 711 410 711 C346 711 237 702 237 702 L42 705 L42 666 L95 656 C132 649 141 641 144 607 C144 607 147 514 147 349 C147 184 144 92 144 92 C143 62 132 51 95 44 L42 34 L42 -5 L204 0 L362 -5 L362 34 Z " />
<glyph glyph-name="Q" unicode="Q" horiz-adv-x="831" d="M424 715 C196 715 51 555 51 343 C51 113 213 -9 380 -13 C415 -22 453 -47 491 -76 C630 -180 725 -240 865 -240 C919 -240 985 -227 1046 -198 L1043 -155 C1029 -159 1014 -160 999 -160 C900 -160 770 -104 533 3 C686 49 779 183 779 354 C779 595 597 715 424 715 L424 715 Z M420 34 C291 34 173 135 173 363 C173 493 230 665 412 665 C542 665 657 563 657 336 C657 206 601 34 420 34 L420 34 Z " />
<glyph glyph-name="R" unicode="R" horiz-adv-x="748" d="M147 349 C147 184 144 92 144 92 C144 62 132 51 95 44 L42 34 L42 -5 L204 0 L366 -5 L366 34 L312 44 C276 51 262 61 261 92 C258 209 258 314 258 314 L373 314 C387 293 402 269 417 244 C471 154 526 48 582 15 C623 -9 669 -12 731 -12 L765 -12 L776 28 C693 39 643 108 593 181 L480 344 C569 381 623 447 623 526 C623 678 493 710 408 710 C343 710 246 701 244 702 L42 705 L42 666 L95 656 C132 649 141 641 144 607 C144 607 147 514 147 349 L147 349 Z M345 663 C435 663 503 615 503 515 C503 397 428 359 386 359 L344 359 C306 359 277 366 258 369 L258 647 C258 657 259 663 276 663 L345 663 Z " />
<glyph glyph-name="S" unicode="S" horiz-adv-x="595" d="M150 103 C115 179 102 232 102 232 L58 227 C65 123 66 49 64 23 C77 20 174 -15 287 -15 C430 -15 540 66 540 201 C540 424 179 403 179 559 C179 628 236 666 313 666 C389 666 417 646 424 626 C444 570 460 511 460 511 L499 511 C506 593 518 685 518 685 C508 689 408 715 317 715 C161 715 75 624 75 526 C75 290 436 340 436 157 C436 76 367 31 294 31 C235 31 172 54 150 103 L150 103 Z " />
<glyph glyph-name="T" unicode="T" horiz-adv-x="718" d="M359 698 L186 700 C101 701 34 710 34 711 C34 711 32 596 24 505 L66 505 L80 550 C104 626 124 650 171 650 L300 651 C300 651 303 514 303 349 C303 184 300 92 300 92 C299 62 288 51 252 44 L198 34 L198 -5 L359 0 L518 -5 L518 34 L466 44 C429 51 419 62 418 92 C418 92 415 184 415 349 C415 514 418 651 418 651 L547 650 C594 650 614 626 638 550 L652 505 L694 505 C686 596 684 711 684 711 C684 710 617 701 532 700 L359 698 Z " />
<glyph glyph-name="U" unicode="U" horiz-adv-x="840" d="M243 607 C243 639 255 649 292 656 L344 666 L344 705 L183 700 L25 705 L25 666 L79 656 C115 649 127 639 127 607 L127 240 C127 73 238 -15 420 -15 C609 -15 712 86 712 266 C712 266 714 526 714 607 C714 639 726 649 763 656 L816 666 L816 705 L687 700 L554 705 L554 666 L608 656 C644 649 656 639 656 607 C656 569 658 378 658 273 C658 159 614 43 445 43 C339 43 243 89 243 243 L243 607 Z " />
<glyph glyph-name="V" unicode="V" horiz-adv-x="758" d="M415 89 C406 113 297 401 227 604 C217 633 226 649 265 656 L321 666 L321 705 L151 700 L-10 705 L-10 666 L39 656 C70 650 80 637 91 608 C218 290 332 -16 332 -16 L428 -6 C428 -6 503 192 666 609 C678 638 690 650 722 656 L771 666 L771 705 L660 700 L509 705 L508 666 L564 656 C603 649 612 633 602 604 L415 89 Z " />
<glyph glyph-name="W" unicode="W" horiz-adv-x="1131" d="M820 -6 C820 -6 948 359 1043 609 C1054 638 1068 650 1098 656 L1148 666 L1148 705 L1044 700 L886 705 L886 666 L947 657 C972 653 986 644 986 626 C986 621 984 613 982 607 L805 91 C793 125 673 461 633 586 C623 617 628 644 676 654 L738 666 L738 705 L588 700 L403 705 L403 666 L450 656 C481 650 492 635 502 605 C526 536 546 478 546 478 L393 91 C386 116 292 405 225 607 C223 613 222 619 222 624 C222 642 239 651 268 656 L322 666 L322 705 L152 700 L-7 705 L-7 666 L42 656 C73 650 84 637 95 608 C182 367 312 -16 312 -16 L406 -6 C406 -6 471 166 569 417 C612 297 725 -16 725 -16 L820 -6 Z " />
<glyph glyph-name="X" unicode="X" horiz-adv-x="732" d="M133 606 C133 606 221 484 311 355 C219 220 119 88 119 88 C91 55 80 48 49 42 L8 34 L8 -5 L129 0 L268 -5 L268 34 L211 44 C189 48 181 55 181 66 C181 73 186 83 192 92 C270 214 338 315 338 315 C388 238 439 165 488 85 C491 79 495 71 495 66 C495 55 487 48 466 44 L415 34 L415 -5 L580 0 L737 -5 L737 34 L688 44 C659 50 640 69 626 88 C526 224 418 385 418 385 C474 466 584 608 584 608 C599 627 621 650 652 656 L701 666 L701 705 L570 700 L437 703 L437 666 L490 656 C509 652 516 643 516 632 C516 623 510 607 499 589 C499 589 456 514 391 421 L295 568 C278 595 268 615 268 630 C268 643 276 654 293 657 L350 666 L350 705 L168 700 L10 705 L10 666 L60 656 C90 650 109 639 133 606 L133 606 Z " />
<glyph glyph-name="Y" unicode="Y" horiz-adv-x="702" d="M513 33 L460 43 C423 50 414 60 413 91 C412 123 411 184 411 223 L411 272 C411 272 489 405 608 609 C624 636 636 650 667 656 L713 666 L713 705 L589 700 L454 705 L454 666 L509 656 C537 651 550 642 550 626 C550 619 547 611 543 603 C455 432 388 326 388 326 C388 326 302 468 228 605 C214 631 219 650 256 656 L318 666 L318 705 L148 700 L-13 705 L-13 666 L31 656 C63 649 75 634 91 608 C201 429 294 267 294 267 L294 223 C294 184 294 123 292 91 C291 60 283 50 246 43 L193 33 L193 -5 L356 0 L513 -5 L513 33 Z " />
<glyph glyph-name="Z" unicode="Z" horiz-adv-x="698" d="M485 651 C214 264 45 38 45 38 L45 -4 L170 0 L433 0 C493 0 627 -5 627 -5 L660 212 L624 212 L578 126 C540 54 505 48 455 48 L212 48 C199 48 199 58 203 64 C446 408 627 661 627 661 L627 704 C627 704 494 700 200 700 C142 700 53 711 53 711 L61 508 L99 508 L112 557 C128 620 146 651 187 651 L485 651 Z " />
<glyph glyph-name="bracketleft" unicode="&#x5b;" horiz-adv-x="346" d="M213 293 C213 438 183 606 159 719 L330 719 L330 757 L90 757 L90 -170 L330 -170 L330 -134 L159 -134 C183 -21 213 148 213 293 L213 293 Z " />
<glyph glyph-name="backslash" unicode="&#x5c;" horiz-adv-x="536" d="M473 -134 L513 -115 L62 835 L21 815 L473 -134 Z " />
<glyph glyph-name="bracketright" unicode="&#x5d;" horiz-adv-x="346" d="M132 293 C132 148 162 -21 186 -134 L15 -134 L15 -170 L255 -170 L255 757 L15 757 L15 719 L186 719 C162 606 132 438 132 293 L132 293 Z " />
<glyph glyph-name="asciicircum" unicode="&#x5e;" horiz-adv-x="577" d="M452 227 L499 227 L320 700 L255 700 L76 227 L123 227 L283 657 L292 657 L452 227 Z " />
<glyph glyph-name="underscore" unicode="&#x5f;" horiz-adv-x="523" d="M432 -169 L432 -111 L91 -111 L91 -169 L432 -169 Z " />
<glyph glyph-name="grave" unicode="&#x60;" horiz-adv-x="405" d="M230 741 L91 741 L273 552 L313 558 L230 741 Z " />
<glyph glyph-name="a" unicode="a" horiz-adv-x="500" d="M176 -15 C250 -15 293 32 306 62 C311 13 347 -15 400 -15 C442 -15 484 7 501 43 L491 64 C482 55 463 48 449 48 C423 48 405 64 405 103 C405 150 413 265 413 336 C413 450 353 494 248 494 C134 494 52 452 52 393 C52 350 88 324 127 318 L158 336 L158 422 C158 453 190 458 218 458 C293 458 306 400 306 338 L306 273 C167 264 38 223 38 109 C38 42 92 -15 176 -15 L176 -15 Z M142 131 C142 220 241 233 306 242 L304 133 C303 75 262 50 222 50 C174 50 142 83 142 131 L142 131 Z " />
<glyph glyph-name="b" unicode="b" horiz-adv-x="577" d="M162 414 C162 414 175 476 175 539 L175 755 L146 755 L8 720 L8 703 L49 688 C66 682 72 666 72 636 L72 159 C72 96 72 39 71 -1 L100 -8 C113 -1 131 9 149 17 C172 6 223 -15 288 -15 C442 -15 537 110 537 246 C537 411 433 494 325 494 C262 494 201 465 171 412 L162 414 Z M279 428 C361 428 429 363 429 229 C429 91 372 24 284 24 C205 24 175 65 175 142 L175 340 C175 382 201 428 279 428 L279 428 Z " />
<glyph glyph-name="c" unicode="c" horiz-adv-x="485" d="M148 251 C148 388 207 454 281 454 C325 454 333 447 333 402 L333 338 L366 322 C403 327 444 350 444 398 C444 431 406 494 282 494 C141 494 40 381 40 234 C40 60 153 -15 262 -15 C333 -15 415 9 462 96 L441 124 C420 84 369 57 313 57 C233 57 148 113 148 251 L148 251 Z " />
<glyph glyph-name="d" unicode="d" horiz-adv-x="599" d="M294 61 C213 61 149 126 149 251 C149 341 183 454 293 454 C357 454 402 417 402 340 L402 143 C402 101 375 61 294 61 L294 61 Z M504 478 C504 612 507 755 507 755 L477 755 L331 720 L331 703 L372 688 C399 678 402 655 402 586 L402 467 C378 479 330 494 281 494 C139 494 40 379 40 235 C40 72 133 -15 243 -15 C301 -15 359 5 399 65 L407 64 L405 -8 L435 -8 L583 16 L583 46 L549 51 C509 57 504 68 504 127 L504 478 Z " />
<glyph glyph-name="e" unicode="e" horiz-adv-x="506" d="M356 314 L152 311 C157 403 198 456 264 456 C333 456 358 397 356 314 L356 314 Z M41 234 C41 60 148 -15 261 -15 C332 -15 414 9 461 96 L439 124 C418 84 365 57 309 57 C230 57 149 115 149 251 C149 267 150 275 150 275 L466 275 L466 296 C466 391 405 494 268 494 C153 494 41 396 41 234 L41 234 Z " />
<glyph glyph-name="f" unicode="f" horiz-adv-x="350" d="M109 81 C109 50 97 42 61 33 L30 26 L30 -5 L158 0 L309 -5 L309 26 L256 36 C220 43 212 56 212 87 L212 435 L320 418 L328 479 L212 472 C212 561 217 618 234 654 C250 690 278 704 308 704 C358 704 391 639 398 639 C436 639 477 686 477 714 C477 748 402 761 366 761 C243 761 113 685 109 473 L32 473 L32 433 L109 433 L109 81 Z " />
<glyph glyph-name="g" unicode="g" horiz-adv-x="549" d="M126 -110 C126 -62 151 -30 175 -18 C209 -19 287 -25 350 -36 C399 -45 413 -74 413 -111 C413 -183 357 -219 273 -219 C191 -219 126 -186 126 -110 L126 -110 Z M253 186 C202 186 157 230 157 329 C157 385 173 459 251 459 C301 459 344 417 344 316 C344 259 329 186 253 186 L253 186 Z M529 387 L541 390 L541 484 L381 459 C347 482 297 494 253 494 C126 494 48 419 48 320 C48 252 83 205 130 179 C88 146 62 109 62 76 C62 36 87 7 134 -3 L134 -12 C80 -30 32 -69 32 -131 C32 -204 107 -259 236 -259 C425 -259 510 -165 510 -66 C510 12 460 52 366 62 L254 74 C154 84 143 90 143 118 C143 135 151 152 159 165 C184 155 213 149 249 149 C372 149 454 219 454 323 C454 379 415 419 415 419 L529 387 Z " />
<glyph glyph-name="h" unicode="h" horiz-adv-x="593" d="M182 413 C182 413 197 443 197 539 L197 755 L167 755 L25 720 L25 703 L66 688 C92 678 95 655 95 586 L95 81 C95 50 81 45 46 33 L26 26 L26 -5 L147 0 L272 -5 L272 26 L242 33 C207 41 197 50 197 81 L197 285 C197 373 209 433 303 433 C344 433 371 416 386 389 C404 357 404 311 404 266 L404 176 C404 67 398 44 354 33 L326 26 L326 -5 L455 0 L582 -5 L582 26 L553 33 C517 42 505 50 505 81 C505 81 507 243 507 328 C507 436 453 494 347 494 C264 494 208 438 191 411 L182 413 Z " />
<glyph glyph-name="i" unicode="i" horiz-adv-x="306" d="M107 81 C107 50 95 42 58 33 L28 26 L28 -5 L158 0 L287 -5 L287 26 L256 33 C220 42 209 50 209 81 L209 330 C209 427 211 500 211 500 L173 500 L34 433 L34 416 L75 401 C102 391 107 368 107 299 L107 81 Z M77 667 C77 625 110 592 152 592 C194 592 228 625 228 667 C228 709 194 743 152 743 C110 743 77 709 77 667 L77 667 Z " />
<glyph glyph-name="j" unicode="j" horiz-adv-x="293" d="M94 -65 C94 -149 72 -192 0 -216 L20 -243 L36 -241 C147 -227 195 -162 195 -62 L195 0 L274 0 L274 31 L245 38 C208 47 196 56 196 87 L196 330 C196 427 199 500 199 500 L161 500 L22 433 L22 416 L63 401 C89 391 94 368 94 299 L94 -65 Z M64 667 C64 625 97 592 139 592 C181 592 215 625 215 667 C215 709 181 743 139 743 C97 743 64 709 64 667 L64 667 Z " />
<glyph glyph-name="k" unicode="k" horiz-adv-x="574" d="M199 480 C199 599 202 755 202 755 L172 755 L26 720 L26 703 L67 688 C93 678 96 655 96 586 L96 81 C96 50 85 42 48 33 L18 26 L18 -5 L140 0 L277 -5 L277 26 L247 33 C210 42 199 50 199 81 L199 245 L246 245 C246 245 373 59 403 -2 L488 0 L566 -1 L566 30 L535 39 C505 47 493 56 477 80 L329 300 L435 395 C458 416 488 434 525 444 L552 451 L552 483 L422 478 L312 483 L312 446 L356 441 C386 437 391 416 370 394 C350 373 257 287 257 287 L199 287 L199 480 Z " />
<glyph glyph-name="l" unicode="l" horiz-adv-x="296" d="M200 451 C200 590 203 755 203 755 L173 755 L27 720 L27 703 L67 688 C94 678 97 655 97 586 L97 81 C97 50 85 41 48 33 L18 26 L18 -5 L148 0 L282 -5 L282 26 L248 33 C210 42 200 50 200 81 L200 451 Z " />
<glyph glyph-name="m" unicode="m" horiz-adv-x="910" d="M499 412 C476 465 429 493 356 493 C271 493 215 438 199 411 L190 413 L193 500 L165 500 L32 433 L32 416 L73 401 C100 391 103 371 103 302 L103 81 C103 52 89 45 54 33 L33 26 L33 -5 L153 0 L280 -5 L280 26 L250 33 C214 41 205 50 205 81 L205 276 C205 380 222 433 309 433 C406 433 411 339 411 266 L411 176 C411 65 406 48 362 33 L341 26 L341 -5 L463 0 L589 -5 L589 26 L561 33 C526 42 514 50 514 81 L514 279 C514 381 533 433 618 433 C715 433 720 339 720 266 L720 176 C720 65 713 44 671 33 L644 26 L644 -5 L771 0 L899 -5 L899 26 L869 33 C834 41 822 51 822 81 C822 81 824 243 824 328 C824 436 769 494 664 494 C581 494 525 443 508 411 L499 412 Z " />
<glyph glyph-name="n" unicode="n" horiz-adv-x="601" d="M205 285 C205 373 217 433 311 433 C352 433 379 416 394 389 C412 357 412 311 412 266 C412 211 411 118 410 103 C408 45 394 42 362 33 L334 26 L334 -5 L463 0 L590 -5 L590 26 L561 33 C525 42 513 50 513 81 C513 81 515 243 515 328 C515 436 461 494 355 494 C272 494 215 438 199 411 L190 413 L193 500 L165 500 L32 433 L32 416 L73 401 C100 391 103 371 103 302 L103 81 C103 50 89 45 54 33 L33 26 L33 -5 L155 0 L280 -5 L280 26 L250 33 C214 41 205 50 205 81 L205 285 Z " />
<glyph glyph-name="o" unicode="o" horiz-adv-x="565" d="M277 -15 C425 -15 525 89 525 244 C525 413 406 494 290 494 C136 494 40 382 40 235 C40 65 161 -15 277 -15 L277 -15 Z M285 24 C213 24 149 94 149 248 C149 336 174 454 281 454 C351 454 416 389 416 230 C416 142 392 24 285 24 L285 24 Z " />
<glyph glyph-name="p" unicode="p" horiz-adv-x="600" d="M304 425 C385 425 452 359 452 229 C452 87 392 27 305 27 C249 27 198 60 198 126 L198 339 C198 381 226 425 304 425 L304 425 Z M183 13 C204 2 251 -15 312 -15 C465 -15 560 112 560 246 C560 411 456 494 348 494 C285 494 224 465 194 412 L185 414 L188 500 L161 500 L23 433 L23 416 L64 401 C90 391 93 368 93 299 L93 -162 C93 -193 83 -202 47 -210 L17 -217 L17 -250 L147 -245 L291 -250 L291 -217 L246 -210 C210 -205 198 -193 198 -162 L198 -100 C198 -60 196 -19 183 13 L183 13 Z " />
<glyph glyph-name="q" unicode="q" horiz-adv-x="582" d="M408 64 C403 2 402 -14 402 -77 L402 -161 C402 -193 390 -204 354 -209 L309 -216 L309 -249 L453 -244 L583 -249 L583 -216 L552 -209 C517 -201 507 -192 507 -161 L507 266 C507 409 518 489 518 489 L495 494 C465 488 440 471 425 454 C383 481 334 494 281 494 C139 494 40 382 40 235 C40 72 134 -15 243 -15 C305 -15 360 6 400 65 L408 64 Z M295 61 C214 61 149 126 149 251 C149 341 184 454 293 454 C358 454 402 417 402 340 L402 143 C402 101 375 61 295 61 L295 61 Z " />
<glyph glyph-name="r" unicode="r" horiz-adv-x="430" d="M189 388 L193 500 L165 500 L32 433 L32 416 L73 401 C100 391 103 368 103 299 L103 81 C103 50 89 45 54 33 L33 26 L33 -5 L154 0 L298 -5 L298 26 L253 33 C217 39 205 50 205 81 L205 354 C214 362 268 393 286 402 C295 400 353 352 353 352 L366 352 C400 367 421 394 421 423 C421 457 396 489 344 489 C286 489 225 425 198 386 L189 388 Z " />
<glyph glyph-name="s" unicode="s" horiz-adv-x="431" d="M90 154 L52 153 C53 137 54 118 54 99 C54 63 52 28 51 13 C51 13 123 -15 208 -15 C302 -15 389 35 389 134 C389 299 145 274 145 387 C145 436 185 454 232 454 C263 454 295 441 301 422 L325 347 L362 349 C365 389 368 435 374 472 C342 486 278 494 230 494 C137 494 52 453 52 352 C52 195 296 223 296 101 C296 57 268 24 210 24 C156 24 129 54 118 82 L90 154 Z " />
<glyph glyph-name="t" unicode="t" horiz-adv-x="384" d="M159 609 C150 565 129 511 82 484 C58 470 27 458 10 457 L10 417 L99 417 L99 113 C99 27 155 -15 235 -15 C290 -15 352 10 373 62 L357 86 C343 63 299 47 277 47 C229 47 202 68 202 153 L202 424 L350 409 L357 469 L202 469 L202 608 L159 609 Z " />
<glyph glyph-name="u" unicode="u" horiz-adv-x="591" d="M492 127 L492 307 C492 391 498 484 498 484 L443 478 L317 473 L317 441 L348 435 C384 428 390 411 390 380 L390 207 C390 112 381 48 291 48 C206 48 189 107 189 222 C189 298 189 431 195 484 L140 478 L16 473 L16 441 L44 435 C78 427 87 411 87 380 C87 380 86 239 86 154 C86 46 135 -15 240 -15 C322 -15 371 39 387 65 L395 64 L393 -8 L423 -8 L571 16 L571 46 L537 51 C497 57 492 68 492 127 L492 127 Z " />
<glyph glyph-name="v" unicode="v" horiz-adv-x="540" d="M470 393 C482 422 488 431 523 443 L544 450 L544 482 L448 477 L351 482 L351 450 L374 443 C411 433 430 424 419 395 C391 318 308 100 303 91 L181 395 C170 423 184 436 219 443 L254 450 L254 482 L121 477 L-4 482 L-4 450 L17 443 C46 433 52 423 65 395 C169 164 238 -6 238 -6 L302 -6 C302 -6 372 157 470 393 L470 393 Z " />
<glyph glyph-name="w" unicode="w" horiz-adv-x="779" d="M390 475 C350 367 301 239 257 126 L180 393 C178 400 177 406 177 410 C177 430 192 438 217 443 L252 450 L252 482 L113 477 L-1 482 L-1 450 L19 443 C53 431 57 425 67 395 C137 187 195 -6 195 -6 L248 -6 C283 87 335 228 387 362 C439 224 525 -6 525 -6 L578 -6 C577 -6 661 262 708 395 C719 425 727 430 762 443 L781 450 L781 482 L686 477 L587 482 L587 450 L612 444 C640 437 664 425 656 394 C632 306 605 211 580 124 L448 475 L390 475 Z " />
<glyph glyph-name="x" unicode="x" horiz-adv-x="540" d="M110 395 L227 225 C163 147 107 80 107 80 C86 55 54 39 7 26 L7 -5 L101 0 L207 -5 L207 26 L183 33 C162 39 156 45 156 54 C156 63 156 70 180 102 C194 121 217 157 247 194 L330 73 C334 64 338 56 338 50 C338 42 333 36 318 33 L282 26 L282 -5 L424 0 L531 -5 L531 26 C479 41 462 49 440 81 C398 142 356 203 315 264 C372 334 424 395 424 395 C441 418 467 431 502 443 L522 450 L522 482 L426 477 L326 482 L326 450 L351 444 C371 439 378 433 378 422 C378 416 375 408 367 396 C367 396 332 342 292 293 L250 353 C223 390 217 405 217 421 C217 430 223 440 239 443 L270 450 L270 482 L126 477 L21 482 L21 450 L39 444 C79 431 89 423 110 395 L110 395 Z " />
<glyph glyph-name="y" unicode="y" horiz-adv-x="534" d="M93 -263 L190 -273 L467 394 C479 423 482 432 516 443 L537 450 L537 482 L442 477 L342 482 L342 450 L367 443 C395 435 414 428 414 409 C414 401 409 386 403 370 C363 258 326 162 296 91 C258 192 217 292 183 394 C174 420 186 435 221 443 L254 450 L254 482 L118 477 L-3 482 L-3 450 L17 443 C46 433 52 429 66 395 C122 259 187 93 228 -6 L250 -6 L93 -263 Z " />
<glyph glyph-name="z" unicode="z" horiz-adv-x="512" d="M160 0 C249 0 433 -3 459 -5 L477 170 L438 170 C406 56 380 40 329 40 L164 40 L460 451 L455 479 L140 479 C123 479 60 481 52 483 L52 320 L89 318 L99 356 C114 416 130 437 219 437 L328 437 L32 31 L32 -3 C49 -2 97 0 160 0 L160 0 Z " />
<glyph glyph-name="braceleft" unicode="&#x7b;" horiz-adv-x="366" d="M134 302 C222 346 240 414 240 472 L240 566 C240 646 247 729 339 729 L346 729 L338 768 C157 768 128 700 128 595 C128 543 140 467 140 402 C140 365 133 338 114 315 C77 337 54 341 46 341 C25 341 10 328 10 303 C10 278 25 264 46 264 C54 264 77 268 115 290 C134 267 139 239 139 195 C139 129 128 61 128 11 C128 -94 157 -162 338 -162 L346 -123 L339 -123 C247 -123 240 -38 240 39 L240 134 C240 190 222 262 134 302 L134 302 Z " />
<glyph glyph-name="bar" unicode="&#x7c;" horiz-adv-x="218" d="M89 813 L89 -197 L129 -197 L129 813 L89 813 Z " />
<glyph glyph-name="braceright" unicode="&#x7d;" horiz-adv-x="365" d="M231 302 C143 262 125 190 125 134 L125 39 C125 -38 118 -123 26 -123 L19 -123 L27 -162 C208 -162 237 -94 237 11 C237 61 226 129 226 195 C226 239 231 267 250 290 C288 268 311 264 319 264 C340 264 355 278 355 303 C355 328 340 341 319 341 C311 341 288 337 251 315 C232 338 225 365 225 402 C225 467 237 543 237 595 C237 700 208 768 27 768 L19 729 L26 729 C118 729 125 646 125 566 L125 472 C125 414 143 346 231 302 L231 302 Z " />
<glyph glyph-name="asciitilde" unicode="&#x7e;" horiz-adv-x="590" d="M180 372 C251 372 332 295 414 295 C475 295 527 333 527 411 L486 411 C483 364 457 345 417 345 C343 345 261 424 183 424 C122 424 71 379 71 301 L111 301 C114 351 141 372 180 372 L180 372 Z " />
<glyph glyph-name="exclamdown" unicode="&#xa1;" horiz-adv-x="302" d="M133 238 C124 74 77 -84 77 -167 C77 -218 98 -251 151 -251 C200 -251 223 -221 223 -173 C223 -87 178 69 168 238 L133 238 Z M67 395 C67 349 105 311 151 311 C198 311 235 349 235 395 C235 441 198 479 151 479 C105 479 67 441 67 395 L67 395 Z " />
<glyph glyph-name="cent" unicode="&#xa2;" horiz-adv-x="590" d="M149 -144 L214 5 C245 -8 277 -15 309 -15 C380 -15 462 9 509 96 L488 124 C468 86 416 57 360 57 C323 57 285 69 255 95 L384 392 L386 336 L413 322 C450 327 491 350 491 398 C491 420 473 456 424 477 L484 613 L451 626 L389 487 C372 491 352 494 329 494 C188 494 87 381 87 234 C87 129 128 61 184 22 L116 -131 L149 -144 Z M195 251 C195 388 254 454 328 454 C351 454 362 450 369 443 L230 125 C209 155 195 196 195 251 L195 251 Z " />
<glyph glyph-name="sterling" unicode="&#xa3;" horiz-adv-x="590" d="M287 431 C287 445 289 458 290 470 C302 600 325 661 384 661 C435 661 469 590 476 590 C516 590 554 650 554 677 C554 711 479 721 444 721 C315 721 179 647 176 431 L51 431 L51 390 L172 390 L167 281 L51 281 L51 240 L165 240 C161 156 148 110 136 85 C130 86 110 88 103 88 C51 88 30 59 30 33 C30 10 47 -11 77 -11 C98 -11 128 -1 152 48 C233 13 285 -35 368 -35 C477 -35 532 45 549 88 L533 114 C499 74 451 68 408 68 C351 68 294 91 229 91 C210 91 189 91 169 86 C229 135 253 181 265 240 L476 240 L476 281 L272 281 C277 317 280 351 284 390 L476 390 L476 431 L287 431 Z " />
<glyph glyph-name="currency" unicode="&#xa4;" horiz-adv-x="594" d="M134 359 C134 454 204 531 297 531 C390 531 460 454 460 359 C460 264 390 187 297 187 C204 187 134 264 134 359 L134 359 Z M502 359 C502 408 485 454 456 491 L529 566 L500 597 L426 521 C391 551 346 568 297 568 C248 568 203 551 168 521 L94 597 L65 566 L138 491 C109 454 92 408 92 359 C92 310 109 264 138 227 L65 152 L94 121 L168 197 C203 167 248 150 297 150 C346 150 391 167 426 197 L500 121 L529 152 L456 227 C485 264 502 310 502 359 L502 359 Z " />
<glyph glyph-name="yen" unicode="&#xa5;" horiz-adv-x="590" d="M49 274 L49 232 L242 232 L242 91 C242 60 232 50 198 43 L151 33 L151 -5 L296 0 L443 -5 L443 33 L395 43 C362 50 351 60 351 91 L351 232 L538 232 L538 274 L352 274 L409 382 L538 382 L538 424 L430 424 L531 609 C546 635 556 649 584 656 L621 665 L621 705 L524 700 L384 705 L384 666 L431 656 C465 649 480 632 466 605 L329 325 L189 608 C175 635 191 649 224 656 L273 666 L273 705 L110 700 L-30 705 L-30 665 L5 656 C33 649 46 634 60 608 L158 424 L49 424 L49 382 L180 382 L239 274 L49 274 Z " />
<glyph glyph-name="brokenbar" unicode="&#xa6;" horiz-adv-x="220" d="M130 358 L130 813 L90 813 L90 358 L130 358 Z M90 253 L90 -197 L130 -197 L130 253 L90 253 Z " />
<glyph glyph-name="section" unicode="&#xa7;" horiz-adv-x="590" d="M542 653 C541 706 497 840 321 840 C189 840 52 746 52 544 C52 340 218 131 282 51 L312 69 C261 141 177 349 177 537 C177 680 244 777 354 777 C456 777 495 697 501 643 L542 653 Z M46 12 C47 -40 91 -176 273 -176 C410 -176 536 -70 536 122 C536 324 374 534 306 614 L275 597 C326 524 410 315 410 127 C410 -17 343 -112 235 -112 C132 -112 94 -32 87 23 L46 12 Z " />
<glyph glyph-name="dieresis" unicode="&#xa8;" horiz-adv-x="405" d="M35 643 C35 603 66 572 106 572 C146 572 178 603 178 643 C178 683 146 715 106 715 C66 715 35 683 35 643 L35 643 Z M227 643 C227 603 258 572 298 572 C338 572 370 603 370 643 C370 683 338 715 298 715 C258 715 227 683 227 643 L227 643 Z " />
<glyph glyph-name="copyright" unicode="&#xa9;" horiz-adv-x="915" d="M47 352 C47 122 226 -56 456 -56 C688 -56 868 122 868 352 C868 581 688 760 456 760 C226 760 47 581 47 352 L47 352 Z M98 352 C98 559 255 716 456 716 C659 716 817 559 817 352 C817 144 659 -12 456 -12 C255 -12 98 144 98 352 L98 352 Z M330 360 C330 492 395 564 477 564 C521 564 541 559 541 514 L541 455 L562 437 C602 442 636 469 636 512 C636 543 597 604 477 604 C331 604 234 490 234 343 C234 172 340 97 454 97 C523 97 603 121 651 210 L630 240 C630 240 596 163 495 163 C408 163 330 214 330 360 L330 360 Z " />
<glyph glyph-name="ordfeminine" unicode="&#xaa;" horiz-adv-x="442" d="M159 335 C220 335 251 371 261 393 C268 357 297 335 336 335 C369 335 396 352 409 379 L401 394 C391 388 376 384 364 384 C345 384 330 396 331 434 C331 463 334 549 334 589 C334 668 290 714 209 714 C115 714 59 678 59 639 C59 607 85 592 119 587 L136 600 L136 655 C136 676 145 681 164 681 C216 681 255 676 255 579 L255 551 C139 540 54 504 54 430 C54 381 88 335 159 335 L159 335 Z M190 381 C156 381 130 407 130 443 C130 482 160 515 255 529 L255 478 C255 412 244 381 190 381 L190 381 Z " />
<glyph glyph-name="guillemotleft" unicode="&#xab;" horiz-adv-x="572" d="M177 361 L308 637 L275 637 L37 355 L275 73 L308 73 L177 349 L177 361 Z M392 361 L523 637 L490 637 L252 355 L490 73 L523 73 L392 349 L392 361 Z " />
<glyph glyph-name="logicalnot" unicode="&#xac;" horiz-adv-x="590" d="M480 247 L526 247 L526 468 L64 468 L64 424 L480 424 L480 247 Z " />
<glyph glyph-name="uni00AD" unicode="&#xad;" horiz-adv-x="373" d="" />
<glyph glyph-name="registered" unicode="&#xae;" horiz-adv-x="915" d="M47 352 C47 122 226 -55 456 -55 C688 -55 868 122 868 352 C868 581 688 760 456 760 C226 760 47 581 47 352 L47 352 Z M304 348 C304 239 302 175 302 171 C301 152 293 143 269 139 L231 132 L231 105 L356 108 L465 105 L465 132 L428 139 C403 144 396 148 395 171 C392 250 392 323 392 323 C413 323 433 322 454 322 C470 298 510 226 541 180 C577 126 614 96 716 96 C652 29 560 -11 456 -11 C255 -11 98 144 98 352 C98 559 255 716 456 716 C659 716 817 559 817 352 C817 265 790 189 744 128 C688 134 650 183 609 241 L541 340 L541 343 C602 369 639 414 639 468 C639 571 554 595 493 595 C450 595 392 589 390 589 L231 591 L231 565 L269 557 C292 552 299 547 302 525 C302 525 304 460 304 348 L304 348 Z M434 561 C496 561 545 528 545 461 C545 384 496 354 469 354 C427 354 410 357 393 360 L393 553 C393 558 394 561 403 561 L434 561 Z " />
<glyph glyph-name="macron" unicode="&#xaf;" horiz-adv-x="434" d="M364 581 L364 645 L69 645 L69 581 L364 581 Z " />
<glyph glyph-name="degree" unicode="&#xb0;" horiz-adv-x="420" d="M210 706 C118 706 43 637 43 539 C43 439 118 371 210 371 C301 371 377 439 377 539 C377 637 301 706 210 706 L210 706 Z M210 420 C147 420 100 472 100 539 C100 605 147 657 210 657 C273 657 320 605 320 539 C320 472 273 420 210 420 L210 420 Z " />
<glyph glyph-name="plusminus" unicode="&#xb1;" horiz-adv-x="590" d="M60 335 L270 335 L270 119 L320 119 L320 335 L529 335 L529 383 L320 383 L320 598 L270 598 L270 383 L60 383 L60 335 Z M529 0 L529 47 L60 47 L60 0 L529 0 Z " />
<glyph glyph-name="twosuperior" unicode="&#xb2;" horiz-adv-x="375" d="M42 311 L154 311 C241 311 321 310 321 310 L330 383 L127 379 C128 380 228 471 244 483 C307 538 324 567 324 611 C324 679 256 717 182 717 C87 717 42 669 42 631 C42 603 74 582 108 581 L129 598 L129 663 C129 677 143 680 155 680 C209 680 240 644 240 598 C240 569 238 541 185 483 C144 438 42 347 42 347 L42 311 Z " />
<glyph glyph-name="threesuperior" unicode="&#xb3;" horiz-adv-x="375" d="M155 300 C246 300 330 348 330 436 C330 502 275 530 228 539 C284 555 311 589 311 625 C311 690 250 717 189 717 C135 717 77 691 55 668 L70 639 C94 658 132 671 162 671 C210 671 236 646 236 611 C236 558 176 536 100 536 L104 496 C124 498 142 498 154 498 C206 498 251 482 251 419 C251 369 208 335 155 335 C142 335 124 336 124 342 C124 364 123 386 123 408 L104 423 C71 421 39 398 39 369 C39 330 76 300 155 300 L155 300 Z " />
<glyph glyph-name="acute" unicode="&#xb4;" horiz-adv-x="405" d="M94 558 L135 552 L315 741 L178 741 L94 558 Z " />
<glyph glyph-name="mu" unicode="&#xb5;" horiz-adv-x="591" d="M133 -244 C132 -154 132 -64 132 25 C155 0 194 -15 242 -15 C324 -15 371 40 387 66 L396 64 L393 -8 L423 -8 L572 16 L572 46 L538 51 C483 59 493 105 493 171 C493 342 498 484 498 484 L443 478 L317 473 L317 441 L348 435 C383 428 390 411 390 380 L390 207 C390 112 381 48 291 48 C205 48 189 109 189 222 C189 298 189 431 195 484 L140 478 L16 473 L16 441 L44 435 C79 427 87 411 87 380 C87 344 85 231 85 151 C82 -45 60 -188 50 -244 L133 -244 Z " />
<glyph glyph-name="paragraph" unicode="&#xb6;" horiz-adv-x="684" d="M112 -156 C112 -230 180 -259 232 -259 C349 -259 373 -170 373 -89 L373 615 C373 643 387 654 417 654 L526 654 L526 -197 L574 -197 L574 700 L322 700 C146 700 49 587 49 463 C49 345 126 227 302 227 L324 227 L324 -97 C324 -195 282 -221 227 -221 L226 -214 C247 -203 262 -176 262 -152 C262 -110 230 -80 187 -80 C145 -80 112 -114 112 -156 L112 -156 Z " />
<glyph glyph-name="periodcentered" unicode="&#xb7;" horiz-adv-x="265" d="M55 358 C55 315 89 281 132 281 C175 281 210 315 210 358 C210 401 175 436 132 436 C89 436 55 401 55 358 L55 358 Z " />
<glyph glyph-name="cedilla" unicode="&#xb8;" horiz-adv-x="405" d="M219 17 L94 -84 C121 -90 224 -116 224 -176 C224 -221 189 -236 149 -236 C122 -236 98 -229 82 -222 L75 -252 C103 -266 150 -278 192 -278 C263 -278 330 -244 330 -168 C330 -78 233 -62 190 -61 L250 9 L219 17 Z " />
<glyph glyph-name="onesuperior" unicode="&#xb9;" horiz-adv-x="375" d="M193 707 L74 664 L74 625 L159 643 L159 370 C159 361 157 354 146 353 L86 346 L86 311 L198 314 L315 311 L315 346 L254 353 C244 354 243 361 243 370 L243 707 L193 707 Z " />
<glyph glyph-name="ordmasculine" unicode="&#xba;" horiz-adv-x="445" d="M218 336 C326 336 401 412 401 528 C401 651 316 715 226 715 C113 715 45 633 45 522 C45 395 135 336 218 336 L218 336 Z M224 366 C173 366 126 419 126 533 C126 597 141 685 222 685 C273 685 320 636 320 518 C320 454 305 366 224 366 L224 366 Z " />
<glyph glyph-name="guillemotright" unicode="&#xbb;" horiz-adv-x="572" d="M393 349 L264 73 L296 73 L534 355 L296 637 L264 637 L393 361 L393 349 Z M178 349 L49 73 L81 73 L319 355 L81 637 L49 637 L178 361 L178 349 Z " />
<glyph glyph-name="onequarter" unicode="&#xbc;" horiz-adv-x="1020" d="M773 55 C773 43 769 38 756 35 L719 27 L719 -3 L812 0 L907 -3 L907 27 L871 35 C858 38 854 43 854 55 L854 112 L912 112 L912 152 L854 152 C854 186 855 229 855 256 L768 254 C769 242 773 206 773 176 L773 152 L635 152 C696 237 846 413 846 413 L774 421 C717 342 597 177 586 156 L586 112 L773 112 L773 55 Z M220 707 L101 664 L101 625 L186 643 L186 370 C186 361 184 354 173 353 L113 346 L113 311 L225 314 L342 311 L342 346 L281 353 C271 354 270 361 270 370 L270 707 L220 707 Z M185 17 L213 -8 L838 698 L811 723 L185 17 Z " />
<glyph glyph-name="onehalf" unicode="&#xbd;" horiz-adv-x="1020" d="M185 17 L213 -8 L838 698 L811 723 L185 17 Z M220 707 L101 664 L101 625 L186 643 L186 370 C186 361 184 354 173 353 L113 346 L113 311 L225 314 L342 311 L342 346 L281 353 C271 354 270 361 270 370 L270 707 L220 707 Z M629 0 L741 0 C828 0 908 -1 908 -1 L917 72 L714 68 C715 69 815 160 831 172 C894 227 911 256 911 300 C911 368 843 406 769 406 C674 406 629 358 629 320 C629 292 661 271 695 270 L716 287 L716 352 C716 366 730 369 742 369 C796 369 827 333 827 287 C827 258 825 230 772 172 C731 127 629 36 629 36 L629 0 Z " />
<glyph glyph-name="threequarters" unicode="&#xbe;" horiz-adv-x="1020" d="M228 300 C319 300 403 348 403 436 C403 502 348 530 301 539 C357 555 384 589 384 625 C384 690 323 717 262 717 C208 717 150 691 128 668 L143 639 C167 658 205 671 235 671 C283 671 309 646 309 611 C309 558 249 536 173 536 L177 496 C197 498 215 498 227 498 C279 498 324 482 324 419 C324 369 281 335 228 335 C215 335 197 336 197 342 C197 364 196 386 196 408 L177 423 C144 421 112 398 112 369 C112 330 149 300 228 300 L228 300 Z M772 55 C772 43 768 38 755 35 L718 27 L718 -3 L811 0 L906 -3 L906 27 L870 35 C857 38 853 43 853 55 L853 112 L911 112 L911 152 L853 152 C853 186 854 229 854 256 L767 254 C768 242 772 206 772 176 L772 152 L634 152 C695 237 845 413 845 413 L773 421 C716 342 596 177 585 156 L585 112 L772 112 L772 55 Z M185 17 L213 -8 L838 698 L811 723 L185 17 Z " />
<glyph glyph-name="questiondown" unicode="&#xbf;" horiz-adv-x="447" d="M256 -216 C183 -216 159 -164 159 -106 C159 -2 289 62 296 165 C294 175 269 230 255 241 L230 243 C232 231 235 216 235 201 C235 130 39 46 39 -96 C39 -197 121 -251 237 -251 C362 -251 416 -190 416 -141 C416 -97 379 -63 333 -61 L309 -78 L310 -186 C310 -210 284 -216 256 -216 L256 -216 Z M327 395 C327 441 289 479 243 479 C197 479 159 441 159 395 C159 349 197 311 243 311 C289 311 327 349 327 395 L327 395 Z " />
<glyph glyph-name="Agrave" unicode="&#xc0;" horiz-adv-x="757" d="M465 288 C465 288 518 148 539 92 C550 63 534 51 498 44 L444 34 L444 -5 L607 0 L769 -5 L769 34 L719 44 C688 50 679 63 667 92 C527 431 417 726 417 726 L331 707 C331 707 203 370 92 91 C80 62 68 50 37 44 L-13 34 L-13 -5 L101 0 L250 -5 L250 34 L194 44 C158 51 144 63 155 92 C155 92 178 162 223 288 L465 288 Z M450 334 L239 334 L344 620 L450 334 Z M393 953 L254 953 L436 764 L476 770 L393 953 Z " />
<glyph glyph-name="Aacute" unicode="&#xc1;" horiz-adv-x="757" d="M465 288 C465 288 518 148 539 92 C550 63 534 51 498 44 L444 34 L444 -5 L607 0 L769 -5 L769 34 L719 44 C688 50 679 63 667 92 C527 431 417 726 417 726 L331 707 C331 707 203 370 92 91 C80 62 68 50 37 44 L-13 34 L-13 -5 L101 0 L250 -5 L250 34 L194 44 C158 51 144 63 155 92 C155 92 178 162 223 288 L465 288 Z M450 334 L239 334 L344 620 L450 334 Z M279 770 L320 764 L500 953 L363 953 L279 770 Z " />
<glyph glyph-name="Acircumflex" unicode="&#xc2;" horiz-adv-x="757" d="M465 288 C465 288 518 148 539 92 C550 63 534 51 498 44 L444 34 L444 -5 L607 0 L769 -5 L769 34 L719 44 C688 50 679 63 667 92 C527 431 417 726 417 726 L331 707 C331 707 203 370 92 91 C80 62 68 50 37 44 L-13 34 L-13 -5 L101 0 L250 -5 L250 34 L194 44 C158 51 144 63 155 92 C155 92 178 162 223 288 L465 288 Z M450 334 L239 334 L344 620 L450 334 Z M215 778 L240 761 L376 868 L378 868 L518 760 L539 778 L404 959 L348 959 L215 778 Z " />
<glyph glyph-name="Atilde" unicode="&#xc3;" horiz-adv-x="757" d="M465 288 C465 288 518 148 539 92 C550 63 534 51 498 44 L444 34 L444 -5 L607 0 L769 -5 L769 34 L719 44 C688 50 679 63 667 92 C527 431 417 726 417 726 L331 707 C331 707 203 370 92 91 C80 62 68 50 37 44 L-13 34 L-13 -5 L101 0 L250 -5 L250 34 L194 44 C158 51 144 63 155 92 C155 92 178 162 223 288 L465 288 Z M450 334 L239 334 L344 620 L450 334 Z M466 870 C429 870 361 907 318 907 C256 907 222 847 211 794 L234 783 C251 817 273 825 297 825 C321 825 391 790 430 790 C505 790 531 843 545 902 L523 913 C506 878 493 870 466 870 L466 870 Z " />
<glyph glyph-name="Adieresis" unicode="&#xc4;" horiz-adv-x="757" d="M465 288 C465 288 518 148 539 92 C550 63 534 51 498 44 L444 34 L444 -5 L607 0 L769 -5 L769 34 L719 44 C688 50 679 63 667 92 C527 431 417 726 417 726 L331 707 C331 707 203 370 92 91 C80 62 68 50 37 44 L-13 34 L-13 -5 L101 0 L250 -5 L250 34 L194 44 C158 51 144 63 155 92 C155 92 178 162 223 288 L465 288 Z M450 334 L239 334 L344 620 L450 334 Z M208 855 C208 815 239 784 279 784 C319 784 351 815 351 855 C351 895 319 927 279 927 C239 927 208 895 208 855 L208 855 Z M400 855 C400 815 431 784 471 784 C511 784 543 815 543 855 C543 895 511 927 471 927 C431 927 400 895 400 855 L400 855 Z " />
<glyph glyph-name="Aring" unicode="&#xc5;" horiz-adv-x="757" d="M277 791 C277 851 314 896 376 896 C438 896 476 851 476 791 C476 731 438 686 376 686 C314 686 277 731 277 791 L277 791 Z M524 791 C524 875 459 937 376 937 C295 937 229 875 229 791 C229 730 263 681 312 658 C273 555 177 306 92 91 C80 62 68 50 37 44 L-13 34 L-13 -5 L101 0 L250 -5 L250 34 L194 44 C158 51 144 63 155 92 C155 92 178 162 223 288 L465 288 C465 288 518 148 539 92 C550 63 534 51 498 44 L444 34 L444 -5 L607 0 L769 -5 L769 34 L719 44 C688 50 679 63 667 92 C567 334 482 553 442 659 C491 682 524 731 524 791 L524 791 Z M450 334 L239 334 L344 620 L450 334 Z " />
<glyph glyph-name="AE" unicode="&#xc6;" horiz-adv-x="1040" d="M772 0 C831 0 968 -5 968 -5 L999 212 L962 212 L917 128 C878 56 843 48 793 48 L672 48 C622 48 601 68 600 111 L600 336 C620 336 682 335 730 334 C760 333 775 319 784 282 L797 227 L836 227 L831 359 L836 488 L797 488 L784 433 C775 396 761 383 730 382 C682 381 620 380 600 380 L600 624 C600 651 601 652 630 652 L814 652 C855 652 871 616 889 554 L902 508 L941 508 C947 613 952 677 954 711 C954 711 860 700 802 700 L547 700 L376 705 L376 666 L416 659 C336 516 189 248 99 90 C74 47 22 41 -24 33 L-24 -5 L88 0 L255 -5 L255 33 L197 43 C172 47 160 55 160 68 C160 73 162 82 166 90 L267 290 L488 290 C488 210 486 142 486 91 C486 60 475 50 439 43 L385 33 L385 -5 L547 0 L772 0 Z M487 619 C487 566 488 480 488 386 L488 336 L290 336 L465 651 C481 647 487 638 487 619 L487 619 Z " />
<glyph glyph-name="Ccedilla" unicode="&#xc7;" horiz-adv-x="740" d="M171 375 C171 588 299 665 428 665 C515 665 578 631 604 552 L625 489 L662 489 C668 562 680 665 683 700 L605 688 C572 698 506 715 426 715 C203 715 50 551 50 346 C50 156 165 17 352 -10 L261 -84 C288 -90 391 -116 391 -176 C391 -221 356 -236 316 -236 C289 -236 265 -229 249 -222 L242 -252 C270 -266 317 -278 359 -278 C430 -278 497 -244 497 -168 C497 -78 400 -62 357 -61 L397 -14 C404 -15 411 -15 419 -15 C555 -15 660 32 682 42 C682 142 686 220 686 220 L646 220 L587 64 C547 53 512 49 474 49 C283 49 171 174 171 375 L171 375 Z " />
<glyph glyph-name="Egrave" unicode="&#xc8;" horiz-adv-x="698" d="M258 380 L258 636 C258 646 259 652 276 652 L471 652 C511 652 530 617 547 554 L559 508 L598 508 C608 650 616 711 616 711 C616 711 517 700 459 700 L199 700 L42 705 L42 666 L95 656 C132 649 141 641 144 607 C144 607 147 514 147 349 C147 184 144 92 144 92 C144 62 132 51 95 44 L42 34 L42 -5 L199 0 L429 0 C488 0 625 -5 625 -5 C629 31 653 194 656 212 L619 212 L574 128 C536 56 500 48 450 48 L332 48 C282 48 258 68 258 111 L258 336 C258 336 331 336 389 333 C420 331 434 319 443 282 L456 227 L495 227 L490 359 L495 489 L456 489 L443 434 C434 397 421 385 389 383 C331 380 258 380 258 380 L258 380 Z M367 953 L228 953 L410 764 L450 770 L367 953 Z " />
<glyph glyph-name="Eacute" unicode="&#xc9;" horiz-adv-x="698" d="M258 380 L258 636 C258 646 259 652 276 652 L471 652 C511 652 530 617 547 554 L559 508 L598 508 C608 650 616 711 616 711 C616 711 517 700 459 700 L199 700 L42 705 L42 666 L95 656 C132 649 141 641 144 607 C144 607 147 514 147 349 C147 184 144 92 144 92 C144 62 132 51 95 44 L42 34 L42 -5 L199 0 L429 0 C488 0 625 -5 625 -5 C629 31 653 194 656 212 L619 212 L574 128 C536 56 500 48 450 48 L332 48 C282 48 258 68 258 111 L258 336 C258 336 331 336 389 333 C420 331 434 319 443 282 L456 227 L495 227 L490 359 L495 489 L456 489 L443 434 C434 397 421 385 389 383 C331 380 258 380 258 380 L258 380 Z M265 770 L306 764 L486 953 L349 953 L265 770 Z " />
<glyph glyph-name="Ecircumflex" unicode="&#xca;" horiz-adv-x="698" d="M258 380 L258 636 C258 646 259 652 276 652 L471 652 C511 652 530 617 547 554 L559 508 L598 508 C608 650 616 711 616 711 C616 711 517 700 459 700 L199 700 L42 705 L42 666 L95 656 C132 649 141 641 144 607 C144 607 147 514 147 349 C147 184 144 92 144 92 C144 62 132 51 95 44 L42 34 L42 -5 L199 0 L429 0 C488 0 625 -5 625 -5 C629 31 653 194 656 212 L619 212 L574 128 C536 56 500 48 450 48 L332 48 C282 48 258 68 258 111 L258 336 C258 336 331 336 389 333 C420 331 434 319 443 282 L456 227 L495 227 L490 359 L495 489 L456 489 L443 434 C434 397 421 385 389 383 C331 380 258 380 258 380 L258 380 Z M190 778 L215 761 L351 868 L353 868 L493 760 L514 778 L379 959 L323 959 L190 778 Z " />
<glyph glyph-name="Edieresis" unicode="&#xcb;" horiz-adv-x="698" d="M258 380 L258 636 C258 646 259 652 276 652 L471 652 C511 652 530 617 547 554 L559 508 L598 508 C608 650 616 711 616 711 C616 711 517 700 459 700 L199 700 L42 705 L42 666 L95 656 C132 649 141 641 144 607 C144 607 147 514 147 349 C147 184 144 92 144 92 C144 62 132 51 95 44 L42 34 L42 -5 L199 0 L429 0 C488 0 625 -5 625 -5 C629 31 653 194 656 212 L619 212 L574 128 C536 56 500 48 450 48 L332 48 C282 48 258 68 258 111 L258 336 C258 336 331 336 389 333 C420 331 434 319 443 282 L456 227 L495 227 L490 359 L495 489 L456 489 L443 434 C434 397 421 385 389 383 C331 380 258 380 258 380 L258 380 Z M185 855 C185 815 216 784 256 784 C296 784 328 815 328 855 C328 895 296 927 256 927 C216 927 185 895 185 855 L185 855 Z M377 855 C377 815 408 784 448 784 C488 784 520 815 520 855 C520 895 488 927 448 927 C408 927 377 895 377 855 L377 855 Z " />
<glyph glyph-name="Igrave" unicode="&#xcc;" horiz-adv-x="404" d="M261 608 C262 638 272 649 309 656 L362 666 L362 705 L202 700 L42 705 L42 666 L95 656 C132 649 143 638 144 608 C144 608 147 520 147 355 C147 190 144 92 144 92 C143 62 132 51 95 44 L42 34 L42 -5 L202 0 L362 -5 L362 34 L309 44 C272 51 262 62 261 92 C261 92 258 190 258 355 C258 520 261 608 261 608 L261 608 Z M219 953 L80 953 L262 764 L302 770 L219 953 Z " />
<glyph glyph-name="Iacute" unicode="&#xcd;" horiz-adv-x="404" d="M261 608 C262 638 272 649 309 656 L362 666 L362 705 L202 700 L42 705 L42 666 L95 656 C132 649 143 638 144 608 C144 608 147 520 147 355 C147 190 144 92 144 92 C143 62 132 51 95 44 L42 34 L42 -5 L202 0 L362 -5 L362 34 L309 44 C272 51 262 62 261 92 C261 92 258 190 258 355 C258 520 261 608 261 608 L261 608 Z M102 770 L143 764 L323 953 L186 953 L102 770 Z " />
<glyph glyph-name="Icircumflex" unicode="&#xce;" horiz-adv-x="404" d="M261 608 C262 638 272 649 309 656 L362 666 L362 705 L202 700 L42 705 L42 666 L95 656 C132 649 143 638 144 608 C144 608 147 520 147 355 C147 190 144 92 144 92 C143 62 132 51 95 44 L42 34 L42 -5 L202 0 L362 -5 L362 34 L309 44 C272 51 262 62 261 92 C261 92 258 190 258 355 C258 520 261 608 261 608 L261 608 Z M40 778 L65 761 L201 868 L203 868 L343 760 L364 778 L229 959 L173 959 L40 778 Z " />
<glyph glyph-name="Idieresis" unicode="&#xcf;" horiz-adv-x="404" d="M261 608 C262 638 272 649 309 656 L362 666 L362 705 L202 700 L42 705 L42 666 L95 656 C132 649 143 638 144 608 C144 608 147 520 147 355 C147 190 144 92 144 92 C143 62 132 51 95 44 L42 34 L42 -5 L202 0 L362 -5 L362 34 L309 44 C272 51 262 62 261 92 C261 92 258 190 258 355 C258 520 261 608 261 608 L261 608 Z M35 855 C35 815 66 784 106 784 C146 784 178 815 178 855 C178 895 146 927 106 927 C66 927 35 895 35 855 L35 855 Z M227 855 C227 815 258 784 298 784 C338 784 370 815 370 855 C370 895 338 927 298 927 C258 927 227 895 227 855 L227 855 Z " />
<glyph glyph-name="Eth" unicode="&#xd0;" horiz-adv-x="848" d="M194 0 C226 -3 367 -8 386 -8 C666 -8 796 150 796 358 C796 544 676 710 423 710 C388 710 291 708 194 700 L42 705 L42 666 L95 656 C132 649 143 641 144 607 C144 607 146 525 147 381 L57 381 L57 335 L147 335 C147 179 144 92 144 92 C143 62 132 51 95 44 L42 34 L42 -5 L194 0 Z M374 662 C579 662 670 541 670 337 C670 82 516 35 401 35 C302 35 259 41 259 111 L259 335 L476 335 L476 381 L259 381 L259 646 C259 656 260 662 277 662 L374 662 Z " />
<glyph glyph-name="Ntilde" unicode="&#xd1;" horiz-adv-x="866" d="M149 607 C149 540 141 155 139 92 C138 61 127 51 90 44 L37 34 L37 -5 L162 0 L300 -5 L300 34 L246 44 C210 51 198 61 198 92 C198 226 197 620 197 620 C197 620 381 384 665 -5 L729 -5 C729 82 735 607 735 607 C735 639 746 649 783 656 L836 666 L836 705 L707 700 L573 705 L573 666 L627 656 C663 649 674 639 675 607 C680 413 685 160 685 160 L335 629 C312 659 293 705 293 705 L183 700 L51 705 L51 666 L101 656 C138 649 149 638 149 607 L149 607 Z M512 870 C475 870 407 907 364 907 C302 907 268 847 257 794 L280 783 C297 817 319 825 343 825 C367 825 437 790 476 790 C551 790 577 843 591 902 L569 913 C552 878 539 870 512 870 L512 870 Z " />
<glyph glyph-name="Ograve" unicode="&#xd2;" horiz-adv-x="831" d="M420 34 C291 34 173 135 173 363 C173 493 230 665 412 665 C542 665 657 563 657 336 C657 206 601 34 420 34 L420 34 Z M424 715 C196 714 51 556 51 343 C51 100 241 -15 407 -15 C633 -15 779 141 779 354 C779 595 597 715 424 715 L424 715 Z M432 953 L293 953 L475 764 L515 770 L432 953 Z " />
<glyph glyph-name="Oacute" unicode="&#xd3;" horiz-adv-x="831" d="M420 34 C291 34 173 135 173 363 C173 493 230 665 412 665 C542 665 657 563 657 336 C657 206 601 34 420 34 L420 34 Z M424 715 C196 714 51 556 51 343 C51 100 241 -15 407 -15 C633 -15 779 141 779 354 C779 595 597 715 424 715 L424 715 Z M322 770 L363 764 L543 953 L406 953 L322 770 Z " />
<glyph glyph-name="Ocircumflex" unicode="&#xd4;" horiz-adv-x="831" d="M420 34 C291 34 173 135 173 363 C173 493 230 665 412 665 C542 665 657 563 657 336 C657 206 601 34 420 34 L420 34 Z M424 715 C196 714 51 556 51 343 C51 100 241 -15 407 -15 C633 -15 779 141 779 354 C779 595 597 715 424 715 L424 715 Z M252 778 L277 761 L413 868 L415 868 L555 760 L576 778 L441 959 L385 959 L252 778 Z " />
<glyph glyph-name="Otilde" unicode="&#xd5;" horiz-adv-x="831" d="M420 34 C291 34 173 135 173 363 C173 493 230 665 412 665 C542 665 657 563 657 336 C657 206 601 34 420 34 L420 34 Z M424 715 C196 714 51 556 51 343 C51 100 241 -15 407 -15 C633 -15 779 141 779 354 C779 595 597 715 424 715 L424 715 Z M502 870 C465 870 397 907 354 907 C292 907 258 847 247 794 L270 783 C287 817 309 825 333 825 C357 825 427 790 466 790 C541 790 567 843 581 902 L559 913 C542 878 529 870 502 870 L502 870 Z " />
<glyph glyph-name="Odieresis" unicode="&#xd6;" horiz-adv-x="831" d="M420 34 C291 34 173 135 173 363 C173 493 230 665 412 665 C542 665 657 563 657 336 C657 206 601 34 420 34 L420 34 Z M424 715 C196 714 51 556 51 343 C51 100 241 -15 407 -15 C633 -15 779 141 779 354 C779 595 597 715 424 715 L424 715 Z M247 855 C247 815 278 784 318 784 C358 784 390 815 390 855 C390 895 358 927 318 927 C278 927 247 895 247 855 L247 855 Z M439 855 C439 815 470 784 510 784 C550 784 582 815 582 855 C582 895 550 927 510 927 C470 927 439 895 439 855 L439 855 Z " />
<glyph glyph-name="multiply" unicode="&#xd7;" horiz-adv-x="590" d="M487 132 L518 164 L328 360 L512 549 L479 582 L295 393 L105 589 L72 556 L263 361 L72 165 L105 133 L295 328 L487 132 Z " />
<glyph glyph-name="Oslash" unicode="&#xd8;" horiz-adv-x="831" d="M424 715 C196 714 51 556 51 343 C51 214 103 122 178 63 L85 -61 L120 -87 L213 38 C273 2 342 -15 407 -15 C633 -15 779 141 779 354 C779 480 729 573 657 633 L745 750 L710 775 L622 658 C563 696 492 715 424 715 L424 715 Z M173 363 C173 493 230 665 412 665 C473 665 531 642 574 594 L232 135 C195 188 173 263 173 363 L173 363 Z M420 34 C360 34 304 55 259 100 L601 558 C636 505 657 431 657 336 C657 206 601 34 420 34 L420 34 Z " />
<glyph glyph-name="Ugrave" unicode="&#xd9;" horiz-adv-x="840" d="M243 607 C243 639 255 649 292 656 L344 666 L344 705 L183 700 L25 705 L25 666 L79 656 C115 649 127 639 127 607 L127 240 C127 73 238 -15 420 -15 C609 -15 712 86 712 266 C712 266 714 526 714 607 C714 639 726 649 763 656 L816 666 L816 705 L687 700 L554 705 L554 666 L608 656 C644 649 656 639 656 607 C656 569 658 378 658 273 C658 159 614 43 445 43 C339 43 243 89 243 243 L243 607 Z M435 953 L296 953 L478 764 L518 770 L435 953 Z " />
<glyph glyph-name="Uacute" unicode="&#xda;" horiz-adv-x="840" d="M243 607 C243 639 255 649 292 656 L344 666 L344 705 L183 700 L25 705 L25 666 L79 656 C115 649 127 639 127 607 L127 240 C127 73 238 -15 420 -15 C609 -15 712 86 712 266 C712 266 714 526 714 607 C714 639 726 649 763 656 L816 666 L816 705 L687 700 L554 705 L554 666 L608 656 C644 649 656 639 656 607 C656 569 658 378 658 273 C658 159 614 43 445 43 C339 43 243 89 243 243 L243 607 Z M331 770 L372 764 L552 953 L415 953 L331 770 Z " />
<glyph glyph-name="Ucircumflex" unicode="&#xdb;" horiz-adv-x="840" d="M243 607 C243 639 255 649 292 656 L344 666 L344 705 L183 700 L25 705 L25 666 L79 656 C115 649 127 639 127 607 L127 240 C127 73 238 -15 420 -15 C609 -15 712 86 712 266 C712 266 714 526 714 607 C714 639 726 649 763 656 L816 666 L816 705 L687 700 L554 705 L554 666 L608 656 C644 649 656 639 656 607 C656 569 658 378 658 273 C658 159 614 43 445 43 C339 43 243 89 243 243 L243 607 Z M257 778 L282 761 L418 868 L420 868 L560 760 L581 778 L446 959 L390 959 L257 778 Z " />
<glyph glyph-name="Udieresis" unicode="&#xdc;" horiz-adv-x="840" d="M243 607 C243 639 255 649 292 656 L344 666 L344 705 L183 700 L25 705 L25 666 L79 656 C115 649 127 639 127 607 L127 240 C127 73 238 -15 420 -15 C609 -15 712 86 712 266 C712 266 714 526 714 607 C714 639 726 649 763 656 L816 666 L816 705 L687 700 L554 705 L554 666 L608 656 C644 649 656 639 656 607 C656 569 658 378 658 273 C658 159 614 43 445 43 C339 43 243 89 243 243 L243 607 Z M252 855 C252 815 283 784 323 784 C363 784 395 815 395 855 C395 895 363 927 323 927 C283 927 252 895 252 855 L252 855 Z M444 855 C444 815 475 784 515 784 C555 784 587 815 587 855 C587 895 555 927 515 927 C475 927 444 895 444 855 L444 855 Z " />
<glyph glyph-name="Yacute" unicode="&#xdd;" horiz-adv-x="702" d="M513 33 L460 43 C423 50 414 60 413 91 C412 123 411 184 411 223 L411 272 C411 272 489 405 608 609 C624 636 636 650 667 656 L713 666 L713 705 L589 700 L454 705 L454 666 L509 656 C537 651 550 642 550 626 C550 619 547 611 543 603 C455 432 388 326 388 326 C388 326 302 468 228 605 C214 631 219 650 256 656 L318 666 L318 705 L148 700 L-13 705 L-13 666 L31 656 C63 649 75 634 91 608 C201 429 294 267 294 267 L294 223 C294 184 294 123 292 91 C291 60 283 50 246 43 L193 33 L193 -5 L356 0 L513 -5 L513 33 Z M294 773 L335 767 L515 956 L378 956 L294 773 Z " />
<glyph glyph-name="Thorn" unicode="&#xde;" horiz-adv-x="683" d="M429 572 C384 572 293 566 260 562 C263 638 258 646 309 656 L362 666 L362 705 L203 700 L42 705 L42 666 L95 656 C132 649 141 641 144 607 C144 607 147 514 147 349 C147 184 144 91 144 91 C143 61 132 50 95 43 L42 33 L42 -5 L203 0 L362 -5 L362 33 L310 43 C273 50 262 61 261 91 C261 91 258 184 258 349 C258 423 259 476 260 520 L349 520 C451 520 531 480 531 361 C531 242 463 194 386 194 C361 194 341 195 341 195 L341 153 C341 153 378 147 404 147 C593 147 649 268 649 369 C649 518 525 572 429 572 L429 572 Z " />
<glyph glyph-name="germandbls" unicode="&#xdf;" horiz-adv-x="577" d="M118 0 L208 -2 L208 558 C208 655 246 721 328 721 C380 721 430 692 430 617 C430 504 300 448 300 352 C300 266 455 183 455 104 C455 59 428 30 373 30 C330 30 293 48 293 48 L280 14 C280 14 321 -14 389 -14 C491 -14 548 52 548 127 C548 260 377 327 377 415 C377 475 507 506 507 617 C507 696 438 761 328 761 C196 761 105 669 105 472 L38 472 L38 433 L105 433 L105 81 C105 50 93 41 57 33 L26 26 L26 -5 L118 0 Z " />
<glyph glyph-name="agrave" unicode="&#xe0;" horiz-adv-x="500" d="M176 -15 C250 -15 293 32 306 62 C311 13 347 -15 400 -15 C442 -15 484 7 501 43 L491 64 C482 55 463 48 449 48 C423 48 405 64 405 103 C405 150 413 265 413 336 C413 450 353 494 248 494 C134 494 52 452 52 393 C52 350 88 324 127 318 L158 336 L158 422 C158 453 190 458 218 458 C293 458 306 400 306 338 L306 273 C167 264 38 223 38 109 C38 42 92 -15 176 -15 L176 -15 Z M142 131 C142 220 241 233 306 242 L304 133 C303 75 262 50 222 50 C174 50 142 83 142 131 L142 131 Z M264 741 L125 741 L307 552 L347 558 L264 741 Z " />
<glyph glyph-name="aacute" unicode="&#xe1;" horiz-adv-x="500" d="M176 -15 C250 -15 293 32 306 62 C311 13 347 -15 400 -15 C442 -15 484 7 501 43 L491 64 C482 55 463 48 449 48 C423 48 405 64 405 103 C405 150 413 265 413 336 C413 450 353 494 248 494 C134 494 52 452 52 393 C52 350 88 324 127 318 L158 336 L158 422 C158 453 190 458 218 458 C293 458 306 400 306 338 L306 273 C167 264 38 223 38 109 C38 42 92 -15 176 -15 L176 -15 Z M142 131 C142 220 241 233 306 242 L304 133 C303 75 262 50 222 50 C174 50 142 83 142 131 L142 131 Z M150 558 L191 552 L371 741 L234 741 L150 558 Z " />
<glyph glyph-name="acircumflex" unicode="&#xe2;" horiz-adv-x="500" d="M176 -15 C250 -15 293 32 306 62 C311 13 347 -15 400 -15 C442 -15 484 7 501 43 L491 64 C482 55 463 48 449 48 C423 48 405 64 405 103 C405 150 413 265 413 336 C413 450 353 494 248 494 C134 494 52 452 52 393 C52 350 88 324 127 318 L158 336 L158 422 C158 453 190 458 218 458 C293 458 306 400 306 338 L306 273 C167 264 38 223 38 109 C38 42 92 -15 176 -15 L176 -15 Z M142 131 C142 220 241 233 306 242 L304 133 C303 75 262 50 222 50 C174 50 142 83 142 131 L142 131 Z M86 566 L111 549 L247 656 L249 656 L389 548 L410 566 L275 747 L219 747 L86 566 Z " />
<glyph glyph-name="atilde" unicode="&#xe3;" horiz-adv-x="500" d="M176 -15 C250 -15 293 32 306 62 C311 13 347 -15 400 -15 C442 -15 484 7 501 43 L491 64 C482 55 463 48 449 48 C423 48 405 64 405 103 C405 150 413 265 413 336 C413 450 353 494 248 494 C134 494 52 452 52 393 C52 350 88 324 127 318 L158 336 L158 422 C158 453 190 458 218 458 C293 458 306 400 306 338 L306 273 C167 264 38 223 38 109 C38 42 92 -15 176 -15 L176 -15 Z M142 131 C142 220 241 233 306 242 L304 133 C303 75 262 50 222 50 C174 50 142 83 142 131 L142 131 Z M322 658 C285 658 217 695 174 695 C112 695 78 635 67 582 L90 571 C107 605 129 613 153 613 C177 613 247 578 286 578 C361 578 387 631 401 690 L379 701 C362 666 349 658 322 658 L322 658 Z " />
<glyph glyph-name="adieresis" unicode="&#xe4;" horiz-adv-x="500" d="M176 -15 C250 -15 293 32 306 62 C311 13 347 -15 400 -15 C442 -15 484 7 501 43 L491 64 C482 55 463 48 449 48 C423 48 405 64 405 103 C405 150 413 265 413 336 C413 450 353 494 248 494 C134 494 52 452 52 393 C52 350 88 324 127 318 L158 336 L158 422 C158 453 190 458 218 458 C293 458 306 400 306 338 L306 273 C167 264 38 223 38 109 C38 42 92 -15 176 -15 L176 -15 Z M142 131 C142 220 241 233 306 242 L304 133 C303 75 262 50 222 50 C174 50 142 83 142 131 L142 131 Z M74 643 C74 603 105 572 145 572 C185 572 217 603 217 643 C217 683 185 715 145 715 C105 715 74 683 74 643 L74 643 Z M266 643 C266 603 297 572 337 572 C377 572 409 603 409 643 C409 683 377 715 337 715 C297 715 266 683 266 643 L266 643 Z " />
<glyph glyph-name="aring" unicode="&#xe5;" horiz-adv-x="500" d="M176 -15 C250 -15 293 32 306 62 C311 13 347 -15 400 -15 C442 -15 484 7 501 43 L491 64 C482 55 463 48 449 48 C423 48 405 64 405 103 C405 150 413 265 413 336 C413 450 353 494 248 494 C134 494 52 452 52 393 C52 350 88 324 127 318 L158 336 L158 422 C158 453 190 458 218 458 C293 458 306 400 306 338 L306 273 C167 264 38 223 38 109 C38 42 92 -15 176 -15 L176 -15 Z M142 131 C142 220 241 233 306 242 L304 133 C303 75 262 50 222 50 C174 50 142 83 142 131 L142 131 Z M170 642 C170 687 198 721 244 721 C290 721 319 687 319 642 C319 598 290 564 244 564 C198 564 170 598 170 642 L170 642 Z M132 642 C132 578 182 531 244 531 C308 531 356 578 356 642 C356 706 308 753 244 753 C182 753 132 706 132 642 L132 642 Z " />
<glyph glyph-name="ae" unicode="&#xe6;" horiz-adv-x="758" d="M523 494 C463 494 413 467 384 435 C362 475 311 494 245 494 C131 494 51 452 51 393 C51 350 87 324 126 318 L157 336 L157 422 C157 453 188 458 216 458 C290 458 304 400 304 338 L304 273 C165 260 38 221 38 109 C38 42 88 -15 172 -15 C250 -15 314 31 334 89 C367 17 446 -15 524 -15 C595 -15 674 9 720 96 L700 124 C695 117 648 54 570 54 C484 54 418 117 413 248 L413 252 L713 276 L713 297 C713 395 655 494 523 494 L523 494 Z M513 458 C578 458 602 403 602 320 L602 308 L412 286 C412 413 456 458 513 458 L513 458 Z M142 126 C142 214 240 231 304 241 C305 207 310 164 316 139 C321 86 275 44 222 44 C174 44 142 76 142 126 L142 126 Z " />
<glyph glyph-name="ccedilla" unicode="&#xe7;" horiz-adv-x="485" d="M148 251 C148 388 207 454 281 454 C325 454 333 447 333 402 L333 338 L366 322 C403 327 444 350 444 398 C444 431 406 494 282 494 C141 494 40 381 40 234 C40 85 122 8 215 -10 L124 -84 C151 -90 254 -116 254 -176 C254 -221 219 -236 179 -236 C152 -236 128 -229 112 -222 L105 -252 C133 -266 180 -278 222 -278 C293 -278 360 -244 360 -168 C360 -78 263 -62 220 -61 L259 -15 L262 -15 C333 -15 415 9 462 96 L441 124 C420 84 369 57 313 57 C233 57 148 113 148 251 L148 251 Z " />
<glyph glyph-name="egrave" unicode="&#xe8;" horiz-adv-x="506" d="M356 314 L152 311 C157 403 198 456 264 456 C333 456 358 397 356 314 L356 314 Z M41 234 C41 60 148 -15 261 -15 C332 -15 414 9 461 96 L439 124 C418 84 365 57 309 57 C230 57 149 115 149 251 C149 267 150 275 150 275 L466 275 L466 296 C466 391 405 494 268 494 C153 494 41 396 41 234 L41 234 Z M273 741 L134 741 L316 552 L356 558 L273 741 Z " />
<glyph glyph-name="eacute" unicode="&#xe9;" horiz-adv-x="506" d="M356 314 L152 311 C157 403 198 456 264 456 C333 456 358 397 356 314 L356 314 Z M41 234 C41 60 148 -15 261 -15 C332 -15 414 9 461 96 L439 124 C418 84 365 57 309 57 C230 57 149 115 149 251 C149 267 150 275 150 275 L466 275 L466 296 C466 391 405 494 268 494 C153 494 41 396 41 234 L41 234 Z M159 558 L200 552 L380 741 L243 741 L159 558 Z " />
<glyph glyph-name="ecircumflex" unicode="&#xea;" horiz-adv-x="506" d="M356 314 L152 311 C157 403 198 456 264 456 C333 456 358 397 356 314 L356 314 Z M41 234 C41 60 148 -15 261 -15 C332 -15 414 9 461 96 L439 124 C418 84 365 57 309 57 C230 57 149 115 149 251 C149 267 150 275 150 275 L466 275 L466 296 C466 391 405 494 268 494 C153 494 41 396 41 234 L41 234 Z M96 566 L121 549 L257 656 L259 656 L399 548 L420 566 L285 747 L229 747 L96 566 Z " />
<glyph glyph-name="edieresis" unicode="&#xeb;" horiz-adv-x="506" d="M356 314 L152 311 C157 403 198 456 264 456 C333 456 358 397 356 314 L356 314 Z M41 234 C41 60 148 -15 261 -15 C332 -15 414 9 461 96 L439 124 C418 84 365 57 309 57 C230 57 149 115 149 251 C149 267 150 275 150 275 L466 275 L466 296 C466 391 405 494 268 494 C153 494 41 396 41 234 L41 234 Z M91 643 C91 603 122 572 162 572 C202 572 234 603 234 643 C234 683 202 715 162 715 C122 715 91 683 91 643 L91 643 Z M283 643 C283 603 314 572 354 572 C394 572 426 603 426 643 C426 683 394 715 354 715 C314 715 283 683 283 643 L283 643 Z " />
<glyph glyph-name="igrave" unicode="&#xec;" horiz-adv-x="306" d="M166 741 L27 741 L209 552 L249 558 L166 741 Z M107 81 C107 50 95 42 58 33 L28 26 L28 -5 L158 0 L287 -5 L287 26 L256 33 C220 42 209 50 209 81 L209 330 C209 427 211 500 211 500 L173 500 L34 433 L34 416 L75 401 C102 391 107 368 107 299 L107 81 Z " />
<glyph glyph-name="iacute" unicode="&#xed;" horiz-adv-x="306" d="M51 558 L92 552 L272 741 L135 741 L51 558 Z M107 81 C107 50 95 42 58 33 L28 26 L28 -5 L158 0 L287 -5 L287 26 L256 33 C220 42 209 50 209 81 L209 330 C209 427 211 500 211 500 L173 500 L34 433 L34 416 L75 401 C102 391 107 368 107 299 L107 81 Z " />
<glyph glyph-name="icircumflex" unicode="&#xee;" horiz-adv-x="306" d="M107 81 C107 50 95 42 58 33 L28 26 L28 -5 L158 0 L287 -5 L287 26 L256 33 C220 42 209 50 209 81 L209 330 C209 427 211 500 211 500 L173 500 L34 433 L34 416 L75 401 C102 391 107 368 107 299 L107 81 Z M-12 566 L13 549 L149 656 L151 656 L291 548 L312 566 L177 747 L121 747 L-12 566 Z " />
<glyph glyph-name="idieresis" unicode="&#xef;" horiz-adv-x="306" d="M-17 643 C-17 603 14 572 54 572 C94 572 126 603 126 643 C126 683 94 715 54 715 C14 715 -17 683 -17 643 L-17 643 Z M175 643 C175 603 206 572 246 572 C286 572 318 603 318 643 C318 683 286 715 246 715 C206 715 175 683 175 643 L175 643 Z M107 81 C107 50 95 42 58 33 L28 26 L28 -5 L158 0 L287 -5 L287 26 L256 33 C220 42 209 50 209 81 L209 330 C209 427 211 500 211 500 L173 500 L34 433 L34 416 L75 401 C102 391 107 368 107 299 L107 81 Z " />
<glyph glyph-name="eth" unicode="&#xf0;" horiz-adv-x="564" d="M524 247 C524 402 444 556 327 660 L409 703 L393 735 L297 684 C253 719 204 749 154 771 L131 750 C157 733 198 698 240 654 L160 613 L176 581 L265 628 C307 580 347 523 375 465 C354 479 319 494 275 494 C132 494 40 386 40 235 C40 65 161 -15 277 -15 C424 -15 524 92 524 247 L524 247 Z M285 24 C212 24 149 94 149 248 C149 336 174 454 280 454 C351 454 416 389 416 230 C416 142 391 24 285 24 L285 24 Z " />
<glyph glyph-name="ntilde" unicode="&#xf1;" horiz-adv-x="601" d="M205 285 C205 373 217 433 311 433 C352 433 379 416 394 389 C412 357 412 311 412 266 C412 211 411 118 410 103 C408 45 394 42 362 33 L334 26 L334 -5 L463 0 L590 -5 L590 26 L561 33 C525 42 513 50 513 81 C513 81 515 243 515 328 C515 436 461 494 355 494 C272 494 215 438 199 411 L190 413 L193 500 L165 500 L32 433 L32 416 L73 401 C100 391 103 371 103 302 L103 81 C103 50 89 45 54 33 L33 26 L33 -5 L155 0 L280 -5 L280 26 L250 33 C214 41 205 50 205 81 L205 285 Z M387 658 C350 658 282 695 239 695 C177 695 143 635 132 582 L155 571 C172 605 194 613 218 613 C242 613 312 578 351 578 C426 578 452 631 466 690 L444 701 C427 666 414 658 387 658 L387 658 Z " />
<glyph glyph-name="ograve" unicode="&#xf2;" horiz-adv-x="565" d="M277 -15 C425 -15 525 89 525 244 C525 413 406 494 290 494 C136 494 40 382 40 235 C40 65 161 -15 277 -15 L277 -15 Z M285 24 C213 24 149 94 149 248 C149 336 174 454 281 454 C351 454 416 389 416 230 C416 142 392 24 285 24 L285 24 Z M307 741 L168 741 L350 552 L390 558 L307 741 Z " />
<glyph glyph-name="oacute" unicode="&#xf3;" horiz-adv-x="565" d="M277 -15 C425 -15 525 89 525 244 C525 413 406 494 290 494 C136 494 40 382 40 235 C40 65 161 -15 277 -15 L277 -15 Z M285 24 C213 24 149 94 149 248 C149 336 174 454 281 454 C351 454 416 389 416 230 C416 142 392 24 285 24 L285 24 Z M171 558 L212 552 L392 741 L255 741 L171 558 Z " />
<glyph glyph-name="ocircumflex" unicode="&#xf4;" horiz-adv-x="565" d="M277 -15 C425 -15 525 89 525 244 C525 413 406 494 290 494 C136 494 40 382 40 235 C40 65 161 -15 277 -15 L277 -15 Z M285 24 C213 24 149 94 149 248 C149 336 174 454 281 454 C351 454 416 389 416 230 C416 142 392 24 285 24 L285 24 Z M119 566 L144 549 L280 656 L282 656 L422 548 L443 566 L308 747 L252 747 L119 566 Z " />
<glyph glyph-name="otilde" unicode="&#xf5;" horiz-adv-x="565" d="M277 -15 C425 -15 525 89 525 244 C525 413 406 494 290 494 C136 494 40 382 40 235 C40 65 161 -15 277 -15 L277 -15 Z M285 24 C213 24 149 94 149 248 C149 336 174 454 281 454 C351 454 416 389 416 230 C416 142 392 24 285 24 L285 24 Z M369 658 C332 658 264 695 221 695 C159 695 125 635 114 582 L137 571 C154 605 176 613 200 613 C224 613 294 578 333 578 C408 578 434 631 448 690 L426 701 C409 666 396 658 369 658 L369 658 Z " />
<glyph glyph-name="odieresis" unicode="&#xf6;" horiz-adv-x="565" d="M277 -15 C425 -15 525 89 525 244 C525 413 406 494 290 494 C136 494 40 382 40 235 C40 65 161 -15 277 -15 L277 -15 Z M285 24 C213 24 149 94 149 248 C149 336 174 454 281 454 C351 454 416 389 416 230 C416 142 392 24 285 24 L285 24 Z M114 643 C114 603 145 572 185 572 C225 572 257 603 257 643 C257 683 225 715 185 715 C145 715 114 683 114 643 L114 643 Z M306 643 C306 603 337 572 377 572 C417 572 449 603 449 643 C449 683 417 715 377 715 C337 715 306 683 306 643 L306 643 Z " />
<glyph glyph-name="divide" unicode="&#xf7;" horiz-adv-x="590" d="M60 381 L60 334 L529 334 L529 381 L60 381 Z M221 190 C221 149 253 115 295 115 C336 115 368 149 368 190 C368 231 336 264 295 264 C253 264 221 231 221 190 L221 190 Z M221 526 C221 484 253 451 295 451 C336 451 368 484 368 526 C368 567 336 600 295 600 C253 600 221 567 221 526 L221 526 Z " />
<glyph glyph-name="oslash" unicode="&#xf8;" horiz-adv-x="565" d="M44 -22 L69 -44 L132 32 C174 0 226 -15 277 -15 C425 -15 525 89 525 244 C525 324 498 385 457 426 L518 501 L494 522 L433 447 C391 478 340 494 290 494 C136 494 40 382 40 235 C40 154 67 94 108 53 L44 -22 Z M285 24 C245 24 207 46 182 92 L398 355 C410 322 416 281 416 230 C416 142 392 24 285 24 L285 24 Z M149 248 C149 336 174 454 281 454 C320 454 358 433 384 387 L167 125 C155 158 149 198 149 248 L149 248 Z " />
<glyph glyph-name="ugrave" unicode="&#xf9;" horiz-adv-x="591" d="M492 127 L492 307 C492 391 498 484 498 484 L443 478 L317 473 L317 441 L348 435 C384 428 390 411 390 380 L390 207 C390 112 381 48 291 48 C206 48 189 107 189 222 C189 298 189 431 195 484 L140 478 L16 473 L16 441 L44 435 C78 427 87 411 87 380 C87 380 86 239 86 154 C86 46 135 -15 240 -15 C322 -15 371 39 387 65 L395 64 L393 -8 L423 -8 L571 16 L571 46 L537 51 C497 57 492 68 492 127 L492 127 Z M306 741 L167 741 L349 552 L389 558 L306 741 Z " />
<glyph glyph-name="uacute" unicode="&#xfa;" horiz-adv-x="591" d="M492 127 L492 307 C492 391 498 484 498 484 L443 478 L317 473 L317 441 L348 435 C384 428 390 411 390 380 L390 207 C390 112 381 48 291 48 C206 48 189 107 189 222 C189 298 189 431 195 484 L140 478 L16 473 L16 441 L44 435 C78 427 87 411 87 380 C87 380 86 239 86 154 C86 46 135 -15 240 -15 C322 -15 371 39 387 65 L395 64 L393 -8 L423 -8 L571 16 L571 46 L537 51 C497 57 492 68 492 127 L492 127 Z M195 558 L236 552 L416 741 L279 741 L195 558 Z " />
<glyph glyph-name="ucircumflex" unicode="&#xfb;" horiz-adv-x="591" d="M492 127 L492 307 C492 391 498 484 498 484 L443 478 L317 473 L317 441 L348 435 C384 428 390 411 390 380 L390 207 C390 112 381 48 291 48 C206 48 189 107 189 222 C189 298 189 431 195 484 L140 478 L16 473 L16 441 L44 435 C78 427 87 411 87 380 C87 380 86 239 86 154 C86 46 135 -15 240 -15 C322 -15 371 39 387 65 L395 64 L393 -8 L423 -8 L571 16 L571 46 L537 51 C497 57 492 68 492 127 L492 127 Z M129 566 L154 549 L290 656 L292 656 L432 548 L453 566 L318 747 L262 747 L129 566 Z " />
<glyph glyph-name="udieresis" unicode="&#xfc;" horiz-adv-x="591" d="M492 127 L492 307 C492 391 498 484 498 484 L443 478 L317 473 L317 441 L348 435 C384 428 390 411 390 380 L390 207 C390 112 381 48 291 48 C206 48 189 107 189 222 C189 298 189 431 195 484 L140 478 L16 473 L16 441 L44 435 C78 427 87 411 87 380 C87 380 86 239 86 154 C86 46 135 -15 240 -15 C322 -15 371 39 387 65 L395 64 L393 -8 L423 -8 L571 16 L571 46 L537 51 C497 57 492 68 492 127 L492 127 Z M124 643 C124 603 155 572 195 572 C235 572 267 603 267 643 C267 683 235 715 195 715 C155 715 124 683 124 643 L124 643 Z M316 643 C316 603 347 572 387 572 C427 572 459 603 459 643 C459 683 427 715 387 715 C347 715 316 683 316 643 L316 643 Z " />
<glyph glyph-name="yacute" unicode="&#xfd;" horiz-adv-x="534" d="M93 -263 L190 -273 L467 394 C479 423 482 432 516 443 L537 450 L537 482 L442 477 L342 482 L342 450 L367 443 C395 435 414 428 414 409 C414 401 409 386 403 370 C363 258 326 162 296 91 C258 192 217 292 183 394 C174 420 186 435 221 443 L254 450 L254 482 L118 477 L-3 482 L-3 450 L17 443 C46 433 52 429 66 395 C122 259 187 93 228 -6 L250 -6 L93 -263 Z M186 558 L227 552 L407 741 L270 741 L186 558 Z " />
<glyph glyph-name="thorn" unicode="&#xfe;" horiz-adv-x="578" d="M281 428 C365 428 430 364 430 232 C430 96 369 27 285 27 C208 27 176 62 176 128 L176 337 C176 387 207 428 281 428 L281 428 Z M73 -162 C73 -193 63 -202 27 -210 L-3 -217 L-3 -250 L128 -245 L271 -250 L271 -217 L227 -210 C190 -205 178 -193 178 -162 L178 -82 C178 -46 178 -9 162 24 C182 4 243 -15 296 -15 C439 -15 538 102 538 253 C538 395 446 494 328 494 C270 494 211 471 169 412 L161 413 C161 413 176 456 176 536 L176 745 L145 745 L2 710 L2 693 L44 678 C70 668 73 645 73 576 L73 -162 Z " />
<glyph glyph-name="ydieresis" unicode="&#xff;" horiz-adv-x="534" d="M93 -263 L190 -273 L467 394 C479 423 482 432 516 443 L537 450 L537 482 L442 477 L342 482 L342 450 L367 443 C395 435 414 428 414 409 C414 401 409 386 403 370 C363 258 326 162 296 91 C258 192 217 292 183 394 C174 420 186 435 221 443 L254 450 L254 482 L118 477 L-3 482 L-3 450 L17 443 C46 433 52 429 66 395 C122 259 187 93 228 -6 L250 -6 L93 -263 Z M107 643 C107 603 138 572 178 572 C218 572 250 603 250 643 C250 683 218 715 178 715 C138 715 107 683 107 643 L107 643 Z M299 643 C299 603 330 572 370 572 C410 572 442 603 442 643 C442 683 410 715 370 715 C330 715 299 683 299 643 L299 643 Z " />
<glyph glyph-name="Amacron" unicode="&#x100;" horiz-adv-x="757" d="M465 288 C465 288 518 148 539 92 C550 63 534 51 498 44 L444 34 L444 -5 L607 0 L769 -5 L769 34 L719 44 C688 50 679 63 667 92 C527 431 417 726 417 726 L331 707 C331 707 203 370 92 91 C80 62 68 50 37 44 L-13 34 L-13 -5 L101 0 L250 -5 L250 34 L194 44 C158 51 144 63 155 92 C155 92 178 162 223 288 L465 288 Z M450 334 L239 334 L344 620 L450 334 Z M525 793 L525 857 L230 857 L230 793 L525 793 Z " />
<glyph glyph-name="amacron" unicode="&#x101;" horiz-adv-x="500" d="M176 -15 C250 -15 293 32 306 62 C311 13 347 -15 400 -15 C442 -15 484 7 501 43 L491 64 C482 55 463 48 449 48 C423 48 405 64 405 103 C405 150 413 265 413 336 C413 450 353 494 248 494 C134 494 52 452 52 393 C52 350 88 324 127 318 L158 336 L158 422 C158 453 190 458 218 458 C293 458 306 400 306 338 L306 273 C167 264 38 223 38 109 C38 42 92 -15 176 -15 L176 -15 Z M142 131 C142 220 241 233 306 242 L304 133 C303 75 262 50 222 50 C174 50 142 83 142 131 L142 131 Z M390 581 L390 645 L95 645 L95 581 L390 581 Z " />
<glyph glyph-name="Abreve" unicode="&#x102;" horiz-adv-x="757" d="M465 288 C465 288 518 148 539 92 C550 63 534 51 498 44 L444 34 L444 -5 L607 0 L769 -5 L769 34 L719 44 C688 50 679 63 667 92 C527 431 417 726 417 726 L331 707 C331 707 203 370 92 91 C80 62 68 50 37 44 L-13 34 L-13 -5 L101 0 L250 -5 L250 34 L194 44 C158 51 144 63 155 92 C155 92 178 162 223 288 L465 288 Z M450 334 L239 334 L344 620 L450 334 Z M377 853 C277 853 275 914 275 956 L275 961 L234 961 L234 923 C234 832 285 766 377 766 C470 766 520 832 520 923 L520 961 L480 961 L480 956 C480 914 477 853 377 853 L377 853 Z " />
<glyph glyph-name="abreve" unicode="&#x103;" horiz-adv-x="500" d="M176 -15 C250 -15 293 32 306 62 C311 13 347 -15 400 -15 C442 -15 484 7 501 43 L491 64 C482 55 463 48 449 48 C423 48 405 64 405 103 C405 150 413 265 413 336 C413 450 353 494 248 494 C134 494 52 452 52 393 C52 350 88 324 127 318 L158 336 L158 422 C158 453 190 458 218 458 C293 458 306 400 306 338 L306 273 C167 264 38 223 38 109 C38 42 92 -15 176 -15 L176 -15 Z M142 131 C142 220 241 233 306 242 L304 133 C303 75 262 50 222 50 C174 50 142 83 142 131 L142 131 Z M241 641 C141 641 139 702 139 744 L139 749 L98 749 L98 711 C98 620 149 554 241 554 C334 554 384 620 384 711 L384 749 L344 749 L344 744 C344 702 341 641 241 641 L241 641 Z " />
<glyph glyph-name="Aogonek" unicode="&#x104;" horiz-adv-x="757" d="M465 288 C465 288 518 148 539 92 C550 63 534 51 498 44 L444 34 L444 -5 L607 0 L640 -1 C570 -38 508 -100 508 -166 C508 -230 561 -269 629 -269 C655 -269 693 -264 721 -254 L739 -222 C729 -224 715 -225 705 -225 C657 -225 607 -216 607 -151 C607 -91 651 -36 684 -2 L769 -5 L769 34 L719 44 C688 50 679 63 667 92 C527 431 417 726 417 726 L331 707 C331 707 203 370 92 91 C80 62 68 50 37 44 L-13 34 L-13 -5 L101 0 L250 -5 L250 34 L194 44 C158 51 144 63 155 92 C155 92 178 162 223 288 L465 288 Z M450 334 L239 334 L344 620 L450 334 Z " />
<glyph glyph-name="aogonek" unicode="&#x105;" horiz-adv-x="500" d="M176 -15 C250 -15 293 32 306 62 C310 19 338 -7 380 -13 C319 -51 269 -107 269 -166 C269 -230 322 -269 390 -269 C416 -269 454 -264 482 -254 L500 -222 C490 -224 476 -225 466 -225 C418 -225 368 -216 368 -151 C368 -95 407 -43 439 -9 C466 0 489 18 501 43 L491 64 C482 55 463 48 449 48 C423 48 405 64 405 103 C405 150 413 265 413 336 C413 450 353 494 248 494 C134 494 52 452 52 393 C52 350 88 324 127 318 L158 336 L158 422 C158 453 190 458 218 458 C293 458 306 400 306 338 L306 273 C167 264 38 223 38 109 C38 42 92 -15 176 -15 L176 -15 Z M142 131 C142 220 241 233 306 242 L304 133 C303 75 262 50 222 50 C174 50 142 83 142 131 L142 131 Z " />
<glyph glyph-name="Cacute" unicode="&#x106;" horiz-adv-x="740" d="M171 375 C171 588 299 665 428 665 C515 665 578 631 604 552 L625 489 L662 489 C668 562 680 665 683 700 L605 688 C572 698 506 715 426 715 C203 715 50 551 50 346 C50 135 193 -15 419 -15 C555 -15 660 32 682 42 C682 142 686 220 686 220 L646 220 L587 64 C547 53 512 49 474 49 C283 49 171 174 171 375 L171 375 Z M285 770 L326 764 L506 953 L369 953 L285 770 Z " />
<glyph glyph-name="cacute" unicode="&#x107;" horiz-adv-x="485" d="M148 251 C148 388 207 454 281 454 C325 454 333 447 333 402 L333 338 L366 322 C403 327 444 350 444 398 C444 431 406 494 282 494 C141 494 40 381 40 234 C40 60 153 -15 262 -15 C333 -15 415 9 462 96 L441 124 C420 84 369 57 313 57 C233 57 148 113 148 251 L148 251 Z M133 558 L174 552 L354 741 L217 741 L133 558 Z " />
<glyph glyph-name="Ccircumflex" unicode="&#x108;" horiz-adv-x="740" d="M171 375 C171 588 299 665 428 665 C515 665 578 631 604 552 L625 489 L662 489 C668 562 680 665 683 700 L605 688 C572 698 506 715 426 715 C203 715 50 551 50 346 C50 135 193 -15 419 -15 C555 -15 660 32 682 42 C682 142 686 220 686 220 L646 220 L587 64 C547 53 512 49 474 49 C283 49 171 174 171 375 L171 375 Z M218 778 L243 761 L379 868 L381 868 L521 760 L542 778 L407 959 L351 959 L218 778 Z " />
<glyph glyph-name="ccircumflex" unicode="&#x109;" horiz-adv-x="485" d="M148 251 C148 388 207 454 281 454 C325 454 333 447 333 402 L333 338 L366 322 C403 327 444 350 444 398 C444 431 406 494 282 494 C141 494 40 381 40 234 C40 60 153 -15 262 -15 C333 -15 415 9 462 96 L441 124 C420 84 369 57 313 57 C233 57 148 113 148 251 L148 251 Z M81 566 L106 549 L242 656 L244 656 L384 548 L405 566 L270 747 L214 747 L81 566 Z " />
<glyph glyph-name="Cdotaccent" unicode="&#x10a;" horiz-adv-x="740" d="M171 375 C171 588 299 665 428 665 C515 665 578 631 604 552 L625 489 L662 489 C668 562 680 665 683 700 L605 688 C572 698 506 715 426 715 C203 715 50 551 50 346 C50 135 193 -15 419 -15 C555 -15 660 32 682 42 C682 142 686 220 686 220 L646 220 L587 64 C547 53 512 49 474 49 C283 49 171 174 171 375 L171 375 Z M287 868 C287 823 324 786 369 786 C414 786 451 823 451 868 C451 913 414 950 369 950 C324 950 287 913 287 868 L287 868 Z " />
<glyph glyph-name="cdotaccent" unicode="&#x10b;" horiz-adv-x="485" d="M148 251 C148 388 207 454 281 454 C325 454 333 447 333 402 L333 338 L366 322 C403 327 444 350 444 398 C444 431 406 494 282 494 C141 494 40 381 40 234 C40 60 153 -15 262 -15 C333 -15 415 9 462 96 L441 124 C420 84 369 57 313 57 C233 57 148 113 148 251 L148 251 Z M160 651 C160 606 197 569 242 569 C287 569 324 606 324 651 C324 696 287 733 242 733 C197 733 160 696 160 651 L160 651 Z " />
<glyph glyph-name="Ccaron" unicode="&#x10c;" horiz-adv-x="740" d="M171 375 C171 588 299 665 428 665 C515 665 578 631 604 552 L625 489 L662 489 C668 562 680 665 683 700 L605 688 C572 698 506 715 426 715 C203 715 50 551 50 346 C50 135 193 -15 419 -15 C555 -15 660 32 682 42 C682 142 686 220 686 220 L646 220 L587 64 C547 53 512 49 474 49 C283 49 171 174 171 375 L171 375 Z M354 761 L410 761 L545 941 L524 960 L384 851 L382 851 L246 959 L221 941 L354 761 Z " />
<glyph glyph-name="ccaron" unicode="&#x10d;" horiz-adv-x="485" d="M148 251 C148 388 207 454 281 454 C325 454 333 447 333 402 L333 338 L366 322 C403 327 444 350 444 398 C444 431 406 494 282 494 C141 494 40 381 40 234 C40 60 153 -15 262 -15 C333 -15 415 9 462 96 L441 124 C420 84 369 57 313 57 C233 57 148 113 148 251 L148 251 Z M214 549 L270 549 L405 729 L384 748 L244 639 L242 639 L106 747 L81 729 L214 549 Z " />
<glyph glyph-name="Dcaron" unicode="&#x10e;" horiz-adv-x="848" d="M194 0 C226 -3 367 -8 386 -8 C666 -8 796 150 796 358 C796 544 676 710 423 710 C388 710 291 708 194 700 L42 705 L42 666 L95 656 C132 649 143 641 144 607 C144 607 147 514 147 349 C147 184 144 92 144 92 C143 62 132 51 95 44 L42 34 L42 -5 L194 0 Z M374 662 C579 662 670 541 670 337 C670 82 516 35 401 35 C302 35 259 41 259 111 L259 646 C259 656 260 662 277 662 L374 662 Z M400 761 L456 761 L591 941 L570 960 L430 851 L428 851 L292 959 L267 941 L400 761 Z " />
<glyph glyph-name="dcaron" unicode="&#x10f;" horiz-adv-x="758" d="M598 474 C676 498 758 569 758 652 C758 711 710 751 671 751 C636 751 598 710 595 677 C648 661 673 632 673 599 C673 563 636 523 576 495 L598 474 Z M294 61 C213 61 149 126 149 251 C149 341 183 454 293 454 C357 454 402 417 402 340 L402 143 C402 101 375 61 294 61 L294 61 Z M504 478 C504 612 507 755 507 755 L477 755 L331 720 L331 703 L372 688 C399 678 402 655 402 586 L402 467 C378 479 330 494 281 494 C139 494 40 379 40 235 C40 72 133 -15 243 -15 C301 -15 359 5 399 65 L407 64 L405 -8 L435 -8 L583 16 L583 46 L549 51 C509 57 504 68 504 127 L504 478 Z " />
<glyph glyph-name="Dcroat" unicode="&#x110;" horiz-adv-x="848" d="M194 0 C226 -3 367 -8 386 -8 C666 -8 796 150 796 358 C796 544 676 710 423 710 C388 710 291 708 194 700 L42 705 L42 666 L95 656 C132 649 143 641 144 607 C144 607 146 525 147 381 L57 381 L57 335 L147 335 C147 179 144 92 144 92 C143 62 132 51 95 44 L42 34 L42 -5 L194 0 Z M374 662 C579 662 670 541 670 337 C670 82 516 35 401 35 C302 35 259 41 259 111 L259 335 L476 335 L476 381 L259 381 L259 646 C259 656 260 662 277 662 L374 662 Z " />
<glyph glyph-name="dcroat" unicode="&#x111;" horiz-adv-x="599" d="M504 127 L504 551 L566 551 L566 590 L504 590 C505 681 507 755 507 755 L477 755 L331 720 L331 703 L372 688 C398 678 402 655 402 590 L260 590 L260 551 L402 551 L402 467 C378 479 330 494 281 494 C139 494 40 379 40 235 C40 72 133 -15 243 -15 C301 -15 359 5 399 65 L407 64 L405 -8 L435 -8 L583 16 L583 46 L549 51 C509 57 504 68 504 127 L504 127 Z M294 61 C213 61 149 126 149 251 C149 341 183 454 293 454 C357 454 402 417 402 340 L402 143 C402 101 375 61 294 61 L294 61 Z " />
<glyph glyph-name="Emacron" unicode="&#x112;" horiz-adv-x="698" d="M258 380 L258 636 C258 646 259 652 276 652 L471 652 C511 652 530 617 547 554 L559 508 L598 508 C608 650 616 711 616 711 C616 711 517 700 459 700 L199 700 L42 705 L42 666 L95 656 C132 649 141 641 144 607 C144 607 147 514 147 349 C147 184 144 92 144 92 C144 62 132 51 95 44 L42 34 L42 -5 L199 0 L429 0 C488 0 625 -5 625 -5 C629 31 653 194 656 212 L619 212 L574 128 C536 56 500 48 450 48 L332 48 C282 48 258 68 258 111 L258 336 C258 336 331 336 389 333 C420 331 434 319 443 282 L456 227 L495 227 L490 359 L495 489 L456 489 L443 434 C434 397 421 385 389 383 C331 380 258 380 258 380 L258 380 Z M500 793 L500 857 L205 857 L205 793 L500 793 Z " />
<glyph glyph-name="emacron" unicode="&#x113;" horiz-adv-x="506" d="M356 314 L152 311 C157 403 198 456 264 456 C333 456 358 397 356 314 L356 314 Z M41 234 C41 60 148 -15 261 -15 C332 -15 414 9 461 96 L439 124 C418 84 365 57 309 57 C230 57 149 115 149 251 C149 267 150 275 150 275 L466 275 L466 296 C466 391 405 494 268 494 C153 494 41 396 41 234 L41 234 Z M410 581 L410 645 L115 645 L115 581 L410 581 Z " />
<glyph glyph-name="Ebreve" unicode="&#x114;" horiz-adv-x="698" d="M258 380 L258 636 C258 646 259 652 276 652 L471 652 C511 652 530 617 547 554 L559 508 L598 508 C608 650 616 711 616 711 C616 711 517 700 459 700 L199 700 L42 705 L42 666 L95 656 C132 649 141 641 144 607 C144 607 147 514 147 349 C147 184 144 92 144 92 C144 62 132 51 95 44 L42 34 L42 -5 L199 0 L429 0 C488 0 625 -5 625 -5 C629 31 653 194 656 212 L619 212 L574 128 C536 56 500 48 450 48 L332 48 C282 48 258 68 258 111 L258 336 C258 336 331 336 389 333 C420 331 434 319 443 282 L456 227 L495 227 L490 359 L495 489 L456 489 L443 434 C434 397 421 385 389 383 C331 380 258 380 258 380 L258 380 Z M352 853 C252 853 250 914 250 956 L250 961 L209 961 L209 923 C209 832 260 766 352 766 C445 766 495 832 495 923 L495 961 L455 961 L455 956 C455 914 452 853 352 853 L352 853 Z " />
<glyph glyph-name="ebreve" unicode="&#x115;" horiz-adv-x="506" d="M356 314 L152 311 C157 403 198 456 264 456 C333 456 358 397 356 314 L356 314 Z M41 234 C41 60 148 -15 261 -15 C332 -15 414 9 461 96 L439 124 C418 84 365 57 309 57 C230 57 149 115 149 251 C149 267 150 275 150 275 L466 275 L466 296 C466 391 405 494 268 494 C153 494 41 396 41 234 L41 234 Z M258 641 C158 641 156 702 156 744 L156 749 L115 749 L115 711 C115 620 166 554 258 554 C351 554 401 620 401 711 L401 749 L361 749 L361 744 C361 702 358 641 258 641 L258 641 Z " />
<glyph glyph-name="Edotaccent" unicode="&#x116;" horiz-adv-x="698" d="M258 380 L258 636 C258 646 259 652 276 652 L471 652 C511 652 530 617 547 554 L559 508 L598 508 C608 650 616 711 616 711 C616 711 517 700 459 700 L199 700 L42 705 L42 666 L95 656 C132 649 141 641 144 607 C144 607 147 514 147 349 C147 184 144 92 144 92 C144 62 132 51 95 44 L42 34 L42 -5 L199 0 L429 0 C488 0 625 -5 625 -5 C629 31 653 194 656 212 L619 212 L574 128 C536 56 500 48 450 48 L332 48 C282 48 258 68 258 111 L258 336 C258 336 331 336 389 333 C420 331 434 319 443 282 L456 227 L495 227 L490 359 L495 489 L456 489 L443 434 C434 397 421 385 389 383 C331 380 258 380 258 380 L258 380 Z M271 868 C271 823 308 786 353 786 C398 786 435 823 435 868 C435 913 398 950 353 950 C308 950 271 913 271 868 L271 868 Z " />
<glyph glyph-name="edotaccent" unicode="&#x117;" horiz-adv-x="506" d="M356 314 L152 311 C157 403 198 456 264 456 C333 456 358 397 356 314 L356 314 Z M41 234 C41 60 148 -15 261 -15 C332 -15 414 9 461 96 L439 124 C418 84 365 57 309 57 C230 57 149 115 149 251 C149 267 150 275 150 275 L466 275 L466 296 C466 391 405 494 268 494 C153 494 41 396 41 234 L41 234 Z M182 651 C182 606 218 569 263 569 C308 569 344 606 344 651 C344 696 308 733 263 733 C218 733 182 696 182 651 L182 651 Z " />
<glyph glyph-name="Eogonek" unicode="&#x118;" horiz-adv-x="698" d="M258 380 L258 636 C258 646 259 652 276 652 L471 652 C511 652 530 617 547 554 L559 508 L598 508 C608 650 616 711 616 711 C616 711 517 700 459 700 L199 700 L42 705 L42 666 L95 656 C132 649 141 641 144 607 C144 607 147 514 147 349 C147 184 144 92 144 92 C144 62 132 51 95 44 L42 34 L42 -5 L199 0 L429 0 C453 0 491 -1 527 -2 C457 -40 396 -101 396 -166 C396 -230 449 -269 517 -269 C543 -269 581 -264 609 -254 L627 -222 C617 -224 603 -225 593 -225 C545 -225 495 -216 495 -151 C495 -91 538 -37 571 -3 C602 -4 625 -5 625 -5 C629 31 653 194 656 212 L619 212 L574 128 C536 56 500 48 450 48 L332 48 C282 48 258 68 258 111 L258 336 C258 336 331 336 389 333 C420 331 434 319 443 282 L456 227 L495 227 L490 359 L495 489 L456 489 L443 434 C434 397 421 385 389 383 C331 380 258 380 258 380 L258 380 Z " />
<glyph glyph-name="eogonek" unicode="&#x119;" horiz-adv-x="506" d="M41 234 C41 62 145 -13 256 -15 C196 -53 148 -108 148 -166 C148 -230 201 -269 269 -269 C295 -269 333 -264 361 -254 L379 -222 C369 -224 355 -225 345 -225 C297 -225 247 -216 247 -151 C247 -95 285 -43 317 -9 C372 1 426 31 461 96 L439 124 C418 84 365 57 309 57 C230 57 149 115 149 251 C149 267 150 275 150 275 L466 275 L466 296 C466 391 405 494 268 494 C153 494 41 396 41 234 L41 234 Z M356 314 L152 311 C157 403 198 456 264 456 C333 456 358 397 356 314 L356 314 Z " />
<glyph glyph-name="Ecaron" unicode="&#x11a;" horiz-adv-x="698" d="M258 380 L258 636 C258 646 259 652 276 652 L471 652 C511 652 530 617 547 554 L559 508 L598 508 C608 650 616 711 616 711 C616 711 517 700 459 700 L199 700 L42 705 L42 666 L95 656 C132 649 141 641 144 607 C144 607 147 514 147 349 C147 184 144 92 144 92 C144 62 132 51 95 44 L42 34 L42 -5 L199 0 L429 0 C488 0 625 -5 625 -5 C629 31 653 194 656 212 L619 212 L574 128 C536 56 500 48 450 48 L332 48 C282 48 258 68 258 111 L258 336 C258 336 331 336 389 333 C420 331 434 319 443 282 L456 227 L495 227 L490 359 L495 489 L456 489 L443 434 C434 397 421 385 389 383 C331 380 258 380 258 380 L258 380 Z M323 761 L379 761 L514 941 L493 960 L353 851 L351 851 L215 959 L190 941 L323 761 Z " />
<glyph glyph-name="ecaron" unicode="&#x11b;" horiz-adv-x="506" d="M356 314 L152 311 C157 403 198 456 264 456 C333 456 358 397 356 314 L356 314 Z M41 234 C41 60 148 -15 261 -15 C332 -15 414 9 461 96 L439 124 C418 84 365 57 309 57 C230 57 149 115 149 251 C149 267 150 275 150 275 L466 275 L466 296 C466 391 405 494 268 494 C153 494 41 396 41 234 L41 234 Z M229 549 L285 549 L420 729 L399 748 L259 639 L257 639 L121 747 L96 729 L229 549 Z " />
<glyph glyph-name="Gcircumflex" unicode="&#x11c;" horiz-adv-x="822" d="M450 715 C248 715 51 589 51 349 C51 200 130 -15 450 -15 C566 -15 713 43 713 43 L713 221 C713 253 724 262 760 271 L795 280 L795 321 L655 316 L485 321 L485 280 L547 270 C585 264 596 254 596 222 L596 75 C596 47 548 37 490 37 C256 37 173 209 173 366 C173 548 283 665 456 665 C543 665 618 631 644 552 L665 489 L702 489 C708 562 720 665 723 700 L645 688 C612 698 530 715 450 715 L450 715 Z M249 778 L274 761 L410 868 L412 868 L552 760 L573 778 L438 959 L382 959 L249 778 Z " />
<glyph glyph-name="gcircumflex" unicode="&#x11d;" horiz-adv-x="549" d="M126 -110 C126 -62 151 -30 175 -18 C209 -19 287 -25 350 -36 C399 -45 413 -74 413 -111 C413 -183 357 -219 273 -219 C191 -219 126 -186 126 -110 L126 -110 Z M253 186 C202 186 157 230 157 329 C157 385 173 459 251 459 C301 459 344 417 344 316 C344 259 329 186 253 186 L253 186 Z M529 387 L541 390 L541 484 L381 459 C347 482 297 494 253 494 C126 494 48 419 48 320 C48 252 83 205 130 179 C88 146 62 109 62 76 C62 36 87 7 134 -3 L134 -12 C80 -30 32 -69 32 -131 C32 -204 107 -259 236 -259 C425 -259 510 -165 510 -66 C510 12 460 52 366 62 L254 74 C154 84 143 90 143 118 C143 135 151 152 159 165 C184 155 213 149 249 149 C372 149 454 219 454 323 C454 379 415 419 415 419 L529 387 Z M105 566 L130 549 L266 656 L268 656 L408 548 L429 566 L294 747 L238 747 L105 566 Z " />
<glyph glyph-name="Gbreve" unicode="&#x11e;" horiz-adv-x="822" d="M450 715 C248 715 51 589 51 349 C51 200 130 -15 450 -15 C566 -15 713 43 713 43 L713 221 C713 253 724 262 760 271 L795 280 L795 321 L655 316 L485 321 L485 280 L547 270 C585 264 596 254 596 222 L596 75 C596 47 548 37 490 37 C256 37 173 209 173 366 C173 548 283 665 456 665 C543 665 618 631 644 552 L665 489 L702 489 C708 562 720 665 723 700 L645 688 C612 698 530 715 450 715 L450 715 Z M409 853 C309 853 307 914 307 956 L307 961 L266 961 L266 923 C266 832 317 766 409 766 C502 766 552 832 552 923 L552 961 L512 961 L512 956 C512 914 509 853 409 853 L409 853 Z " />
<glyph glyph-name="gbreve" unicode="&#x11f;" horiz-adv-x="549" d="M126 -110 C126 -62 151 -30 175 -18 C209 -19 287 -25 350 -36 C399 -45 413 -74 413 -111 C413 -183 357 -219 273 -219 C191 -219 126 -186 126 -110 L126 -110 Z M253 186 C202 186 157 230 157 329 C157 385 173 459 251 459 C301 459 344 417 344 316 C344 259 329 186 253 186 L253 186 Z M529 387 L541 390 L541 484 L381 459 C347 482 297 494 253 494 C126 494 48 419 48 320 C48 252 83 205 130 179 C88 146 62 109 62 76 C62 36 87 7 134 -3 L134 -12 C80 -30 32 -69 32 -131 C32 -204 107 -259 236 -259 C425 -259 510 -165 510 -66 C510 12 460 52 366 62 L254 74 C154 84 143 90 143 118 C143 135 151 152 159 165 C184 155 213 149 249 149 C372 149 454 219 454 323 C454 379 415 419 415 419 L529 387 Z M252 641 C152 641 150 702 150 744 L150 749 L109 749 L109 711 C109 620 160 554 252 554 C345 554 395 620 395 711 L395 749 L355 749 L355 744 C355 702 352 641 252 641 L252 641 Z " />
<glyph glyph-name="Gdotaccent" unicode="&#x120;" horiz-adv-x="822" d="M596 75 C596 47 548 37 490 37 C256 37 173 209 173 366 C173 548 283 665 456 665 C542 665 616 633 629 592 L662 489 L699 489 C705 562 717 666 720 701 C694 697 668 692 642 687 C602 700 522 715 446 715 C248 715 51 589 51 349 C51 200 130 -15 450 -15 C566 -15 713 43 713 43 L713 221 C713 253 726 259 762 270 L795 280 L795 321 L655 316 L485 321 L485 280 L547 270 C585 264 596 254 596 222 L596 75 Z M334 868 C334 823 370 786 415 786 C460 786 496 823 496 868 C496 913 460 950 415 950 C370 950 334 913 334 868 L334 868 Z " />
<glyph glyph-name="gdotaccent" unicode="&#x121;" horiz-adv-x="549" d="M126 -110 C126 -62 151 -30 175 -18 C209 -19 287 -25 350 -36 C399 -45 413 -74 413 -111 C413 -183 357 -219 273 -219 C191 -219 126 -186 126 -110 L126 -110 Z M253 186 C202 186 157 230 157 329 C157 385 173 459 251 459 C301 459 344 417 344 316 C344 259 329 186 253 186 L253 186 Z M529 387 L541 390 L541 484 L381 459 C347 482 297 494 253 494 C126 494 48 419 48 320 C48 252 83 205 130 179 C88 146 62 109 62 76 C62 36 87 7 134 -3 L134 -12 C80 -30 32 -69 32 -131 C32 -204 107 -259 236 -259 C425 -259 510 -165 510 -66 C510 12 460 52 366 62 L254 74 C154 84 143 90 143 118 C143 135 151 152 159 165 C184 155 213 149 249 149 C372 149 454 219 454 323 C454 379 415 419 415 419 L529 387 Z M171 651 C171 606 208 569 253 569 C298 569 335 606 335 651 C335 696 298 733 253 733 C208 733 171 696 171 651 L171 651 Z " />
<glyph glyph-name="Gcommaaccent" unicode="&#x122;" horiz-adv-x="822" d="M342 -336 C420 -312 502 -241 502 -158 C502 -99 454 -59 415 -59 C380 -59 342 -100 339 -133 C392 -149 417 -178 417 -211 C417 -247 380 -287 320 -315 L342 -336 Z M450 715 C248 715 51 589 51 349 C51 200 130 -15 450 -15 C566 -15 713 43 713 43 L713 221 C713 253 724 262 760 271 L795 280 L795 321 L655 316 L485 321 L485 280 L547 270 C585 264 596 254 596 222 L596 75 C596 47 548 37 490 37 C256 37 173 209 173 366 C173 548 283 665 456 665 C543 665 618 631 644 552 L665 489 L702 489 C708 562 720 665 723 700 L645 688 C612 698 530 715 450 715 L450 715 Z " />
<glyph glyph-name="gcommaaccent" unicode="&#x123;" horiz-adv-x="549" d="M336 824 C258 800 176 729 176 646 C176 587 224 547 263 547 C298 547 336 588 339 621 C286 637 261 666 261 699 C261 735 298 775 358 803 L336 824 Z M126 -110 C126 -62 151 -30 175 -18 C209 -19 287 -25 350 -36 C399 -45 413 -74 413 -111 C413 -183 357 -219 273 -219 C191 -219 126 -186 126 -110 L126 -110 Z M253 186 C202 186 157 230 157 329 C157 385 173 459 251 459 C301 459 344 417 344 316 C344 259 329 186 253 186 L253 186 Z M529 387 L541 390 L541 484 L381 459 C347 482 297 494 253 494 C126 494 48 419 48 320 C48 252 83 205 130 179 C88 146 62 109 62 76 C62 36 87 7 134 -3 L134 -12 C80 -30 32 -69 32 -131 C32 -204 107 -259 236 -259 C425 -259 510 -165 510 -66 C510 12 460 52 366 62 L254 74 C154 84 143 90 143 118 C143 135 151 152 159 165 C184 155 213 149 249 149 C372 149 454 219 454 323 C454 379 415 419 415 419 L529 387 Z " />
<glyph glyph-name="Hcircumflex" unicode="&#x124;" horiz-adv-x="884" d="M258 381 C258 534 261 608 261 608 C262 638 272 649 309 656 L362 666 L362 705 L202 700 L42 705 L42 666 L95 656 C132 649 143 638 144 608 C144 608 147 520 147 355 C147 190 144 92 144 92 C143 62 132 51 95 44 L42 34 L42 -5 L202 0 L362 -5 L362 34 L309 44 C272 51 262 62 261 92 C261 92 258 179 258 335 L626 335 C626 179 623 92 623 92 C622 62 612 51 575 44 L522 34 L522 -5 L682 0 L842 -5 L842 34 L789 44 C752 51 741 62 740 92 C740 92 737 190 737 355 C737 520 740 608 740 608 C741 638 752 649 789 656 L842 666 L842 705 L682 700 L522 705 L522 666 L575 656 C612 649 622 638 623 608 C623 608 626 534 626 381 L258 381 Z M273 778 L298 761 L434 868 L436 868 L576 760 L597 778 L462 959 L406 959 L273 778 Z " />
<glyph glyph-name="hcircumflex" unicode="&#x125;" horiz-adv-x="593" d="M182 413 C182 413 197 443 197 539 L197 755 L167 755 L25 720 L25 703 L66 688 C92 678 95 655 95 586 L95 81 C95 50 81 45 46 33 L26 26 L26 -5 L147 0 L272 -5 L272 26 L242 33 C207 41 197 50 197 81 L197 285 C197 373 209 433 303 433 C344 433 371 416 386 389 C404 357 404 311 404 266 L404 176 C404 67 398 44 354 33 L326 26 L326 -5 L455 0 L582 -5 L582 26 L553 33 C517 42 505 50 505 81 C505 81 507 243 507 328 C507 436 453 494 347 494 C264 494 208 438 191 411 L182 413 Z M129 845 L154 828 L290 935 L292 935 L432 827 L453 845 L318 1026 L262 1026 L129 845 Z " />
<glyph glyph-name="Hbar" unicode="&#x126;" horiz-adv-x="884" d="M824 485 L824 532 L738 532 C739 579 740 608 740 608 C741 638 752 649 789 656 L842 666 L842 705 L682 700 L522 705 L522 666 L575 656 C612 649 622 638 623 608 C623 608 624 583 625 532 L259 532 C260 581 261 608 261 608 C262 638 272 649 309 656 L362 666 L362 705 L202 700 L42 705 L42 666 L95 656 C132 649 143 638 144 608 C144 608 145 581 146 532 L59 532 L59 485 L146 485 C147 449 147 406 147 355 C147 190 144 92 144 92 C143 62 132 51 95 44 L42 34 L42 -5 L202 0 L362 -5 L362 34 L309 44 C272 51 262 62 261 92 C261 92 258 179 258 335 L626 335 C626 179 623 92 623 92 C622 62 612 51 575 44 L522 34 L522 -5 L682 0 L842 -5 L842 34 L789 44 C752 51 741 62 740 92 C740 92 737 190 737 355 L737 485 L824 485 Z M258 381 L258 485 L625 485 C626 455 626 421 626 381 L258 381 Z " />
<glyph glyph-name="hbar" unicode="&#x127;" horiz-adv-x="593" d="M95 590 L33 590 L33 551 L95 551 L95 81 C95 50 81 45 46 33 L26 26 L26 -5 L147 0 L272 -5 L272 26 L242 33 C207 41 197 50 197 81 L197 285 C197 373 209 433 303 433 C393 433 404 349 404 266 L404 176 C404 67 398 44 354 33 L326 26 L326 -5 L455 0 L582 -5 L582 26 L553 33 C517 42 505 50 505 81 C505 81 507 243 507 328 C507 436 453 494 347 494 C264 494 208 438 191 411 L182 413 C182 413 197 443 197 539 L197 551 L339 551 L339 590 L197 590 L197 755 L167 755 L25 720 L25 703 L66 688 C91 678 95 655 95 590 L95 590 Z " />
<glyph glyph-name="Itilde" unicode="&#x128;" horiz-adv-x="404" d="M261 608 C262 638 272 649 309 656 L362 666 L362 705 L202 700 L42 705 L42 666 L95 656 C132 649 143 638 144 608 C144 608 147 520 147 355 C147 190 144 92 144 92 C143 62 132 51 95 44 L42 34 L42 -5 L202 0 L362 -5 L362 34 L309 44 C272 51 262 62 261 92 C261 92 258 190 258 355 C258 520 261 608 261 608 L261 608 Z M289 870 C252 870 184 907 141 907 C79 907 45 847 34 794 L57 783 C74 817 96 825 120 825 C144 825 214 790 253 790 C328 790 354 843 368 902 L346 913 C329 878 316 870 289 870 L289 870 Z " />
<glyph glyph-name="itilde" unicode="&#x129;" horiz-adv-x="306" d="M238 658 C201 658 133 695 90 695 C28 695 -6 635 -17 582 L6 571 C23 605 45 613 69 613 C93 613 163 578 202 578 C277 578 303 631 317 690 L295 701 C278 666 265 658 238 658 L238 658 Z M107 81 C107 50 95 42 58 33 L28 26 L28 -5 L158 0 L287 -5 L287 26 L256 33 C220 42 209 50 209 81 L209 330 C209 427 211 500 211 500 L173 500 L34 433 L34 416 L75 401 C102 391 107 368 107 299 L107 81 Z " />
<glyph glyph-name="imacron" unicode="&#x12b;" horiz-adv-x="306" d="M301 581 L301 645 L6 645 L6 581 L301 581 Z M107 81 C107 50 95 42 58 33 L28 26 L28 -5 L158 0 L287 -5 L287 26 L256 33 C220 42 209 50 209 81 L209 330 C209 427 211 500 211 500 L173 500 L34 433 L34 416 L75 401 C102 391 107 368 107 299 L107 81 Z " />
<glyph glyph-name="Ibreve" unicode="&#x12c;" horiz-adv-x="404" d="M261 608 C262 638 272 649 309 656 L362 666 L362 705 L202 700 L42 705 L42 666 L95 656 C132 649 143 638 144 608 C144 608 147 520 147 355 C147 190 144 92 144 92 C143 62 132 51 95 44 L42 34 L42 -5 L202 0 L362 -5 L362 34 L309 44 C272 51 262 62 261 92 C261 92 258 190 258 355 C258 520 261 608 261 608 L261 608 Z M202 853 C102 853 100 914 100 956 L100 961 L59 961 L59 923 C59 832 110 766 202 766 C295 766 345 832 345 923 L345 961 L305 961 L305 956 C305 914 302 853 202 853 L202 853 Z " />
<glyph glyph-name="Iogonek" unicode="&#x12e;" horiz-adv-x="404" d="M261 608 C262 638 272 649 309 656 L362 666 L362 705 L202 700 L42 705 L42 666 L95 656 C132 649 143 638 144 608 C144 608 147 520 147 355 C147 190 144 92 144 92 C143 62 132 51 95 44 L42 34 L42 -5 L202 0 L242 -1 C172 -39 110 -101 110 -166 C110 -230 163 -269 231 -269 C257 -269 295 -264 323 -254 L341 -222 C331 -224 317 -225 307 -225 C259 -225 209 -216 209 -151 C209 -91 253 -36 286 -2 L362 -5 L362 34 L309 44 C272 51 262 62 261 92 C261 92 258 190 258 355 C258 520 261 608 261 608 L261 608 Z " />
<glyph glyph-name="iogonek" unicode="&#x12f;" horiz-adv-x="306" d="M107 81 C107 50 95 42 58 33 L28 26 L28 -5 L158 0 L170 0 C100 -38 37 -100 37 -166 C37 -230 90 -269 158 -269 C184 -269 222 -264 250 -254 L268 -222 C258 -224 244 -225 234 -225 C186 -225 136 -216 136 -151 C136 -91 180 -35 213 -2 L287 -5 L287 26 L256 33 C220 42 209 50 209 81 L209 330 C209 427 211 500 211 500 L173 500 L34 433 L34 416 L75 401 C102 391 107 368 107 299 L107 81 Z M77 667 C77 625 110 592 152 592 C194 592 228 625 228 667 C228 709 194 743 152 743 C110 743 77 709 77 667 L77 667 Z " />
<glyph glyph-name="Idotaccent" unicode="&#x130;" horiz-adv-x="405" d="M202 0 L362 -5 L362 33 L309 43 C273 50 262 61 261 91 C261 91 258 184 258 349 C258 514 261 607 261 607 C264 641 273 649 309 656 L362 666 L362 705 L202 700 L42 705 L42 666 L95 656 C132 649 141 641 144 607 C144 607 147 514 147 349 C147 184 144 91 144 91 C143 61 132 50 95 43 L42 33 L42 -5 L202 0 Z M122 868 C122 823 158 786 203 786 C248 786 284 823 284 868 C284 913 248 950 203 950 C158 950 122 913 122 868 L122 868 Z " />
<glyph glyph-name="dotlessi" unicode="&#x131;" horiz-adv-x="306" d="M107 81 C107 50 95 42 58 33 L28 26 L28 -5 L158 0 L287 -5 L287 26 L256 33 C220 42 209 50 209 81 L209 330 C209 427 211 500 211 500 L173 500 L34 433 L34 416 L75 401 C102 391 107 368 107 299 L107 81 Z " />
<glyph glyph-name="IJ" unicode="&#x132;" horiz-adv-x="404" d="M261 608 C262 638 272 649 309 656 L362 666 L362 705 L202 700 L42 705 L42 666 L95 656 C132 649 143 638 144 608 C144 608 147 520 147 355 C147 190 144 92 144 92 C143 62 132 51 95 44 L42 34 L42 -5 L202 0 L362 -5 L362 34 L309 44 C272 51 262 62 261 92 C261 92 258 190 258 355 C258 520 261 608 261 608 L261 608 Z M651 608 C652 638 662 649 699 656 L752 666 L752 705 L592 700 L432 705 L432 666 L485 656 C522 649 533 638 534 608 C534 608 537 520 537 355 C537 210 534 63 534 35 C533 -87 490 -127 406 -145 L422 -182 C556 -179 639 -129 648 0 L752 0 L752 38 L700 45 C662 50 650 63 649 93 C649 93 648 239 648 355 C648 520 651 608 651 608 L651 608 Z " />
<glyph glyph-name="ij" unicode="&#x133;" horiz-adv-x="587" d="M107 81 C107 50 95 42 58 33 L28 26 L28 -5 L158 0 L287 -5 L287 26 L256 33 C220 42 209 50 209 81 L209 330 C209 427 211 500 211 500 L173 500 L34 433 L34 416 L75 401 C102 391 107 368 107 299 L107 81 Z M77 667 C77 625 110 592 152 592 C194 592 228 625 228 667 C228 709 194 743 152 743 C110 743 77 709 77 667 L77 667 Z M388 -65 C388 -149 366 -192 294 -216 L314 -243 L330 -241 C441 -227 489 -162 489 -62 L489 0 L568 0 L568 31 L539 38 C502 47 490 56 490 87 L490 330 C490 427 493 500 493 500 L455 500 L316 433 L316 416 L357 401 C383 391 388 368 388 299 L388 -65 Z M358 667 C358 625 391 592 433 592 C475 592 509 625 509 667 C509 709 475 743 433 743 C391 743 358 709 358 667 L358 667 Z " />
<glyph glyph-name="Jcircumflex" unicode="&#x134;" horiz-adv-x="394" d="M250 608 C251 638 261 649 298 656 L351 666 L351 705 L191 700 L31 705 L31 666 L84 656 C121 649 132 638 133 608 C133 608 136 520 136 355 C136 210 133 63 133 35 C132 -87 89 -127 5 -145 L21 -182 C155 -179 238 -129 247 0 L351 0 L351 38 L299 45 C261 50 249 63 248 93 C248 93 247 239 247 355 C247 520 250 608 250 608 L250 608 Z M28 778 L53 761 L189 868 L191 868 L331 760 L352 778 L217 959 L161 959 L28 778 Z " />
<glyph glyph-name="jcircumflex" unicode="&#x135;" horiz-adv-x="293" d="M94 -65 C94 -149 72 -192 0 -216 L20 -243 L36 -241 C147 -227 195 -162 195 -62 L195 0 L274 0 L274 31 L245 38 C208 47 196 56 196 87 L196 330 C196 427 199 500 199 500 L161 500 L22 433 L22 416 L63 401 C89 391 94 368 94 299 L94 -65 Z M-22 566 L3 549 L139 656 L141 656 L281 548 L302 566 L167 747 L111 747 L-22 566 Z " />
<glyph glyph-name="Kcommaaccent" unicode="&#x136;" horiz-adv-x="771" d="M316 -336 C394 -312 476 -241 476 -158 C476 -99 428 -59 389 -59 C354 -59 316 -100 313 -133 C366 -149 391 -178 391 -211 C391 -247 354 -287 294 -315 L316 -336 Z M203 0 L362 -5 L362 34 L309 44 C273 51 262 62 261 92 C261 92 258 179 258 335 L365 335 C365 335 446 219 586 -3 L645 0 L778 -5 L778 33 L728 46 C701 53 689 59 670 86 L445 406 C450 413 499 469 584 570 C637 632 651 646 690 655 L738 666 L738 705 L603 700 L455 705 L455 666 L505 656 C531 651 546 644 546 626 C546 618 542 607 533 595 C450 485 368 381 368 381 L258 381 C258 526 261 607 261 607 C263 641 273 649 309 656 L362 666 L362 705 L203 700 L42 705 L42 666 L95 656 C132 649 144 641 144 607 C144 607 147 514 147 349 C147 184 144 92 144 92 C143 62 132 51 95 44 L42 34 L42 -5 L203 0 Z " />
<glyph glyph-name="kcommaaccent" unicode="&#x137;" horiz-adv-x="575" d="M217 -336 C295 -312 377 -241 377 -158 C377 -99 329 -59 290 -59 C255 -59 217 -100 214 -133 C267 -149 292 -178 292 -211 C292 -247 255 -287 195 -315 L217 -336 Z M199 480 C199 599 202 755 202 755 L172 755 L26 720 L26 703 L67 688 C93 678 96 655 96 586 L96 81 C96 50 85 42 48 33 L18 26 L18 -5 L140 0 L277 -5 L277 26 L247 33 C210 42 199 50 199 81 L199 245 L246 245 C246 245 373 59 403 -2 L488 0 L566 -1 L566 30 L535 39 C505 47 493 56 477 80 L329 300 L435 395 C458 416 488 434 525 444 L552 451 L552 483 L422 478 L312 483 L312 446 L356 441 C386 437 391 416 370 394 C350 373 257 287 257 287 L199 287 L199 480 Z " />
<glyph glyph-name="kgreenlandic" unicode="&#x138;" horiz-adv-x="591" d="M210 267 L210 398 C210 429 221 438 255 446 L284 453 L284 485 L159 480 L28 485 L28 453 L59 446 C95 438 107 428 107 398 L107 81 C107 51 95 41 59 33 L28 26 L28 -5 L159 0 L288 -5 L288 26 L257 33 C220 41 210 50 210 81 L210 225 L266 225 C266 225 387 57 417 -3 L487 0 L584 -1 L584 30 L550 39 C521 47 508 56 491 80 C444 147 396 214 348 281 L453 397 C475 421 492 432 543 446 L569 453 L569 484 L432 479 L342 484 L342 448 L371 443 C390 440 397 433 397 420 C397 412 394 407 390 401 C350 351 317 310 279 267 L210 267 Z " />
<glyph glyph-name="Lacute" unicode="&#x139;" horiz-adv-x="666" d="M420 0 C479 0 616 -5 616 -5 C620 31 644 194 647 212 L610 212 L565 128 C527 56 491 48 441 48 L332 48 C282 48 263 61 262 104 C261 143 258 250 258 351 C258 516 261 607 261 607 C263 641 273 649 309 656 L362 666 L362 705 L203 700 L42 705 L42 666 L95 656 C132 649 144 641 144 607 C144 607 147 516 147 351 C147 186 144 92 144 92 C143 62 132 51 95 44 L42 34 L42 -5 L199 0 L420 0 Z M244 770 L285 764 L465 953 L328 953 L244 770 Z " />
<glyph glyph-name="lacute" unicode="&#x13a;" horiz-adv-x="296" d="M200 451 C200 590 203 755 203 755 L173 755 L27 720 L27 703 L67 688 C94 678 97 655 97 586 L97 81 C97 50 85 41 48 33 L18 26 L18 -5 L148 0 L282 -5 L282 26 L248 33 C210 42 200 50 200 81 L200 451 Z M41 816 L82 810 L262 999 L125 999 L41 816 Z " />
<glyph glyph-name="Lcommaaccent" unicode="&#x13b;" horiz-adv-x="665" d="M263 -336 C341 -312 423 -241 423 -158 C423 -99 375 -59 336 -59 C301 -59 263 -100 260 -133 C313 -149 338 -178 338 -211 C338 -247 301 -287 241 -315 L263 -336 Z M420 0 C479 0 616 -5 616 -5 C620 31 644 194 647 212 L610 212 L565 128 C527 56 491 48 441 48 L332 48 C282 48 263 61 262 104 C261 143 258 250 258 351 C258 516 261 607 261 607 C263 641 273 649 309 656 L362 666 L362 705 L203 700 L42 705 L42 666 L95 656 C132 649 144 641 144 607 C144 607 147 516 147 351 C147 186 144 92 144 92 C143 62 132 51 95 44 L42 34 L42 -5 L199 0 L420 0 Z " />
<glyph glyph-name="lcommaaccent" unicode="&#x13c;" horiz-adv-x="297" d="M200 451 C200 590 203 755 203 755 L173 755 L27 720 L27 703 L67 688 C94 678 97 655 97 586 L97 81 C97 50 85 41 48 33 L18 26 L18 -5 L148 0 L282 -5 L282 26 L248 33 C210 42 200 50 200 81 L200 451 Z M72 -336 C150 -312 232 -241 232 -158 C232 -99 184 -59 145 -59 C110 -59 72 -100 69 -133 C122 -149 147 -178 147 -211 C147 -247 110 -287 50 -315 L72 -336 Z " />
<glyph glyph-name="Lcaron" unicode="&#x13d;" horiz-adv-x="673" d="M459 474 C537 498 619 569 619 652 C619 711 571 751 532 751 C497 751 459 710 456 677 C509 661 534 632 534 599 C534 563 497 523 437 495 L459 474 Z M420 0 C479 0 616 -5 616 -5 C620 31 644 194 647 212 L610 212 L565 128 C527 56 491 48 441 48 L332 48 C282 48 263 61 262 104 C261 143 258 250 258 351 C258 516 261 607 261 607 C263 641 273 649 309 656 L362 666 L362 705 L203 700 L42 705 L42 666 L95 656 C132 649 144 641 144 607 C144 607 147 516 147 351 C147 186 144 92 144 92 C143 62 132 51 95 44 L42 34 L42 -5 L199 0 L420 0 Z " />
<glyph glyph-name="lcaron" unicode="&#x13e;" horiz-adv-x="454" d="M200 451 C200 590 203 755 203 755 L173 755 L27 720 L27 703 L67 688 C94 678 97 655 97 586 L97 81 C97 50 85 41 48 33 L18 26 L18 -5 L148 0 L282 -5 L282 26 L248 33 C210 42 200 50 200 81 L200 451 Z M294 474 C372 498 454 569 454 652 C454 711 406 751 367 751 C332 751 294 710 291 677 C344 661 369 632 369 599 C369 563 332 523 272 495 L294 474 Z " />
<glyph glyph-name="Ldot" unicode="&#x13f;" horiz-adv-x="666" d="M420 0 C479 0 616 -5 616 -5 C620 31 644 194 647 212 L610 212 L565 128 C527 56 491 48 441 48 L332 48 C282 48 263 61 262 104 C261 143 258 250 258 351 C258 516 261 607 261 607 C263 641 273 649 309 656 L362 666 L362 705 L203 700 L42 705 L42 666 L95 656 C132 649 144 641 144 607 C144 607 147 516 147 351 C147 186 144 92 144 92 C143 62 132 51 95 44 L42 34 L42 -5 L199 0 L420 0 Z M380 358 C380 315 414 281 457 281 C500 281 535 315 535 358 C535 401 500 436 457 436 C414 436 380 401 380 358 L380 358 Z " />
<glyph glyph-name="ldot" unicode="&#x140;" horiz-adv-x="433" d="M200 451 C200 590 203 755 203 755 L173 755 L27 720 L27 703 L67 688 C94 678 97 655 97 586 L97 81 C97 50 85 41 48 33 L18 26 L18 -5 L148 0 L282 -5 L282 26 L248 33 C210 42 200 50 200 81 L200 451 Z M287 358 C287 315 321 281 364 281 C407 281 442 315 442 358 C442 401 407 436 364 436 C321 436 287 401 287 358 L287 358 Z " />
<glyph glyph-name="Lslash" unicode="&#x141;" horiz-adv-x="671" d="M48 236 L147 275 C146 159 144 92 144 92 C143 62 132 51 95 44 L42 34 L42 -5 L199 0 L420 0 C478 0 623 -5 623 -5 L646 212 L610 212 L564 126 C525 54 492 48 441 48 L332 48 C282 48 263 61 262 104 C260 157 258 185 258 320 L464 403 L464 451 L258 368 C258 521 261 607 261 607 C263 641 273 649 309 656 L362 666 L362 705 L203 700 L42 705 L42 666 L95 656 C132 649 143 641 144 607 C144 607 147 516 147 351 L147 323 L48 284 L48 236 Z " />
<glyph glyph-name="lslash" unicode="&#x142;" horiz-adv-x="302" d="M200 451 C200 590 203 755 203 755 L173 755 L27 720 L27 703 L67 688 C94 678 97 655 97 586 L97 315 L15 284 L15 236 L97 267 L97 81 C97 50 85 41 48 33 L18 26 L18 -5 L148 0 L282 -5 L282 26 L248 33 C210 42 200 50 200 81 L200 306 L288 340 L288 388 L200 354 L200 451 Z " />
<glyph glyph-name="Nacute" unicode="&#x143;" horiz-adv-x="866" d="M149 607 C149 540 141 155 139 92 C138 61 127 51 90 44 L37 34 L37 -5 L162 0 L300 -5 L300 34 L246 44 C210 51 198 61 198 92 C198 226 197 620 197 620 C197 620 381 384 665 -5 L729 -5 C729 82 735 607 735 607 C735 639 746 649 783 656 L836 666 L836 705 L707 700 L573 705 L573 666 L627 656 C663 649 674 639 675 607 C680 413 685 160 685 160 L335 629 C312 659 293 705 293 705 L183 700 L51 705 L51 666 L101 656 C138 649 149 638 149 607 L149 607 Z M376 770 L417 764 L597 953 L460 953 L376 770 Z " />
<glyph glyph-name="nacute" unicode="&#x144;" horiz-adv-x="601" d="M205 285 C205 373 217 433 311 433 C352 433 379 416 394 389 C412 357 412 311 412 266 C412 211 411 118 410 103 C408 45 394 42 362 33 L334 26 L334 -5 L463 0 L590 -5 L590 26 L561 33 C525 42 513 50 513 81 C513 81 515 243 515 328 C515 436 461 494 355 494 C272 494 215 438 199 411 L190 413 L193 500 L165 500 L32 433 L32 416 L73 401 C100 391 103 371 103 302 L103 81 C103 50 89 45 54 33 L33 26 L33 -5 L155 0 L280 -5 L280 26 L250 33 C214 41 205 50 205 81 L205 285 Z M223 558 L264 552 L444 741 L307 741 L223 558 Z " />
<glyph glyph-name="Ncommaaccent" unicode="&#x145;" horiz-adv-x="866" d="M358 -336 C436 -312 518 -241 518 -158 C518 -99 470 -59 431 -59 C396 -59 358 -100 355 -133 C408 -149 433 -178 433 -211 C433 -247 396 -287 336 -315 L358 -336 Z M149 607 C149 540 141 155 139 92 C138 61 127 51 90 44 L37 34 L37 -5 L162 0 L300 -5 L300 34 L246 44 C210 51 198 61 198 92 C198 226 197 620 197 620 C197 620 381 384 665 -5 L729 -5 C729 82 735 607 735 607 C735 639 746 649 783 656 L836 666 L836 705 L707 700 L573 705 L573 666 L627 656 C663 649 674 639 675 607 C680 413 685 160 685 160 L335 629 C312 659 293 705 293 705 L183 700 L51 705 L51 666 L101 656 C138 649 149 638 149 607 L149 607 Z " />
<glyph glyph-name="ncommaaccent" unicode="&#x146;" horiz-adv-x="602" d="M231 -336 C309 -312 391 -241 391 -158 C391 -99 343 -59 304 -59 C269 -59 231 -100 228 -133 C281 -149 306 -178 306 -211 C306 -247 269 -287 209 -315 L231 -336 Z M205 285 C205 373 217 433 311 433 C352 433 379 416 394 389 C412 357 412 311 412 266 C412 211 411 118 410 103 C408 45 394 42 362 33 L334 26 L334 -5 L463 0 L590 -5 L590 26 L561 33 C525 42 513 50 513 81 C513 81 515 243 515 328 C515 436 461 494 355 494 C272 494 215 438 199 411 L190 413 L193 500 L165 500 L32 433 L32 416 L73 401 C100 391 103 371 103 302 L103 81 C103 50 89 45 54 33 L33 26 L33 -5 L155 0 L280 -5 L280 26 L250 33 C214 41 205 50 205 81 L205 285 Z " />
<glyph glyph-name="Ncaron" unicode="&#x147;" horiz-adv-x="866" d="M149 607 C149 540 141 155 139 92 C138 61 127 51 90 44 L37 34 L37 -5 L162 0 L300 -5 L300 34 L246 44 C210 51 198 61 198 92 C198 226 197 620 197 620 C197 620 381 384 665 -5 L729 -5 C729 82 735 607 735 607 C735 639 746 649 783 656 L836 666 L836 705 L707 700 L573 705 L573 666 L627 656 C663 649 674 639 675 607 C680 413 685 160 685 160 L335 629 C312 659 293 705 293 705 L183 700 L51 705 L51 666 L101 656 C138 649 149 638 149 607 L149 607 Z M395 761 L451 761 L586 941 L565 960 L425 851 L423 851 L287 959 L262 941 L395 761 Z " />
<glyph glyph-name="ncaron" unicode="&#x148;" horiz-adv-x="601" d="M205 285 C205 373 217 433 311 433 C352 433 379 416 394 389 C412 357 412 311 412 266 C412 211 411 118 410 103 C408 45 394 42 362 33 L334 26 L334 -5 L463 0 L590 -5 L590 26 L561 33 C525 42 513 50 513 81 C513 81 515 243 515 328 C515 436 461 494 355 494 C272 494 215 438 199 411 L190 413 L193 500 L165 500 L32 433 L32 416 L73 401 C100 391 103 371 103 302 L103 81 C103 50 89 45 54 33 L33 26 L33 -5 L155 0 L280 -5 L280 26 L250 33 C214 41 205 50 205 81 L205 285 Z M271 549 L327 549 L462 729 L441 748 L301 639 L299 639 L163 747 L138 729 L271 549 Z " />
<glyph glyph-name="napostrophe" unicode="&#x149;" horiz-adv-x="601" d="M53 516 C131 540 213 611 213 694 C213 753 165 793 126 793 C91 793 53 752 50 719 C103 703 128 674 128 641 C128 605 91 565 31 537 L53 516 Z M205 285 C205 373 217 433 311 433 C352 433 379 416 394 389 C412 357 412 311 412 266 C412 211 411 118 410 103 C408 45 394 42 362 33 L334 26 L334 -5 L463 0 L590 -5 L590 26 L561 33 C525 42 513 50 513 81 C513 81 515 243 515 328 C515 436 461 494 355 494 C272 494 215 438 199 411 L190 413 L193 500 L165 500 L32 433 L32 416 L73 401 C100 391 103 371 103 302 L103 81 C103 50 89 45 54 33 L33 26 L33 -5 L155 0 L280 -5 L280 26 L250 33 C214 41 205 50 205 81 L205 285 Z " />
<glyph glyph-name="Eng" unicode="&#x14a;" horiz-adv-x="866" d="M149 607 C149 540 141 155 139 92 C138 61 127 51 90 44 L37 34 L37 -5 L162 0 L300 -5 L300 34 L246 44 C210 51 198 61 198 92 C198 226 197 620 197 620 C197 620 364 405 616 63 L616 -45 C615 -167 564 -207 480 -225 L497 -263 C634 -260 729 -204 729 -71 L729 45 C729 370 735 607 735 607 C735 639 746 649 783 656 L836 666 L836 705 L707 700 L573 705 L573 666 L627 656 C663 649 674 639 675 607 C680 413 685 160 685 160 L335 629 C312 659 293 705 293 705 L183 700 L51 705 L51 666 L101 656 C138 649 149 638 149 607 L149 607 Z " />
<glyph glyph-name="eng" unicode="&#x14b;" horiz-adv-x="601" d="M411 -66 C411 -150 389 -193 317 -217 L337 -244 L353 -242 C464 -228 512 -163 512 -63 L512 -2 L590 -5 L590 26 L561 33 C525 42 513 50 513 81 C513 81 515 243 515 328 C515 436 461 494 355 494 C272 494 215 438 199 411 L190 413 L193 500 L165 500 L32 433 L32 416 L73 401 C100 391 103 371 103 302 L103 81 C103 50 89 45 54 33 L33 26 L33 -5 L155 0 L280 -5 L280 26 L250 33 C214 41 205 50 205 81 L205 285 C205 373 216 433 311 433 C401 433 412 349 412 266 C412 231 411 80 411 -15 L411 -66 Z " />
<glyph glyph-name="Omacron" unicode="&#x14c;" horiz-adv-x="831" d="M420 34 C291 34 173 135 173 363 C173 493 230 665 412 665 C542 665 657 563 657 336 C657 206 601 34 420 34 L420 34 Z M424 715 C196 714 51 556 51 343 C51 100 241 -15 407 -15 C633 -15 779 141 779 354 C779 595 597 715 424 715 L424 715 Z M562 793 L562 857 L267 857 L267 793 L562 793 Z " />
<glyph glyph-name="omacron" unicode="&#x14d;" horiz-adv-x="565" d="M277 -15 C425 -15 525 89 525 244 C525 413 406 494 290 494 C136 494 40 382 40 235 C40 65 161 -15 277 -15 L277 -15 Z M285 24 C213 24 149 94 149 248 C149 336 174 454 281 454 C351 454 416 389 416 230 C416 142 392 24 285 24 L285 24 Z M431 581 L431 645 L136 645 L136 581 L431 581 Z " />
<glyph glyph-name="Obreve" unicode="&#x14e;" horiz-adv-x="831" d="M420 34 C291 34 173 135 173 363 C173 493 230 665 412 665 C542 665 657 563 657 336 C657 206 601 34 420 34 L420 34 Z M424 715 C196 714 51 556 51 343 C51 100 241 -15 407 -15 C633 -15 779 141 779 354 C779 595 597 715 424 715 L424 715 Z M415 853 C315 853 313 914 313 956 L313 961 L272 961 L272 923 C272 832 323 766 415 766 C508 766 558 832 558 923 L558 961 L518 961 L518 956 C518 914 515 853 415 853 L415 853 Z " />
<glyph glyph-name="obreve" unicode="&#x14f;" horiz-adv-x="565" d="M277 -15 C425 -15 525 89 525 244 C525 413 406 494 290 494 C136 494 40 382 40 235 C40 65 161 -15 277 -15 L277 -15 Z M285 24 C213 24 149 94 149 248 C149 336 174 454 281 454 C351 454 416 389 416 230 C416 142 392 24 285 24 L285 24 Z M281 641 C181 641 179 702 179 744 L179 749 L138 749 L138 711 C138 620 189 554 281 554 C374 554 424 620 424 711 L424 749 L384 749 L384 744 C384 702 381 641 281 641 L281 641 Z " />
<glyph glyph-name="Ohungarumlaut" unicode="&#x150;" horiz-adv-x="831" d="M420 34 C291 34 173 135 173 363 C173 493 230 665 412 665 C542 665 657 563 657 336 C657 206 601 34 420 34 L420 34 Z M424 715 C196 714 51 556 51 343 C51 100 241 -15 407 -15 C633 -15 779 141 779 354 C779 595 597 715 424 715 L424 715 Z M255 787 L297 781 L469 970 L337 970 L255 787 Z M447 787 L487 781 L661 970 L528 970 L447 787 Z " />
<glyph glyph-name="ohungarumlaut" unicode="&#x151;" horiz-adv-x="565" d="M277 -15 C425 -15 525 89 525 244 C525 413 406 494 290 494 C136 494 40 382 40 235 C40 65 161 -15 277 -15 L277 -15 Z M285 24 C213 24 149 94 149 248 C149 336 174 454 281 454 C351 454 416 389 416 230 C416 142 392 24 285 24 L285 24 Z M97 558 L139 552 L311 741 L179 741 L97 558 Z M289 558 L329 552 L503 741 L370 741 L289 558 Z " />
<glyph glyph-name="OE" unicode="&#x152;" horiz-adv-x="1148" d="M532 661 C581 661 594 644 594 614 L594 90 C594 61 592 43 548 43 L478 43 C286 43 179 148 179 340 C179 605 332 661 475 661 L532 661 Z M879 0 C938 0 1075 -5 1075 -5 C1079 31 1103 194 1106 212 L1069 212 L1024 128 C985 56 949 48 900 48 L779 48 C729 48 707 68 707 111 L707 336 C707 336 781 336 839 333 C871 331 883 319 892 282 L905 227 L944 227 L939 359 L944 489 L905 489 L892 434 C883 397 871 385 839 383 C781 380 707 380 707 380 L707 636 C707 646 708 652 725 652 L920 652 C960 652 980 617 996 554 L1008 508 L1048 508 C1057 650 1065 711 1065 711 C1065 711 967 700 908 700 L644 700 C586 704 533 711 458 711 C245 711 52 592 52 337 C52 151 175 -8 426 -8 C456 -8 520 -5 593 0 L879 0 Z " />
<glyph glyph-name="oe" unicode="&#x153;" horiz-adv-x="881" d="M277 -15 C356 -15 421 14 464 66 C506 11 570 -15 636 -15 C707 -15 789 9 836 96 L815 124 C793 84 741 57 685 57 C606 57 525 115 525 251 L525 275 L842 275 L842 296 C842 391 781 494 643 494 C580 494 516 463 472 407 C427 465 358 494 290 494 C136 494 40 382 40 235 C40 65 161 -15 277 -15 L277 -15 Z M731 314 L527 311 C532 403 573 456 639 456 C701 456 731 400 731 322 L731 314 Z M285 24 C213 24 149 94 149 248 C149 336 174 454 281 454 C351 454 416 389 416 230 C416 142 392 24 285 24 L285 24 Z " />
<glyph glyph-name="Racute" unicode="&#x154;" horiz-adv-x="748" d="M147 349 C147 184 144 92 144 92 C144 62 132 51 95 44 L42 34 L42 -5 L204 0 L366 -5 L366 34 L312 44 C276 51 262 61 261 92 C258 209 258 314 258 314 L373 314 C387 293 402 269 417 244 C471 154 526 48 582 15 C623 -9 669 -12 731 -12 L765 -12 L776 28 C693 39 643 108 593 181 L480 344 C569 381 623 447 623 526 C623 678 493 710 408 710 C343 710 246 701 244 702 L42 705 L42 666 L95 656 C132 649 141 641 144 607 C144 607 147 514 147 349 L147 349 Z M345 663 C435 663 503 615 503 515 C503 397 428 359 386 359 L344 359 C306 359 277 366 258 369 L258 647 C258 657 259 663 276 663 L345 663 Z M277 770 L318 764 L498 953 L361 953 L277 770 Z " />
<glyph glyph-name="racute" unicode="&#x155;" horiz-adv-x="430" d="M189 388 L193 500 L165 500 L32 433 L32 416 L73 401 C100 391 103 368 103 299 L103 81 C103 50 89 45 54 33 L33 26 L33 -5 L154 0 L298 -5 L298 26 L253 33 C217 39 205 50 205 81 L205 354 C214 362 268 393 286 402 C295 400 353 352 353 352 L366 352 C400 367 421 394 421 423 C421 457 396 489 344 489 C286 489 225 425 198 386 L189 388 Z M107 558 L148 552 L328 741 L191 741 L107 558 Z " />
<glyph glyph-name="Rcommaaccent" unicode="&#x156;" horiz-adv-x="747" d="M304 -336 C382 -312 464 -241 464 -158 C464 -99 416 -59 377 -59 C342 -59 304 -100 301 -133 C354 -149 379 -178 379 -211 C379 -247 342 -287 282 -315 L304 -336 Z M147 349 C147 184 144 92 144 92 C144 62 132 51 95 44 L42 34 L42 -5 L204 0 L366 -5 L366 34 L312 44 C276 51 262 61 261 92 C258 209 258 314 258 314 L373 314 C387 293 402 269 417 244 C471 154 526 48 582 15 C623 -9 669 -12 731 -12 L765 -12 L776 28 C693 39 643 108 593 181 L480 344 C569 381 623 447 623 526 C623 678 493 710 408 710 C343 710 246 701 244 702 L42 705 L42 666 L95 656 C132 649 141 641 144 607 C144 607 147 514 147 349 L147 349 Z M345 663 C435 663 503 615 503 515 C503 397 428 359 386 359 L344 359 C306 359 277 366 258 369 L258 647 C258 657 259 663 276 663 L345 663 Z " />
<glyph glyph-name="rcommaaccent" unicode="&#x157;" horiz-adv-x="430" d="M145 -336 C223 -312 305 -241 305 -158 C305 -99 257 -59 218 -59 C183 -59 145 -100 142 -133 C195 -149 220 -178 220 -211 C220 -247 183 -287 123 -315 L145 -336 Z M189 388 L193 500 L165 500 L32 433 L32 416 L73 401 C100 391 103 368 103 299 L103 81 C103 50 89 45 54 33 L33 26 L33 -5 L154 0 L298 -5 L298 26 L253 33 C217 39 205 50 205 81 L205 354 C214 362 268 393 286 402 C295 400 353 352 353 352 L366 352 C400 367 421 394 421 423 C421 457 396 489 344 489 C286 489 225 425 198 386 L189 388 Z " />
<glyph glyph-name="Rcaron" unicode="&#x158;" horiz-adv-x="748" d="M147 349 C147 184 144 92 144 92 C144 62 132 51 95 44 L42 34 L42 -5 L204 0 L366 -5 L366 34 L312 44 C276 51 262 61 261 92 C258 209 258 314 258 314 L373 314 C387 293 402 269 417 244 C471 154 526 48 582 15 C623 -9 669 -12 731 -12 L765 -12 L776 28 C693 39 643 108 593 181 L480 344 C569 381 623 447 623 526 C623 678 493 710 408 710 C343 710 246 701 244 702 L42 705 L42 666 L95 656 C132 649 141 641 144 607 C144 607 147 514 147 349 L147 349 Z M345 663 C435 663 503 615 503 515 C503 397 428 359 386 359 L344 359 C306 359 277 366 258 369 L258 647 C258 657 259 663 276 663 L345 663 Z M334 763 L390 763 L525 943 L504 962 L364 853 L362 853 L226 961 L201 943 L334 763 Z " />
<glyph glyph-name="rcaron" unicode="&#x159;" horiz-adv-x="430" d="M189 388 L193 500 L165 500 L32 433 L32 416 L73 401 C100 391 103 368 103 299 L103 81 C103 50 89 45 54 33 L33 26 L33 -5 L154 0 L298 -5 L298 26 L253 33 C217 39 205 50 205 81 L205 354 C214 362 268 393 286 402 C295 400 353 352 353 352 L366 352 C400 367 421 394 421 423 C421 457 396 489 344 489 C286 489 225 425 198 386 L189 388 Z M187 549 L243 549 L378 729 L357 748 L217 639 L215 639 L79 747 L54 729 L187 549 Z " />
<glyph glyph-name="Sacute" unicode="&#x15a;" horiz-adv-x="595" d="M150 103 C115 179 102 232 102 232 L58 227 C65 123 66 49 64 23 C77 20 174 -15 287 -15 C430 -15 540 66 540 201 C540 424 179 403 179 559 C179 628 236 666 313 666 C389 666 417 646 424 626 C444 570 460 511 460 511 L499 511 C506 593 518 685 518 685 C508 689 408 715 317 715 C161 715 75 624 75 526 C75 290 436 340 436 157 C436 76 367 31 294 31 C235 31 172 54 150 103 L150 103 Z M191 770 L232 764 L412 953 L275 953 L191 770 Z " />
<glyph glyph-name="sacute" unicode="&#x15b;" horiz-adv-x="431" d="M90 154 L52 153 C53 137 54 118 54 99 C54 63 52 28 51 13 C51 13 123 -15 208 -15 C302 -15 389 35 389 134 C389 299 145 274 145 387 C145 436 185 454 232 454 C263 454 295 441 301 422 L325 347 L362 349 C365 389 368 435 374 472 C342 486 278 494 230 494 C137 494 52 453 52 352 C52 195 296 223 296 101 C296 57 268 24 210 24 C156 24 129 54 118 82 L90 154 Z M112 558 L153 552 L333 741 L196 741 L112 558 Z " />
<glyph glyph-name="Scircumflex" unicode="&#x15c;" horiz-adv-x="595" d="M150 103 C115 179 102 232 102 232 L58 227 C65 123 66 49 64 23 C77 20 174 -15 287 -15 C430 -15 540 66 540 201 C540 424 179 403 179 559 C179 628 236 666 313 666 C389 666 417 646 424 626 C444 570 460 511 460 511 L499 511 C506 593 518 685 518 685 C508 689 408 715 317 715 C161 715 75 624 75 526 C75 290 436 340 436 157 C436 76 367 31 294 31 C235 31 172 54 150 103 L150 103 Z M126 778 L151 761 L287 868 L289 868 L429 760 L450 778 L315 959 L259 959 L126 778 Z " />
<glyph glyph-name="scircumflex" unicode="&#x15d;" horiz-adv-x="431" d="M90 154 L52 153 C53 137 54 118 54 99 C54 63 52 28 51 13 C51 13 123 -15 208 -15 C302 -15 389 35 389 134 C389 299 145 274 145 387 C145 436 185 454 232 454 C263 454 295 441 301 422 L325 347 L362 349 C365 389 368 435 374 472 C342 486 278 494 230 494 C137 494 52 453 52 352 C52 195 296 223 296 101 C296 57 268 24 210 24 C156 24 129 54 118 82 L90 154 Z M51 566 L76 549 L212 656 L214 656 L354 548 L375 566 L240 747 L184 747 L51 566 Z " />
<glyph glyph-name="Scedilla" unicode="&#x15e;" horiz-adv-x="595" d="M150 103 C115 179 102 232 102 232 L58 227 C65 123 66 49 64 23 C76 20 161 -10 264 -14 L178 -84 C205 -90 308 -116 308 -176 C308 -221 273 -236 233 -236 C206 -236 182 -229 166 -222 L159 -252 C187 -266 234 -278 276 -278 C347 -278 414 -244 414 -168 C414 -78 317 -62 274 -61 L314 -14 C444 -4 540 75 540 201 C540 424 179 403 179 559 C179 628 236 666 313 666 C389 666 417 646 424 626 C444 570 460 511 460 511 L499 511 C506 593 518 685 518 685 C508 689 408 715 317 715 C161 715 75 624 75 526 C75 290 436 340 436 157 C436 76 367 31 294 31 C235 31 172 54 150 103 L150 103 Z " />
<glyph glyph-name="scedilla" unicode="&#x15f;" horiz-adv-x="431" d="M90 154 L52 153 C53 137 54 118 54 99 C54 63 52 28 51 13 C51 13 106 -8 176 -14 L89 -84 C116 -90 219 -116 219 -176 C219 -221 184 -236 144 -236 C117 -236 93 -229 77 -222 L70 -252 C98 -266 145 -278 187 -278 C258 -278 325 -244 325 -168 C325 -78 228 -62 185 -61 L225 -14 C312 -9 389 41 389 134 C389 299 145 274 145 387 C145 436 185 454 232 454 C263 454 295 441 301 422 L325 347 L362 349 C365 389 368 435 374 472 C342 486 278 494 230 494 C137 494 52 453 52 352 C52 195 296 223 296 101 C296 57 268 24 210 24 C156 24 129 54 118 82 L90 154 Z " />
<glyph glyph-name="Scaron" unicode="&#x160;" horiz-adv-x="595" d="M150 103 C115 179 102 232 102 232 L58 227 C65 123 66 49 64 23 C77 20 174 -15 287 -15 C430 -15 540 66 540 201 C540 424 179 403 179 559 C179 628 236 666 313 666 C389 666 417 646 424 626 C444 570 460 511 460 511 L499 511 C506 593 518 685 518 685 C508 689 408 715 317 715 C161 715 75 624 75 526 C75 290 436 340 436 157 C436 76 367 31 294 31 C235 31 172 54 150 103 L150 103 Z M259 761 L315 761 L450 941 L429 960 L289 851 L287 851 L151 959 L126 941 L259 761 Z " />
<glyph glyph-name="scaron" unicode="&#x161;" horiz-adv-x="431" d="M90 154 L52 153 C53 137 54 118 54 99 C54 63 52 28 51 13 C51 13 123 -15 208 -15 C302 -15 389 35 389 134 C389 299 145 274 145 387 C145 436 185 454 232 454 C263 454 295 441 301 422 L325 347 L362 349 C365 389 368 435 374 472 C342 486 278 494 230 494 C137 494 52 453 52 352 C52 195 296 223 296 101 C296 57 268 24 210 24 C156 24 129 54 118 82 L90 154 Z M184 549 L240 549 L375 729 L354 748 L214 639 L212 639 L76 747 L51 729 L184 549 Z " />
<glyph glyph-name="Tcommaaccent" unicode="&#x162;" horiz-adv-x="718" d="M276 -336 C354 -312 436 -241 436 -158 C436 -99 388 -59 349 -59 C314 -59 276 -100 273 -133 C326 -149 351 -178 351 -211 C351 -247 314 -287 254 -315 L276 -336 Z M359 698 L186 700 C101 701 34 710 34 711 C34 711 32 596 24 505 L66 505 L80 550 C104 626 124 650 171 650 L300 651 C300 651 303 514 303 349 C303 184 300 92 300 92 C299 62 288 51 252 44 L198 34 L198 -5 L359 0 L518 -5 L518 34 L466 44 C429 51 419 62 418 92 C418 92 415 184 415 349 C415 514 418 651 418 651 L547 650 C594 650 614 626 638 550 L652 505 L694 505 C686 596 684 711 684 711 C684 710 617 701 532 700 L359 698 Z " />
<glyph glyph-name="tcommaaccent" unicode="&#x163;" horiz-adv-x="384" d="M122 -336 C200 -312 282 -241 282 -158 C282 -99 234 -59 195 -59 C160 -59 122 -100 119 -133 C172 -149 197 -178 197 -211 C197 -247 160 -287 100 -315 L122 -336 Z M159 609 C150 565 129 511 82 484 C58 470 27 458 10 457 L10 417 L99 417 L99 113 C99 27 155 -15 235 -15 C290 -15 352 10 373 62 L357 86 C343 63 299 47 277 47 C229 47 202 68 202 153 L202 424 L350 409 L357 469 L202 469 L202 608 L159 609 Z " />
<glyph glyph-name="Tcaron" unicode="&#x164;" horiz-adv-x="718" d="M359 698 L186 700 C101 701 34 710 34 711 C34 711 32 596 24 505 L66 505 L80 550 C104 626 124 650 171 650 L300 651 C300 651 303 514 303 349 C303 184 300 92 300 92 C299 62 288 51 252 44 L198 34 L198 -5 L359 0 L518 -5 L518 34 L466 44 C429 51 419 62 418 92 C418 92 415 184 415 349 C415 514 418 651 418 651 L547 650 C594 650 614 626 638 550 L652 505 L694 505 C686 596 684 711 684 711 C684 710 617 701 532 700 L359 698 Z M328 761 L384 761 L519 941 L498 960 L358 851 L356 851 L220 959 L195 941 L328 761 Z " />
<glyph glyph-name="tcaron" unicode="&#x165;" horiz-adv-x="384" d="M280 541 C358 565 440 636 440 719 C440 778 392 818 353 818 C318 818 280 777 277 744 C330 728 355 699 355 666 C355 630 318 590 258 562 L280 541 Z M159 609 C150 565 129 511 82 484 C58 470 27 458 10 457 L10 417 L99 417 L99 113 C99 27 155 -15 235 -15 C290 -15 352 10 373 62 L357 86 C343 63 299 47 277 47 C229 47 202 68 202 153 L202 424 L350 409 L357 469 L202 469 L202 608 L159 609 Z " />
<glyph glyph-name="Tbar" unicode="&#x166;" horiz-adv-x="718" d="M552 335 L552 381 L415 381 C415 531 418 651 418 651 L547 650 C594 650 614 626 638 550 L652 505 L694 505 C686 596 684 711 684 711 C684 710 617 701 532 700 L359 698 L186 700 C101 701 34 710 34 711 C34 711 32 596 24 505 L66 505 L80 550 C104 626 124 650 171 650 L300 651 C300 651 302 531 303 381 L166 381 L166 335 L303 335 C303 179 300 92 300 92 C299 62 288 51 252 44 L198 34 L198 -5 L359 0 L518 -5 L518 34 L466 44 C429 51 419 62 418 92 C418 92 415 179 415 335 L552 335 Z " />
<glyph glyph-name="tbar" unicode="&#x167;" horiz-adv-x="384" d="M159 609 C150 565 129 511 82 484 C58 470 27 458 10 457 L10 417 L99 417 L99 320 L11 320 L11 271 L99 271 L99 113 C99 27 155 -15 235 -15 C290 -15 352 10 373 62 L357 86 C343 63 299 47 277 47 C229 47 202 68 202 153 L202 271 L347 271 L347 320 L202 320 L202 424 L350 409 L357 469 L202 469 L202 608 L159 609 Z " />
<glyph glyph-name="Utilde" unicode="&#x168;" horiz-adv-x="840" d="M243 607 C243 639 255 649 292 656 L344 666 L344 705 L183 700 L25 705 L25 666 L79 656 C115 649 127 639 127 607 L127 240 C127 73 238 -15 420 -15 C609 -15 712 86 712 266 C712 266 714 526 714 607 C714 639 726 649 763 656 L816 666 L816 705 L687 700 L554 705 L554 666 L608 656 C644 649 656 639 656 607 C656 569 658 378 658 273 C658 159 614 43 445 43 C339 43 243 89 243 243 L243 607 Z M515 870 C478 870 410 907 367 907 C305 907 271 847 260 794 L283 783 C300 817 322 825 346 825 C370 825 440 790 479 790 C554 790 580 843 594 902 L572 913 C555 878 542 870 515 870 L515 870 Z " />
<glyph glyph-name="utilde" unicode="&#x169;" horiz-adv-x="591" d="M492 127 L492 307 C492 391 498 484 498 484 L443 478 L317 473 L317 441 L348 435 C384 428 390 411 390 380 L390 207 C390 112 381 48 291 48 C206 48 189 107 189 222 C189 298 189 431 195 484 L140 478 L16 473 L16 441 L44 435 C78 427 87 411 87 380 C87 380 86 239 86 154 C86 46 135 -15 240 -15 C322 -15 371 39 387 65 L395 64 L393 -8 L423 -8 L571 16 L571 46 L537 51 C497 57 492 68 492 127 L492 127 Z M379 658 C342 658 274 695 231 695 C169 695 135 635 124 582 L147 571 C164 605 186 613 210 613 C234 613 304 578 343 578 C418 578 444 631 458 690 L436 701 C419 666 406 658 379 658 L379 658 Z " />
<glyph glyph-name="Umacron" unicode="&#x16a;" horiz-adv-x="840" d="M243 607 C243 639 255 649 292 656 L344 666 L344 705 L183 700 L25 705 L25 666 L79 656 C115 649 127 639 127 607 L127 240 C127 73 238 -15 420 -15 C609 -15 712 86 712 266 C712 266 714 526 714 607 C714 639 726 649 763 656 L816 666 L816 705 L687 700 L554 705 L554 666 L608 656 C644 649 656 639 656 607 C656 569 658 378 658 273 C658 159 614 43 445 43 C339 43 243 89 243 243 L243 607 Z M568 793 L568 857 L273 857 L273 793 L568 793 Z " />
<glyph glyph-name="umacron" unicode="&#x16b;" horiz-adv-x="591" d="M492 127 L492 307 C492 391 498 484 498 484 L443 478 L317 473 L317 441 L348 435 C384 428 390 411 390 380 L390 207 C390 112 381 48 291 48 C206 48 189 107 189 222 C189 298 189 431 195 484 L140 478 L16 473 L16 441 L44 435 C78 427 87 411 87 380 C87 380 86 239 86 154 C86 46 135 -15 240 -15 C322 -15 371 39 387 65 L395 64 L393 -8 L423 -8 L571 16 L571 46 L537 51 C497 57 492 68 492 127 L492 127 Z M437 581 L437 645 L142 645 L142 581 L437 581 Z " />
<glyph glyph-name="Ubreve" unicode="&#x16c;" horiz-adv-x="840" d="M243 607 C243 639 255 649 292 656 L344 666 L344 705 L183 700 L25 705 L25 666 L79 656 C115 649 127 639 127 607 L127 240 C127 73 238 -15 420 -15 C609 -15 712 86 712 266 C712 266 714 526 714 607 C714 639 726 649 763 656 L816 666 L816 705 L687 700 L554 705 L554 666 L608 656 C644 649 656 639 656 607 C656 569 658 378 658 273 C658 159 614 43 445 43 C339 43 243 89 243 243 L243 607 Z M419 853 C319 853 317 914 317 956 L317 961 L276 961 L276 923 C276 832 327 766 419 766 C512 766 562 832 562 923 L562 961 L522 961 L522 956 C522 914 519 853 419 853 L419 853 Z " />
<glyph glyph-name="ubreve" unicode="&#x16d;" horiz-adv-x="591" d="M492 127 L492 307 C492 391 498 484 498 484 L443 478 L317 473 L317 441 L348 435 C384 428 390 411 390 380 L390 207 C390 112 381 48 291 48 C206 48 189 107 189 222 C189 298 189 431 195 484 L140 478 L16 473 L16 441 L44 435 C78 427 87 411 87 380 C87 380 86 239 86 154 C86 46 135 -15 240 -15 C322 -15 371 39 387 65 L395 64 L393 -8 L423 -8 L571 16 L571 46 L537 51 C497 57 492 68 492 127 L492 127 Z M291 641 C191 641 189 702 189 744 L189 749 L148 749 L148 711 C148 620 199 554 291 554 C384 554 434 620 434 711 L434 749 L394 749 L394 744 C394 702 391 641 291 641 L291 641 Z " />
<glyph glyph-name="Uring" unicode="&#x16e;" horiz-adv-x="840" d="M243 607 C243 639 255 649 292 656 L344 666 L344 705 L183 700 L25 705 L25 666 L79 656 C115 649 127 639 127 607 L127 240 C127 73 238 -15 420 -15 C609 -15 712 86 712 266 C712 266 714 526 714 607 C714 639 726 649 763 656 L816 666 L816 705 L687 700 L554 705 L554 666 L608 656 C644 649 656 639 656 607 C656 569 658 378 658 273 C658 159 614 43 445 43 C339 43 243 89 243 243 L243 607 Z M334 871 C334 922 366 961 419 961 C472 961 505 922 505 871 C505 820 472 781 419 781 C366 781 334 820 334 871 L334 871 Z M291 871 C291 798 348 744 419 744 C492 744 548 798 548 871 C548 944 492 998 419 998 C348 998 291 944 291 871 L291 871 Z " />
<glyph glyph-name="uring" unicode="&#x16f;" horiz-adv-x="591" d="M492 127 L492 307 C492 391 498 484 498 484 L443 478 L317 473 L317 441 L348 435 C384 428 390 411 390 380 L390 207 C390 112 381 48 291 48 C206 48 189 107 189 222 C189 298 189 431 195 484 L140 478 L16 473 L16 441 L44 435 C78 427 87 411 87 380 C87 380 86 239 86 154 C86 46 135 -15 240 -15 C322 -15 371 39 387 65 L395 64 L393 -8 L423 -8 L571 16 L571 46 L537 51 C497 57 492 68 492 127 L492 127 Z M206 659 C206 710 238 749 291 749 C344 749 377 710 377 659 C377 608 344 569 291 569 C238 569 206 608 206 659 L206 659 Z M163 659 C163 586 220 532 291 532 C364 532 420 586 420 659 C420 732 364 786 291 786 C220 786 163 732 163 659 L163 659 Z " />
<glyph glyph-name="Uhungarumlaut" unicode="&#x170;" horiz-adv-x="840" d="M243 607 C243 639 255 649 292 656 L344 666 L344 705 L183 700 L25 705 L25 666 L79 656 C115 649 127 639 127 607 L127 240 C127 73 238 -15 420 -15 C609 -15 712 86 712 266 C712 266 714 526 714 607 C714 639 726 649 763 656 L816 666 L816 705 L687 700 L554 705 L554 666 L608 656 C644 649 656 639 656 607 C656 569 658 378 658 273 C658 159 614 43 445 43 C339 43 243 89 243 243 L243 607 Z M251 787 L293 781 L465 970 L333 970 L251 787 Z M443 787 L483 781 L657 970 L524 970 L443 787 Z " />
<glyph glyph-name="uhungarumlaut" unicode="&#x171;" horiz-adv-x="591" d="M492 127 L492 307 C492 391 498 484 498 484 L443 478 L317 473 L317 441 L348 435 C384 428 390 411 390 380 L390 207 C390 112 381 48 291 48 C206 48 189 107 189 222 C189 298 189 431 195 484 L140 478 L16 473 L16 441 L44 435 C78 427 87 411 87 380 C87 380 86 239 86 154 C86 46 135 -15 240 -15 C322 -15 371 39 387 65 L395 64 L393 -8 L423 -8 L571 16 L571 46 L537 51 C497 57 492 68 492 127 L492 127 Z M110 558 L152 552 L324 741 L192 741 L110 558 Z M302 558 L342 552 L516 741 L383 741 L302 558 Z " />
<glyph glyph-name="Uogonek" unicode="&#x172;" horiz-adv-x="840" d="M243 607 C243 639 255 649 292 656 L344 666 L344 705 L183 700 L25 705 L25 666 L79 656 C115 649 127 639 127 607 L127 240 C127 73 238 -15 420 -15 C427 -15 434 -15 442 -14 C382 -52 333 -108 333 -166 C333 -230 386 -269 454 -269 C480 -269 518 -264 546 -254 L564 -222 C554 -224 540 -225 530 -225 C482 -225 432 -216 432 -151 C432 -94 472 -41 504 -7 C639 19 712 115 712 266 C712 266 714 526 714 607 C714 639 726 649 763 656 L816 666 L816 705 L687 700 L554 705 L554 666 L608 656 C644 649 656 639 656 607 C656 569 658 378 658 273 C658 159 614 43 445 43 C339 43 243 89 243 243 L243 607 Z " />
<glyph glyph-name="uogonek" unicode="&#x173;" horiz-adv-x="591" d="M492 127 L492 307 C492 391 498 484 498 484 L443 478 L317 473 L317 441 L348 435 C384 428 390 411 390 380 L390 207 C390 112 381 48 291 48 C206 48 189 107 189 222 C189 298 189 431 195 484 L140 478 L16 473 L16 441 L44 435 C78 427 87 411 87 380 C87 380 86 239 86 154 C86 46 135 -15 240 -15 C322 -15 371 39 387 65 L395 64 L393 -8 L423 -8 L472 0 C401 -37 338 -100 338 -166 C338 -230 391 -269 459 -269 C485 -269 523 -264 551 -254 L569 -222 C559 -224 545 -225 535 -225 C487 -225 437 -216 437 -151 C437 -84 492 -23 525 8 L571 16 L571 46 L537 51 C497 57 492 68 492 127 L492 127 Z " />
<glyph glyph-name="Wcircumflex" unicode="&#x174;" horiz-adv-x="1131" d="M820 -6 C820 -6 948 359 1043 609 C1054 638 1068 650 1098 656 L1148 666 L1148 705 L1044 700 L886 705 L886 666 L947 657 C972 653 986 644 986 626 C986 621 984 613 982 607 L805 91 C793 125 673 461 633 586 C623 617 628 644 676 654 L738 666 L738 705 L588 700 L403 705 L403 666 L450 656 C481 650 492 635 502 605 C526 536 546 478 546 478 L393 91 C386 116 292 405 225 607 C223 613 222 619 222 624 C222 642 239 651 268 656 L322 666 L322 705 L152 700 L-7 705 L-7 666 L42 656 C73 650 84 637 95 608 C182 367 312 -16 312 -16 L406 -6 C406 -6 471 166 569 417 C612 297 725 -16 725 -16 L820 -6 Z M419 778 L444 761 L580 868 L582 868 L722 760 L743 778 L608 959 L552 959 L419 778 Z " />
<glyph glyph-name="wcircumflex" unicode="&#x175;" horiz-adv-x="779" d="M390 475 C350 367 301 239 257 126 L180 393 C178 400 177 406 177 410 C177 430 192 438 217 443 L252 450 L252 482 L113 477 L-1 482 L-1 450 L19 443 C53 431 57 425 67 395 C137 187 195 -6 195 -6 L248 -6 C283 87 335 228 387 362 C439 224 525 -6 525 -6 L578 -6 C577 -6 661 262 708 395 C719 425 727 430 762 443 L781 450 L781 482 L686 477 L587 482 L587 450 L612 444 C640 437 664 425 656 394 C632 306 605 211 580 124 L448 475 L390 475 Z M250 566 L275 549 L411 656 L413 656 L553 548 L574 566 L439 747 L383 747 L250 566 Z " />
<glyph glyph-name="Ycircumflex" unicode="&#x176;" horiz-adv-x="702" d="M513 33 L460 43 C423 50 414 60 413 91 C412 123 411 184 411 223 L411 272 C411 272 489 405 608 609 C624 636 636 650 667 656 L713 666 L713 705 L589 700 L454 705 L454 666 L509 656 C537 651 550 642 550 626 C550 619 547 611 543 603 C455 432 388 326 388 326 C388 326 302 468 228 605 C214 631 219 650 256 656 L318 666 L318 705 L148 700 L-13 705 L-13 666 L31 656 C63 649 75 634 91 608 C201 429 294 267 294 267 L294 223 C294 184 294 123 292 91 C291 60 283 50 246 43 L193 33 L193 -5 L356 0 L513 -5 L513 33 Z M188 778 L213 761 L349 868 L351 868 L491 760 L512 778 L377 959 L321 959 L188 778 Z " />
<glyph glyph-name="ycircumflex" unicode="&#x177;" horiz-adv-x="534" d="M93 -263 L190 -273 L467 394 C479 423 482 432 516 443 L537 450 L537 482 L442 477 L342 482 L342 450 L367 443 C395 435 414 428 414 409 C414 401 409 386 403 370 C363 258 326 162 296 91 C258 192 217 292 183 394 C174 420 186 435 221 443 L254 450 L254 482 L118 477 L-3 482 L-3 450 L17 443 C46 433 52 429 66 395 C122 259 187 93 228 -6 L250 -6 L93 -263 Z M97 566 L122 549 L258 656 L260 656 L400 548 L421 566 L286 747 L230 747 L97 566 Z " />
<glyph glyph-name="Ydieresis" unicode="&#x178;" horiz-adv-x="702" d="M513 33 L460 43 C423 50 414 60 413 91 C412 123 411 184 411 223 L411 272 C411 272 489 405 608 609 C624 636 636 650 667 656 L713 666 L713 705 L589 700 L454 705 L454 666 L509 656 C537 651 550 642 550 626 C550 619 547 611 543 603 C455 432 388 326 388 326 C388 326 302 468 228 605 C214 631 219 650 256 656 L318 666 L318 705 L148 700 L-13 705 L-13 666 L31 656 C63 649 75 634 91 608 C201 429 294 267 294 267 L294 223 C294 184 294 123 292 91 C291 60 283 50 246 43 L193 33 L193 -5 L356 0 L513 -5 L513 33 Z M375 855 C375 815 406 784 446 784 C486 784 518 815 518 855 C518 895 486 927 446 927 C406 927 375 895 375 855 L375 855 Z M183 855 C183 815 214 784 254 784 C294 784 326 815 326 855 C326 895 294 927 254 927 C214 927 183 895 183 855 L183 855 Z " />
<glyph glyph-name="Zacute" unicode="&#x179;" horiz-adv-x="698" d="M485 651 C214 264 45 38 45 38 L45 -4 L170 0 L433 0 C493 0 627 -5 627 -5 L660 212 L624 212 L578 126 C540 54 505 48 455 48 L212 48 C199 48 199 58 203 64 C446 408 627 661 627 661 L627 704 C627 704 494 700 200 700 C142 700 53 711 53 711 L61 508 L99 508 L112 557 C128 620 146 651 187 651 L485 651 Z M272 772 L313 766 L493 955 L356 955 L272 772 Z " />
<glyph glyph-name="zacute" unicode="&#x17a;" horiz-adv-x="512" d="M160 0 C249 0 433 -3 459 -5 L477 170 L438 170 C406 56 380 40 329 40 L164 40 L460 451 L455 479 L140 479 C123 479 60 481 52 483 L52 320 L89 318 L99 356 C114 416 130 437 219 437 L328 437 L32 31 L32 -3 C49 -2 97 0 160 0 L160 0 Z M170 558 L211 552 L391 741 L254 741 L170 558 Z " />
<glyph glyph-name="Zdotaccent" unicode="&#x17b;" horiz-adv-x="698" d="M485 651 C214 264 45 38 45 38 L45 -4 L170 0 L433 0 C493 0 627 -5 627 -5 L660 212 L624 212 L578 126 C540 54 505 48 455 48 L212 48 C199 48 199 58 203 64 C446 408 627 661 627 661 L627 704 C627 704 494 700 200 700 C142 700 53 711 53 711 L61 508 L99 508 L112 557 C128 620 146 651 187 651 L485 651 Z M271 868 C271 823 308 786 353 786 C398 786 435 823 435 868 C435 913 398 950 353 950 C308 950 271 913 271 868 L271 868 Z " />
<glyph glyph-name="zdotaccent" unicode="&#x17c;" horiz-adv-x="512" d="M160 0 C249 0 433 -3 459 -5 L477 170 L438 170 C406 56 380 40 329 40 L164 40 L460 451 L455 479 L140 479 C123 479 60 481 52 483 L52 320 L89 318 L99 356 C114 416 130 437 219 437 L328 437 L32 31 L32 -3 C49 -2 97 0 160 0 L160 0 Z M173 651 C173 606 210 569 255 569 C300 569 337 606 337 651 C337 696 300 733 255 733 C210 733 173 696 173 651 L173 651 Z " />
<glyph glyph-name="Zcaron" unicode="&#x17d;" horiz-adv-x="698" d="M485 651 C214 264 45 38 45 38 L45 -4 L170 0 L433 0 C493 0 627 -5 627 -5 L660 212 L624 212 L578 126 C540 54 505 48 455 48 L212 48 C199 48 199 58 203 64 C446 408 627 661 627 661 L627 704 C627 704 494 700 200 700 C142 700 53 711 53 711 L61 508 L99 508 L112 557 C128 620 146 651 187 651 L485 651 Z M314 763 L370 763 L505 943 L484 962 L344 853 L342 853 L206 961 L181 943 L314 763 Z " />
<glyph glyph-name="zcaron" unicode="&#x17e;" horiz-adv-x="512" d="M160 0 C249 0 433 -3 459 -5 L477 170 L438 170 C406 56 380 40 329 40 L164 40 L460 451 L455 479 L140 479 C123 479 60 481 52 483 L52 320 L89 318 L99 356 C114 416 130 437 219 437 L328 437 L32 31 L32 -3 C49 -2 97 0 160 0 L160 0 Z M222 549 L278 549 L413 729 L392 748 L252 639 L250 639 L114 747 L89 729 L222 549 Z " />
<glyph glyph-name="longs" unicode="&#x17f;" horiz-adv-x="350" d="M212 472 C212 561 217 618 234 654 C250 690 278 704 308 704 C358 704 391 639 398 639 C436 639 477 686 477 714 C477 748 402 761 366 761 C243 761 113 685 109 473 L32 473 L32 433 L109 433 L109 81 C109 50 97 42 61 33 L30 26 L30 -5 L158 0 L309 -5 L309 26 L256 36 C220 43 212 56 212 87 L212 472 Z " />
<glyph glyph-name="florin" unicode="&#x192;" horiz-adv-x="342" d="M214 472 C214 650 238 700 301 700 C352 700 386 632 392 632 C431 632 472 686 472 714 C472 748 402 761 365 761 C243 761 112 686 112 475 L112 351 L17 351 L17 312 L112 312 L112 29 C112 -149 85 -197 25 -197 C-24 -197 -59 -129 -65 -129 C-103 -129 -144 -184 -144 -212 C-144 -246 -75 -259 -38 -259 C83 -259 214 -184 214 27 L214 312 L317 296 L325 357 L214 350 L214 472 Z " />
<glyph glyph-name="Scommaaccent" unicode="&#x218;" horiz-adv-x="595" d="M212 -336 C290 -312 372 -241 372 -158 C372 -99 324 -59 285 -59 C250 -59 212 -100 209 -133 C262 -149 287 -178 287 -211 C287 -247 250 -287 190 -315 L212 -336 Z M150 103 C115 179 102 232 102 232 L58 227 C65 123 66 49 64 23 C77 20 174 -15 287 -15 C430 -15 540 66 540 201 C540 424 179 403 179 559 C179 628 236 666 313 666 C389 666 417 646 424 626 C444 570 460 511 460 511 L499 511 C506 593 518 685 518 685 C508 689 408 715 317 715 C161 715 75 624 75 526 C75 290 436 340 436 157 C436 76 367 31 294 31 C235 31 172 54 150 103 L150 103 Z " />
<glyph glyph-name="scommaaccent" unicode="&#x219;" horiz-adv-x="431" d="M145 -336 C223 -312 305 -241 305 -158 C305 -99 257 -59 218 -59 C183 -59 145 -100 142 -133 C195 -149 220 -178 220 -211 C220 -247 183 -287 123 -315 L145 -336 Z M90 154 L52 153 C53 137 54 118 54 99 C54 63 52 28 51 13 C51 13 123 -15 208 -15 C302 -15 389 35 389 134 C389 299 145 274 145 387 C145 436 185 454 232 454 C263 454 295 441 301 422 L325 347 L362 349 C365 389 368 435 374 472 C342 486 278 494 230 494 C137 494 52 453 52 352 C52 195 296 223 296 101 C296 57 268 24 210 24 C156 24 129 54 118 82 L90 154 Z " />
<glyph glyph-name="uni021A" unicode="&#x21a;" horiz-adv-x="718" d="M276 -336 C354 -312 436 -241 436 -158 C436 -99 388 -59 349 -59 C314 -59 276 -100 273 -133 C326 -149 351 -178 351 -211 C351 -247 314 -287 254 -315 L276 -336 Z M359 698 L186 700 C101 701 34 710 34 711 C34 711 32 596 24 505 L66 505 L80 550 C104 626 124 650 171 650 L300 651 C300 651 303 514 303 349 C303 184 300 92 300 92 C299 62 288 51 252 44 L198 34 L198 -5 L359 0 L518 -5 L518 34 L466 44 C429 51 419 62 418 92 C418 92 415 184 415 349 C415 514 418 651 418 651 L547 650 C594 650 614 626 638 550 L652 505 L694 505 C686 596 684 711 684 711 C684 710 617 701 532 700 L359 698 Z " />
<glyph glyph-name="uni021B" unicode="&#x21b;" horiz-adv-x="384" d="M122 -336 C200 -312 282 -241 282 -158 C282 -99 234 -59 195 -59 C160 -59 122 -100 119 -133 C172 -149 197 -178 197 -211 C197 -247 160 -287 100 -315 L122 -336 Z M159 609 C150 565 129 511 82 484 C58 470 27 458 10 457 L10 417 L99 417 L99 113 C99 27 155 -15 235 -15 C290 -15 352 10 373 62 L357 86 C343 63 299 47 277 47 C229 47 202 68 202 153 L202 424 L350 409 L357 469 L202 469 L202 608 L159 609 Z " />
<glyph glyph-name="dotlessj" unicode="&#x237;" horiz-adv-x="293" d="M94 -65 C94 -149 72 -192 0 -216 L20 -243 L36 -241 C147 -227 195 -162 195 -62 L195 0 L274 0 L274 31 L245 38 C208 47 196 56 196 87 L196 330 C196 427 199 500 199 500 L161 500 L22 433 L22 416 L63 401 C89 391 94 368 94 299 L94 -65 Z " />
<glyph glyph-name="apostrophe" unicode="&#x2bc;" horiz-adv-x="540" d="M189 397 C282 427 379 511 379 613 C379 684 322 732 275 732 C241 732 193 687 188 649 C188 648 188 644 189 643 C251 625 280 590 280 550 C280 507 247 459 175 423 L189 397 Z " />
<glyph glyph-name="circumflex" unicode="&#x2c6;" horiz-adv-x="405" d="M40 566 L65 549 L201 656 L203 656 L343 548 L364 566 L229 747 L173 747 L40 566 Z " />
<glyph glyph-name="caron" unicode="&#x2c7;" horiz-adv-x="405" d="M173 549 L229 549 L364 729 L343 748 L203 639 L201 639 L65 747 L40 729 L173 549 Z " />
<glyph glyph-name="uni02C9" unicode="&#x2c9;" horiz-adv-x="540" d="M432 581 L432 645 L107 645 L107 581 L432 581 Z " />
<glyph glyph-name="breve" unicode="&#x2d8;" horiz-adv-x="405" d="M202 641 C102 641 100 702 100 744 L100 749 L59 749 L59 711 C59 620 110 554 202 554 C295 554 345 620 345 711 L345 749 L305 749 L305 744 C305 702 302 641 202 641 L202 641 Z " />
<glyph glyph-name="dotaccent" unicode="&#x2d9;" horiz-adv-x="404" d="M120 651 C120 606 157 569 202 569 C247 569 284 606 284 651 C284 696 247 733 202 733 C157 733 120 696 120 651 L120 651 Z " />
<glyph glyph-name="ring" unicode="&#x2da;" horiz-adv-x="405" d="M117 659 C117 710 149 749 202 749 C255 749 288 710 288 659 C288 608 255 569 202 569 C149 569 117 608 117 659 L117 659 Z M74 659 C74 586 131 532 202 532 C275 532 331 586 331 659 C331 732 275 786 202 786 C131 786 74 732 74 659 L74 659 Z " />
<glyph glyph-name="ogonek" unicode="&#x2db;" horiz-adv-x="405" d="M275 23 C186 -7 88 -84 88 -166 C88 -230 141 -269 209 -269 C235 -269 273 -264 301 -254 L319 -222 C309 -224 295 -225 285 -225 C237 -225 187 -216 187 -151 C187 -80 249 -16 281 14 L275 23 Z " />
<glyph glyph-name="tilde" unicode="&#x2dc;" horiz-adv-x="405" d="M290 658 C253 658 185 695 142 695 C80 695 46 635 35 582 L58 571 C75 605 97 613 121 613 C145 613 215 578 254 578 C329 578 355 631 369 690 L347 701 C330 666 317 658 290 658 L290 658 Z " />
<glyph glyph-name="hungarumlaut" unicode="&#x2dd;" horiz-adv-x="405" d="M-1 558 L41 552 L213 741 L81 741 L-1 558 Z M191 558 L231 552 L405 741 L272 741 L191 558 Z " />
<glyph glyph-name="pi" unicode="&#x3c0;" horiz-adv-x="900" d="M39 352 C39 122 218 -56 449 -56 C681 -56 860 122 860 352 C860 581 681 760 449 760 C218 760 39 581 39 352 L39 352 Z M89 352 C89 559 248 716 449 716 C650 716 810 559 810 352 C810 144 650 -12 449 -12 C248 -12 89 144 89 352 L89 352 Z M480 132 L442 139 C419 143 411 151 410 171 C410 171 408 236 408 348 C408 461 409 554 409 554 C409 560 411 563 421 563 L466 563 C525 563 569 526 569 457 C569 379 522 340 462 340 C456 340 447 341 447 341 L447 311 C447 311 467 306 484 306 C616 306 663 389 663 459 C663 562 579 597 512 597 C469 597 403 590 401 590 L249 592 L249 566 L287 558 C310 554 317 548 319 527 C319 527 321 461 321 348 C321 240 319 175 319 171 C318 151 310 143 287 139 L249 132 L249 105 L365 108 L480 105 L480 132 Z " />
<glyph glyph-name="Wgrave" unicode="&#x1e80;" horiz-adv-x="1131" d="M820 -6 C820 -6 948 359 1043 609 C1054 638 1068 650 1098 656 L1148 666 L1148 705 L1044 700 L886 705 L886 666 L947 657 C972 653 986 644 986 626 C986 621 984 613 982 607 L805 91 C793 125 673 461 633 586 C623 617 628 644 676 654 L738 666 L738 705 L588 700 L403 705 L403 666 L450 656 C481 650 492 635 502 605 C526 536 546 478 546 478 L393 91 C386 116 292 405 225 607 C223 613 222 619 222 624 C222 642 239 651 268 656 L322 666 L322 705 L152 700 L-7 705 L-7 666 L42 656 C73 650 84 637 95 608 C182 367 312 -16 312 -16 L406 -6 C406 -6 471 166 569 417 C612 297 725 -16 725 -16 L820 -6 Z M578 953 L439 953 L621 764 L661 770 L578 953 Z " />
<glyph glyph-name="wgrave" unicode="&#x1e81;" horiz-adv-x="779" d="M390 475 C350 367 301 239 257 126 L180 393 C178 400 177 406 177 410 C177 430 192 438 217 443 L252 450 L252 482 L113 477 L-1 482 L-1 450 L19 443 C53 431 57 425 67 395 C137 187 195 -6 195 -6 L248 -6 C283 87 335 228 387 362 C439 224 525 -6 525 -6 L578 -6 C577 -6 661 262 708 395 C719 425 727 430 762 443 L781 450 L781 482 L686 477 L587 482 L587 450 L612 444 C640 437 664 425 656 394 C632 306 605 211 580 124 L448 475 L390 475 Z M428 741 L289 741 L471 552 L511 558 L428 741 Z " />
<glyph glyph-name="Wacute" unicode="&#x1e82;" horiz-adv-x="1131" d="M820 -6 C820 -6 948 359 1043 609 C1054 638 1068 650 1098 656 L1148 666 L1148 705 L1044 700 L886 705 L886 666 L947 657 C972 653 986 644 986 626 C986 621 984 613 982 607 L805 91 C793 125 673 461 633 586 C623 617 628 644 676 654 L738 666 L738 705 L588 700 L403 705 L403 666 L450 656 C481 650 492 635 502 605 C526 536 546 478 546 478 L393 91 C386 116 292 405 225 607 C223 613 222 619 222 624 C222 642 239 651 268 656 L322 666 L322 705 L152 700 L-7 705 L-7 666 L42 656 C73 650 84 637 95 608 C182 367 312 -16 312 -16 L406 -6 C406 -6 471 166 569 417 C612 297 725 -16 725 -16 L820 -6 Z M476 770 L517 764 L697 953 L560 953 L476 770 Z " />
<glyph glyph-name="wacute" unicode="&#x1e83;" horiz-adv-x="779" d="M390 475 C350 367 301 239 257 126 L180 393 C178 400 177 406 177 410 C177 430 192 438 217 443 L252 450 L252 482 L113 477 L-1 482 L-1 450 L19 443 C53 431 57 425 67 395 C137 187 195 -6 195 -6 L248 -6 C283 87 335 228 387 362 C439 224 525 -6 525 -6 L578 -6 C577 -6 661 262 708 395 C719 425 727 430 762 443 L781 450 L781 482 L686 477 L587 482 L587 450 L612 444 C640 437 664 425 656 394 C632 306 605 211 580 124 L448 475 L390 475 Z M311 558 L352 552 L532 741 L395 741 L311 558 Z " />
<glyph glyph-name="Wdieresis" unicode="&#x1e84;" horiz-adv-x="1131" d="M820 -6 C820 -6 948 359 1043 609 C1054 638 1068 650 1098 656 L1148 666 L1148 705 L1044 700 L886 705 L886 666 L947 657 C972 653 986 644 986 626 C986 621 984 613 982 607 L805 91 C793 125 673 461 633 586 C623 617 628 644 676 654 L738 666 L738 705 L588 700 L403 705 L403 666 L450 656 C481 650 492 635 502 605 C526 536 546 478 546 478 L393 91 C386 116 292 405 225 607 C223 613 222 619 222 624 C222 642 239 651 268 656 L322 666 L322 705 L152 700 L-7 705 L-7 666 L42 656 C73 650 84 637 95 608 C182 367 312 -16 312 -16 L406 -6 C406 -6 471 166 569 417 C612 297 725 -16 725 -16 L820 -6 Z M409 855 C409 815 440 784 480 784 C520 784 552 815 552 855 C552 895 520 927 480 927 C440 927 409 895 409 855 L409 855 Z M601 855 C601 815 632 784 672 784 C712 784 744 815 744 855 C744 895 712 927 672 927 C632 927 601 895 601 855 L601 855 Z " />
<glyph glyph-name="wdieresis" unicode="&#x1e85;" horiz-adv-x="779" d="M390 475 C350 367 301 239 257 126 L180 393 C178 400 177 406 177 410 C177 430 192 438 217 443 L252 450 L252 482 L113 477 L-1 482 L-1 450 L19 443 C53 431 57 425 67 395 C137 187 195 -6 195 -6 L248 -6 C283 87 335 228 387 362 C439 224 525 -6 525 -6 L578 -6 C577 -6 661 262 708 395 C719 425 727 430 762 443 L781 450 L781 482 L686 477 L587 482 L587 450 L612 444 C640 437 664 425 656 394 C632 306 605 211 580 124 L448 475 L390 475 Z M243 643 C243 603 274 572 314 572 C354 572 386 603 386 643 C386 683 354 715 314 715 C274 715 243 683 243 643 L243 643 Z M435 643 C435 603 466 572 506 572 C546 572 578 603 578 643 C578 683 546 715 506 715 C466 715 435 683 435 643 L435 643 Z " />
<glyph glyph-name="Ygrave" unicode="&#x1ef2;" horiz-adv-x="702" d="M513 33 L460 43 C423 50 414 60 413 91 C412 123 411 184 411 223 L411 272 C411 272 489 405 608 609 C624 636 636 650 667 656 L713 666 L713 705 L589 700 L454 705 L454 666 L509 656 C537 651 550 642 550 626 C550 619 547 611 543 603 C455 432 388 326 388 326 C388 326 302 468 228 605 C214 631 219 650 256 656 L318 666 L318 705 L148 700 L-13 705 L-13 666 L31 656 C63 649 75 634 91 608 C201 429 294 267 294 267 L294 223 C294 184 294 123 292 91 C291 60 283 50 246 43 L193 33 L193 -5 L356 0 L513 -5 L513 33 Z M374 953 L235 953 L417 764 L457 770 L374 953 Z " />
<glyph glyph-name="ygrave" unicode="&#x1ef3;" horiz-adv-x="534" d="M93 -263 L190 -273 L467 394 C479 423 482 432 516 443 L537 450 L537 482 L442 477 L342 482 L342 450 L367 443 C395 435 414 428 414 409 C414 401 409 386 403 370 C363 258 326 162 296 91 C258 192 217 292 183 394 C174 420 186 435 221 443 L254 450 L254 482 L118 477 L-3 482 L-3 450 L17 443 C46 433 52 429 66 395 C122 259 187 93 228 -6 L250 -6 L93 -263 Z M279 741 L140 741 L322 552 L362 558 L279 741 Z " />
<glyph glyph-name="endash" unicode="&#x2013;" horiz-adv-x="728" d="M664 292 L664 347 L64 347 L64 292 L664 292 Z " />
<glyph glyph-name="emdash" unicode="&#x2014;" horiz-adv-x="1254" d="M1190 292 L1190 347 L64 347 L64 292 L1190 292 Z " />
<glyph glyph-name="quoteleft" unicode="&#x2018;" horiz-adv-x="281" d="M235 738 C142 708 45 624 45 522 C45 451 102 403 149 403 C183 403 231 448 236 486 C236 487 236 491 235 492 C173 510 144 545 144 585 C144 628 177 676 249 712 L235 738 Z " />
<glyph glyph-name="quoteright" unicode="&#x2019;" horiz-adv-x="292" d="M65 397 C158 427 255 511 255 613 C255 684 198 732 151 732 C117 732 69 687 64 649 C64 648 64 644 65 643 C127 625 156 590 156 550 C156 507 123 459 51 423 L65 397 Z " />
<glyph glyph-name="quotesinglbase" unicode="&#x201a;" horiz-adv-x="288" d="M47 -165 C140 -135 237 -51 237 51 C237 122 180 170 133 170 C99 170 51 125 46 87 C46 86 46 82 47 81 C109 63 138 28 138 -12 C138 -55 105 -103 33 -139 L47 -165 Z " />
<glyph glyph-name="quotedblleft" unicode="&#x201c;" horiz-adv-x="507" d="M460 738 C367 708 270 624 270 522 C270 451 327 403 374 403 C408 403 456 448 461 486 C461 487 461 491 460 492 C398 510 369 545 369 585 C369 628 402 676 474 712 L460 738 Z M237 738 C144 708 47 624 47 522 C47 451 104 403 151 403 C185 403 233 448 238 486 C238 487 238 491 237 492 C175 510 146 545 146 585 C146 628 179 676 251 712 L237 738 Z " />
<glyph glyph-name="quotedblright" unicode="&#x201d;" horiz-adv-x="507" d="M274 397 C367 427 464 511 464 613 C464 684 407 732 360 732 C326 732 278 687 273 649 C273 648 273 644 274 643 C336 625 365 590 365 550 C365 507 332 459 260 423 L274 397 Z M42 397 C135 427 232 511 232 613 C232 684 175 732 128 732 C94 732 46 687 41 649 C41 648 41 644 42 643 C104 625 133 590 133 550 C133 507 100 459 28 423 L42 397 Z " />
<glyph glyph-name="quotedblbase" unicode="&#x201e;" horiz-adv-x="507" d="M274 -165 C367 -135 464 -51 464 51 C464 122 407 170 360 170 C326 170 278 125 273 87 C273 86 273 82 274 81 C336 63 365 28 365 -12 C365 -55 332 -103 260 -139 L274 -165 Z M42 -165 C135 -135 232 -51 232 51 C232 122 175 170 128 170 C94 170 46 125 41 87 C41 86 41 82 42 81 C104 63 133 28 133 -12 C133 -55 100 -103 28 -139 L42 -165 Z " />
<glyph glyph-name="dagger" unicode="&#x2020;" horiz-adv-x="514" d="M289 0 L289 407 L482 407 L482 474 L289 474 L289 706 L213 706 L213 474 L32 474 L32 407 L213 407 L213 0 L289 0 Z " />
<glyph glyph-name="daggerdbl" unicode="&#x2021;" horiz-adv-x="534" d="M492 407 L492 474 L300 474 L300 706 L223 706 L223 474 L42 474 L42 407 L223 407 L223 67 L42 67 L42 0 L223 0 L223 -234 L300 -234 L300 0 L492 0 L492 67 L300 67 L300 407 L492 407 Z " />
<glyph glyph-name="bullet" unicode="&#x2022;" horiz-adv-x="365" d="M58 347 C58 278 113 222 182 222 C252 222 308 278 308 347 C308 416 252 472 182 472 C113 472 58 416 58 347 L58 347 Z " />
<glyph glyph-name="ellipsis" unicode="&#x2026;" horiz-adv-x="944" d="M52 69 C52 22 89 -15 136 -15 C182 -15 219 22 219 69 C219 115 182 153 136 153 C89 153 52 115 52 69 L52 69 Z M388 69 C388 22 425 -15 472 -15 C518 -15 555 22 555 69 C555 115 518 153 472 153 C425 153 388 115 388 69 L388 69 Z M724 69 C724 22 761 -15 808 -15 C854 -15 891 22 891 69 C891 115 854 153 808 153 C761 153 724 115 724 69 L724 69 Z " />
<glyph glyph-name="perthousand" unicode="&#x2030;" horiz-adv-x="1162" d="M725 685 L694 712 L73 17 L103 -13 L725 685 Z M202 709 C114 709 51 627 51 529 C51 432 114 349 202 349 C290 349 352 432 352 529 C352 627 290 709 202 709 L202 709 Z M202 385 C147 385 140 457 140 529 C140 600 147 675 202 675 C257 675 264 600 264 529 C264 457 257 385 202 385 L202 385 Z M598 345 C509 345 447 263 447 166 C447 68 509 -14 598 -14 C687 -14 750 68 750 166 C750 263 687 345 598 345 L598 345 Z M598 21 C544 21 535 94 535 166 C535 237 544 311 598 311 C653 311 660 237 660 166 C660 94 653 21 598 21 L598 21 Z M979 345 C890 345 828 263 828 166 C828 68 890 -14 979 -14 C1068 -14 1130 68 1130 166 C1130 263 1068 345 979 345 L979 345 Z M979 21 C924 21 916 94 916 166 C916 237 924 311 979 311 C1033 311 1041 237 1041 166 C1041 94 1033 21 979 21 L979 21 Z " />
<glyph glyph-name="guilsinglleft" unicode="&#x2039;" horiz-adv-x="362" d="M178 361 L316 637 L278 637 L35 355 L278 73 L316 73 L178 349 L178 361 Z " />
<glyph glyph-name="guilsinglright" unicode="&#x203a;" horiz-adv-x="362" d="M183 349 L46 73 L83 73 L326 355 L83 637 L46 637 L183 361 L183 349 Z " />
<glyph glyph-name="fraction" unicode="&#x2044;" horiz-adv-x="270" d="M-193 17 L-165 -8 L460 698 L433 723 L-193 17 Z " />
<glyph glyph-name="zerosuperior" unicode="&#x2070;" horiz-adv-x="375" d="M188 716 C86 716 30 619 30 509 C30 399 86 300 188 300 C290 300 344 399 344 509 C344 619 290 716 188 716 L188 716 Z M188 335 C147 335 115 378 115 509 C115 642 147 680 188 680 C229 680 260 642 260 509 C260 378 229 335 188 335 L188 335 Z " />
<glyph glyph-name="foursuperior" unicode="&#x2074;" horiz-adv-x="375" d="M206 371 C206 359 202 354 189 351 L152 343 L152 313 L245 316 L340 313 L340 343 L304 351 C291 354 287 359 287 371 L287 428 L345 428 L345 468 L287 468 C287 502 288 545 288 572 L201 570 C202 558 206 522 206 492 L206 468 L68 468 C129 553 279 729 279 729 L207 737 C150 658 30 493 19 472 L19 428 L206 428 L206 371 Z " />
<glyph glyph-name="fivesuperior" unicode="&#x2075;" horiz-adv-x="375" d="M113 645 L197 645 C249 645 292 645 321 649 L324 721 C324 721 136 715 73 715 L66 504 C85 508 104 509 121 509 C185 509 250 492 250 420 C250 370 211 335 155 335 C142 335 124 336 124 342 L122 408 L103 423 C71 421 39 398 39 369 C39 330 75 300 154 300 C247 300 326 357 326 447 C326 552 230 581 144 581 C127 581 111 580 111 580 L113 645 Z " />
<glyph glyph-name="sixsuperior" unicode="&#x2076;" horiz-adv-x="375" d="M191 300 C281 300 347 358 347 442 C347 528 285 575 213 575 C178 575 148 563 127 542 L121 545 C167 639 249 686 325 712 L308 742 C151 706 32 608 32 468 C32 381 87 300 191 300 L191 300 Z M120 442 C120 489 144 532 192 532 C238 532 264 486 264 430 C264 381 243 338 195 338 C142 338 120 398 120 442 L120 442 Z " />
<glyph glyph-name="sevensuperior" unicode="&#x2077;" horiz-adv-x="375" d="M176 307 C209 449 342 664 342 664 L342 708 L46 708 L45 635 L174 635 C216 635 255 640 284 647 L286 643 C236 581 123 440 77 301 L176 307 Z " />
<glyph glyph-name="eightsuperior" unicode="&#x2078;" horiz-adv-x="375" d="M124 626 C124 660 152 683 192 683 C238 683 259 651 259 622 C259 594 240 565 205 551 C159 570 124 590 124 626 L124 626 Z M259 401 C259 355 221 338 186 338 C148 338 110 363 110 411 C110 442 130 474 159 491 C217 467 259 447 259 401 L259 401 Z M36 412 C36 356 82 300 186 300 C286 300 337 361 337 419 C337 471 301 510 242 533 C299 546 329 580 329 617 C329 682 269 718 190 718 C106 718 46 675 46 611 C46 565 81 527 127 510 C84 499 36 469 36 412 L36 412 Z " />
<glyph glyph-name="ninesuperior" unicode="&#x2079;" horiz-adv-x="375" d="M184 716 C94 716 28 658 28 574 C28 488 90 441 162 441 C197 441 227 453 248 474 L254 471 C208 377 126 330 50 304 L67 274 C224 310 343 408 343 548 C343 635 288 716 184 716 L184 716 Z M255 574 C255 527 231 484 183 484 C137 484 111 530 111 586 C111 635 132 678 180 678 C233 678 255 618 255 574 L255 574 Z " />
<glyph glyph-name="zeroinferior" unicode="&#x2080;" horiz-adv-x="375" d="M188 408 C86 408 30 311 30 201 C30 91 86 -8 188 -8 C290 -8 344 91 344 201 C344 311 290 408 188 408 L188 408 Z M188 27 C147 27 115 70 115 201 C115 334 147 372 188 372 C229 372 260 334 260 201 C260 70 229 27 188 27 L188 27 Z " />
<glyph glyph-name="oneinferior" unicode="&#x2081;" horiz-adv-x="375" d="M191 393 L72 350 L72 311 L157 329 L157 56 C157 47 155 40 144 39 L84 32 L84 -3 L196 0 L313 -3 L313 32 L252 39 C242 40 241 47 241 56 L241 393 L191 393 Z " />
<glyph glyph-name="twoinferior" unicode="&#x2082;" horiz-adv-x="375" d="M43 0 L155 0 C242 0 322 -1 322 -1 L331 72 L128 68 C129 69 229 160 245 172 C308 227 325 256 325 300 C325 368 257 406 183 406 C88 406 43 358 43 320 C43 292 75 271 109 270 L130 287 L130 352 C130 366 144 369 156 369 C210 369 241 333 241 287 C241 258 239 230 186 172 C145 127 43 36 43 36 L43 0 Z " />
<glyph glyph-name="threeinferior" unicode="&#x2083;" horiz-adv-x="375" d="M155 -10 C246 -10 330 38 330 126 C330 192 275 220 228 229 C284 245 311 279 311 315 C311 380 250 407 189 407 C135 407 77 381 55 358 L70 329 C94 348 132 361 162 361 C210 361 236 336 236 301 C236 248 176 226 100 226 L104 186 C124 188 142 188 154 188 C206 188 251 172 251 109 C251 59 208 25 155 25 C142 25 124 26 124 32 C124 54 123 76 123 98 L104 113 C71 111 39 88 39 59 C39 20 76 -10 155 -10 L155 -10 Z " />
<glyph glyph-name="fourinferior" unicode="&#x2084;" horiz-adv-x="375" d="M205 55 C205 43 201 38 188 35 L151 27 L151 -3 L244 0 L339 -3 L339 27 L303 35 C290 38 286 43 286 55 L286 112 L344 112 L344 152 L286 152 C286 186 287 229 287 256 L200 254 C201 242 205 206 205 176 L205 152 L67 152 C128 237 278 413 278 413 L206 421 C149 342 29 177 18 156 L18 112 L205 112 L205 55 Z " />
<glyph glyph-name="fiveinferior" unicode="&#x2085;" horiz-adv-x="375" d="M113 335 L197 335 C249 335 292 335 321 339 L324 411 C324 411 136 405 73 405 L66 194 C85 198 104 199 121 199 C185 199 250 182 250 110 C250 60 211 25 155 25 C142 25 124 26 124 32 L122 98 L103 113 C71 111 39 88 39 59 C39 20 75 -10 154 -10 C247 -10 326 47 326 137 C326 242 230 271 144 271 C127 271 111 270 111 270 L113 335 Z " />
<glyph glyph-name="sixinferior" unicode="&#x2086;" horiz-adv-x="375" d="M189 -8 C279 -8 345 50 345 134 C345 220 283 267 211 267 C176 267 146 255 125 234 L119 237 C165 331 247 378 323 404 L306 434 C149 398 30 300 30 160 C30 73 85 -8 189 -8 L189 -8 Z M118 134 C118 181 142 224 190 224 C236 224 262 178 262 122 C262 73 241 30 193 30 C140 30 118 90 118 134 L118 134 Z " />
<glyph glyph-name="seveninferior" unicode="&#x2087;" horiz-adv-x="375" d="M176 -3 C209 139 342 354 342 354 L342 398 L46 398 L45 325 L174 325 C216 325 255 330 284 337 L286 333 C236 271 123 130 77 -9 L176 -3 Z " />
<glyph glyph-name="eightinferior" unicode="&#x2088;" horiz-adv-x="375" d="M124 317 C124 351 152 374 192 374 C238 374 259 342 259 313 C259 285 240 256 205 242 C159 261 124 281 124 317 L124 317 Z M259 92 C259 46 221 29 186 29 C148 29 110 54 110 102 C110 133 130 165 159 182 C217 158 259 138 259 92 L259 92 Z M36 103 C36 47 82 -9 186 -9 C286 -9 337 52 337 110 C337 162 301 201 242 224 C299 237 329 271 329 308 C329 373 269 409 190 409 C106 409 46 366 46 302 C46 256 81 218 127 201 C84 190 36 160 36 103 L36 103 Z " />
<glyph glyph-name="nineinferior" unicode="&#x2089;" horiz-adv-x="375" d="M185 408 C95 408 29 350 29 266 C29 180 91 133 163 133 C198 133 228 145 249 166 L255 163 C209 69 127 22 51 -4 L68 -34 C225 2 344 100 344 240 C344 327 289 408 185 408 L185 408 Z M256 266 C256 219 232 176 184 176 C138 176 112 222 112 278 C112 327 133 370 181 370 C234 370 256 310 256 266 L256 266 Z " />
<glyph glyph-name="Euro" unicode="&#x20ac;" horiz-adv-x="590" d="M4 454 L4 412 L74 412 C71 390 70 368 70 345 C70 331 70 317 71 304 L4 304 L4 262 L75 262 C97 102 190 -15 355 -15 C462 -15 555 54 580 175 L546 187 C505 82 447 56 374 56 C285 56 216 126 195 262 L409 262 L409 304 L190 304 C189 323 188 344 188 365 C188 381 188 397 189 412 L409 412 L409 454 L192 454 C209 614 277 673 360 673 C467 673 492 606 510 519 L516 491 L555 491 L564 704 L497 678 C478 691 425 715 355 715 C203 715 108 601 80 454 L4 454 Z " />
<glyph glyph-name="afii61289" unicode="&#x2113;" horiz-adv-x="408" d="M354 582 C354 668 312 715 238 715 C153 715 101 663 101 558 L101 280 C101 281 67 251 33 228 L50 184 C68 198 101 224 101 224 L101 159 C101 22 181 -15 251 -15 C296 -15 366 5 379 90 L344 107 C335 63 309 38 273 38 C240 38 212 61 212 128 L212 310 C286 380 354 475 354 582 L354 582 Z M211 600 C211 649 231 666 256 666 C297 666 309 626 309 581 C309 520 281 444 211 366 L211 600 Z " />
<glyph glyph-name="trademark" unicode="&#x2122;" horiz-adv-x="1110" d="M258 708 L144 709 C115 709 60 715 60 715 L59 596 L89 596 L96 630 C103 662 118 673 138 673 L216 673 L216 372 C216 356 210 351 191 348 L155 343 L155 312 L254 314 L361 312 L361 343 L323 348 C305 351 299 356 299 372 L299 673 L377 673 C397 673 412 662 419 630 L426 596 L456 596 L455 715 C455 715 400 709 371 709 L258 708 Z M917 372 C917 356 911 351 892 348 L862 343 L862 312 L957 314 L1053 312 L1053 343 L1023 348 C1005 351 999 356 999 372 L992 651 C992 667 998 673 1016 676 L1047 681 L1047 712 L944 709 L881 712 L881 694 L787 419 C787 419 693 675 682 712 L604 709 L512 712 L512 681 L539 676 C557 672 563 667 563 651 L559 372 C559 356 553 351 535 348 L507 343 L507 312 L585 314 L663 312 L663 343 L633 348 C614 351 608 356 608 372 L607 663 L739 314 L789 314 L911 663 L917 372 Z " />
<glyph glyph-name="Omega" unicode="&#x2126;" horiz-adv-x="777" d="M722 426 C722 594 592 715 388 715 C185 715 56 594 56 426 C56 313 131 201 282 177 L282 127 C282 100 274 83 240 83 L192 83 C170 83 140 88 129 133 L118 178 L86 178 L94 -2 C94 -2 123 0 141 0 L237 0 C271 0 308 -2 322 -3 L322 198 C255 216 170 261 170 429 C170 617 272 678 388 678 C505 678 607 617 607 429 C607 261 522 216 456 198 L456 -3 C469 -2 506 0 540 0 L636 0 C654 0 683 -2 683 -2 L691 178 L659 178 L648 133 C637 88 607 83 586 83 L537 83 C503 83 495 100 495 127 L495 177 C646 201 722 313 722 426 L722 426 Z " />
<glyph glyph-name="estimated" unicode="&#x212e;" horiz-adv-x="923" d="M210 346 C210 352 212 355 217 355 L880 355 C880 570 718 744 465 744 C233 744 51 574 51 367 C51 155 238 -15 465 -15 C601 -15 717 42 794 138 L740 138 C673 62 572 22 465 22 C380 22 210 77 210 166 L210 346 Z M217 393 C212 393 210 395 210 400 L210 574 C210 664 382 707 465 707 C556 707 720 664 720 574 L720 400 C720 395 719 393 714 393 L217 393 Z " />
<glyph glyph-name="onethird" unicode="&#x2153;" horiz-adv-x="1020" d="M185 17 L213 -8 L838 698 L811 723 L185 17 Z M220 707 L101 664 L101 625 L186 643 L186 370 C186 361 184 354 173 353 L113 346 L113 311 L225 314 L342 311 L342 346 L281 353 C271 354 270 361 270 370 L270 707 L220 707 Z M763 -12 C854 -12 938 36 938 124 C938 190 883 218 836 227 C892 243 919 277 919 313 C919 378 858 405 797 405 C743 405 685 379 663 356 L678 327 C702 346 740 359 770 359 C818 359 844 334 844 299 C844 246 784 224 708 224 L712 184 C732 186 750 186 762 186 C814 186 859 170 859 107 C859 57 816 23 763 23 C750 23 732 24 732 30 C732 52 731 74 731 96 L712 111 C679 109 647 86 647 57 C647 18 684 -12 763 -12 L763 -12 Z " />
<glyph glyph-name="twothirds" unicode="&#x2154;" horiz-adv-x="1020" d="M185 17 L213 -8 L838 698 L811 723 L185 17 Z M86 311 L198 311 C285 311 365 310 365 310 L374 383 L171 379 C172 380 272 471 288 483 C351 538 368 567 368 611 C368 679 300 717 226 717 C131 717 86 669 86 631 C86 603 118 582 152 581 L173 598 L173 663 C173 677 187 680 199 680 C253 680 284 644 284 598 C284 569 282 541 229 483 C188 438 86 347 86 347 L86 311 Z M763 -12 C854 -12 938 36 938 124 C938 190 883 218 836 227 C892 243 919 277 919 313 C919 378 858 405 797 405 C743 405 685 379 663 356 L678 327 C702 346 740 359 770 359 C818 359 844 334 844 299 C844 246 784 224 708 224 L712 184 C732 186 750 186 762 186 C814 186 859 170 859 107 C859 57 816 23 763 23 C750 23 732 24 732 30 C732 52 731 74 731 96 L712 111 C679 109 647 86 647 57 C647 18 684 -12 763 -12 L763 -12 Z " />
<glyph glyph-name="oneeighth" unicode="&#x215b;" horiz-adv-x="1020" d="M185 17 L213 -8 L838 698 L811 723 L185 17 Z M220 707 L101 664 L101 625 L186 643 L186 370 C186 361 184 354 173 353 L113 346 L113 311 L225 314 L342 311 L342 346 L281 353 C271 354 270 361 270 370 L270 707 L220 707 Z M718 315 C718 349 746 372 786 372 C832 372 853 340 853 311 C853 283 834 254 799 240 C753 259 718 279 718 315 L718 315 Z M853 90 C853 44 815 27 780 27 C742 27 704 52 704 100 C704 131 724 163 753 180 C811 156 853 136 853 90 L853 90 Z M630 101 C630 45 676 -11 780 -11 C880 -11 931 50 931 108 C931 160 895 199 836 222 C893 235 923 269 923 306 C923 371 863 407 784 407 C700 407 640 364 640 300 C640 254 675 216 721 199 C678 188 630 158 630 101 L630 101 Z " />
<glyph glyph-name="threeeighths" unicode="&#x215c;" horiz-adv-x="1020" d="M185 17 L213 -8 L838 698 L811 723 L185 17 Z M718 315 C718 349 746 372 786 372 C832 372 853 340 853 311 C853 283 834 254 799 240 C753 259 718 279 718 315 L718 315 Z M853 90 C853 44 815 27 780 27 C742 27 704 52 704 100 C704 131 724 163 753 180 C811 156 853 136 853 90 L853 90 Z M630 101 C630 45 676 -11 780 -11 C880 -11 931 50 931 108 C931 160 895 199 836 222 C893 235 923 269 923 306 C923 371 863 407 784 407 C700 407 640 364 640 300 C640 254 675 216 721 199 C678 188 630 158 630 101 L630 101 Z M204 300 C295 300 379 348 379 436 C379 502 324 530 277 539 C333 555 360 589 360 625 C360 690 299 717 238 717 C184 717 126 691 104 668 L119 639 C143 658 181 671 211 671 C259 671 285 646 285 611 C285 558 225 536 149 536 L153 496 C173 498 191 498 203 498 C255 498 300 482 300 419 C300 369 257 335 204 335 C191 335 173 336 173 342 C173 364 172 386 172 408 L153 423 C120 421 88 398 88 369 C88 330 125 300 204 300 L204 300 Z " />
<glyph glyph-name="fiveeighths" unicode="&#x215d;" horiz-adv-x="1020" d="M185 17 L213 -8 L838 698 L811 723 L185 17 Z M165 645 L249 645 C301 645 344 645 373 649 L376 721 C376 721 188 715 125 715 L118 504 C137 508 156 509 173 509 C237 509 302 492 302 420 C302 370 263 335 207 335 C194 335 176 336 176 342 L174 408 L155 423 C123 421 91 398 91 369 C91 330 127 300 206 300 C299 300 378 357 378 447 C378 552 282 581 196 581 C179 581 163 580 163 580 L165 645 Z M718 315 C718 349 746 372 786 372 C832 372 853 340 853 311 C853 283 834 254 799 240 C753 259 718 279 718 315 L718 315 Z M853 90 C853 44 815 27 780 27 C742 27 704 52 704 100 C704 131 724 163 753 180 C811 156 853 136 853 90 L853 90 Z M630 101 C630 45 676 -11 780 -11 C880 -11 931 50 931 108 C931 160 895 199 836 222 C893 235 923 269 923 306 C923 371 863 407 784 407 C700 407 640 364 640 300 C640 254 675 216 721 199 C678 188 630 158 630 101 L630 101 Z " />
<glyph glyph-name="seveneighths" unicode="&#x215e;" horiz-adv-x="1020" d="M185 17 L213 -8 L838 698 L811 723 L185 17 Z M718 315 C718 349 746 372 786 372 C832 372 853 340 853 311 C853 283 834 254 799 240 C753 259 718 279 718 315 L718 315 Z M853 90 C853 44 815 27 780 27 C742 27 704 52 704 100 C704 131 724 163 753 180 C811 156 853 136 853 90 L853 90 Z M630 101 C630 45 676 -11 780 -11 C880 -11 931 50 931 108 C931 160 895 199 836 222 C893 235 923 269 923 306 C923 371 863 407 784 407 C700 407 640 364 640 300 C640 254 675 216 721 199 C678 188 630 158 630 101 L630 101 Z M214 307 C247 449 380 664 380 664 L380 708 L84 708 L83 635 L212 635 C254 635 293 640 322 647 L324 643 C274 581 161 440 115 301 L214 307 Z " />
<glyph glyph-name="partialdiff" unicode="&#x2202;" horiz-adv-x="564" d="M275 494 C132 494 40 386 40 235 C40 65 161 -15 277 -15 C424 -15 524 85 524 260 C524 472 358 681 153 771 L131 750 C190 712 314 596 375 465 C354 479 318 494 275 494 L275 494 Z M284 24 C212 24 149 94 149 248 C149 336 174 454 280 454 C351 454 416 389 416 230 C416 142 391 24 284 24 L284 24 Z " />
<glyph glyph-name="Delta" unicode="&#x2206;" horiz-adv-x="777" d="M29 0 L748 0 L748 40 L446 718 L330 718 L28 39 L29 0 Z M615 43 L79 43 L349 656 L615 43 Z " />
<glyph glyph-name="product" unicode="&#x220f;" horiz-adv-x="888" d="M577 656 C614 656 622 641 625 607 C625 607 628 514 628 349 C628 184 625 92 625 92 C624 62 613 51 577 44 L524 34 L524 -5 L684 0 L844 -5 L844 34 L791 44 C754 51 743 62 742 92 C742 92 739 184 739 349 C739 514 742 607 742 607 C743 641 754 649 791 656 L844 666 L844 705 L680 700 L200 700 L44 705 L44 666 L97 656 C134 649 143 641 145 607 C145 607 148 514 148 349 C148 184 145 92 145 92 C144 62 134 51 97 44 L44 34 L44 -5 L204 0 L364 -5 L364 34 L311 44 C274 51 263 62 262 92 C262 92 259 184 259 349 C259 514 262 607 262 607 C265 641 273 656 311 656 L577 656 Z " />
<glyph glyph-name="summation" unicode="&#x2211;" horiz-adv-x="672" d="M403 369 L190 636 C183 644 189 652 199 652 L455 652 C495 652 515 617 531 554 L543 508 L581 508 C591 650 599 711 599 711 C599 711 500 700 442 700 L177 700 L25 705 L25 667 L296 327 L25 33 L25 -5 L162 0 L407 0 C466 0 606 -5 606 -5 C613 65 626 158 634 212 L598 212 L554 126 C517 54 481 48 432 48 L105 48 L403 369 Z " />
<glyph glyph-name="minus" unicode="&#x2212;" horiz-adv-x="590" d="M60 381 L60 334 L529 334 L529 381 L60 381 Z " />
<glyph glyph-name="uni2215" unicode="&#x2215;" horiz-adv-x="609" d="M-23 17 L4 -8 L630 698 L602 723 L-23 17 Z " />
<glyph glyph-name="uni2219" unicode="&#x2219;" horiz-adv-x="270" d="M57 358 C57 315 92 281 135 281 C178 281 212 315 212 358 C212 401 178 436 135 436 C92 436 57 401 57 358 L57 358 Z " />
<glyph glyph-name="radical" unicode="&#x221a;" horiz-adv-x="590" d="M255 -195 L590 714 L537 714 L230 -141 L66 300 L13 300 L201 -195 L255 -195 Z " />
<glyph glyph-name="infinity" unicode="&#x221e;" horiz-adv-x="972" d="M109 361 C109 508 204 539 268 539 C335 539 408 507 467 361 C408 215 335 182 268 182 C204 182 109 214 109 361 L109 361 Z M486 402 C442 522 364 580 267 580 C163 580 65 509 65 361 C65 212 163 141 267 141 C364 141 442 199 486 319 C530 199 608 141 705 141 C809 141 907 212 907 361 C907 509 809 580 705 580 C608 580 530 522 486 402 L486 402 Z M863 361 C863 214 768 182 704 182 C637 182 564 215 505 361 C564 507 637 539 704 539 C768 539 863 508 863 361 L863 361 Z " />
<glyph glyph-name="integral" unicode="&#x222b;" horiz-adv-x="572" d="M337 472 C337 650 361 700 424 700 C475 700 509 632 515 632 C554 632 595 686 595 714 C595 748 525 761 488 761 C366 761 235 686 235 475 L235 29 C235 -149 211 -198 148 -198 C98 -198 64 -130 57 -130 C19 -130 -22 -185 -22 -212 C-22 -246 48 -259 84 -259 C206 -259 337 -185 337 27 L337 472 Z " />
<glyph glyph-name="approxequal" unicode="&#x2248;" horiz-adv-x="590" d="M177 265 C248 265 329 188 411 188 C472 188 523 226 523 305 L483 305 C480 258 453 239 414 239 C340 239 257 317 180 317 C119 317 67 273 67 195 L108 195 C111 244 137 265 177 265 L177 265 Z M177 483 C248 483 329 406 411 406 C472 406 523 444 523 522 L483 522 C480 475 453 456 414 456 C340 456 257 535 180 535 C119 535 67 490 67 412 L108 412 C111 462 137 483 177 483 L177 483 Z " />
<glyph glyph-name="notequal" unicode="&#x2260;" horiz-adv-x="590" d="M64 468 L64 424 L304 424 L227 291 L64 291 L64 247 L201 247 L130 124 L178 124 L249 247 L526 247 L526 291 L275 291 L353 424 L526 424 L526 468 L379 468 L449 587 L400 587 L330 468 L64 468 Z " />
<glyph glyph-name="lessequal" unicode="&#x2264;" horiz-adv-x="590" d="M108 350 L108 366 L526 527 L526 577 L64 394 L64 323 L526 140 L526 189 L108 350 Z M526 0 L526 41 L64 41 L64 0 L526 0 Z " />
<glyph glyph-name="greaterequal" unicode="&#x2265;" horiz-adv-x="590" d="M63 189 L63 140 L526 323 L526 394 L63 577 L63 527 L482 366 L482 350 L63 189 Z M526 0 L526 41 L63 41 L63 0 L526 0 Z " />
<glyph glyph-name="lozenge" unicode="&#x25ca;" horiz-adv-x="590" d="M314 715 L274 715 L64 357 L274 -5 L314 -5 L524 357 L314 715 Z M294 673 L473 357 L294 37 L116 357 L294 673 Z " />
<glyph glyph-name="commaaccent" unicode="&#xf6c3;" horiz-adv-x="250" d="M49 -336 C127 -312 209 -241 209 -158 C209 -99 161 -59 122 -59 C87 -59 49 -100 46 -133 C99 -149 124 -178 124 -211 C124 -247 87 -287 27 -315 L49 -336 Z " />
<glyph glyph-name="f_f" unicode="&#xfb00;" horiz-adv-x="663" d="M525 472 C525 561 530 618 547 654 C563 690 591 704 621 704 C671 704 704 639 711 639 C749 639 790 686 790 714 C790 748 715 761 679 761 C556 761 426 685 422 473 L212 473 C212 593 217 673 281 673 C326 673 349 618 355 618 C389 618 422 665 422 692 C422 717 366 727 330 727 C216 727 110 642 109 473 L32 473 L32 433 L109 433 L109 81 C109 51 97 41 61 33 L30 26 L30 -5 L155 0 L309 -5 L309 26 L256 36 C220 43 212 56 212 87 L212 433 L422 433 L422 81 C422 50 410 42 373 33 L344 26 L344 -5 L468 0 L622 -5 L622 26 L570 36 C534 43 525 56 525 87 L525 433 L633 418 L641 479 L525 472 Z " />
<glyph glyph-name="fi" unicode="&#xfb01;" horiz-adv-x="621" d="M109 473 L32 473 L32 433 L109 433 L109 81 C109 51 97 41 61 33 L30 26 L30 -5 L155 0 L309 -5 L309 26 L256 36 C220 43 212 56 212 87 L212 433 L380 425 C408 424 422 421 422 384 L422 81 C422 50 410 42 373 33 L344 26 L344 -5 L474 0 L602 -5 L602 26 L572 33 C535 42 524 50 524 81 L524 330 C524 427 527 500 527 500 L489 500 C475 493 436 479 370 477 L212 472 C212 561 217 618 234 654 C250 690 278 704 308 704 C358 704 391 639 398 639 C436 639 477 686 477 714 C477 748 402 761 366 761 C243 761 113 685 109 473 L109 473 Z " />
<glyph glyph-name="fl" unicode="&#xfb02;" horiz-adv-x="621" d="M366 761 C244 761 111 684 109 473 L32 473 L32 433 L109 433 L109 81 C109 51 97 41 61 33 L30 26 L30 -5 L155 0 L309 -5 L309 26 L256 36 C220 43 212 56 212 87 L212 433 L325 418 L333 479 L212 472 C212 543 215 595 226 632 C240 682 267 704 310 704 C364 704 422 667 422 627 L422 81 C422 50 410 41 374 33 L343 26 L343 -5 L474 0 L607 -5 L607 26 L573 33 C535 41 525 50 525 81 L525 534 C525 626 528 755 528 755 L496 755 C491 749 478 737 472 733 C449 748 409 761 366 761 L366 761 Z " />
<glyph glyph-name="ffi" unicode="&#xfb03;" horiz-adv-x="934" d="M525 472 C525 561 530 618 547 654 C563 690 591 704 621 704 C671 704 704 639 711 639 C749 639 790 686 790 714 C790 748 715 761 679 761 C556 761 426 685 422 473 L212 473 C212 593 217 673 281 673 C326 673 349 618 355 618 C389 618 422 665 422 692 C422 717 366 727 330 727 C216 727 110 642 109 473 L32 473 L32 433 L109 433 L109 81 C109 51 97 41 61 33 L30 26 L30 -5 L155 0 L309 -5 L309 26 L256 36 C220 43 212 56 212 87 L212 433 L422 433 L422 81 C422 50 410 42 373 33 L344 26 L344 -5 L468 0 L622 -5 L622 26 L570 36 C534 43 525 56 525 87 L525 433 L693 425 C721 424 735 421 735 384 L735 81 C735 50 723 42 686 33 L657 26 L657 -5 L787 0 L915 -5 L915 26 L885 33 C848 42 837 50 837 81 L837 330 C837 427 840 500 840 500 L802 500 C788 493 749 479 683 477 L525 472 Z " />
<glyph glyph-name="ffl" unicode="&#xfb04;" horiz-adv-x="934" d="M422 433 L422 81 C422 51 410 41 374 33 L343 26 L343 -5 L468 0 L622 -5 L622 26 L569 36 C533 43 525 56 525 87 L525 433 L638 418 L646 479 L525 472 C525 543 528 595 539 632 C553 682 580 704 623 704 C677 704 735 667 735 627 L735 81 C735 50 723 41 687 33 L656 26 L656 -5 L787 0 L920 -5 L920 26 L886 33 C848 41 838 50 838 81 L838 534 C838 626 841 755 841 755 L809 755 C804 749 791 737 785 733 C762 748 722 761 679 761 C557 761 424 684 422 473 L212 473 C212 593 217 673 281 673 C326 673 349 618 355 618 C389 618 422 665 422 692 C422 717 366 727 330 727 C216 727 110 642 109 473 L32 473 L32 433 L109 433 L109 81 C109 51 97 41 61 33 L30 26 L30 -5 L155 0 L309 -5 L309 26 L256 36 C220 43 212 56 212 87 L212 433 L422 433 Z " />
</font>
</svg>
