<?xml version="1.0" standalone="no"?>
<!DOCTYPE svg PUBLIC "-//W3C//DTD SVG 1.1//EN" "http://www.w3.org/Graphics/SVG/1.1/DTD/svg11.dtd" >
<svg xmlns="http://www.w3.org/2000/svg">
<metadata></metadata>
<defs>
<font id="sommetregular" horiz-adv-x="1032" >
<font-face units-per-em="2048" ascent="1536" descent="-512" />
<missing-glyph horiz-adv-x="460" />
<glyph unicode="&#xfb01;" horiz-adv-x="1054" d="M25 946v139h168v58q0 232 82 319.5t274 65.5q73 -6 139 -31l-37 -119q-82 27 -139 27q-40 0 -67.5 -12t-43.5 -31.5t-25 -55t-11.5 -71.5t-2.5 -92v-58h488v-827q0 -131 92 -131q47 0 92 18l29 -133q-88 -32 -160 -32q-104 0 -164.5 63.5t-60.5 200.5v702h-316v-946h-172 v946h-165z" />
<glyph unicode="&#xfb02;" horiz-adv-x="1077" d="M25 946v139h168v58q0 232 82 319.5t274 65.5q73 -6 139 -31l-37 -119q-82 27 -139 27q-40 0 -67.5 -12t-43.5 -31.5t-25 -55t-11.5 -71.5t-2.5 -92v-58h336v441h174v-1276q0 -131 93 -131q29 0 92 18l28 -125q-88 -32 -159 -32q-104 0 -166 63.5t-62 200.5v702h-336v-946 h-172v946h-165z" />
<glyph unicode="&#xfb03;" horiz-adv-x="1603" d="M25 946v139h168v58q0 232 82 319.5t274 65.5q73 -6 139 -31l-37 -119q-82 27 -139 27q-40 0 -67.5 -12t-43.5 -31.5t-25 -55t-11.5 -71.5t-2.5 -92v-58h353v58q0 231 82.5 319t273.5 66q72 -6 139 -31l-36 -119q-79 27 -138 27q-40 0 -67.5 -12t-43.5 -31.5t-24.5 -55 t-11 -71.5t-2.5 -92v-58h512v-827q0 -131 90 -131q47 0 92 18l31 -133q-92 -32 -162 -32q-102 0 -162.5 63.5t-60.5 200.5v702h-340v-946h-172v946h-353v-946h-172v946h-165z" />
<glyph unicode="&#xfb04;" horiz-adv-x="1613" d="M25 946v139h168v58q0 232 82 319.5t274 65.5q73 -6 139 -31l-37 -119q-82 27 -139 27q-40 0 -67.5 -12t-43.5 -31.5t-25 -55t-11.5 -71.5t-2.5 -92v-58h353v58q0 231 82.5 319t273.5 66q72 -6 139 -31l-36 -119q-79 27 -138 27q-40 0 -67.5 -12t-43.5 -31.5t-24.5 -55 t-11 -71.5t-2.5 -92v-58h348v441h174v-1276q0 -131 92 -131q29 0 92 18l29 -125q-88 -32 -160 -32q-104 0 -165.5 63.5t-61.5 200.5v702h-348v-946h-172v946h-353v-946h-172v946h-165z" />
<glyph horiz-adv-x="0" />
<glyph horiz-adv-x="682" />
<glyph unicode=" "  horiz-adv-x="460" />
<glyph unicode="&#x09;" horiz-adv-x="460" />
<glyph unicode="&#xa0;" horiz-adv-x="460" />
<glyph unicode="!" horiz-adv-x="382" d="M117 4v244h172v-244h-172zM117 406v1097h172v-1097h-172z" />
<glyph unicode="&#x22;" horiz-adv-x="727" d="M133 1473h172l-26 -512h-119zM422 1473h172l-27 -512h-118z" />
<glyph unicode="#" horiz-adv-x="1339" d="M74 328v164h264l113 317h-218v162h277l113 313h168l-113 -313h207l112 313h168l-112 -313h188v-162h-248l-114 -317h219v-164h-279l-117 -328h-165l116 328h-207l-116 -328h-168l117 328h-205zM506 492h207l112 317h-207z" />
<glyph unicode="$" horiz-adv-x="985" d="M61 45l37 148q209 -66 365 -66q305 0 305 252q0 60 -37 112t-96.5 91.5t-131.5 78.5t-144 83.5t-131.5 96t-96.5 126t-37 163.5q0 71 21 129t55 96.5t82 66.5t98 43t107 22v196h164v-192q128 -5 305 -53l-35 -150q-180 58 -313 58q-134 0 -216.5 -52t-82.5 -157 q0 -61 37 -113t96.5 -92t131.5 -79t143.5 -84t131 -96.5t96.5 -126t37 -163.5q0 -175 -95.5 -271.5t-252.5 -121.5v-203h-164v193q-118 3 -196.5 18t-182.5 47z" />
<glyph unicode="%" horiz-adv-x="1918" d="M104 969v217q0 156 70 231.5t234 75.5q165 0 234 -75t69 -232v-217q0 -155 -69 -230t-234 -75q-164 0 -234 75t-70 230zM264 971q0 -100 28 -140t116 -40q49 0 78.5 13t44 43.5t18.5 64t4 92.5v180q0 100 -28.5 141t-116.5 41q-39 0 -65.5 -9.5t-42 -25.5t-23.5 -44.5 t-10.5 -58t-2.5 -75.5v-182zM375 -25l942 1493h194l-944 -1493h-192zM1176 287v215q0 157 69 232t234 75q164 0 233.5 -75.5t69.5 -231.5v-215q0 -156 -69.5 -231.5t-233.5 -75.5q-165 0 -234 75t-69 232zM1333 289q0 -100 29 -141.5t117 -41.5q48 0 77.5 13t43.5 43.5 t18 64.5t4 92v183q0 100 -27.5 140t-115.5 40q-49 0 -79 -13t-44 -43.5t-18.5 -64.5t-4.5 -92v-180z" />
<glyph unicode="&#x26;" horiz-adv-x="1673" d="M117 375v84q0 77 24 136t65.5 95t89 56.5t103.5 27.5q-55 11 -97.5 30t-80.5 52.5t-58 89.5t-20 131v41q0 107 35 181.5t103.5 116.5t156.5 60.5t207 18.5q193 0 457 -51l-31 -146q-252 43 -420 43q-178 0 -252.5 -49.5t-74.5 -173.5v-41q0 -68 26 -115t74 -70.5 t101 -32.5t122 -9h983v-156h-305v-694h-180v694h-508q-58 0 -104 -5t-92 -20.5t-76 -40.5t-49 -68t-19 -101v-84q0 -60 22.5 -104.5t57.5 -70.5t86.5 -41.5t100.5 -20.5t108 -5q200 0 348 43l29 -151q-198 -45 -377 -45q-87 0 -163 10.5t-149.5 38.5t-126 71.5t-84.5 113.5 t-32 161z" />
<glyph unicode="'" horiz-adv-x="428" d="M129 1473h172l-27 -512h-118z" />
<glyph unicode="(" horiz-adv-x="491" d="M37 643q0 290 98.5 544.5t267.5 414.5l58 -58q-110 -143 -177 -399.5t-67 -501.5t67 -501.5t177 -399.5l-58 -57q-169 160 -267.5 414.5t-98.5 543.5z" />
<glyph unicode=")" horiz-adv-x="493" d="M37 -258q111 144 178.5 400.5t67.5 500.5t-67.5 500.5t-178.5 400.5l57 58q169 -160 268 -414.5t99 -544.5q0 -289 -99 -543.5t-268 -414.5z" />
<glyph unicode="*" horiz-adv-x="808" d="M35 1198l59 141l258 -114l-28 270h165l-30 -270l258 114l59 -141l-284 -65l192 -211l-129 -93l-149 246l-152 -246l-129 95l192 209z" />
<glyph unicode="+" d="M10 471v154h430v419h160v-419h422v-154h-422v-422h-160v422h-430z" />
<glyph unicode="," horiz-adv-x="376" d="M51 -264q17 78 52 235.5t53 245.5h211q-22 -57 -60.5 -153.5t-69.5 -175t-59 -152.5h-127z" />
<glyph unicode="-" horiz-adv-x="757" d="M135 516v164h490v-164h-490z" />
<glyph unicode="." horiz-adv-x="397" d="M113 0v227h172v-227h-172z" />
<glyph unicode="/" horiz-adv-x="882" d="M8 -104l682 1693h184l-681 -1693h-185z" />
<glyph unicode="0" horiz-adv-x="1329" d="M113 537v399q0 559 544 559h15q545 0 545 -559v-399q0 -267 -136.5 -412t-408.5 -145h-15q-271 0 -407.5 145t-136.5 412zM297 539q0 -194 84 -299t276 -105h15q98 0 168.5 28.5t111.5 83t59.5 126t18.5 166.5v397q0 204 -82 303.5t-276 99.5h-15q-196 0 -278 -99 t-82 -304v-397z" />
<glyph unicode="1" horiz-adv-x="636" d="M219 1315v158h299v-1473h-182v1315h-117z" />
<glyph unicode="2" horiz-adv-x="1282" d="M117 0v158q62 51 154.5 127t144 118t126 104t115 98.5t95 87.5t83.5 84.5t62 75.5t49 75t26.5 69t10.5 70q0 274 -346 274q-221 0 -438 -67l-29 145q235 76 481 76q264 0 391 -103.5t127 -320.5q0 -43 -10.5 -85.5t-26 -80.5t-48 -84t-60.5 -81t-80 -86t-90 -86 t-107.5 -94t-115.5 -96.5t-131 -107t-138 -112.5h828v-158h-1073z" />
<glyph unicode="3" horiz-adv-x="1189" d="M68 25l28 151q219 -43 410 -43q62 0 113 5t104.5 20.5t90 41.5t60 70.5t23.5 104.5v84q0 58 -19 100.5t-49 67.5t-76 40t-91.5 20t-104.5 5h-104l-25 156h117q55 0 99 5.5t87.5 20.5t73 40t47.5 66.5t18 96.5v41q0 124 -74.5 173.5t-252.5 49.5q-168 0 -420 -43l-31 146 q264 51 457 51q121 0 209 -18t156 -59.5t102.5 -116.5t34.5 -183v-41q0 -75 -20 -131t-58 -89.5t-80.5 -52.5t-97.5 -30q56 -7 103.5 -27.5t89 -56.5t65.5 -95t24 -136v-84q0 -395 -571 -395q-203 0 -438 45z" />
<glyph unicode="4" horiz-adv-x="1234" d="M39 291v155l803 1027h217l-811 -1027h583v322h177v-322h196v-155h-196v-291h-177v291h-792z" />
<glyph unicode="5" horiz-adv-x="1241" d="M84 35l37 147q231 -47 379 -47q70 0 130.5 9.5t118 32.5t98 59t65 92.5t24.5 128.5v8q0 38 -2.5 65.5t-11.5 59.5t-25 54t-43.5 46t-67.5 40.5t-96.5 32.5t-130 25.5t-169 16t-212.5 8.5l119 660h772l-35 -154h-588l-79 -367q222 -5 365 -33t229.5 -88t120.5 -146.5 t34 -219.5v-8q0 -107 -32 -190t-87 -136.5t-133.5 -88t-165 -48.5t-188.5 -14q-181 0 -426 55z" />
<glyph unicode="6" horiz-adv-x="1320" d="M109 434v98q31 712 886 963l45 -137q-508 -145 -708 -500q162 105 370 105h15q253 0 374 -110.5t121 -346.5v-72q0 -232 -133.5 -343t-410.5 -111h-15q-277 0 -410.5 111t-133.5 343zM289 436q0 -146 83.5 -224.5t280.5 -78.5h15q197 0 280.5 78.5t83.5 224.5v70 q0 154 -81.5 228.5t-282.5 74.5h-15q-199 0 -281.5 -75t-82.5 -228v-70z" />
<glyph unicode="7" horiz-adv-x="1140" d="M43 1473h1059v-154l-760 -1319h-207l780 1319h-843z" />
<glyph unicode="8" horiz-adv-x="1329" d="M113 418q0 330 237 381q-186 52 -186 315v8q0 209 102.5 290t347.5 81h101q245 0 347.5 -81t102.5 -290v-8q0 -133 -50.5 -211t-135.5 -104q238 -52 238 -381q0 -89 -13 -156t-41.5 -115.5t-68 -80t-98 -50.5t-125.5 -26.5t-156 -7.5h-101q-108 0 -184 11t-139 39.5 t-100.5 78t-57.5 125.5t-20 182zM293 420q0 -90 16 -146t56 -88.5t97 -44.5t150 -12h105q91 0 148 12t97.5 44.5t57 88.5t16.5 146q0 88 -12 141t-47.5 90.5t-97.5 52.5t-164 15h-101q-102 0 -164 -15t-97.5 -52.5t-47.5 -90.5t-12 -141zM338 1120q0 -137 61 -188t215 -51 h101q154 0 215 51t61 188q0 133 -59.5 183.5t-216.5 50.5h-101q-157 0 -216.5 -50.5t-59.5 -183.5z" />
<glyph unicode="9" horiz-adv-x="1320" d="M109 967v71q0 232 133.5 343.5t410.5 111.5h15q277 0 410.5 -111.5t133.5 -343.5v-71q0 -19 -2 -27q-28 -714 -884 -963l-45 138q503 141 708 499q-158 -104 -371 -104h-14q-253 0 -374 110.5t-121 346.5zM289 967q0 -154 81.5 -228.5t282.5 -74.5h15q199 0 281.5 75 t82.5 228v69q0 146 -83.5 224.5t-280.5 78.5h-15q-197 0 -280.5 -78.5t-83.5 -224.5v-69z" />
<glyph unicode=":" horiz-adv-x="313" d="M78 0v227h172v-227h-172zM78 879v227h172v-227h-172z" />
<glyph unicode=";" horiz-adv-x="401" d="M25 -264q16 77 50.5 234.5t53.5 246.5h211q-161 -409 -188 -481h-127zM125 862v244h174v-244h-174z" />
<glyph unicode="&#x3c;" horiz-adv-x="1144" d="M98 479v133l926 394v-146l-752 -313l752 -316v-145z" />
<glyph unicode="=" horiz-adv-x="1038" d="M31 260v156h968v-156h-968zM33 674v155h966v-155h-966z" />
<glyph unicode="&#x3e;" horiz-adv-x="1007" d="M98 86v145l750 316l-750 313v146l926 -394v-133z" />
<glyph unicode="?" horiz-adv-x="765" d="M-10 1446q4 1 57 13.5t80 18t80.5 11.5t103.5 6q80 0 141 -8.5t118.5 -32t94 -63t58.5 -105.5t22 -156q0 -75 -36.5 -148t-88 -131.5t-103 -116.5t-88 -127.5t-36.5 -139.5v-98h-172v98q0 69 25.5 135.5t63.5 116.5t83 103.5t83 98.5t63.5 100t25.5 109q0 64 -17 106.5 t-52.5 64.5t-78.5 30t-106 8q-166 0 -291 -39zM221 -10v219h170v-219h-170z" />
<glyph unicode="@" horiz-adv-x="1677" d="M90 713q0 168 64 315t173.5 248.5t257.5 160t312 58.5q136 0 256.5 -34t210.5 -95t155 -142t98.5 -177.5t33.5 -200.5q0 -549 -418 -549q-38 0 -76 14t-74 52t-49 94q-54 -67 -126 -100t-134 -33q-127 0 -211 78t-84 214q0 65 17.5 130.5t54 125t87 105t121.5 73 t152 27.5q79 0 138.5 -22t93 -61t49.5 -85t16 -100q0 -50 -23 -127t-24 -88q-8 -79 12.5 -122.5t67.5 -43.5q101 0 168.5 111.5t67.5 298.5q0 148 -76 263t-208 176.5t-296 61.5q-138 0 -257 -49.5t-201 -133.5t-128.5 -199t-46.5 -244q0 -153 46 -274.5t129 -199.5 t196 -118.5t248 -40.5q228 0 379 115l43 -144q-176 -127 -424 -127q-173 0 -317.5 51.5t-250 149t-164.5 248t-59 340.5zM629 635q-2 -80 41.5 -127.5t126.5 -46.5q106 3 182 99.5t78 207.5q0 78 -39 127.5t-123 48.5q-119 -4 -191.5 -98t-74.5 -211z" />
<glyph unicode="A" horiz-adv-x="1253" d="M49 0l504 1473h145l506 -1473h-196l-117 381h-531l-116 -381h-195zM408 535h436l-217 718z" />
<glyph unicode="B" horiz-adv-x="1286" d="M135 0v1473h586q108 0 184.5 -17t123.5 -46.5t73.5 -81t36 -109t10.5 -142.5q0 -140 -53 -219.5t-127 -99.5q97 -14 156 -102.5t59 -227.5v-33q0 -102 -20 -171.5t-69.5 -122t-138.5 -77t-223 -24.5h-598zM317 154h416q140 0 202 54t62 187v33q0 133 -58.5 190.5 t-195.5 57.5h-426v-522zM317 831h404q132 0 186 57t54 189q0 133 -54 187.5t-186 54.5h-404v-488z" />
<glyph unicode="C" horiz-adv-x="1105" d="M113 526v422q0 154 34.5 259t108 168t178 90.5t254.5 27.5h25q174 0 325 -53l-34 -146q-149 45 -291 45h-25q-219 0 -304 -86.5t-85 -304.5v-422q0 -218 85 -304.5t304 -86.5h25q128 0 291 43l34 -143q-148 -55 -325 -55h-25q-150 0 -254.5 27t-178 90.5t-108 169 t-34.5 259.5z" />
<glyph unicode="D" horiz-adv-x="1323" d="M135 0v1473h531q131 0 223.5 -20t154.5 -59.5t98 -106.5t51 -152t15 -205v-387q0 -157 -26 -258t-90 -166t-166 -92t-260 -27h-531zM317 154h324q115 0 190 23t116.5 74t58 119t16.5 171v391q0 103 -16.5 171t-58 119t-116.5 74t-190 23h-324v-1165z" />
<glyph unicode="E" horiz-adv-x="1103" d="M135 0v1473h879v-154h-697v-485h646v-156h-646v-524h697v-154h-879z" />
<glyph unicode="F" horiz-adv-x="1013" d="M135 0v1473h873v-154h-693v-506h639v-156h-639v-657h-180z" />
<glyph unicode="G" horiz-adv-x="1273" d="M115 526v422q0 154 34.5 259t108 168t178 90.5t254.5 27.5h25q223 0 420 -86l-35 -145q-193 77 -385 77h-25q-219 0 -304 -86.5t-85 -304.5v-422q0 -218 85 -304.5t304 -86.5h29q51 0 73 0.5t70 9t99 25.5v465h182v-553q-165 -102 -424 -102h-29q-150 0 -254.5 27 t-178 90.5t-108 169t-34.5 259.5z" />
<glyph unicode="H" horiz-adv-x="1359" d="M135 0v1473h182v-633h725v633h183v-1473h-183v684h-725v-684h-182z" />
<glyph unicode="I" horiz-adv-x="452" d="M135 0v1473h182v-1473h-182z" />
<glyph unicode="J" horiz-adv-x="452" d="M-176 -430l31 123q85 -25 143 -25q81 0 109 56t28 204v1545h182v-1520q0 -225 -64 -323.5t-218 -98.5q-71 0 -211 39z" />
<glyph unicode="K" horiz-adv-x="1222" d="M135 0v1473h182v-666l652 666h215l-674 -689l709 -784h-215l-687 760v-760h-182z" />
<glyph unicode="L" horiz-adv-x="1052" d="M135 0v1473h182v-1319h730v-154h-912z" />
<glyph unicode="M" horiz-adv-x="1959" d="M43 0l338 1485h147l451 -1274l453 1274h147l338 -1485h-186l-244 1169l-420 -1189h-174l-424 1189l-240 -1169h-186z" />
<glyph unicode="N" horiz-adv-x="1323" d="M135 0v1473h178l699 -1170v1170h178v-1473h-178l-699 1161v-1161h-178z" />
<glyph unicode="O" horiz-adv-x="1388" d="M113 526v420q0 156 33 261.5t105 169t175 90t254 26.5h29q148 0 251 -27.5t175.5 -91t106.5 -169t34 -259.5v-420q0 -154 -34 -259.5t-106.5 -169t-175.5 -90.5t-251 -27h-29q-148 0 -251 27t-175.5 90.5t-106.5 169t-34 259.5zM299 526q0 -217 84 -304t297 -87h29 q213 0 297 87t84 304v420q0 218 -84 305.5t-297 87.5h-29q-213 0 -297 -87.5t-84 -305.5v-420z" />
<glyph unicode="P" horiz-adv-x="1185" d="M135 0v1473h494q107 0 182.5 -11t138.5 -40t100.5 -78.5t57.5 -126.5t20 -185q0 -107 -20 -183.5t-57.5 -126t-100.5 -78t-138.5 -39.5t-182.5 -11h-312v-594h-182zM317 745h312q94 0 150 11.5t94 44t52.5 87t14.5 144.5t-14.5 144.5t-52.5 87t-94 44t-150 11.5h-312 v-574z" />
<glyph unicode="Q" horiz-adv-x="1388" d="M113 526v420q0 156 33 261.5t105 169t175 90t254 26.5h29q148 0 251 -27.5t175.5 -91t106.5 -169t34 -259.5v-420q0 -283 -118.5 -406.5t-375.5 -137.5v-43q0 -100 26.5 -137.5t94.5 -37.5q38 0 146 23l28 -145q-119 -29 -188 -29q-156 0 -218.5 73t-62.5 261v35 q-258 12 -376.5 136t-118.5 408zM299 526q0 -217 84 -304t297 -87h29q213 0 297 87t84 304v420q0 218 -84 305.5t-297 87.5h-29q-213 0 -297 -87.5t-84 -305.5v-420z" />
<glyph unicode="R" horiz-adv-x="1226" d="M135 0v1473h494q107 0 182.5 -11t138.5 -40t100.5 -78.5t57.5 -126.5t20 -185q0 -206 -73 -302.5t-232 -123.5l307 -606h-196l-291 594h-326v-594h-182zM317 745h312q94 0 150 11.5t94 44t52.5 87t14.5 144.5t-14.5 144.5t-52.5 87t-94 44t-150 11.5h-312v-574z" />
<glyph unicode="S" horiz-adv-x="1056" d="M84 45l37 148q209 -66 364 -66q306 0 306 252q0 60 -37 112t-96.5 91.5t-131.5 78.5t-144 83.5t-131.5 96t-96.5 126t-37 163.5q0 85 29.5 150.5t75.5 105t109.5 64.5t124.5 34t128 9q171 0 364 -55l-35 -150q-180 58 -313 58q-134 0 -216.5 -52t-82.5 -157 q0 -61 37 -113t96.5 -92t131.5 -79t144 -84t131.5 -96.5t96.5 -126t37 -163.5q0 -88 -26 -157.5t-70 -115t-105.5 -75.5t-129 -42.5t-144.5 -12.5q-134 0 -218 15t-198 50z" />
<glyph unicode="T" horiz-adv-x="1097" d="M14 1319v154h1069v-154h-442v-1319h-182v1319h-445z" />
<glyph unicode="U" horiz-adv-x="1361" d="M123 551v922h182v-924q0 -226 83 -321t286 -95h16q202 0 285.5 95.5t83.5 320.5v924h182v-922q0 -160 -33.5 -270.5t-104 -176.5t-171 -95t-242.5 -29h-16q-143 0 -243 29t-170.5 95t-104 176.5t-33.5 270.5z" />
<glyph unicode="V" horiz-adv-x="1226" d="M35 1473h196l381 -1242l381 1242h197l-504 -1493h-147z" />
<glyph unicode="W" horiz-adv-x="2002" d="M35 1473h194l340 -1211l359 1225h143l365 -1225l338 1211h194l-467 -1485h-141l-359 1179l-358 -1179h-141z" />
<glyph unicode="X" horiz-adv-x="1146" d="M43 0l410 743l-406 730h197l329 -596l328 596h199l-408 -730l412 -743h-201l-330 602l-329 -602h-201z" />
<glyph unicode="Y" horiz-adv-x="1167" d="M29 1475h202l355 -723l350 723h201l-461 -883v-592h-182v592z" />
<glyph unicode="Z" horiz-adv-x="1107" d="M35 0v154l788 1165h-731v154h950v-154l-788 -1165h815v-154h-1034z" />
<glyph unicode="[" horiz-adv-x="477" d="M133 -338v1899h326v-146h-152v-1608h152v-145h-326z" />
<glyph unicode="\" horiz-adv-x="827" d="M6 1591h172l662 -1632h-172z" />
<glyph unicode="]" horiz-adv-x="473" d="M133 -193h154v1608h-154v146h326v-1899h-326v145z" />
<glyph unicode="^" horiz-adv-x="1044" d="M61 807l478 590l475 -590h-201l-274 364l-277 -364h-201z" />
<glyph unicode="_" horiz-adv-x="1286" d="M135 12h1016v-157h-1016v157z" />
<glyph unicode="`" horiz-adv-x="456" d="M-43 1507l205 27l225 -311l-137 -15z" />
<glyph unicode="a" horiz-adv-x="989" d="M76 319q0 57 5.5 100.5t22 88t44.5 73t76.5 46.5t113.5 18q188 0 356 -78v162q0 127 -49 182.5t-168 55.5q-96 0 -284 -49l-35 126q184 62 344 62q198 0 281 -96t83 -281v-606q0 -40 -57 -69.5t-143.5 -44.5t-166 -22t-145.5 -7q-70 0 -121 18t-81 46.5t-47.5 74.5 t-23 92t-5.5 108zM250 317q0 -53 6 -90.5t21 -68.5t43.5 -46.5t70.5 -15.5q113 0 208 17t95 47v289q0 30 -107.5 55.5t-195.5 25.5q-78 0 -109.5 -55t-31.5 -158z" />
<glyph unicode="b" horiz-adv-x="1038" d="M129 141v1385h172v-539q147 119 377 119q49 0 88 -10.5t64.5 -27.5t44 -46t28.5 -56.5t15 -70t6.5 -75.5t1.5 -83v-381q0 -51 -1.5 -84.5t-7 -77t-16 -71.5t-30 -57.5t-47 -46.5t-68.5 -28t-94 -11q-145 0 -270.5 24.5t-194 61.5t-68.5 75zM301 207q0 -34 101.5 -66 t232.5 -32q28 0 48.5 8.5t33.5 27t20.5 37.5t11 51t4.5 56.5t1 64.5v383q0 39 -1 63t-4.5 56t-11 50.5t-20.5 36.5t-33.5 26t-48.5 8q-125 0 -215 -29t-119 -67v-674z" />
<glyph unicode="c" horiz-adv-x="833" d="M106 432v217q0 113 18.5 194t62 142t120.5 91t189 30q140 0 258 -33l-27 -127q-122 23 -207 23q-76 0 -125.5 -22.5t-74 -68.5t-33 -98.5t-8.5 -130.5v-217q0 -62 5 -106t20 -86.5t41 -68.5t70 -42t105 -16q91 0 207 22l27 -127q-118 -33 -258 -33q-112 0 -189 30 t-120.5 91t-62 142t-18.5 194z" />
<glyph unicode="d" horiz-adv-x="1036" d="M119 356v381q0 50 1.5 83t6.5 75.5t15 70t28.5 56.5t44 46t64.5 27.5t88 10.5q229 0 376 -119v539h172v-1385q0 -38 -68.5 -75t-193.5 -61.5t-270 -24.5q-53 0 -94 11t-68.5 28t-47 46.5t-30 57.5t-16 71.5t-7 77t-1.5 84.5zM291 354q0 -40 1 -64.5t4.5 -56.5t11 -51 t20.5 -37.5t33.5 -27t48.5 -8.5q131 0 232 32t101 66v674q-30 38 -119 67t-214 29q-28 0 -48.5 -8t-33.5 -26t-20.5 -36.5t-11 -50.5t-4.5 -56t-1 -63v-383z" />
<glyph unicode="e" horiz-adv-x="993" d="M106 436v195q0 115 18 196.5t53 136t95 85.5t136 44t184 13q76 0 132 -17t88.5 -44.5t51.5 -70t25 -85t6 -98.5v-129q0 -40 -30.5 -72.5t-98.5 -60.5t-191.5 -44.5t-295.5 -17.5v-47q0 -53 5 -93.5t21 -82t43.5 -68t74.5 -43t112 -16.5q176 0 333 61l35 -125 q-65 -27 -169.5 -50t-198.5 -23q-123 0 -207 29.5t-132.5 89.5t-69 141.5t-20.5 195.5zM279 561q450 11 450 125v102q0 95 -24 142t-97 47q-87 0 -144.5 -11.5t-101 -41.5t-63.5 -84.5t-20 -137.5v-141z" />
<glyph unicode="f" horiz-adv-x="616" d="M25 946v139h165v58q0 231 84 319q66 70 203 70q34 0 72 -4q73 -6 139 -31l-37 -119q-82 27 -139 27q-40 0 -67 -12t-43 -31.5t-24 -55.5t-10.5 -71.5t-2.5 -91.5v-58h233v-139h-233v-946h-175v946h-165z" />
<glyph unicode="g" horiz-adv-x="1038" d="M113 356v373q0 51 1.5 85t7 77t16 71t30 58t47 47t68.5 28t94 11q146 0 270.5 -25.5t193 -64.5t68.5 -80v-985q0 -78 -4 -132.5t-14.5 -105t-29 -82t-48.5 -55.5t-73 -34.5t-101 -10.5q-82 0 -170.5 15t-150 31.5t-173.5 51.5l43 127q277 -86 426 -86q29 0 50 8t34.5 27 t21.5 39t11.5 57.5t4.5 67.5t1 82v147q-146 -118 -377 -118q-49 0 -87.5 11t-64.5 28t-44 46.5t-28 57.5t-15.5 71.5t-6.5 77t-1 84.5zM285 348q0 -48 1 -75.5t7.5 -63.5t18.5 -54.5t35 -32t56 -13.5q125 0 215 29t119 67v674q0 34 -101.5 66t-232.5 32q-28 0 -48.5 -9 t-33 -30t-20.5 -41.5t-11 -56.5t-4 -62.5t-1 -70.5v-359z" />
<glyph unicode="h" horiz-adv-x="1052" d="M129 0v1526h172v-539q147 119 377 119q49 0 88 -11t64.5 -28t44 -46.5t28.5 -58t15 -71.5t6.5 -77t1.5 -85v-729h-172v737q0 39 -1 62.5t-4.5 55.5t-11 50.5t-20.5 37t-33.5 26.5t-48.5 8q-120 0 -209.5 -31.5t-124.5 -64.5v-881h-172z" />
<glyph unicode="i" horiz-adv-x="493" d="M119 244v841h174v-835q0 -133 92 -133q47 0 92 18l29 -123q-88 -32 -160 -32q-104 0 -165.5 63.5t-61.5 200.5zM123 1296v230h170v-230h-170z" />
<glyph unicode="j" horiz-adv-x="385" d="M-207 -428l43 127q105 -31 156 -31q63 0 91 53.5t28 188.5v1175h174v-1175q0 -200 -65 -289.5t-212 -89.5q-87 0 -215 41zM113 1296v230h172v-230h-172z" />
<glyph unicode="k" horiz-adv-x="944" d="M135 0v1526h174v-940l408 499h194l-436 -516l459 -569h-197l-428 551v-551h-174z" />
<glyph unicode="l" horiz-adv-x="493" d="M119 244v1282h174v-1276q0 -131 92 -131q29 0 92 18l29 -125q-88 -32 -160 -32q-104 0 -165.5 63.5t-61.5 200.5z" />
<glyph unicode="m" horiz-adv-x="1579" d="M131 0v911q0 28 37.5 61.5t100 63.5t154.5 50t189 20q170 0 228 -115q175 115 344 115q52 0 93 -11t68.5 -28t47 -46.5t30.5 -58t16.5 -71.5t7 -77t1.5 -85v-729h-174v729q0 41 -1 63.5t-4 55t-10.5 50.5t-20 36.5t-33 26.5t-48.5 8q-112 0 -196 -34t-84 -71v-864h-175 v784q-2 44 -6.5 73.5t-16.5 57t-35 41t-58 13.5q-112 0 -196.5 -34t-84.5 -71v-864h-174z" />
<glyph unicode="n" horiz-adv-x="1054" d="M127 0v911q0 28 41.5 61.5t110.5 63.5t171.5 50t211.5 20q52 0 93 -11t68.5 -28t47 -46.5t30.5 -58t16.5 -71.5t7 -77t1.5 -85v-729h-174v729q0 46 -1.5 75t-8 64t-18.5 54.5t-35 33t-56 13.5q-134 0 -233 -32t-99 -71v-866h-174z" />
<glyph unicode="o" d="M113 297v491q0 164 98 241t305 77q208 0 307 -77t99 -241v-491q0 -164 -99 -240.5t-307 -76.5q-207 0 -305 76.5t-98 240.5zM285 299q0 -93 54.5 -141.5t176.5 -48.5q234 0 234 190v489q0 94 -55.5 141.5t-178.5 47.5q-122 0 -176.5 -47.5t-54.5 -141.5v-489z" />
<glyph unicode="p" horiz-adv-x="1038" d="M129 -440v1351q0 31 41.5 65t110.5 63t170.5 48t210.5 19q53 0 94 -11t68.5 -28.5t47 -47.5t30 -58.5t16 -72.5t7 -78.5t1.5 -86.5v-375q0 -50 -1.5 -83t-6.5 -75.5t-15 -70t-28.5 -56.5t-44 -45.5t-64.5 -27t-88 -10.5q-231 0 -377 118v-538h-172zM301 205 q29 -38 119 -67t215 -29q28 0 48.5 8t33.5 26t20.5 36.5t11 50t4.5 55.5t1 63v375q0 41 -1 66.5t-4.5 59t-11 53t-20.5 39t-33.5 28t-48.5 8.5q-131 0 -232.5 -32t-101.5 -66v-674z" />
<glyph unicode="q" d="M104 356v373q0 51 1.5 85t7 77t16 71.5t30 58t47.5 46.5t69 28t94 11q109 0 210.5 -19t170.5 -48t110 -63t41 -65v-1351h-172v538q-146 -118 -377 -118q-49 0 -88 11t-64.5 28t-44 46.5t-28.5 57.5t-15 71t-6.5 77t-1.5 85zM276 348q0 -39 1 -63t4.5 -55.5t11 -50 t20.5 -36.5t33.5 -26t48.5 -8q126 0 216 29t118 67v674q0 34 -101 66t-233 32q-28 0 -48.5 -9.5t-33.5 -30t-20.5 -41.5t-11 -56.5t-4.5 -62t-1 -70.5v-359z" />
<glyph unicode="r" horiz-adv-x="657" d="M127 0v911q0 25 34 58.5t89.5 64t138.5 51.5t170 21q58 0 94 -8l-22 -146q-43 9 -92 9q-92 0 -165 -32.5t-73 -62.5v-866h-174z" />
<glyph unicode="s" horiz-adv-x="802" d="M35 45l33 133q164 -61 301 -61q213 0 213 164q0 39 -22.5 71.5t-59 54.5t-83.5 45.5t-95.5 44t-95.5 50.5t-83.5 64t-59 86.5t-22.5 115.5q0 70 22.5 123.5t57.5 84.5t84 51t95.5 27t97.5 7q89 0 147 -9.5t152 -35.5l-33 -133q-152 41 -256 41q-90 0 -144.5 -35.5 t-54.5 -104.5q0 -45 29 -80.5t75 -60.5t102 -49.5t111.5 -54.5t101.5 -66t75 -93t29 -128q0 -76 -20.5 -133.5t-54 -91.5t-83.5 -55.5t-101.5 -29t-115.5 -7.5q-103 0 -175 15.5t-167 49.5z" />
<glyph unicode="t" horiz-adv-x="647" d="M45 946v139h123v234h174v-234h256v-139h-256v-700q0 -111 84 -111q71 0 186 47l41 -141q-153 -61 -258 -61t-166 60.5t-61 190.5v715h-123z" />
<glyph unicode="u" horiz-adv-x="1052" d="M129 356v729h174v-729q0 -41 1 -64t4 -56.5t10.5 -52t20 -38t33 -28t48.5 -8.5q134 0 234 32t100 70v874h174v-940q0 -37 -68.5 -75t-194.5 -64t-272 -26q-52 0 -93 11t-68.5 28t-47 46.5t-30.5 57.5t-16.5 71t-7 77t-1.5 85z" />
<glyph unicode="v" horiz-adv-x="886" d="M25 1085h184l233 -878l234 878h186l-348 -1097h-147z" />
<glyph unicode="w" horiz-adv-x="1419" d="M49 1085h182l195 -862l207 875h153l220 -875l182 862h182l-301 -1097h-149l-209 856l-211 -856h-150z" />
<glyph unicode="x" horiz-adv-x="913" d="M18 0l324 543l-299 542h182l234 -442l229 442h180l-288 -540l315 -545h-182l-254 446l-256 -446h-185z" />
<glyph unicode="y" horiz-adv-x="1054" d="M127 348v737h174v-737q0 -41 1 -63.5t4 -55t10.5 -50.5t20 -36t33 -26t48.5 -8q126 0 216 29t118 67v880h174v-1134q0 -93 -6 -156t-23 -117t-47 -84t-78 -46.5t-117 -16.5q-82 0 -170.5 15t-149 31.5t-173.5 51.5l43 127q277 -86 426 -86q29 0 49.5 8t34 27t21 39 t11 57.5t4.5 67.5t1 82v147q-146 -118 -377 -118q-49 0 -87 10.5t-64 27.5t-44.5 45.5t-28.5 56.5t-15.5 69.5t-7 75.5t-1.5 83z" />
<glyph unicode="z" horiz-adv-x="837" d="M35 0v135l567 815h-524v135h713v-133l-566 -817h582v-135h-772z" />
<glyph unicode="{" horiz-adv-x="526" d="M18 543v125q45 0 78.5 19t51.5 47t28.5 69.5t13.5 76.5t3 78q0 39 -7.5 158t0.5 150q14 134 90 206t234 72v-108q-74 0 -114 -54.5t-40 -158.5q0 -42 6.5 -126t6.5 -139q0 -254 -133 -354q133 -98 133 -352q0 -57 -6.5 -140t-6.5 -124q0 -104 40 -158.5t114 -54.5v-109 q-158 0 -234 72.5t-90 206.5q-8 31 -0.5 148.5t7.5 158.5q0 282 -164 291h-11z" />
<glyph unicode="|" horiz-adv-x="409" d="M135 -408v1950h160v-1950h-160z" />
<glyph unicode="}" horiz-adv-x="557" d="M18 -225q74 0 114 54.5t40 158.5q0 41 -7 124t-7 140q0 252 133 352q-133 100 -133 354q0 55 7 139t7 126q0 104 -40 158.5t-114 54.5v108q158 0 234 -72t90 -206q6 -60 -1 -163.5t-7 -144.5q0 -44 2.5 -78.5t13.5 -76t29 -69.5t51.5 -47t79.5 -19v-125 q-46 0 -79.5 -19.5t-51.5 -47.5t-29 -70t-13.5 -76.5t-2.5 -77.5q0 -42 7 -144.5t1 -162.5q-14 -134 -90 -206.5t-234 -72.5v109z" />
<glyph unicode="~" horiz-adv-x="1075" d="M96 502q40 91 104.5 145.5t135.5 63.5q53 5 106.5 -13t91 -42.5t88.5 -46t97 -21.5q43 0 73 24.5t62 79.5l119 -57q-35 -107 -108 -160t-158 -53q-49 0 -100 20t-87 43.5t-82 43.5t-86 20t-70.5 -26t-62.5 -81z" />
<glyph unicode="&#xa1;" horiz-adv-x="387" d="M121 -408v1106h172v-1106h-172zM121 856v244h172v-244h-172z" />
<glyph unicode="&#xa2;" horiz-adv-x="753" d="M49 395v291q0 371 326 416v233h157v-231q107 -12 183 -31l-31 -143q-110 26 -203 26q-140 0 -199 -76.5t-59 -250.5v-176q0 -170 58 -251t186 -81q70 0 217 31l31 -144q-92 -23 -183 -31v-215h-157v218q-170 21 -248 124t-78 291z" />
<glyph unicode="&#xa3;" horiz-adv-x="1030" d="M66 0v152q264 129 264 372q0 25 -13 131h-211v146h185q-25 175 -25 254v61q0 110 36 189.5t101.5 125t148 66.5t185.5 21q71 0 285 -37l-29 -146q-10 1 -54 8t-58.5 8.5t-52 6t-59.5 5t-53 -0.5t-59 -4q-94 -12 -152.5 -70t-58.5 -172v-61q0 -95 31 -254h297v-146h-268 q12 -90 12 -129q0 -60 -8.5 -107t-30 -96t-64 -91.5t-106.5 -77.5h729v-154h-972z" />
<glyph unicode="&#xa4;" horiz-adv-x="1306" d="M115 991l86 82l55 51l119 -112q141 84 280 84q145 0 281 -84l115 110l141 -135l-117 -115q80 -132 80 -264q0 -127 -82 -272l119 -115l-141 -135l-115 113q-136 -84 -283 -84q-142 0 -278 86l-117 -115l-141 135l119 115q-86 141 -86 270q0 137 86 268zM299 606 q0 -139 105.5 -242.5t248.5 -103.5q148 0 251.5 101.5t103.5 246.5q0 141 -104 241.5t-249 100.5q-146 0 -251 -99.5t-105 -244.5z" />
<glyph unicode="&#xa5;" horiz-adv-x="1167" d="M29 1475h202l355 -723l350 723h201l-414 -791h303v-147h-350v-121h350v-148h-350v-268h-182v268h-347v148h347v121h-344v147h294z" />
<glyph unicode="&#xa6;" horiz-adv-x="409" d="M135 389h160v-797h-160v797zM135 741v785h160v-785h-160z" />
<glyph unicode="&#xa7;" horiz-adv-x="800" d="M37 -82l33 135q149 -49 290 -49q224 0 224 162q0 38 -22.5 69t-59 53t-83.5 45.5t-95.5 44.5t-95.5 51.5t-83.5 65.5t-59 87.5t-22.5 115.5q0 177 142 248q-142 101 -142 254q0 70 22.5 123.5t58 84.5t84.5 51t95.5 27t98.5 7q86 0 141.5 -9t147.5 -34l-33 -135 q-122 39 -248 39q-91 0 -144 -34t-53 -103q0 -38 22.5 -69.5t59 -54t83.5 -46t95.5 -44.5t95.5 -52t83.5 -65.5t59 -86.5t22.5 -115q0 -178 -133 -256q133 -96 133 -246q0 -69 -21 -124t-57 -90.5t-86 -59t-104.5 -33.5t-116.5 -10q-73 0 -133 7.5t-95 16t-104 29.5z M233 715q0 -27 12.5 -51.5t28 -41t49 -36.5t54 -30.5t65.5 -31.5q11 -5 17 -8q125 30 125 152q0 32 -14.5 58t-46 48.5t-59.5 37.5t-77 38q-154 -17 -154 -135z" />
<glyph unicode="&#xa8;" horiz-adv-x="835" d="M137 1208v244h170v-244h-170zM530 1208v244h170v-244h-170z" />
<glyph unicode="&#xa9;" horiz-adv-x="1714" d="M66 717q0 145 44 268t120 210t177 148t215 90t234 29t234 -29t215 -90.5t177 -148t120.5 -209.5t44.5 -268t-44.5 -268.5t-120.5 -210.5t-177 -148.5t-215 -91t-234 -29.5t-234 29.5t-215 91t-177 148.5t-120 210.5t-44 268.5zM182 717q0 -126 37.5 -233t102 -182.5 t150.5 -129t183.5 -79t200.5 -25.5q129 0 248 41.5t215 120t153.5 205t57.5 282.5q0 126 -37.5 233t-102 182t-151 128t-183.5 78.5t-200 25.5t-200.5 -25.5t-183.5 -78.5t-150.5 -128t-102 -182t-37.5 -233zM500 600v203q0 105 17 180t57 132t111.5 84.5t176.5 27.5 q130 0 240 -29l-25 -119q-119 21 -192 21q-71 0 -117 -20.5t-69.5 -63t-31.5 -91.5t-8 -122v-203q0 -72 8.5 -121t31 -91.5t69 -63.5t117.5 -21q73 0 192 21l25 -117q-103 -31 -240 -31q-105 0 -176.5 27.5t-111.5 84.5t-57 132t-17 180z" />
<glyph unicode="&#xaa;" horiz-adv-x="917" d="M88 899q0 52 7 90.5t26 73.5t58 53.5t97 18.5q139 0 259 -56v117q0 92 -35.5 132t-120.5 40q-67 0 -207 -35l-25 92q142 43 248 43q144 0 204 -68.5t60 -203.5v-440q0 -37 -72.5 -62t-151 -33t-146.5 -8q-62 0 -103.5 18.5t-62 54.5t-28 76t-7.5 97zM213 897 q0 -78 22 -119t80 -41q83 0 151.5 12t68.5 35v209q0 22 -78.5 41t-141.5 19q-56 0 -79 -40.5t-23 -115.5z" />
<glyph unicode="&#xab;" horiz-adv-x="985" d="M55 575l391 451l113 -98l-293 -353l293 -352l-113 -100zM428 575l391 451l113 -98l-293 -353l293 -352l-113 -100z" />
<glyph unicode="&#xac;" horiz-adv-x="1157" d="M6 670v155h1018v-553h-162v398h-856z" />
<glyph unicode="&#xad;" horiz-adv-x="757" d="M135 516v164h490v-164h-490z" />
<glyph unicode="&#xae;" horiz-adv-x="1714" d="M66 717q0 145 44 268t120 210t177 148t215 90t234 29t234 -29t215 -90.5t177 -148t120.5 -209.5t44.5 -268t-44.5 -268.5t-120.5 -210.5t-177 -148.5t-215 -91t-234 -29.5t-234 29.5t-215 91t-177 148.5t-120 210.5t-44 268.5zM182 717q0 -126 37.5 -233t102 -182.5 t150.5 -129t183.5 -79t200.5 -25.5q129 0 248 41.5t215 120t153.5 205t57.5 282.5q0 126 -37.5 233t-102 182t-151 128t-183.5 78.5t-200 25.5t-200.5 -25.5t-183.5 -78.5t-150.5 -128t-102 -182t-37.5 -233zM537 240v968h340q94 0 155.5 -13t106 -47t64.5 -93.5t20 -151.5 q0 -134 -46 -200.5t-145 -88.5l201 -374h-176l-180 360h-185v-360h-155zM692 731h185q105 0 144.5 35.5t39.5 136.5q0 102 -40 139t-144 37h-185v-348z" />
<glyph unicode="&#xaf;" horiz-adv-x="794" d="M135 1208v133h527v-133h-527z" />
<glyph unicode="&#xb0;" horiz-adv-x="587" d="M68 1405q0 92 64 149.5t159 57.5t159 -57.5t64 -149.5t-63.5 -148.5t-159.5 -56.5t-159.5 56.5t-63.5 148.5zM180 1405q0 -48 32.5 -76.5t78.5 -28.5t78 28.5t32 76.5t-32 77t-78 29t-78.5 -29t-32.5 -77z" />
<glyph unicode="&#xb1;" horiz-adv-x="1042" d="M10 580v153h430v420h160v-420h422v-153h-422v-422h-160v422h-430zM14 61h1016v-157h-1016v157z" />
<glyph unicode="&#xb2;" horiz-adv-x="894" d="M66 819v154q296 229 338 263q176 145 218 230q19 37 19 70q0 76 -53 120t-168 44q-151 0 -297 -49l-27 143q75 26 170 41.5t170 15.5q195 0 292 -73t97 -236q0 -31 -8.5 -62t-20 -58t-37.5 -60.5t-46 -58t-61.5 -62t-68 -61t-82 -66.5t-87 -67t-97.5 -74h523v-154h-774z " />
<glyph unicode="&#xb3;" horiz-adv-x="821" d="M29 838l26 147q174 -29 291 -29q50 0 87.5 5t74 17.5t56.5 39.5t20 67v58q0 39 -15 65.5t-44 40t-60.5 18.5t-73.5 5h-96l-21 149h105q186 0 186 123v33q0 67 -44.5 95t-162.5 28q-92 0 -284 -29l-29 141q188 39 320 39q189 0 282.5 -61t93.5 -213v-33q0 -84 -38 -128 t-117 -64q79 -12 126.5 -66.5t47.5 -142.5v-58q0 -280 -414 -280q-142 0 -317 33z" />
<glyph unicode="&#xb4;" horiz-adv-x="458" d="M133 1208l238 389h215l-295 -389h-158z" />
<glyph unicode="&#xb6;" horiz-adv-x="1124" d="M41 1104q0 185 121 300.5t317 115.5h486v-1758h-170v1612h-158v-1612h-170v930q-193 11 -309.5 122t-116.5 290z" />
<glyph unicode="&#xb7;" horiz-adv-x="890" d="M135 498v243h172v-243h-172z" />
<glyph unicode="&#xb8;" horiz-adv-x="546" d="M59 -383l35 64q25 -16 67 -23.5t84.5 -4t73.5 28.5t31 70q0 101 -172 101l86 165h82l-67 -114q77 -2 137.5 -41.5t60.5 -108.5q0 -56 -31 -96t-79 -57t-104.5 -21t-110.5 6.5t-93 30.5z" />
<glyph unicode="&#xb9;" horiz-adv-x="456" d="M119 1681v154h270v-1016h-180v862h-90z" />
<glyph unicode="&#xba;" horiz-adv-x="587" d="M68 1405q0 92 64 149.5t159 57.5t159 -57.5t64 -149.5t-63.5 -148.5t-159.5 -56.5t-159.5 56.5t-63.5 148.5zM180 1405q0 -48 32.5 -76.5t78.5 -28.5t78 28.5t32 76.5t-32 77t-78 29t-78.5 -29t-32.5 -77z" />
<glyph unicode="&#xbb;" horiz-adv-x="985" d="M55 223l291 352l-291 353l113 98l391 -451l-391 -452zM428 223l291 352l-291 353l113 98l391 -451l-391 -452z" />
<glyph unicode="&#xbc;" horiz-adv-x="2031" d="M55 1247v154h271v-1016h-181v862h-90zM463 -20l616 1515h185l-619 -1515h-182zM1169 193v151l527 672h213l-535 -672h320v207h172v-207h129v-151h-129v-193h-172v193h-525z" />
<glyph unicode="&#xbd;" horiz-adv-x="2074" d="M55 1247v154h271v-1016h-181v862h-90zM465 -20l614 1515h185l-615 -1515h-184zM1262 0v154q296 229 338 263q176 145 218 230q19 37 19 70q0 76 -53 120t-168 44q-149 0 -297 -50l-27 144q75 26 170 41.5t170 15.5q195 0 292 -73t97 -236q0 -31 -8.5 -62t-20 -58 t-37.5 -60.5t-46 -58t-61.5 -62t-68 -61t-82 -66.5t-87 -67t-97.5 -74h523v-154h-774z" />
<glyph unicode="&#xbe;" horiz-adv-x="2308" d="M35 403l26 148q174 -29 291 -29q50 0 87.5 5t74 17.5t56.5 39.5t20 67v58q0 39 -15 65.5t-44 40t-60.5 18.5t-73.5 5h-96l-20 149h104q186 0 186 123v33q0 67 -44 95t-162 28q-93 0 -285 -29l-29 141q188 39 320 39q189 0 283 -61t94 -213v-33q0 -84 -38.5 -128 t-117.5 -64q79 -12 126.5 -66.5t47.5 -142.5v-58q0 -280 -414 -280q-147 0 -317 32zM780 -20l619 1515h184l-618 -1515h-185zM1438 193v151l526 672h213l-535 -672h320v207h172v-207h129v-151h-129v-193h-172v193h-524z" />
<glyph unicode="&#xbf;" horiz-adv-x="765" d="M-10 -37q0 75 36.5 148t88 132t103 117t88 127.5t36.5 139.5v98h172v-98q0 -69 -25.5 -135.5t-63.5 -116.5t-83 -104t-83 -99t-63.5 -100t-25.5 -109q0 -123 62 -166t192 -43q166 0 291 39l30 -145q-4 -1 -57 -13.5t-80 -18t-80.5 -11.5t-103.5 -6q-80 0 -141 8 t-118.5 31.5t-94 63.5t-58.5 105.5t-22 155.5zM344 885v219h170v-219h-170z" />
<glyph unicode="&#xc0;" horiz-adv-x="1228" d="M37 0l504 1473h145l506 -1473h-197l-116 381h-531l-117 -381h-194zM250 1876l205 27l225 -312l-137 -14zM395 535h436l-217 718z" />
<glyph unicode="&#xc1;" horiz-adv-x="1228" d="M37 0l504 1473h145l506 -1473h-197l-116 381h-531l-117 -381h-194zM395 535h436l-217 718zM530 1577l238 389h215l-295 -389h-158z" />
<glyph unicode="&#xc2;" horiz-adv-x="1228" d="M37 0l504 1473h145l506 -1473h-197l-116 381h-531l-117 -381h-194zM322 1610l292 280l295 -280l-45 -54l-250 148l-247 -148zM395 535h436l-217 718z" />
<glyph unicode="&#xc3;" horiz-adv-x="1228" d="M37 0l504 1473h145l506 -1473h-197l-116 381h-531l-117 -381h-194zM317 1616q55 114 166 137q51 6 89.5 -9t76 -33t80.5 -17q55 -3 102 61l93 -41q-32 -67 -79.5 -102.5t-92.5 -42.5q-50 -6 -88 9t-75.5 33t-80.5 17q-30 3 -51 -11t-45 -50zM395 535h436l-217 718z" />
<glyph unicode="&#xc4;" horiz-adv-x="1228" d="M37 0l504 1473h145l506 -1473h-197l-116 381h-531l-117 -381h-194zM332 1577v244h170v-244h-170zM395 535h436l-217 718zM725 1577v244h170v-244h-170z" />
<glyph unicode="&#xc5;" horiz-adv-x="1228" d="M37 0l504 1473h145l506 -1473h-197l-116 381h-531l-117 -381h-194zM391 1774q0 92 63.5 149t159.5 57t160 -57t64 -149t-64 -148.5t-160 -56.5t-159.5 56.5t-63.5 148.5zM395 535h436l-217 718zM504 1774q0 -48 32 -76.5t78 -28.5t78.5 28.5t32.5 76.5t-32.5 77t-78.5 29 t-78 -29t-32 -77z" />
<glyph unicode="&#xc6;" horiz-adv-x="2015" d="M33 0l928 1473h960v-154h-696v-485h645v-156h-645v-524h696v-154h-879v369h-585l-230 -369h-194zM553 522h489v785z" />
<glyph unicode="&#xc7;" horiz-adv-x="1105" d="M113 526v422q0 154 34.5 259t108 168t178 90.5t254.5 27.5h25q174 0 325 -53l-34 -146q-149 45 -291 45h-25q-219 0 -304 -86.5t-85 -304.5v-422q0 -218 85 -304.5t304 -86.5h25q128 0 291 43l34 -143q-148 -55 -325 -55h-17l-39 -68q77 -2 138 -41.5t61 -108.5 q0 -56 -31 -96t-79 -57t-104.5 -21t-110.5 6.5t-93 30.5l35 64q25 -16 67 -23.5t84.5 -4t73.5 28.5t31 70q0 101 -172 101l61 121q-176 7 -284.5 61t-164.5 172t-56 311z" />
<glyph unicode="&#xc8;" horiz-adv-x="1107" d="M135 0v1473h879v-154h-697v-485h646v-156h-646v-524h697v-154h-879zM229 1876l205 27l225 -312l-137 -14z" />
<glyph unicode="&#xc9;" horiz-adv-x="1107" d="M135 0v1473h879v-154h-697v-485h646v-156h-646v-524h697v-154h-879zM508 1577l237 389h216l-295 -389h-158z" />
<glyph unicode="&#xca;" horiz-adv-x="1107" d="M135 0v1473h879v-154h-697v-485h646v-156h-646v-524h697v-154h-879zM299 1610l293 280l295 -280l-45 -54l-250 148l-248 -148z" />
<glyph unicode="&#xcb;" horiz-adv-x="1107" d="M135 0v1473h879v-154h-697v-485h646v-156h-646v-524h697v-154h-879zM311 1577v244h170v-244h-170zM705 1577v244h169v-244h-169z" />
<glyph unicode="&#xcc;" horiz-adv-x="452" d="M-139 1876l205 27l225 -312l-137 -14zM135 0v1473h182v-1473h-182z" />
<glyph unicode="&#xcd;" horiz-adv-x="452" d="M135 0v1473h182v-1473h-182zM141 1577l238 389h215l-295 -389h-158z" />
<glyph unicode="&#xce;" horiz-adv-x="452" d="M-68 1610l293 280l295 -280l-45 -54l-250 148l-248 -148zM135 0v1473h182v-1473h-182z" />
<glyph unicode="&#xcf;" horiz-adv-x="452" d="M-57 1577v244h170v-244h-170zM135 0v1473h182v-1473h-182zM336 1577v244h170v-244h-170z" />
<glyph unicode="&#xd0;" horiz-adv-x="1361" d="M20 645v162h156v666h529q163 0 268 -29.5t166.5 -98.5t85.5 -166.5t24 -248.5v-387q0 -156 -26.5 -257.5t-91 -166.5t-166.5 -92t-260 -27h-529v645h-156zM358 154h322q115 0 190 23t116.5 74t58 119t16.5 171v391q0 103 -16.5 171t-58 119t-116.5 74t-190 23h-322v-512 h150v-162h-150v-491z" />
<glyph unicode="&#xd1;" horiz-adv-x="1323" d="M135 0v1473h178l699 -1170v1170h178v-1473h-178l-699 1161v-1161h-178zM360 1616q55 114 166 137q51 6 89.5 -9t76 -33t80.5 -17q55 -3 102 61l93 -41q-32 -67 -79.5 -102.5t-92.5 -42.5q-50 -6 -88 9t-75.5 33t-80.5 17q-30 3 -51 -11t-45 -50z" />
<glyph unicode="&#xd2;" horiz-adv-x="1390" d="M113 526v420q0 156 33 261.5t105 169t175 90t254 26.5h29q148 0 251 -27.5t175.5 -91t106.5 -169t34 -259.5v-420q0 -154 -34 -259.5t-106.5 -169t-175.5 -90.5t-251 -27h-29q-148 0 -251 27t-175.5 90.5t-106.5 169t-34 259.5zM299 526q0 -217 84 -304t297 -87h29 q213 0 297 87t84 304v420q0 218 -84 305.5t-297 87.5h-29q-213 0 -297 -87.5t-84 -305.5v-420zM330 1876l205 27l225 -312l-137 -14z" />
<glyph unicode="&#xd3;" horiz-adv-x="1390" d="M113 526v420q0 156 33 261.5t105 169t175 90t254 26.5h29q148 0 251 -27.5t175.5 -91t106.5 -169t34 -259.5v-420q0 -154 -34 -259.5t-106.5 -169t-175.5 -90.5t-251 -27h-29q-148 0 -251 27t-175.5 90.5t-106.5 169t-34 259.5zM299 526q0 -217 84 -304t297 -87h29 q213 0 297 87t84 304v420q0 218 -84 305.5t-297 87.5h-29q-213 0 -297 -87.5t-84 -305.5v-420zM610 1577l238 389h215l-295 -389h-158z" />
<glyph unicode="&#xd4;" horiz-adv-x="1390" d="M113 526v420q0 156 33 261.5t105 169t175 90t254 26.5h29q148 0 251 -27.5t175.5 -91t106.5 -169t34 -259.5v-420q0 -154 -34 -259.5t-106.5 -169t-175.5 -90.5t-251 -27h-29q-148 0 -251 27t-175.5 90.5t-106.5 169t-34 259.5zM299 526q0 -217 84 -304t297 -87h29 q213 0 297 87t84 304v420q0 218 -84 305.5t-297 87.5h-29q-213 0 -297 -87.5t-84 -305.5v-420zM401 1610l293 280l295 -280l-45 -54l-250 148l-248 -148z" />
<glyph unicode="&#xd5;" horiz-adv-x="1390" d="M113 526v420q0 156 33 261.5t105 169t175 90t254 26.5h29q148 0 251 -27.5t175.5 -91t106.5 -169t34 -259.5v-420q0 -154 -34 -259.5t-106.5 -169t-175.5 -90.5t-251 -27h-29q-148 0 -251 27t-175.5 90.5t-106.5 169t-34 259.5zM299 526q0 -217 84 -304t297 -87h29 q213 0 297 87t84 304v420q0 218 -84 305.5t-297 87.5h-29q-213 0 -297 -87.5t-84 -305.5v-420zM397 1616q55 114 166 137q51 6 89.5 -9t76 -33t80.5 -17q55 -3 102 61l93 -41q-32 -67 -80 -102.5t-93 -42.5q-39 -5 -72.5 3.5t-53.5 21.5t-51 24t-66 10q-30 3 -51 -11 t-45 -50z" />
<glyph unicode="&#xd6;" horiz-adv-x="1390" d="M113 526v420q0 156 33 261.5t105 169t175 90t254 26.5h29q148 0 251 -27.5t175.5 -91t106.5 -169t34 -259.5v-420q0 -154 -34 -259.5t-106.5 -169t-175.5 -90.5t-251 -27h-29q-148 0 -251 27t-175.5 90.5t-106.5 169t-34 259.5zM299 526q0 -217 84 -304t297 -87h29 q213 0 297 87t84 304v420q0 218 -84 305.5t-297 87.5h-29q-213 0 -297 -87.5t-84 -305.5v-420zM412 1577v244h170v-244h-170zM805 1577v244h170v-244h-170z" />
<glyph unicode="&#xd7;" horiz-adv-x="1185" d="M102 172l383 373l-381 375l105 98l383 -373l385 373l106 -98l-383 -375l379 -371l-106 -100l-381 372l-385 -372z" />
<glyph unicode="&#xd8;" horiz-adv-x="1421" d="M121 526v420q0 156 33 261.5t105 169t175 90t254 26.5h29q105 0 182 -14l45 110h184l-65 -162q113 -57 167 -173t54 -308v-420q0 -154 -34 -259.5t-106.5 -169t-175.5 -90.5t-251 -27h-29q-107 0 -201 16l-41 -100h-184l62 155q-104 59 -153.5 174t-49.5 301zM307 526 q0 -221 86 -307l447 1112q-49 8 -123 8h-29q-213 0 -297 -87.5t-84 -305.5v-420zM547 145q68 -10 141 -10h29q213 0 297 87t84 304v420q0 234 -101 320z" />
<glyph unicode="&#xd9;" horiz-adv-x="1361" d="M123 551v922h182v-924q0 -226 83 -321t286 -95h16q202 0 285.5 95.5t83.5 320.5v924h182v-922q0 -160 -33.5 -270.5t-104 -176.5t-171 -95t-242.5 -29h-16q-143 0 -243 29t-170.5 95t-104 176.5t-33.5 270.5zM313 1876l205 27l225 -312l-137 -14z" />
<glyph unicode="&#xda;" horiz-adv-x="1361" d="M123 551v922h182v-924q0 -226 83 -321t286 -95h16q202 0 285.5 95.5t83.5 320.5v924h182v-922q0 -160 -33.5 -270.5t-104 -176.5t-171 -95t-242.5 -29h-16q-143 0 -243 29t-170.5 95t-104 176.5t-33.5 270.5zM594 1577l237 389h216l-295 -389h-158z" />
<glyph unicode="&#xdb;" horiz-adv-x="1361" d="M123 551v922h182v-924q0 -226 83 -321t286 -95h16q202 0 285.5 95.5t83.5 320.5v924h182v-922q0 -160 -33.5 -270.5t-104 -176.5t-171 -95t-242.5 -29h-16q-143 0 -243 29t-170.5 95t-104 176.5t-33.5 270.5zM385 1610l293 280l295 -280l-45 -54l-250 148l-248 -148z" />
<glyph unicode="&#xdc;" horiz-adv-x="1361" d="M123 551v922h182v-924q0 -226 83 -321t286 -95h16q202 0 285.5 95.5t83.5 320.5v924h182v-922q0 -160 -33.5 -270.5t-104 -176.5t-171 -95t-242.5 -29h-16q-143 0 -243 29t-170.5 95t-104 176.5t-33.5 270.5zM395 1577v244h170v-244h-170zM788 1577v244h170v-244h-170z " />
<glyph unicode="&#xdd;" horiz-adv-x="1167" d="M29 1475h202l355 -723l350 723h201l-461 -883v-592h-182v592zM502 1577l237 389h215l-295 -389h-157z" />
<glyph unicode="&#xde;" horiz-adv-x="1146" d="M135 0v1473h182v-277h312q107 0 182.5 -11t138.5 -39.5t100.5 -78t57.5 -126.5t20 -185q0 -90 -13 -158t-41.5 -116.5t-68 -81t-97.5 -51.5t-124.5 -26.5t-154.5 -7.5h-312v-315h-182zM317 469h312q94 0 150 11.5t94 44t52.5 87t14.5 144.5t-14.5 144.5t-52.5 87 t-94 43.5t-150 11h-312v-573z" />
<glyph unicode="&#xdf;" horiz-adv-x="1142" d="M135 0v1180q0 176 110.5 269t309.5 93q184 0 298 -79.5t114 -200.5q0 -25 -1 -43.5t-6.5 -51t-15 -56t-29 -51.5t-47 -45.5t-70 -29.5t-96.5 -12q-59 0 -95 -36t-36 -108q0 -38 22.5 -69.5t59 -53.5t83.5 -46t95.5 -45t95.5 -51.5t83.5 -65t59 -86.5t22.5 -115 q0 -69 -21 -124t-57 -90.5t-86 -59t-104.5 -33.5t-116.5 -10q-73 0 -133 7.5t-95 16t-104 29.5l33 133q162 -49 290 -49q101 0 162.5 38.5t61.5 125.5q0 38 -22.5 69t-59 53t-83.5 45.5t-95.5 44.5t-95.5 51.5t-83.5 65.5t-59 87.5t-22.5 115.5q0 70 16.5 123.5t42.5 84.5 t61.5 51t69.5 27t71 7q72 0 102.5 39t30.5 117q0 16 -4 32t-19 37.5t-39 37.5t-69.5 27t-104.5 11q-55 0 -97 -8.5t-68.5 -25t-44.5 -36.5t-27 -47.5t-12 -52.5t-3 -57v-1180h-172z" />
<glyph unicode="&#xe0;" horiz-adv-x="976" d="M61 319q0 57 5.5 100.5t22.5 88t45 73t76.5 46.5t113.5 18q188 0 356 -78v162q0 127 -49 182.5t-168 55.5q-97 0 -285 -49l-35 126q184 62 344 62q198 0 281.5 -96t83.5 -281v-606q0 -40 -57 -69.5t-143.5 -44.5t-166 -22t-145.5 -7q-70 0 -121 18t-81 46.5t-47.5 74.5 t-23.5 92t-6 108zM123 1507l205 27l225 -311l-137 -15zM236 317q0 -53 6 -90.5t21 -68.5t43.5 -46.5t70.5 -15.5q113 0 208 17t95 47v289q0 30 -107.5 55.5t-195.5 25.5q-78 0 -109.5 -55t-31.5 -158z" />
<glyph unicode="&#xe1;" horiz-adv-x="976" d="M61 319q0 57 5.5 100.5t22.5 88t45 73t76.5 46.5t113.5 18q188 0 356 -78v162q0 127 -49 182.5t-168 55.5q-97 0 -285 -49l-35 126q184 62 344 62q198 0 281.5 -96t83.5 -281v-606q0 -40 -57 -69.5t-143.5 -44.5t-166 -22t-145.5 -7q-70 0 -121 18t-81 46.5t-47.5 74.5 t-23.5 92t-6 108zM236 317q0 -53 6 -90.5t21 -68.5t43.5 -46.5t70.5 -15.5q113 0 208 17t95 47v289q0 30 -107.5 55.5t-195.5 25.5q-78 0 -109.5 -55t-31.5 -158zM403 1208l238 389h215l-295 -389h-158z" />
<glyph unicode="&#xe2;" horiz-adv-x="976" d="M61 319q0 57 5.5 100.5t22.5 88t45 73t76.5 46.5t113.5 18q188 0 356 -78v162q0 127 -49 182.5t-168 55.5q-97 0 -285 -49l-35 126q184 62 344 62q198 0 281.5 -96t83.5 -281v-606q0 -40 -57 -69.5t-143.5 -44.5t-166 -22t-145.5 -7q-70 0 -121 18t-81 46.5t-47.5 74.5 t-23.5 92t-6 108zM195 1241l292 281l295 -281l-45 -53l-250 147l-247 -147zM236 317q0 -53 6 -90.5t21 -68.5t43.5 -46.5t70.5 -15.5q113 0 208 17t95 47v289q0 30 -107.5 55.5t-195.5 25.5q-78 0 -109.5 -55t-31.5 -158z" />
<glyph unicode="&#xe3;" horiz-adv-x="976" d="M61 319q0 57 5.5 100.5t22.5 88t45 73t76.5 46.5t113.5 18q188 0 356 -78v162q0 127 -49 182.5t-168 55.5q-97 0 -285 -49l-35 126q184 62 344 62q198 0 281.5 -96t83.5 -281v-606q0 -40 -57 -69.5t-143.5 -44.5t-166 -22t-145.5 -7q-70 0 -121 18t-81 46.5t-47.5 74.5 t-23.5 92t-6 108zM190 1247q55 114 166 137q51 6 89.5 -9t76 -33t80.5 -17q56 -3 103 61l92 -40q-32 -67 -79.5 -103t-92.5 -43q-50 -6 -88 9.5t-75.5 33.5t-80.5 17q-29 3 -50 -11.5t-46 -50.5zM236 317q0 -53 6 -90.5t21 -68.5t43.5 -46.5t70.5 -15.5q113 0 208 17t95 47 v289q0 30 -107.5 55.5t-195.5 25.5q-78 0 -109.5 -55t-31.5 -158z" />
<glyph unicode="&#xe4;" horiz-adv-x="976" d="M61 319q0 57 5.5 100.5t22.5 88t45 73t76.5 46.5t113.5 18q188 0 356 -78v162q0 127 -49 182.5t-168 55.5q-97 0 -285 -49l-35 126q184 62 344 62q198 0 281.5 -96t83.5 -281v-606q0 -40 -57 -69.5t-143.5 -44.5t-166 -22t-145.5 -7q-70 0 -121 18t-81 46.5t-47.5 74.5 t-23.5 92t-6 108zM205 1208v244h170v-244h-170zM236 317q0 -53 6 -90.5t21 -68.5t43.5 -46.5t70.5 -15.5q113 0 208 17t95 47v289q0 30 -107.5 55.5t-195.5 25.5q-78 0 -109.5 -55t-31.5 -158zM598 1208v244h170v-244h-170z" />
<glyph unicode="&#xe5;" horiz-adv-x="976" d="M61 319q0 57 5.5 100.5t22.5 88t45 73t76.5 46.5t113.5 18q188 0 356 -78v162q0 127 -49 182.5t-168 55.5q-97 0 -285 -49l-35 126q184 62 344 62q198 0 281.5 -96t83.5 -281v-606q0 -40 -57 -69.5t-143.5 -44.5t-166 -22t-145.5 -7q-70 0 -121 18t-81 46.5t-47.5 74.5 t-23.5 92t-6 108zM236 317q0 -53 6 -90.5t21 -68.5t43.5 -46.5t70.5 -15.5q113 0 208 17t95 47v289q0 30 -107.5 55.5t-195.5 25.5q-78 0 -109.5 -55t-31.5 -158zM264 1405q0 92 64 149.5t159 57.5q96 0 160 -57.5t64 -149.5t-64 -148.5t-160 -56.5t-159.5 56.5t-63.5 148.5 zM377 1405q0 -48 32 -76.5t78 -28.5t78.5 28.5t32.5 76.5t-32.5 77t-78.5 29t-78 -29t-32 -77z" />
<glyph unicode="&#xe6;" horiz-adv-x="1570" d="M63 319q0 57 5.5 100.5t22.5 88t45 73t75.5 46.5t112.5 18q187 0 358 -78v162q0 127 -49.5 182.5t-167.5 55.5q-99 0 -287 -49l-33 126q180 62 342 62q208 0 293 -111q56 61 150 86t239 25q78 0 135 -17t90.5 -44.5t53.5 -70t26.5 -85t6.5 -98.5v-129q0 -40 -31 -72.5 t-99 -60.5t-193.5 -44.5t-299.5 -17.5v-51q0 -54 5 -94.5t20.5 -81.5t42.5 -67.5t74 -43t112 -16.5q177 0 334 61l35 -127q-65 -27 -169 -49.5t-200 -22.5q-201 0 -305 84q-68 -41 -208.5 -60t-258.5 -19q-70 0 -121 18t-80.5 46.5t-47 74.5t-23 92t-5.5 108zM238 317 q0 -108 30 -164.5t109 -56.5q113 0 209 17t96 47v289q0 30 -108 55.5t-197 25.5q-78 0 -108.5 -55t-30.5 -158zM858 561q449 11 449 125v102q0 95 -24 142t-97 47q-87 0 -144.5 -11.5t-101 -41.5t-63 -84.5t-19.5 -137.5v-141z" />
<glyph unicode="&#xe7;" horiz-adv-x="837" d="M109 432v217q0 114 18 194.5t61.5 141.5t120.5 91t189 30q140 0 258 -33l-27 -127q-122 23 -207 23q-76 0 -125.5 -22.5t-74 -68.5t-33 -98.5t-8.5 -130.5v-217q0 -62 5 -106t20 -86.5t41 -68.5t70 -42t105 -16q91 0 207 22l27 -127q-118 -33 -258 -33h-13l-36 -63 q77 -2 137.5 -41.5t60.5 -108.5q0 -56 -31 -96t-79 -57t-104.5 -21t-110.5 6.5t-93 30.5l35 64q25 -16 67 -23.5t84.5 -4t73.5 28.5t31 70q0 101 -172 101l62 121q-167 21 -234 132t-67 318z" />
<glyph unicode="&#xe8;" horiz-adv-x="995" d="M111 436v195q0 144 26 236t87.5 145t148.5 73.5t223 20.5q76 0 132 -17t88.5 -44.5t51.5 -70t25 -85t6 -98.5v-129q0 -40 -30.5 -72.5t-98.5 -60.5t-191.5 -44.5t-295.5 -17.5v-47q0 -53 5 -93.5t21 -82t43.5 -68t74.5 -43t112 -16.5q176 0 333 61l35 -125 q-65 -27 -169.5 -50t-198.5 -23q-123 0 -207 29.5t-132 89.5t-68.5 141.5t-20.5 195.5zM203 1501l205 27l225 -311l-137 -15zM283 561q450 11 450 125v102q0 95 -24 142t-97 47q-87 0 -144.5 -11.5t-101 -41.5t-63.5 -84.5t-20 -137.5v-141z" />
<glyph unicode="&#xe9;" horiz-adv-x="995" d="M111 436v195q0 144 26 236t87.5 145t148.5 73.5t223 20.5q76 0 132 -17t88.5 -44.5t51.5 -70t25 -85t6 -98.5v-129q0 -40 -30.5 -72.5t-98.5 -60.5t-191.5 -44.5t-295.5 -17.5v-47q0 -53 5 -93.5t21 -82t43.5 -68t74.5 -43t112 -16.5q176 0 333 61l35 -125 q-65 -27 -169.5 -50t-198.5 -23q-123 0 -207 29.5t-132 89.5t-68.5 141.5t-20.5 195.5zM283 561q450 11 450 125v102q0 95 -24 142t-97 47q-87 0 -144.5 -11.5t-101 -41.5t-63.5 -84.5t-20 -137.5v-141zM483 1202l238 389h215l-295 -389h-158z" />
<glyph unicode="&#xea;" horiz-adv-x="995" d="M111 436v195q0 144 26 236t87.5 145t148.5 73.5t223 20.5q76 0 132 -17t88.5 -44.5t51.5 -70t25 -85t6 -98.5v-129q0 -40 -30.5 -72.5t-98.5 -60.5t-191.5 -44.5t-295.5 -17.5v-47q0 -53 5 -93.5t21 -82t43.5 -68t74.5 -43t112 -16.5q176 0 333 61l35 -125 q-65 -27 -169.5 -50t-198.5 -23q-123 0 -207 29.5t-132 89.5t-68.5 141.5t-20.5 195.5zM272 1235l293 281l295 -281l-45 -53l-250 147l-248 -147zM283 561q450 11 450 125v102q0 95 -24 142t-97 47q-87 0 -144.5 -11.5t-101 -41.5t-63.5 -84.5t-20 -137.5v-141z" />
<glyph unicode="&#xeb;" horiz-adv-x="995" d="M111 436v195q0 144 26 236t87.5 145t148.5 73.5t223 20.5q76 0 132 -17t88.5 -44.5t51.5 -70t25 -85t6 -98.5v-129q0 -40 -30.5 -72.5t-98.5 -60.5t-191.5 -44.5t-295.5 -17.5v-47q0 -53 5 -93.5t21 -82t43.5 -68t74.5 -43t112 -16.5q176 0 333 61l35 -125 q-65 -27 -169.5 -50t-198.5 -23q-123 0 -207 29.5t-132 89.5t-68.5 141.5t-20.5 195.5zM283 561q450 11 450 125v102q0 95 -24 142t-97 47q-87 0 -144.5 -11.5t-101 -41.5t-63.5 -84.5t-20 -137.5v-141zM285 1202v244h170v-244h-170zM678 1202v244h170v-244h-170z" />
<glyph unicode="&#xec;" horiz-adv-x="497" d="M-160 1507l205 27l225 -311l-137 -15zM119 244v841h174v-835q0 -131 92 -131q47 0 92 18l29 -125q-88 -32 -160 -32q-104 0 -165.5 63.5t-61.5 200.5z" />
<glyph unicode="&#xed;" horiz-adv-x="497" d="M119 244v841h174v-835q0 -131 92 -131q47 0 92 18l29 -125q-88 -32 -160 -32q-104 0 -165.5 63.5t-61.5 200.5zM121 1208l237 389h215l-294 -389h-158z" />
<glyph unicode="&#xee;" horiz-adv-x="497" d="M-88 1241l293 281l295 -281l-45 -53l-250 147l-248 -147zM119 244v841h174v-835q0 -131 92 -131q47 0 92 18l29 -125q-88 -32 -160 -32q-104 0 -165.5 63.5t-61.5 200.5z" />
<glyph unicode="&#xef;" horiz-adv-x="497" d="M-76 1208v244h170v-244h-170zM119 244v841h174v-835q0 -131 92 -131q47 0 92 18l29 -125q-88 -32 -160 -32q-104 0 -165.5 63.5t-61.5 200.5zM317 1208v244h170v-244h-170z" />
<glyph unicode="&#xf0;" horiz-adv-x="1320" d="M109 434v72q0 236 121 346.5t374 110.5h14q206 0 371 -105q-139 243 -414 385l-63 -129l-109 47l64 131q-78 34 -186 66l45 137q131 -41 204 -72l70 142l109 -49l-70 -142q550 -277 571 -842q2 -10 2 -26v-72q0 -232 -133.5 -343t-410.5 -111h-15q-277 0 -410.5 111 t-133.5 343zM289 436q0 -146 83.5 -224.5t280.5 -78.5h15q197 0 280.5 78.5t83.5 224.5v70q0 153 -82.5 228t-281.5 75h-15q-201 0 -282.5 -74.5t-81.5 -228.5v-70z" />
<glyph unicode="&#xf1;" horiz-adv-x="1054" d="M127 0v911q0 28 41.5 61.5t110.5 63.5t171.5 50t211.5 20q52 0 93 -11t68.5 -28t47 -46.5t30.5 -58t16.5 -71.5t7 -77t1.5 -85v-729h-174v729q0 46 -1.5 75t-8 64t-18.5 54.5t-35 33t-56 13.5q-134 0 -233 -32t-99 -71v-866h-174zM264 1247q55 114 166 137q51 6 89.5 -9 t76 -33t80.5 -17q55 -3 102 61l92 -40q-32 -67 -79.5 -103t-92.5 -43q-50 -6 -88 9.5t-75 33.5t-80 17q-29 3 -50.5 -11.5t-46.5 -50.5z" />
<glyph unicode="&#xf2;" d="M113 297v491q0 164 98 241t305 77q208 0 307 -77t99 -241v-491q0 -164 -99 -240.5t-307 -76.5q-207 0 -305 76.5t-98 240.5zM152 1507l204 27l226 -311l-138 -15zM285 299q0 -93 54.5 -141.5t176.5 -48.5q234 0 234 190v489q0 94 -55.5 141.5t-178.5 47.5 q-122 0 -176.5 -47.5t-54.5 -141.5v-489z" />
<glyph unicode="&#xf3;" d="M113 297v491q0 164 98 241t305 77q208 0 307 -77t99 -241v-491q0 -164 -99 -240.5t-307 -76.5q-207 0 -305 76.5t-98 240.5zM285 299q0 -93 54.5 -141.5t176.5 -48.5q234 0 234 190v489q0 94 -55.5 141.5t-178.5 47.5q-122 0 -176.5 -47.5t-54.5 -141.5v-489zM432 1208 l238 389h215l-295 -389h-158z" />
<glyph unicode="&#xf4;" d="M113 297v491q0 164 98 241t305 77q208 0 307 -77t99 -241v-491q0 -164 -99 -240.5t-307 -76.5q-207 0 -305 76.5t-98 240.5zM221 1241l293 281l295 -281l-45 -53l-250 147l-248 -147zM285 299q0 -93 54.5 -141.5t176.5 -48.5q234 0 234 190v489q0 94 -55.5 141.5 t-178.5 47.5q-122 0 -176.5 -47.5t-54.5 -141.5v-489z" />
<glyph unicode="&#xf5;" d="M113 297v491q0 164 98 241t305 77q208 0 307 -77t99 -241v-491q0 -164 -99 -240.5t-307 -76.5q-207 0 -305 76.5t-98 240.5zM219 1247q55 114 166 137q51 6 89.5 -9t76 -33t80.5 -17q55 -3 102 61l92 -40q-32 -67 -79.5 -103t-92.5 -43q-50 -6 -88 9.5t-75 33.5t-80 17 q-29 3 -50.5 -11.5t-46.5 -50.5zM285 299q0 -93 54.5 -141.5t176.5 -48.5q234 0 234 190v489q0 94 -55.5 141.5t-178.5 47.5q-122 0 -176.5 -47.5t-54.5 -141.5v-489z" />
<glyph unicode="&#xf6;" d="M113 297v491q0 164 98 241t305 77q208 0 307 -77t99 -241v-491q0 -164 -99 -240.5t-307 -76.5q-207 0 -305 76.5t-98 240.5zM233 1208v244h170v-244h-170zM285 299q0 -93 54.5 -141.5t176.5 -48.5q234 0 234 190v489q0 94 -55.5 141.5t-178.5 47.5q-122 0 -176.5 -47.5 t-54.5 -141.5v-489zM627 1208v244h170v-244h-170z" />
<glyph unicode="&#xf7;" horiz-adv-x="835" d="M51 496v168h735v-168h-735zM330 0v244h172v-244h-172zM330 903v244h172v-244h-172z" />
<glyph unicode="&#xf8;" d="M111 -106l90 169q-88 79 -88 234v491q0 164 98 241t305 77q131 0 219 -31l72 133h115l-97 -182q97 -82 97 -238v-491q0 -164 -99 -240.5t-307 -76.5q-133 0 -227 32l-64 -118h-114zM285 299q0 -36 6 -63l377 710q-57 31 -152 31q-122 0 -176.5 -47.5t-54.5 -141.5v-489z M356 143q55 -34 160 -34q234 0 234 190v489q0 37 -11 74z" />
<glyph unicode="&#xf9;" horiz-adv-x="1052" d="M129 356v729h174v-729q0 -41 1 -64t4 -56.5t10.5 -52t20 -38t33 -28t48.5 -8.5q134 0 234 32t100 70v874h174v-940q0 -37 -68.5 -75t-194.5 -64t-272 -26q-52 0 -93 11t-68.5 28t-47 46.5t-30.5 57.5t-16.5 71t-7 77t-1.5 85zM166 1507l205 27l225 -311l-137 -15z" />
<glyph unicode="&#xfa;" horiz-adv-x="1052" d="M129 356v729h174v-729q0 -41 1 -64t4 -56.5t10.5 -52t20 -38t33 -28t48.5 -8.5q134 0 234 32t100 70v874h174v-940q0 -37 -68.5 -75t-194.5 -64t-272 -26q-52 0 -93 11t-68.5 28t-47 46.5t-30.5 57.5t-16.5 71t-7 77t-1.5 85zM444 1208l238 389h215l-295 -389h-158z" />
<glyph unicode="&#xfb;" horiz-adv-x="1052" d="M129 356v729h174v-729q0 -41 1 -64t4 -56.5t10.5 -52t20 -38t33 -28t48.5 -8.5q134 0 234 32t100 70v874h174v-940q0 -37 -68.5 -75t-194.5 -64t-272 -26q-52 0 -93 11t-68.5 28t-47 46.5t-30.5 57.5t-16.5 71t-7 77t-1.5 85zM236 1241l292 281l295 -281l-45 -53 l-250 147l-247 -147z" />
<glyph unicode="&#xfc;" horiz-adv-x="1052" d="M129 356v729h174v-729q0 -41 1 -64t4 -56.5t10.5 -52t20 -38t33 -28t48.5 -8.5q134 0 234 32t100 70v874h174v-940q0 -37 -68.5 -75t-194.5 -64t-272 -26q-52 0 -93 11t-68.5 28t-47 46.5t-30.5 57.5t-16.5 71t-7 77t-1.5 85zM248 1208v244h170v-244h-170zM641 1208v244 h170v-244h-170z" />
<glyph unicode="&#xfd;" horiz-adv-x="1054" d="M127 348v737h174v-737q0 -41 1 -63.5t4 -55t10.5 -50.5t20 -36t33 -26t48.5 -8q126 0 216 29t118 67v880h174v-1134q0 -93 -6 -156t-23 -117t-47 -84t-78 -46.5t-117 -16.5q-82 0 -170.5 15t-149 31.5t-173.5 51.5l43 127q277 -86 426 -86q29 0 49.5 8t34 27t21 39 t11 57.5t4.5 67.5t1 82v147q-146 -118 -377 -118q-49 0 -87 10.5t-64 27.5t-44.5 45.5t-28.5 56.5t-15.5 69.5t-7 75.5t-1.5 83zM446 1206l238 389h215l-295 -389h-158z" />
<glyph unicode="&#xfe;" horiz-adv-x="1044" d="M135 -440v1913h172v-539q147 119 377 119q49 0 88 -10.5t64.5 -27.5t44 -46t28.5 -56.5t15 -70t6.5 -75.5t1.5 -83v-336q0 -50 -1.5 -83t-6.5 -75.5t-15 -70t-28.5 -56.5t-44 -45.5t-64.5 -27t-88 -10.5q-231 0 -377 118v-538h-172zM307 205q29 -38 119 -67t215 -29 q28 0 48.5 8t33.5 26t20.5 36.5t11 50t4.5 55.5t1 63v336q0 39 -1 63t-4.5 56t-11 50.5t-20.5 36.5t-33.5 26t-48.5 8q-125 0 -214.5 -29.5t-119.5 -67.5v-622z" />
<glyph unicode="&#xff;" horiz-adv-x="1054" d="M127 348v737h174v-737q0 -41 1 -63.5t4 -55t10.5 -50.5t20 -36t33 -26t48.5 -8q126 0 216 29t118 67v880h174v-1134q0 -93 -6 -156t-23 -117t-47 -84t-78 -46.5t-117 -16.5q-82 0 -170.5 15t-149 31.5t-173.5 51.5l43 127q277 -86 426 -86q29 0 49.5 8t34 27t21 39 t11 57.5t4.5 67.5t1 82v147q-146 -118 -377 -118q-49 0 -87 10.5t-64 27.5t-44.5 45.5t-28.5 56.5t-15.5 69.5t-7 75.5t-1.5 83zM250 1206v244h170v-244h-170zM643 1206v244h170v-244h-170z" />
<glyph unicode="&#x152;" horiz-adv-x="2062" d="M113 526v420q0 156 33 261.5t105 169t175 90t254 26.5h29q255 0 385 -86v66h878v-154h-696v-485h645v-156h-645v-524h696v-154h-878v63q-129 -83 -385 -83h-29q-148 0 -251 27t-175.5 90.5t-106.5 169t-34 259.5zM299 526q0 -217 84 -304t297 -87h29q213 0 297 87t84 304 v420q0 218 -84 305.5t-297 87.5h-29q-213 0 -297 -87.5t-84 -305.5v-420z" />
<glyph unicode="&#x153;" horiz-adv-x="1638" d="M113 297v491q0 164 98 241t305 77q244 0 336 -105q56 58 149 81.5t236 23.5q76 0 132 -17t88.5 -44.5t51.5 -70t25 -85t6 -98.5v-129q0 -40 -30.5 -72.5t-98.5 -60.5t-191.5 -44.5t-295.5 -17.5v-47q0 -53 5 -93.5t21 -82t43.5 -68t74.5 -43t112 -16.5q176 0 333 61 l35 -125q-65 -27 -169.5 -50t-198.5 -23q-224 0 -328 104q-91 -104 -336 -104q-207 0 -305 76.5t-98 240.5zM285 299q0 -93 54.5 -141.5t176.5 -48.5q234 0 234 190v489q0 94 -55.5 141.5t-178.5 47.5q-122 0 -176.5 -47.5t-54.5 -141.5v-489zM924 561q450 11 450 125v102 q0 95 -24 142t-97 47q-87 0 -144.5 -11.5t-101 -41.5t-63.5 -84.5t-20 -137.5v-141z" />
<glyph unicode="&#x178;" horiz-adv-x="1167" d="M29 1475h202l355 -723l350 723h201l-461 -883v-592h-182v592zM303 1577v244h170v-244h-170zM696 1577v244h170v-244h-170z" />
<glyph unicode="&#x2c6;" horiz-adv-x="759" d="M82 1241l293 281l295 -281l-45 -53l-250 147l-248 -147z" />
<glyph unicode="&#x2dc;" horiz-adv-x="690" d="M47 1247q55 114 166 137q51 6 89.5 -9t76 -33t80.5 -17q55 -3 102 61l92 -40q-32 -67 -79.5 -103t-92.5 -43q-50 -6 -88 9.5t-75 33.5t-80 17q-29 3 -50.5 -11.5t-46.5 -50.5z" />
<glyph unicode="&#x2000;" horiz-adv-x="990" />
<glyph unicode="&#x2001;" horiz-adv-x="1980" />
<glyph unicode="&#x2002;" horiz-adv-x="990" />
<glyph unicode="&#x2003;" horiz-adv-x="1980" />
<glyph unicode="&#x2004;" horiz-adv-x="660" />
<glyph unicode="&#x2005;" horiz-adv-x="495" />
<glyph unicode="&#x2006;" horiz-adv-x="330" />
<glyph unicode="&#x2007;" horiz-adv-x="330" />
<glyph unicode="&#x2008;" horiz-adv-x="247" />
<glyph unicode="&#x2009;" horiz-adv-x="396" />
<glyph unicode="&#x200a;" horiz-adv-x="110" />
<glyph unicode="&#x2010;" horiz-adv-x="757" d="M135 516v164h490v-164h-490z" />
<glyph unicode="&#x2011;" horiz-adv-x="757" d="M135 516v164h490v-164h-490z" />
<glyph unicode="&#x2012;" horiz-adv-x="757" d="M135 516v164h490v-164h-490z" />
<glyph unicode="&#x2013;" horiz-adv-x="1202" d="M135 516v164h932v-164h-932z" />
<glyph unicode="&#x2014;" horiz-adv-x="1769" d="M135 516v164h1499v-164h-1499z" />
<glyph unicode="&#x2018;" horiz-adv-x="374" d="M16 989l183 484h131l-117 -484h-197z" />
<glyph unicode="&#x2019;" horiz-adv-x="376" d="M51 1001l115 480h199l-183 -480h-131z" />
<glyph unicode="&#x201a;" horiz-adv-x="380" d="M55 -297l103 481h202l-170 -481h-135z" />
<glyph unicode="&#x201c;" horiz-adv-x="858" d="M121 1473h196l117 -484h-135zM426 1473h197l114 -484h-131z" />
<glyph unicode="&#x201d;" horiz-adv-x="845" d="M123 989l115 484h194l-178 -484h-131zM426 989l117 484h196l-180 -484h-133z" />
<glyph unicode="&#x201e;" horiz-adv-x="823" d="M55 -297l103 481h202l-170 -481h-135zM457 -297l102 481h203l-170 -481h-135z" />
<glyph unicode="&#x2022;" horiz-adv-x="667" d="M135 272v574h400v-574h-400z" />
<glyph unicode="&#x2026;" horiz-adv-x="1677" d="M135 0v244h174v-244h-174zM754 0v244h170v-244h-170zM1368 0v244h172v-244h-172z" />
<glyph unicode="&#x202f;" horiz-adv-x="396" />
<glyph unicode="&#x2039;" horiz-adv-x="626" d="M55 575l391 451l113 -98l-293 -353l293 -352l-113 -100z" />
<glyph unicode="&#x203a;" horiz-adv-x="624" d="M66 928l114 98l391 -451l-391 -452l-112 100l290 352z" />
<glyph unicode="&#x205f;" horiz-adv-x="495" />
<glyph unicode="&#x20ac;" horiz-adv-x="1239" d="M66 434l24 109h191v106h-215l24 109h191v190q0 154 34.5 259t108 168t178 90.5t254.5 27.5h25q174 0 325 -53l-35 -146q-149 45 -290 45h-25q-219 0 -304 -86.5t-85 -304.5v-190h342l-31 -109h-311v-106h342l-31 -109h-307q15 -164 102.5 -231.5t282.5 -67.5h25 q127 0 290 43l35 -143q-148 -55 -325 -55h-25q-278 0 -415.5 102.5t-157.5 351.5h-217z" />
<glyph unicode="&#x2122;" horiz-adv-x="1865" d="M80 1321v133h631v-133h-244v-694h-143v694h-244zM723 625l180 829h133l201 -586l205 586h131l180 -829h-151l-109 551l-193 -551h-122l-195 551l-109 -551h-151z" />
<glyph unicode="&#x25fc;" horiz-adv-x="1085" d="M0 0v1085h1085v-1085h-1085z" />
</font>
</defs>
</svg>
